M48
; DRILL file {KiCad 7.0.11} date Fri Jul 12 13:00:08 2024
; FORMAT={-:-/ absolute / metric / decimal}
; #@! TF.CreationDate,2024-07-12T13:00:08+02:00
; #@! TF.GenerationSoftware,Kicad,Pcbnew,7.0.11
; #@! TF.FileFunction,Plated,1,4,PTH
FMAT,2
METRIC
; #@! TA.AperFunction,Plated,PTH,ViaDrill
T1C0.300
; #@! TA.AperFunction,Plated,PTH,ViaDrill
T2C0.305
; #@! TA.AperFunction,Plated,PTH,ViaDrill
T3C0.400
; #@! TA.AperFunction,Plated,PTH,ComponentDrill
T4C0.600
; #@! TA.AperFunction,Plated,PTH,ComponentDrill
T5C0.800
; #@! TA.AperFunction,Plated,PTH,ComponentDrill
T6C1.000
; #@! TA.AperFunction,Plated,PTH,ComponentDrill
T7C1.016
; #@! TA.AperFunction,Plated,PTH,ComponentDrill
T8C1.100
; #@! TA.AperFunction,Plated,PTH,ComponentDrill
T9C2.000
%
G90
G05
T1
X68.068Y-72.781
T2
X30.641Y-99.174
X30.816Y-96.041
X33.27Y-121.209
X36.623Y-85.7
X36.659Y-105.25
X37.221Y-125.132
X37.611Y-92.699
X38.1Y-60.706
X38.247Y-102.285
X38.249Y-94.183
X38.989Y-62.23
X39.37Y-96.901
X40.597Y-104.901
X42.095Y-130.284
X42.391Y-98.293
X45.75Y-63.25
X45.974Y-61.722
X48.26Y-62.357
X48.641Y-58.039
X51.382Y-108.933
X51.943Y-54.864
X52.578Y-55.651
X53.086Y-53.975
X53.206Y-54.737
X54.624Y-54.977
X56.537Y-70.358
X57.15Y-87.884
X57.658Y-57.531
X57.658Y-60.071
X57.785Y-62.23
X59.563Y-42.139
X59.614Y-51.003
X59.69Y-52.07
X60.198Y-45.364
X60.325Y-50.419
X60.833Y-43.028
X60.975Y-52.146
X61.341Y-49.276
X61.595Y-58.928
X61.595Y-61.595
X61.722Y-46.101
X61.976Y-48.387
X62.243Y-92.587
X62.484Y-54.915
X62.611Y-41.656
X62.611Y-49.022
X62.729Y-47.5
X62.992Y-92.553
X63.0Y-48.212
X63.09Y-115.214
X63.25Y-44.827
X63.317Y-40.513
X63.373Y-42.799
X63.554Y-47.193
X64.157Y-67.462
X64.157Y-113.487
X64.302Y-45.172
X64.421Y-43.783
X65.173Y-92.71
X65.176Y-62.636
X65.659Y-58.293
X65.681Y-78.537
X65.71Y-83.312
X65.786Y-45.113
X65.913Y-42.799
X65.913Y-49.149
X66.04Y-51.435
X66.04Y-88.519
X66.747Y-125.12
X66.929Y-112.522
X67.103Y-122.987
X67.437Y-102.489
X67.459Y-123.647
X67.564Y-45.593
X67.916Y-79.959
X67.916Y-122.377
X67.945Y-83.185
X68.199Y-57.328
X68.373Y-94.336
X68.961Y-59.309
X69.033Y-67.615
X69.088Y-75.819
X69.194Y-87.427
X69.541Y-91.694
X70.104Y-42.545
X70.303Y-83.007
X70.349Y-43.993
X70.485Y-59.182
X70.739Y-78.613
X70.866Y-77.216
X70.88Y-61.101
X71.247Y-42.926
X71.319Y-123.8
X71.501Y-45.466
X71.501Y-68.961
X71.726Y-101.244
X71.882Y-40.284
X71.882Y-109.855
X72.771Y-74.93
X72.793Y-126.39
X72.945Y-99.111
X73.025Y-45.974
X73.199Y-101.194
X73.351Y-121.463
X73.351Y-123.8
X73.516Y-57.658
X73.533Y-58.547
X73.554Y-52.021
X73.656Y-80.67
X73.914Y-69.215
X73.949Y-48.15
X74.082Y-51.471
X74.108Y-43.442
X74.382Y-47.523
X74.422Y-64.008
X74.498Y-67.183
X74.549Y-57.658
X74.571Y-80.264
X74.628Y-50.939
X74.825Y-124.371
X74.93Y-76.327
X74.93Y-87.427
X75.073Y-50.321
X75.133Y-43.411
X75.24Y-57.328
X75.297Y-47.377
X75.438Y-46.482
X75.438Y-73.787
X75.551Y-49.727
X75.598Y-58.76
X75.817Y-43.076
X76.2Y-80.772
X76.239Y-46.685
X76.327Y-71.374
X76.568Y-58.242
X76.72Y-45.971
X77.47Y-83.439
X77.549Y-46.022
X77.724Y-49.657
X77.851Y-40.386
X77.9Y-68.3
X77.978Y-58.166
X78.054Y-72.602
X78.105Y-43.307
X78.359Y-103.443
X78.74Y-61.468
X78.8Y-63.6
X78.851Y-46.494
X78.867Y-58.039
X78.897Y-65.663
X79.131Y-50.013
X79.597Y-50.776
X79.894Y-52.3
X80.075Y-99.186
X80.264Y-80.645
X80.433Y-81.788
X80.659Y-42.19
X80.673Y-53.626
X80.675Y-52.859
X80.772Y-68.326
X81.153Y-54.229
X81.153Y-55.118
X81.269Y-42.846
X81.28Y-62.5
X81.28Y-66.294
X81.483Y-55.88
X82.55Y-91.821
X82.742Y-100.456
X82.927Y-46.298
X83.042Y-47.416
X83.454Y-65.8
X83.485Y-64.943
X83.525Y-54.512
X83.6Y-41.31
X83.644Y-46.814
X83.693Y-49.276
X83.765Y-33.782
X84.053Y-58.852
X84.215Y-56.529
X84.223Y-57.312
X84.264Y-54.801
X84.328Y-55.626
X84.433Y-43.194
X84.774Y-95.313
X84.836Y-54.102
X84.959Y-56.362
X84.962Y-53.34
X85.076Y-42.785
X86.284Y-76.969
X86.487Y-71.755
X87.271Y-33.122
X87.503Y-113.284
X87.63Y-46.482
X87.63Y-62.484
X87.63Y-64.008
X88.1Y-56.1
X88.265Y-49.657
X88.642Y-33.325
X88.675Y-68.142
X88.816Y-52.662
X88.838Y-96.075
X89.027Y-48.26
X89.281Y-67.386
X89.599Y-63.563
X90.043Y-65.532
X90.424Y-60.579
X90.551Y-71.628
X90.678Y-51.562
X90.678Y-76.962
X91.059Y-45.72
X91.186Y-123.952
X91.301Y-47.193
X91.313Y-58.547
X91.371Y-55.84
X91.87Y-97.361
X91.948Y-64.262
X92.71Y-82.423
X93.345Y-68.72
X93.599Y-80.391
X94.005Y-50.774
X94.742Y-58.674
X94.742Y-73.787
X94.869Y-56.816
X94.88Y-68.676
X94.934Y-100.266
X95.25Y-75.438
X95.504Y-46.609
X96.139Y-61.341
X96.585Y-99.25
X96.774Y-73.025
X96.901Y-123.825
X97.155Y-85.217
X98.171Y-73.66
X98.298Y-68.453
X98.679Y-66.929
X98.806Y-63.881
X99.441Y-84.582
X99.822Y-63.881
X100.203Y-68.453
X100.361Y-48.229
X100.457Y-66.929
X100.996Y-48.864
X101.219Y-123.698
X101.758Y-49.626
X101.792Y-105.854
X102.116Y-75.042
X102.362Y-53.848
X102.427Y-100.139
X103.251Y-63.119
X103.68Y-94.773
X103.746Y-49.67
X104.013Y-75.311
X104.585Y-50.51
X104.648Y-84.455
X104.775Y-70.739
X104.902Y-65.532
X105.512Y-50.8
X105.791Y-91.821
X105.918Y-56.388
X105.918Y-123.571
X106.045Y-63.246
X106.172Y-68.966
X106.548Y-94.991
X106.807Y-67.818
X106.844Y-51.271
X107.061Y-50.419
X107.253Y-105.727
X107.569Y-68.199
X110.49Y-123.698
X111.125Y-87.63
X111.379Y-55.499
X111.379Y-57.531
X111.633Y-60.071
X111.76Y-52.07
X112.014Y-92.964
X112.903Y-103.378
X113.284Y-82.931
X113.665Y-97.79
X114.173Y-64.135
X114.236Y-112.395
X114.427Y-124.841
X114.617Y-123.565
X114.935Y-87.884
X116.078Y-80.645
X116.586Y-73.914
X116.94Y-44.39
X116.967Y-110.871
X116.967Y-105.791
X117.729Y-108.839
X118.11Y-39.675
X118.87Y-46.089
X119.126Y-125.73
X120.015Y-62.23
X120.65Y-43.028
X121.412Y-62.103
X122.221Y-45.59
X123.31Y-50.521
X123.317Y-43.383
X125.603Y-39.751
X125.931Y-43.622
X126.238Y-75.438
X127.853Y-41.699
X127.886Y-40.582
X129.607Y-39.945
X131.703Y-39.247
X132.969Y-51.689
X135.89Y-38.608
T3
X29.054Y-124.866
X29.845Y-56.007
X30.099Y-64.516
X30.445Y-127.858
X30.799Y-106.038
X31.579Y-89.48
X31.736Y-84.216
X31.947Y-110.824
X32.258Y-59.436
X32.385Y-76.073
X32.568Y-66.36
X33.338Y-82.227
X33.47Y-113.557
X34.547Y-110.923
X35.953Y-110.983
X35.977Y-109.047
X36.623Y-66.65
X36.803Y-69.115
X38.1Y-58.42
X38.238Y-119.549
X38.885Y-121.564
X39.264Y-109.436
X39.491Y-51.822
X40.613Y-114.997
X40.629Y-109.983
X40.662Y-111.683
X42.75Y-63.5
X43.555Y-110.805
X44.507Y-117.362
X47.489Y-111.397
X47.579Y-116.891
X47.94Y-120.099
X48.768Y-52.451
X49.53Y-56.388
X49.974Y-58.864
X50.292Y-60.071
X51.469Y-52.423
X51.914Y-130.454
X52.319Y-115.758
X52.49Y-111.408
X54.78Y-118.948
X55.5Y-70.3
X55.558Y-56.928
X56.134Y-98.263
X56.333Y-69.24
X56.537Y-68.174
X58.481Y-98.292
X58.823Y-66.091
X59.124Y-103.218
X59.32Y-117.462
X60.145Y-98.377
X60.245Y-66.497
X62.074Y-115.214
X62.328Y-67.41
X62.9Y-36.9
X63.089Y-131.077
X64.008Y-118.243
X64.258Y-66.497
X64.643Y-41.396
X64.643Y-42.926
X65.151Y-116.459
X66.6Y-64.4
X67.662Y-65.532
X70.376Y-33.628
X70.957Y-100.178
X71.219Y-38.301
X71.247Y-41.275
X74.93Y-96.647
X75.0Y-38.4
X75.057Y-41.275
X75.946Y-96.647
X76.704Y-119.641
X78.908Y-33.731
X79.7Y-65.0
X82.6Y-35.4
X82.804Y-73.279
X82.804Y-75.438
X82.994Y-38.008
X83.775Y-121.388
X83.933Y-29.151
X83.948Y-104.584
X84.228Y-37.144
X84.461Y-42.104
X84.8Y-68.5
X84.909Y-29.151
X86.2Y-67.2
X87.63Y-121.666
X88.335Y-120.523
X89.8Y-113.3
X90.664Y-35.084
X90.674Y-33.122
X92.334Y-31.475
X92.9Y-109.1
X95.0Y-106.9
X96.647Y-48.006
X97.917Y-45.974
X98.425Y-55.118
X101.092Y-60.96
X102.5Y-110.1
X105.283Y-42.545
X106.015Y-104.985
X106.2Y-34.8
X106.553Y-42.545
X106.8Y-97.9
X107.6Y-94.7
X107.88Y-90.932
X107.95Y-42.545
X109.474Y-102.87
X109.601Y-42.799
X111.125Y-68.707
X111.125Y-72.39
X111.633Y-75.184
X112.014Y-45.72
X112.268Y-78.994
X113.062Y-71.755
X113.2Y-113.9
X114.681Y-50.292
X115.965Y-96.288
X116.967Y-56.261
X117.881Y-117.5
X117.983Y-61.341
X124.3Y-61.3
X125.3Y-52.1
X130.81Y-29.87
T6
X48.514Y-28.909
X48.514Y-31.409
X48.514Y-33.909
X50.927Y-28.956
X50.927Y-31.456
X50.927Y-33.956
X60.198Y-70.485
X60.198Y-73.025
X60.198Y-75.565
X60.198Y-78.105
X60.198Y-80.645
X60.198Y-83.185
X60.198Y-85.725
X60.198Y-88.265
X62.738Y-70.485
X62.738Y-73.025
X62.738Y-75.565
X62.738Y-78.105
X62.738Y-80.645
X62.738Y-83.185
X62.738Y-85.725
X62.738Y-88.265
X92.138Y-113.792
X92.138Y-116.332
X94.678Y-113.792
X94.678Y-116.332
X97.218Y-113.792
X97.218Y-116.332
X99.758Y-113.792
X99.758Y-116.332
X102.298Y-113.792
X102.298Y-116.332
X104.838Y-113.792
X104.838Y-116.332
X107.378Y-113.792
X107.378Y-116.332
X109.918Y-113.792
X109.918Y-116.332
T7
X16.54Y-46.99
X16.54Y-58.42
X16.54Y-69.85
X16.54Y-81.28
X16.54Y-92.71
X16.54Y-104.14
X16.54Y-115.57
X16.54Y-127.0
X24.84Y-46.99
X24.84Y-58.42
X24.84Y-69.85
X24.84Y-81.28
X24.84Y-92.71
X24.84Y-104.14
X24.84Y-115.57
X24.84Y-127.0
X27.94Y-46.99
X27.94Y-58.42
X27.94Y-69.85
X27.94Y-81.28
X27.94Y-92.71
X27.94Y-104.14
X27.94Y-115.57
X27.94Y-127.0
X65.524Y-27.686
X65.524Y-30.226
X65.524Y-32.766
X65.524Y-35.306
X124.46Y-46.99
X124.46Y-58.42
X124.46Y-69.85
X124.46Y-81.28
X124.46Y-92.71
X124.46Y-104.14
X124.46Y-115.57
X124.46Y-127.0
X127.56Y-46.99
X127.56Y-58.42
X127.56Y-69.85
X127.56Y-81.28
X127.56Y-92.71
X127.56Y-104.14
X127.56Y-115.57
X127.56Y-127.0
X135.86Y-46.99
X135.86Y-58.42
X135.86Y-69.85
X135.86Y-81.28
X135.86Y-92.71
X135.86Y-104.14
X135.86Y-115.57
X135.86Y-127.0
T8
X101.212Y-29.25
X101.212Y-31.75
X101.212Y-34.25
X115.712Y-29.25
X115.712Y-34.25
T4
G00X64.746Y-127.284
M15
G01X64.746Y-128.384
M16
G05
G00X64.746Y-131.604
M15
G01X64.746Y-132.404
M16
G05
G00X73.396Y-127.284
M15
G01X73.396Y-128.384
M16
G05
G00X73.396Y-131.604
M15
G01X73.396Y-132.404
M16
G05
G00X79.221Y-27.892
M15
G01X79.221Y-27.092
M16
G05
G00X79.221Y-32.212
M15
G01X79.221Y-31.112
M16
G05
G00X87.871Y-27.892
M15
G01X87.871Y-27.092
M16
G05
G00X87.871Y-32.212
M15
G01X87.871Y-31.112
M16
G05
T5
G00X31.967Y-123.76
M15
G01X31.967Y-123.16
M16
G05
G00X31.967Y-127.26
M15
G01X31.967Y-126.66
M16
G05
G00X31.967Y-130.46
M15
G01X31.967Y-129.86
M16
G05
G00X38.267Y-123.76
M15
G01X38.267Y-123.16
M16
G05
G00X38.267Y-130.46
M15
G01X38.267Y-129.86
M16
G05
G00X43.477Y-123.76
M15
G01X43.477Y-123.16
M16
G05
G00X43.477Y-127.26
M15
G01X43.477Y-126.66
M16
G05
G00X43.477Y-130.46
M15
G01X43.477Y-129.86
M16
G05
G00X49.777Y-123.76
M15
G01X49.777Y-123.16
M16
G05
G00X49.777Y-130.46
M15
G01X49.777Y-129.86
M16
G05
G00X55.096Y-123.761
M15
G01X55.096Y-123.161
M16
G05
G00X55.096Y-127.261
M15
G01X55.096Y-126.661
M16
G05
G00X55.096Y-130.461
M15
G01X55.096Y-129.861
M16
G05
G00X61.396Y-123.761
M15
G01X61.396Y-123.161
M16
G05
G00X61.396Y-130.461
M15
G01X61.396Y-129.861
M16
G05
G00X69.562Y-29.448
M15
G01X69.562Y-30.048
M16
G05
G00X69.562Y-36.148
M15
G01X69.562Y-36.748
M16
G05
G00X75.862Y-29.448
M15
G01X75.862Y-30.048
M16
G05
G00X75.862Y-32.648
M15
G01X75.862Y-33.248
M16
G05
G00X75.862Y-36.148
M15
G01X75.862Y-36.748
M16
G05
G00X76.748Y-123.753
M15
G01X76.748Y-123.153
M16
G05
G00X76.748Y-127.253
M15
G01X76.748Y-126.653
M16
G05
G00X76.748Y-130.453
M15
G01X76.748Y-129.853
M16
G05
G00X83.048Y-123.753
M15
G01X83.048Y-123.153
M16
G05
G00X83.048Y-130.453
M15
G01X83.048Y-129.853
M16
G05
G00X91.19Y-29.53
M15
G01X91.19Y-30.13
M16
G05
G00X91.19Y-36.23
M15
G01X91.19Y-36.83
M16
G05
G00X97.49Y-29.53
M15
G01X97.49Y-30.13
M16
G05
G00X97.49Y-32.73
M15
G01X97.49Y-33.33
M16
G05
G00X97.49Y-36.23
M15
G01X97.49Y-36.83
M16
G05
T8
G00X41.364Y-26.609
M15
G01X40.664Y-26.609
M16
G05
G00X41.364Y-36.209
M15
G01X40.664Y-36.209
M16
G05
G00X58.077Y-26.656
M15
G01X58.777Y-26.656
M16
G05
G00X58.077Y-36.256
M15
G01X58.777Y-36.256
M16
G05
T9
G00X109.112Y-37.45
M15
G01X108.312Y-37.45
M16
G05
M30
