G04 #@! TF.GenerationSoftware,KiCad,Pcbnew,7.0.11*
G04 #@! TF.CreationDate,2024-07-12T12:59:49+02:00*
G04 #@! TF.ProjectId,plinkyblack_hwmidi_jacks,706c696e-6b79-4626-9c61-636b5f68776d,rev?*
G04 #@! TF.SameCoordinates,Original*
G04 #@! TF.FileFunction,Soldermask,Bot*
G04 #@! TF.FilePolarity,Negative*
%FSLAX46Y46*%
G04 Gerber Fmt 4.6, Leading zero omitted, Abs format (unit mm)*
G04 Created by KiCad (PCBNEW 7.0.11) date 2024-07-12 12:59:49*
%MOMM*%
%LPD*%
G01*
G04 APERTURE LIST*
G04 Aperture macros list*
%AMRoundRect*
0 Rectangle with rounded corners*
0 $1 Rounding radius*
0 $2 $3 $4 $5 $6 $7 $8 $9 X,Y pos of 4 corners*
0 Add a 4 corners polygon primitive as box body*
4,1,4,$2,$3,$4,$5,$6,$7,$8,$9,$2,$3,0*
0 Add four circle primitives for the rounded corners*
1,1,$1+$1,$2,$3*
1,1,$1+$1,$4,$5*
1,1,$1+$1,$6,$7*
1,1,$1+$1,$8,$9*
0 Add four rect primitives between the rounded corners*
20,1,$1+$1,$2,$3,$4,$5,0*
20,1,$1+$1,$4,$5,$6,$7,0*
20,1,$1+$1,$6,$7,$8,$9,0*
20,1,$1+$1,$8,$9,$2,$3,0*%
G04 Aperture macros list end*
%ADD10RoundRect,0.051000X0.915000X-0.965000X0.915000X0.965000X-0.915000X0.965000X-0.915000X-0.965000X0*%
%ADD11C,2.232000*%
%ADD12RoundRect,0.051000X-0.915000X0.965000X-0.915000X-0.965000X0.915000X-0.965000X0.915000X0.965000X0*%
%ADD13RoundRect,0.265000X-0.636000X0.636000X-0.636000X-0.636000X0.636000X-0.636000X0.636000X0.636000X0*%
%ADD14C,1.802000*%
%ADD15O,3.342000X2.822000*%
%ADD16O,3.342001X2.134000*%
%ADD17RoundRect,0.051000X-0.900000X0.900000X-0.900000X-0.900000X0.900000X-0.900000X0.900000X0.900000X0*%
%ADD18C,1.902000*%
%ADD19RoundRect,0.265000X0.636000X0.636000X-0.636000X0.636000X-0.636000X-0.636000X0.636000X-0.636000X0*%
%ADD20C,1.880000*%
%ADD21RoundRect,0.051000X0.900000X-0.900000X0.900000X0.900000X-0.900000X0.900000X-0.900000X-0.900000X0*%
%ADD22C,3.302000*%
%ADD23O,6.000000X3.000000*%
%ADD24RoundRect,0.051000X-0.825000X0.825000X-0.825000X-0.825000X0.825000X-0.825000X0.825000X0.825000X0*%
%ADD25C,1.752000*%
%ADD26O,6.102000X3.102000*%
%ADD27O,1.502000X2.102000*%
%ADD28C,0.702000*%
%ADD29O,1.104000X2.204000*%
%ADD30O,1.104000X1.904000*%
%ADD31C,1.102000*%
%ADD32RoundRect,0.051000X0.750000X-0.500000X0.750000X0.500000X-0.750000X0.500000X-0.750000X-0.500000X0*%
G04 APERTURE END LIST*
D10*
X27940000Y-115570000D03*
D11*
X16540000Y-115570000D03*
X24840000Y-115570000D03*
D12*
X124460000Y-46990000D03*
D11*
X135860000Y-46990000D03*
X127560000Y-46990000D03*
D12*
X124460000Y-58420000D03*
D11*
X135860000Y-58420000D03*
X127560000Y-58420000D03*
D10*
X27940000Y-81280000D03*
D11*
X16540000Y-81280000D03*
X24840000Y-81280000D03*
D10*
X27940000Y-92710000D03*
D11*
X16540000Y-92710000D03*
X24840000Y-92710000D03*
D12*
X124460000Y-104140000D03*
D11*
X135860000Y-104140000D03*
X127560000Y-104140000D03*
D12*
X124460000Y-92710000D03*
D11*
X135860000Y-92710000D03*
X127560000Y-92710000D03*
D13*
X109918500Y-113792000D03*
D14*
X109918500Y-116332000D03*
X107378500Y-113792000D03*
X107378500Y-116332000D03*
X104838500Y-113792000D03*
X104838500Y-116332000D03*
X102298500Y-113792000D03*
X102298500Y-116332000D03*
X99758500Y-113792000D03*
X99758500Y-116332000D03*
X97218500Y-113792000D03*
X97218500Y-116332000D03*
X94678500Y-113792000D03*
X94678500Y-116332000D03*
X92138500Y-113792000D03*
X92138500Y-116332000D03*
D10*
X27940000Y-104140000D03*
D11*
X16540000Y-104140000D03*
X24840000Y-104140000D03*
D12*
X124460000Y-127000000D03*
D11*
X135860000Y-127000000D03*
X127560000Y-127000000D03*
D15*
X41014000Y-36209000D03*
D16*
X41014000Y-26609000D03*
D17*
X48514000Y-33909000D03*
D18*
X48514000Y-31409000D03*
X48514000Y-28909000D03*
D10*
X27940000Y-127000000D03*
D11*
X16540000Y-127000000D03*
X24840000Y-127000000D03*
D10*
X27940000Y-46990000D03*
D11*
X16540000Y-46990000D03*
X24840000Y-46990000D03*
D12*
X124460000Y-69850000D03*
D11*
X135860000Y-69850000D03*
X127560000Y-69850000D03*
D12*
X124460000Y-81280000D03*
D11*
X135860000Y-81280000D03*
X127560000Y-81280000D03*
D12*
X124460000Y-115570000D03*
D11*
X135860000Y-115570000D03*
X127560000Y-115570000D03*
D19*
X62738000Y-88265000D03*
D14*
X60198000Y-88265000D03*
X62738000Y-85725000D03*
X60198000Y-85725000D03*
X62738000Y-83185000D03*
X60198000Y-83185000D03*
X62738000Y-80645000D03*
X60198000Y-80645000D03*
X62738000Y-78105000D03*
X60198000Y-78105000D03*
X62738000Y-75565000D03*
X60198000Y-75565000D03*
X62738000Y-73025000D03*
X60198000Y-73025000D03*
X62738000Y-70485000D03*
X60198000Y-70485000D03*
D20*
X65524000Y-27686000D03*
X65524000Y-30226000D03*
X65524000Y-32766000D03*
X65524000Y-35306000D03*
D15*
X58427000Y-26656000D03*
D16*
X58427000Y-36256000D03*
D21*
X50927000Y-28956000D03*
D18*
X50927000Y-31456000D03*
X50927000Y-33956000D03*
D10*
X27940000Y-58420000D03*
D11*
X16540000Y-58420000D03*
X24840000Y-58420000D03*
D10*
X27940000Y-69850000D03*
D11*
X16540000Y-69850000D03*
X24840000Y-69850000D03*
D22*
X119380000Y-130683000D03*
X109220000Y-30480000D03*
X43180000Y-30480000D03*
D23*
X108712000Y-26050000D03*
D24*
X115712000Y-29250000D03*
D25*
X115712000Y-34250000D03*
X101212000Y-29250000D03*
X101212000Y-34250000D03*
X101212000Y-31750000D03*
D26*
X108712000Y-37450000D03*
D14*
X79897715Y-129453484D03*
X79897715Y-123453484D03*
D27*
X76747715Y-126953484D03*
X76747715Y-130153484D03*
X83047715Y-130153484D03*
X76747715Y-123453484D03*
X83047715Y-123453484D03*
D14*
X58246046Y-129461092D03*
X58246046Y-123461092D03*
D27*
X55096046Y-126961092D03*
X55096046Y-130161092D03*
X61396046Y-130161092D03*
X55096046Y-123461092D03*
X61396046Y-123461092D03*
D14*
X35117206Y-129460030D03*
X35117206Y-123460030D03*
D27*
X31967206Y-126960030D03*
X31967206Y-130160030D03*
X38267206Y-130160030D03*
X31967206Y-123460030D03*
X38267206Y-123460030D03*
D28*
X86435928Y-31172273D03*
X80655928Y-31172273D03*
D29*
X87870928Y-31662273D03*
X79220928Y-31662273D03*
D30*
X87870928Y-27492273D03*
X79220928Y-27492273D03*
D14*
X72712306Y-30448056D03*
X72712306Y-36448056D03*
D27*
X75862306Y-32948056D03*
X75862306Y-29748056D03*
X69562306Y-29748056D03*
X75862306Y-36448056D03*
X69562306Y-36448056D03*
D14*
X94339677Y-30530444D03*
X94339677Y-36530444D03*
D27*
X97489677Y-33030444D03*
X97489677Y-29830444D03*
X91189677Y-29830444D03*
X97489677Y-36530444D03*
X91189677Y-36530444D03*
D14*
X46626898Y-129460030D03*
X46626898Y-123460030D03*
D27*
X43476898Y-126960030D03*
X43476898Y-130160030D03*
X49776898Y-130160030D03*
X43476898Y-123460030D03*
X49776898Y-123460030D03*
D31*
X109918500Y-107292000D03*
D28*
X66181311Y-128324022D03*
X71961311Y-128324022D03*
D29*
X64746311Y-127834022D03*
X73396311Y-127834022D03*
D30*
X64746311Y-132004022D03*
X73396311Y-132004022D03*
D31*
X99758500Y-107292000D03*
D32*
X81280000Y-64912000D03*
X81280000Y-63612000D03*
D31*
X61468000Y-54991000D03*
X61468000Y-62611000D03*
X61468000Y-60071000D03*
X61468000Y-57531000D03*
X78732890Y-109247267D03*
X88980000Y-34972000D03*
X98980000Y-34972000D03*
M02*
