G04 #@! TF.GenerationSoftware,KiCad,Pcbnew,7.0.11*
G04 #@! TF.CreationDate,2024-07-12T12:59:49+02:00*
G04 #@! TF.ProjectId,plinkyblack_hwmidi_jacks,706c696e-6b79-4626-9c61-636b5f68776d,rev?*
G04 #@! TF.SameCoordinates,Original*
G04 #@! TF.FileFunction,Profile,NP*
%FSLAX46Y46*%
G04 Gerber Fmt 4.6, Leading zero omitted, Abs format (unit mm)*
G04 Created by KiCad (PCBNEW 7.0.11) date 2024-07-12 12:59:49*
%MOMM*%
%LPD*%
G01*
G04 APERTURE LIST*
G04 #@! TA.AperFunction,Profile*
%ADD10C,0.050000*%
G04 #@! TD*
G04 APERTURE END LIST*
D10*
X15240000Y-131572000D02*
X15240000Y-25400000D01*
X116840000Y-134620000D02*
X134112000Y-134620000D01*
X55118000Y-134620000D02*
X61722000Y-134620000D01*
X46228000Y-134620000D02*
X40640000Y-134620000D01*
X109220000Y-27051000D02*
G75*
G03*
X110109000Y-26162000I0J889000D01*
G01*
X137160000Y-25400000D02*
X110109000Y-25400000D01*
X76200000Y-134620000D02*
X82804000Y-134620000D01*
X61722000Y-134620000D02*
X76200000Y-134620000D01*
X82804000Y-134620000D02*
X86360000Y-134620000D01*
X55118000Y-134620000D02*
X46228000Y-134620000D01*
X76200000Y-25400000D02*
X69596000Y-25400000D01*
X97282000Y-25400000D02*
X90681608Y-25404506D01*
X107569000Y-25400000D02*
X97282000Y-25400000D01*
X90678000Y-25400000D02*
X76200000Y-25400000D01*
X69596000Y-25400000D02*
X15240000Y-25400000D01*
X134112000Y-134620000D02*
G75*
G03*
X137160000Y-131572000I0J3048000D01*
G01*
X115570000Y-127508000D02*
X115062000Y-127000000D01*
X86360000Y-127508000D02*
X86868000Y-127000000D01*
X18288000Y-134620000D02*
X40640000Y-134620000D01*
X115570000Y-133350000D02*
X115570000Y-127508000D01*
X15240000Y-131572000D02*
G75*
G03*
X18288000Y-134620000I3048000J0D01*
G01*
X38132400Y-65000000D02*
X49500000Y-65000000D01*
X49500000Y-93750000D01*
X38132400Y-93750000D01*
X38132400Y-65000000D01*
X115570000Y-133350000D02*
G75*
G03*
X116840000Y-134620000I1270000J0D01*
G01*
X137160000Y-25400000D02*
X137160000Y-131572000D01*
X107569000Y-26162000D02*
G75*
G03*
X108458000Y-27051000I889000J0D01*
G01*
X107569000Y-25400000D02*
X107569000Y-26162000D01*
X115062000Y-127000000D02*
X86868000Y-127000000D01*
X108458000Y-27051000D02*
X109220000Y-27051000D01*
X86360000Y-134620000D02*
X86360000Y-127508000D01*
X110109000Y-25400000D02*
X110109000Y-26162000D01*
M02*
