G04 #@! TF.GenerationSoftware,KiCad,Pcbnew,7.0.11*
G04 #@! TF.CreationDate,2024-07-12T12:59:49+02:00*
G04 #@! TF.ProjectId,plinkyblack_hwmidi_jacks,706c696e-6b79-4626-9c61-636b5f68776d,rev?*
G04 #@! TF.SameCoordinates,Original*
G04 #@! TF.FileFunction,Soldermask,Top*
G04 #@! TF.FilePolarity,Negative*
%FSLAX46Y46*%
G04 Gerber Fmt 4.6, Leading zero omitted, Abs format (unit mm)*
G04 Created by KiCad (PCBNEW 7.0.11) date 2024-07-12 12:59:49*
%MOMM*%
%LPD*%
G01*
G04 APERTURE LIST*
G04 Aperture macros list*
%AMRoundRect*
0 Rectangle with rounded corners*
0 $1 Rounding radius*
0 $2 $3 $4 $5 $6 $7 $8 $9 X,Y pos of 4 corners*
0 Add a 4 corners polygon primitive as box body*
4,1,4,$2,$3,$4,$5,$6,$7,$8,$9,$2,$3,0*
0 Add four circle primitives for the rounded corners*
1,1,$1+$1,$2,$3*
1,1,$1+$1,$4,$5*
1,1,$1+$1,$6,$7*
1,1,$1+$1,$8,$9*
0 Add four rect primitives between the rounded corners*
20,1,$1+$1,$2,$3,$4,$5,0*
20,1,$1+$1,$4,$5,$6,$7,0*
20,1,$1+$1,$6,$7,$8,$9,0*
20,1,$1+$1,$8,$9,$2,$3,0*%
G04 Aperture macros list end*
%ADD10C,0.010000*%
%ADD11RoundRect,0.051000X0.500000X-1.500000X0.500000X1.500000X-0.500000X1.500000X-0.500000X-1.500000X0*%
%ADD12RoundRect,0.275500X0.275500X0.500500X-0.275500X0.500500X-0.275500X-0.500500X0.275500X-0.500500X0*%
%ADD13RoundRect,0.275500X-0.275500X-0.500500X0.275500X-0.500500X0.275500X0.500500X-0.275500X0.500500X0*%
%ADD14RoundRect,0.250500X-0.250500X-0.275500X0.250500X-0.275500X0.250500X0.275500X-0.250500X0.275500X0*%
%ADD15RoundRect,0.165500X-0.195500X0.165500X-0.195500X-0.165500X0.195500X-0.165500X0.195500X0.165500X0*%
%ADD16RoundRect,0.250500X0.250500X0.275500X-0.250500X0.275500X-0.250500X-0.275500X0.250500X-0.275500X0*%
%ADD17RoundRect,0.165500X0.165500X0.195500X-0.165500X0.195500X-0.165500X-0.195500X0.165500X-0.195500X0*%
%ADD18RoundRect,0.265938X-0.585062X1.535062X-0.585062X-1.535062X0.585062X-1.535062X0.585062X1.535062X0*%
%ADD19RoundRect,0.250500X0.275500X-0.250500X0.275500X0.250500X-0.275500X0.250500X-0.275500X-0.250500X0*%
%ADD20RoundRect,0.051000X0.915000X-0.965000X0.915000X0.965000X-0.915000X0.965000X-0.915000X-0.965000X0*%
%ADD21C,2.232000*%
%ADD22RoundRect,0.051000X-0.915000X0.965000X-0.915000X-0.965000X0.915000X-0.965000X0.915000X0.965000X0*%
%ADD23RoundRect,0.265000X-0.636000X0.636000X-0.636000X-0.636000X0.636000X-0.636000X0.636000X0.636000X0*%
%ADD24C,1.802000*%
%ADD25RoundRect,0.160500X-0.210500X0.160500X-0.210500X-0.160500X0.210500X-0.160500X0.210500X0.160500X0*%
%ADD26RoundRect,0.160500X-0.160500X-0.210500X0.160500X-0.210500X0.160500X0.210500X-0.160500X0.210500X0*%
%ADD27RoundRect,0.225500X0.300500X-0.225500X0.300500X0.225500X-0.300500X0.225500X-0.300500X-0.225500X0*%
%ADD28RoundRect,0.225500X0.225500X0.300500X-0.225500X0.300500X-0.225500X-0.300500X0.225500X-0.300500X0*%
%ADD29RoundRect,0.160500X0.160500X0.210500X-0.160500X0.210500X-0.160500X-0.210500X0.160500X-0.210500X0*%
%ADD30RoundRect,0.160500X0.210500X-0.160500X0.210500X0.160500X-0.210500X0.160500X-0.210500X-0.160500X0*%
%ADD31RoundRect,0.225500X-0.300500X0.225500X-0.300500X-0.225500X0.300500X-0.225500X0.300500X0.225500X0*%
%ADD32RoundRect,0.175500X-0.175500X0.850500X-0.175500X-0.850500X0.175500X-0.850500X0.175500X0.850500X0*%
%ADD33RoundRect,0.051000X0.750000X-1.000000X0.750000X1.000000X-0.750000X1.000000X-0.750000X-1.000000X0*%
%ADD34RoundRect,0.051000X1.900000X-1.000000X1.900000X1.000000X-1.900000X1.000000X-1.900000X-1.000000X0*%
%ADD35RoundRect,0.051000X-0.750000X1.000000X-0.750000X-1.000000X0.750000X-1.000000X0.750000X1.000000X0*%
%ADD36RoundRect,0.051000X-1.900000X1.000000X-1.900000X-1.000000X1.900000X-1.000000X1.900000X1.000000X0*%
%ADD37RoundRect,0.175500X0.175500X-0.850500X0.175500X0.850500X-0.175500X0.850500X-0.175500X-0.850500X0*%
%ADD38RoundRect,0.165500X0.195500X-0.165500X0.195500X0.165500X-0.195500X0.165500X-0.195500X-0.165500X0*%
%ADD39O,3.342000X2.822000*%
%ADD40O,3.342001X2.134000*%
%ADD41RoundRect,0.051000X-0.900000X0.900000X-0.900000X-0.900000X0.900000X-0.900000X0.900000X0.900000X0*%
%ADD42C,1.902000*%
%ADD43RoundRect,0.165500X-0.165500X-0.195500X0.165500X-0.195500X0.165500X0.195500X-0.165500X0.195500X0*%
%ADD44RoundRect,0.275500X-0.500500X0.275500X-0.500500X-0.275500X0.500500X-0.275500X0.500500X0.275500X0*%
%ADD45RoundRect,0.250500X-0.275500X0.250500X-0.275500X-0.250500X0.275500X-0.250500X0.275500X0.250500X0*%
%ADD46RoundRect,0.051000X0.600000X-0.700000X0.600000X0.700000X-0.600000X0.700000X-0.600000X-0.700000X0*%
%ADD47RoundRect,0.088000X-0.088000X0.400500X-0.088000X-0.400500X0.088000X-0.400500X0.088000X0.400500X0*%
%ADD48RoundRect,0.088000X-0.400500X0.088000X-0.400500X-0.088000X0.400500X-0.088000X0.400500X0.088000X0*%
%ADD49RoundRect,0.051000X-1.725000X1.725000X-1.725000X-1.725000X1.725000X-1.725000X1.725000X1.725000X0*%
%ADD50RoundRect,0.175500X0.175500X-0.675500X0.175500X0.675500X-0.175500X0.675500X-0.175500X-0.675500X0*%
%ADD51RoundRect,0.100500X0.750500X0.100500X-0.750500X0.100500X-0.750500X-0.100500X0.750500X-0.100500X0*%
%ADD52RoundRect,0.100500X0.100500X0.750500X-0.100500X0.750500X-0.100500X-0.750500X0.100500X-0.750500X0*%
%ADD53RoundRect,0.051000X-1.200000X-0.370000X1.200000X-0.370000X1.200000X0.370000X-1.200000X0.370000X0*%
%ADD54RoundRect,0.244250X-0.406750X0.244250X-0.406750X-0.244250X0.406750X-0.244250X0.406750X0.244250X0*%
%ADD55RoundRect,0.275500X0.500500X-0.275500X0.500500X0.275500X-0.500500X0.275500X-0.500500X-0.275500X0*%
%ADD56RoundRect,0.264167X-0.686833X1.036833X-0.686833X-1.036833X0.686833X-1.036833X0.686833X1.036833X0*%
%ADD57RoundRect,0.264167X0.686833X-1.036833X0.686833X1.036833X-0.686833X1.036833X-0.686833X-1.036833X0*%
%ADD58RoundRect,0.051000X-1.500000X-1.750000X1.500000X-1.750000X1.500000X1.750000X-1.500000X1.750000X0*%
%ADD59RoundRect,0.175500X0.538000X0.175500X-0.538000X0.175500X-0.538000X-0.175500X0.538000X-0.175500X0*%
%ADD60RoundRect,0.275500X-0.275500X0.275500X-0.275500X-0.275500X0.275500X-0.275500X0.275500X0.275500X0*%
%ADD61RoundRect,0.175500X0.175500X-0.613000X0.175500X0.613000X-0.175500X0.613000X-0.175500X-0.613000X0*%
%ADD62RoundRect,0.175500X-0.175500X0.675500X-0.175500X-0.675500X0.175500X-0.675500X0.175500X0.675500X0*%
%ADD63RoundRect,0.051000X-0.750000X0.500000X-0.750000X-0.500000X0.750000X-0.500000X0.750000X0.500000X0*%
%ADD64RoundRect,0.265000X0.636000X0.636000X-0.636000X0.636000X-0.636000X-0.636000X0.636000X-0.636000X0*%
%ADD65C,1.880000*%
%ADD66RoundRect,0.051000X0.900000X-0.900000X0.900000X0.900000X-0.900000X0.900000X-0.900000X-0.900000X0*%
%ADD67RoundRect,0.225500X-0.225500X-0.300500X0.225500X-0.300500X0.225500X0.300500X-0.225500X0.300500X0*%
%ADD68C,3.302000*%
%ADD69O,6.000000X3.000000*%
%ADD70RoundRect,0.051000X-0.825000X0.825000X-0.825000X-0.825000X0.825000X-0.825000X0.825000X0.825000X0*%
%ADD71C,1.752000*%
%ADD72O,6.102000X3.102000*%
%ADD73RoundRect,0.175500X0.850500X0.175500X-0.850500X0.175500X-0.850500X-0.175500X0.850500X-0.175500X0*%
%ADD74RoundRect,0.264167X-1.036833X-0.686833X1.036833X-0.686833X1.036833X0.686833X-1.036833X0.686833X0*%
%ADD75RoundRect,0.051000X0.187500X0.175000X-0.187500X0.175000X-0.187500X-0.175000X0.187500X-0.175000X0*%
%ADD76RoundRect,0.051000X-0.175000X0.187500X-0.175000X-0.187500X0.175000X-0.187500X0.175000X0.187500X0*%
%ADD77RoundRect,0.138000X-0.213000X-0.138000X0.213000X-0.138000X0.213000X0.138000X-0.213000X0.138000X0*%
%ADD78RoundRect,0.138000X0.213000X0.138000X-0.213000X0.138000X-0.213000X-0.138000X0.213000X-0.138000X0*%
%ADD79RoundRect,0.138000X0.138000X-0.213000X0.138000X0.213000X-0.138000X0.213000X-0.138000X-0.213000X0*%
%ADD80RoundRect,0.138000X-0.138000X0.213000X-0.138000X-0.213000X0.138000X-0.213000X0.138000X0.213000X0*%
%ADD81O,1.502000X2.102000*%
%ADD82RoundRect,0.175500X0.650500X0.175500X-0.650500X0.175500X-0.650500X-0.175500X0.650500X-0.175500X0*%
%ADD83C,0.702000*%
%ADD84O,1.104000X2.204000*%
%ADD85O,1.104000X1.904000*%
%ADD86RoundRect,0.075500X-0.075500X0.388000X-0.075500X-0.388000X0.075500X-0.388000X0.075500X0.388000X0*%
%ADD87RoundRect,0.075500X-0.075500X0.338000X-0.075500X-0.338000X0.075500X-0.338000X0.075500X0.338000X0*%
%ADD88RoundRect,0.075500X-0.250500X0.075500X-0.250500X-0.075500X0.250500X-0.075500X0.250500X0.075500X0*%
%ADD89RoundRect,0.075500X-0.075500X0.350500X-0.075500X-0.350500X0.075500X-0.350500X0.075500X0.350500X0*%
%ADD90RoundRect,0.264167X1.036833X0.686833X-1.036833X0.686833X-1.036833X-0.686833X1.036833X-0.686833X0*%
%ADD91RoundRect,0.175500X-0.538000X-0.175500X0.538000X-0.175500X0.538000X0.175500X-0.538000X0.175500X0*%
%ADD92RoundRect,0.244250X0.244250X0.281750X-0.244250X0.281750X-0.244250X-0.281750X0.244250X-0.281750X0*%
%ADD93RoundRect,0.244250X-0.244250X-0.281750X0.244250X-0.281750X0.244250X0.281750X-0.244250X0.281750X0*%
G04 APERTURE END LIST*
D10*
X87095928Y-32862273D02*
X86395928Y-32862273D01*
X86395928Y-31622273D01*
X87095928Y-31622273D01*
X87095928Y-32862273D01*
G36*
X87095928Y-32862273D02*
G01*
X86395928Y-32862273D01*
X86395928Y-31622273D01*
X87095928Y-31622273D01*
X87095928Y-32862273D01*
G37*
X86295928Y-32862273D02*
X85595928Y-32862273D01*
X85595928Y-31622273D01*
X86295928Y-31622273D01*
X86295928Y-32862273D01*
G36*
X86295928Y-32862273D02*
G01*
X85595928Y-32862273D01*
X85595928Y-31622273D01*
X86295928Y-31622273D01*
X86295928Y-32862273D01*
G37*
X85495928Y-32862273D02*
X85095928Y-32862273D01*
X85095928Y-31622273D01*
X85495928Y-31622273D01*
X85495928Y-32862273D01*
G36*
X85495928Y-32862273D02*
G01*
X85095928Y-32862273D01*
X85095928Y-31622273D01*
X85495928Y-31622273D01*
X85495928Y-32862273D01*
G37*
X84995928Y-32862273D02*
X84595928Y-32862273D01*
X84595928Y-31622273D01*
X84995928Y-31622273D01*
X84995928Y-32862273D01*
G36*
X84995928Y-32862273D02*
G01*
X84595928Y-32862273D01*
X84595928Y-31622273D01*
X84995928Y-31622273D01*
X84995928Y-32862273D01*
G37*
X84495928Y-32862273D02*
X84095928Y-32862273D01*
X84095928Y-31622273D01*
X84495928Y-31622273D01*
X84495928Y-32862273D01*
G36*
X84495928Y-32862273D02*
G01*
X84095928Y-32862273D01*
X84095928Y-31622273D01*
X84495928Y-31622273D01*
X84495928Y-32862273D01*
G37*
X83995928Y-32862273D02*
X83595928Y-32862273D01*
X83595928Y-31622273D01*
X83995928Y-31622273D01*
X83995928Y-32862273D01*
G36*
X83995928Y-32862273D02*
G01*
X83595928Y-32862273D01*
X83595928Y-31622273D01*
X83995928Y-31622273D01*
X83995928Y-32862273D01*
G37*
X83495928Y-32862273D02*
X83095928Y-32862273D01*
X83095928Y-31622273D01*
X83495928Y-31622273D01*
X83495928Y-32862273D01*
G36*
X83495928Y-32862273D02*
G01*
X83095928Y-32862273D01*
X83095928Y-31622273D01*
X83495928Y-31622273D01*
X83495928Y-32862273D01*
G37*
X82995928Y-32862273D02*
X82595928Y-32862273D01*
X82595928Y-31622273D01*
X82995928Y-31622273D01*
X82995928Y-32862273D01*
G36*
X82995928Y-32862273D02*
G01*
X82595928Y-32862273D01*
X82595928Y-31622273D01*
X82995928Y-31622273D01*
X82995928Y-32862273D01*
G37*
X82495928Y-32862273D02*
X82095928Y-32862273D01*
X82095928Y-31622273D01*
X82495928Y-31622273D01*
X82495928Y-32862273D01*
G36*
X82495928Y-32862273D02*
G01*
X82095928Y-32862273D01*
X82095928Y-31622273D01*
X82495928Y-31622273D01*
X82495928Y-32862273D01*
G37*
X81995928Y-32862273D02*
X81595928Y-32862273D01*
X81595928Y-31622273D01*
X81995928Y-31622273D01*
X81995928Y-32862273D01*
G36*
X81995928Y-32862273D02*
G01*
X81595928Y-32862273D01*
X81595928Y-31622273D01*
X81995928Y-31622273D01*
X81995928Y-32862273D01*
G37*
X81495928Y-32862273D02*
X80795928Y-32862273D01*
X80795928Y-31622273D01*
X81495928Y-31622273D01*
X81495928Y-32862273D01*
G36*
X81495928Y-32862273D02*
G01*
X80795928Y-32862273D01*
X80795928Y-31622273D01*
X81495928Y-31622273D01*
X81495928Y-32862273D01*
G37*
X80695928Y-32862273D02*
X79995928Y-32862273D01*
X79995928Y-31622273D01*
X80695928Y-31622273D01*
X80695928Y-32862273D01*
G36*
X80695928Y-32862273D02*
G01*
X79995928Y-32862273D01*
X79995928Y-31622273D01*
X80695928Y-31622273D01*
X80695928Y-32862273D01*
G37*
X66221311Y-127874022D02*
X65521311Y-127874022D01*
X65521311Y-126634022D01*
X66221311Y-126634022D01*
X66221311Y-127874022D01*
G36*
X66221311Y-127874022D02*
G01*
X65521311Y-127874022D01*
X65521311Y-126634022D01*
X66221311Y-126634022D01*
X66221311Y-127874022D01*
G37*
X67021311Y-127874022D02*
X66321311Y-127874022D01*
X66321311Y-126634022D01*
X67021311Y-126634022D01*
X67021311Y-127874022D01*
G36*
X67021311Y-127874022D02*
G01*
X66321311Y-127874022D01*
X66321311Y-126634022D01*
X67021311Y-126634022D01*
X67021311Y-127874022D01*
G37*
X67521311Y-127874022D02*
X67121311Y-127874022D01*
X67121311Y-126634022D01*
X67521311Y-126634022D01*
X67521311Y-127874022D01*
G36*
X67521311Y-127874022D02*
G01*
X67121311Y-127874022D01*
X67121311Y-126634022D01*
X67521311Y-126634022D01*
X67521311Y-127874022D01*
G37*
X68021311Y-127874022D02*
X67621311Y-127874022D01*
X67621311Y-126634022D01*
X68021311Y-126634022D01*
X68021311Y-127874022D01*
G36*
X68021311Y-127874022D02*
G01*
X67621311Y-127874022D01*
X67621311Y-126634022D01*
X68021311Y-126634022D01*
X68021311Y-127874022D01*
G37*
X68521311Y-127874022D02*
X68121311Y-127874022D01*
X68121311Y-126634022D01*
X68521311Y-126634022D01*
X68521311Y-127874022D01*
G36*
X68521311Y-127874022D02*
G01*
X68121311Y-127874022D01*
X68121311Y-126634022D01*
X68521311Y-126634022D01*
X68521311Y-127874022D01*
G37*
X69021311Y-127874022D02*
X68621311Y-127874022D01*
X68621311Y-126634022D01*
X69021311Y-126634022D01*
X69021311Y-127874022D01*
G36*
X69021311Y-127874022D02*
G01*
X68621311Y-127874022D01*
X68621311Y-126634022D01*
X69021311Y-126634022D01*
X69021311Y-127874022D01*
G37*
X69521311Y-127874022D02*
X69121311Y-127874022D01*
X69121311Y-126634022D01*
X69521311Y-126634022D01*
X69521311Y-127874022D01*
G36*
X69521311Y-127874022D02*
G01*
X69121311Y-127874022D01*
X69121311Y-126634022D01*
X69521311Y-126634022D01*
X69521311Y-127874022D01*
G37*
X70021311Y-127874022D02*
X69621311Y-127874022D01*
X69621311Y-126634022D01*
X70021311Y-126634022D01*
X70021311Y-127874022D01*
G36*
X70021311Y-127874022D02*
G01*
X69621311Y-127874022D01*
X69621311Y-126634022D01*
X70021311Y-126634022D01*
X70021311Y-127874022D01*
G37*
X70521311Y-127874022D02*
X70121311Y-127874022D01*
X70121311Y-126634022D01*
X70521311Y-126634022D01*
X70521311Y-127874022D01*
G36*
X70521311Y-127874022D02*
G01*
X70121311Y-127874022D01*
X70121311Y-126634022D01*
X70521311Y-126634022D01*
X70521311Y-127874022D01*
G37*
X71021311Y-127874022D02*
X70621311Y-127874022D01*
X70621311Y-126634022D01*
X71021311Y-126634022D01*
X71021311Y-127874022D01*
G36*
X71021311Y-127874022D02*
G01*
X70621311Y-127874022D01*
X70621311Y-126634022D01*
X71021311Y-126634022D01*
X71021311Y-127874022D01*
G37*
X71821311Y-127874022D02*
X71121311Y-127874022D01*
X71121311Y-126634022D01*
X71821311Y-126634022D01*
X71821311Y-127874022D01*
G36*
X71821311Y-127874022D02*
G01*
X71121311Y-127874022D01*
X71121311Y-126634022D01*
X71821311Y-126634022D01*
X71821311Y-127874022D01*
G37*
X72621311Y-127874022D02*
X71921311Y-127874022D01*
X71921311Y-126634022D01*
X72621311Y-126634022D01*
X72621311Y-127874022D01*
G36*
X72621311Y-127874022D02*
G01*
X71921311Y-127874022D01*
X71921311Y-126634022D01*
X72621311Y-126634022D01*
X72621311Y-127874022D01*
G37*
D11*
X34290000Y-33000000D03*
X34290000Y-27960000D03*
X31750000Y-33000000D03*
X31750000Y-27960000D03*
X29210000Y-33000000D03*
X29210000Y-27960000D03*
X26670000Y-33000000D03*
X26670000Y-27960000D03*
X24130000Y-33000000D03*
X24130000Y-27960000D03*
X21590000Y-33000000D03*
X21590000Y-27960000D03*
X19050000Y-33000000D03*
X19050000Y-27960000D03*
X16510000Y-33000000D03*
X16510000Y-27960000D03*
X118110000Y-27960000D03*
X118110000Y-33000000D03*
X120650000Y-27960000D03*
X120650000Y-33000000D03*
X123190000Y-27960000D03*
X123190000Y-33000000D03*
X125730000Y-27960000D03*
X125730000Y-33000000D03*
X128270000Y-27960000D03*
X128270000Y-33000000D03*
X130810000Y-27960000D03*
X130810000Y-33000000D03*
X133350000Y-27960000D03*
X133350000Y-33000000D03*
X135890000Y-27960000D03*
X135890000Y-33000000D03*
D12*
X67904400Y-87147400D03*
X66004400Y-87147400D03*
D13*
X102161300Y-76619100D03*
X104061300Y-76619100D03*
D14*
X118605000Y-67691000D03*
X120155000Y-67691000D03*
X118732000Y-55245000D03*
X120282000Y-55245000D03*
D15*
X114173000Y-94897000D03*
X114173000Y-95857000D03*
D16*
X37144083Y-79349600D03*
X35594083Y-79349600D03*
X35300081Y-93377518D03*
X33750081Y-93377518D03*
D17*
X37610793Y-91356981D03*
X36650793Y-91356981D03*
D18*
X74930000Y-112008000D03*
X74930000Y-117608000D03*
D19*
X116078000Y-123203000D03*
X116078000Y-121653000D03*
X113919000Y-103391000D03*
X113919000Y-101841000D03*
X118491000Y-104788000D03*
X118491000Y-103238000D03*
D15*
X116459000Y-116233000D03*
X116459000Y-117193000D03*
D20*
X27940000Y-115570000D03*
D21*
X16540000Y-115570000D03*
X24840000Y-115570000D03*
D22*
X124460000Y-46990000D03*
D21*
X135860000Y-46990000D03*
X127560000Y-46990000D03*
D22*
X124460000Y-58420000D03*
D21*
X135860000Y-58420000D03*
X127560000Y-58420000D03*
D20*
X27940000Y-81280000D03*
D21*
X16540000Y-81280000D03*
X24840000Y-81280000D03*
D20*
X27940000Y-92710000D03*
D21*
X16540000Y-92710000D03*
X24840000Y-92710000D03*
D22*
X124460000Y-104140000D03*
D21*
X135860000Y-104140000D03*
X127560000Y-104140000D03*
D22*
X124460000Y-92710000D03*
D21*
X135860000Y-92710000D03*
X127560000Y-92710000D03*
D23*
X109918500Y-113792000D03*
D24*
X109918500Y-116332000D03*
X107378500Y-113792000D03*
X107378500Y-116332000D03*
X104838500Y-113792000D03*
X104838500Y-116332000D03*
X102298500Y-113792000D03*
X102298500Y-116332000D03*
X99758500Y-113792000D03*
X99758500Y-116332000D03*
X97218500Y-113792000D03*
X97218500Y-116332000D03*
X94678500Y-113792000D03*
X94678500Y-116332000D03*
X92138500Y-113792000D03*
X92138500Y-116332000D03*
D25*
X114300000Y-61720000D03*
X114300000Y-62740000D03*
D26*
X120648000Y-50419000D03*
X121668000Y-50419000D03*
D27*
X115951000Y-63055000D03*
X115951000Y-61405000D03*
D26*
X118870000Y-66167000D03*
X119890000Y-66167000D03*
X118972000Y-56769000D03*
X119992000Y-56769000D03*
D28*
X120205000Y-69215000D03*
X118555000Y-69215000D03*
D29*
X35272794Y-80892769D03*
X34252794Y-80892769D03*
X32073622Y-93463835D03*
X31053622Y-93463835D03*
X37418947Y-80890763D03*
X36398947Y-80890763D03*
X35202516Y-91312482D03*
X34182516Y-91312482D03*
D25*
X70776374Y-119067312D03*
X70776374Y-120087312D03*
X117551000Y-121893000D03*
X117551000Y-122913000D03*
D29*
X115191000Y-105029000D03*
X114171000Y-105029000D03*
X117350000Y-124714000D03*
X116330000Y-124714000D03*
D26*
X119429000Y-121539000D03*
X120449000Y-121539000D03*
D25*
X115443000Y-102106000D03*
X115443000Y-103126000D03*
D26*
X117219000Y-101727000D03*
X118239000Y-101727000D03*
D30*
X118745000Y-112143000D03*
X118745000Y-111123000D03*
X116459000Y-92077000D03*
X116459000Y-91057000D03*
D29*
X121541000Y-110871000D03*
X120521000Y-110871000D03*
D27*
X122301000Y-123253000D03*
X122301000Y-121603000D03*
X120015000Y-103314000D03*
X120015000Y-101664000D03*
D31*
X123317000Y-110808000D03*
X123317000Y-112458000D03*
X121031000Y-90716500D03*
X121031000Y-92366500D03*
D32*
X36601834Y-84293010D03*
X35331834Y-84293010D03*
X34061834Y-84293010D03*
X32791834Y-84293010D03*
X32791834Y-89243010D03*
X34061834Y-89243010D03*
X35331834Y-89243010D03*
X36601834Y-89243010D03*
D33*
X65670400Y-84836400D03*
X67970400Y-84836400D03*
D34*
X67970400Y-78536400D03*
D33*
X70270400Y-84836400D03*
D35*
X104395300Y-79057100D03*
X102095300Y-79057100D03*
D36*
X102095300Y-85357100D03*
D35*
X99795300Y-79057100D03*
D37*
X117729000Y-63943000D03*
X118999000Y-63943000D03*
X120269000Y-63943000D03*
X121539000Y-63943000D03*
X121539000Y-58993000D03*
X120269000Y-58993000D03*
X118999000Y-58993000D03*
X117729000Y-58993000D03*
D32*
X119634000Y-94426000D03*
X118364000Y-94426000D03*
X117094000Y-94426000D03*
X115824000Y-94426000D03*
X115824000Y-99376000D03*
X117094000Y-99376000D03*
X118364000Y-99376000D03*
X119634000Y-99376000D03*
X121920000Y-114619000D03*
X120650000Y-114619000D03*
X119380000Y-114619000D03*
X118110000Y-114619000D03*
X118110000Y-119569000D03*
X119380000Y-119569000D03*
X120650000Y-119569000D03*
X121920000Y-119569000D03*
D20*
X27940000Y-104140000D03*
D21*
X16540000Y-104140000D03*
X24840000Y-104140000D03*
D22*
X124460000Y-127000000D03*
D21*
X135860000Y-127000000D03*
X127560000Y-127000000D03*
D16*
X121806000Y-112395000D03*
X120256000Y-112395000D03*
D38*
X123190000Y-62202000D03*
X123190000Y-61242000D03*
D39*
X41014000Y-36209000D03*
D40*
X41014000Y-26609000D03*
D41*
X48514000Y-33909000D03*
D42*
X48514000Y-31409000D03*
X48514000Y-28909000D03*
D27*
X118110000Y-37147000D03*
X118110000Y-35497000D03*
X120650000Y-37147000D03*
X120650000Y-35497000D03*
X123190000Y-37147000D03*
X123190000Y-35497000D03*
X125603000Y-37147000D03*
X125603000Y-35497000D03*
X128270000Y-37147000D03*
X128270000Y-35497000D03*
X130810000Y-37172000D03*
X130810000Y-35522000D03*
X133350000Y-37147000D03*
X133350000Y-35497000D03*
X135890000Y-37147000D03*
X135890000Y-35497000D03*
D29*
X33938107Y-105996078D03*
X32918107Y-105996078D03*
X35157191Y-97358739D03*
X34137191Y-97358739D03*
X31084932Y-107396728D03*
X30064932Y-107396728D03*
X32252140Y-97229049D03*
X31232140Y-97229049D03*
D16*
X34151231Y-107422665D03*
X32601231Y-107422665D03*
X35396253Y-96087779D03*
X33846253Y-96087779D03*
D38*
X35357394Y-106835759D03*
X35357394Y-105875759D03*
D32*
X35359045Y-99085688D03*
X34089045Y-99085688D03*
X32819045Y-99085688D03*
X31549045Y-99085688D03*
X31549045Y-104035688D03*
X32819045Y-104035688D03*
X34089045Y-104035688D03*
X35359045Y-104035688D03*
D30*
X119126000Y-124335000D03*
X119126000Y-123315000D03*
X116967000Y-104586500D03*
X116967000Y-103566500D03*
D19*
X120650000Y-124600000D03*
X120650000Y-123050000D03*
D43*
X92992000Y-46482000D03*
X93952000Y-46482000D03*
D20*
X27940000Y-127000000D03*
D21*
X16540000Y-127000000D03*
X24840000Y-127000000D03*
D20*
X27940000Y-46990000D03*
D21*
X16540000Y-46990000D03*
X24840000Y-46990000D03*
D22*
X124460000Y-69850000D03*
D21*
X135860000Y-69850000D03*
X127560000Y-69850000D03*
D22*
X124460000Y-81280000D03*
D21*
X135860000Y-81280000D03*
X127560000Y-81280000D03*
D28*
X45275000Y-62230000D03*
X43625000Y-62230000D03*
D29*
X41912000Y-62230000D03*
X40892000Y-62230000D03*
D28*
X43776400Y-60706000D03*
X42126400Y-60706000D03*
D29*
X97538000Y-56642000D03*
X96518000Y-56642000D03*
D31*
X121285000Y-74613000D03*
X121285000Y-76263000D03*
D22*
X124460000Y-115570000D03*
D21*
X135860000Y-115570000D03*
X127560000Y-115570000D03*
D18*
X82550000Y-112135000D03*
X82550000Y-117735000D03*
D29*
X39551201Y-110771003D03*
X38531201Y-110771003D03*
D12*
X92771000Y-75311000D03*
X90871000Y-75311000D03*
X92771000Y-73279000D03*
X90871000Y-73279000D03*
D44*
X73406000Y-84648000D03*
X73406000Y-86548000D03*
D43*
X39398000Y-60706000D03*
X40358000Y-60706000D03*
D14*
X118097000Y-74739500D03*
X119647000Y-74739500D03*
D29*
X57279000Y-48260000D03*
X56259000Y-48260000D03*
X57279000Y-43688000D03*
X56259000Y-43688000D03*
X57279000Y-47117000D03*
X56259000Y-47117000D03*
X57279000Y-41402000D03*
X56259000Y-41402000D03*
X57279000Y-42545000D03*
X56259000Y-42545000D03*
D26*
X54354000Y-41910000D03*
X55374000Y-41910000D03*
D29*
X57279000Y-45974000D03*
X56259000Y-45974000D03*
D26*
X54354000Y-48768000D03*
X55374000Y-48768000D03*
X54354000Y-47625000D03*
X55374000Y-47625000D03*
X54354000Y-44196000D03*
X55374000Y-44196000D03*
X54354000Y-40767000D03*
X55374000Y-40767000D03*
X54377000Y-45339000D03*
X55397000Y-45339000D03*
X54354000Y-43053000D03*
X55374000Y-43053000D03*
D29*
X57279000Y-44831000D03*
X56259000Y-44831000D03*
X57279000Y-40259000D03*
X56259000Y-40259000D03*
D26*
X54377000Y-46482000D03*
X55397000Y-46482000D03*
D28*
X120459000Y-53721000D03*
X118809000Y-53721000D03*
D43*
X89055000Y-56007000D03*
X90015000Y-56007000D03*
D19*
X93218000Y-52337000D03*
X93218000Y-50787000D03*
D38*
X83600000Y-42880000D03*
X83600000Y-41920000D03*
X72390000Y-42263000D03*
X72390000Y-41303000D03*
D17*
X67853500Y-58318400D03*
X66893500Y-58318400D03*
D43*
X93665100Y-67894200D03*
X94625100Y-67894200D03*
D16*
X105423000Y-69723000D03*
X103873000Y-69723000D03*
D45*
X98907600Y-72072200D03*
X98907600Y-73622200D03*
X97383600Y-72072200D03*
X97383600Y-73622200D03*
X86741000Y-62432900D03*
X86741000Y-63982900D03*
D19*
X103251000Y-65799000D03*
X103251000Y-64249000D03*
D14*
X103873000Y-68148200D03*
X105423000Y-68148200D03*
D25*
X82169000Y-62736000D03*
X82169000Y-63756000D03*
D31*
X74168000Y-40958000D03*
X74168000Y-42608000D03*
D28*
X70548000Y-40894000D03*
X68898000Y-40894000D03*
D17*
X90142000Y-58521600D03*
X89182000Y-58521600D03*
D46*
X91528000Y-52662000D03*
X91528000Y-50462000D03*
X89828000Y-50462000D03*
X89828000Y-52662000D03*
D15*
X76936600Y-41303000D03*
X76936600Y-42263000D03*
D47*
X101038600Y-65075700D03*
X100538600Y-65075700D03*
X100038600Y-65075700D03*
X99538600Y-65075700D03*
X99038600Y-65075700D03*
X98538600Y-65075700D03*
X98038600Y-65075700D03*
X97538600Y-65075700D03*
D48*
X96851100Y-65763200D03*
X96851100Y-66263200D03*
X96851100Y-66763200D03*
X96851100Y-67263200D03*
X96851100Y-67763200D03*
X96851100Y-68263200D03*
X96851100Y-68763200D03*
X96851100Y-69263200D03*
D47*
X97538600Y-69950700D03*
X98038600Y-69950700D03*
X98538600Y-69950700D03*
X99038600Y-69950700D03*
X99538600Y-69950700D03*
X100038600Y-69950700D03*
X100538600Y-69950700D03*
X101038600Y-69950700D03*
D48*
X101726100Y-69263200D03*
X101726100Y-68763200D03*
X101726100Y-68263200D03*
X101726100Y-67763200D03*
X101726100Y-67263200D03*
X101726100Y-66763200D03*
X101726100Y-66263200D03*
X101726100Y-65763200D03*
D49*
X99288600Y-67513200D03*
D38*
X73533000Y-63091000D03*
X73533000Y-62131000D03*
D43*
X89118500Y-47205900D03*
X90078500Y-47205900D03*
D38*
X79629000Y-63726000D03*
X79629000Y-62766000D03*
D43*
X67312600Y-49326800D03*
X68272600Y-49326800D03*
D15*
X85090000Y-62727900D03*
X85090000Y-63687900D03*
D43*
X67160200Y-46278800D03*
X68120200Y-46278800D03*
X67261800Y-52527200D03*
X68221800Y-52527200D03*
D50*
X73660000Y-72688000D03*
X74930000Y-72688000D03*
X76200000Y-72688000D03*
X77470000Y-72688000D03*
X77470000Y-65488000D03*
X76200000Y-65488000D03*
X74930000Y-65488000D03*
X73660000Y-65488000D03*
D38*
X71882000Y-65123000D03*
X71882000Y-64163000D03*
D51*
X86224500Y-58349400D03*
X86224500Y-57849400D03*
X86224500Y-57349400D03*
X86224500Y-56849400D03*
X86224500Y-56349400D03*
X86224500Y-55849400D03*
X86224500Y-55349400D03*
X86224500Y-54849400D03*
X86224500Y-54349400D03*
X86224500Y-53849400D03*
X86224500Y-53349400D03*
X86224500Y-52849400D03*
X86224500Y-52349400D03*
X86224500Y-51849400D03*
X86224500Y-51349400D03*
X86224500Y-50849400D03*
X86224500Y-50349400D03*
X86224500Y-49849400D03*
X86224500Y-49349400D03*
X86224500Y-48849400D03*
X86224500Y-48349400D03*
X86224500Y-47849400D03*
X86224500Y-47349400D03*
X86224500Y-46849400D03*
X86224500Y-46349400D03*
D52*
X84549500Y-44674400D03*
X84049500Y-44674400D03*
X83549500Y-44674400D03*
X83049500Y-44674400D03*
X82549500Y-44674400D03*
X82049500Y-44674400D03*
X81549500Y-44674400D03*
X81049500Y-44674400D03*
X80549500Y-44674400D03*
X80049500Y-44674400D03*
X79549500Y-44674400D03*
X79049500Y-44674400D03*
X78549500Y-44674400D03*
X78049500Y-44674400D03*
X77549500Y-44674400D03*
X77049500Y-44674400D03*
X76549500Y-44674400D03*
X76049500Y-44674400D03*
X75549500Y-44674400D03*
X75049500Y-44674400D03*
X74549500Y-44674400D03*
X74049500Y-44674400D03*
X73549500Y-44674400D03*
X73049500Y-44674400D03*
X72549500Y-44674400D03*
D51*
X70874500Y-46349400D03*
X70874500Y-46849400D03*
X70874500Y-47349400D03*
X70874500Y-47849400D03*
X70874500Y-48349400D03*
X70874500Y-48849400D03*
X70874500Y-49349400D03*
X70874500Y-49849400D03*
X70874500Y-50349400D03*
X70874500Y-50849400D03*
X70874500Y-51349400D03*
X70874500Y-51849400D03*
X70874500Y-52349400D03*
X70874500Y-52849400D03*
X70874500Y-53349400D03*
X70874500Y-53849400D03*
X70874500Y-54349400D03*
X70874500Y-54849400D03*
X70874500Y-55349400D03*
X70874500Y-55849400D03*
X70874500Y-56349400D03*
X70874500Y-56849400D03*
X70874500Y-57349400D03*
X70874500Y-57849400D03*
X70874500Y-58349400D03*
D52*
X72549500Y-60024400D03*
X73049500Y-60024400D03*
X73549500Y-60024400D03*
X74049500Y-60024400D03*
X74549500Y-60024400D03*
X75049500Y-60024400D03*
X75549500Y-60024400D03*
X76049500Y-60024400D03*
X76549500Y-60024400D03*
X77049500Y-60024400D03*
X77549500Y-60024400D03*
X78049500Y-60024400D03*
X78549500Y-60024400D03*
X79049500Y-60024400D03*
X79549500Y-60024400D03*
X80049500Y-60024400D03*
X80549500Y-60024400D03*
X81049500Y-60024400D03*
X81549500Y-60024400D03*
X82049500Y-60024400D03*
X82549500Y-60024400D03*
X83049500Y-60024400D03*
X83549500Y-60024400D03*
X84049500Y-60024400D03*
X84549500Y-60024400D03*
D45*
X112903000Y-74917000D03*
X112903000Y-76467000D03*
D14*
X116446000Y-87122000D03*
X117996000Y-87122000D03*
D45*
X111887000Y-80251000D03*
X111887000Y-81801000D03*
D15*
X113538000Y-80546000D03*
X113538000Y-81506000D03*
D29*
X114238000Y-73406000D03*
X113218000Y-73406000D03*
D28*
X121094000Y-85534500D03*
X119444000Y-85534500D03*
D26*
X116648000Y-85534500D03*
X117668000Y-85534500D03*
D32*
X118999000Y-78424000D03*
X117729000Y-78424000D03*
X116459000Y-78424000D03*
X115189000Y-78424000D03*
X115189000Y-83374000D03*
X116459000Y-83374000D03*
X117729000Y-83374000D03*
X118999000Y-83374000D03*
D26*
X118388000Y-76327000D03*
X119408000Y-76327000D03*
D25*
X113284000Y-85723000D03*
X113284000Y-86743000D03*
D30*
X111506000Y-86108000D03*
X111506000Y-85088000D03*
D25*
X116586000Y-74991500D03*
X116586000Y-76011500D03*
D30*
X114872000Y-86743000D03*
X114872000Y-85723000D03*
X114554000Y-76202000D03*
X114554000Y-75182000D03*
D17*
X44930000Y-63754000D03*
X43970000Y-63754000D03*
D14*
X88823500Y-45681900D03*
X90373500Y-45681900D03*
D53*
X59518000Y-56261000D03*
X63418000Y-56261000D03*
X59518000Y-57531000D03*
X63418000Y-57531000D03*
X59518000Y-58801000D03*
X63418000Y-58801000D03*
X59518000Y-60071000D03*
X63418000Y-60071000D03*
X59518000Y-61341000D03*
X63418000Y-61341000D03*
X59518000Y-62611000D03*
X63418000Y-62611000D03*
X59518000Y-63881000D03*
X63418000Y-63881000D03*
D15*
X66600000Y-62700000D03*
X66600000Y-63660000D03*
D45*
X88138000Y-51041000D03*
X88138000Y-52591000D03*
D17*
X109954000Y-55880000D03*
X108994000Y-55880000D03*
D29*
X106682000Y-57531000D03*
X105662000Y-57531000D03*
X109984000Y-57531000D03*
X108964000Y-57531000D03*
D54*
X83123000Y-93234500D03*
X83123000Y-95359500D03*
D43*
X49177000Y-36322000D03*
X50137000Y-36322000D03*
D55*
X115824000Y-59878000D03*
X115824000Y-57978000D03*
D44*
X113792000Y-57089000D03*
X113792000Y-58989000D03*
D28*
X120433500Y-52197000D03*
X118783500Y-52197000D03*
D16*
X119520000Y-92329000D03*
X117970000Y-92329000D03*
D19*
X86044000Y-96850000D03*
X86044000Y-95300000D03*
D15*
X97728000Y-102834000D03*
X97728000Y-103794000D03*
D44*
X97855000Y-97665000D03*
X97855000Y-99565000D03*
D56*
X94997500Y-98456500D03*
X94997500Y-102456500D03*
X100712500Y-99155000D03*
X100712500Y-103155000D03*
D57*
X104395500Y-103155000D03*
X104395500Y-99155000D03*
D58*
X86338000Y-100901000D03*
X91338000Y-100901000D03*
D31*
X91632000Y-94488000D03*
X91632000Y-96138000D03*
D59*
X89975500Y-97025000D03*
X89975500Y-96075000D03*
X89975500Y-95125000D03*
X87700500Y-95125000D03*
X87700500Y-97025000D03*
D28*
X94997000Y-96075000D03*
X93347000Y-96075000D03*
D14*
X93397000Y-94551000D03*
X94947000Y-94551000D03*
D12*
X103123000Y-96519500D03*
X101223000Y-96519500D03*
D29*
X44943218Y-119190969D03*
X43923218Y-119190969D03*
D60*
X82678500Y-99206500D03*
X82678500Y-101706500D03*
D27*
X80075000Y-102043500D03*
X80075000Y-100393500D03*
D61*
X32070000Y-51610500D03*
X33970000Y-51610500D03*
X33020000Y-49735500D03*
D30*
X30353000Y-51081500D03*
X30353000Y-50061500D03*
D25*
X71902283Y-119067312D03*
X71902283Y-120087312D03*
X80010000Y-66419000D03*
X80010000Y-67439000D03*
D43*
X49177000Y-37846000D03*
X50137000Y-37846000D03*
D38*
X79248000Y-81912500D03*
X79248000Y-80952500D03*
D62*
X77441000Y-74954000D03*
X76171000Y-74954000D03*
X74901000Y-74954000D03*
X73631000Y-74954000D03*
X73631000Y-82154000D03*
X74901000Y-82154000D03*
X76171000Y-82154000D03*
X77441000Y-82154000D03*
D30*
X75565000Y-62613000D03*
X75565000Y-61593000D03*
X77089000Y-62613000D03*
X77089000Y-61593000D03*
D63*
X109728000Y-47087000D03*
X109728000Y-48387000D03*
X109728000Y-51547000D03*
X109728000Y-52847000D03*
D31*
X107696000Y-45403000D03*
X107696000Y-47053000D03*
D64*
X62738000Y-88265000D03*
D24*
X60198000Y-88265000D03*
X62738000Y-85725000D03*
X60198000Y-85725000D03*
X62738000Y-83185000D03*
X60198000Y-83185000D03*
X62738000Y-80645000D03*
X60198000Y-80645000D03*
X62738000Y-78105000D03*
X60198000Y-78105000D03*
X62738000Y-75565000D03*
X60198000Y-75565000D03*
X62738000Y-73025000D03*
X60198000Y-73025000D03*
X62738000Y-70485000D03*
X60198000Y-70485000D03*
D26*
X61339000Y-118745000D03*
X62359000Y-118745000D03*
D29*
X47033712Y-119218476D03*
X46013712Y-119218476D03*
D57*
X43180000Y-58007000D03*
X43180000Y-54007000D03*
D56*
X46863000Y-54007000D03*
X46863000Y-58007000D03*
D57*
X35687000Y-58007000D03*
X35687000Y-54007000D03*
D56*
X39370000Y-54007000D03*
X39370000Y-58007000D03*
D65*
X65524000Y-27686000D03*
X65524000Y-30226000D03*
X65524000Y-32766000D03*
X65524000Y-35306000D03*
D39*
X58427000Y-26656000D03*
D40*
X58427000Y-36256000D03*
D66*
X50927000Y-28956000D03*
D42*
X50927000Y-31456000D03*
X50927000Y-33956000D03*
D29*
X97538000Y-57785000D03*
X96518000Y-57785000D03*
D43*
X71347483Y-123190000D03*
X72307483Y-123190000D03*
D59*
X68392983Y-93660000D03*
X68392983Y-92710000D03*
X68392983Y-91760000D03*
X66117983Y-91760000D03*
X66117983Y-92710000D03*
X66117983Y-93660000D03*
D20*
X27940000Y-58420000D03*
D21*
X16540000Y-58420000D03*
X24840000Y-58420000D03*
D20*
X27940000Y-69850000D03*
D21*
X16540000Y-69850000D03*
X24840000Y-69850000D03*
D16*
X34176000Y-71501000D03*
X32626000Y-71501000D03*
X35446000Y-62230000D03*
X33896000Y-62230000D03*
D29*
X33911000Y-73152000D03*
X32891000Y-73152000D03*
D15*
X37000000Y-67320000D03*
X37000000Y-68280000D03*
D25*
X30861000Y-71753000D03*
X30861000Y-72773000D03*
D29*
X32006000Y-62230000D03*
X30986000Y-62230000D03*
X35310000Y-60706000D03*
X34290000Y-60706000D03*
D32*
X35433000Y-64327000D03*
X34163000Y-64327000D03*
X32893000Y-64327000D03*
X31623000Y-64327000D03*
X31623000Y-69277000D03*
X32893000Y-69277000D03*
X34163000Y-69277000D03*
X35433000Y-69277000D03*
D67*
X30925000Y-74803000D03*
X32575000Y-74803000D03*
D28*
X32956000Y-55880000D03*
X31306000Y-55880000D03*
X32956000Y-54102000D03*
X31306000Y-54102000D03*
D67*
X30671000Y-60579000D03*
X32321000Y-60579000D03*
D68*
X119380000Y-130683000D03*
X109220000Y-30480000D03*
D29*
X119229500Y-90805000D03*
X118209500Y-90805000D03*
D68*
X43180000Y-30480000D03*
D69*
X108712000Y-26050000D03*
D70*
X115712000Y-29250000D03*
D71*
X115712000Y-34250000D03*
X101212000Y-29250000D03*
X101212000Y-34250000D03*
X101212000Y-31750000D03*
D72*
X108712000Y-37450000D03*
D19*
X51994605Y-118795708D03*
X51994605Y-117245708D03*
D45*
X43081592Y-112687071D03*
X43081592Y-114237071D03*
D25*
X50644646Y-117527796D03*
X50644646Y-118547796D03*
D30*
X41797248Y-113990419D03*
X41797248Y-112970419D03*
D73*
X50252983Y-115374142D03*
X50252983Y-114104142D03*
X50252983Y-112834142D03*
X50252983Y-111564142D03*
X45302983Y-111564142D03*
X45302983Y-112834142D03*
X45302983Y-114104142D03*
X45302983Y-115374142D03*
D17*
X46622778Y-116664333D03*
X45662778Y-116664333D03*
D55*
X65950174Y-43789752D03*
X65950174Y-41889752D03*
D74*
X87600000Y-105600000D03*
X91600000Y-105600000D03*
D75*
X68961500Y-43676000D03*
X68961500Y-43176000D03*
X68961500Y-42676000D03*
X68961500Y-42176000D03*
D76*
X68449000Y-42163500D03*
X67949000Y-42163500D03*
D75*
X67436500Y-42176000D03*
X67436500Y-42676000D03*
X67436500Y-43176000D03*
X67436500Y-43676000D03*
D76*
X67949000Y-43688500D03*
X68449000Y-43688500D03*
D77*
X46015762Y-108588453D03*
X48115762Y-108588453D03*
D78*
X48033711Y-106619236D03*
X45933711Y-106619236D03*
D77*
X42766553Y-108604863D03*
X44866553Y-108604863D03*
D78*
X44669632Y-106619236D03*
X42569632Y-106619236D03*
D79*
X55837026Y-114097081D03*
X55837026Y-111997081D03*
D80*
X53861159Y-112095874D03*
X53861159Y-114195874D03*
D79*
X55837026Y-117324330D03*
X55837026Y-115224330D03*
D80*
X53861159Y-115323123D03*
X53861159Y-117423123D03*
D28*
X20087579Y-132759169D03*
X18437579Y-132759169D03*
D24*
X79897715Y-129453484D03*
X79897715Y-123453484D03*
D81*
X76747715Y-126953484D03*
X76747715Y-130153484D03*
X83047715Y-130153484D03*
X76747715Y-123453484D03*
X83047715Y-123453484D03*
D24*
X58246046Y-129461092D03*
X58246046Y-123461092D03*
D81*
X55096046Y-126961092D03*
X55096046Y-130161092D03*
X61396046Y-130161092D03*
X55096046Y-123461092D03*
X61396046Y-123461092D03*
D26*
X48709350Y-119218476D03*
X49729350Y-119218476D03*
D25*
X58822683Y-67409600D03*
X58822683Y-68429600D03*
D26*
X61284205Y-116910763D03*
X62304205Y-116910763D03*
D24*
X35117206Y-129460030D03*
X35117206Y-123460030D03*
D81*
X31967206Y-126960030D03*
X31967206Y-130160030D03*
X38267206Y-130160030D03*
X31967206Y-123460030D03*
X38267206Y-123460030D03*
D82*
X37116161Y-117850344D03*
X37116161Y-116580344D03*
X37116161Y-115310344D03*
X37116161Y-114040344D03*
X31766161Y-114040344D03*
X31766161Y-115310344D03*
X31766161Y-116580344D03*
X31766161Y-117850344D03*
D83*
X86435928Y-31172273D03*
X80655928Y-31172273D03*
D84*
X87870928Y-31662273D03*
X79220928Y-31662273D03*
D85*
X87870928Y-27492273D03*
X79220928Y-27492273D03*
D25*
X73351483Y-122172000D03*
X73351483Y-123192000D03*
D60*
X89505883Y-30652400D03*
X89505883Y-33152400D03*
D25*
X67052283Y-76354400D03*
X67052283Y-75334400D03*
D86*
X69439883Y-122748800D03*
D87*
X69039883Y-122698800D03*
D88*
X68464883Y-122823800D03*
X68464883Y-123223800D03*
X68464883Y-123623800D03*
D89*
X69039883Y-123748800D03*
D87*
X69439883Y-123748800D03*
D88*
X70014883Y-123623800D03*
X70014883Y-123223800D03*
X70014883Y-122823800D03*
D17*
X80593742Y-39173783D03*
X79633742Y-39173783D03*
X32316578Y-112255652D03*
X31356578Y-112255652D03*
D25*
X61616683Y-67409600D03*
X61616683Y-68429600D03*
D31*
X28059123Y-131848972D03*
X28059123Y-133498972D03*
D24*
X72712306Y-30448056D03*
X72712306Y-36448056D03*
D81*
X75862306Y-32948056D03*
X75862306Y-29748056D03*
X69562306Y-29748056D03*
X75862306Y-36448056D03*
X69562306Y-36448056D03*
D30*
X64055083Y-91746800D03*
X64055083Y-90726800D03*
D24*
X94339677Y-30530444D03*
X94339677Y-36530444D03*
D81*
X97489677Y-33030444D03*
X97489677Y-29830444D03*
X91189677Y-29830444D03*
X97489677Y-36530444D03*
X91189677Y-36530444D03*
D25*
X60245083Y-67409600D03*
X60245083Y-68429600D03*
D27*
X41429533Y-118014671D03*
X41429533Y-116364671D03*
D67*
X34295074Y-112238607D03*
X35945074Y-112238607D03*
D24*
X46626898Y-129460030D03*
X46626898Y-123460030D03*
D81*
X43476898Y-126960030D03*
X43476898Y-130160030D03*
X49776898Y-130160030D03*
X43476898Y-123460030D03*
X49776898Y-123460030D03*
D25*
X65985483Y-75334400D03*
X65985483Y-76354400D03*
D27*
X39230562Y-114955615D03*
X39230562Y-113305615D03*
D90*
X106600000Y-108400000D03*
X102600000Y-108400000D03*
D30*
X89353483Y-29313600D03*
X89353483Y-28293600D03*
D83*
X66181311Y-128324022D03*
X71961311Y-128324022D03*
D84*
X64746311Y-127834022D03*
X73396311Y-127834022D03*
D85*
X64746311Y-132004022D03*
X73396311Y-132004022D03*
D73*
X85998625Y-37887029D03*
X85998625Y-36617029D03*
X85998625Y-35347029D03*
X85998625Y-34077029D03*
X81048625Y-34077029D03*
X81048625Y-35347029D03*
X81048625Y-36617029D03*
X81048625Y-37887029D03*
D30*
X62175483Y-91696000D03*
X62175483Y-90676000D03*
D26*
X66745483Y-125780800D03*
X67765483Y-125780800D03*
D91*
X65355983Y-66512400D03*
X65355983Y-67462400D03*
X65355983Y-68412400D03*
X67630983Y-68412400D03*
X67630983Y-67462400D03*
X67630983Y-66512400D03*
D26*
X70860283Y-125730000D03*
X71880283Y-125730000D03*
D92*
X23288116Y-132780468D03*
X21713116Y-132780468D03*
D60*
X74824683Y-123006800D03*
X74824683Y-125506800D03*
D25*
X78025083Y-29106400D03*
X78025083Y-30126400D03*
X64918683Y-75334400D03*
X64918683Y-76354400D03*
D93*
X24842222Y-132780468D03*
X26417222Y-132780468D03*
D74*
X95100000Y-108400000D03*
X99100000Y-108400000D03*
D28*
X35998083Y-119504025D03*
X34348083Y-119504025D03*
D31*
X39185768Y-116273175D03*
X39185768Y-117923175D03*
D30*
X78986605Y-35847703D03*
X78986605Y-34827703D03*
D29*
X72337483Y-122224800D03*
X71317483Y-122224800D03*
D25*
X88024743Y-35152698D03*
X88024743Y-36172698D03*
D26*
X71317483Y-124612400D03*
X72337483Y-124612400D03*
M02*
