<?xml version="1.0" encoding="UTF-8" standalone="no"?>
<!DOCTYPE svg PUBLIC "-//W3C//DTD SVG 1.1//EN" "http://www.w3.org/Graphics/SVG/1.1/DTD/svg11.dtd">
<svg width="100%" height="100%" viewBox="0 0 486 486" version="1.1" xmlns="http://www.w3.org/2000/svg" xmlns:xlink="http://www.w3.org/1999/xlink" xml:space="preserve" xmlns:serif="http://www.serif.com/" style="fill-rule:evenodd;clip-rule:evenodd;stroke-linejoin:round;stroke-miterlimit:2;">
    <g transform="matrix(1,0,0,1,-1542.27,-1088.4)">
        <g transform="matrix(16.6667,0,0,16.6667,0,0)">
            <g transform="matrix(1,0,0,1,-22.4938,-50.0862)">
                <path d="M121.68,136.44L121.68,135.36" style="fill:none;fill-rule:nonzero;"/>
            </g>
        </g>
        <g transform="matrix(16.6667,0,0,16.6667,0,0)">
            <g transform="matrix(1,0,0,1,-22.4938,-50.0862)">
                <path d="M121.968,136.44L121.968,135.36C121.968,135.201 121.839,135.072 121.68,135.072C121.521,135.072 121.392,135.201 121.392,135.36L121.392,136.44C121.392,136.599 121.521,136.728 121.68,136.728C121.839,136.728 121.968,136.599 121.968,136.44Z"/>
            </g>
        </g>
        <g transform="matrix(16.6667,0,0,16.6667,0,0)">
            <g transform="matrix(1,0,0,1,-22.4938,-50.0862)">
                <path d="M127.08,136.44L127.08,136.08" style="fill:none;fill-rule:nonzero;"/>
            </g>
        </g>
        <g transform="matrix(16.6667,0,0,16.6667,0,0)">
            <g transform="matrix(1,0,0,1,-22.4938,-50.0862)">
                <path d="M127.368,136.44L127.368,136.08C127.368,135.921 127.239,135.792 127.08,135.792C126.921,135.792 126.792,135.921 126.792,136.08L126.792,136.44C126.792,136.599 126.921,136.728 127.08,136.728C127.239,136.728 127.368,136.599 127.368,136.44Z"/>
            </g>
        </g>
        <g transform="matrix(16.6667,0,0,16.6667,0,0)">
            <g transform="matrix(1,0,0,1,-22.4938,-50.0862)">
                <path d="M128.16,137.52L128.16,135" style="fill:none;fill-rule:nonzero;"/>
            </g>
        </g>
        <g transform="matrix(16.6667,0,0,16.6667,0,0)">
            <g transform="matrix(1,0,0,1,-22.4938,-50.0862)">
                <path d="M128.448,137.52L128.448,135C128.448,134.841 128.319,134.712 128.16,134.712C128.001,134.712 127.872,134.841 127.872,135L127.872,137.52C127.872,137.679 128.001,137.808 128.16,137.808C128.319,137.808 128.448,137.679 128.448,137.52Z"/>
            </g>
        </g>
        <g transform="matrix(16.6667,0,0,16.6667,0,0)">
            <g transform="matrix(1,0,0,1,-22.4938,-50.0862)">
                <path d="M137.88,134.28L137.88,137.52" style="fill:none;fill-rule:nonzero;"/>
            </g>
        </g>
        <g transform="matrix(16.6667,0,0,16.6667,0,0)">
            <g transform="matrix(1,0,0,1,-22.4938,-50.0862)">
                <path d="M137.592,134.28L137.592,137.52C137.592,137.679 137.721,137.808 137.88,137.808C138.039,137.808 138.168,137.679 138.168,137.52L138.168,134.28C138.168,134.121 138.039,133.992 137.88,133.992C137.721,133.992 137.592,134.121 137.592,134.28Z"/>
            </g>
        </g>
        <g transform="matrix(16.6667,0,0,16.6667,0,0)">
            <g transform="matrix(1,0,0,1,-22.4938,-50.0862)">
                <path d="M122.76,137.52L122.76,134.28" style="fill:none;fill-rule:nonzero;"/>
            </g>
        </g>
        <g transform="matrix(16.6667,0,0,16.6667,0,0)">
            <g transform="matrix(1,0,0,1,-22.4938,-50.0862)">
                <path d="M123.048,137.52L123.048,134.28C123.048,134.121 122.919,133.992 122.76,133.992C122.601,133.992 122.472,134.121 122.472,134.28L122.472,137.52C122.472,137.679 122.601,137.808 122.76,137.808C122.919,137.808 123.048,137.679 123.048,137.52Z"/>
            </g>
        </g>
        <g transform="matrix(16.6667,0,0,16.6667,0,0)">
            <g transform="matrix(1,0,0,1,-22.4938,-50.0862)">
                <path d="M123.84,131.76L123.84,139.32" style="fill:none;fill-rule:nonzero;"/>
            </g>
        </g>
        <g transform="matrix(16.6667,0,0,16.6667,0,0)">
            <g transform="matrix(1,0,0,1,-22.4938,-50.0862)">
                <path d="M123.552,131.76L123.552,139.32C123.552,139.479 123.681,139.608 123.84,139.608C123.999,139.608 124.128,139.479 124.128,139.32L124.128,131.76C124.128,131.601 123.999,131.472 123.84,131.472C123.681,131.472 123.552,131.601 123.552,131.76Z"/>
            </g>
        </g>
        <g transform="matrix(16.6667,0,0,16.6667,0,0)">
            <g transform="matrix(1,0,0,1,-22.4938,-50.0862)">
                <path d="M126,133.2L126,137.88" style="fill:none;fill-rule:nonzero;"/>
            </g>
        </g>
        <g transform="matrix(16.6667,0,0,16.6667,0,0)">
            <g transform="matrix(1,0,0,1,-22.4938,-50.0862)">
                <path d="M125.712,133.2L125.712,137.88C125.712,138.039 125.841,138.168 126,138.168C126.159,138.168 126.288,138.039 126.288,137.88L126.288,133.2C126.288,133.041 126.159,132.912 126,132.912C125.841,132.912 125.712,133.041 125.712,133.2Z"/>
            </g>
        </g>
        <g transform="matrix(16.6667,0,0,16.6667,0,0)">
            <g transform="matrix(1,0,0,1,-22.4938,-50.0862)">
                <path d="M132.48,134.28L132.48,136.8" style="fill:none;fill-rule:nonzero;"/>
            </g>
        </g>
        <g transform="matrix(16.6667,0,0,16.6667,0,0)">
            <g transform="matrix(1,0,0,1,-22.4938,-50.0862)">
                <path d="M132.192,134.28L132.192,136.8C132.192,136.959 132.321,137.088 132.48,137.088C132.639,137.088 132.768,136.959 132.768,136.8L132.768,134.28C132.768,134.121 132.639,133.992 132.48,133.992C132.321,133.992 132.192,134.121 132.192,134.28Z"/>
            </g>
        </g>
        <g transform="matrix(16.6667,0,0,16.6667,0,0)">
            <g transform="matrix(1,0,0,1,-22.4938,-50.0862)">
                <path d="M135.72,136.8L135.72,134.64" style="fill:none;fill-rule:nonzero;"/>
            </g>
        </g>
        <g transform="matrix(16.6667,0,0,16.6667,0,0)">
            <g transform="matrix(1,0,0,1,-22.4938,-50.0862)">
                <path d="M136.008,136.8L136.008,134.64C136.008,134.481 135.879,134.352 135.72,134.352C135.561,134.352 135.432,134.481 135.432,134.64L135.432,136.8C135.432,136.959 135.561,137.088 135.72,137.088C135.879,137.088 136.008,136.959 136.008,136.8Z"/>
            </g>
        </g>
        <g transform="matrix(16.6667,0,0,16.6667,0,0)">
            <g transform="matrix(1,0,0,1,-22.4938,-50.0862)">
                <path d="M129.24,140.04L129.24,131.04" style="fill:none;fill-rule:nonzero;"/>
            </g>
        </g>
        <g transform="matrix(16.6667,0,0,16.6667,0,0)">
            <g transform="matrix(1,0,0,1,-22.4938,-50.0862)">
                <path d="M129.528,140.04L129.528,131.04C129.528,130.881 129.399,130.752 129.24,130.752C129.081,130.752 128.952,130.881 128.952,131.04L128.952,140.04C128.952,140.199 129.081,140.328 129.24,140.328C129.399,140.328 129.528,140.199 129.528,140.04Z"/>
            </g>
        </g>
        <g transform="matrix(16.6667,0,0,16.6667,0,0)">
            <g transform="matrix(1,0,0,1,-22.4938,-50.0862)">
                <path d="M130.32,138.24L130.32,133.56" style="fill:none;fill-rule:nonzero;"/>
            </g>
        </g>
        <g transform="matrix(16.6667,0,0,16.6667,0,0)">
            <g transform="matrix(1,0,0,1,-22.4938,-50.0862)">
                <path d="M130.608,138.24L130.608,133.56C130.608,133.401 130.479,133.272 130.32,133.272C130.161,133.272 130.032,133.401 130.032,133.56L130.032,138.24C130.032,138.399 130.161,138.528 130.32,138.528C130.479,138.528 130.608,138.399 130.608,138.24Z"/>
            </g>
        </g>
        <g transform="matrix(16.6667,0,0,16.6667,0,0)">
            <g transform="matrix(1,0,0,1,-22.4938,-50.0862)">
                <path d="M133.56,135.36L133.56,135.72" style="fill:none;fill-rule:nonzero;"/>
            </g>
        </g>
        <g transform="matrix(16.6667,0,0,16.6667,0,0)">
            <g transform="matrix(1,0,0,1,-22.4938,-50.0862)">
                <path d="M133.272,135.36L133.272,135.72C133.272,135.879 133.401,136.008 133.56,136.008C133.719,136.008 133.848,135.879 133.848,135.72L133.848,135.36C133.848,135.201 133.719,135.072 133.56,135.072C133.401,135.072 133.272,135.201 133.272,135.36Z"/>
            </g>
        </g>
        <g transform="matrix(16.6667,0,0,16.6667,0,0)">
            <g transform="matrix(1,0,0,1,-22.4938,-50.0862)">
                <path d="M138.96,135.36L138.96,136.44" style="fill:none;fill-rule:nonzero;"/>
            </g>
        </g>
        <g transform="matrix(16.6667,0,0,16.6667,0,0)">
            <g transform="matrix(1,0,0,1,-22.4938,-50.0862)">
                <path d="M138.672,135.36L138.672,136.44C138.672,136.599 138.801,136.728 138.96,136.728C139.119,136.728 139.248,136.599 139.248,136.44L139.248,135.36C139.248,135.201 139.119,135.072 138.96,135.072C138.801,135.072 138.672,135.201 138.672,135.36Z"/>
            </g>
        </g>
        <g transform="matrix(16.6667,0,0,16.6667,0,0)">
            <g transform="matrix(1,0,0,1,-22.4938,-50.0862)">
                <path d="M124.92,135L124.92,137.16" style="fill:none;fill-rule:nonzero;"/>
            </g>
        </g>
        <g transform="matrix(16.6667,0,0,16.6667,0,0)">
            <g transform="matrix(1,0,0,1,-22.4938,-50.0862)">
                <path d="M124.632,135L124.632,137.16C124.632,137.319 124.761,137.448 124.92,137.448C125.079,137.448 125.208,137.319 125.208,137.16L125.208,135C125.208,134.841 125.079,134.712 124.92,134.712C124.761,134.712 124.632,134.841 124.632,135Z"/>
            </g>
        </g>
        <g transform="matrix(16.6667,0,0,16.6667,0,0)">
            <g transform="matrix(1,0,0,1,-22.4938,-50.0862)">
                <path d="M136.8,140.04L136.8,132.48" style="fill:none;fill-rule:nonzero;"/>
            </g>
        </g>
        <g transform="matrix(16.6667,0,0,16.6667,0,0)">
            <g transform="matrix(1,0,0,1,-22.4938,-50.0862)">
                <path d="M137.088,140.04L137.088,132.48C137.088,132.321 136.959,132.192 136.8,132.192C136.641,132.192 136.512,132.321 136.512,132.48L136.512,140.04C136.512,140.199 136.641,140.328 136.8,140.328C136.959,140.328 137.088,140.199 137.088,140.04Z"/>
            </g>
        </g>
        <g transform="matrix(16.6667,0,0,16.6667,0,0)">
            <g transform="matrix(1,0,0,1,-22.4938,-50.0862)">
                <path d="M131.4,131.76L131.4,140.76" style="fill:none;fill-rule:nonzero;"/>
            </g>
        </g>
        <g transform="matrix(16.6667,0,0,16.6667,0,0)">
            <g transform="matrix(1,0,0,1,-22.4938,-50.0862)">
                <path d="M131.112,131.76L131.112,140.76C131.112,140.919 131.241,141.048 131.4,141.048C131.559,141.048 131.688,140.919 131.688,140.76L131.688,131.76C131.688,131.601 131.559,131.472 131.4,131.472C131.241,131.472 131.112,131.601 131.112,131.76Z"/>
            </g>
        </g>
        <g transform="matrix(16.6667,0,0,16.6667,0,0)">
            <g transform="matrix(1,0,0,1,-22.4938,-50.0862)">
                <path d="M134.64,138.6L134.64,133.92" style="fill:none;fill-rule:nonzero;"/>
            </g>
        </g>
        <g transform="matrix(16.6667,0,0,16.6667,0,0)">
            <g transform="matrix(1,0,0,1,-22.4938,-50.0862)">
                <path d="M134.928,138.6L134.928,133.92C134.928,133.761 134.799,133.632 134.64,133.632C134.481,133.632 134.352,133.761 134.352,133.92L134.352,138.6C134.352,138.759 134.481,138.888 134.64,138.888C134.799,138.888 134.928,138.759 134.928,138.6Z"/>
            </g>
        </g>
        <g transform="matrix(16.6667,0,0,16.6667,0,0)">
            <g transform="matrix(1,0,0,1,-22.4938,-50.0862)">
                <path d="M130.32,133.56L130.32,138.24" style="fill:none;fill-rule:nonzero;"/>
            </g>
        </g>
        <g transform="matrix(16.6667,0,0,16.6667,0,0)">
            <g transform="matrix(1,0,0,1,-22.4938,-50.0862)">
                <path d="M130.032,133.56L130.032,138.24C130.032,138.399 130.161,138.528 130.32,138.528C130.479,138.528 130.608,138.399 130.608,138.24L130.608,133.56C130.608,133.401 130.479,133.272 130.32,133.272C130.161,133.272 130.032,133.401 130.032,133.56Z"/>
            </g>
        </g>
        <g transform="matrix(16.6667,0,0,16.6667,0,0)">
            <g transform="matrix(1,0,0,1,-22.4938,-50.0862)">
                <path d="M141.12,128.52L142.2,125.64" style="fill:none;fill-rule:nonzero;"/>
            </g>
        </g>
        <g transform="matrix(16.6667,0,0,16.6667,0,0)">
            <g transform="matrix(1,0,0,1,-22.4938,-50.0862)">
                <path d="M141.39,128.621L142.47,125.741C142.525,125.592 142.45,125.426 142.301,125.37C142.152,125.315 141.986,125.39 141.93,125.539L140.85,128.419C140.795,128.568 140.87,128.734 141.019,128.79C141.168,128.845 141.334,128.77 141.39,128.621Z"/>
            </g>
        </g>
        <g transform="matrix(16.6667,0,0,16.6667,0,0)">
            <g transform="matrix(1,0,0,1,-22.4938,-50.0862)">
                <path d="M135.72,122.04L141.12,128.52" style="fill:none;fill-rule:nonzero;"/>
            </g>
        </g>
        <g transform="matrix(16.6667,0,0,16.6667,0,0)">
            <g transform="matrix(1,0,0,1,-22.4938,-50.0862)">
                <path d="M135.499,122.224L140.899,128.704C141.001,128.826 141.182,128.843 141.304,128.741C141.426,128.639 141.443,128.458 141.341,128.336L135.941,121.856C135.839,121.734 135.658,121.717 135.536,121.819C135.414,121.921 135.397,122.102 135.499,122.224Z"/>
            </g>
        </g>
        <g transform="matrix(16.6667,0,0,16.6667,0,0)">
            <g transform="matrix(1,0,0,1,-22.4938,-50.0862)">
                <path d="M133.92,125.64L135.72,122.04" style="fill:none;fill-rule:nonzero;"/>
            </g>
        </g>
        <g transform="matrix(16.6667,0,0,16.6667,0,0)">
            <g transform="matrix(1,0,0,1,-22.4938,-50.0862)">
                <path d="M134.178,125.769L135.978,122.169C136.049,122.027 135.991,121.853 135.849,121.782C135.707,121.711 135.533,121.769 135.462,121.911L133.662,125.511C133.591,125.653 133.649,125.827 133.791,125.898C133.933,125.969 134.107,125.911 134.178,125.769Z"/>
            </g>
        </g>
        <g transform="matrix(16.6667,0,0,16.6667,0,0)">
            <g transform="matrix(1,0,0,1,-22.4938,-50.0862)">
                <path d="M135.72,128.52L135.72,125.64" style="fill:none;fill-rule:nonzero;"/>
            </g>
        </g>
        <g transform="matrix(16.6667,0,0,16.6667,0,0)">
            <g transform="matrix(1,0,0,1,-22.4938,-50.0862)">
                <path d="M136.008,128.52L136.008,125.64C136.008,125.481 135.879,125.352 135.72,125.352C135.561,125.352 135.432,125.481 135.432,125.64L135.432,128.52C135.432,128.679 135.561,128.808 135.72,128.808C135.879,128.808 136.008,128.679 136.008,128.52Z"/>
            </g>
        </g>
        <g transform="matrix(16.6667,0,0,16.6667,0,0)">
            <g transform="matrix(1,0,0,1,-22.4938,-50.0862)">
                <path d="M132.12,128.52L135.72,128.52" style="fill:none;fill-rule:nonzero;"/>
            </g>
        </g>
        <g transform="matrix(16.6667,0,0,16.6667,0,0)">
            <g transform="matrix(1,0,0,1,-22.4938,-50.0862)">
                <path d="M132.12,128.808L135.72,128.808C135.879,128.808 136.008,128.679 136.008,128.52C136.008,128.361 135.879,128.232 135.72,128.232L132.12,128.232C131.961,128.232 131.832,128.361 131.832,128.52C131.832,128.679 131.961,128.808 132.12,128.808Z"/>
            </g>
        </g>
        <g transform="matrix(16.6667,0,0,16.6667,0,0)">
            <g transform="matrix(1,0,0,1,-22.4938,-50.0862)">
                <path d="M132.12,122.04L132.12,128.52" style="fill:none;fill-rule:nonzero;"/>
            </g>
        </g>
        <g transform="matrix(16.6667,0,0,16.6667,0,0)">
            <g transform="matrix(1,0,0,1,-22.4938,-50.0862)">
                <path d="M131.832,122.04L131.832,128.52C131.832,128.679 131.961,128.808 132.12,128.808C132.279,128.808 132.408,128.679 132.408,128.52L132.408,122.04C132.408,121.881 132.279,121.752 132.12,121.752C131.961,121.752 131.832,121.881 131.832,122.04Z"/>
            </g>
        </g>
        <g transform="matrix(16.6667,0,0,16.6667,0,0)">
            <g transform="matrix(1,0,0,1,-22.4938,-50.0862)">
                <path d="M127.08,122.04L132.12,122.04" style="fill:none;fill-rule:nonzero;"/>
            </g>
        </g>
        <g transform="matrix(16.6667,0,0,16.6667,0,0)">
            <g transform="matrix(1,0,0,1,-22.4938,-50.0862)">
                <path d="M127.08,122.328L132.12,122.328C132.279,122.328 132.408,122.199 132.408,122.04C132.408,121.881 132.279,121.752 132.12,121.752L127.08,121.752C126.921,121.752 126.792,121.881 126.792,122.04C126.792,122.199 126.921,122.328 127.08,122.328Z"/>
            </g>
        </g>
        <g transform="matrix(16.6667,0,0,16.6667,0,0)">
            <g transform="matrix(1,0,0,1,-22.4938,-50.0862)">
                <path d="M127.08,125.28L127.08,122.04" style="fill:none;fill-rule:nonzero;"/>
            </g>
        </g>
        <g transform="matrix(16.6667,0,0,16.6667,0,0)">
            <g transform="matrix(1,0,0,1,-22.4938,-50.0862)">
                <path d="M127.368,125.28L127.368,122.04C127.368,121.881 127.239,121.752 127.08,121.752C126.921,121.752 126.792,121.881 126.792,122.04L126.792,125.28C126.792,125.439 126.921,125.568 127.08,125.568C127.239,125.568 127.368,125.439 127.368,125.28Z"/>
            </g>
        </g>
        <g transform="matrix(16.6667,0,0,16.6667,0,0)">
            <g transform="matrix(1,0,0,1,-22.4938,-50.0862)">
                <path d="M123.84,125.28C123.84,127.057 125.303,128.52 127.08,128.52C128.857,128.52 130.32,127.057 130.32,125.28" style="fill-opacity:0;fill-rule:nonzero;"/>
            </g>
        </g>
        <g transform="matrix(16.6667,0,0,16.6667,0,0)">
            <g transform="matrix(1,0,0,1,-22.4938,-50.0862)">
                <path d="M123.552,125.28C123.552,127.215 125.145,128.808 127.08,128.808C129.015,128.808 130.608,127.215 130.608,125.28C130.608,125.121 130.479,124.992 130.32,124.992C130.161,124.992 130.032,125.121 130.032,125.28C130.032,126.899 128.699,128.232 127.08,128.232C125.461,128.232 124.128,126.899 124.128,125.28C124.128,125.121 123.999,124.992 123.84,124.992C123.681,124.992 123.552,125.121 123.552,125.28Z"/>
            </g>
        </g>
        <g transform="matrix(16.6667,0,0,16.6667,0,0)">
            <g transform="matrix(1,0,0,1,-22.4938,-50.0862)">
                <path d="M123.84,125.28C123.84,123.503 122.377,122.04 120.6,122.04C118.823,122.04 117.36,123.503 117.36,125.28" style="fill-opacity:0;fill-rule:nonzero;"/>
            </g>
        </g>
        <g transform="matrix(16.6667,0,0,16.6667,0,0)">
            <g transform="matrix(1,0,0,1,-22.4938,-50.0862)">
                <path d="M124.128,125.28C124.128,123.345 122.535,121.752 120.6,121.752C118.665,121.752 117.072,123.345 117.072,125.28C117.072,125.439 117.201,125.568 117.36,125.568C117.519,125.568 117.648,125.439 117.648,125.28C117.648,123.661 118.981,122.328 120.6,122.328C122.219,122.328 123.552,123.661 123.552,125.28C123.552,125.439 123.681,125.568 123.84,125.568C123.999,125.568 124.128,125.439 124.128,125.28Z"/>
            </g>
        </g>
        <g transform="matrix(16.6667,0,0,16.6667,0,0)">
            <g transform="matrix(1,0,0,1,-22.4938,-50.0862)">
                <path d="M117.72,121.68L115.704,120.168" style="fill:none;fill-rule:nonzero;"/>
            </g>
        </g>
        <g transform="matrix(16.6667,0,0,16.6667,0,0)">
            <g transform="matrix(1,0,0,1,-22.4938,-50.0862)">
                <path d="M117.822,121.544L115.806,120.032C115.731,119.976 115.624,119.991 115.568,120.066C115.512,120.141 115.527,120.248 115.602,120.304L117.618,121.816C117.693,121.872 117.8,121.857 117.856,121.782C117.912,121.707 117.897,121.6 117.822,121.544Z"/>
            </g>
        </g>
        <g transform="matrix(16.6667,0,0,16.6667,0,0)">
            <g transform="matrix(1,0,0,1,-22.4938,-50.0862)">
                <path d="M129.6,115.39C121.559,115.39 115.03,121.919 115.03,129.96C115.03,138.001 121.559,144.53 129.6,144.53C137.641,144.53 144.17,138.001 144.17,129.96C144.17,121.919 137.641,115.39 129.6,115.39ZM129.6,115.73C137.454,115.73 143.83,122.106 143.83,129.96C143.83,137.814 137.454,144.19 129.6,144.19C121.746,144.19 115.37,137.814 115.37,129.96C115.37,122.106 121.746,115.73 129.6,115.73Z"/>
            </g>
        </g>
    </g>
</svg>
