<?xml version="1.0" encoding="UTF-8" standalone="no"?>
<!DOCTYPE svg PUBLIC "-//W3C//DTD SVG 1.1//EN" "http://www.w3.org/Graphics/SVG/1.1/DTD/svg11.dtd">
<svg width="100%" height="100%" viewBox="0 0 486 486" version="1.1" xmlns="http://www.w3.org/2000/svg" xmlns:xlink="http://www.w3.org/1999/xlink" xml:space="preserve" xmlns:serif="http://www.serif.com/" style="fill-rule:evenodd;clip-rule:evenodd;stroke-linejoin:round;stroke-miterlimit:2;">
    <g transform="matrix(1,0,0,1,-2118.27,-1088.4)">
        <g transform="matrix(16.6667,0,0,16.6667,0,0)">
            <g transform="matrix(1,0,0,1,-22.4938,-50.0862)">
                <path d="M162,132.48C162.212,132.61 162.456,132.679 162.705,132.679C163.446,132.679 164.056,132.069 164.056,131.328" style="fill-opacity:0;fill-rule:nonzero;"/>
            </g>
        </g>
        <g transform="matrix(16.6667,0,0,16.6667,0,0)">
            <g transform="matrix(1,0,0,1,-22.4938,-50.0862)">
                <path d="M161.85,132.726C162.107,132.883 162.403,132.967 162.705,132.967C163.604,132.967 164.344,132.227 164.344,131.328C164.344,131.169 164.215,131.04 164.056,131.04C163.897,131.04 163.768,131.169 163.768,131.328C163.768,131.911 163.288,132.391 162.705,132.391C162.51,132.391 162.317,132.337 162.15,132.234C162.015,132.151 161.837,132.194 161.754,132.33C161.671,132.465 161.714,132.643 161.85,132.726Z"/>
            </g>
        </g>
        <g transform="matrix(16.6667,0,0,16.6667,0,0)">
            <g transform="matrix(1,0,0,1,-22.4938,-50.0862)">
                <path d="M164.146,130.968C164.146,131.758 164.796,132.408 165.586,132.408C166.376,132.408 167.026,131.758 167.026,130.968" style="fill-opacity:0;fill-rule:nonzero;"/>
            </g>
        </g>
        <g transform="matrix(16.6667,0,0,16.6667,0,0)">
            <g transform="matrix(1,0,0,1,-22.4938,-50.0862)">
                <path d="M163.858,130.968C163.858,131.916 164.638,132.696 165.586,132.696C166.534,132.696 167.314,131.916 167.314,130.968C167.314,130.809 167.185,130.68 167.026,130.68C166.867,130.68 166.738,130.809 166.738,130.968C166.738,131.6 166.218,132.12 165.586,132.12C164.954,132.12 164.434,131.6 164.434,130.968C164.434,130.809 164.305,130.68 164.146,130.68C163.987,130.68 163.858,130.809 163.858,130.968Z"/>
            </g>
        </g>
        <g transform="matrix(16.6667,0,0,16.6667,0,0)">
            <g transform="matrix(1,0,0,1,-22.4938,-50.0862)">
                <path d="M158.04,137.88L159.48,138.96" style="fill:none;fill-rule:nonzero;"/>
            </g>
        </g>
        <g transform="matrix(16.6667,0,0,16.6667,0,0)">
            <g transform="matrix(1,0,0,1,-22.4938,-50.0862)">
                <path d="M157.867,138.11L159.307,139.19C159.434,139.286 159.615,139.26 159.71,139.133C159.806,139.006 159.78,138.825 159.653,138.73L158.213,137.65C158.086,137.554 157.905,137.58 157.81,137.707C157.714,137.834 157.74,138.015 157.867,138.11Z"/>
            </g>
        </g>
        <g transform="matrix(16.6667,0,0,16.6667,0,0)">
            <g transform="matrix(1,0,0,1,-22.4938,-50.0862)">
                <path d="M158.414,130.752L158.4,132.48" style="fill:none;fill-rule:nonzero;"/>
            </g>
        </g>
        <g transform="matrix(16.6667,0,0,16.6667,0,0)">
            <g transform="matrix(1,0,0,1,-22.4938,-50.0862)">
                <path d="M158.126,130.75L158.112,132.478C158.111,132.637 158.239,132.767 158.398,132.768C158.557,132.769 158.687,132.641 158.688,132.482L158.702,130.754C158.704,130.595 158.576,130.465 158.417,130.464C158.258,130.463 158.128,130.591 158.126,130.75Z"/>
            </g>
        </g>
        <g transform="matrix(16.6667,0,0,16.6667,0,0)">
            <g transform="matrix(1,0,0,1,-22.4938,-50.0862)">
                <path d="M162,132.48L160.56,135" style="fill:none;fill-rule:nonzero;"/>
            </g>
        </g>
        <g transform="matrix(16.6667,0,0,16.6667,0,0)">
            <g transform="matrix(1,0,0,1,-22.4938,-50.0862)">
                <path d="M161.75,132.337L160.31,134.857C160.231,134.995 160.279,135.171 160.417,135.25C160.555,135.329 160.731,135.281 160.81,135.143L162.25,132.623C162.329,132.485 162.281,132.309 162.143,132.23C162.005,132.151 161.829,132.199 161.75,132.337Z"/>
            </g>
        </g>
        <g transform="matrix(16.6667,0,0,16.6667,0,0)">
            <g transform="matrix(1,0,0,1,-22.4938,-50.0862)">
                <path d="M156.96,136.44L158.04,137.88" style="fill:none;fill-rule:nonzero;"/>
            </g>
        </g>
        <g transform="matrix(16.6667,0,0,16.6667,0,0)">
            <g transform="matrix(1,0,0,1,-22.4938,-50.0862)">
                <path d="M156.73,136.613L157.81,138.053C157.905,138.18 158.086,138.206 158.213,138.11C158.34,138.015 158.366,137.834 158.27,137.707L157.19,136.267C157.095,136.14 156.914,136.114 156.787,136.21C156.66,136.305 156.634,136.486 156.73,136.613Z"/>
            </g>
        </g>
        <g transform="matrix(16.6667,0,0,16.6667,0,0)">
            <g transform="matrix(1,0,0,1,-22.4938,-50.0862)">
                <path d="M156.96,134.64L156.96,136.44" style="fill:none;fill-rule:nonzero;"/>
            </g>
        </g>
        <g transform="matrix(16.6667,0,0,16.6667,0,0)">
            <g transform="matrix(1,0,0,1,-22.4938,-50.0862)">
                <path d="M156.672,134.64L156.672,136.44C156.672,136.599 156.801,136.728 156.96,136.728C157.119,136.728 157.248,136.599 157.248,136.44L157.248,134.64C157.248,134.481 157.119,134.352 156.96,134.352C156.801,134.352 156.672,134.481 156.672,134.64Z"/>
            </g>
        </g>
        <g transform="matrix(16.6667,0,0,16.6667,0,0)">
            <g transform="matrix(1,0,0,1,-22.4938,-50.0862)">
                <path d="M160.474,129.737L156.96,134.64" style="fill:none;fill-rule:nonzero;"/>
            </g>
        </g>
        <g transform="matrix(16.6667,0,0,16.6667,0,0)">
            <g transform="matrix(1,0,0,1,-22.4938,-50.0862)">
                <path d="M160.24,129.569L156.726,134.472C156.633,134.601 156.663,134.782 156.792,134.874C156.921,134.967 157.102,134.937 157.194,134.808L160.708,129.905C160.8,129.775 160.771,129.595 160.641,129.503C160.512,129.41 160.332,129.44 160.24,129.569Z"/>
            </g>
        </g>
        <g transform="matrix(16.6667,0,0,16.6667,0,0)">
            <g transform="matrix(1,0,0,1,-22.4938,-50.0862)">
                <path d="M162.72,131.04L162,132.48" style="fill:none;fill-rule:nonzero;"/>
            </g>
        </g>
        <g transform="matrix(16.6667,0,0,16.6667,0,0)">
            <g transform="matrix(1,0,0,1,-22.4938,-50.0862)">
                <path d="M162.462,130.911L161.742,132.351C161.671,132.493 161.729,132.667 161.871,132.738C162.013,132.809 162.187,132.751 162.258,132.609L162.978,131.169C163.049,131.027 162.991,130.853 162.849,130.782C162.707,130.711 162.533,130.769 162.462,130.911Z"/>
            </g>
        </g>
        <g transform="matrix(16.6667,0,0,16.6667,0,0)">
            <g transform="matrix(1,0,0,1,-22.4938,-50.0862)">
                <path d="M162.72,131.04C162.863,130.826 162.94,130.575 162.94,130.318C162.94,129.606 162.354,129.02 161.642,129.02C161.15,129.02 160.698,129.299 160.479,129.74" style="fill-opacity:0;fill-rule:nonzero;"/>
            </g>
        </g>
        <g transform="matrix(16.6667,0,0,16.6667,0,0)">
            <g transform="matrix(1,0,0,1,-22.4938,-50.0862)">
                <path d="M162.959,131.2C163.134,130.939 163.228,130.632 163.228,130.318C163.228,129.448 162.512,128.732 161.642,128.732C161.041,128.732 160.489,129.073 160.221,129.611C160.151,129.754 160.209,129.927 160.351,129.998C160.493,130.068 160.666,130.01 160.737,129.868C160.908,129.525 161.259,129.308 161.642,129.308C162.196,129.308 162.652,129.763 162.652,130.318C162.652,130.518 162.592,130.713 162.481,130.88C162.392,131.012 162.428,131.191 162.56,131.279C162.692,131.368 162.871,131.332 162.959,131.2Z"/>
            </g>
        </g>
        <g transform="matrix(16.6667,0,0,16.6667,0,0)">
            <g transform="matrix(1,0,0,1,-22.4938,-50.0862)">
                <path d="M158.414,129.312L158.414,130.752" style="fill:none;fill-rule:nonzero;"/>
            </g>
        </g>
        <g transform="matrix(16.6667,0,0,16.6667,0,0)">
            <g transform="matrix(1,0,0,1,-22.4938,-50.0862)">
                <path d="M158.126,129.312L158.126,130.752C158.126,130.911 158.255,131.04 158.414,131.04C158.573,131.04 158.702,130.911 158.702,130.752L158.702,129.312C158.702,129.153 158.573,129.024 158.414,129.024C158.255,129.024 158.126,129.153 158.126,129.312Z"/>
            </g>
        </g>
        <g transform="matrix(16.6667,0,0,16.6667,0,0)">
            <g transform="matrix(1,0,0,1,-22.4938,-50.0862)">
                <path d="M158.414,129.312L158.414,124.992" style="fill:none;fill-rule:nonzero;"/>
            </g>
        </g>
        <g transform="matrix(16.6667,0,0,16.6667,0,0)">
            <g transform="matrix(1,0,0,1,-22.4938,-50.0862)">
                <path d="M158.702,129.312L158.702,124.992C158.702,124.833 158.573,124.704 158.414,124.704C158.255,124.704 158.126,124.833 158.126,124.992L158.126,129.312C158.126,129.471 158.255,129.6 158.414,129.6C158.573,129.6 158.702,129.471 158.702,129.312Z"/>
            </g>
        </g>
        <g transform="matrix(16.6667,0,0,16.6667,0,0)">
            <g transform="matrix(1,0,0,1,-22.4938,-50.0862)">
                <path d="M169.934,133.632L169.934,135.072" style="fill:none;fill-rule:nonzero;"/>
            </g>
        </g>
        <g transform="matrix(16.6667,0,0,16.6667,0,0)">
            <g transform="matrix(1,0,0,1,-22.4938,-50.0862)">
                <path d="M169.646,133.632L169.646,135.072C169.646,135.231 169.775,135.36 169.934,135.36C170.093,135.36 170.222,135.231 170.222,135.072L170.222,133.632C170.222,133.473 170.093,133.344 169.934,133.344C169.775,133.344 169.646,133.473 169.646,133.632Z"/>
            </g>
        </g>
        <g transform="matrix(16.6667,0,0,16.6667,0,0)">
            <g transform="matrix(1,0,0,1,-22.4938,-50.0862)">
                <path d="M158.414,124.992L158.414,123.552" style="fill:none;fill-rule:nonzero;"/>
            </g>
        </g>
        <g transform="matrix(16.6667,0,0,16.6667,0,0)">
            <g transform="matrix(1,0,0,1,-22.4938,-50.0862)">
                <path d="M158.702,124.992L158.702,123.552C158.702,123.393 158.573,123.264 158.414,123.264C158.255,123.264 158.126,123.393 158.126,123.552L158.126,124.992C158.126,125.151 158.255,125.28 158.414,125.28C158.573,125.28 158.702,125.151 158.702,124.992Z"/>
            </g>
        </g>
        <g transform="matrix(16.6667,0,0,16.6667,0,0)">
            <g transform="matrix(1,0,0,1,-22.4938,-50.0862)">
                <path d="M158.414,123.552L158.414,122.112" style="fill:none;fill-rule:nonzero;"/>
            </g>
        </g>
        <g transform="matrix(16.6667,0,0,16.6667,0,0)">
            <g transform="matrix(1,0,0,1,-22.4938,-50.0862)">
                <path d="M158.702,123.552L158.702,122.112C158.702,121.953 158.573,121.824 158.414,121.824C158.255,121.824 158.126,121.953 158.126,122.112L158.126,123.552C158.126,123.711 158.255,123.84 158.414,123.84C158.573,123.84 158.702,123.711 158.702,123.552Z"/>
            </g>
        </g>
        <g transform="matrix(16.6667,0,0,16.6667,0,0)">
            <g transform="matrix(1,0,0,1,-22.4938,-50.0862)">
                <path d="M169.934,135.072L168.494,137.952" style="fill:none;fill-rule:nonzero;"/>
            </g>
        </g>
        <g transform="matrix(16.6667,0,0,16.6667,0,0)">
            <g transform="matrix(1,0,0,1,-22.4938,-50.0862)">
                <path d="M169.677,134.943L168.237,137.823C168.166,137.965 168.223,138.139 168.366,138.21C168.508,138.281 168.681,138.223 168.752,138.081L170.192,135.201C170.263,135.059 170.205,134.885 170.063,134.814C169.921,134.743 169.748,134.801 169.677,134.943Z"/>
            </g>
        </g>
        <g transform="matrix(16.6667,0,0,16.6667,0,0)">
            <g transform="matrix(1,0,0,1,-22.4938,-50.0862)">
                <path d="M169.934,122.112L169.934,133.632" style="fill:none;fill-rule:nonzero;"/>
            </g>
        </g>
        <g transform="matrix(16.6667,0,0,16.6667,0,0)">
            <g transform="matrix(1,0,0,1,-22.4938,-50.0862)">
                <path d="M169.646,122.112L169.646,133.632C169.646,133.791 169.775,133.92 169.934,133.92C170.093,133.92 170.222,133.791 170.222,133.632L170.222,122.112C170.222,121.953 170.093,121.824 169.934,121.824C169.775,121.824 169.646,121.953 169.646,122.112Z"/>
            </g>
        </g>
        <g transform="matrix(16.6667,0,0,16.6667,0,0)">
            <g transform="matrix(1,0,0,1,-22.4938,-50.0862)">
                <path d="M164.174,127.872L164.174,129.312" style="fill:none;fill-rule:nonzero;"/>
            </g>
        </g>
        <g transform="matrix(16.6667,0,0,16.6667,0,0)">
            <g transform="matrix(1,0,0,1,-22.4938,-50.0862)">
                <path d="M163.886,127.872L163.886,129.312C163.886,129.471 164.015,129.6 164.174,129.6C164.333,129.6 164.462,129.471 164.462,129.312L164.462,127.872C164.462,127.713 164.333,127.584 164.174,127.584C164.015,127.584 163.886,127.713 163.886,127.872Z"/>
            </g>
        </g>
        <g transform="matrix(16.6667,0,0,16.6667,0,0)">
            <g transform="matrix(1,0,0,1,-22.4938,-50.0862)">
                <path d="M161.294,122.112L161.294,127.872" style="fill:none;fill-rule:nonzero;"/>
            </g>
        </g>
        <g transform="matrix(16.6667,0,0,16.6667,0,0)">
            <g transform="matrix(1,0,0,1,-22.4938,-50.0862)">
                <path d="M161.006,122.112L161.006,127.872C161.006,128.031 161.135,128.16 161.294,128.16C161.453,128.16 161.582,128.031 161.582,127.872L161.582,122.112C161.582,121.953 161.453,121.824 161.294,121.824C161.135,121.824 161.006,121.953 161.006,122.112Z"/>
            </g>
        </g>
        <g transform="matrix(16.6667,0,0,16.6667,0,0)">
            <g transform="matrix(1,0,0,1,-22.4938,-50.0862)">
                <path d="M167.054,122.112L167.054,129.312" style="fill:none;fill-rule:nonzero;"/>
            </g>
        </g>
        <g transform="matrix(16.6667,0,0,16.6667,0,0)">
            <g transform="matrix(1,0,0,1,-22.4938,-50.0862)">
                <path d="M166.766,122.112L166.766,129.312C166.766,129.471 166.895,129.6 167.054,129.6C167.213,129.6 167.342,129.471 167.342,129.312L167.342,122.112C167.342,121.953 167.213,121.824 167.054,121.824C166.895,121.824 166.766,121.953 166.766,122.112Z"/>
            </g>
        </g>
        <g transform="matrix(16.6667,0,0,16.6667,0,0)">
            <g transform="matrix(1,0,0,1,-22.4938,-50.0862)">
                <path d="M164.174,127.872C164.174,127.082 163.524,126.432 162.734,126.432C161.944,126.432 161.294,127.082 161.294,127.872" style="fill-opacity:0;fill-rule:nonzero;"/>
            </g>
        </g>
        <g transform="matrix(16.6667,0,0,16.6667,0,0)">
            <g transform="matrix(1,0,0,1,-22.4938,-50.0862)">
                <path d="M164.462,127.872C164.462,126.924 163.682,126.144 162.734,126.144C161.786,126.144 161.006,126.924 161.006,127.872C161.006,128.031 161.135,128.16 161.294,128.16C161.453,128.16 161.582,128.031 161.582,127.872C161.582,127.24 162.102,126.72 162.734,126.72C163.366,126.72 163.886,127.24 163.886,127.872C163.886,128.031 164.015,128.16 164.174,128.16C164.333,128.16 164.462,128.031 164.462,127.872Z"/>
            </g>
        </g>
        <g transform="matrix(16.6667,0,0,16.6667,0,0)">
            <g transform="matrix(1,0,0,1,-22.4938,-50.0862)">
                <path d="M167.054,127.872C167.054,127.082 166.404,126.432 165.614,126.432C164.824,126.432 164.174,127.082 164.174,127.872" style="fill-opacity:0;fill-rule:nonzero;"/>
            </g>
        </g>
        <g transform="matrix(16.6667,0,0,16.6667,0,0)">
            <g transform="matrix(1,0,0,1,-22.4938,-50.0862)">
                <path d="M167.342,127.872C167.342,126.924 166.562,126.144 165.614,126.144C164.666,126.144 163.886,126.924 163.886,127.872C163.886,128.031 164.015,128.16 164.174,128.16C164.333,128.16 164.462,128.031 164.462,127.872C164.462,127.24 164.982,126.72 165.614,126.72C166.246,126.72 166.766,127.24 166.766,127.872C166.766,128.031 166.895,128.16 167.054,128.16C167.213,128.16 167.342,128.031 167.342,127.872Z"/>
            </g>
        </g>
        <g transform="matrix(16.6667,0,0,16.6667,0,0)">
            <g transform="matrix(1,0,0,1,-22.4938,-50.0862)">
                <path d="M169.934,122.112C169.934,121.322 169.284,120.672 168.494,120.672C167.704,120.672 167.054,121.322 167.054,122.112" style="fill-opacity:0;fill-rule:nonzero;"/>
            </g>
        </g>
        <g transform="matrix(16.6667,0,0,16.6667,0,0)">
            <g transform="matrix(1,0,0,1,-22.4938,-50.0862)">
                <path d="M170.222,122.112C170.222,121.164 169.442,120.384 168.494,120.384C167.546,120.384 166.766,121.164 166.766,122.112C166.766,122.271 166.895,122.4 167.054,122.4C167.213,122.4 167.342,122.271 167.342,122.112C167.342,121.48 167.862,120.96 168.494,120.96C169.126,120.96 169.646,121.48 169.646,122.112C169.646,122.271 169.775,122.4 169.934,122.4C170.093,122.4 170.222,122.271 170.222,122.112Z"/>
            </g>
        </g>
        <g transform="matrix(16.6667,0,0,16.6667,0,0)">
            <g transform="matrix(1,0,0,1,-22.4938,-50.0862)">
                <path d="M161.294,122.112C161.294,121.322 160.644,120.672 159.854,120.672C159.064,120.672 158.414,121.322 158.414,122.112" style="fill-opacity:0;fill-rule:nonzero;"/>
            </g>
        </g>
        <g transform="matrix(16.6667,0,0,16.6667,0,0)">
            <g transform="matrix(1,0,0,1,-22.4938,-50.0862)">
                <path d="M161.582,122.112C161.582,121.164 160.802,120.384 159.854,120.384C158.906,120.384 158.126,121.164 158.126,122.112C158.126,122.271 158.255,122.4 158.414,122.4C158.573,122.4 158.702,122.271 158.702,122.112C158.702,121.48 159.222,120.96 159.854,120.96C160.486,120.96 161.006,121.48 161.006,122.112C161.006,122.271 161.135,122.4 161.294,122.4C161.453,122.4 161.582,122.271 161.582,122.112Z"/>
            </g>
        </g>
        <g transform="matrix(16.6667,0,0,16.6667,0,0)">
            <g transform="matrix(1,0,0,1,-22.4938,-50.0862)">
                <path d="M167.054,129.312L167.054,132.192" style="fill:none;fill-rule:nonzero;"/>
            </g>
        </g>
        <g transform="matrix(16.6667,0,0,16.6667,0,0)">
            <g transform="matrix(1,0,0,1,-22.4938,-50.0862)">
                <path d="M166.766,129.312L166.766,132.192C166.766,132.351 166.895,132.48 167.054,132.48C167.213,132.48 167.342,132.351 167.342,132.192L167.342,129.312C167.342,129.153 167.213,129.024 167.054,129.024C166.895,129.024 166.766,129.153 166.766,129.312Z"/>
            </g>
        </g>
        <g transform="matrix(16.6667,0,0,16.6667,0,0)">
            <g transform="matrix(1,0,0,1,-22.4938,-50.0862)">
                <path d="M164.174,129.312L164.174,130.752" style="fill:none;fill-rule:nonzero;"/>
            </g>
        </g>
        <g transform="matrix(16.6667,0,0,16.6667,0,0)">
            <g transform="matrix(1,0,0,1,-22.4938,-50.0862)">
                <path d="M163.886,129.312L163.886,130.752C163.886,130.911 164.015,131.04 164.174,131.04C164.333,131.04 164.462,130.911 164.462,130.752L164.462,129.312C164.462,129.153 164.333,129.024 164.174,129.024C164.015,129.024 163.886,129.153 163.886,129.312Z"/>
            </g>
        </g>
        <g transform="matrix(16.6667,0,0,16.6667,0,0)">
            <g transform="matrix(1,0,0,1,-22.4938,-50.0862)">
                <path d="M161.294,127.872L161.294,128.88" style="fill:none;fill-rule:nonzero;"/>
            </g>
        </g>
        <g transform="matrix(16.6667,0,0,16.6667,0,0)">
            <g transform="matrix(1,0,0,1,-22.4938,-50.0862)">
                <path d="M161.006,127.872L161.006,128.88C161.006,129.039 161.135,129.168 161.294,129.168C161.453,129.168 161.582,129.039 161.582,128.88L161.582,127.872C161.582,127.713 161.453,127.584 161.294,127.584C161.135,127.584 161.006,127.713 161.006,127.872Z"/>
            </g>
        </g>
        <g transform="matrix(16.6667,0,0,16.6667,0,0)">
            <g transform="matrix(1,0,0,1,-22.4938,-50.0862)">
                <path d="M152.28,121.68L150.264,120.168" style="fill:none;fill-rule:nonzero;"/>
            </g>
        </g>
        <g transform="matrix(16.6667,0,0,16.6667,0,0)">
            <g transform="matrix(1,0,0,1,-22.4938,-50.0862)">
                <path d="M152.382,121.544L150.366,120.032C150.291,119.976 150.184,119.991 150.128,120.066C150.072,120.141 150.087,120.248 150.162,120.304L152.178,121.816C152.253,121.872 152.36,121.857 152.416,121.782C152.472,121.707 152.457,121.6 152.382,121.544Z"/>
            </g>
        </g>
        <g transform="matrix(16.6667,0,0,16.6667,0,0)">
            <g transform="matrix(1,0,0,1,-22.4938,-50.0862)">
                <circle cx="164.16" cy="129.96" r="14.4" style="fill-opacity:0;"/>
            </g>
        </g>
        <g transform="matrix(16.6667,0,0,16.6667,0,0)">
            <g transform="matrix(1,0,0,1,-22.4938,-50.0862)">
                <path d="M164.16,115.39C156.119,115.39 149.59,121.919 149.59,129.96C149.59,138.001 156.119,144.53 164.16,144.53C172.201,144.53 178.73,138.001 178.73,129.96C178.73,121.919 172.201,115.39 164.16,115.39ZM164.16,115.73C172.014,115.73 178.39,122.106 178.39,129.96C178.39,137.814 172.014,144.19 164.16,144.19C156.306,144.19 149.93,137.814 149.93,129.96C149.93,122.106 156.306,115.73 164.16,115.73Z"/>
            </g>
        </g>
    </g>
</svg>
