<?xml version="1.0" encoding="UTF-8" standalone="no"?>
<!DOCTYPE svg PUBLIC "-//W3C//DTD SVG 1.1//EN" "http://www.w3.org/Graphics/SVG/1.1/DTD/svg11.dtd">
<svg width="100%" height="100%" viewBox="0 0 486 486" version="1.1" xmlns="http://www.w3.org/2000/svg" xmlns:xlink="http://www.w3.org/1999/xlink" xml:space="preserve" xmlns:serif="http://www.serif.com/" style="fill-rule:evenodd;clip-rule:evenodd;stroke-linejoin:round;stroke-miterlimit:2;">
    <g transform="matrix(1,0,0,1,-2694.27,-1088.4)">
        <g transform="matrix(16.6667,0,0,16.6667,0,0)">
            <g transform="matrix(1,0,0,1,-22.4938,-50.0862)">
                <circle cx="193.745" cy="137.354" r="0.72" style="fill-opacity:0;"/>
            </g>
        </g>
        <g transform="matrix(16.6667,0,0,16.6667,0,0)">
            <g transform="matrix(1,0,0,1,-22.4938,-50.0862)">
                <circle cx="193.745" cy="137.354" r="1.44"/>
            </g>
        </g>
        <g transform="matrix(16.6667,0,0,16.6667,0,0)">
            <g transform="matrix(1,0,0,1,-22.4938,-50.0862)">
                <path d="M195.329,137.498L195.329,127.706" style="fill:none;fill-rule:nonzero;"/>
            </g>
        </g>
        <g transform="matrix(16.6667,0,0,16.6667,0,0)">
            <g transform="matrix(1,0,0,1,-22.4938,-50.0862)">
                <path d="M195.617,137.498L195.617,127.706C195.617,127.547 195.488,127.418 195.329,127.418C195.17,127.418 195.041,127.547 195.041,127.706L195.041,137.498C195.041,137.657 195.17,137.786 195.329,137.786C195.488,137.786 195.617,137.657 195.617,137.498Z"/>
            </g>
        </g>
        <g transform="matrix(16.6667,0,0,16.6667,0,0)">
            <g transform="matrix(1,0,0,1,-22.4938,-50.0862)">
                <circle cx="193.889" cy="137.354" r="1.44" style="fill-opacity:0;"/>
            </g>
        </g>
        <g transform="matrix(16.6667,0,0,16.6667,0,0)">
            <g transform="matrix(1,0,0,1,-22.4938,-50.0862)">
                <path d="M193.889,135.626C192.935,135.626 192.161,136.401 192.161,137.354C192.161,138.308 192.935,139.082 193.889,139.082C194.843,139.082 195.617,138.308 195.617,137.354C195.617,136.401 194.843,135.626 193.889,135.626ZM193.889,136.202C194.525,136.202 195.041,136.719 195.041,137.354C195.041,137.99 194.525,138.506 193.889,138.506C193.253,138.506 192.737,137.99 192.737,137.354C192.737,136.719 193.253,136.202 193.889,136.202Z"/>
            </g>
        </g>
        <g transform="matrix(16.6667,0,0,16.6667,0,0)">
            <g transform="matrix(1,0,0,1,-22.4938,-50.0862)">
                <circle cx="207.72" cy="132.12" r="0.805" style="fill-opacity:0;"/>
            </g>
        </g>
        <g transform="matrix(16.6667,0,0,16.6667,0,0)">
            <g transform="matrix(1,0,0,1,-22.4938,-50.0862)">
                <path d="M207.72,131.027C207.117,131.027 206.627,131.517 206.627,132.12C206.627,132.723 207.117,133.213 207.72,133.213C208.323,133.213 208.813,132.723 208.813,132.12C208.813,131.517 208.323,131.027 207.72,131.027ZM207.72,131.603C208.005,131.603 208.237,131.835 208.237,132.12C208.237,132.405 208.005,132.637 207.72,132.637C207.435,132.637 207.203,132.405 207.203,132.12C207.203,131.835 207.435,131.603 207.72,131.603Z"/>
            </g>
        </g>
        <g transform="matrix(16.6667,0,0,16.6667,0,0)">
            <g transform="matrix(1,0,0,1,-22.4938,-50.0862)">
                <path d="M205.56,129.96L205.92,127.8" style="fill:none;fill-rule:nonzero;"/>
            </g>
        </g>
        <g transform="matrix(16.6667,0,0,16.6667,0,0)">
            <g transform="matrix(1,0,0,1,-22.4938,-50.0862)">
                <path d="M205.844,130.007L206.204,127.847C206.23,127.691 206.124,127.542 205.967,127.516C205.811,127.49 205.662,127.596 205.636,127.753L205.276,129.913C205.25,130.069 205.356,130.218 205.513,130.244C205.669,130.27 205.818,130.164 205.844,130.007Z"/>
            </g>
        </g>
        <g transform="matrix(16.6667,0,0,16.6667,0,0)">
            <g transform="matrix(1,0,0,1,-22.4938,-50.0862)">
                <path d="M199.08,120.6L205.92,127.8" style="fill:none;fill-rule:nonzero;"/>
            </g>
        </g>
        <g transform="matrix(16.6667,0,0,16.6667,0,0)">
            <g transform="matrix(1,0,0,1,-22.4938,-50.0862)">
                <path d="M198.871,120.798L205.711,127.998C205.821,128.114 206.003,128.118 206.118,128.009C206.234,127.899 206.238,127.717 206.129,127.602L199.289,120.402C199.179,120.286 198.997,120.282 198.882,120.391C198.766,120.501 198.762,120.683 198.871,120.798Z"/>
            </g>
        </g>
        <g transform="matrix(16.6667,0,0,16.6667,0,0)">
            <g transform="matrix(1,0,0,1,-22.4938,-50.0862)">
                <path d="M205.56,129.96L207,131.4" style="fill:none;fill-rule:nonzero;"/>
            </g>
        </g>
        <g transform="matrix(16.6667,0,0,16.6667,0,0)">
            <g transform="matrix(1,0,0,1,-22.4938,-50.0862)">
                <path d="M205.356,130.164L206.796,131.604C206.909,131.716 207.091,131.716 207.204,131.604C207.316,131.491 207.316,131.309 207.204,131.196L205.764,129.756C205.651,129.644 205.469,129.644 205.356,129.756C205.244,129.869 205.244,130.051 205.356,130.164Z"/>
            </g>
        </g>
        <g transform="matrix(16.6667,0,0,16.6667,0,0)">
            <g transform="matrix(1,0,0,1,-22.4938,-50.0862)">
                <path d="M203.4,129.96L205.56,129.96" style="fill:none;fill-rule:nonzero;"/>
            </g>
        </g>
        <g transform="matrix(16.6667,0,0,16.6667,0,0)">
            <g transform="matrix(1,0,0,1,-22.4938,-50.0862)">
                <path d="M203.4,130.248L205.56,130.248C205.719,130.248 205.848,130.119 205.848,129.96C205.848,129.801 205.719,129.672 205.56,129.672L203.4,129.672C203.241,129.672 203.112,129.801 203.112,129.96C203.112,130.119 203.241,130.248 203.4,130.248Z"/>
            </g>
        </g>
        <g transform="matrix(16.6667,0,0,16.6667,0,0)">
            <g transform="matrix(1,0,0,1,-22.4938,-50.0862)">
                <path d="M196.56,122.76L203.4,129.96" style="fill:none;fill-rule:nonzero;"/>
            </g>
        </g>
        <g transform="matrix(16.6667,0,0,16.6667,0,0)">
            <g transform="matrix(1,0,0,1,-22.4938,-50.0862)">
                <path d="M196.351,122.958L203.191,130.158C203.301,130.274 203.483,130.278 203.598,130.169C203.714,130.059 203.718,129.877 203.609,129.762L196.769,122.562C196.659,122.446 196.477,122.442 196.362,122.551C196.246,122.661 196.242,122.843 196.351,122.958Z"/>
            </g>
        </g>
        <g transform="matrix(16.6667,0,0,16.6667,0,0)">
            <g transform="matrix(1,0,0,1,-22.4938,-50.0862)">
                <path d="M186.84,121.68L184.824,120.168" style="fill:none;fill-rule:nonzero;"/>
            </g>
        </g>
        <g transform="matrix(16.6667,0,0,16.6667,0,0)">
            <g transform="matrix(1,0,0,1,-22.4938,-50.0862)">
                <path d="M186.942,121.544L184.926,120.032C184.851,119.976 184.744,119.991 184.688,120.066C184.632,120.141 184.647,120.248 184.722,120.304L186.738,121.816C186.813,121.872 186.92,121.857 186.976,121.782C187.032,121.707 187.017,121.6 186.942,121.544Z"/>
            </g>
        </g>
        <g transform="matrix(16.6667,0,0,16.6667,0,0)">
            <g transform="matrix(1,0,0,1,-22.4938,-50.0862)">
                <circle cx="198.72" cy="129.96" r="14.4" style="fill-opacity:0;"/>
            </g>
        </g>
        <g transform="matrix(16.6667,0,0,16.6667,0,0)">
            <g transform="matrix(1,0,0,1,-22.4938,-50.0862)">
                <path d="M198.72,115.39C190.679,115.39 184.15,121.919 184.15,129.96C184.15,138.001 190.679,144.53 198.72,144.53C206.761,144.53 213.29,138.001 213.29,129.96C213.29,121.919 206.761,115.39 198.72,115.39ZM198.72,115.73C206.574,115.73 212.95,122.106 212.95,129.96C212.95,137.814 206.574,144.19 198.72,144.19C190.866,144.19 184.49,137.814 184.49,129.96C184.49,122.106 190.866,115.73 198.72,115.73Z"/>
            </g>
        </g>
    </g>
</svg>
