<?xml version="1.0" encoding="UTF-8" standalone="no"?>
<!DOCTYPE svg PUBLIC "-//W3C//DTD SVG 1.1//EN" "http://www.w3.org/Graphics/SVG/1.1/DTD/svg11.dtd">
<svg width="100%" height="100%" viewBox="0 0 486 486" version="1.1" xmlns="http://www.w3.org/2000/svg" xmlns:xlink="http://www.w3.org/1999/xlink" xml:space="preserve" xmlns:serif="http://www.serif.com/" style="fill-rule:evenodd;clip-rule:evenodd;stroke-linejoin:round;stroke-miterlimit:2;">
    <g transform="matrix(1,0,0,1,-3270.27,-1088.4)">
        <g transform="matrix(16.6667,0,0,16.6667,0,0)">
            <g transform="matrix(1,0,0,1,-22.4938,-50.0862)">
                <path d="M235.08,130.68L237.96,130.68" style="fill:none;fill-rule:nonzero;"/>
            </g>
        </g>
        <g transform="matrix(16.6667,0,0,16.6667,0,0)">
            <g transform="matrix(1,0,0,1,-22.4938,-50.0862)">
                <path d="M235.08,130.968L237.96,130.968C238.119,130.968 238.248,130.839 238.248,130.68C238.248,130.521 238.119,130.392 237.96,130.392L235.08,130.392C234.921,130.392 234.792,130.521 234.792,130.68C234.792,130.839 234.921,130.968 235.08,130.968Z"/>
            </g>
        </g>
        <g transform="matrix(16.6667,0,0,16.6667,0,0)">
            <g transform="matrix(1,0,0,1,-22.4938,-50.0862)">
                <path d="M237.96,130.68L237.96,124.2" style="fill:none;fill-rule:nonzero;"/>
            </g>
        </g>
        <g transform="matrix(16.6667,0,0,16.6667,0,0)">
            <g transform="matrix(1,0,0,1,-22.4938,-50.0862)">
                <path d="M238.248,130.68L238.248,124.2C238.248,124.041 238.119,123.912 237.96,123.912C237.801,123.912 237.672,124.041 237.672,124.2L237.672,130.68C237.672,130.839 237.801,130.968 237.96,130.968C238.119,130.968 238.248,130.839 238.248,130.68Z"/>
            </g>
        </g>
        <g transform="matrix(16.6667,0,0,16.6667,0,0)">
            <g transform="matrix(1,0,0,1,-22.4938,-50.0862)">
                <path d="M235.08,124.2L235.08,130.68" style="fill:none;fill-rule:nonzero;"/>
            </g>
        </g>
        <g transform="matrix(16.6667,0,0,16.6667,0,0)">
            <g transform="matrix(1,0,0,1,-22.4938,-50.0862)">
                <path d="M234.792,124.2L234.792,130.68C234.792,130.839 234.921,130.968 235.08,130.968C235.239,130.968 235.368,130.839 235.368,130.68L235.368,124.2C235.368,124.041 235.239,123.912 235.08,123.912C234.921,123.912 234.792,124.041 234.792,124.2Z"/>
            </g>
        </g>
        <g transform="matrix(16.6667,0,0,16.6667,0,0)">
            <g transform="matrix(1,0,0,1,-22.4938,-50.0862)">
                <path d="M231.48,130.68L231.48,124.2" style="fill:none;fill-rule:nonzero;"/>
            </g>
        </g>
        <g transform="matrix(16.6667,0,0,16.6667,0,0)">
            <g transform="matrix(1,0,0,1,-22.4938,-50.0862)">
                <path d="M231.768,130.68L231.768,124.2C231.768,124.041 231.639,123.912 231.48,123.912C231.321,123.912 231.192,124.041 231.192,124.2L231.192,130.68C231.192,130.839 231.321,130.968 231.48,130.968C231.639,130.968 231.768,130.839 231.768,130.68Z"/>
            </g>
        </g>
        <g transform="matrix(16.6667,0,0,16.6667,0,0)">
            <g transform="matrix(1,0,0,1,-22.4938,-50.0862)">
                <path d="M228.6,130.68L231.48,130.68" style="fill:none;fill-rule:nonzero;"/>
            </g>
        </g>
        <g transform="matrix(16.6667,0,0,16.6667,0,0)">
            <g transform="matrix(1,0,0,1,-22.4938,-50.0862)">
                <path d="M228.6,130.968L231.48,130.968C231.639,130.968 231.768,130.839 231.768,130.68C231.768,130.521 231.639,130.392 231.48,130.392L228.6,130.392C228.441,130.392 228.312,130.521 228.312,130.68C228.312,130.839 228.441,130.968 228.6,130.968Z"/>
            </g>
        </g>
        <g transform="matrix(16.6667,0,0,16.6667,0,0)">
            <g transform="matrix(1,0,0,1,-22.4938,-50.0862)">
                <path d="M228.6,124.2L228.6,130.68" style="fill:none;fill-rule:nonzero;"/>
            </g>
        </g>
        <g transform="matrix(16.6667,0,0,16.6667,0,0)">
            <g transform="matrix(1,0,0,1,-22.4938,-50.0862)">
                <path d="M228.312,124.2L228.312,130.68C228.312,130.839 228.441,130.968 228.6,130.968C228.759,130.968 228.888,130.839 228.888,130.68L228.888,124.2C228.888,124.041 228.759,123.912 228.6,123.912C228.441,123.912 228.312,124.041 228.312,124.2Z"/>
            </g>
        </g>
        <g transform="matrix(16.6667,0,0,16.6667,0,0)">
            <g transform="matrix(1,0,0,1,-22.4938,-50.0862)">
                <path d="M236.52,131.04L236.52,135.36" style="fill:none;fill-rule:nonzero;"/>
            </g>
        </g>
        <g transform="matrix(16.6667,0,0,16.6667,0,0)">
            <g transform="matrix(1,0,0,1,-22.4938,-50.0862)">
                <path d="M236.232,131.04L236.232,135.36C236.232,135.519 236.361,135.648 236.52,135.648C236.679,135.648 236.808,135.519 236.808,135.36L236.808,131.04C236.808,130.881 236.679,130.752 236.52,130.752C236.361,130.752 236.232,130.881 236.232,131.04Z"/>
            </g>
        </g>
        <g transform="matrix(16.6667,0,0,16.6667,0,0)">
            <g transform="matrix(1,0,0,1,-22.4938,-50.0862)">
                <path d="M230.04,131.04L230.04,135.36" style="fill:none;fill-rule:nonzero;"/>
            </g>
        </g>
        <g transform="matrix(16.6667,0,0,16.6667,0,0)">
            <g transform="matrix(1,0,0,1,-22.4938,-50.0862)">
                <path d="M229.752,131.04L229.752,135.36C229.752,135.519 229.881,135.648 230.04,135.648C230.199,135.648 230.328,135.519 230.328,135.36L230.328,131.04C230.328,130.881 230.199,130.752 230.04,130.752C229.881,130.752 229.752,130.881 229.752,131.04Z"/>
            </g>
        </g>
        <g transform="matrix(16.6667,0,0,16.6667,0,0)">
            <g transform="matrix(1,0,0,1,-22.4938,-50.0862)">
                <path d="M224.28,135.36L224.28,124.2" style="fill:none;fill-rule:nonzero;"/>
            </g>
        </g>
        <g transform="matrix(16.6667,0,0,16.6667,0,0)">
            <g transform="matrix(1,0,0,1,-22.4938,-50.0862)">
                <path d="M224.568,135.36L224.568,124.2C224.568,124.041 224.439,123.912 224.28,123.912C224.121,123.912 223.992,124.041 223.992,124.2L223.992,135.36C223.992,135.519 224.121,135.648 224.28,135.648C224.439,135.648 224.568,135.519 224.568,135.36Z"/>
            </g>
        </g>
        <g transform="matrix(16.6667,0,0,16.6667,0,0)">
            <g transform="matrix(1,0,0,1,-22.4938,-50.0862)">
                <path d="M242.28,135.36L224.28,135.36" style="fill:none;fill-rule:nonzero;"/>
            </g>
        </g>
        <g transform="matrix(16.6667,0,0,16.6667,0,0)">
            <g transform="matrix(1,0,0,1,-22.4938,-50.0862)">
                <path d="M242.28,135.072L224.28,135.072C224.121,135.072 223.992,135.201 223.992,135.36C223.992,135.519 224.121,135.648 224.28,135.648L242.28,135.648C242.439,135.648 242.568,135.519 242.568,135.36C242.568,135.201 242.439,135.072 242.28,135.072Z"/>
            </g>
        </g>
        <g transform="matrix(16.6667,0,0,16.6667,0,0)">
            <g transform="matrix(1,0,0,1,-22.4938,-50.0862)">
                <path d="M242.28,124.2L242.28,135.36" style="fill:none;fill-rule:nonzero;"/>
            </g>
        </g>
        <g transform="matrix(16.6667,0,0,16.6667,0,0)">
            <g transform="matrix(1,0,0,1,-22.4938,-50.0862)">
                <path d="M241.992,124.2L241.992,135.36C241.992,135.519 242.121,135.648 242.28,135.648C242.439,135.648 242.568,135.519 242.568,135.36L242.568,124.2C242.568,124.041 242.439,123.912 242.28,123.912C242.121,123.912 241.992,124.041 241.992,124.2Z"/>
            </g>
        </g>
        <g transform="matrix(16.6667,0,0,16.6667,0,0)">
            <g transform="matrix(1,0,0,1,-22.4938,-50.0862)">
                <path d="M224.28,124.2L242.28,124.2" style="fill:none;fill-rule:nonzero;"/>
            </g>
        </g>
        <g transform="matrix(16.6667,0,0,16.6667,0,0)">
            <g transform="matrix(1,0,0,1,-22.4938,-50.0862)">
                <path d="M224.28,124.488L242.28,124.488C242.439,124.488 242.568,124.359 242.568,124.2C242.568,124.041 242.439,123.912 242.28,123.912L224.28,123.912C224.121,123.912 223.992,124.041 223.992,124.2C223.992,124.359 224.121,124.488 224.28,124.488Z"/>
            </g>
        </g>
        <g transform="matrix(16.6667,0,0,16.6667,0,0)">
            <g transform="matrix(1,0,0,1,-22.4938,-50.0862)">
                <path d="M221.4,121.68L219.384,120.168" style="fill:none;fill-rule:nonzero;"/>
            </g>
        </g>
        <g transform="matrix(16.6667,0,0,16.6667,0,0)">
            <g transform="matrix(1,0,0,1,-22.4938,-50.0862)">
                <path d="M221.502,121.544L219.486,120.032C219.411,119.976 219.304,119.991 219.248,120.066C219.192,120.141 219.207,120.248 219.282,120.304L221.298,121.816C221.373,121.872 221.48,121.857 221.536,121.782C221.592,121.707 221.577,121.6 221.502,121.544Z"/>
            </g>
        </g>
        <g transform="matrix(16.6667,0,0,16.6667,0,0)">
            <g transform="matrix(1,0,0,1,-22.4938,-50.0862)">
                <circle cx="233.28" cy="129.96" r="14.4" style="fill-opacity:0;"/>
            </g>
        </g>
        <g transform="matrix(16.6667,0,0,16.6667,0,0)">
            <g transform="matrix(1,0,0,1,-22.4938,-50.0862)">
                <path d="M233.28,115.39C225.239,115.39 218.71,121.919 218.71,129.96C218.71,138.001 225.239,144.53 233.28,144.53C241.321,144.53 247.85,138.001 247.85,129.96C247.85,121.919 241.321,115.39 233.28,115.39ZM233.28,115.73C241.134,115.73 247.51,122.106 247.51,129.96C247.51,137.814 241.134,144.19 233.28,144.19C225.426,144.19 219.05,137.814 219.05,129.96C219.05,122.106 225.426,115.73 233.28,115.73Z"/>
            </g>
        </g>
    </g>
</svg>
