<?xml version="1.0" encoding="UTF-8" standalone="no"?>
<!DOCTYPE svg PUBLIC "-//W3C//DTD SVG 1.1//EN" "http://www.w3.org/Graphics/SVG/1.1/DTD/svg11.dtd">
<svg width="100%" height="100%" viewBox="0 0 486 486" version="1.1" xmlns="http://www.w3.org/2000/svg" xmlns:xlink="http://www.w3.org/1999/xlink" xml:space="preserve" xmlns:serif="http://www.serif.com/" style="fill-rule:evenodd;clip-rule:evenodd;stroke-linejoin:round;stroke-miterlimit:2;">
    <g transform="matrix(1,0,0,1,-3846.27,-1088.4)">
        <g transform="matrix(16.6667,0,0,16.6667,0,0)">
            <g transform="matrix(1,0,0,1,-22.4938,-50.0862)">
                <path d="M260.28,136.44L262.44,134.28" style="fill:none;fill-rule:nonzero;"/>
            </g>
        </g>
        <g transform="matrix(16.6667,0,0,16.6667,0,0)">
            <g transform="matrix(1,0,0,1,-22.4938,-50.0862)">
                <path d="M260.484,136.644L262.644,134.484C262.756,134.371 262.756,134.189 262.644,134.076C262.531,133.964 262.349,133.964 262.236,134.076L260.076,136.236C259.964,136.349 259.964,136.531 260.076,136.644C260.189,136.756 260.371,136.756 260.484,136.644Z"/>
            </g>
        </g>
        <g transform="matrix(16.6667,0,0,16.6667,0,0)">
            <g transform="matrix(1,0,0,1,-22.4938,-50.0862)">
                <path d="M260.28,136.44L261.36,133.2" style="fill:none;fill-rule:nonzero;"/>
            </g>
        </g>
        <g transform="matrix(16.6667,0,0,16.6667,0,0)">
            <g transform="matrix(1,0,0,1,-22.4938,-50.0862)">
                <path d="M260.553,136.531L261.633,133.291C261.683,133.14 261.602,132.977 261.451,132.927C261.3,132.877 261.137,132.958 261.087,133.109L260.007,136.349C259.957,136.5 260.038,136.663 260.189,136.713C260.34,136.763 260.503,136.682 260.553,136.531Z"/>
            </g>
        </g>
        <g transform="matrix(16.6667,0,0,16.6667,0,0)">
            <g transform="matrix(1,0,0,1,-22.4938,-50.0862)">
                <path d="M260.28,132.48L260.28,136.44" style="fill:none;fill-rule:nonzero;"/>
            </g>
        </g>
        <g transform="matrix(16.6667,0,0,16.6667,0,0)">
            <g transform="matrix(1,0,0,1,-22.4938,-50.0862)">
                <path d="M259.992,132.48L259.992,136.44C259.992,136.599 260.121,136.728 260.28,136.728C260.439,136.728 260.568,136.599 260.568,136.44L260.568,132.48C260.568,132.321 260.439,132.192 260.28,132.192C260.121,132.192 259.992,132.321 259.992,132.48Z"/>
            </g>
        </g>
        <g transform="matrix(16.6667,0,0,16.6667,0,0)">
            <g transform="matrix(1,0,0,1,-22.4938,-50.0862)">
                <path d="M276.84,123.12L260.28,132.48" style="fill:none;fill-rule:nonzero;"/>
            </g>
        </g>
        <g transform="matrix(16.6667,0,0,16.6667,0,0)">
            <g transform="matrix(1,0,0,1,-22.4938,-50.0862)">
                <path d="M276.698,122.869L260.138,132.229C260,132.307 259.951,132.483 260.029,132.622C260.107,132.76 260.283,132.809 260.422,132.731L276.982,123.371C277.12,123.293 277.169,123.117 277.091,122.978C277.013,122.84 276.837,122.791 276.698,122.869Z"/>
            </g>
        </g>
        <g transform="matrix(16.6667,0,0,16.6667,0,0)">
            <g transform="matrix(1,0,0,1,-22.4938,-50.0862)">
                <path d="M261.36,133.2L276.84,123.12" style="fill:none;fill-rule:nonzero;"/>
            </g>
        </g>
        <g transform="matrix(16.6667,0,0,16.6667,0,0)">
            <g transform="matrix(1,0,0,1,-22.4938,-50.0862)">
                <path d="M261.517,133.441L276.997,123.361C277.13,123.275 277.168,123.096 277.081,122.963C276.995,122.83 276.816,122.792 276.683,122.879L261.203,132.959C261.07,133.045 261.032,133.224 261.119,133.357C261.205,133.49 261.384,133.528 261.517,133.441Z"/>
            </g>
        </g>
        <g transform="matrix(16.6667,0,0,16.6667,0,0)">
            <g transform="matrix(1,0,0,1,-22.4938,-50.0862)">
                <path d="M266.4,138.24L276.84,123.12" style="fill:none;fill-rule:nonzero;"/>
            </g>
        </g>
        <g transform="matrix(16.6667,0,0,16.6667,0,0)">
            <g transform="matrix(1,0,0,1,-22.4938,-50.0862)">
                <path d="M266.637,138.404L277.077,123.284C277.167,123.153 277.134,122.973 277.004,122.883C276.873,122.793 276.693,122.826 276.603,122.956L266.163,138.076C266.073,138.207 266.106,138.387 266.236,138.477C266.367,138.567 266.547,138.534 266.637,138.404Z"/>
            </g>
        </g>
        <g transform="matrix(16.6667,0,0,16.6667,0,0)">
            <g transform="matrix(1,0,0,1,-22.4938,-50.0862)">
                <path d="M261.36,133.2L266.4,138.24" style="fill:none;fill-rule:nonzero;"/>
            </g>
        </g>
        <g transform="matrix(16.6667,0,0,16.6667,0,0)">
            <g transform="matrix(1,0,0,1,-22.4938,-50.0862)">
                <path d="M261.156,133.404L266.196,138.444C266.309,138.556 266.491,138.556 266.604,138.444C266.716,138.331 266.716,138.149 266.604,138.036L261.564,132.996C261.451,132.884 261.269,132.884 261.156,132.996C261.044,133.109 261.044,133.291 261.156,133.404Z"/>
            </g>
        </g>
        <g transform="matrix(16.6667,0,0,16.6667,0,0)">
            <g transform="matrix(1,0,0,1,-22.4938,-50.0862)">
                <path d="M255.6,127.8L260.28,132.48" style="fill:none;fill-rule:nonzero;"/>
            </g>
        </g>
        <g transform="matrix(16.6667,0,0,16.6667,0,0)">
            <g transform="matrix(1,0,0,1,-22.4938,-50.0862)">
                <path d="M255.396,128.004L260.076,132.684C260.189,132.796 260.371,132.796 260.484,132.684C260.596,132.571 260.596,132.389 260.484,132.276L255.804,127.596C255.691,127.484 255.509,127.484 255.396,127.596C255.284,127.709 255.284,127.891 255.396,128.004Z"/>
            </g>
        </g>
        <g transform="matrix(16.6667,0,0,16.6667,0,0)">
            <g transform="matrix(1,0,0,1,-22.4938,-50.0862)">
                <path d="M276.84,123.12L255.6,127.8" style="fill:none;fill-rule:nonzero;"/>
            </g>
        </g>
        <g transform="matrix(16.6667,0,0,16.6667,0,0)">
            <g transform="matrix(1,0,0,1,-22.4938,-50.0862)">
                <path d="M276.778,122.839L255.538,127.519C255.383,127.553 255.285,127.707 255.319,127.862C255.353,128.017 255.507,128.115 255.662,128.081L276.902,123.401C277.057,123.367 277.155,123.213 277.121,123.058C277.087,122.903 276.933,122.805 276.778,122.839Z"/>
            </g>
        </g>
        <g transform="matrix(16.6667,0,0,16.6667,0,0)">
            <g transform="matrix(1,0,0,1,-22.4938,-50.0862)">
                <path d="M255.96,121.68L253.944,120.168" style="fill:none;fill-rule:nonzero;"/>
            </g>
        </g>
        <g transform="matrix(16.6667,0,0,16.6667,0,0)">
            <g transform="matrix(1,0,0,1,-22.4938,-50.0862)">
                <path d="M256.062,121.544L254.046,120.032C253.971,119.976 253.864,119.991 253.808,120.066C253.752,120.141 253.767,120.248 253.842,120.304L255.858,121.816C255.933,121.872 256.04,121.857 256.096,121.782C256.152,121.707 256.137,121.6 256.062,121.544Z"/>
            </g>
        </g>
        <g transform="matrix(16.6667,0,0,16.6667,0,0)">
            <g transform="matrix(1,0,0,1,-22.4938,-50.0862)">
                <circle cx="267.84" cy="129.96" r="14.4" style="fill-opacity:0;"/>
            </g>
        </g>
        <g transform="matrix(16.6667,0,0,16.6667,0,0)">
            <g transform="matrix(1,0,0,1,-22.4938,-50.0862)">
                <path d="M267.84,115.39C259.799,115.39 253.27,121.919 253.27,129.96C253.27,138.001 259.799,144.53 267.84,144.53C275.881,144.53 282.41,138.001 282.41,129.96C282.41,121.919 275.881,115.39 267.84,115.39ZM267.84,115.73C275.694,115.73 282.07,122.106 282.07,129.96C282.07,137.814 275.694,144.19 267.84,144.19C259.986,144.19 253.61,137.814 253.61,129.96C253.61,122.106 259.986,115.73 267.84,115.73Z"/>
            </g>
        </g>
    </g>
</svg>
