<?xml version="1.0" encoding="UTF-8" standalone="no"?>
<!DOCTYPE svg PUBLIC "-//W3C//DTD SVG 1.1//EN" "http://www.w3.org/Graphics/SVG/1.1/DTD/svg11.dtd">
<svg width="100%" height="100%" viewBox="0 0 486 486" version="1.1" xmlns="http://www.w3.org/2000/svg" xmlns:xlink="http://www.w3.org/1999/xlink" xml:space="preserve" xmlns:serif="http://www.serif.com/" style="fill-rule:evenodd;clip-rule:evenodd;stroke-linejoin:round;stroke-miterlimit:2;">
    <g transform="matrix(1,0,0,1,-4422.27,-1088.4)">
        <g transform="matrix(16.6667,0,0,16.6667,0,0)">
            <g transform="matrix(1,0,0,1,-22.4938,-50.0862)">
                <path d="M301.68,121.32L297.36,121.32" style="fill:none;fill-rule:nonzero;"/>
            </g>
        </g>
        <g transform="matrix(16.6667,0,0,16.6667,0,0)">
            <g transform="matrix(1,0,0,1,-22.4938,-50.0862)">
                <path d="M301.68,121.032L297.36,121.032C297.201,121.032 297.072,121.161 297.072,121.32C297.072,121.479 297.201,121.608 297.36,121.608L301.68,121.608C301.839,121.608 301.968,121.479 301.968,121.32C301.968,121.161 301.839,121.032 301.68,121.032Z"/>
            </g>
        </g>
        <g transform="matrix(16.6667,0,0,16.6667,0,0)">
            <g transform="matrix(1,0,0,1,-22.4938,-50.0862)">
                <path d="M301.68,121.32L306,121.32" style="fill:none;fill-rule:nonzero;"/>
            </g>
        </g>
        <g transform="matrix(16.6667,0,0,16.6667,0,0)">
            <g transform="matrix(1,0,0,1,-22.4938,-50.0862)">
                <path d="M301.68,121.608L306,121.608C306.159,121.608 306.288,121.479 306.288,121.32C306.288,121.161 306.159,121.032 306,121.032L301.68,121.032C301.521,121.032 301.392,121.161 301.392,121.32C301.392,121.479 301.521,121.608 301.68,121.608Z"/>
            </g>
        </g>
        <g transform="matrix(16.6667,0,0,16.6667,0,0)">
            <g transform="matrix(1,0,0,1,-22.4938,-50.0862)">
                <path d="M301.68,137.52L306,133.2" style="fill:none;fill-rule:nonzero;"/>
            </g>
        </g>
        <g transform="matrix(16.6667,0,0,16.6667,0,0)">
            <g transform="matrix(1,0,0,1,-22.4938,-50.0862)">
                <path d="M301.884,137.724L306.204,133.404C306.316,133.291 306.316,133.109 306.204,132.996C306.091,132.884 305.909,132.884 305.796,132.996L301.476,137.316C301.364,137.429 301.364,137.611 301.476,137.724C301.589,137.836 301.771,137.836 301.884,137.724Z"/>
            </g>
        </g>
        <g transform="matrix(16.6667,0,0,16.6667,0,0)">
            <g transform="matrix(1,0,0,1,-22.4938,-50.0862)">
                <path d="M298.08,133.92L297.36,133.2" style="fill:none;fill-rule:nonzero;"/>
            </g>
        </g>
        <g transform="matrix(16.6667,0,0,16.6667,0,0)">
            <g transform="matrix(1,0,0,1,-22.4938,-50.0862)">
                <path d="M298.284,133.716L297.564,132.996C297.451,132.884 297.269,132.884 297.156,132.996C297.044,133.109 297.044,133.291 297.156,133.404L297.876,134.124C297.989,134.236 298.171,134.236 298.284,134.124C298.396,134.011 298.396,133.829 298.284,133.716Z"/>
            </g>
        </g>
        <g transform="matrix(16.6667,0,0,16.6667,0,0)">
            <g transform="matrix(1,0,0,1,-22.4938,-50.0862)">
                <path d="M301.68,137.52L298.08,133.92" style="fill:none;fill-rule:nonzero;"/>
            </g>
        </g>
        <g transform="matrix(16.6667,0,0,16.6667,0,0)">
            <g transform="matrix(1,0,0,1,-22.4938,-50.0862)">
                <path d="M301.884,137.316L298.284,133.716C298.171,133.604 297.989,133.604 297.876,133.716C297.764,133.829 297.764,134.011 297.876,134.124L301.476,137.724C301.589,137.836 301.771,137.836 301.884,137.724C301.996,137.611 301.996,137.429 301.884,137.316Z"/>
            </g>
        </g>
        <g transform="matrix(16.6667,0,0,16.6667,0,0)">
            <g transform="matrix(1,0,0,1,-22.4938,-50.0862)">
                <path d="M301.68,137.52L301.68,122.4" style="fill:none;fill-rule:nonzero;"/>
            </g>
        </g>
        <g transform="matrix(16.6667,0,0,16.6667,0,0)">
            <g transform="matrix(1,0,0,1,-22.4938,-50.0862)">
                <path d="M301.968,137.52L301.968,122.4C301.968,122.241 301.839,122.112 301.68,122.112C301.521,122.112 301.392,122.241 301.392,122.4L301.392,137.52C301.392,137.679 301.521,137.808 301.68,137.808C301.839,137.808 301.968,137.679 301.968,137.52Z"/>
            </g>
        </g>
        <g transform="matrix(16.6667,0,0,16.6667,0,0)">
            <g transform="matrix(1,0,0,1,-22.4938,-50.0862)">
                <path d="M301.68,138.6L306,138.6" style="fill:none;fill-rule:nonzero;"/>
            </g>
        </g>
        <g transform="matrix(16.6667,0,0,16.6667,0,0)">
            <g transform="matrix(1,0,0,1,-22.4938,-50.0862)">
                <path d="M301.68,138.888L306,138.888C306.159,138.888 306.288,138.759 306.288,138.6C306.288,138.441 306.159,138.312 306,138.312L301.68,138.312C301.521,138.312 301.392,138.441 301.392,138.6C301.392,138.759 301.521,138.888 301.68,138.888Z"/>
            </g>
        </g>
        <g transform="matrix(16.6667,0,0,16.6667,0,0)">
            <g transform="matrix(1,0,0,1,-22.4938,-50.0862)">
                <path d="M305.28,126L306,126.72" style="fill:none;fill-rule:nonzero;"/>
            </g>
        </g>
        <g transform="matrix(16.6667,0,0,16.6667,0,0)">
            <g transform="matrix(1,0,0,1,-22.4938,-50.0862)">
                <path d="M305.076,126.204L305.796,126.924C305.909,127.036 306.091,127.036 306.204,126.924C306.316,126.811 306.316,126.629 306.204,126.516L305.484,125.796C305.371,125.684 305.189,125.684 305.076,125.796C304.964,125.909 304.964,126.091 305.076,126.204Z"/>
            </g>
        </g>
        <g transform="matrix(16.6667,0,0,16.6667,0,0)">
            <g transform="matrix(1,0,0,1,-22.4938,-50.0862)">
                <path d="M301.68,138.6L297.36,138.6" style="fill:none;fill-rule:nonzero;"/>
            </g>
        </g>
        <g transform="matrix(16.6667,0,0,16.6667,0,0)">
            <g transform="matrix(1,0,0,1,-22.4938,-50.0862)">
                <path d="M301.68,138.312L297.36,138.312C297.201,138.312 297.072,138.441 297.072,138.6C297.072,138.759 297.201,138.888 297.36,138.888L301.68,138.888C301.839,138.888 301.968,138.759 301.968,138.6C301.968,138.441 301.839,138.312 301.68,138.312Z"/>
            </g>
        </g>
        <g transform="matrix(16.6667,0,0,16.6667,0,0)">
            <g transform="matrix(1,0,0,1,-22.4938,-50.0862)">
                <path d="M301.68,122.4L297.36,126.72" style="fill:none;fill-rule:nonzero;"/>
            </g>
        </g>
        <g transform="matrix(16.6667,0,0,16.6667,0,0)">
            <g transform="matrix(1,0,0,1,-22.4938,-50.0862)">
                <path d="M301.476,122.196L297.156,126.516C297.044,126.629 297.044,126.811 297.156,126.924C297.269,127.036 297.451,127.036 297.564,126.924L301.884,122.604C301.996,122.491 301.996,122.309 301.884,122.196C301.771,122.084 301.589,122.084 301.476,122.196Z"/>
            </g>
        </g>
        <g transform="matrix(16.6667,0,0,16.6667,0,0)">
            <g transform="matrix(1,0,0,1,-22.4938,-50.0862)">
                <path d="M301.68,122.4L305.28,126" style="fill:none;fill-rule:nonzero;"/>
            </g>
        </g>
        <g transform="matrix(16.6667,0,0,16.6667,0,0)">
            <g transform="matrix(1,0,0,1,-22.4938,-50.0862)">
                <path d="M301.476,122.604L305.076,126.204C305.189,126.316 305.371,126.316 305.484,126.204C305.596,126.091 305.596,125.909 305.484,125.796L301.884,122.196C301.771,122.084 301.589,122.084 301.476,122.196C301.364,122.309 301.364,122.491 301.476,122.604Z"/>
            </g>
        </g>
        <g transform="matrix(16.6667,0,0,16.6667,0,0)">
            <g transform="matrix(1,0,0,1,-22.4938,-50.0862)">
                <path d="M290.52,121.68L288.504,120.168" style="fill:none;fill-rule:nonzero;"/>
            </g>
        </g>
        <g transform="matrix(16.6667,0,0,16.6667,0,0)">
            <g transform="matrix(1,0,0,1,-22.4938,-50.0862)">
                <path d="M290.622,121.544L288.606,120.032C288.531,119.976 288.424,119.991 288.368,120.066C288.312,120.141 288.327,120.248 288.402,120.304L290.418,121.816C290.493,121.872 290.6,121.857 290.656,121.782C290.712,121.707 290.697,121.6 290.622,121.544Z"/>
            </g>
        </g>
        <g transform="matrix(16.6667,0,0,16.6667,0,0)">
            <g transform="matrix(1,0,0,1,-22.4938,-50.0862)">
                <circle cx="302.4" cy="129.96" r="14.4" style="fill-opacity:0;"/>
            </g>
        </g>
        <g transform="matrix(16.6667,0,0,16.6667,0,0)">
            <g transform="matrix(1,0,0,1,-22.4938,-50.0862)">
                <path d="M302.4,115.39C294.359,115.39 287.83,121.919 287.83,129.96C287.83,138.001 294.359,144.53 302.4,144.53C310.441,144.53 316.97,138.001 316.97,129.96C316.97,121.919 310.441,115.39 302.4,115.39ZM302.4,115.73C310.254,115.73 316.63,122.106 316.63,129.96C316.63,137.814 310.254,144.19 302.4,144.19C294.546,144.19 288.17,137.814 288.17,129.96C288.17,122.106 294.546,115.73 302.4,115.73Z"/>
            </g>
        </g>
    </g>
</svg>
