<?xml version="1.0" encoding="UTF-8" standalone="no"?>
<!DOCTYPE svg PUBLIC "-//W3C//DTD SVG 1.1//EN" "http://www.w3.org/Graphics/SVG/1.1/DTD/svg11.dtd">
<svg width="100%" height="100%" viewBox="0 0 486 486" version="1.1" xmlns="http://www.w3.org/2000/svg" xmlns:xlink="http://www.w3.org/1999/xlink" xml:space="preserve" xmlns:serif="http://www.serif.com/" style="fill-rule:evenodd;clip-rule:evenodd;stroke-linejoin:round;stroke-miterlimit:2;">
    <g transform="matrix(1,0,0,1,-4998.27,-1088.4)">
        <g transform="matrix(16.6667,0,0,16.6667,0,0)">
            <g transform="matrix(1,0,0,1,-22.4938,-50.0862)">
                <path d="M341.676,122.832L341.676,129.312" style="fill:none;fill-rule:nonzero;"/>
            </g>
        </g>
        <g transform="matrix(16.6667,0,0,16.6667,0,0)">
            <g transform="matrix(1,0,0,1,-22.4938,-50.0862)">
                <path d="M341.388,122.832L341.388,129.312C341.388,129.471 341.517,129.6 341.676,129.6C341.835,129.6 341.964,129.471 341.964,129.312L341.964,122.832C341.964,122.673 341.835,122.544 341.676,122.544C341.517,122.544 341.388,122.673 341.388,122.832Z"/>
            </g>
        </g>
        <g transform="matrix(16.6667,0,0,16.6667,0,0)">
            <g transform="matrix(1,0,0,1,-22.4938,-50.0862)">
                <path d="M341.676,130.752L341.676,137.232" style="fill:none;fill-rule:nonzero;"/>
            </g>
        </g>
        <g transform="matrix(16.6667,0,0,16.6667,0,0)">
            <g transform="matrix(1,0,0,1,-22.4938,-50.0862)">
                <path d="M341.388,130.752L341.388,137.232C341.388,137.391 341.517,137.52 341.676,137.52C341.835,137.52 341.964,137.391 341.964,137.232L341.964,130.752C341.964,130.593 341.835,130.464 341.676,130.464C341.517,130.464 341.388,130.593 341.388,130.752Z"/>
            </g>
        </g>
        <g transform="matrix(16.6667,0,0,16.6667,0,0)">
            <g transform="matrix(1,0,0,1,-22.4938,-50.0862)">
                <path d="M335.916,135.072L335.916,137.232" style="fill:none;fill-rule:nonzero;"/>
            </g>
        </g>
        <g transform="matrix(16.6667,0,0,16.6667,0,0)">
            <g transform="matrix(1,0,0,1,-22.4938,-50.0862)">
                <path d="M335.628,135.072L335.628,137.232C335.628,137.391 335.757,137.52 335.916,137.52C336.075,137.52 336.204,137.391 336.204,137.232L336.204,135.072C336.204,134.913 336.075,134.784 335.916,134.784C335.757,134.784 335.628,134.913 335.628,135.072Z"/>
            </g>
        </g>
        <g transform="matrix(16.6667,0,0,16.6667,0,0)">
            <g transform="matrix(1,0,0,1,-22.4938,-50.0862)">
                <path d="M335.916,130.392L335.916,133.632" style="fill:none;fill-rule:nonzero;"/>
            </g>
        </g>
        <g transform="matrix(16.6667,0,0,16.6667,0,0)">
            <g transform="matrix(1,0,0,1,-22.4938,-50.0862)">
                <path d="M335.628,130.392L335.628,133.632C335.628,133.791 335.757,133.92 335.916,133.92C336.075,133.92 336.204,133.791 336.204,133.632L336.204,130.392C336.204,130.233 336.075,130.104 335.916,130.104C335.757,130.104 335.628,130.233 335.628,130.392Z"/>
            </g>
        </g>
        <g transform="matrix(16.6667,0,0,16.6667,0,0)">
            <g transform="matrix(1,0,0,1,-22.4938,-50.0862)">
                <path d="M343.836,130.752L341.676,130.752" style="fill:none;fill-rule:nonzero;"/>
            </g>
        </g>
        <g transform="matrix(16.6667,0,0,16.6667,0,0)">
            <g transform="matrix(1,0,0,1,-22.4938,-50.0862)">
                <path d="M343.836,130.464L341.676,130.464C341.517,130.464 341.388,130.593 341.388,130.752C341.388,130.911 341.517,131.04 341.676,131.04L343.836,131.04C343.995,131.04 344.124,130.911 344.124,130.752C344.124,130.593 343.995,130.464 343.836,130.464Z"/>
            </g>
        </g>
        <g transform="matrix(16.6667,0,0,16.6667,0,0)">
            <g transform="matrix(1,0,0,1,-22.4938,-50.0862)">
                <path d="M343.836,129.312L343.836,130.752" style="fill:none;fill-rule:nonzero;"/>
            </g>
        </g>
        <g transform="matrix(16.6667,0,0,16.6667,0,0)">
            <g transform="matrix(1,0,0,1,-22.4938,-50.0862)">
                <path d="M343.548,129.312L343.548,130.752C343.548,130.911 343.677,131.04 343.836,131.04C343.995,131.04 344.124,130.911 344.124,130.752L344.124,129.312C344.124,129.153 343.995,129.024 343.836,129.024C343.677,129.024 343.548,129.153 343.548,129.312Z"/>
            </g>
        </g>
        <g transform="matrix(16.6667,0,0,16.6667,0,0)">
            <g transform="matrix(1,0,0,1,-22.4938,-50.0862)">
                <path d="M339.516,129.312L343.836,129.312" style="fill:none;fill-rule:nonzero;"/>
            </g>
        </g>
        <g transform="matrix(16.6667,0,0,16.6667,0,0)">
            <g transform="matrix(1,0,0,1,-22.4938,-50.0862)">
                <path d="M339.516,129.6L343.836,129.6C343.995,129.6 344.124,129.471 344.124,129.312C344.124,129.153 343.995,129.024 343.836,129.024L339.516,129.024C339.357,129.024 339.228,129.153 339.228,129.312C339.228,129.471 339.357,129.6 339.516,129.6Z"/>
            </g>
        </g>
        <g transform="matrix(16.6667,0,0,16.6667,0,0)">
            <g transform="matrix(1,0,0,1,-22.4938,-50.0862)">
                <path d="M339.516,130.752L339.516,129.312" style="fill:none;fill-rule:nonzero;"/>
            </g>
        </g>
        <g transform="matrix(16.6667,0,0,16.6667,0,0)">
            <g transform="matrix(1,0,0,1,-22.4938,-50.0862)">
                <path d="M339.804,130.752L339.804,129.312C339.804,129.153 339.675,129.024 339.516,129.024C339.357,129.024 339.228,129.153 339.228,129.312L339.228,130.752C339.228,130.911 339.357,131.04 339.516,131.04C339.675,131.04 339.804,130.911 339.804,130.752Z"/>
            </g>
        </g>
        <g transform="matrix(16.6667,0,0,16.6667,0,0)">
            <g transform="matrix(1,0,0,1,-22.4938,-50.0862)">
                <path d="M341.676,130.752L339.516,130.752" style="fill:none;fill-rule:nonzero;"/>
            </g>
        </g>
        <g transform="matrix(16.6667,0,0,16.6667,0,0)">
            <g transform="matrix(1,0,0,1,-22.4938,-50.0862)">
                <path d="M341.676,130.464L339.516,130.464C339.357,130.464 339.228,130.593 339.228,130.752C339.228,130.911 339.357,131.04 339.516,131.04L341.676,131.04C341.835,131.04 341.964,130.911 341.964,130.752C341.964,130.593 341.835,130.464 341.676,130.464Z"/>
            </g>
        </g>
        <g transform="matrix(16.6667,0,0,16.6667,0,0)">
            <g transform="matrix(1,0,0,1,-22.4938,-50.0862)">
                <path d="M338.076,135.072L335.916,135.072" style="fill:none;fill-rule:nonzero;"/>
            </g>
        </g>
        <g transform="matrix(16.6667,0,0,16.6667,0,0)">
            <g transform="matrix(1,0,0,1,-22.4938,-50.0862)">
                <path d="M338.076,134.784L335.916,134.784C335.757,134.784 335.628,134.913 335.628,135.072C335.628,135.231 335.757,135.36 335.916,135.36L338.076,135.36C338.235,135.36 338.364,135.231 338.364,135.072C338.364,134.913 338.235,134.784 338.076,134.784Z"/>
            </g>
        </g>
        <g transform="matrix(16.6667,0,0,16.6667,0,0)">
            <g transform="matrix(1,0,0,1,-22.4938,-50.0862)">
                <path d="M338.076,133.632L338.076,135.072" style="fill:none;fill-rule:nonzero;"/>
            </g>
        </g>
        <g transform="matrix(16.6667,0,0,16.6667,0,0)">
            <g transform="matrix(1,0,0,1,-22.4938,-50.0862)">
                <path d="M337.788,133.632L337.788,135.072C337.788,135.231 337.917,135.36 338.076,135.36C338.235,135.36 338.364,135.231 338.364,135.072L338.364,133.632C338.364,133.473 338.235,133.344 338.076,133.344C337.917,133.344 337.788,133.473 337.788,133.632Z"/>
            </g>
        </g>
        <g transform="matrix(16.6667,0,0,16.6667,0,0)">
            <g transform="matrix(1,0,0,1,-22.4938,-50.0862)">
                <path d="M333.756,133.632L338.076,133.632" style="fill:none;fill-rule:nonzero;"/>
            </g>
        </g>
        <g transform="matrix(16.6667,0,0,16.6667,0,0)">
            <g transform="matrix(1,0,0,1,-22.4938,-50.0862)">
                <path d="M333.756,133.92L338.076,133.92C338.235,133.92 338.364,133.791 338.364,133.632C338.364,133.473 338.235,133.344 338.076,133.344L333.756,133.344C333.597,133.344 333.468,133.473 333.468,133.632C333.468,133.791 333.597,133.92 333.756,133.92Z"/>
            </g>
        </g>
        <g transform="matrix(16.6667,0,0,16.6667,0,0)">
            <g transform="matrix(1,0,0,1,-22.4938,-50.0862)">
                <path d="M333.756,135.072L333.756,133.632" style="fill:none;fill-rule:nonzero;"/>
            </g>
        </g>
        <g transform="matrix(16.6667,0,0,16.6667,0,0)">
            <g transform="matrix(1,0,0,1,-22.4938,-50.0862)">
                <path d="M334.044,135.072L334.044,133.632C334.044,133.473 333.915,133.344 333.756,133.344C333.597,133.344 333.468,133.473 333.468,133.632L333.468,135.072C333.468,135.231 333.597,135.36 333.756,135.36C333.915,135.36 334.044,135.231 334.044,135.072Z"/>
            </g>
        </g>
        <g transform="matrix(16.6667,0,0,16.6667,0,0)">
            <g transform="matrix(1,0,0,1,-22.4938,-50.0862)">
                <path d="M335.916,135.072L333.756,135.072" style="fill:none;fill-rule:nonzero;"/>
            </g>
        </g>
        <g transform="matrix(16.6667,0,0,16.6667,0,0)">
            <g transform="matrix(1,0,0,1,-22.4938,-50.0862)">
                <path d="M335.916,134.784L333.756,134.784C333.597,134.784 333.468,134.913 333.468,135.072C333.468,135.231 333.597,135.36 333.756,135.36L335.916,135.36C336.075,135.36 336.204,135.231 336.204,135.072C336.204,134.913 336.075,134.784 335.916,134.784Z"/>
            </g>
        </g>
        <g transform="matrix(16.6667,0,0,16.6667,0,0)">
            <g transform="matrix(1,0,0,1,-22.4938,-50.0862)">
                <path d="M330.156,127.152L330.156,137.232" style="fill:none;fill-rule:nonzero;"/>
            </g>
        </g>
        <g transform="matrix(16.6667,0,0,16.6667,0,0)">
            <g transform="matrix(1,0,0,1,-22.4938,-50.0862)">
                <path d="M329.868,127.152L329.868,137.232C329.868,137.391 329.997,137.52 330.156,137.52C330.315,137.52 330.444,137.391 330.444,137.232L330.444,127.152C330.444,126.993 330.315,126.864 330.156,126.864C329.997,126.864 329.868,126.993 329.868,127.152Z"/>
            </g>
        </g>
        <g transform="matrix(16.6667,0,0,16.6667,0,0)">
            <g transform="matrix(1,0,0,1,-22.4938,-50.0862)">
                <path d="M330.156,125.712L330.156,122.832" style="fill:none;fill-rule:nonzero;"/>
            </g>
        </g>
        <g transform="matrix(16.6667,0,0,16.6667,0,0)">
            <g transform="matrix(1,0,0,1,-22.4938,-50.0862)">
                <path d="M330.444,125.712L330.444,122.832C330.444,122.673 330.315,122.544 330.156,122.544C329.997,122.544 329.868,122.673 329.868,122.832L329.868,125.712C329.868,125.871 329.997,126 330.156,126C330.315,126 330.444,125.871 330.444,125.712Z"/>
            </g>
        </g>
        <g transform="matrix(16.6667,0,0,16.6667,0,0)">
            <g transform="matrix(1,0,0,1,-22.4938,-50.0862)">
                <path d="M332.316,127.152L332.316,125.712" style="fill:none;fill-rule:nonzero;"/>
            </g>
        </g>
        <g transform="matrix(16.6667,0,0,16.6667,0,0)">
            <g transform="matrix(1,0,0,1,-22.4938,-50.0862)">
                <path d="M332.604,127.152L332.604,125.712C332.604,125.553 332.475,125.424 332.316,125.424C332.157,125.424 332.028,125.553 332.028,125.712L332.028,127.152C332.028,127.311 332.157,127.44 332.316,127.44C332.475,127.44 332.604,127.311 332.604,127.152Z"/>
            </g>
        </g>
        <g transform="matrix(16.6667,0,0,16.6667,0,0)">
            <g transform="matrix(1,0,0,1,-22.4938,-50.0862)">
                <path d="M327.996,127.152L332.316,127.152" style="fill:none;fill-rule:nonzero;"/>
            </g>
        </g>
        <g transform="matrix(16.6667,0,0,16.6667,0,0)">
            <g transform="matrix(1,0,0,1,-22.4938,-50.0862)">
                <path d="M327.996,127.44L332.316,127.44C332.475,127.44 332.604,127.311 332.604,127.152C332.604,126.993 332.475,126.864 332.316,126.864L327.996,126.864C327.837,126.864 327.708,126.993 327.708,127.152C327.708,127.311 327.837,127.44 327.996,127.44Z"/>
            </g>
        </g>
        <g transform="matrix(16.6667,0,0,16.6667,0,0)">
            <g transform="matrix(1,0,0,1,-22.4938,-50.0862)">
                <path d="M327.996,125.712L327.996,127.152" style="fill:none;fill-rule:nonzero;"/>
            </g>
        </g>
        <g transform="matrix(16.6667,0,0,16.6667,0,0)">
            <g transform="matrix(1,0,0,1,-22.4938,-50.0862)">
                <path d="M327.708,125.712L327.708,127.152C327.708,127.311 327.837,127.44 327.996,127.44C328.155,127.44 328.284,127.311 328.284,127.152L328.284,125.712C328.284,125.553 328.155,125.424 327.996,125.424C327.837,125.424 327.708,125.553 327.708,125.712Z"/>
            </g>
        </g>
        <g transform="matrix(16.6667,0,0,16.6667,0,0)">
            <g transform="matrix(1,0,0,1,-22.4938,-50.0862)">
                <path d="M327.996,125.712L332.316,125.712" style="fill:none;fill-rule:nonzero;"/>
            </g>
        </g>
        <g transform="matrix(16.6667,0,0,16.6667,0,0)">
            <g transform="matrix(1,0,0,1,-22.4938,-50.0862)">
                <path d="M327.996,126L332.316,126C332.475,126 332.604,125.871 332.604,125.712C332.604,125.553 332.475,125.424 332.316,125.424L327.996,125.424C327.837,125.424 327.708,125.553 327.708,125.712C327.708,125.871 327.837,126 327.996,126Z"/>
            </g>
        </g>
        <g transform="matrix(16.6667,0,0,16.6667,0,0)">
            <g transform="matrix(1,0,0,1,-22.4938,-50.0862)">
                <path d="M335.916,130.392L335.916,122.832" style="fill:none;fill-rule:nonzero;"/>
            </g>
        </g>
        <g transform="matrix(16.6667,0,0,16.6667,0,0)">
            <g transform="matrix(1,0,0,1,-22.4938,-50.0862)">
                <path d="M336.204,130.392L336.204,122.832C336.204,122.673 336.075,122.544 335.916,122.544C335.757,122.544 335.628,122.673 335.628,122.832L335.628,130.392C335.628,130.551 335.757,130.68 335.916,130.68C336.075,130.68 336.204,130.551 336.204,130.392Z"/>
            </g>
        </g>
        <g transform="matrix(16.6667,0,0,16.6667,0,0)">
            <g transform="matrix(1,0,0,1,-22.4938,-50.0862)">
                <path d="M325.08,121.68L323.064,120.168" style="fill:none;fill-rule:nonzero;"/>
            </g>
        </g>
        <g transform="matrix(16.6667,0,0,16.6667,0,0)">
            <g transform="matrix(1,0,0,1,-22.4938,-50.0862)">
                <path d="M325.182,121.544L323.166,120.032C323.091,119.976 322.984,119.991 322.928,120.066C322.872,120.141 322.887,120.248 322.962,120.304L324.978,121.816C325.053,121.872 325.16,121.857 325.216,121.782C325.272,121.707 325.257,121.6 325.182,121.544Z"/>
            </g>
        </g>
        <g transform="matrix(16.6667,0,0,16.6667,0,0)">
            <g transform="matrix(1,0,0,1,-22.4938,-50.0862)">
                <circle cx="336.96" cy="129.96" r="14.4" style="fill-opacity:0;"/>
            </g>
        </g>
        <g transform="matrix(16.6667,0,0,16.6667,0,0)">
            <g transform="matrix(1,0,0,1,-22.4938,-50.0862)">
                <path d="M336.96,115.39C328.919,115.39 322.39,121.919 322.39,129.96C322.39,138.001 328.919,144.53 336.96,144.53C345.001,144.53 351.53,138.001 351.53,129.96C351.53,121.919 345.001,115.39 336.96,115.39ZM336.96,115.73C344.814,115.73 351.19,122.106 351.19,129.96C351.19,137.814 344.814,144.19 336.96,144.19C329.106,144.19 322.73,137.814 322.73,129.96C322.73,122.106 329.106,115.73 336.96,115.73Z"/>
            </g>
        </g>
    </g>
</svg>
