<?xml version="1.0" encoding="UTF-8" standalone="no"?>
<!DOCTYPE svg PUBLIC "-//W3C//DTD SVG 1.1//EN" "http://www.w3.org/Graphics/SVG/1.1/DTD/svg11.dtd">
<svg width="100%" height="100%" viewBox="0 0 486 486" version="1.1" xmlns="http://www.w3.org/2000/svg" xmlns:xlink="http://www.w3.org/1999/xlink" xml:space="preserve" xmlns:serif="http://www.serif.com/" style="fill-rule:evenodd;clip-rule:evenodd;stroke-linejoin:round;stroke-miterlimit:2;">
    <g transform="matrix(1,0,0,1,-1542.27,-1628.4)">
        <g transform="matrix(16.6667,0,0,16.6667,0,0)">
            <g transform="matrix(1,0,0,1,-22.4938,-50.0862)">
                <path d="M123.422,167.947L125.582,170.107" style="fill:none;fill-rule:nonzero;"/>
            </g>
        </g>
        <g transform="matrix(16.6667,0,0,16.6667,0,0)">
            <g transform="matrix(1,0,0,1,-22.4938,-50.0862)">
                <path d="M123.219,168.151L125.379,170.311C125.491,170.423 125.674,170.423 125.786,170.311C125.898,170.198 125.898,170.016 125.786,169.904L123.626,167.744C123.514,167.631 123.331,167.631 123.219,167.744C123.106,167.856 123.106,168.038 123.219,168.151Z"/>
            </g>
        </g>
        <g transform="matrix(16.6667,0,0,16.6667,0,0)">
            <g transform="matrix(1,0,0,1,-22.4938,-50.0862)">
                <path d="M121.982,162.907L123.422,167.947" style="fill:none;fill-rule:nonzero;"/>
            </g>
        </g>
        <g transform="matrix(16.6667,0,0,16.6667,0,0)">
            <g transform="matrix(1,0,0,1,-22.4938,-50.0862)">
                <path d="M121.705,162.986L123.145,168.026C123.189,168.179 123.349,168.268 123.502,168.224C123.654,168.18 123.743,168.021 123.699,167.868L122.259,162.828C122.216,162.675 122.056,162.587 121.903,162.63C121.75,162.674 121.662,162.833 121.705,162.986Z"/>
            </g>
        </g>
        <g transform="matrix(16.6667,0,0,16.6667,0,0)">
            <g transform="matrix(1,0,0,1,-22.4938,-50.0862)">
                <path d="M121.982,161.467L121.982,162.907" style="fill:none;fill-rule:nonzero;"/>
            </g>
        </g>
        <g transform="matrix(16.6667,0,0,16.6667,0,0)">
            <g transform="matrix(1,0,0,1,-22.4938,-50.0862)">
                <path d="M121.694,161.467L121.694,162.907C121.694,163.066 121.823,163.195 121.982,163.195C122.141,163.195 122.27,163.066 122.27,162.907L122.27,161.467C122.27,161.308 122.141,161.179 121.982,161.179C121.823,161.179 121.694,161.308 121.694,161.467Z"/>
            </g>
        </g>
        <g transform="matrix(16.6667,0,0,16.6667,0,0)">
            <g transform="matrix(1,0,0,1,-22.4938,-50.0862)">
                <path d="M125.582,165.067L125.582,162.187" style="fill:none;fill-rule:nonzero;"/>
            </g>
        </g>
        <g transform="matrix(16.6667,0,0,16.6667,0,0)">
            <g transform="matrix(1,0,0,1,-22.4938,-50.0862)">
                <path d="M125.87,165.067L125.87,162.187C125.87,162.028 125.741,161.899 125.582,161.899C125.423,161.899 125.294,162.028 125.294,162.187L125.294,165.067C125.294,165.226 125.423,165.355 125.582,165.355C125.741,165.355 125.87,165.226 125.87,165.067Z"/>
            </g>
        </g>
        <g transform="matrix(16.6667,0,0,16.6667,0,0)">
            <g transform="matrix(1,0,0,1,-22.4938,-50.0862)">
                <path d="M124.862,161.467L125.582,165.067" style="fill:none;fill-rule:nonzero;"/>
            </g>
        </g>
        <g transform="matrix(16.6667,0,0,16.6667,0,0)">
            <g transform="matrix(1,0,0,1,-22.4938,-50.0862)">
                <path d="M124.58,161.524L125.3,165.124C125.331,165.28 125.483,165.381 125.639,165.35C125.795,165.318 125.896,165.167 125.865,165.011L125.145,161.411C125.114,161.255 124.962,161.154 124.806,161.185C124.65,161.216 124.549,161.368 124.58,161.524Z"/>
            </g>
        </g>
        <g transform="matrix(16.6667,0,0,16.6667,0,0)">
            <g transform="matrix(1,0,0,1,-22.4938,-50.0862)">
                <path d="M137.102,160.027C137.102,159.237 136.452,158.587 135.662,158.587C134.872,158.587 134.222,159.237 134.222,160.027" style="fill-opacity:0;fill-rule:nonzero;"/>
            </g>
        </g>
        <g transform="matrix(16.6667,0,0,16.6667,0,0)">
            <g transform="matrix(1,0,0,1,-22.4938,-50.0862)">
                <path d="M137.39,160.027C137.39,159.079 136.61,158.299 135.662,158.299C134.714,158.299 133.934,159.079 133.934,160.027C133.934,160.186 134.063,160.315 134.222,160.315C134.381,160.315 134.51,160.186 134.51,160.027C134.51,159.395 135.03,158.875 135.662,158.875C136.294,158.875 136.814,159.395 136.814,160.027C136.814,160.186 136.943,160.315 137.102,160.315C137.261,160.315 137.39,160.186 137.39,160.027Z"/>
            </g>
        </g>
        <g transform="matrix(16.6667,0,0,16.6667,0,0)">
            <g transform="matrix(1,0,0,1,-22.4938,-50.0862)">
                <path d="M131.342,159.307C131.342,158.517 130.692,157.867 129.902,157.867C129.112,157.867 128.462,158.517 128.462,159.307" style="fill-opacity:0;fill-rule:nonzero;"/>
            </g>
        </g>
        <g transform="matrix(16.6667,0,0,16.6667,0,0)">
            <g transform="matrix(1,0,0,1,-22.4938,-50.0862)">
                <path d="M131.63,159.307C131.63,158.359 130.85,157.579 129.902,157.579C128.954,157.579 128.174,158.359 128.174,159.307C128.174,159.466 128.303,159.595 128.462,159.595C128.621,159.595 128.75,159.466 128.75,159.307C128.75,158.675 129.27,158.155 129.902,158.155C130.534,158.155 131.054,158.675 131.054,159.307C131.054,159.466 131.183,159.595 131.342,159.595C131.501,159.595 131.63,159.466 131.63,159.307Z"/>
            </g>
        </g>
        <g transform="matrix(16.6667,0,0,16.6667,0,0)">
            <g transform="matrix(1,0,0,1,-22.4938,-50.0862)">
                <path d="M134.222,159.307C134.222,158.517 133.572,157.867 132.782,157.867C131.992,157.867 131.342,158.517 131.342,159.307" style="fill-opacity:0;fill-rule:nonzero;"/>
            </g>
        </g>
        <g transform="matrix(16.6667,0,0,16.6667,0,0)">
            <g transform="matrix(1,0,0,1,-22.4938,-50.0862)">
                <path d="M134.51,159.307C134.51,158.359 133.73,157.579 132.782,157.579C131.834,157.579 131.054,158.359 131.054,159.307C131.054,159.466 131.183,159.595 131.342,159.595C131.501,159.595 131.63,159.466 131.63,159.307C131.63,158.675 132.15,158.155 132.782,158.155C133.414,158.155 133.934,158.675 133.934,159.307C133.934,159.466 134.063,159.595 134.222,159.595C134.381,159.595 134.51,159.466 134.51,159.307Z"/>
            </g>
        </g>
        <g transform="matrix(16.6667,0,0,16.6667,0,0)">
            <g transform="matrix(1,0,0,1,-22.4938,-50.0862)">
                <path d="M124.862,161.467C124.862,160.677 124.212,160.027 123.422,160.027C122.632,160.027 121.982,160.677 121.982,161.467" style="fill-opacity:0;fill-rule:nonzero;"/>
            </g>
        </g>
        <g transform="matrix(16.6667,0,0,16.6667,0,0)">
            <g transform="matrix(1,0,0,1,-22.4938,-50.0862)">
                <path d="M125.15,161.467C125.15,160.519 124.37,159.739 123.422,159.739C122.474,159.739 121.694,160.519 121.694,161.467C121.694,161.626 121.823,161.755 121.982,161.755C122.141,161.755 122.27,161.626 122.27,161.467C122.27,160.835 122.79,160.315 123.422,160.315C124.054,160.315 124.574,160.835 124.574,161.467C124.574,161.626 124.703,161.755 124.862,161.755C125.021,161.755 125.15,161.626 125.15,161.467Z"/>
            </g>
        </g>
        <g transform="matrix(16.6667,0,0,16.6667,0,0)">
            <g transform="matrix(1,0,0,1,-22.4938,-50.0862)">
                <path d="M134.222,159.307L134.222,160.747" style="fill:none;fill-rule:nonzero;"/>
            </g>
        </g>
        <g transform="matrix(16.6667,0,0,16.6667,0,0)">
            <g transform="matrix(1,0,0,1,-22.4938,-50.0862)">
                <path d="M133.934,159.307L133.934,160.747C133.934,160.906 134.063,161.035 134.222,161.035C134.381,161.035 134.51,160.906 134.51,160.747L134.51,159.307C134.51,159.148 134.381,159.019 134.222,159.019C134.063,159.019 133.934,159.148 133.934,159.307Z"/>
            </g>
        </g>
        <g transform="matrix(16.6667,0,0,16.6667,0,0)">
            <g transform="matrix(1,0,0,1,-22.4938,-50.0862)">
                <path d="M131.342,159.307L131.342,160.747" style="fill:none;fill-rule:nonzero;"/>
            </g>
        </g>
        <g transform="matrix(16.6667,0,0,16.6667,0,0)">
            <g transform="matrix(1,0,0,1,-22.4938,-50.0862)">
                <path d="M131.054,159.307L131.054,160.747C131.054,160.906 131.183,161.035 131.342,161.035C131.501,161.035 131.63,160.906 131.63,160.747L131.63,159.307C131.63,159.148 131.501,159.019 131.342,159.019C131.183,159.019 131.054,159.148 131.054,159.307Z"/>
            </g>
        </g>
        <g transform="matrix(16.6667,0,0,16.6667,0,0)">
            <g transform="matrix(1,0,0,1,-22.4938,-50.0862)">
                <path d="M128.462,153.547C128.462,152.757 127.812,152.107 127.022,152.107C126.232,152.107 125.582,152.757 125.582,153.547" style="fill-opacity:0;fill-rule:nonzero;"/>
            </g>
        </g>
        <g transform="matrix(16.6667,0,0,16.6667,0,0)">
            <g transform="matrix(1,0,0,1,-22.4938,-50.0862)">
                <path d="M128.75,153.547C128.75,152.599 127.97,151.819 127.022,151.819C126.074,151.819 125.294,152.599 125.294,153.547C125.294,153.706 125.423,153.835 125.582,153.835C125.741,153.835 125.87,153.706 125.87,153.547C125.87,152.915 126.39,152.395 127.022,152.395C127.654,152.395 128.174,152.915 128.174,153.547C128.174,153.706 128.303,153.835 128.462,153.835C128.621,153.835 128.75,153.706 128.75,153.547Z"/>
            </g>
        </g>
        <g transform="matrix(16.6667,0,0,16.6667,0,0)">
            <g transform="matrix(1,0,0,1,-22.4938,-50.0862)">
                <path d="M129.902,152.827L131.342,152.827" style="fill:none;fill-rule:nonzero;"/>
            </g>
        </g>
        <g transform="matrix(16.6667,0,0,16.6667,0,0)">
            <g transform="matrix(1,0,0,1,-22.4938,-50.0862)">
                <path d="M129.902,153.115L131.342,153.115C131.501,153.115 131.63,152.986 131.63,152.827C131.63,152.668 131.501,152.539 131.342,152.539L129.902,152.539C129.743,152.539 129.614,152.668 129.614,152.827C129.614,152.986 129.743,153.115 129.902,153.115Z"/>
            </g>
        </g>
        <g transform="matrix(16.6667,0,0,16.6667,0,0)">
            <g transform="matrix(1,0,0,1,-22.4938,-50.0862)">
                <path d="M124.142,152.827L122.702,152.827" style="fill:none;fill-rule:nonzero;"/>
            </g>
        </g>
        <g transform="matrix(16.6667,0,0,16.6667,0,0)">
            <g transform="matrix(1,0,0,1,-22.4938,-50.0862)">
                <path d="M124.142,152.539L122.702,152.539C122.543,152.539 122.414,152.668 122.414,152.827C122.414,152.986 122.543,153.115 122.702,153.115L124.142,153.115C124.301,153.115 124.43,152.986 124.43,152.827C124.43,152.668 124.301,152.539 124.142,152.539Z"/>
            </g>
        </g>
        <g transform="matrix(16.6667,0,0,16.6667,0,0)">
            <g transform="matrix(1,0,0,1,-22.4938,-50.0862)">
                <path d="M124.862,151.387L124.142,150.667" style="fill:none;fill-rule:nonzero;"/>
            </g>
        </g>
        <g transform="matrix(16.6667,0,0,16.6667,0,0)">
            <g transform="matrix(1,0,0,1,-22.4938,-50.0862)">
                <path d="M125.066,151.184L124.346,150.464C124.234,150.351 124.051,150.351 123.939,150.464C123.826,150.576 123.826,150.758 123.939,150.871L124.659,151.591C124.771,151.703 124.954,151.703 125.066,151.591C125.178,151.478 125.178,151.296 125.066,151.184Z"/>
            </g>
        </g>
        <g transform="matrix(16.6667,0,0,16.6667,0,0)">
            <g transform="matrix(1,0,0,1,-22.4938,-50.0862)">
                <path d="M129.182,151.387L129.902,150.667" style="fill:none;fill-rule:nonzero;"/>
            </g>
        </g>
        <g transform="matrix(16.6667,0,0,16.6667,0,0)">
            <g transform="matrix(1,0,0,1,-22.4938,-50.0862)">
                <path d="M129.386,151.591L130.106,150.871C130.218,150.758 130.218,150.576 130.106,150.464C129.994,150.351 129.811,150.351 129.699,150.464L128.979,151.184C128.866,151.296 128.866,151.478 128.979,151.591C129.091,151.703 129.274,151.703 129.386,151.591Z"/>
            </g>
        </g>
        <g transform="matrix(16.6667,0,0,16.6667,0,0)">
            <g transform="matrix(1,0,0,1,-22.4938,-50.0862)">
                <path d="M127.022,150.667L127.022,149.227" style="fill:none;fill-rule:nonzero;"/>
            </g>
        </g>
        <g transform="matrix(16.6667,0,0,16.6667,0,0)">
            <g transform="matrix(1,0,0,1,-22.4938,-50.0862)">
                <path d="M127.31,150.667L127.31,149.227C127.31,149.068 127.181,148.939 127.022,148.939C126.863,148.939 126.734,149.068 126.734,149.227L126.734,150.667C126.734,150.826 126.863,150.955 127.022,150.955C127.181,150.955 127.31,150.826 127.31,150.667Z"/>
            </g>
        </g>
        <g transform="matrix(16.6667,0,0,16.6667,0,0)">
            <g transform="matrix(1,0,0,1,-22.4938,-50.0862)">
                <path d="M134.222,160.747L134.222,163.627" style="fill:none;fill-rule:nonzero;"/>
            </g>
        </g>
        <g transform="matrix(16.6667,0,0,16.6667,0,0)">
            <g transform="matrix(1,0,0,1,-22.4938,-50.0862)">
                <path d="M133.934,160.747L133.934,163.627C133.934,163.786 134.063,163.915 134.222,163.915C134.381,163.915 134.51,163.786 134.51,163.627L134.51,160.747C134.51,160.588 134.381,160.459 134.222,160.459C134.063,160.459 133.934,160.588 133.934,160.747Z"/>
            </g>
        </g>
        <g transform="matrix(16.6667,0,0,16.6667,0,0)">
            <g transform="matrix(1,0,0,1,-22.4938,-50.0862)">
                <path d="M131.342,160.747L131.342,162.187" style="fill:none;fill-rule:nonzero;"/>
            </g>
        </g>
        <g transform="matrix(16.6667,0,0,16.6667,0,0)">
            <g transform="matrix(1,0,0,1,-22.4938,-50.0862)">
                <path d="M131.054,160.747L131.054,162.187C131.054,162.346 131.183,162.475 131.342,162.475C131.501,162.475 131.63,162.346 131.63,162.187L131.63,160.747C131.63,160.588 131.501,160.459 131.342,160.459C131.183,160.459 131.054,160.588 131.054,160.747Z"/>
            </g>
        </g>
        <g transform="matrix(16.6667,0,0,16.6667,0,0)">
            <g transform="matrix(1,0,0,1,-22.4938,-50.0862)">
                <path d="M128.462,159.307L128.462,162.187" style="fill:none;fill-rule:nonzero;"/>
            </g>
        </g>
        <g transform="matrix(16.6667,0,0,16.6667,0,0)">
            <g transform="matrix(1,0,0,1,-22.4938,-50.0862)">
                <path d="M128.174,159.307L128.174,162.187C128.174,162.346 128.303,162.475 128.462,162.475C128.621,162.475 128.75,162.346 128.75,162.187L128.75,159.307C128.75,159.148 128.621,159.019 128.462,159.019C128.303,159.019 128.174,159.148 128.174,159.307Z"/>
            </g>
        </g>
        <g transform="matrix(16.6667,0,0,16.6667,0,0)">
            <g transform="matrix(1,0,0,1,-22.4938,-50.0862)">
                <path d="M125.582,160.747L125.582,162.187" style="fill:none;fill-rule:nonzero;"/>
            </g>
        </g>
        <g transform="matrix(16.6667,0,0,16.6667,0,0)">
            <g transform="matrix(1,0,0,1,-22.4938,-50.0862)">
                <path d="M125.294,160.747L125.294,162.187C125.294,162.346 125.423,162.475 125.582,162.475C125.741,162.475 125.87,162.346 125.87,162.187L125.87,160.747C125.87,160.588 125.741,160.459 125.582,160.459C125.423,160.459 125.294,160.588 125.294,160.747Z"/>
            </g>
        </g>
        <g transform="matrix(16.6667,0,0,16.6667,0,0)">
            <g transform="matrix(1,0,0,1,-22.4938,-50.0862)">
                <path d="M137.102,166.507L135.662,169.387" style="fill:none;fill-rule:nonzero;"/>
            </g>
        </g>
        <g transform="matrix(16.6667,0,0,16.6667,0,0)">
            <g transform="matrix(1,0,0,1,-22.4938,-50.0862)">
                <path d="M136.845,166.378L135.405,169.258C135.334,169.401 135.391,169.574 135.534,169.645C135.676,169.716 135.849,169.658 135.92,169.516L137.36,166.636C137.431,166.494 137.373,166.321 137.231,166.25C137.089,166.179 136.916,166.236 136.845,166.378Z"/>
            </g>
        </g>
        <g transform="matrix(16.6667,0,0,16.6667,0,0)">
            <g transform="matrix(1,0,0,1,-22.4938,-50.0862)">
                <path d="M137.102,165.067L137.102,166.507" style="fill:none;fill-rule:nonzero;"/>
            </g>
        </g>
        <g transform="matrix(16.6667,0,0,16.6667,0,0)">
            <g transform="matrix(1,0,0,1,-22.4938,-50.0862)">
                <path d="M136.814,165.067L136.814,166.507C136.814,166.666 136.943,166.795 137.102,166.795C137.261,166.795 137.39,166.666 137.39,166.507L137.39,165.067C137.39,164.908 137.261,164.779 137.102,164.779C136.943,164.779 136.814,164.908 136.814,165.067Z"/>
            </g>
        </g>
        <g transform="matrix(16.6667,0,0,16.6667,0,0)">
            <g transform="matrix(1,0,0,1,-22.4938,-50.0862)">
                <path d="M137.102,160.027L137.102,165.067" style="fill:none;fill-rule:nonzero;"/>
            </g>
        </g>
        <g transform="matrix(16.6667,0,0,16.6667,0,0)">
            <g transform="matrix(1,0,0,1,-22.4938,-50.0862)">
                <path d="M136.814,160.027L136.814,165.067C136.814,165.226 136.943,165.355 137.102,165.355C137.261,165.355 137.39,165.226 137.39,165.067L137.39,160.027C137.39,159.868 137.261,159.739 137.102,159.739C136.943,159.739 136.814,159.868 136.814,160.027Z"/>
            </g>
        </g>
        <g transform="matrix(16.6667,0,0,16.6667,0,0)">
            <g transform="matrix(1,0,0,1,-22.4938,-50.0862)">
                <path d="M128.462,153.547L128.462,159.307" style="fill:none;fill-rule:nonzero;"/>
            </g>
        </g>
        <g transform="matrix(16.6667,0,0,16.6667,0,0)">
            <g transform="matrix(1,0,0,1,-22.4938,-50.0862)">
                <path d="M128.174,153.547L128.174,159.307C128.174,159.466 128.303,159.595 128.462,159.595C128.621,159.595 128.75,159.466 128.75,159.307L128.75,153.547C128.75,153.388 128.621,153.259 128.462,153.259C128.303,153.259 128.174,153.388 128.174,153.547Z"/>
            </g>
        </g>
        <g transform="matrix(16.6667,0,0,16.6667,0,0)">
            <g transform="matrix(1,0,0,1,-22.4938,-50.0862)">
                <path d="M125.582,154.987L125.582,153.547" style="fill:none;fill-rule:nonzero;"/>
            </g>
        </g>
        <g transform="matrix(16.6667,0,0,16.6667,0,0)">
            <g transform="matrix(1,0,0,1,-22.4938,-50.0862)">
                <path d="M125.87,154.987L125.87,153.547C125.87,153.388 125.741,153.259 125.582,153.259C125.423,153.259 125.294,153.388 125.294,153.547L125.294,154.987C125.294,155.146 125.423,155.275 125.582,155.275C125.741,155.275 125.87,155.146 125.87,154.987Z"/>
            </g>
        </g>
        <g transform="matrix(16.6667,0,0,16.6667,0,0)">
            <g transform="matrix(1,0,0,1,-22.4938,-50.0862)">
                <path d="M125.582,156.427L125.582,154.987" style="fill:none;fill-rule:nonzero;"/>
            </g>
        </g>
        <g transform="matrix(16.6667,0,0,16.6667,0,0)">
            <g transform="matrix(1,0,0,1,-22.4938,-50.0862)">
                <path d="M125.87,156.427L125.87,154.987C125.87,154.828 125.741,154.699 125.582,154.699C125.423,154.699 125.294,154.828 125.294,154.987L125.294,156.427C125.294,156.586 125.423,156.715 125.582,156.715C125.741,156.715 125.87,156.586 125.87,156.427Z"/>
            </g>
        </g>
        <g transform="matrix(16.6667,0,0,16.6667,0,0)">
            <g transform="matrix(1,0,0,1,-22.4938,-50.0862)">
                <path d="M125.582,160.747L125.582,156.427" style="fill:none;fill-rule:nonzero;"/>
            </g>
        </g>
        <g transform="matrix(16.6667,0,0,16.6667,0,0)">
            <g transform="matrix(1,0,0,1,-22.4938,-50.0862)">
                <path d="M125.87,160.747L125.87,156.427C125.87,156.268 125.741,156.139 125.582,156.139C125.423,156.139 125.294,156.268 125.294,156.427L125.294,160.747C125.294,160.906 125.423,161.035 125.582,161.035C125.741,161.035 125.87,160.906 125.87,160.747Z"/>
            </g>
        </g>
        <g transform="matrix(16.6667,0,0,16.6667,0,0)">
            <g transform="matrix(1,0,0,1,-22.4938,-50.0862)">
                <path d="M117.72,154.08L115.704,152.568" style="fill:none;fill-rule:nonzero;"/>
            </g>
        </g>
        <g transform="matrix(16.6667,0,0,16.6667,0,0)">
            <g transform="matrix(1,0,0,1,-22.4938,-50.0862)">
                <path d="M117.822,153.944L115.806,152.432C115.731,152.376 115.624,152.391 115.568,152.466C115.512,152.541 115.527,152.648 115.602,152.704L117.618,154.216C117.693,154.272 117.8,154.257 117.856,154.182C117.912,154.107 117.897,154 117.822,153.944Z"/>
            </g>
        </g>
        <g transform="matrix(16.6667,0,0,16.6667,0,0)">
            <g transform="matrix(1,0,0,1,-22.4938,-50.0862)">
                <circle cx="129.6" cy="162.36" r="14.4" style="fill-opacity:0;"/>
            </g>
        </g>
        <g transform="matrix(16.6667,0,0,16.6667,0,0)">
            <g transform="matrix(1,0,0,1,-22.4938,-50.0862)">
                <path d="M129.6,147.79C121.559,147.79 115.03,154.319 115.03,162.36C115.03,170.401 121.559,176.93 129.6,176.93C137.641,176.93 144.17,170.401 144.17,162.36C144.17,154.319 137.641,147.79 129.6,147.79ZM129.6,148.13C137.454,148.13 143.83,154.506 143.83,162.36C143.83,170.214 137.454,176.59 129.6,176.59C121.746,176.59 115.37,170.214 115.37,162.36C115.37,154.506 121.746,148.13 129.6,148.13Z"/>
            </g>
        </g>
    </g>
</svg>
