<?xml version="1.0" encoding="UTF-8" standalone="no"?>
<!DOCTYPE svg PUBLIC "-//W3C//DTD SVG 1.1//EN" "http://www.w3.org/Graphics/SVG/1.1/DTD/svg11.dtd">
<svg width="100%" height="100%" viewBox="0 0 486 486" version="1.1" xmlns="http://www.w3.org/2000/svg" xmlns:xlink="http://www.w3.org/1999/xlink" xml:space="preserve" xmlns:serif="http://www.serif.com/" style="fill-rule:evenodd;clip-rule:evenodd;stroke-linejoin:round;stroke-miterlimit:2;">
    <g transform="matrix(1,0,0,1,-2118.27,-1628.4)">
        <g transform="matrix(16.6667,0,0,16.6667,0,0)">
            <g transform="matrix(1,0,0,1,-22.4938,-50.0862)">
                <path d="M161.64,165.96L166.68,165.96" style="fill:none;fill-rule:nonzero;"/>
            </g>
        </g>
        <g transform="matrix(16.6667,0,0,16.6667,0,0)">
            <g transform="matrix(1,0,0,1,-22.4938,-50.0862)">
                <path d="M161.64,166.248L166.68,166.248C166.839,166.248 166.968,166.119 166.968,165.96C166.968,165.801 166.839,165.672 166.68,165.672L161.64,165.672C161.481,165.672 161.352,165.801 161.352,165.96C161.352,166.119 161.481,166.248 161.64,166.248Z"/>
            </g>
        </g>
        <g transform="matrix(16.6667,0,0,16.6667,0,0)">
            <g transform="matrix(1,0,0,1,-22.4938,-50.0862)">
                <path d="M161.64,164.52L161.64,168.84" style="fill:none;fill-rule:nonzero;"/>
            </g>
        </g>
        <g transform="matrix(16.6667,0,0,16.6667,0,0)">
            <g transform="matrix(1,0,0,1,-22.4938,-50.0862)">
                <path d="M161.352,164.52L161.352,168.84C161.352,168.999 161.481,169.128 161.64,169.128C161.799,169.128 161.928,168.999 161.928,168.84L161.928,164.52C161.928,164.361 161.799,164.232 161.64,164.232C161.481,164.232 161.352,164.361 161.352,164.52Z"/>
            </g>
        </g>
        <g transform="matrix(16.6667,0,0,16.6667,0,0)">
            <g transform="matrix(1,0,0,1,-22.4938,-50.0862)">
                <path d="M163.08,163.08L161.64,164.52" style="fill:none;fill-rule:nonzero;"/>
            </g>
        </g>
        <g transform="matrix(16.6667,0,0,16.6667,0,0)">
            <g transform="matrix(1,0,0,1,-22.4938,-50.0862)">
                <path d="M162.876,162.876L161.436,164.316C161.324,164.429 161.324,164.611 161.436,164.724C161.549,164.836 161.731,164.836 161.844,164.724L163.284,163.284C163.396,163.171 163.396,162.989 163.284,162.876C163.171,162.764 162.989,162.764 162.876,162.876Z"/>
            </g>
        </g>
        <g transform="matrix(16.6667,0,0,16.6667,0,0)">
            <g transform="matrix(1,0,0,1,-22.4938,-50.0862)">
                <path d="M166.68,168.12L166.68,168.84" style="fill:none;fill-rule:nonzero;"/>
            </g>
        </g>
        <g transform="matrix(16.6667,0,0,16.6667,0,0)">
            <g transform="matrix(1,0,0,1,-22.4938,-50.0862)">
                <path d="M166.392,168.12L166.392,168.84C166.392,168.999 166.521,169.128 166.68,169.128C166.839,169.128 166.968,168.999 166.968,168.84L166.968,168.12C166.968,167.961 166.839,167.832 166.68,167.832C166.521,167.832 166.392,167.961 166.392,168.12Z"/>
            </g>
        </g>
        <g transform="matrix(16.6667,0,0,16.6667,0,0)">
            <g transform="matrix(1,0,0,1,-22.4938,-50.0862)">
                <path d="M166.68,164.52L166.68,168.12" style="fill:none;fill-rule:nonzero;"/>
            </g>
        </g>
        <g transform="matrix(16.6667,0,0,16.6667,0,0)">
            <g transform="matrix(1,0,0,1,-22.4938,-50.0862)">
                <path d="M166.392,164.52L166.392,168.12C166.392,168.279 166.521,168.408 166.68,168.408C166.839,168.408 166.968,168.279 166.968,168.12L166.968,164.52C166.968,164.361 166.839,164.232 166.68,164.232C166.521,164.232 166.392,164.361 166.392,164.52Z"/>
            </g>
        </g>
        <g transform="matrix(16.6667,0,0,16.6667,0,0)">
            <g transform="matrix(1,0,0,1,-22.4938,-50.0862)">
                <path d="M165.96,163.8L166.68,164.52" style="fill:none;fill-rule:nonzero;"/>
            </g>
        </g>
        <g transform="matrix(16.6667,0,0,16.6667,0,0)">
            <g transform="matrix(1,0,0,1,-22.4938,-50.0862)">
                <path d="M165.756,164.004L166.476,164.724C166.589,164.836 166.771,164.836 166.884,164.724C166.996,164.611 166.996,164.429 166.884,164.316L166.164,163.596C166.051,163.484 165.869,163.484 165.756,163.596C165.644,163.709 165.644,163.891 165.756,164.004Z"/>
            </g>
        </g>
        <g transform="matrix(16.6667,0,0,16.6667,0,0)">
            <g transform="matrix(1,0,0,1,-22.4938,-50.0862)">
                <path d="M165.24,163.08L165.96,163.8" style="fill:none;fill-rule:nonzero;"/>
            </g>
        </g>
        <g transform="matrix(16.6667,0,0,16.6667,0,0)">
            <g transform="matrix(1,0,0,1,-22.4938,-50.0862)">
                <path d="M165.036,163.284L165.756,164.004C165.869,164.116 166.051,164.116 166.164,164.004C166.276,163.891 166.276,163.709 166.164,163.596L165.444,162.876C165.331,162.764 165.149,162.764 165.036,162.876C164.924,162.989 164.924,163.171 165.036,163.284Z"/>
            </g>
        </g>
        <g transform="matrix(16.6667,0,0,16.6667,0,0)">
            <g transform="matrix(1,0,0,1,-22.4938,-50.0862)">
                <path d="M163.08,163.08L165.24,163.08" style="fill:none;fill-rule:nonzero;"/>
            </g>
        </g>
        <g transform="matrix(16.6667,0,0,16.6667,0,0)">
            <g transform="matrix(1,0,0,1,-22.4938,-50.0862)">
                <path d="M163.08,163.368L165.24,163.368C165.399,163.368 165.528,163.239 165.528,163.08C165.528,162.921 165.399,162.792 165.24,162.792L163.08,162.792C162.921,162.792 162.792,162.921 162.792,163.08C162.792,163.239 162.921,163.368 163.08,163.368Z"/>
            </g>
        </g>
        <g transform="matrix(16.6667,0,0,16.6667,0,0)">
            <g transform="matrix(1,0,0,1,-22.4938,-50.0862)">
                <path d="M159.48,160.92L169.56,160.92" style="fill:none;fill-rule:nonzero;"/>
            </g>
        </g>
        <g transform="matrix(16.6667,0,0,16.6667,0,0)">
            <g transform="matrix(1,0,0,1,-22.4938,-50.0862)">
                <path d="M159.48,161.208L169.56,161.208C169.719,161.208 169.848,161.079 169.848,160.92C169.848,160.761 169.719,160.632 169.56,160.632L159.48,160.632C159.321,160.632 159.192,160.761 159.192,160.92C159.192,161.079 159.321,161.208 159.48,161.208Z"/>
            </g>
        </g>
        <g transform="matrix(16.6667,0,0,16.6667,0,0)">
            <g transform="matrix(1,0,0,1,-22.4938,-50.0862)">
                <path d="M169.56,160.92L175.32,166.68" style="fill:none;fill-rule:nonzero;"/>
            </g>
        </g>
        <g transform="matrix(16.6667,0,0,16.6667,0,0)">
            <g transform="matrix(1,0,0,1,-22.4938,-50.0862)">
                <path d="M169.356,161.124L175.116,166.884C175.229,166.996 175.411,166.996 175.524,166.884C175.636,166.771 175.636,166.589 175.524,166.476L169.764,160.716C169.651,160.604 169.469,160.604 169.356,160.716C169.244,160.829 169.244,161.011 169.356,161.124Z"/>
            </g>
        </g>
        <g transform="matrix(16.6667,0,0,16.6667,0,0)">
            <g transform="matrix(1,0,0,1,-22.4938,-50.0862)">
                <path d="M152.28,166.68L156.6,155.16" style="fill:none;fill-rule:nonzero;"/>
            </g>
        </g>
        <g transform="matrix(16.6667,0,0,16.6667,0,0)">
            <g transform="matrix(1,0,0,1,-22.4938,-50.0862)">
                <path d="M152.954,166.933L157.274,155.413C157.414,155.041 157.225,154.625 156.853,154.486C156.481,154.346 156.065,154.535 155.926,154.907L151.606,166.427C151.466,166.799 151.655,167.215 152.027,167.354C152.399,167.494 152.815,167.305 152.954,166.933Z"/>
            </g>
        </g>
        <g transform="matrix(16.6667,0,0,16.6667,0,0)">
            <g transform="matrix(1,0,0,1,-22.4938,-50.0862)">
                <path d="M156.6,155.16L159.48,160.92" style="fill:none;fill-rule:nonzero;"/>
            </g>
        </g>
        <g transform="matrix(16.6667,0,0,16.6667,0,0)">
            <g transform="matrix(1,0,0,1,-22.4938,-50.0862)">
                <path d="M156.342,155.289L159.222,161.049C159.293,161.191 159.467,161.249 159.609,161.178C159.751,161.107 159.809,160.933 159.738,160.791L156.858,155.031C156.787,154.889 156.613,154.831 156.471,154.902C156.329,154.973 156.271,155.147 156.342,155.289Z"/>
            </g>
        </g>
        <g transform="matrix(16.6667,0,0,16.6667,0,0)">
            <g transform="matrix(1,0,0,1,-22.4938,-50.0862)">
                <path d="M152.28,154.08L150.264,152.568" style="fill:none;fill-rule:nonzero;"/>
            </g>
        </g>
        <g transform="matrix(16.6667,0,0,16.6667,0,0)">
            <g transform="matrix(1,0,0,1,-22.4938,-50.0862)">
                <path d="M152.382,153.944L150.366,152.432C150.291,152.376 150.184,152.391 150.128,152.466C150.072,152.541 150.087,152.648 150.162,152.704L152.178,154.216C152.253,154.272 152.36,154.257 152.416,154.182C152.472,154.107 152.457,154 152.382,153.944Z"/>
            </g>
        </g>
        <g transform="matrix(16.6667,0,0,16.6667,0,0)">
            <g transform="matrix(1,0,0,1,-22.4938,-50.0862)">
                <circle cx="164.16" cy="162.36" r="14.4" style="fill-opacity:0;"/>
            </g>
        </g>
        <g transform="matrix(16.6667,0,0,16.6667,0,0)">
            <g transform="matrix(1,0,0,1,-22.4938,-50.0862)">
                <path d="M164.16,147.79C156.119,147.79 149.59,154.319 149.59,162.36C149.59,170.401 156.119,176.93 164.16,176.93C172.201,176.93 178.73,170.401 178.73,162.36C178.73,154.319 172.201,147.79 164.16,147.79ZM164.16,148.13C172.014,148.13 178.39,154.506 178.39,162.36C178.39,170.214 172.014,176.59 164.16,176.59C156.306,176.59 149.93,170.214 149.93,162.36C149.93,154.506 156.306,148.13 164.16,148.13Z"/>
            </g>
        </g>
    </g>
</svg>
