<?xml version="1.0" encoding="UTF-8" standalone="no"?>
<!DOCTYPE svg PUBLIC "-//W3C//DTD SVG 1.1//EN" "http://www.w3.org/Graphics/SVG/1.1/DTD/svg11.dtd">
<svg width="100%" height="100%" viewBox="0 0 486 486" version="1.1" xmlns="http://www.w3.org/2000/svg" xmlns:xlink="http://www.w3.org/1999/xlink" xml:space="preserve" xmlns:serif="http://www.serif.com/" style="fill-rule:evenodd;clip-rule:evenodd;stroke-linejoin:round;stroke-miterlimit:2;">
    <g transform="matrix(1,0,0,1,-2694.27,-1628.4)">
        <g transform="matrix(16.6667,0,0,16.6667,0,0)">
            <g transform="matrix(1,0,0,1,-22.4938,-50.0862)">
                <path d="M200.52,163.08L196.92,163.08" style="fill:none;fill-rule:nonzero;"/>
            </g>
        </g>
        <g transform="matrix(16.6667,0,0,16.6667,0,0)">
            <g transform="matrix(1,0,0,1,-22.4938,-50.0862)">
                <path d="M200.52,162.792L196.92,162.792C196.761,162.792 196.632,162.921 196.632,163.08C196.632,163.239 196.761,163.368 196.92,163.368L200.52,163.368C200.679,163.368 200.808,163.239 200.808,163.08C200.808,162.921 200.679,162.792 200.52,162.792Z"/>
            </g>
        </g>
        <g transform="matrix(16.6667,0,0,16.6667,0,0)">
            <g transform="matrix(1,0,0,1,-22.4938,-50.0862)">
                <path d="M201.96,164.52L200.52,163.08" style="fill:none;fill-rule:nonzero;"/>
            </g>
        </g>
        <g transform="matrix(16.6667,0,0,16.6667,0,0)">
            <g transform="matrix(1,0,0,1,-22.4938,-50.0862)">
                <path d="M202.164,164.316L200.724,162.876C200.611,162.764 200.429,162.764 200.316,162.876C200.204,162.989 200.204,163.171 200.316,163.284L201.756,164.724C201.869,164.836 202.051,164.836 202.164,164.724C202.276,164.611 202.276,164.429 202.164,164.316Z"/>
            </g>
        </g>
        <g transform="matrix(16.6667,0,0,16.6667,0,0)">
            <g transform="matrix(1,0,0,1,-22.4938,-50.0862)">
                <path d="M201.96,167.4L201.96,164.52" style="fill:none;fill-rule:nonzero;"/>
            </g>
        </g>
        <g transform="matrix(16.6667,0,0,16.6667,0,0)">
            <g transform="matrix(1,0,0,1,-22.4938,-50.0862)">
                <path d="M202.248,167.4L202.248,164.52C202.248,164.361 202.119,164.232 201.96,164.232C201.801,164.232 201.672,164.361 201.672,164.52L201.672,167.4C201.672,167.559 201.801,167.688 201.96,167.688C202.119,167.688 202.248,167.559 202.248,167.4Z"/>
            </g>
        </g>
        <g transform="matrix(16.6667,0,0,16.6667,0,0)">
            <g transform="matrix(1,0,0,1,-22.4938,-50.0862)">
                <path d="M200.52,168.84L201.96,167.4" style="fill:none;fill-rule:nonzero;"/>
            </g>
        </g>
        <g transform="matrix(16.6667,0,0,16.6667,0,0)">
            <g transform="matrix(1,0,0,1,-22.4938,-50.0862)">
                <path d="M200.724,169.044L202.164,167.604C202.276,167.491 202.276,167.309 202.164,167.196C202.051,167.084 201.869,167.084 201.756,167.196L200.316,168.636C200.204,168.749 200.204,168.931 200.316,169.044C200.429,169.156 200.611,169.156 200.724,169.044Z"/>
            </g>
        </g>
        <g transform="matrix(16.6667,0,0,16.6667,0,0)">
            <g transform="matrix(1,0,0,1,-22.4938,-50.0862)">
                <path d="M196.92,168.84L200.52,168.84" style="fill:none;fill-rule:nonzero;"/>
            </g>
        </g>
        <g transform="matrix(16.6667,0,0,16.6667,0,0)">
            <g transform="matrix(1,0,0,1,-22.4938,-50.0862)">
                <path d="M196.92,169.128L200.52,169.128C200.679,169.128 200.808,168.999 200.808,168.84C200.808,168.681 200.679,168.552 200.52,168.552L196.92,168.552C196.761,168.552 196.632,168.681 196.632,168.84C196.632,168.999 196.761,169.128 196.92,169.128Z"/>
            </g>
        </g>
        <g transform="matrix(16.6667,0,0,16.6667,0,0)">
            <g transform="matrix(1,0,0,1,-22.4938,-50.0862)">
                <path d="M196.92,163.08L196.92,168.84" style="fill:none;fill-rule:nonzero;"/>
            </g>
        </g>
        <g transform="matrix(16.6667,0,0,16.6667,0,0)">
            <g transform="matrix(1,0,0,1,-22.4938,-50.0862)">
                <path d="M196.632,163.08L196.632,168.84C196.632,168.999 196.761,169.128 196.92,169.128C197.079,169.128 197.208,168.999 197.208,168.84L197.208,163.08C197.208,162.921 197.079,162.792 196.92,162.792C196.761,162.792 196.632,162.921 196.632,163.08Z"/>
            </g>
        </g>
        <g transform="matrix(16.6667,0,0,16.6667,0,0)">
            <g transform="matrix(1,0,0,1,-22.4938,-50.0862)">
                <path d="M194.04,160.92L204.12,160.92" style="fill:none;fill-rule:nonzero;"/>
            </g>
        </g>
        <g transform="matrix(16.6667,0,0,16.6667,0,0)">
            <g transform="matrix(1,0,0,1,-22.4938,-50.0862)">
                <path d="M194.04,161.208L204.12,161.208C204.279,161.208 204.408,161.079 204.408,160.92C204.408,160.761 204.279,160.632 204.12,160.632L194.04,160.632C193.881,160.632 193.752,160.761 193.752,160.92C193.752,161.079 193.881,161.208 194.04,161.208Z"/>
            </g>
        </g>
        <g transform="matrix(16.6667,0,0,16.6667,0,0)">
            <g transform="matrix(1,0,0,1,-22.4938,-50.0862)">
                <path d="M204.12,160.92L209.88,166.68" style="fill:none;fill-rule:nonzero;"/>
            </g>
        </g>
        <g transform="matrix(16.6667,0,0,16.6667,0,0)">
            <g transform="matrix(1,0,0,1,-22.4938,-50.0862)">
                <path d="M203.916,161.124L209.676,166.884C209.789,166.996 209.971,166.996 210.084,166.884C210.196,166.771 210.196,166.589 210.084,166.476L204.324,160.716C204.211,160.604 204.029,160.604 203.916,160.716C203.804,160.829 203.804,161.011 203.916,161.124Z"/>
            </g>
        </g>
        <g transform="matrix(16.6667,0,0,16.6667,0,0)">
            <g transform="matrix(1,0,0,1,-22.4938,-50.0862)">
                <path d="M186.84,166.68L191.16,155.16" style="fill:none;fill-rule:nonzero;"/>
            </g>
        </g>
        <g transform="matrix(16.6667,0,0,16.6667,0,0)">
            <g transform="matrix(1,0,0,1,-22.4938,-50.0862)">
                <path d="M187.11,166.781L191.43,155.261C191.485,155.112 191.41,154.946 191.261,154.89C191.112,154.835 190.946,154.91 190.89,155.059L186.57,166.579C186.515,166.728 186.59,166.894 186.739,166.95C186.888,167.005 187.054,166.93 187.11,166.781Z"/>
            </g>
        </g>
        <g transform="matrix(16.6667,0,0,16.6667,0,0)">
            <g transform="matrix(1,0,0,1,-22.4938,-50.0862)">
                <path d="M191.16,155.16L194.04,160.92" style="fill:none;fill-rule:nonzero;"/>
            </g>
        </g>
        <g transform="matrix(16.6667,0,0,16.6667,0,0)">
            <g transform="matrix(1,0,0,1,-22.4938,-50.0862)">
                <path d="M190.516,155.482L193.396,161.242C193.574,161.597 194.007,161.742 194.362,161.564C194.717,161.386 194.862,160.953 194.684,160.598L191.804,154.838C191.626,154.483 191.193,154.338 190.838,154.516C190.483,154.694 190.338,155.127 190.516,155.482Z"/>
            </g>
        </g>
        <g transform="matrix(16.6667,0,0,16.6667,0,0)">
            <g transform="matrix(1,0,0,1,-22.4938,-50.0862)">
                <path d="M186.84,154.08L184.824,152.568" style="fill:none;fill-rule:nonzero;"/>
            </g>
        </g>
        <g transform="matrix(16.6667,0,0,16.6667,0,0)">
            <g transform="matrix(1,0,0,1,-22.4938,-50.0862)">
                <path d="M186.942,153.944L184.926,152.432C184.851,152.376 184.744,152.391 184.688,152.466C184.632,152.541 184.647,152.648 184.722,152.704L186.738,154.216C186.813,154.272 186.92,154.257 186.976,154.182C187.032,154.107 187.017,154 186.942,153.944Z"/>
            </g>
        </g>
        <g transform="matrix(16.6667,0,0,16.6667,0,0)">
            <g transform="matrix(1,0,0,1,-22.4938,-50.0862)">
                <circle cx="198.72" cy="162.36" r="14.4" style="fill-opacity:0;"/>
            </g>
        </g>
        <g transform="matrix(16.6667,0,0,16.6667,0,0)">
            <g transform="matrix(1,0,0,1,-22.4938,-50.0862)">
                <path d="M198.72,147.79C190.679,147.79 184.15,154.319 184.15,162.36C184.15,170.401 190.679,176.93 198.72,176.93C206.761,176.93 213.29,170.401 213.29,162.36C213.29,154.319 206.761,147.79 198.72,147.79ZM198.72,148.13C206.574,148.13 212.95,154.506 212.95,162.36C212.95,170.214 206.574,176.59 198.72,176.59C190.866,176.59 184.49,170.214 184.49,162.36C184.49,154.506 190.866,148.13 198.72,148.13Z"/>
            </g>
        </g>
    </g>
</svg>
