<?xml version="1.0" encoding="UTF-8" standalone="no"?>
<!DOCTYPE svg PUBLIC "-//W3C//DTD SVG 1.1//EN" "http://www.w3.org/Graphics/SVG/1.1/DTD/svg11.dtd">
<svg width="100%" height="100%" viewBox="0 0 486 486" version="1.1" xmlns="http://www.w3.org/2000/svg" xmlns:xlink="http://www.w3.org/1999/xlink" xml:space="preserve" xmlns:serif="http://www.serif.com/" style="fill-rule:evenodd;clip-rule:evenodd;stroke-linejoin:round;stroke-miterlimit:2;">
    <g transform="matrix(1,0,0,1,-3270.27,-1628.4)">
        <g transform="matrix(16.6667,0,0,16.6667,0,0)">
            <g transform="matrix(1,0,0,1,-22.4938,-50.0862)">
                <path d="M233.64,163.08L235.08,164.52" style="fill:none;fill-rule:nonzero;"/>
            </g>
        </g>
        <g transform="matrix(16.6667,0,0,16.6667,0,0)">
            <g transform="matrix(1,0,0,1,-22.4938,-50.0862)">
                <path d="M233.436,163.284L234.876,164.724C234.989,164.836 235.171,164.836 235.284,164.724C235.396,164.611 235.396,164.429 235.284,164.316L233.844,162.876C233.731,162.764 233.549,162.764 233.436,162.876C233.324,162.989 233.324,163.171 233.436,163.284Z"/>
            </g>
        </g>
        <g transform="matrix(16.6667,0,0,16.6667,0,0)">
            <g transform="matrix(1,0,0,1,-22.4938,-50.0862)">
                <path d="M231.48,163.08L233.64,163.08" style="fill:none;fill-rule:nonzero;"/>
            </g>
        </g>
        <g transform="matrix(16.6667,0,0,16.6667,0,0)">
            <g transform="matrix(1,0,0,1,-22.4938,-50.0862)">
                <path d="M231.48,163.368L233.64,163.368C233.799,163.368 233.928,163.239 233.928,163.08C233.928,162.921 233.799,162.792 233.64,162.792L231.48,162.792C231.321,162.792 231.192,162.921 231.192,163.08C231.192,163.239 231.321,163.368 231.48,163.368Z"/>
            </g>
        </g>
        <g transform="matrix(16.6667,0,0,16.6667,0,0)">
            <g transform="matrix(1,0,0,1,-22.4938,-50.0862)">
                <path d="M231.48,168.84L230.04,167.4" style="fill:none;fill-rule:nonzero;"/>
            </g>
        </g>
        <g transform="matrix(16.6667,0,0,16.6667,0,0)">
            <g transform="matrix(1,0,0,1,-22.4938,-50.0862)">
                <path d="M231.684,168.636L230.244,167.196C230.131,167.084 229.949,167.084 229.836,167.196C229.724,167.309 229.724,167.491 229.836,167.604L231.276,169.044C231.389,169.156 231.571,169.156 231.684,169.044C231.796,168.931 231.796,168.749 231.684,168.636Z"/>
            </g>
        </g>
        <g transform="matrix(16.6667,0,0,16.6667,0,0)">
            <g transform="matrix(1,0,0,1,-22.4938,-50.0862)">
                <path d="M233.64,168.84L231.48,168.84" style="fill:none;fill-rule:nonzero;"/>
            </g>
        </g>
        <g transform="matrix(16.6667,0,0,16.6667,0,0)">
            <g transform="matrix(1,0,0,1,-22.4938,-50.0862)">
                <path d="M233.64,168.552L231.48,168.552C231.321,168.552 231.192,168.681 231.192,168.84C231.192,168.999 231.321,169.128 231.48,169.128L233.64,169.128C233.799,169.128 233.928,168.999 233.928,168.84C233.928,168.681 233.799,168.552 233.64,168.552Z"/>
            </g>
        </g>
        <g transform="matrix(16.6667,0,0,16.6667,0,0)">
            <g transform="matrix(1,0,0,1,-22.4938,-50.0862)">
                <path d="M235.08,167.4L233.64,168.84" style="fill:none;fill-rule:nonzero;"/>
            </g>
        </g>
        <g transform="matrix(16.6667,0,0,16.6667,0,0)">
            <g transform="matrix(1,0,0,1,-22.4938,-50.0862)">
                <path d="M234.876,167.196L233.436,168.636C233.324,168.749 233.324,168.931 233.436,169.044C233.549,169.156 233.731,169.156 233.844,169.044L235.284,167.604C235.396,167.491 235.396,167.309 235.284,167.196C235.171,167.084 234.989,167.084 234.876,167.196Z"/>
            </g>
        </g>
        <g transform="matrix(16.6667,0,0,16.6667,0,0)">
            <g transform="matrix(1,0,0,1,-22.4938,-50.0862)">
                <path d="M233.64,165.96L235.08,167.4" style="fill:none;fill-rule:nonzero;"/>
            </g>
        </g>
        <g transform="matrix(16.6667,0,0,16.6667,0,0)">
            <g transform="matrix(1,0,0,1,-22.4938,-50.0862)">
                <path d="M233.436,166.164L234.876,167.604C234.989,167.716 235.171,167.716 235.284,167.604C235.396,167.491 235.396,167.309 235.284,167.196L233.844,165.756C233.731,165.644 233.549,165.644 233.436,165.756C233.324,165.869 233.324,166.051 233.436,166.164Z"/>
            </g>
        </g>
        <g transform="matrix(16.6667,0,0,16.6667,0,0)">
            <g transform="matrix(1,0,0,1,-22.4938,-50.0862)">
                <path d="M231.48,165.96L233.64,165.96" style="fill:none;fill-rule:nonzero;"/>
            </g>
        </g>
        <g transform="matrix(16.6667,0,0,16.6667,0,0)">
            <g transform="matrix(1,0,0,1,-22.4938,-50.0862)">
                <path d="M231.48,166.248L233.64,166.248C233.799,166.248 233.928,166.119 233.928,165.96C233.928,165.801 233.799,165.672 233.64,165.672L231.48,165.672C231.321,165.672 231.192,165.801 231.192,165.96C231.192,166.119 231.321,166.248 231.48,166.248Z"/>
            </g>
        </g>
        <g transform="matrix(16.6667,0,0,16.6667,0,0)">
            <g transform="matrix(1,0,0,1,-22.4938,-50.0862)">
                <path d="M230.04,164.52L231.48,165.96" style="fill:none;fill-rule:nonzero;"/>
            </g>
        </g>
        <g transform="matrix(16.6667,0,0,16.6667,0,0)">
            <g transform="matrix(1,0,0,1,-22.4938,-50.0862)">
                <path d="M229.836,164.724L231.276,166.164C231.389,166.276 231.571,166.276 231.684,166.164C231.796,166.051 231.796,165.869 231.684,165.756L230.244,164.316C230.131,164.204 229.949,164.204 229.836,164.316C229.724,164.429 229.724,164.611 229.836,164.724Z"/>
            </g>
        </g>
        <g transform="matrix(16.6667,0,0,16.6667,0,0)">
            <g transform="matrix(1,0,0,1,-22.4938,-50.0862)">
                <path d="M231.48,163.08L230.04,164.52" style="fill:none;fill-rule:nonzero;"/>
            </g>
        </g>
        <g transform="matrix(16.6667,0,0,16.6667,0,0)">
            <g transform="matrix(1,0,0,1,-22.4938,-50.0862)">
                <path d="M231.276,162.876L229.836,164.316C229.724,164.429 229.724,164.611 229.836,164.724C229.949,164.836 230.131,164.836 230.244,164.724L231.684,163.284C231.796,163.171 231.796,162.989 231.684,162.876C231.571,162.764 231.389,162.764 231.276,162.876Z"/>
            </g>
        </g>
        <g transform="matrix(16.6667,0,0,16.6667,0,0)">
            <g transform="matrix(1,0,0,1,-22.4938,-50.0862)">
                <path d="M228.6,160.92L238.68,160.92" style="fill:none;fill-rule:nonzero;"/>
            </g>
        </g>
        <g transform="matrix(16.6667,0,0,16.6667,0,0)">
            <g transform="matrix(1,0,0,1,-22.4938,-50.0862)">
                <path d="M228.6,161.64L238.68,161.64C239.077,161.64 239.4,161.317 239.4,160.92C239.4,160.523 239.077,160.2 238.68,160.2L228.6,160.2C228.203,160.2 227.88,160.523 227.88,160.92C227.88,161.317 228.203,161.64 228.6,161.64Z"/>
            </g>
        </g>
        <g transform="matrix(16.6667,0,0,16.6667,0,0)">
            <g transform="matrix(1,0,0,1,-22.4938,-50.0862)">
                <path d="M238.68,160.92L244.44,166.68" style="fill:none;fill-rule:nonzero;"/>
            </g>
        </g>
        <g transform="matrix(16.6667,0,0,16.6667,0,0)">
            <g transform="matrix(1,0,0,1,-22.4938,-50.0862)">
                <path d="M238.476,161.124L244.236,166.884C244.349,166.996 244.531,166.996 244.644,166.884C244.756,166.771 244.756,166.589 244.644,166.476L238.884,160.716C238.771,160.604 238.589,160.604 238.476,160.716C238.364,160.829 238.364,161.011 238.476,161.124Z"/>
            </g>
        </g>
        <g transform="matrix(16.6667,0,0,16.6667,0,0)">
            <g transform="matrix(1,0,0,1,-22.4938,-50.0862)">
                <path d="M221.4,166.68L225.72,155.16" style="fill:none;fill-rule:nonzero;"/>
            </g>
        </g>
        <g transform="matrix(16.6667,0,0,16.6667,0,0)">
            <g transform="matrix(1,0,0,1,-22.4938,-50.0862)">
                <path d="M221.67,166.781L225.99,155.261C226.045,155.112 225.97,154.946 225.821,154.89C225.672,154.835 225.506,154.91 225.45,155.059L221.13,166.579C221.075,166.728 221.15,166.894 221.299,166.95C221.448,167.005 221.614,166.93 221.67,166.781Z"/>
            </g>
        </g>
        <g transform="matrix(16.6667,0,0,16.6667,0,0)">
            <g transform="matrix(1,0,0,1,-22.4938,-50.0862)">
                <path d="M225.72,155.16L228.6,160.92" style="fill:none;fill-rule:nonzero;"/>
            </g>
        </g>
        <g transform="matrix(16.6667,0,0,16.6667,0,0)">
            <g transform="matrix(1,0,0,1,-22.4938,-50.0862)">
                <path d="M225.462,155.289L228.342,161.049C228.413,161.191 228.587,161.249 228.729,161.178C228.871,161.107 228.929,160.933 228.858,160.791L225.978,155.031C225.907,154.889 225.733,154.831 225.591,154.902C225.449,154.973 225.391,155.147 225.462,155.289Z"/>
            </g>
        </g>
        <g transform="matrix(16.6667,0,0,16.6667,0,0)">
            <g transform="matrix(1,0,0,1,-22.4938,-50.0862)">
                <path d="M221.4,154.08L219.384,152.568" style="fill:none;fill-rule:nonzero;"/>
            </g>
        </g>
        <g transform="matrix(16.6667,0,0,16.6667,0,0)">
            <g transform="matrix(1,0,0,1,-22.4938,-50.0862)">
                <path d="M221.502,153.944L219.486,152.432C219.411,152.376 219.304,152.391 219.248,152.466C219.192,152.541 219.207,152.648 219.282,152.704L221.298,154.216C221.373,154.272 221.48,154.257 221.536,154.182C221.592,154.107 221.577,154 221.502,153.944Z"/>
            </g>
        </g>
        <g transform="matrix(16.6667,0,0,16.6667,0,0)">
            <g transform="matrix(1,0,0,1,-22.4938,-50.0862)">
                <circle cx="233.28" cy="162.36" r="14.4" style="fill-opacity:0;"/>
            </g>
        </g>
        <g transform="matrix(16.6667,0,0,16.6667,0,0)">
            <g transform="matrix(1,0,0,1,-22.4938,-50.0862)">
                <path d="M233.28,147.79C225.239,147.79 218.71,154.319 218.71,162.36C218.71,170.401 225.239,176.93 233.28,176.93C241.321,176.93 247.85,170.401 247.85,162.36C247.85,154.319 241.321,147.79 233.28,147.79ZM233.28,148.13C241.134,148.13 247.51,154.506 247.51,162.36C247.51,170.214 241.134,176.59 233.28,176.59C225.426,176.59 219.05,170.214 219.05,162.36C219.05,154.506 225.426,148.13 233.28,148.13Z"/>
            </g>
        </g>
    </g>
</svg>
