<?xml version="1.0" encoding="UTF-8" standalone="no"?>
<!DOCTYPE svg PUBLIC "-//W3C//DTD SVG 1.1//EN" "http://www.w3.org/Graphics/SVG/1.1/DTD/svg11.dtd">
<svg width="100%" height="100%" viewBox="0 0 486 486" version="1.1" xmlns="http://www.w3.org/2000/svg" xmlns:xlink="http://www.w3.org/1999/xlink" xml:space="preserve" xmlns:serif="http://www.serif.com/" style="fill-rule:evenodd;clip-rule:evenodd;stroke-linejoin:round;stroke-miterlimit:2;">
    <g transform="matrix(1,0,0,1,-3846.27,-1628.4)">
        <g transform="matrix(16.6667,0,0,16.6667,0,0)">
            <g transform="matrix(1,0,0,1,-22.4938,-50.0862)">
                <path d="M269.64,167.4L269.64,168.84" style="fill:none;fill-rule:nonzero;"/>
            </g>
        </g>
        <g transform="matrix(16.6667,0,0,16.6667,0,0)">
            <g transform="matrix(1,0,0,1,-22.4938,-50.0862)">
                <path d="M269.352,167.4L269.352,168.84C269.352,168.999 269.481,169.128 269.64,169.128C269.799,169.128 269.928,168.999 269.928,168.84L269.928,167.4C269.928,167.241 269.799,167.112 269.64,167.112C269.481,167.112 269.352,167.241 269.352,167.4Z"/>
            </g>
        </g>
        <g transform="matrix(16.6667,0,0,16.6667,0,0)">
            <g transform="matrix(1,0,0,1,-22.4938,-50.0862)">
                <path d="M268.2,165.96L269.64,167.4" style="fill:none;fill-rule:nonzero;"/>
            </g>
        </g>
        <g transform="matrix(16.6667,0,0,16.6667,0,0)">
            <g transform="matrix(1,0,0,1,-22.4938,-50.0862)">
                <path d="M267.996,166.164L269.436,167.604C269.549,167.716 269.731,167.716 269.844,167.604C269.956,167.491 269.956,167.309 269.844,167.196L268.404,165.756C268.291,165.644 268.109,165.644 267.996,165.756C267.884,165.869 267.884,166.051 267.996,166.164Z"/>
            </g>
        </g>
        <g transform="matrix(16.6667,0,0,16.6667,0,0)">
            <g transform="matrix(1,0,0,1,-22.4938,-50.0862)">
                <path d="M264.6,165.96L268.2,165.96" style="fill:none;fill-rule:nonzero;"/>
            </g>
        </g>
        <g transform="matrix(16.6667,0,0,16.6667,0,0)">
            <g transform="matrix(1,0,0,1,-22.4938,-50.0862)">
                <path d="M264.6,166.248L268.2,166.248C268.359,166.248 268.488,166.119 268.488,165.96C268.488,165.801 268.359,165.672 268.2,165.672L264.6,165.672C264.441,165.672 264.312,165.801 264.312,165.96C264.312,166.119 264.441,166.248 264.6,166.248Z"/>
            </g>
        </g>
        <g transform="matrix(16.6667,0,0,16.6667,0,0)">
            <g transform="matrix(1,0,0,1,-22.4938,-50.0862)">
                <path d="M268.2,165.96L264.6,165.96" style="fill:none;fill-rule:nonzero;"/>
            </g>
        </g>
        <g transform="matrix(16.6667,0,0,16.6667,0,0)">
            <g transform="matrix(1,0,0,1,-22.4938,-50.0862)">
                <path d="M268.2,165.672L264.6,165.672C264.441,165.672 264.312,165.801 264.312,165.96C264.312,166.119 264.441,166.248 264.6,166.248L268.2,166.248C268.359,166.248 268.488,166.119 268.488,165.96C268.488,165.801 268.359,165.672 268.2,165.672Z"/>
            </g>
        </g>
        <g transform="matrix(16.6667,0,0,16.6667,0,0)">
            <g transform="matrix(1,0,0,1,-22.4938,-50.0862)">
                <path d="M269.64,164.52L268.2,165.96" style="fill:none;fill-rule:nonzero;"/>
            </g>
        </g>
        <g transform="matrix(16.6667,0,0,16.6667,0,0)">
            <g transform="matrix(1,0,0,1,-22.4938,-50.0862)">
                <path d="M269.436,164.316L267.996,165.756C267.884,165.869 267.884,166.051 267.996,166.164C268.109,166.276 268.291,166.276 268.404,166.164L269.844,164.724C269.956,164.611 269.956,164.429 269.844,164.316C269.731,164.204 269.549,164.204 269.436,164.316Z"/>
            </g>
        </g>
        <g transform="matrix(16.6667,0,0,16.6667,0,0)">
            <g transform="matrix(1,0,0,1,-22.4938,-50.0862)">
                <path d="M268.2,163.08L269.64,164.52" style="fill:none;fill-rule:nonzero;"/>
            </g>
        </g>
        <g transform="matrix(16.6667,0,0,16.6667,0,0)">
            <g transform="matrix(1,0,0,1,-22.4938,-50.0862)">
                <path d="M267.996,163.284L269.436,164.724C269.549,164.836 269.731,164.836 269.844,164.724C269.956,164.611 269.956,164.429 269.844,164.316L268.404,162.876C268.291,162.764 268.109,162.764 267.996,162.876C267.884,162.989 267.884,163.171 267.996,163.284Z"/>
            </g>
        </g>
        <g transform="matrix(16.6667,0,0,16.6667,0,0)">
            <g transform="matrix(1,0,0,1,-22.4938,-50.0862)">
                <path d="M264.6,163.08L268.2,163.08" style="fill:none;fill-rule:nonzero;"/>
            </g>
        </g>
        <g transform="matrix(16.6667,0,0,16.6667,0,0)">
            <g transform="matrix(1,0,0,1,-22.4938,-50.0862)">
                <path d="M264.6,163.368L268.2,163.368C268.359,163.368 268.488,163.239 268.488,163.08C268.488,162.921 268.359,162.792 268.2,162.792L264.6,162.792C264.441,162.792 264.312,162.921 264.312,163.08C264.312,163.239 264.441,163.368 264.6,163.368Z"/>
            </g>
        </g>
        <g transform="matrix(16.6667,0,0,16.6667,0,0)">
            <g transform="matrix(1,0,0,1,-22.4938,-50.0862)">
                <path d="M264.6,163.08L264.6,168.84" style="fill:none;fill-rule:nonzero;"/>
            </g>
        </g>
        <g transform="matrix(16.6667,0,0,16.6667,0,0)">
            <g transform="matrix(1,0,0,1,-22.4938,-50.0862)">
                <path d="M264.312,163.08L264.312,168.84C264.312,168.999 264.441,169.128 264.6,169.128C264.759,169.128 264.888,168.999 264.888,168.84L264.888,163.08C264.888,162.921 264.759,162.792 264.6,162.792C264.441,162.792 264.312,162.921 264.312,163.08Z"/>
            </g>
        </g>
        <g transform="matrix(16.6667,0,0,16.6667,0,0)">
            <g transform="matrix(1,0,0,1,-22.4938,-50.0862)">
                <path d="M263.16,160.92L273.24,160.92" style="fill:none;fill-rule:nonzero;"/>
            </g>
        </g>
        <g transform="matrix(16.6667,0,0,16.6667,0,0)">
            <g transform="matrix(1,0,0,1,-22.4938,-50.0862)">
                <path d="M263.16,161.208L273.24,161.208C273.399,161.208 273.528,161.079 273.528,160.92C273.528,160.761 273.399,160.632 273.24,160.632L263.16,160.632C263.001,160.632 262.872,160.761 262.872,160.92C262.872,161.079 263.001,161.208 263.16,161.208Z"/>
            </g>
        </g>
        <g transform="matrix(16.6667,0,0,16.6667,0,0)">
            <g transform="matrix(1,0,0,1,-22.4938,-50.0862)">
                <path d="M273.24,160.92L279,166.68" style="fill:none;fill-rule:nonzero;"/>
            </g>
        </g>
        <g transform="matrix(16.6667,0,0,16.6667,0,0)">
            <g transform="matrix(1,0,0,1,-22.4938,-50.0862)">
                <path d="M272.731,161.429L278.491,167.189C278.772,167.47 279.228,167.47 279.509,167.189C279.79,166.908 279.79,166.452 279.509,166.171L273.749,160.411C273.468,160.13 273.012,160.13 272.731,160.411C272.45,160.692 272.45,161.148 272.731,161.429Z"/>
            </g>
        </g>
        <g transform="matrix(16.6667,0,0,16.6667,0,0)">
            <g transform="matrix(1,0,0,1,-22.4938,-50.0862)">
                <path d="M255.96,166.68L260.28,155.16" style="fill:none;fill-rule:nonzero;"/>
            </g>
        </g>
        <g transform="matrix(16.6667,0,0,16.6667,0,0)">
            <g transform="matrix(1,0,0,1,-22.4938,-50.0862)">
                <path d="M256.23,166.781L260.55,155.261C260.605,155.112 260.53,154.946 260.381,154.89C260.232,154.835 260.066,154.91 260.01,155.059L255.69,166.579C255.635,166.728 255.71,166.894 255.859,166.95C256.008,167.005 256.174,166.93 256.23,166.781Z"/>
            </g>
        </g>
        <g transform="matrix(16.6667,0,0,16.6667,0,0)">
            <g transform="matrix(1,0,0,1,-22.4938,-50.0862)">
                <path d="M260.28,155.16L263.16,160.92" style="fill:none;fill-rule:nonzero;"/>
            </g>
        </g>
        <g transform="matrix(16.6667,0,0,16.6667,0,0)">
            <g transform="matrix(1,0,0,1,-22.4938,-50.0862)">
                <path d="M260.022,155.289L262.902,161.049C262.973,161.191 263.147,161.249 263.289,161.178C263.431,161.107 263.489,160.933 263.418,160.791L260.538,155.031C260.467,154.889 260.293,154.831 260.151,154.902C260.009,154.973 259.951,155.147 260.022,155.289Z"/>
            </g>
        </g>
        <g transform="matrix(16.6667,0,0,16.6667,0,0)">
            <g transform="matrix(1,0,0,1,-22.4938,-50.0862)">
                <path d="M255.96,154.08L253.944,152.568" style="fill:none;fill-rule:nonzero;"/>
            </g>
        </g>
        <g transform="matrix(16.6667,0,0,16.6667,0,0)">
            <g transform="matrix(1,0,0,1,-22.4938,-50.0862)">
                <path d="M256.062,153.944L254.046,152.432C253.971,152.376 253.864,152.391 253.808,152.466C253.752,152.541 253.767,152.648 253.842,152.704L255.858,154.216C255.933,154.272 256.04,154.257 256.096,154.182C256.152,154.107 256.137,154 256.062,153.944Z"/>
            </g>
        </g>
        <g transform="matrix(16.6667,0,0,16.6667,0,0)">
            <g transform="matrix(1,0,0,1,-22.4938,-50.0862)">
                <circle cx="267.84" cy="162.36" r="14.4" style="fill-opacity:0;"/>
            </g>
        </g>
        <g transform="matrix(16.6667,0,0,16.6667,0,0)">
            <g transform="matrix(1,0,0,1,-22.4938,-50.0862)">
                <path d="M267.84,147.79C259.799,147.79 253.27,154.319 253.27,162.36C253.27,170.401 259.799,176.93 267.84,176.93C275.881,176.93 282.41,170.401 282.41,162.36C282.41,154.319 275.881,147.79 267.84,147.79ZM267.84,148.13C275.694,148.13 282.07,154.506 282.07,162.36C282.07,170.214 275.694,176.59 267.84,176.59C259.986,176.59 253.61,170.214 253.61,162.36C253.61,154.506 259.986,148.13 267.84,148.13Z"/>
            </g>
        </g>
    </g>
</svg>
