<?xml version="1.0" encoding="UTF-8" standalone="no"?>
<!DOCTYPE svg PUBLIC "-//W3C//DTD SVG 1.1//EN" "http://www.w3.org/Graphics/SVG/1.1/DTD/svg11.dtd">
<svg width="100%" height="100%" viewBox="0 0 486 486" version="1.1" xmlns="http://www.w3.org/2000/svg" xmlns:xlink="http://www.w3.org/1999/xlink" xml:space="preserve" xmlns:serif="http://www.serif.com/" style="fill-rule:evenodd;clip-rule:evenodd;stroke-linejoin:round;stroke-miterlimit:2;">
    <g transform="matrix(1,0,0,1,-4422.27,-1628.4)">
        <g transform="matrix(16.6667,0,0,16.6667,0,0)">
            <g transform="matrix(1,0,0,1,-22.4938,-50.0862)">
                <path d="M290.52,154.08L288.504,152.568" style="fill:none;fill-rule:nonzero;"/>
            </g>
        </g>
        <g transform="matrix(16.6667,0,0,16.6667,0,0)">
            <g transform="matrix(1,0,0,1,-22.4938,-50.0862)">
                <path d="M290.622,153.944L288.606,152.432C288.531,152.376 288.424,152.391 288.368,152.466C288.312,152.541 288.327,152.648 288.402,152.704L290.418,154.216C290.493,154.272 290.6,154.257 290.656,154.182C290.712,154.107 290.697,154 290.622,153.944Z"/>
            </g>
        </g>
        <g transform="matrix(16.6667,0,0,16.6667,0,0)">
            <g transform="matrix(1,0,0,1,-22.4938,-50.0862)">
                <circle cx="302.4" cy="162.36" r="14.4" style="fill-opacity:0;"/>
            </g>
        </g>
        <g transform="matrix(16.6667,0,0,16.6667,0,0)">
            <g transform="matrix(1,0,0,1,-22.4938,-50.0862)">
                <path d="M302.4,147.79C294.359,147.79 287.83,154.319 287.83,162.36C287.83,170.401 294.359,176.93 302.4,176.93C310.441,176.93 316.97,170.401 316.97,162.36C316.97,154.319 310.441,147.79 302.4,147.79ZM302.4,148.13C310.254,148.13 316.63,154.506 316.63,162.36C316.63,170.214 310.254,176.59 302.4,176.59C294.546,176.59 288.17,170.214 288.17,162.36C288.17,154.506 294.546,148.13 302.4,148.13Z"/>
            </g>
        </g>
    </g>
</svg>
