<?xml version="1.0" encoding="UTF-8" standalone="no"?>
<!DOCTYPE svg PUBLIC "-//W3C//DTD SVG 1.1//EN" "http://www.w3.org/Graphics/SVG/1.1/DTD/svg11.dtd">
<svg width="100%" height="100%" viewBox="0 0 486 486" version="1.1" xmlns="http://www.w3.org/2000/svg" xmlns:xlink="http://www.w3.org/1999/xlink" xml:space="preserve" xmlns:serif="http://www.serif.com/" style="fill-rule:evenodd;clip-rule:evenodd;stroke-linejoin:round;stroke-miterlimit:2;">
    <g transform="matrix(1,0,0,1,-4998.27,-1628.4)">
        <g transform="matrix(16.6667,0,0,16.6667,0,0)">
            <g transform="matrix(1,0,0,1,-22.4938,-50.0862)">
                <path d="M330.703,154.937L346.334,166.817" style="fill:none;fill-rule:nonzero;"/>
            </g>
        </g>
        <g transform="matrix(16.6667,0,0,16.6667,0,0)">
            <g transform="matrix(1,0,0,1,-22.4938,-50.0862)">
                <path d="M330.529,155.166L346.16,167.046C346.287,167.142 346.468,167.118 346.564,166.991C346.66,166.865 346.635,166.684 346.509,166.588L330.877,154.708C330.751,154.611 330.57,154.636 330.474,154.763C330.378,154.889 330.402,155.07 330.529,155.166Z"/>
            </g>
        </g>
        <g transform="matrix(16.6667,0,0,16.6667,0,0)">
            <g transform="matrix(1,0,0,1,-22.4938,-50.0862)">
                <path d="M328.183,166.817L330.703,154.937" style="fill:none;fill-rule:nonzero;"/>
            </g>
        </g>
        <g transform="matrix(16.6667,0,0,16.6667,0,0)">
            <g transform="matrix(1,0,0,1,-22.4938,-50.0862)">
                <path d="M328.465,166.877L330.985,154.997C331.018,154.841 330.918,154.688 330.763,154.655C330.607,154.622 330.454,154.722 330.421,154.877L327.901,166.757C327.868,166.913 327.968,167.066 328.123,167.099C328.279,167.132 328.432,167.032 328.465,166.877Z"/>
            </g>
        </g>
        <g transform="matrix(16.6667,0,0,16.6667,0,0)">
            <g transform="matrix(1,0,0,1,-22.4938,-50.0862)">
                <circle cx="336.96" cy="162.36" r="14.4" style="fill-opacity:0;"/>
            </g>
        </g>
        <g transform="matrix(16.6667,0,0,16.6667,0,0)">
            <g transform="matrix(1,0,0,1,-22.4938,-50.0862)">
                <path d="M336.96,147.79C328.919,147.79 322.39,154.319 322.39,162.36C322.39,170.401 328.919,176.93 336.96,176.93C345.001,176.93 351.53,170.401 351.53,162.36C351.53,154.319 345.001,147.79 336.96,147.79ZM336.96,148.13C344.814,148.13 351.19,154.506 351.19,162.36C351.19,170.214 344.814,176.59 336.96,176.59C329.106,176.59 322.73,170.214 322.73,162.36C322.73,154.506 329.106,148.13 336.96,148.13Z"/>
            </g>
        </g>
        <g transform="matrix(16.6667,0,0,16.6667,0,0)">
            <g transform="matrix(1,0,0,1,-22.4938,-50.0862)">
                <path d="M325.08,154.08L323.064,152.568" style="fill:none;fill-rule:nonzero;"/>
            </g>
        </g>
        <g transform="matrix(16.6667,0,0,16.6667,0,0)">
            <g transform="matrix(1,0,0,1,-22.4938,-50.0862)">
                <path d="M325.182,153.944L323.166,152.432C323.091,152.376 322.984,152.391 322.928,152.466C322.872,152.541 322.887,152.648 322.962,152.704L324.978,154.216C325.053,154.272 325.16,154.257 325.216,154.182C325.272,154.107 325.257,154 325.182,153.944Z"/>
            </g>
        </g>
    </g>
</svg>
