<?xml version="1.0" encoding="UTF-8" standalone="no"?>
<!DOCTYPE svg PUBLIC "-//W3C//DTD SVG 1.1//EN" "http://www.w3.org/Graphics/SVG/1.1/DTD/svg11.dtd">
<svg width="100%" height="100%" viewBox="0 0 486 486" version="1.1" xmlns="http://www.w3.org/2000/svg" xmlns:xlink="http://www.w3.org/1999/xlink" xml:space="preserve" xmlns:serif="http://www.serif.com/" style="fill-rule:evenodd;clip-rule:evenodd;stroke-linejoin:round;stroke-miterlimit:2;">
    <g transform="matrix(1,0,0,1,-1542.27,-2168.4)">
        <g transform="matrix(16.6667,0,0,16.6667,0,0)">
            <g transform="matrix(1,0,0,1,-22.4938,-50.0862)">
                <path d="M119.16,187.92C119.013,188.144 118.873,188.373 118.741,188.607" style="fill-opacity:0;fill-rule:nonzero;"/>
            </g>
        </g>
        <g transform="matrix(16.6667,0,0,16.6667,0,0)">
            <g transform="matrix(1,0,0,1,-22.4938,-50.0862)">
                <path d="M119.401,188.078L118.919,187.762C118.769,187.992 118.626,188.226 118.49,188.465C118.412,188.603 118.461,188.779 118.599,188.857C118.737,188.936 118.913,188.887 118.992,188.749C119.121,188.521 119.257,188.297 119.401,188.078Z"/>
            </g>
        </g>
        <g transform="matrix(16.6667,0,0,16.6667,0,0)">
            <g transform="matrix(1,0,0,1,-22.4938,-50.0862)">
                <path d="M137.16,204.48C137.293,204.376 137.425,204.27 137.554,204.16" style="fill-opacity:0;fill-rule:nonzero;"/>
            </g>
        </g>
        <g transform="matrix(16.6667,0,0,16.6667,0,0)">
            <g transform="matrix(1,0,0,1,-22.4938,-50.0862)">
                <path d="M137.337,204.707C137.473,204.601 137.608,204.492 137.74,204.38C137.861,204.277 137.876,204.096 137.774,203.974C137.671,203.853 137.489,203.838 137.368,203.94C137.242,204.047 137.113,204.151 136.983,204.253C136.858,204.35 136.835,204.531 136.933,204.657C137.03,204.782 137.211,204.805 137.337,204.707Z"/>
            </g>
        </g>
        <g transform="matrix(16.6667,0,0,16.6667,0,0)">
            <g transform="matrix(1,0,0,1,-22.4938,-50.0862)">
                <path d="M124.56,197.28C124.679,197.519 124.815,197.748 124.967,197.968" style="fill-opacity:0;fill-rule:nonzero;"/>
            </g>
        </g>
        <g transform="matrix(16.6667,0,0,16.6667,0,0)">
            <g transform="matrix(1,0,0,1,-22.4938,-50.0862)">
                <path d="M124.302,197.409C124.428,197.659 124.57,197.901 124.73,198.131C124.82,198.262 125,198.295 125.131,198.204C125.261,198.114 125.294,197.934 125.204,197.804C125.06,197.596 124.931,197.378 124.818,197.151C124.747,197.009 124.573,196.951 124.431,197.022C124.289,197.093 124.231,197.267 124.302,197.409Z"/>
            </g>
        </g>
        <g transform="matrix(16.6667,0,0,16.6667,0,0)">
            <g transform="matrix(1,0,0,1,-22.4938,-50.0862)">
                <path d="M135,205.92C135.19,205.828 135.377,205.732 135.562,205.631" style="fill-opacity:0;fill-rule:nonzero;"/>
            </g>
        </g>
        <g transform="matrix(16.6667,0,0,16.6667,0,0)">
            <g transform="matrix(1,0,0,1,-22.4938,-50.0862)">
                <path d="M135.125,206.179C135.319,206.085 135.511,205.987 135.7,205.883C135.839,205.807 135.891,205.632 135.814,205.492C135.738,205.353 135.563,205.302 135.423,205.378C135.243,205.477 135.06,205.571 134.875,205.661C134.732,205.73 134.672,205.902 134.741,206.045C134.81,206.188 134.982,206.248 135.125,206.179Z"/>
            </g>
        </g>
        <g transform="matrix(16.6667,0,0,16.6667,0,0)">
            <g transform="matrix(1,0,0,1,-22.4938,-50.0862)">
                <path d="M117,195.12C117.01,195.478 117.036,195.835 117.076,196.191" style="fill-opacity:0;fill-rule:nonzero;"/>
            </g>
        </g>
        <g transform="matrix(16.6667,0,0,16.6667,0,0)">
            <g transform="matrix(1,0,0,1,-22.4938,-50.0862)">
                <path d="M117.288,195.112L116.712,195.128C116.723,195.494 116.749,195.86 116.79,196.224C116.808,196.382 116.951,196.496 117.109,196.477C117.267,196.459 117.38,196.317 117.362,196.159C117.323,195.811 117.298,195.462 117.288,195.112Z"/>
            </g>
        </g>
        <g transform="matrix(16.6667,0,0,16.6667,0,0)">
            <g transform="matrix(1,0,0,1,-22.4938,-50.0862)">
                <path d="M122.76,199.8C122.86,199.936 122.965,200.069 123.073,200.199" style="fill-opacity:0;fill-rule:nonzero;"/>
            </g>
        </g>
        <g transform="matrix(16.6667,0,0,16.6667,0,0)">
            <g transform="matrix(1,0,0,1,-22.4938,-50.0862)">
                <path d="M122.528,199.971C122.632,200.112 122.74,200.249 122.852,200.383C122.954,200.505 123.136,200.522 123.258,200.42C123.38,200.318 123.396,200.136 123.294,200.014C123.19,199.889 123.089,199.76 122.992,199.629C122.897,199.501 122.717,199.474 122.589,199.568C122.461,199.663 122.434,199.843 122.528,199.971Z"/>
            </g>
        </g>
        <g transform="matrix(16.6667,0,0,16.6667,0,0)">
            <g transform="matrix(1,0,0,1,-22.4938,-50.0862)">
                <path d="M128.52,207.36C129.826,207.472 131.141,207.38 132.418,207.089" style="fill-opacity:0;fill-rule:nonzero;"/>
            </g>
        </g>
        <g transform="matrix(16.6667,0,0,16.6667,0,0)">
            <g transform="matrix(1,0,0,1,-22.4938,-50.0862)">
                <path d="M128.495,207.647C129.831,207.762 131.176,207.668 132.482,207.369C132.637,207.334 132.734,207.179 132.699,207.024C132.663,206.869 132.509,206.772 132.354,206.808C131.106,207.093 129.82,207.183 128.545,207.073C128.386,207.059 128.247,207.177 128.233,207.335C128.219,207.494 128.337,207.633 128.495,207.647Z"/>
            </g>
        </g>
        <g transform="matrix(16.6667,0,0,16.6667,0,0)">
            <g transform="matrix(1,0,0,1,-22.4938,-50.0862)">
                <path d="M123.84,205.92C124.177,206.094 124.522,206.252 124.873,206.395" style="fill-opacity:0;fill-rule:nonzero;"/>
            </g>
        </g>
        <g transform="matrix(16.6667,0,0,16.6667,0,0)">
            <g transform="matrix(1,0,0,1,-22.4938,-50.0862)">
                <path d="M123.708,206.176C124.053,206.354 124.405,206.516 124.765,206.662C124.912,206.722 125.08,206.651 125.14,206.504C125.2,206.356 125.129,206.188 124.982,206.128C124.638,205.989 124.301,205.834 123.972,205.664C123.831,205.591 123.657,205.647 123.584,205.788C123.511,205.929 123.567,206.103 123.708,206.176Z"/>
            </g>
        </g>
        <g transform="matrix(16.6667,0,0,16.6667,0,0)">
            <g transform="matrix(1,0,0,1,-22.4938,-50.0862)">
                <path d="M119.52,202.32C120.419,203.519 121.526,204.548 122.787,205.359" style="fill-opacity:0;fill-rule:nonzero;"/>
            </g>
        </g>
        <g transform="matrix(16.6667,0,0,16.6667,0,0)">
            <g transform="matrix(1,0,0,1,-22.4938,-50.0862)">
                <path d="M119.29,202.493C120.21,203.719 121.341,204.772 122.631,205.601C122.765,205.687 122.943,205.649 123.029,205.515C123.115,205.381 123.076,205.203 122.942,205.117C121.71,204.325 120.629,203.319 119.75,202.147C119.655,202.02 119.474,201.994 119.347,202.09C119.22,202.185 119.194,202.366 119.29,202.493Z"/>
            </g>
        </g>
        <g transform="matrix(16.6667,0,0,16.6667,0,0)">
            <g transform="matrix(1,0,0,1,-22.4938,-50.0862)">
                <path d="M117.72,198.36C117.893,198.931 118.107,199.489 118.36,200.029" style="fill-opacity:0;fill-rule:nonzero;"/>
            </g>
        </g>
        <g transform="matrix(16.6667,0,0,16.6667,0,0)">
            <g transform="matrix(1,0,0,1,-22.4938,-50.0862)">
                <path d="M117.444,198.444C117.621,199.028 117.84,199.598 118.099,200.151C118.167,200.295 118.338,200.357 118.482,200.29C118.626,200.222 118.688,200.051 118.621,199.907C118.374,199.379 118.165,198.834 117.996,198.276C117.95,198.124 117.789,198.038 117.636,198.084C117.484,198.13 117.398,198.291 117.444,198.444Z"/>
            </g>
        </g>
        <g transform="matrix(16.6667,0,0,16.6667,0,0)">
            <g transform="matrix(1,0,0,1,-22.4938,-50.0862)">
                <path d="M118.08,190.08C117.66,191.114 117.381,192.199 117.251,193.307" style="fill-opacity:0;fill-rule:nonzero;"/>
            </g>
        </g>
        <g transform="matrix(16.6667,0,0,16.6667,0,0)">
            <g transform="matrix(1,0,0,1,-22.4938,-50.0862)">
                <path d="M117.813,189.972C117.383,191.029 117.098,192.14 116.965,193.273C116.946,193.431 117.059,193.574 117.217,193.593C117.375,193.612 117.518,193.499 117.537,193.341C117.664,192.258 117.937,191.198 118.347,190.188C118.407,190.041 118.336,189.873 118.188,189.813C118.041,189.753 117.873,189.824 117.813,189.972Z"/>
            </g>
        </g>
        <g transform="matrix(16.6667,0,0,16.6667,0,0)">
            <g transform="matrix(1,0,0,1,-22.4938,-50.0862)">
                <path d="M132.12,203.04C132.637,202.883 133.138,202.677 133.616,202.427" style="fill-opacity:0;fill-rule:nonzero;"/>
            </g>
        </g>
        <g transform="matrix(16.6667,0,0,16.6667,0,0)">
            <g transform="matrix(1,0,0,1,-22.4938,-50.0862)">
                <path d="M132.12,203.04C132.12,203.328 132.12,203.324 132.12,203.316L132.204,203.316C132.738,203.153 133.255,202.941 133.75,202.682C133.891,202.608 133.945,202.434 133.871,202.293C133.797,202.152 133.623,202.098 133.482,202.171C133.02,202.414 132.536,202.612 132.036,202.764L132.12,203.04Z"/>
            </g>
        </g>
        <g transform="matrix(16.6667,0,0,16.6667,0,0)">
            <g transform="matrix(1,0,0,1,-22.4938,-50.0862)">
                <path d="M125.28,201.96C126.585,202.743 128.078,203.157 129.6,203.157" style="fill-opacity:0;fill-rule:nonzero;"/>
            </g>
        </g>
        <g transform="matrix(16.6667,0,0,16.6667,0,0)">
            <g transform="matrix(1,0,0,1,-22.4938,-50.0862)">
                <path d="M125.132,202.207C126.481,203.017 128.026,203.445 129.6,203.445C129.759,203.445 129.888,203.316 129.888,203.157C129.888,202.998 129.759,202.869 129.6,202.869C128.13,202.869 126.688,202.469 125.428,201.713C125.292,201.631 125.115,201.676 125.033,201.812C124.951,201.948 124.996,202.125 125.132,202.207Z"/>
            </g>
        </g>
        <g transform="matrix(16.6667,0,0,16.6667,0,0)">
            <g transform="matrix(1,0,0,1,-22.4938,-50.0862)">
                <path d="M120.96,194.76C120.96,195.726 121.122,196.686 121.44,197.598" style="fill-opacity:0;fill-rule:nonzero;"/>
            </g>
        </g>
        <g transform="matrix(16.6667,0,0,16.6667,0,0)">
            <g transform="matrix(1,0,0,1,-22.4938,-50.0862)">
                <path d="M120.672,194.76C120.672,195.758 120.84,196.75 121.168,197.693C121.22,197.843 121.384,197.922 121.534,197.87C121.684,197.818 121.764,197.654 121.712,197.504C121.405,196.621 121.248,195.694 121.248,194.76C121.248,194.601 121.119,194.472 120.96,194.472C120.801,194.472 120.672,194.601 120.672,194.76Z"/>
            </g>
        </g>
        <g transform="matrix(16.6667,0,0,16.6667,0,0)">
            <g transform="matrix(1,0,0,1,-22.4938,-50.0862)">
                <path d="M122.4,190.44C122.065,190.998 121.796,191.594 121.599,192.214" style="fill-opacity:0;fill-rule:nonzero;"/>
            </g>
        </g>
        <g transform="matrix(16.6667,0,0,16.6667,0,0)">
            <g transform="matrix(1,0,0,1,-22.4938,-50.0862)">
                <path d="M122.647,190.588L122.153,190.292C121.807,190.869 121.528,191.485 121.324,192.127C121.276,192.278 121.36,192.44 121.511,192.489C121.663,192.537 121.825,192.453 121.873,192.301C122.064,191.702 122.323,191.127 122.647,190.588Z"/>
            </g>
        </g>
        <g transform="matrix(16.6667,0,0,16.6667,0,0)">
            <g transform="matrix(1,0,0,1,-22.4938,-50.0862)">
                <path d="M129.6,200.16C130.287,200.16 130.967,200.029 131.605,199.774" style="fill-opacity:0;fill-rule:nonzero;"/>
            </g>
        </g>
        <g transform="matrix(16.6667,0,0,16.6667,0,0)">
            <g transform="matrix(1,0,0,1,-22.4938,-50.0862)">
                <path d="M129.6,200.448C130.323,200.448 131.04,200.31 131.712,200.041C131.86,199.982 131.932,199.815 131.873,199.667C131.814,199.52 131.646,199.448 131.498,199.507C130.895,199.748 130.25,199.872 129.6,199.872C129.441,199.872 129.312,200.001 129.312,200.16C129.312,200.319 129.441,200.448 129.6,200.448Z"/>
            </g>
        </g>
        <g transform="matrix(16.6667,0,0,16.6667,0,0)">
            <g transform="matrix(1,0,0,1,-22.4938,-50.0862)">
                <path d="M126,198.72C126.322,199.013 126.679,199.266 127.063,199.472" style="fill-opacity:0;fill-rule:nonzero;"/>
            </g>
        </g>
        <g transform="matrix(16.6667,0,0,16.6667,0,0)">
            <g transform="matrix(1,0,0,1,-22.4938,-50.0862)">
                <path d="M125.806,198.933C126.146,199.242 126.522,199.508 126.926,199.726C127.066,199.801 127.241,199.749 127.316,199.609C127.392,199.469 127.339,199.294 127.199,199.219C126.836,199.023 126.499,198.784 126.194,198.507C126.076,198.4 125.894,198.409 125.787,198.526C125.68,198.644 125.689,198.826 125.806,198.933Z"/>
            </g>
        </g>
        <g transform="matrix(16.6667,0,0,16.6667,0,0)">
            <g transform="matrix(1,0,0,1,-22.4938,-50.0862)">
                <path d="M124.56,192.96C124.225,193.897 124.159,194.908 124.367,195.881" style="fill-opacity:0;fill-rule:nonzero;"/>
            </g>
        </g>
        <g transform="matrix(16.6667,0,0,16.6667,0,0)">
            <g transform="matrix(1,0,0,1,-22.4938,-50.0862)">
                <path d="M124.56,192.96L124.289,192.863C123.936,193.85 123.866,194.916 124.085,195.941C124.119,196.097 124.272,196.196 124.427,196.163C124.583,196.129 124.682,195.976 124.649,195.821C124.451,194.9 124.515,193.943 124.831,193.057C124.79,192.96 124.682,192.96 124.56,192.96Z"/>
            </g>
        </g>
        <g transform="matrix(16.6667,0,0,16.6667,0,0)">
            <g transform="matrix(1,0,0,1,-22.4938,-50.0862)">
                <path d="M130.68,198C130.88,197.933 131.074,197.848 131.259,197.745" style="fill-opacity:0;fill-rule:nonzero;"/>
            </g>
        </g>
        <g transform="matrix(16.6667,0,0,16.6667,0,0)">
            <g transform="matrix(1,0,0,1,-22.4938,-50.0862)">
                <path d="M130.771,198.273C130.988,198.201 131.199,198.108 131.399,197.997C131.538,197.92 131.588,197.744 131.511,197.605C131.433,197.466 131.258,197.416 131.119,197.493C130.95,197.587 130.772,197.666 130.589,197.727C130.438,197.777 130.356,197.94 130.407,198.091C130.457,198.242 130.62,198.324 130.771,198.273Z"/>
            </g>
        </g>
        <g transform="matrix(16.6667,0,0,16.6667,0,0)">
            <g transform="matrix(1,0,0,1,-22.4938,-50.0862)">
                <path d="M126.72,196.2C127.208,197.176 128.16,197.84 129.244,197.96" style="fill-opacity:0;fill-rule:nonzero;"/>
            </g>
        </g>
        <g transform="matrix(16.6667,0,0,16.6667,0,0)">
            <g transform="matrix(1,0,0,1,-22.4938,-50.0862)">
                <path d="M126.462,196.329C126.994,197.392 128.031,198.115 129.212,198.247C129.37,198.264 129.513,198.15 129.531,197.992C129.548,197.834 129.434,197.692 129.276,197.674C128.289,197.564 127.422,196.96 126.978,196.071C126.907,195.929 126.733,195.871 126.591,195.942C126.449,196.013 126.391,196.187 126.462,196.329Z"/>
            </g>
        </g>
        <g transform="matrix(16.6667,0,0,16.6667,0,0)">
            <g transform="matrix(1,0,0,1,-22.4938,-50.0862)">
                <path d="M126.72,192.96C126.383,193.5 126.204,194.124 126.204,194.76" style="fill-opacity:0;fill-rule:nonzero;"/>
            </g>
        </g>
        <g transform="matrix(16.6667,0,0,16.6667,0,0)">
            <g transform="matrix(1,0,0,1,-22.4938,-50.0862)">
                <path d="M126.476,192.807C126.11,193.393 125.916,194.07 125.916,194.76C125.916,194.919 126.045,195.048 126.204,195.048C126.363,195.048 126.492,194.919 126.492,194.76C126.492,194.178 126.656,193.607 126.964,193.113C127.048,192.978 127.007,192.8 126.873,192.716C126.738,192.632 126.56,192.673 126.476,192.807Z"/>
            </g>
        </g>
        <g transform="matrix(16.6667,0,0,16.6667,0,0)">
            <g transform="matrix(1,0,0,1,-22.4938,-50.0862)">
                <path d="M129.24,196.56C129.589,196.63 129.951,196.597 130.282,196.464" style="fill-opacity:0;fill-rule:nonzero;"/>
            </g>
        </g>
        <g transform="matrix(16.6667,0,0,16.6667,0,0)">
            <g transform="matrix(1,0,0,1,-22.4938,-50.0862)">
                <path d="M129.296,196.278L129.184,196.842C129.587,196.923 130.006,196.885 130.389,196.732C130.536,196.673 130.608,196.505 130.549,196.357C130.49,196.21 130.322,196.138 130.175,196.197C129.896,196.308 129.591,196.336 129.296,196.278Z"/>
            </g>
        </g>
        <g transform="matrix(16.6667,0,0,16.6667,0,0)">
            <g transform="matrix(1,0,0,1,-22.4938,-50.0862)">
                <path d="M127.8,194.04C127.615,194.502 127.615,195.018 127.8,195.48" style="fill-opacity:0;fill-rule:nonzero;"/>
            </g>
        </g>
        <g transform="matrix(16.6667,0,0,16.6667,0,0)">
            <g transform="matrix(1,0,0,1,-22.4938,-50.0862)">
                <path d="M127.533,193.933C127.32,194.464 127.32,195.056 127.533,195.587C127.592,195.735 127.759,195.806 127.907,195.747C128.055,195.688 128.126,195.521 128.067,195.373C127.91,194.98 127.91,194.54 128.067,194.147C128.126,193.999 128.055,193.832 127.907,193.773C127.759,193.714 127.592,193.785 127.533,193.933Z"/>
            </g>
        </g>
        <g transform="matrix(16.6667,0,0,16.6667,0,0)">
            <g transform="matrix(1,0,0,1,-22.4938,-50.0862)">
                <path d="M135.72,200.52C137.19,198.961 138.01,196.897 138.01,194.754C138.01,190.144 134.216,186.35 129.606,186.35C127.375,186.35 125.233,187.238 123.657,188.817" style="fill-opacity:0;fill-rule:nonzero;"/>
            </g>
        </g>
        <g transform="matrix(16.6667,0,0,16.6667,0,0)">
            <g transform="matrix(1,0,0,1,-22.4938,-50.0862)">
                <path d="M135.93,200.718C137.45,199.105 138.298,196.97 138.298,194.754C138.298,189.986 134.374,186.062 129.606,186.062C127.298,186.062 125.083,186.98 123.453,188.614C123.341,188.726 123.341,188.909 123.454,189.021C123.566,189.133 123.749,189.133 123.861,189.021C125.383,187.496 127.451,186.638 129.606,186.638C134.058,186.638 137.722,190.302 137.722,194.754C137.722,196.824 136.93,198.817 135.51,200.322C135.401,200.438 135.407,200.62 135.522,200.73C135.638,200.839 135.82,200.833 135.93,200.718Z"/>
            </g>
        </g>
        <g transform="matrix(16.6667,0,0,16.6667,0,0)">
            <g transform="matrix(1,0,0,1,-22.4938,-50.0862)">
                <circle cx="129.6" cy="194.76" r="0.805" style="fill-opacity:0;"/>
            </g>
        </g>
        <g transform="matrix(16.6667,0,0,16.6667,0,0)">
            <g transform="matrix(1,0,0,1,-22.4938,-50.0862)">
                <path d="M129.6,193.667C128.997,193.667 128.507,194.157 128.507,194.76C128.507,195.363 128.997,195.853 129.6,195.853C130.203,195.853 130.693,195.363 130.693,194.76C130.693,194.157 130.203,193.667 129.6,193.667ZM129.6,194.243C129.885,194.243 130.117,194.475 130.117,194.76C130.117,195.045 129.885,195.277 129.6,195.277C129.315,195.277 129.083,195.045 129.083,194.76C129.083,194.475 129.315,194.243 129.6,194.243Z"/>
            </g>
        </g>
        <g transform="matrix(16.6667,0,0,16.6667,0,0)">
            <g transform="matrix(1,0,0,1,-22.4938,-50.0862)">
                <path d="M138.6,203.4C140.825,201.078 142.068,197.984 142.068,194.768C142.068,187.924 136.436,182.292 129.592,182.292C126.192,182.292 122.936,183.682 120.584,186.137" style="fill-opacity:0;fill-rule:nonzero;"/>
            </g>
        </g>
        <g transform="matrix(16.6667,0,0,16.6667,0,0)">
            <g transform="matrix(1,0,0,1,-22.4938,-50.0862)">
                <path d="M138.808,203.599C141.084,201.224 142.356,198.058 142.356,194.768C142.356,187.766 136.594,182.004 129.592,182.004C126.114,182.004 122.783,183.426 120.376,185.937C120.266,186.052 120.27,186.235 120.385,186.345C120.5,186.454 120.682,186.451 120.792,186.336C123.09,183.938 126.271,182.58 129.592,182.58C136.278,182.58 141.78,188.082 141.78,194.768C141.78,197.91 140.565,200.933 138.392,203.201C138.282,203.316 138.286,203.498 138.401,203.608C138.516,203.718 138.698,203.714 138.808,203.599Z"/>
            </g>
        </g>
        <g transform="matrix(16.6667,0,0,16.6667,0,0)">
            <g transform="matrix(1,0,0,1,-22.4938,-50.0862)">
                <path d="M133.56,198.36C134.457,197.375 134.954,196.089 134.954,194.757C134.954,191.821 132.538,189.405 129.603,189.405C128.242,189.405 126.931,189.924 125.94,190.855" style="fill-opacity:0;fill-rule:nonzero;"/>
            </g>
        </g>
        <g transform="matrix(16.6667,0,0,16.6667,0,0)">
            <g transform="matrix(1,0,0,1,-22.4938,-50.0862)">
                <path d="M133.773,198.554C134.718,197.516 135.242,196.161 135.242,194.757C135.242,191.663 132.696,189.117 129.603,189.117C128.169,189.117 126.788,189.664 125.742,190.645C125.627,190.754 125.621,190.937 125.73,191.053C125.838,191.168 126.021,191.174 126.137,191.065C127.075,190.184 128.315,189.693 129.603,189.693C132.38,189.693 134.666,191.979 134.666,194.757C134.666,196.018 134.196,197.234 133.347,198.166C133.24,198.284 133.249,198.466 133.366,198.573C133.484,198.68 133.666,198.671 133.773,198.554Z"/>
            </g>
        </g>
        <g transform="matrix(16.6667,0,0,16.6667,0,0)">
            <g transform="matrix(1,0,0,1,-22.4938,-50.0862)">
                <path d="M132.12,196.92C132.636,196.319 132.919,195.552 132.919,194.759C132.919,192.939 131.421,191.44 129.6,191.44C128.796,191.44 128.019,191.733 127.414,192.262" style="fill-opacity:0;fill-rule:nonzero;"/>
            </g>
        </g>
        <g transform="matrix(16.6667,0,0,16.6667,0,0)">
            <g transform="matrix(1,0,0,1,-22.4938,-50.0862)">
                <path d="M132.339,197.107C132.899,196.454 133.207,195.621 133.207,194.759C133.207,192.781 131.579,191.152 129.6,191.152C128.727,191.152 127.882,191.47 127.224,192.046C127.105,192.15 127.093,192.332 127.197,192.452C127.302,192.572 127.484,192.584 127.604,192.479C128.156,191.995 128.866,191.728 129.6,191.728C131.263,191.728 132.631,193.097 132.631,194.759C132.631,195.483 132.372,196.183 131.901,196.733C131.798,196.853 131.812,197.035 131.933,197.139C132.053,197.242 132.235,197.228 132.339,197.107Z"/>
            </g>
        </g>
        <g transform="matrix(16.6667,0,0,16.6667,0,0)">
            <g transform="matrix(1,0,0,1,-22.4938,-50.0862)">
                <path d="M131.04,195.84C131.274,195.528 131.4,195.149 131.4,194.76C131.4,193.772 130.588,192.96 129.6,192.96C129.179,192.96 128.771,193.107 128.448,193.377" style="fill-opacity:0;fill-rule:nonzero;"/>
            </g>
        </g>
        <g transform="matrix(16.6667,0,0,16.6667,0,0)">
            <g transform="matrix(1,0,0,1,-22.4938,-50.0862)">
                <path d="M131.27,196.013C131.541,195.651 131.688,195.212 131.688,194.76C131.688,193.614 130.746,192.672 129.6,192.672C129.112,192.672 128.639,192.843 128.264,193.156C128.142,193.257 128.125,193.439 128.227,193.561C128.328,193.683 128.51,193.7 128.632,193.598C128.904,193.372 129.247,193.248 129.6,193.248C130.43,193.248 131.112,193.93 131.112,194.76C131.112,195.087 131.006,195.405 130.81,195.667C130.714,195.794 130.74,195.975 130.867,196.07C130.994,196.166 131.175,196.14 131.27,196.013Z"/>
            </g>
        </g>
        <g transform="matrix(16.6667,0,0,16.6667,0,0)">
            <g transform="matrix(1,0,0,1,-22.4938,-50.0862)">
                <path d="M117.72,186.48L115.704,184.968" style="fill:none;fill-rule:nonzero;"/>
            </g>
        </g>
        <g transform="matrix(16.6667,0,0,16.6667,0,0)">
            <g transform="matrix(1,0,0,1,-22.4938,-50.0862)">
                <path d="M117.822,186.344L115.806,184.832C115.731,184.776 115.624,184.791 115.568,184.866C115.512,184.941 115.527,185.048 115.602,185.104L117.618,186.616C117.693,186.672 117.8,186.657 117.856,186.582C117.912,186.507 117.897,186.4 117.822,186.344Z"/>
            </g>
        </g>
        <g transform="matrix(16.6667,0,0,16.6667,0,0)">
            <g transform="matrix(1,0,0,1,-22.4938,-50.0862)">
                <circle cx="129.6" cy="194.76" r="14.4" style="fill-opacity:0;"/>
            </g>
        </g>
        <g transform="matrix(16.6667,0,0,16.6667,0,0)">
            <g transform="matrix(1,0,0,1,-22.4938,-50.0862)">
                <path d="M129.6,180.19C121.559,180.19 115.03,186.719 115.03,194.76C115.03,202.801 121.559,209.33 129.6,209.33C137.641,209.33 144.17,202.801 144.17,194.76C144.17,186.719 137.641,180.19 129.6,180.19ZM129.6,180.53C137.454,180.53 143.83,186.906 143.83,194.76C143.83,202.614 137.454,208.99 129.6,208.99C121.746,208.99 115.37,202.614 115.37,194.76C115.37,186.906 121.746,180.53 129.6,180.53Z"/>
            </g>
        </g>
    </g>
</svg>
