<?xml version="1.0" encoding="UTF-8" standalone="no"?>
<!DOCTYPE svg PUBLIC "-//W3C//DTD SVG 1.1//EN" "http://www.w3.org/Graphics/SVG/1.1/DTD/svg11.dtd">
<svg width="100%" height="100%" viewBox="0 0 486 486" version="1.1" xmlns="http://www.w3.org/2000/svg" xmlns:xlink="http://www.w3.org/1999/xlink" xml:space="preserve" xmlns:serif="http://www.serif.com/" style="fill-rule:evenodd;clip-rule:evenodd;stroke-linejoin:round;stroke-miterlimit:2;">
    <g transform="matrix(1,0,0,1,-2118.27,-2168.4)">
        <g transform="matrix(16.6667,0,0,16.6667,0,0)">
            <g transform="matrix(1,0,0,1,-22.4938,-50.0862)">
                <path d="M161.28,199.8L164.52,196.56" style="fill:none;fill-rule:nonzero;"/>
            </g>
        </g>
        <g transform="matrix(16.6667,0,0,16.6667,0,0)">
            <g transform="matrix(1,0,0,1,-22.4938,-50.0862)">
                <path d="M161.433,199.953L164.673,196.713C164.757,196.628 164.757,196.492 164.673,196.407C164.588,196.323 164.452,196.323 164.367,196.407L161.127,199.647C161.043,199.732 161.043,199.868 161.127,199.953C161.212,200.037 161.348,200.037 161.433,199.953Z"/>
            </g>
        </g>
        <g transform="matrix(16.6667,0,0,16.6667,0,0)">
            <g transform="matrix(1,0,0,1,-22.4938,-50.0862)">
                <path d="M161.64,201.6L165.96,197.28" style="fill:none;fill-rule:nonzero;"/>
            </g>
        </g>
        <g transform="matrix(16.6667,0,0,16.6667,0,0)">
            <g transform="matrix(1,0,0,1,-22.4938,-50.0862)">
                <path d="M161.793,201.753L166.113,197.433C166.197,197.348 166.197,197.212 166.113,197.127C166.028,197.043 165.892,197.043 165.807,197.127L161.487,201.447C161.403,201.532 161.403,201.668 161.487,201.753C161.572,201.837 161.708,201.837 161.793,201.753Z"/>
            </g>
        </g>
        <g transform="matrix(16.6667,0,0,16.6667,0,0)">
            <g transform="matrix(1,0,0,1,-22.4938,-50.0862)">
                <path d="M163.8,201.6L167.4,198" style="fill:none;fill-rule:nonzero;"/>
            </g>
        </g>
        <g transform="matrix(16.6667,0,0,16.6667,0,0)">
            <g transform="matrix(1,0,0,1,-22.4938,-50.0862)">
                <path d="M163.953,201.753L167.553,198.153C167.637,198.068 167.637,197.932 167.553,197.847C167.468,197.763 167.332,197.763 167.247,197.847L163.647,201.447C163.563,201.532 163.563,201.668 163.647,201.753C163.732,201.837 163.868,201.837 163.953,201.753Z"/>
            </g>
        </g>
        <g transform="matrix(16.6667,0,0,16.6667,0,0)">
            <g transform="matrix(1,0,0,1,-22.4938,-50.0862)">
                <path d="M165.96,201.6L168.12,199.44" style="fill:none;fill-rule:nonzero;"/>
            </g>
        </g>
        <g transform="matrix(16.6667,0,0,16.6667,0,0)">
            <g transform="matrix(1,0,0,1,-22.4938,-50.0862)">
                <path d="M166.113,201.753L168.273,199.593C168.357,199.508 168.357,199.372 168.273,199.287C168.188,199.203 168.052,199.203 167.967,199.287L165.807,201.447C165.723,201.532 165.723,201.668 165.807,201.753C165.892,201.837 166.028,201.837 166.113,201.753Z"/>
            </g>
        </g>
        <g transform="matrix(16.6667,0,0,16.6667,0,0)">
            <g transform="matrix(1,0,0,1,-22.4938,-50.0862)">
                <path d="M165.96,196.92L167.76,198" style="fill:none;fill-rule:nonzero;"/>
            </g>
        </g>
        <g transform="matrix(16.6667,0,0,16.6667,0,0)">
            <g transform="matrix(1,0,0,1,-22.4938,-50.0862)">
                <path d="M165.812,197.167L167.612,198.247C167.748,198.329 167.925,198.284 168.007,198.148C168.089,198.012 168.044,197.835 167.908,197.753L166.108,196.673C165.972,196.591 165.795,196.636 165.713,196.772C165.631,196.908 165.676,197.085 165.812,197.167Z"/>
            </g>
        </g>
        <g transform="matrix(16.6667,0,0,16.6667,0,0)">
            <g transform="matrix(1,0,0,1,-22.4938,-50.0862)">
                <path d="M164.52,196.56L165.96,196.92" style="fill:none;fill-rule:nonzero;"/>
            </g>
        </g>
        <g transform="matrix(16.6667,0,0,16.6667,0,0)">
            <g transform="matrix(1,0,0,1,-22.4938,-50.0862)">
                <path d="M164.45,196.839L165.89,197.199C166.044,197.238 166.201,197.144 166.239,196.99C166.278,196.836 166.184,196.679 166.03,196.641L164.59,196.281C164.436,196.242 164.279,196.336 164.241,196.49C164.202,196.644 164.296,196.801 164.45,196.839Z"/>
            </g>
        </g>
        <g transform="matrix(16.6667,0,0,16.6667,0,0)">
            <g transform="matrix(1,0,0,1,-22.4938,-50.0862)">
                <path d="M163.8,196.92L164.52,196.56" style="fill:none;fill-rule:nonzero;"/>
            </g>
        </g>
        <g transform="matrix(16.6667,0,0,16.6667,0,0)">
            <g transform="matrix(1,0,0,1,-22.4938,-50.0862)">
                <path d="M163.929,197.178L164.649,196.818C164.791,196.747 164.849,196.573 164.778,196.431C164.707,196.289 164.533,196.231 164.391,196.302L163.671,196.662C163.529,196.733 163.471,196.907 163.542,197.049C163.613,197.191 163.787,197.249 163.929,197.178Z"/>
            </g>
        </g>
        <g transform="matrix(16.6667,0,0,16.6667,0,0)">
            <g transform="matrix(1,0,0,1,-22.4938,-50.0862)">
                <path d="M162,197.28L163.8,196.92" style="fill:none;fill-rule:nonzero;"/>
            </g>
        </g>
        <g transform="matrix(16.6667,0,0,16.6667,0,0)">
            <g transform="matrix(1,0,0,1,-22.4938,-50.0862)">
                <path d="M162.056,197.562L163.856,197.202C164.012,197.171 164.114,197.019 164.082,196.864C164.051,196.708 163.899,196.606 163.744,196.638L161.944,196.998C161.788,197.029 161.686,197.181 161.718,197.336C161.749,197.492 161.901,197.594 162.056,197.562Z"/>
            </g>
        </g>
        <g transform="matrix(16.6667,0,0,16.6667,0,0)">
            <g transform="matrix(1,0,0,1,-22.4938,-50.0862)">
                <path d="M168.84,201.6L168.12,201.6" style="fill:none;fill-rule:nonzero;"/>
            </g>
        </g>
        <g transform="matrix(16.6667,0,0,16.6667,0,0)">
            <g transform="matrix(1,0,0,1,-22.4938,-50.0862)">
                <path d="M168.84,201.312L168.12,201.312C167.961,201.312 167.832,201.441 167.832,201.6C167.832,201.759 167.961,201.888 168.12,201.888L168.84,201.888C168.999,201.888 169.128,201.759 169.128,201.6C169.128,201.441 168.999,201.312 168.84,201.312Z"/>
            </g>
        </g>
        <g transform="matrix(16.6667,0,0,16.6667,0,0)">
            <g transform="matrix(1,0,0,1,-22.4938,-50.0862)">
                <path d="M168.84,202.68L168.84,201.6" style="fill:none;fill-rule:nonzero;"/>
            </g>
        </g>
        <g transform="matrix(16.6667,0,0,16.6667,0,0)">
            <g transform="matrix(1,0,0,1,-22.4938,-50.0862)">
                <path d="M169.128,202.68L169.128,201.6C169.128,201.441 168.999,201.312 168.84,201.312C168.681,201.312 168.552,201.441 168.552,201.6L168.552,202.68C168.552,202.839 168.681,202.968 168.84,202.968C168.999,202.968 169.128,202.839 169.128,202.68Z"/>
            </g>
        </g>
        <g transform="matrix(16.6667,0,0,16.6667,0,0)">
            <g transform="matrix(1,0,0,1,-22.4938,-50.0862)">
                <path d="M160.56,202.68L168.84,202.68" style="fill:none;fill-rule:nonzero;"/>
            </g>
        </g>
        <g transform="matrix(16.6667,0,0,16.6667,0,0)">
            <g transform="matrix(1,0,0,1,-22.4938,-50.0862)">
                <path d="M160.56,202.968L168.84,202.968C168.999,202.968 169.128,202.839 169.128,202.68C169.128,202.521 168.999,202.392 168.84,202.392L160.56,202.392C160.401,202.392 160.272,202.521 160.272,202.68C160.272,202.839 160.401,202.968 160.56,202.968Z"/>
            </g>
        </g>
        <g transform="matrix(16.6667,0,0,16.6667,0,0)">
            <g transform="matrix(1,0,0,1,-22.4938,-50.0862)">
                <path d="M160.56,201.6L160.56,202.68" style="fill:none;fill-rule:nonzero;"/>
            </g>
        </g>
        <g transform="matrix(16.6667,0,0,16.6667,0,0)">
            <g transform="matrix(1,0,0,1,-22.4938,-50.0862)">
                <path d="M160.272,201.6L160.272,202.68C160.272,202.839 160.401,202.968 160.56,202.968C160.719,202.968 160.848,202.839 160.848,202.68L160.848,201.6C160.848,201.441 160.719,201.312 160.56,201.312C160.401,201.312 160.272,201.441 160.272,201.6Z"/>
            </g>
        </g>
        <g transform="matrix(16.6667,0,0,16.6667,0,0)">
            <g transform="matrix(1,0,0,1,-22.4938,-50.0862)">
                <path d="M161.28,201.6L160.56,201.6" style="fill:none;fill-rule:nonzero;"/>
            </g>
        </g>
        <g transform="matrix(16.6667,0,0,16.6667,0,0)">
            <g transform="matrix(1,0,0,1,-22.4938,-50.0862)">
                <path d="M161.28,201.312L160.56,201.312C160.401,201.312 160.272,201.441 160.272,201.6C160.272,201.759 160.401,201.888 160.56,201.888L161.28,201.888C161.439,201.888 161.568,201.759 161.568,201.6C161.568,201.441 161.439,201.312 161.28,201.312Z"/>
            </g>
        </g>
        <g transform="matrix(16.6667,0,0,16.6667,0,0)">
            <g transform="matrix(1,0,0,1,-22.4938,-50.0862)">
                <path d="M168.84,189L168.12,189" style="fill:none;fill-rule:nonzero;"/>
            </g>
        </g>
        <g transform="matrix(16.6667,0,0,16.6667,0,0)">
            <g transform="matrix(1,0,0,1,-22.4938,-50.0862)">
                <path d="M168.84,188.712L168.12,188.712C167.961,188.712 167.832,188.841 167.832,189C167.832,189.159 167.961,189.288 168.12,189.288L168.84,189.288C168.999,189.288 169.128,189.159 169.128,189C169.128,188.841 168.999,188.712 168.84,188.712Z"/>
            </g>
        </g>
        <g transform="matrix(16.6667,0,0,16.6667,0,0)">
            <g transform="matrix(1,0,0,1,-22.4938,-50.0862)">
                <path d="M168.84,187.92L168.84,189" style="fill:none;fill-rule:nonzero;"/>
            </g>
        </g>
        <g transform="matrix(16.6667,0,0,16.6667,0,0)">
            <g transform="matrix(1,0,0,1,-22.4938,-50.0862)">
                <path d="M168.552,187.92L168.552,189C168.552,189.159 168.681,189.288 168.84,189.288C168.999,189.288 169.128,189.159 169.128,189L169.128,187.92C169.128,187.761 168.999,187.632 168.84,187.632C168.681,187.632 168.552,187.761 168.552,187.92Z"/>
            </g>
        </g>
        <g transform="matrix(16.6667,0,0,16.6667,0,0)">
            <g transform="matrix(1,0,0,1,-22.4938,-50.0862)">
                <path d="M168.48,187.92L168.84,187.92" style="fill:none;fill-rule:nonzero;"/>
            </g>
        </g>
        <g transform="matrix(16.6667,0,0,16.6667,0,0)">
            <g transform="matrix(1,0,0,1,-22.4938,-50.0862)">
                <path d="M168.48,188.208L168.84,188.208C168.999,188.208 169.128,188.079 169.128,187.92C169.128,187.761 168.999,187.632 168.84,187.632L168.48,187.632C168.321,187.632 168.192,187.761 168.192,187.92C168.192,188.079 168.321,188.208 168.48,188.208Z"/>
            </g>
        </g>
        <g transform="matrix(16.6667,0,0,16.6667,0,0)">
            <g transform="matrix(1,0,0,1,-22.4938,-50.0862)">
                <path d="M160.56,187.92L168.48,187.92" style="fill:none;fill-rule:nonzero;"/>
            </g>
        </g>
        <g transform="matrix(16.6667,0,0,16.6667,0,0)">
            <g transform="matrix(1,0,0,1,-22.4938,-50.0862)">
                <path d="M160.56,188.208L168.48,188.208C168.639,188.208 168.768,188.079 168.768,187.92C168.768,187.761 168.639,187.632 168.48,187.632L160.56,187.632C160.401,187.632 160.272,187.761 160.272,187.92C160.272,188.079 160.401,188.208 160.56,188.208Z"/>
            </g>
        </g>
        <g transform="matrix(16.6667,0,0,16.6667,0,0)">
            <g transform="matrix(1,0,0,1,-22.4938,-50.0862)">
                <path d="M160.56,189L160.56,187.92" style="fill:none;fill-rule:nonzero;"/>
            </g>
        </g>
        <g transform="matrix(16.6667,0,0,16.6667,0,0)">
            <g transform="matrix(1,0,0,1,-22.4938,-50.0862)">
                <path d="M160.848,189L160.848,187.92C160.848,187.761 160.719,187.632 160.56,187.632C160.401,187.632 160.272,187.761 160.272,187.92L160.272,189C160.272,189.159 160.401,189.288 160.56,189.288C160.719,189.288 160.848,189.159 160.848,189Z"/>
            </g>
        </g>
        <g transform="matrix(16.6667,0,0,16.6667,0,0)">
            <g transform="matrix(1,0,0,1,-22.4938,-50.0862)">
                <path d="M160.92,189L160.56,189" style="fill:none;fill-rule:nonzero;"/>
            </g>
        </g>
        <g transform="matrix(16.6667,0,0,16.6667,0,0)">
            <g transform="matrix(1,0,0,1,-22.4938,-50.0862)">
                <path d="M160.92,188.712L160.56,188.712C160.401,188.712 160.272,188.841 160.272,189C160.272,189.159 160.401,189.288 160.56,189.288L160.92,189.288C161.079,189.288 161.208,189.159 161.208,189C161.208,188.841 161.079,188.712 160.92,188.712Z"/>
            </g>
        </g>
        <g transform="matrix(16.6667,0,0,16.6667,0,0)">
            <g transform="matrix(1,0,0,1,-22.4938,-50.0862)">
                <path d="M161.28,189L160.92,189" style="fill:none;fill-rule:nonzero;"/>
            </g>
        </g>
        <g transform="matrix(16.6667,0,0,16.6667,0,0)">
            <g transform="matrix(1,0,0,1,-22.4938,-50.0862)">
                <path d="M161.28,188.712L160.92,188.712C160.761,188.712 160.632,188.841 160.632,189C160.632,189.159 160.761,189.288 160.92,189.288L161.28,189.288C161.439,189.288 161.568,189.159 161.568,189C161.568,188.841 161.439,188.712 161.28,188.712Z"/>
            </g>
        </g>
        <g transform="matrix(16.6667,0,0,16.6667,0,0)">
            <g transform="matrix(1,0,0,1,-22.4938,-50.0862)">
                <path d="M162,192.96L161.28,191.52" style="fill:none;fill-rule:nonzero;"/>
            </g>
        </g>
        <g transform="matrix(16.6667,0,0,16.6667,0,0)">
            <g transform="matrix(1,0,0,1,-22.4938,-50.0862)">
                <path d="M162.258,192.831L161.538,191.391C161.467,191.249 161.293,191.191 161.151,191.262C161.009,191.333 160.951,191.507 161.022,191.649L161.742,193.089C161.813,193.231 161.987,193.289 162.129,193.218C162.271,193.147 162.329,192.973 162.258,192.831Z"/>
            </g>
        </g>
        <g transform="matrix(16.6667,0,0,16.6667,0,0)">
            <g transform="matrix(1,0,0,1,-22.4938,-50.0862)">
                <path d="M162.72,193.68L162,192.96" style="fill:none;fill-rule:nonzero;"/>
            </g>
        </g>
        <g transform="matrix(16.6667,0,0,16.6667,0,0)">
            <g transform="matrix(1,0,0,1,-22.4938,-50.0862)">
                <path d="M162.924,193.476L162.204,192.756C162.091,192.644 161.909,192.644 161.796,192.756C161.684,192.869 161.684,193.051 161.796,193.164L162.516,193.884C162.629,193.996 162.811,193.996 162.924,193.884C163.036,193.771 163.036,193.589 162.924,193.476Z"/>
            </g>
        </g>
        <g transform="matrix(16.6667,0,0,16.6667,0,0)">
            <g transform="matrix(1,0,0,1,-22.4938,-50.0862)">
                <path d="M163.08,195.48L163.08,194.4" style="fill:none;fill-rule:nonzero;"/>
            </g>
        </g>
        <g transform="matrix(16.6667,0,0,16.6667,0,0)">
            <g transform="matrix(1,0,0,1,-22.4938,-50.0862)">
                <path d="M163.368,195.48L163.368,194.4C163.368,194.241 163.239,194.112 163.08,194.112C162.921,194.112 162.792,194.241 162.792,194.4L162.792,195.48C162.792,195.639 162.921,195.768 163.08,195.768C163.239,195.768 163.368,195.639 163.368,195.48Z"/>
            </g>
        </g>
        <g transform="matrix(16.6667,0,0,16.6667,0,0)">
            <g transform="matrix(1,0,0,1,-22.4938,-50.0862)">
                <path d="M161.28,191.52L161.28,189" style="fill:none;fill-rule:nonzero;"/>
            </g>
        </g>
        <g transform="matrix(16.6667,0,0,16.6667,0,0)">
            <g transform="matrix(1,0,0,1,-22.4938,-50.0862)">
                <path d="M161.568,191.52L161.568,189C161.568,188.841 161.439,188.712 161.28,188.712C161.121,188.712 160.992,188.841 160.992,189L160.992,191.52C160.992,191.679 161.121,191.808 161.28,191.808C161.439,191.808 161.568,191.679 161.568,191.52Z"/>
            </g>
        </g>
        <g transform="matrix(16.6667,0,0,16.6667,0,0)">
            <g transform="matrix(1,0,0,1,-22.4938,-50.0862)">
                <path d="M162.72,196.2L163.08,195.48" style="fill:none;fill-rule:nonzero;"/>
            </g>
        </g>
        <g transform="matrix(16.6667,0,0,16.6667,0,0)">
            <g transform="matrix(1,0,0,1,-22.4938,-50.0862)">
                <path d="M162.978,196.329L163.338,195.609C163.409,195.467 163.351,195.293 163.209,195.222C163.067,195.151 162.893,195.209 162.822,195.351L162.462,196.071C162.391,196.213 162.449,196.387 162.591,196.458C162.733,196.529 162.907,196.471 162.978,196.329Z"/>
            </g>
        </g>
        <g transform="matrix(16.6667,0,0,16.6667,0,0)">
            <g transform="matrix(1,0,0,1,-22.4938,-50.0862)">
                <path d="M161.28,201.6L161.28,198.36" style="fill:none;fill-rule:nonzero;"/>
            </g>
        </g>
        <g transform="matrix(16.6667,0,0,16.6667,0,0)">
            <g transform="matrix(1,0,0,1,-22.4938,-50.0862)">
                <path d="M161.568,201.6L161.568,198.36C161.568,198.201 161.439,198.072 161.28,198.072C161.121,198.072 160.992,198.201 160.992,198.36L160.992,201.6C160.992,201.759 161.121,201.888 161.28,201.888C161.439,201.888 161.568,201.759 161.568,201.6Z"/>
            </g>
        </g>
        <g transform="matrix(16.6667,0,0,16.6667,0,0)">
            <g transform="matrix(1,0,0,1,-22.4938,-50.0862)">
                <path d="M163.08,194.4L162.72,193.68" style="fill:none;fill-rule:nonzero;"/>
            </g>
        </g>
        <g transform="matrix(16.6667,0,0,16.6667,0,0)">
            <g transform="matrix(1,0,0,1,-22.4938,-50.0862)">
                <path d="M163.338,194.271L162.978,193.551C162.907,193.409 162.733,193.351 162.591,193.422C162.449,193.493 162.391,193.667 162.462,193.809L162.822,194.529C162.893,194.671 163.067,194.729 163.209,194.658C163.351,194.587 163.409,194.413 163.338,194.271Z"/>
            </g>
        </g>
        <g transform="matrix(16.6667,0,0,16.6667,0,0)">
            <g transform="matrix(1,0,0,1,-22.4938,-50.0862)">
                <path d="M162,196.92L162.72,196.2" style="fill:none;fill-rule:nonzero;"/>
            </g>
        </g>
        <g transform="matrix(16.6667,0,0,16.6667,0,0)">
            <g transform="matrix(1,0,0,1,-22.4938,-50.0862)">
                <path d="M162.204,197.124L162.924,196.404C163.036,196.291 163.036,196.109 162.924,195.996C162.811,195.884 162.629,195.884 162.516,195.996L161.796,196.716C161.684,196.829 161.684,197.011 161.796,197.124C161.909,197.236 162.091,197.236 162.204,197.124Z"/>
            </g>
        </g>
        <g transform="matrix(16.6667,0,0,16.6667,0,0)">
            <g transform="matrix(1,0,0,1,-22.4938,-50.0862)">
                <path d="M161.28,198.36L162,196.92" style="fill:none;fill-rule:nonzero;"/>
            </g>
        </g>
        <g transform="matrix(16.6667,0,0,16.6667,0,0)">
            <g transform="matrix(1,0,0,1,-22.4938,-50.0862)">
                <path d="M161.538,198.489L162.258,197.049C162.329,196.907 162.271,196.733 162.129,196.662C161.987,196.591 161.813,196.649 161.742,196.791L161.022,198.231C160.951,198.373 161.009,198.547 161.151,198.618C161.293,198.689 161.467,198.631 161.538,198.489Z"/>
            </g>
        </g>
        <g transform="matrix(16.6667,0,0,16.6667,0,0)">
            <g transform="matrix(1,0,0,1,-22.4938,-50.0862)">
                <path d="M168.12,191.88L167.4,193.32" style="fill:none;fill-rule:nonzero;"/>
            </g>
        </g>
        <g transform="matrix(16.6667,0,0,16.6667,0,0)">
            <g transform="matrix(1,0,0,1,-22.4938,-50.0862)">
                <path d="M167.862,191.751L167.142,193.191C167.071,193.333 167.129,193.507 167.271,193.578C167.413,193.649 167.587,193.591 167.658,193.449L168.378,192.009C168.449,191.867 168.391,191.693 168.249,191.622C168.107,191.551 167.933,191.609 167.862,191.751Z"/>
            </g>
        </g>
        <g transform="matrix(16.6667,0,0,16.6667,0,0)">
            <g transform="matrix(1,0,0,1,-22.4938,-50.0862)">
                <path d="M167.4,193.32L166.68,194.04" style="fill:none;fill-rule:nonzero;"/>
            </g>
        </g>
        <g transform="matrix(16.6667,0,0,16.6667,0,0)">
            <g transform="matrix(1,0,0,1,-22.4938,-50.0862)">
                <path d="M167.196,193.116L166.476,193.836C166.364,193.949 166.364,194.131 166.476,194.244C166.589,194.356 166.771,194.356 166.884,194.244L167.604,193.524C167.716,193.411 167.716,193.229 167.604,193.116C167.491,193.004 167.309,193.004 167.196,193.116Z"/>
            </g>
        </g>
        <g transform="matrix(16.6667,0,0,16.6667,0,0)">
            <g transform="matrix(1,0,0,1,-22.4938,-50.0862)">
                <path d="M168.12,189L168.12,191.88" style="fill:none;fill-rule:nonzero;"/>
            </g>
        </g>
        <g transform="matrix(16.6667,0,0,16.6667,0,0)">
            <g transform="matrix(1,0,0,1,-22.4938,-50.0862)">
                <path d="M167.832,189L167.832,191.88C167.832,192.039 167.961,192.168 168.12,192.168C168.279,192.168 168.408,192.039 168.408,191.88L168.408,189C168.408,188.841 168.279,188.712 168.12,188.712C167.961,188.712 167.832,188.841 167.832,189Z"/>
            </g>
        </g>
        <g transform="matrix(16.6667,0,0,16.6667,0,0)">
            <g transform="matrix(1,0,0,1,-22.4938,-50.0862)">
                <path d="M166.68,194.04L166.32,194.76" style="fill:none;fill-rule:nonzero;"/>
            </g>
        </g>
        <g transform="matrix(16.6667,0,0,16.6667,0,0)">
            <g transform="matrix(1,0,0,1,-22.4938,-50.0862)">
                <path d="M166.422,193.911L166.062,194.631C165.991,194.773 166.049,194.947 166.191,195.018C166.333,195.089 166.507,195.031 166.578,194.889L166.938,194.169C167.009,194.027 166.951,193.853 166.809,193.782C166.667,193.711 166.493,193.769 166.422,193.911Z"/>
            </g>
        </g>
        <g transform="matrix(16.6667,0,0,16.6667,0,0)">
            <g transform="matrix(1,0,0,1,-22.4938,-50.0862)">
                <path d="M168.12,201.6L161.28,201.6" style="fill:none;fill-rule:nonzero;"/>
            </g>
        </g>
        <g transform="matrix(16.6667,0,0,16.6667,0,0)">
            <g transform="matrix(1,0,0,1,-22.4938,-50.0862)">
                <path d="M168.12,201.312L161.28,201.312C161.121,201.312 160.992,201.441 160.992,201.6C160.992,201.759 161.121,201.888 161.28,201.888L168.12,201.888C168.279,201.888 168.408,201.759 168.408,201.6C168.408,201.441 168.279,201.312 168.12,201.312Z"/>
            </g>
        </g>
        <g transform="matrix(16.6667,0,0,16.6667,0,0)">
            <g transform="matrix(1,0,0,1,-22.4938,-50.0862)">
                <path d="M168.12,198.72L168.12,201.6" style="fill:none;fill-rule:nonzero;"/>
            </g>
        </g>
        <g transform="matrix(16.6667,0,0,16.6667,0,0)">
            <g transform="matrix(1,0,0,1,-22.4938,-50.0862)">
                <path d="M167.832,198.72L167.832,201.6C167.832,201.759 167.961,201.888 168.12,201.888C168.279,201.888 168.408,201.759 168.408,201.6L168.408,198.72C168.408,198.561 168.279,198.432 168.12,198.432C167.961,198.432 167.832,198.561 167.832,198.72Z"/>
            </g>
        </g>
        <g transform="matrix(16.6667,0,0,16.6667,0,0)">
            <g transform="matrix(1,0,0,1,-22.4938,-50.0862)">
                <path d="M167.4,197.28L168.12,198.72" style="fill:none;fill-rule:nonzero;"/>
            </g>
        </g>
        <g transform="matrix(16.6667,0,0,16.6667,0,0)">
            <g transform="matrix(1,0,0,1,-22.4938,-50.0862)">
                <path d="M167.142,197.409L167.862,198.849C167.933,198.991 168.107,199.049 168.249,198.978C168.391,198.907 168.449,198.733 168.378,198.591L167.658,197.151C167.587,197.009 167.413,196.951 167.271,197.022C167.129,197.093 167.071,197.267 167.142,197.409Z"/>
            </g>
        </g>
        <g transform="matrix(16.6667,0,0,16.6667,0,0)">
            <g transform="matrix(1,0,0,1,-22.4938,-50.0862)">
                <path d="M166.68,196.56L167.4,197.28" style="fill:none;fill-rule:nonzero;"/>
            </g>
        </g>
        <g transform="matrix(16.6667,0,0,16.6667,0,0)">
            <g transform="matrix(1,0,0,1,-22.4938,-50.0862)">
                <path d="M166.476,196.764L167.196,197.484C167.309,197.596 167.491,197.596 167.604,197.484C167.716,197.371 167.716,197.189 167.604,197.076L166.884,196.356C166.771,196.244 166.589,196.244 166.476,196.356C166.364,196.469 166.364,196.651 166.476,196.764Z"/>
            </g>
        </g>
        <g transform="matrix(16.6667,0,0,16.6667,0,0)">
            <g transform="matrix(1,0,0,1,-22.4938,-50.0862)">
                <path d="M166.32,195.84L166.68,196.56" style="fill:none;fill-rule:nonzero;"/>
            </g>
        </g>
        <g transform="matrix(16.6667,0,0,16.6667,0,0)">
            <g transform="matrix(1,0,0,1,-22.4938,-50.0862)">
                <path d="M166.062,195.969L166.422,196.689C166.493,196.831 166.667,196.889 166.809,196.818C166.951,196.747 167.009,196.573 166.938,196.431L166.578,195.711C166.507,195.569 166.333,195.511 166.191,195.582C166.049,195.653 165.991,195.827 166.062,195.969Z"/>
            </g>
        </g>
        <g transform="matrix(16.6667,0,0,16.6667,0,0)">
            <g transform="matrix(1,0,0,1,-22.4938,-50.0862)">
                <path d="M166.32,194.76L166.32,195.84" style="fill:none;fill-rule:nonzero;"/>
            </g>
        </g>
        <g transform="matrix(16.6667,0,0,16.6667,0,0)">
            <g transform="matrix(1,0,0,1,-22.4938,-50.0862)">
                <path d="M166.032,194.76L166.032,195.84C166.032,195.999 166.161,196.128 166.32,196.128C166.479,196.128 166.608,195.999 166.608,195.84L166.608,194.76C166.608,194.601 166.479,194.472 166.32,194.472C166.161,194.472 166.032,194.601 166.032,194.76Z"/>
            </g>
        </g>
        <g transform="matrix(16.6667,0,0,16.6667,0,0)">
            <g transform="matrix(1,0,0,1,-22.4938,-50.0862)">
                <path d="M161.28,189L168.12,189" style="fill:none;fill-rule:nonzero;"/>
            </g>
        </g>
        <g transform="matrix(16.6667,0,0,16.6667,0,0)">
            <g transform="matrix(1,0,0,1,-22.4938,-50.0862)">
                <path d="M161.28,189.288L168.12,189.288C168.279,189.288 168.408,189.159 168.408,189C168.408,188.841 168.279,188.712 168.12,188.712L161.28,188.712C161.121,188.712 160.992,188.841 160.992,189C160.992,189.159 161.121,189.288 161.28,189.288Z"/>
            </g>
        </g>
        <g transform="matrix(16.6667,0,0,16.6667,0,0)">
            <g transform="matrix(1,0,0,1,-22.4938,-50.0862)">
                <path d="M152.28,186.48L150.264,184.968" style="fill:none;fill-rule:nonzero;"/>
            </g>
        </g>
        <g transform="matrix(16.6667,0,0,16.6667,0,0)">
            <g transform="matrix(1,0,0,1,-22.4938,-50.0862)">
                <path d="M152.382,186.344L150.366,184.832C150.291,184.776 150.184,184.791 150.128,184.866C150.072,184.941 150.087,185.048 150.162,185.104L152.178,186.616C152.253,186.672 152.36,186.657 152.416,186.582C152.472,186.507 152.457,186.4 152.382,186.344Z"/>
            </g>
        </g>
        <g transform="matrix(16.6667,0,0,16.6667,0,0)">
            <g transform="matrix(1,0,0,1,-22.4938,-50.0862)">
                <circle cx="164.16" cy="194.76" r="14.4" style="fill-opacity:0;"/>
            </g>
        </g>
        <g transform="matrix(16.6667,0,0,16.6667,0,0)">
            <g transform="matrix(1,0,0,1,-22.4938,-50.0862)">
                <path d="M164.16,180.19C156.119,180.19 149.59,186.719 149.59,194.76C149.59,202.801 156.119,209.33 164.16,209.33C172.201,209.33 178.73,202.801 178.73,194.76C178.73,186.719 172.201,180.19 164.16,180.19ZM164.16,180.53C172.014,180.53 178.39,186.906 178.39,194.76C178.39,202.614 172.014,208.99 164.16,208.99C156.306,208.99 149.93,202.614 149.93,194.76C149.93,186.906 156.306,180.53 164.16,180.53Z"/>
            </g>
        </g>
    </g>
</svg>
