<?xml version="1.0" encoding="UTF-8" standalone="no"?>
<!DOCTYPE svg PUBLIC "-//W3C//DTD SVG 1.1//EN" "http://www.w3.org/Graphics/SVG/1.1/DTD/svg11.dtd">
<svg width="100%" height="100%" viewBox="0 0 486 486" version="1.1" xmlns="http://www.w3.org/2000/svg" xmlns:xlink="http://www.w3.org/1999/xlink" xml:space="preserve" xmlns:serif="http://www.serif.com/" style="fill-rule:evenodd;clip-rule:evenodd;stroke-linejoin:round;stroke-miterlimit:2;">
    <g transform="matrix(1,0,0,1,-2694.27,-2168.4)">
        <g transform="matrix(16.6667,0,0,16.6667,0,0)">
            <g transform="matrix(1,0,0,1,-22.4938,-50.0862)">
                <path d="M196.92,197.28L198,196.2" style="fill:none;fill-rule:nonzero;"/>
            </g>
        </g>
        <g transform="matrix(16.6667,0,0,16.6667,0,0)">
            <g transform="matrix(1,0,0,1,-22.4938,-50.0862)">
                <path d="M197.124,197.484L198.204,196.404C198.316,196.291 198.316,196.109 198.204,195.996C198.091,195.884 197.909,195.884 197.796,195.996L196.716,197.076C196.604,197.189 196.604,197.371 196.716,197.484C196.829,197.596 197.011,197.596 197.124,197.484Z"/>
            </g>
        </g>
        <g transform="matrix(16.6667,0,0,16.6667,0,0)">
            <g transform="matrix(1,0,0,1,-22.4938,-50.0862)">
                <path d="M202.68,203.4L203.04,204.12" style="fill:none;fill-rule:nonzero;"/>
            </g>
        </g>
        <g transform="matrix(16.6667,0,0,16.6667,0,0)">
            <g transform="matrix(1,0,0,1,-22.4938,-50.0862)">
                <path d="M202.422,203.529L202.782,204.249C202.853,204.391 203.027,204.449 203.169,204.378C203.311,204.307 203.369,204.133 203.298,203.991L202.938,203.271C202.867,203.129 202.693,203.071 202.551,203.142C202.409,203.213 202.351,203.387 202.422,203.529Z"/>
            </g>
        </g>
        <g transform="matrix(16.6667,0,0,16.6667,0,0)">
            <g transform="matrix(1,0,0,1,-22.4938,-50.0862)">
                <path d="M207.72,191.52L208.44,191.16" style="fill:none;fill-rule:nonzero;"/>
            </g>
        </g>
        <g transform="matrix(16.6667,0,0,16.6667,0,0)">
            <g transform="matrix(1,0,0,1,-22.4938,-50.0862)">
                <path d="M207.849,191.778L208.569,191.418C208.711,191.347 208.769,191.173 208.698,191.031C208.627,190.889 208.453,190.831 208.311,190.902L207.591,191.262C207.449,191.333 207.391,191.507 207.462,191.649C207.533,191.791 207.707,191.849 207.849,191.778Z"/>
            </g>
        </g>
        <g transform="matrix(16.6667,0,0,16.6667,0,0)">
            <g transform="matrix(1,0,0,1,-22.4938,-50.0862)">
                <path d="M195.48,186.84L195.12,186.12" style="fill:none;fill-rule:nonzero;"/>
            </g>
        </g>
        <g transform="matrix(16.6667,0,0,16.6667,0,0)">
            <g transform="matrix(1,0,0,1,-22.4938,-50.0862)">
                <path d="M195.738,186.711L195.378,185.991C195.307,185.849 195.133,185.791 194.991,185.862C194.849,185.933 194.791,186.107 194.862,186.249L195.222,186.969C195.293,187.111 195.467,187.169 195.609,187.098C195.751,187.027 195.809,186.853 195.738,186.711Z"/>
            </g>
        </g>
        <g transform="matrix(16.6667,0,0,16.6667,0,0)">
            <g transform="matrix(1,0,0,1,-22.4938,-50.0862)">
                <path d="M197.28,198.72L195.48,202.32" style="fill:none;fill-rule:nonzero;"/>
            </g>
        </g>
        <g transform="matrix(16.6667,0,0,16.6667,0,0)">
            <g transform="matrix(1,0,0,1,-22.4938,-50.0862)">
                <path d="M197.022,198.591L195.222,202.191C195.151,202.333 195.209,202.507 195.351,202.578C195.493,202.649 195.667,202.591 195.738,202.449L197.538,198.849C197.609,198.707 197.551,198.533 197.409,198.462C197.267,198.391 197.093,198.449 197.022,198.591Z"/>
            </g>
        </g>
        <g transform="matrix(16.6667,0,0,16.6667,0,0)">
            <g transform="matrix(1,0,0,1,-22.4938,-50.0862)">
                <path d="M200.52,198.36L202.32,202.32" style="fill:none;fill-rule:nonzero;"/>
            </g>
        </g>
        <g transform="matrix(16.6667,0,0,16.6667,0,0)">
            <g transform="matrix(1,0,0,1,-22.4938,-50.0862)">
                <path d="M200.258,198.479L202.058,202.439C202.124,202.584 202.294,202.648 202.439,202.582C202.584,202.516 202.648,202.346 202.582,202.201L200.782,198.241C200.716,198.096 200.546,198.032 200.401,198.098C200.256,198.164 200.192,198.334 200.258,198.479Z"/>
            </g>
        </g>
        <g transform="matrix(16.6667,0,0,16.6667,0,0)">
            <g transform="matrix(1,0,0,1,-22.4938,-50.0862)">
                <path d="M203.04,196.2L206.64,197.64" style="fill:none;fill-rule:nonzero;"/>
            </g>
        </g>
        <g transform="matrix(16.6667,0,0,16.6667,0,0)">
            <g transform="matrix(1,0,0,1,-22.4938,-50.0862)">
                <path d="M202.933,196.467L206.533,197.907C206.681,197.966 206.848,197.895 206.907,197.747C206.966,197.599 206.895,197.432 206.747,197.373L203.147,195.933C202.999,195.874 202.832,195.945 202.773,196.093C202.714,196.241 202.785,196.408 202.933,196.467Z"/>
            </g>
        </g>
        <g transform="matrix(16.6667,0,0,16.6667,0,0)">
            <g transform="matrix(1,0,0,1,-22.4938,-50.0862)">
                <path d="M202.68,193.68L206.28,191.88" style="fill:none;fill-rule:nonzero;"/>
            </g>
        </g>
        <g transform="matrix(16.6667,0,0,16.6667,0,0)">
            <g transform="matrix(1,0,0,1,-22.4938,-50.0862)">
                <path d="M202.809,193.938L206.409,192.138C206.551,192.067 206.609,191.893 206.538,191.751C206.467,191.609 206.293,191.551 206.151,191.622L202.551,193.422C202.409,193.493 202.351,193.667 202.422,193.809C202.493,193.951 202.667,194.009 202.809,193.938Z"/>
            </g>
        </g>
        <g transform="matrix(16.6667,0,0,16.6667,0,0)">
            <g transform="matrix(1,0,0,1,-22.4938,-50.0862)">
                <path d="M200.52,191.52L202.32,187.92" style="fill:none;fill-rule:nonzero;"/>
            </g>
        </g>
        <g transform="matrix(16.6667,0,0,16.6667,0,0)">
            <g transform="matrix(1,0,0,1,-22.4938,-50.0862)">
                <path d="M200.778,191.649L202.578,188.049C202.649,187.907 202.591,187.733 202.449,187.662C202.307,187.591 202.133,187.649 202.062,187.791L200.262,191.391C200.191,191.533 200.249,191.707 200.391,191.778C200.533,191.849 200.707,191.791 200.778,191.649Z"/>
            </g>
        </g>
        <g transform="matrix(16.6667,0,0,16.6667,0,0)">
            <g transform="matrix(1,0,0,1,-22.4938,-50.0862)">
                <path d="M198,191.52L196.2,187.92" style="fill:none;fill-rule:nonzero;"/>
            </g>
        </g>
        <g transform="matrix(16.6667,0,0,16.6667,0,0)">
            <g transform="matrix(1,0,0,1,-22.4938,-50.0862)">
                <path d="M198.258,191.391L196.458,187.791C196.387,187.649 196.213,187.591 196.071,187.662C195.929,187.733 195.871,187.907 195.942,188.049L197.742,191.649C197.813,191.791 197.987,191.849 198.129,191.778C198.271,191.707 198.329,191.533 198.258,191.391Z"/>
            </g>
        </g>
        <g transform="matrix(16.6667,0,0,16.6667,0,0)">
            <g transform="matrix(1,0,0,1,-22.4938,-50.0862)">
                <path d="M195.12,196.2L191.16,198.72" style="fill:none;fill-rule:nonzero;"/>
            </g>
        </g>
        <g transform="matrix(16.6667,0,0,16.6667,0,0)">
            <g transform="matrix(1,0,0,1,-22.4938,-50.0862)">
                <path d="M194.965,195.957L191.005,198.477C190.871,198.562 190.832,198.741 190.917,198.875C191.002,199.009 191.181,199.048 191.315,198.963L195.275,196.443C195.409,196.358 195.448,196.179 195.363,196.045C195.278,195.911 195.099,195.872 194.965,195.957Z"/>
            </g>
        </g>
        <g transform="matrix(16.6667,0,0,16.6667,0,0)">
            <g transform="matrix(1,0,0,1,-22.4938,-50.0862)">
                <path d="M191.16,191.52L195.12,193.32" style="fill:none;fill-rule:nonzero;"/>
            </g>
        </g>
        <g transform="matrix(16.6667,0,0,16.6667,0,0)">
            <g transform="matrix(1,0,0,1,-22.4938,-50.0862)">
                <path d="M191.041,191.782L195.001,193.582C195.146,193.648 195.316,193.584 195.382,193.439C195.448,193.294 195.384,193.124 195.239,193.058L191.279,191.258C191.134,191.192 190.964,191.256 190.898,191.401C190.832,191.546 190.896,191.716 191.041,191.782Z"/>
            </g>
        </g>
        <g transform="matrix(16.6667,0,0,16.6667,0,0)">
            <g transform="matrix(1,0,0,1,-22.4938,-50.0862)">
                <path d="M194.76,199.08L191.16,202.68" style="fill:none;fill-rule:nonzero;"/>
            </g>
        </g>
        <g transform="matrix(16.6667,0,0,16.6667,0,0)">
            <g transform="matrix(1,0,0,1,-22.4938,-50.0862)">
                <path d="M194.556,198.876L190.956,202.476C190.844,202.589 190.844,202.771 190.956,202.884C191.069,202.996 191.251,202.996 191.364,202.884L194.964,199.284C195.076,199.171 195.076,198.989 194.964,198.876C194.851,198.764 194.669,198.764 194.556,198.876Z"/>
            </g>
        </g>
        <g transform="matrix(16.6667,0,0,16.6667,0,0)">
            <g transform="matrix(1,0,0,1,-22.4938,-50.0862)">
                <path d="M203.76,198.72L207.36,202.32" style="fill:none;fill-rule:nonzero;"/>
            </g>
        </g>
        <g transform="matrix(16.6667,0,0,16.6667,0,0)">
            <g transform="matrix(1,0,0,1,-22.4938,-50.0862)">
                <path d="M203.556,198.924L207.156,202.524C207.269,202.636 207.451,202.636 207.564,202.524C207.676,202.411 207.676,202.229 207.564,202.116L203.964,198.516C203.851,198.404 203.669,198.404 203.556,198.516C203.444,198.629 203.444,198.811 203.556,198.924Z"/>
            </g>
        </g>
        <g transform="matrix(16.6667,0,0,16.6667,0,0)">
            <g transform="matrix(1,0,0,1,-22.4938,-50.0862)">
                <path d="M203.76,190.44L207.36,187.2" style="fill:none;fill-rule:nonzero;"/>
            </g>
        </g>
        <g transform="matrix(16.6667,0,0,16.6667,0,0)">
            <g transform="matrix(1,0,0,1,-22.4938,-50.0862)">
                <path d="M203.953,190.654L207.553,187.414C207.671,187.308 207.68,187.125 207.574,187.007C207.468,186.889 207.285,186.88 207.167,186.986L203.567,190.226C203.449,190.332 203.44,190.515 203.546,190.633C203.652,190.751 203.835,190.76 203.953,190.654Z"/>
            </g>
        </g>
        <g transform="matrix(16.6667,0,0,16.6667,0,0)">
            <g transform="matrix(1,0,0,1,-22.4938,-50.0862)">
                <path d="M194.76,190.44L191.16,186.84" style="fill:none;fill-rule:nonzero;"/>
            </g>
        </g>
        <g transform="matrix(16.6667,0,0,16.6667,0,0)">
            <g transform="matrix(1,0,0,1,-22.4938,-50.0862)">
                <path d="M194.964,190.236L191.364,186.636C191.251,186.524 191.069,186.524 190.956,186.636C190.844,186.749 190.844,186.931 190.956,187.044L194.556,190.644C194.669,190.756 194.851,190.756 194.964,190.644C195.076,190.531 195.076,190.349 194.964,190.236Z"/>
            </g>
        </g>
        <g transform="matrix(16.6667,0,0,16.6667,0,0)">
            <g transform="matrix(1,0,0,1,-22.4938,-50.0862)">
                <path d="M192.946,194.76L187.92,194.76" style="fill:none;fill-rule:nonzero;"/>
            </g>
        </g>
        <g transform="matrix(16.6667,0,0,16.6667,0,0)">
            <g transform="matrix(1,0,0,1,-22.4938,-50.0862)">
                <path d="M192.946,194.472L187.92,194.472C187.761,194.472 187.632,194.601 187.632,194.76C187.632,194.919 187.761,195.048 187.92,195.048L192.946,195.048C193.105,195.048 193.234,194.919 193.234,194.76C193.234,194.601 193.105,194.472 192.946,194.472Z"/>
            </g>
        </g>
        <g transform="matrix(16.6667,0,0,16.6667,0,0)">
            <g transform="matrix(1,0,0,1,-22.4938,-50.0862)">
                <path d="M205.207,194.76L210.24,194.76" style="fill:none;fill-rule:nonzero;"/>
            </g>
        </g>
        <g transform="matrix(16.6667,0,0,16.6667,0,0)">
            <g transform="matrix(1,0,0,1,-22.4938,-50.0862)">
                <path d="M205.207,195.048L210.24,195.048C210.399,195.048 210.528,194.919 210.528,194.76C210.528,194.601 210.399,194.472 210.24,194.472L205.207,194.472C205.048,194.472 204.919,194.601 204.919,194.76C204.919,194.919 205.048,195.048 205.207,195.048Z"/>
            </g>
        </g>
        <g transform="matrix(16.6667,0,0,16.6667,0,0)">
            <g transform="matrix(1,0,0,1,-22.4938,-50.0862)">
                <path d="M199.08,200.887L199.08,205.92" style="fill:none;fill-rule:nonzero;"/>
            </g>
        </g>
        <g transform="matrix(16.6667,0,0,16.6667,0,0)">
            <g transform="matrix(1,0,0,1,-22.4938,-50.0862)">
                <path d="M198.792,200.887L198.792,205.92C198.792,206.079 198.921,206.208 199.08,206.208C199.239,206.208 199.368,206.079 199.368,205.92L199.368,200.887C199.368,200.728 199.239,200.599 199.08,200.599C198.921,200.599 198.792,200.728 198.792,200.887Z"/>
            </g>
        </g>
        <g transform="matrix(16.6667,0,0,16.6667,0,0)">
            <g transform="matrix(1,0,0,1,-22.4938,-50.0862)">
                <path d="M199.08,183.6L199.08,188.64" style="fill:none;fill-rule:nonzero;"/>
            </g>
        </g>
        <g transform="matrix(16.6667,0,0,16.6667,0,0)">
            <g transform="matrix(1,0,0,1,-22.4938,-50.0862)">
                <path d="M198.792,183.6L198.792,188.64C198.792,188.799 198.921,188.928 199.08,188.928C199.239,188.928 199.368,188.799 199.368,188.64L199.368,183.6C199.368,183.441 199.239,183.312 199.08,183.312C198.921,183.312 198.792,183.441 198.792,183.6Z"/>
            </g>
        </g>
        <g transform="matrix(16.6667,0,0,16.6667,0,0)">
            <g transform="matrix(1,0,0,1,-22.4938,-50.0862)">
                <path d="M199.08,188.64L199.08,188.626" style="fill:none;fill-rule:nonzero;"/>
            </g>
        </g>
        <g transform="matrix(16.6667,0,0,16.6667,0,0)">
            <g transform="matrix(1,0,0,1,-22.4938,-50.0862)">
                <path d="M199.368,188.64L199.368,188.626L198.792,188.626L198.792,188.64L199.368,188.64Z"/>
            </g>
        </g>
        <g transform="matrix(16.6667,0,0,16.6667,0,0)">
            <g transform="matrix(1,0,0,1,-22.4938,-50.0862)">
                <path d="M186.84,186.48L184.824,184.968" style="fill:none;fill-rule:nonzero;"/>
            </g>
        </g>
        <g transform="matrix(16.6667,0,0,16.6667,0,0)">
            <g transform="matrix(1,0,0,1,-22.4938,-50.0862)">
                <path d="M186.942,186.344L184.926,184.832C184.851,184.776 184.744,184.791 184.688,184.866C184.632,184.941 184.647,185.048 184.722,185.104L186.738,186.616C186.813,186.672 186.92,186.657 186.976,186.582C187.032,186.507 187.017,186.4 186.942,186.344Z"/>
            </g>
        </g>
        <g transform="matrix(16.6667,0,0,16.6667,0,0)">
            <g transform="matrix(1,0,0,1,-22.4938,-50.0862)">
                <circle cx="198.72" cy="194.76" r="14.4" style="fill-opacity:0;"/>
            </g>
        </g>
        <g transform="matrix(16.6667,0,0,16.6667,0,0)">
            <g transform="matrix(1,0,0,1,-22.4938,-50.0862)">
                <path d="M198.72,180.19C190.679,180.19 184.15,186.719 184.15,194.76C184.15,202.801 190.679,209.33 198.72,209.33C206.761,209.33 213.29,202.801 213.29,194.76C213.29,186.719 206.761,180.19 198.72,180.19ZM198.72,180.53C206.574,180.53 212.95,186.906 212.95,194.76C212.95,202.614 206.574,208.99 198.72,208.99C190.866,208.99 184.49,202.614 184.49,194.76C184.49,186.906 190.866,180.53 198.72,180.53Z"/>
            </g>
        </g>
    </g>
</svg>
