<?xml version="1.0" encoding="UTF-8" standalone="no"?>
<!DOCTYPE svg PUBLIC "-//W3C//DTD SVG 1.1//EN" "http://www.w3.org/Graphics/SVG/1.1/DTD/svg11.dtd">
<svg width="100%" height="100%" viewBox="0 0 488 486" version="1.1" xmlns="http://www.w3.org/2000/svg" xmlns:xlink="http://www.w3.org/1999/xlink" xml:space="preserve" xmlns:serif="http://www.serif.com/" style="fill-rule:evenodd;clip-rule:evenodd;stroke-linejoin:round;stroke-miterlimit:2;">
    <g transform="matrix(1,0,0,1,-3268.3,-2168.4)">
        <g transform="matrix(16.6667,0,0,16.6667,0,0)">
            <g transform="matrix(1,0,0,1,-22.4938,-50.0862)">
                <path d="M218.88,195.84C219.757,196.341 220.75,196.605 221.76,196.605C224.823,196.605 227.386,194.18 227.556,191.122" style="fill-opacity:0;fill-rule:nonzero;"/>
            </g>
        </g>
        <g transform="matrix(16.6667,0,0,16.6667,0,0)">
            <g transform="matrix(1,0,0,1,-22.4938,-50.0862)">
                <path d="M218.737,196.09C219.658,196.616 220.7,196.893 221.76,196.893C224.975,196.893 227.665,194.348 227.844,191.138C227.852,190.979 227.731,190.843 227.572,190.834C227.413,190.825 227.277,190.947 227.268,191.106C227.107,194.013 224.671,196.317 221.76,196.317C220.8,196.317 219.856,196.066 219.023,195.59C218.885,195.511 218.709,195.559 218.63,195.697C218.551,195.835 218.599,196.011 218.737,196.09Z"/>
            </g>
        </g>
        <g transform="matrix(16.6667,0,0,16.6667,0,0)">
            <g transform="matrix(1,0,0,1,-22.4938,-50.0862)">
                <path d="M239.045,191.16C239.234,194.184 241.775,196.571 244.805,196.571C245.647,196.571 246.478,196.387 247.242,196.032" style="fill-opacity:0;fill-rule:nonzero;"/>
            </g>
        </g>
        <g transform="matrix(16.6667,0,0,16.6667,0,0)">
            <g transform="matrix(1,0,0,1,-22.4938,-50.0862)">
                <path d="M238.758,191.178C238.956,194.353 241.624,196.859 244.805,196.859C245.689,196.859 246.562,196.666 247.363,196.293C247.507,196.225 247.57,196.054 247.503,195.91C247.435,195.766 247.264,195.703 247.12,195.77C246.395,196.108 245.605,196.283 244.805,196.283C241.926,196.283 239.512,194.015 239.332,191.142C239.323,190.983 239.186,190.863 239.027,190.873C238.868,190.882 238.748,191.019 238.758,191.178Z"/>
            </g>
        </g>
        <g transform="matrix(16.6667,0,0,16.6667,0,0)">
            <g transform="matrix(1,0,0,1,-22.4938,-50.0862)">
                <path d="M239.045,191.08C238.858,188.054 236.317,185.665 233.285,185.665C230.238,185.665 227.689,188.078 227.522,191.12" style="fill-opacity:0;fill-rule:nonzero;"/>
            </g>
        </g>
        <g transform="matrix(16.6667,0,0,16.6667,0,0)">
            <g transform="matrix(1,0,0,1,-22.4938,-50.0862)">
                <path d="M239.332,191.062C239.136,187.885 236.468,185.377 233.285,185.377C230.086,185.377 227.409,187.91 227.235,191.105C227.226,191.263 227.348,191.399 227.506,191.408C227.665,191.417 227.801,191.295 227.81,191.136C227.968,188.245 230.39,185.953 233.285,185.953C236.165,185.953 238.58,188.223 238.758,191.098C238.767,191.256 238.904,191.377 239.063,191.368C239.221,191.358 239.342,191.221 239.332,191.062Z"/>
            </g>
        </g>
        <g transform="matrix(16.6667,0,0,16.6667,0,0)">
            <g transform="matrix(1,0,0,1,-22.4938,-50.0862)">
                <path d="M219.24,197.64C220.022,198.031 220.885,198.235 221.76,198.235C224.733,198.235 227.221,195.881 227.386,192.912" style="fill-opacity:0;fill-rule:nonzero;"/>
            </g>
        </g>
        <g transform="matrix(16.6667,0,0,16.6667,0,0)">
            <g transform="matrix(1,0,0,1,-22.4938,-50.0862)">
                <path d="M219.111,197.898C219.934,198.309 220.84,198.523 221.76,198.523C224.885,198.523 227.5,196.049 227.674,192.928C227.682,192.77 227.561,192.634 227.402,192.625C227.243,192.616 227.107,192.738 227.099,192.897C226.942,195.714 224.581,197.947 221.76,197.947C220.93,197.947 220.111,197.754 219.369,197.382C219.227,197.311 219.053,197.369 218.982,197.511C218.911,197.653 218.969,197.827 219.111,197.898Z"/>
            </g>
        </g>
        <g transform="matrix(16.6667,0,0,16.6667,0,0)">
            <g transform="matrix(1,0,0,1,-22.4938,-50.0862)">
                <path d="M239.045,192.88C238.858,189.854 236.317,187.465 233.285,187.465C230.238,187.465 227.689,189.878 227.522,192.92" style="fill-opacity:0;fill-rule:nonzero;"/>
            </g>
        </g>
        <g transform="matrix(16.6667,0,0,16.6667,0,0)">
            <g transform="matrix(1,0,0,1,-22.4938,-50.0862)">
                <path d="M239.332,192.862C239.136,189.685 236.468,187.177 233.285,187.177C230.086,187.177 227.409,189.71 227.235,192.905C227.226,193.063 227.348,193.199 227.506,193.208C227.665,193.217 227.801,193.095 227.81,192.936C227.968,190.045 230.39,187.753 233.285,187.753C236.165,187.753 238.58,190.023 238.758,192.898C238.767,193.056 238.904,193.177 239.063,193.168C239.221,193.158 239.342,193.021 239.332,192.862Z"/>
            </g>
        </g>
        <g transform="matrix(16.6667,0,0,16.6667,0,0)">
            <g transform="matrix(1,0,0,1,-22.4938,-50.0862)">
                <path d="M239.045,192.96C239.234,195.984 241.775,198.371 244.805,198.371C245.699,198.371 246.582,198.163 247.382,197.764" style="fill-opacity:0;fill-rule:nonzero;"/>
            </g>
        </g>
        <g transform="matrix(16.6667,0,0,16.6667,0,0)">
            <g transform="matrix(1,0,0,1,-22.4938,-50.0862)">
                <path d="M239.045,192.96L238.758,192.978C238.956,196.153 241.624,198.659 244.805,198.659C245.744,198.659 246.67,198.441 247.511,198.022C247.653,197.951 247.711,197.777 247.64,197.635C247.569,197.493 247.396,197.435 247.253,197.506C246.493,197.886 245.655,198.083 244.805,198.083C241.926,198.083 239.512,195.816 239.332,192.942C239.323,192.96 239.192,192.96 239.036,192.96L238.757,192.96L239.045,192.96Z"/>
            </g>
        </g>
        <g transform="matrix(16.6667,0,0,16.6667,0,0)">
            <g transform="matrix(1,0,0,1,-22.4938,-50.0862)">
                <path d="M239.045,194.76C239.234,197.784 241.775,200.171 244.805,200.171C245.424,200.171 246.038,200.071 246.625,199.876" style="fill-opacity:0;fill-rule:nonzero;"/>
            </g>
        </g>
        <g transform="matrix(16.6667,0,0,16.6667,0,0)">
            <g transform="matrix(1,0,0,1,-22.4938,-50.0862)">
                <path d="M238.758,194.778C238.956,197.953 241.624,200.459 244.805,200.459C245.454,200.459 246.1,200.354 246.716,200.15C246.867,200.099 246.949,199.936 246.899,199.785C246.848,199.635 246.685,199.553 246.534,199.603C245.977,199.788 245.393,199.883 244.805,199.883C241.926,199.883 239.512,197.615 239.332,194.742C239.323,194.583 239.186,194.463 239.027,194.473C238.868,194.482 238.748,194.619 238.758,194.778Z"/>
            </g>
        </g>
        <g transform="matrix(16.6667,0,0,16.6667,0,0)">
            <g transform="matrix(1,0,0,1,-22.4938,-50.0862)">
                <path d="M219.96,199.8C220.541,199.994 221.148,200.092 221.76,200.092C224.764,200.092 227.277,197.715 227.444,194.716" style="fill-opacity:0;fill-rule:nonzero;"/>
            </g>
        </g>
        <g transform="matrix(16.6667,0,0,16.6667,0,0)">
            <g transform="matrix(1,0,0,1,-22.4938,-50.0862)">
                <path d="M219.869,200.073C220.479,200.277 221.117,200.38 221.76,200.38C224.916,200.38 227.556,197.883 227.731,194.732C227.74,194.573 227.618,194.437 227.46,194.429C227.301,194.42 227.165,194.541 227.156,194.7C226.998,197.547 224.612,199.804 221.76,199.804C221.179,199.804 220.602,199.711 220.051,199.527C219.9,199.477 219.737,199.558 219.687,199.709C219.637,199.86 219.718,200.023 219.869,200.073Z"/>
            </g>
        </g>
        <g transform="matrix(16.6667,0,0,16.6667,0,0)">
            <g transform="matrix(1,0,0,1,-22.4938,-50.0862)">
                <path d="M239.045,194.68C238.858,191.654 236.317,189.265 233.285,189.265C230.238,189.265 227.689,191.678 227.522,194.72" style="fill-opacity:0;fill-rule:nonzero;"/>
            </g>
        </g>
        <g transform="matrix(16.6667,0,0,16.6667,0,0)">
            <g transform="matrix(1,0,0,1,-22.4938,-50.0862)">
                <path d="M239.332,194.662C239.136,191.485 236.468,188.977 233.285,188.977C230.086,188.977 227.409,191.51 227.235,194.705C227.226,194.863 227.348,194.999 227.506,195.008C227.665,195.017 227.801,194.895 227.81,194.736C227.968,191.845 230.39,189.553 233.285,189.553C236.165,189.553 238.58,191.823 238.758,194.698C238.767,194.856 238.904,194.977 239.063,194.968C239.221,194.958 239.342,194.821 239.332,194.662Z"/>
            </g>
        </g>
        <g transform="matrix(16.6667,0,0,16.6667,0,0)">
            <g transform="matrix(1,0,0,1,-22.4938,-50.0862)">
                <path d="M239.045,196.56C239.234,199.585 241.775,201.972 244.805,201.972C245.043,201.972 245.28,201.957 245.516,201.928" style="fill-opacity:0;fill-rule:nonzero;"/>
            </g>
        </g>
        <g transform="matrix(16.6667,0,0,16.6667,0,0)">
            <g transform="matrix(1,0,0,1,-22.4938,-50.0862)">
                <path d="M239.332,196.542L238.758,196.578C238.956,199.753 241.623,202.26 244.805,202.26C245.054,202.26 245.304,202.244 245.551,202.213C245.709,202.194 245.821,202.05 245.801,201.892C245.782,201.734 245.638,201.622 245.48,201.642C245.256,201.67 245.031,201.684 244.805,201.684C241.926,201.684 239.512,199.416 239.332,196.542Z"/>
            </g>
        </g>
        <g transform="matrix(16.6667,0,0,16.6667,0,0)">
            <g transform="matrix(1,0,0,1,-22.4938,-50.0862)">
                <path d="M239.045,196.48C238.858,193.454 236.317,191.065 233.285,191.065C230.238,191.065 227.689,193.478 227.522,196.52" style="fill-opacity:0;fill-rule:nonzero;"/>
            </g>
        </g>
        <g transform="matrix(16.6667,0,0,16.6667,0,0)">
            <g transform="matrix(1,0,0,1,-22.4938,-50.0862)">
                <path d="M239.332,196.462C239.136,193.285 236.468,190.777 233.285,190.777C230.086,190.777 227.409,193.31 227.235,196.505C227.226,196.663 227.348,196.799 227.506,196.808C227.665,196.817 227.801,196.695 227.81,196.536C227.968,193.645 230.39,191.353 233.285,191.353C236.165,191.353 238.58,193.623 238.758,196.498C238.767,196.656 238.904,196.777 239.063,196.768C239.221,196.758 239.342,196.621 239.332,196.462Z"/>
            </g>
        </g>
        <g transform="matrix(16.6667,0,0,16.6667,0,0)">
            <g transform="matrix(1,0,0,1,-22.4938,-50.0862)">
                <path d="M221.04,201.96C221.279,201.99 221.519,202.005 221.76,202.005C224.823,202.005 227.386,199.58 227.556,196.522" style="fill-opacity:0;fill-rule:nonzero;"/>
            </g>
        </g>
        <g transform="matrix(16.6667,0,0,16.6667,0,0)">
            <g transform="matrix(1,0,0,1,-22.4938,-50.0862)">
                <path d="M221.004,202.246C221.255,202.277 221.507,202.293 221.76,202.293C224.975,202.293 227.665,199.748 227.844,196.538C227.852,196.379 227.731,196.243 227.572,196.234C227.413,196.225 227.277,196.347 227.268,196.506C227.107,199.413 224.671,201.717 221.76,201.717C221.531,201.717 221.303,201.703 221.076,201.674C220.918,201.655 220.774,201.767 220.754,201.924C220.735,202.082 220.847,202.226 221.004,202.246Z"/>
            </g>
        </g>
        <g transform="matrix(16.6667,0,0,16.6667,0,0)">
            <g transform="matrix(1,0,0,1,-22.4938,-50.0862)">
                <path d="M221.4,186.48L219.384,184.968" style="fill:none;fill-rule:nonzero;"/>
            </g>
        </g>
        <g transform="matrix(16.6667,0,0,16.6667,0,0)">
            <g transform="matrix(1,0,0,1,-22.4938,-50.0862)">
                <path d="M221.502,186.344L219.486,184.832C219.411,184.776 219.304,184.791 219.248,184.866C219.192,184.941 219.207,185.048 219.282,185.104L221.298,186.616C221.373,186.672 221.48,186.657 221.536,186.582C221.592,186.507 221.577,186.4 221.502,186.344Z"/>
            </g>
        </g>
        <g transform="matrix(16.6667,0,0,16.6667,0,0)">
            <g transform="matrix(1,0,0,1,-22.4938,-50.0862)">
                <circle cx="233.28" cy="194.76" r="14.4" style="fill-opacity:0;"/>
            </g>
        </g>
        <g transform="matrix(16.6667,0,0,16.6667,0,0)">
            <g transform="matrix(1,0,0,1,-22.4938,-50.0862)">
                <path d="M233.28,180.19C225.239,180.19 218.71,186.719 218.71,194.76C218.71,202.801 225.239,209.33 233.28,209.33C241.321,209.33 247.85,202.801 247.85,194.76C247.85,186.719 241.321,180.19 233.28,180.19ZM233.28,180.53C241.134,180.53 247.51,186.906 247.51,194.76C247.51,202.614 241.134,208.99 233.28,208.99C225.426,208.99 219.05,202.614 219.05,194.76C219.05,186.906 225.426,180.53 233.28,180.53Z"/>
            </g>
        </g>
    </g>
</svg>
