<?xml version="1.0" encoding="UTF-8" standalone="no"?>
<!DOCTYPE svg PUBLIC "-//W3C//DTD SVG 1.1//EN" "http://www.w3.org/Graphics/SVG/1.1/DTD/svg11.dtd">
<svg width="100%" height="100%" viewBox="0 0 486 486" version="1.1" xmlns="http://www.w3.org/2000/svg" xmlns:xlink="http://www.w3.org/1999/xlink" xml:space="preserve" xmlns:serif="http://www.serif.com/" style="fill-rule:evenodd;clip-rule:evenodd;stroke-linejoin:round;stroke-miterlimit:2;">
    <g transform="matrix(1,0,0,1,-3846.27,-2168.4)">
        <g transform="matrix(16.6667,0,0,16.6667,0,0)">
            <g transform="matrix(1,0,0,1,-22.4938,-50.0862)">
                <path d="M263.52,190.44L271.8,190.44" style="fill:none;fill-rule:nonzero;"/>
            </g>
        </g>
        <g transform="matrix(16.6667,0,0,16.6667,0,0)">
            <g transform="matrix(1,0,0,1,-22.4938,-50.0862)">
                <path d="M263.52,190.728L271.8,190.728C271.959,190.728 272.088,190.599 272.088,190.44C272.088,190.281 271.959,190.152 271.8,190.152L263.52,190.152C263.361,190.152 263.232,190.281 263.232,190.44C263.232,190.599 263.361,190.728 263.52,190.728Z"/>
            </g>
        </g>
        <g transform="matrix(16.6667,0,0,16.6667,0,0)">
            <g transform="matrix(1,0,0,1,-22.4938,-50.0862)">
                <path d="M263.52,190.44C261.15,190.44 259.2,192.39 259.2,194.76C259.2,197.13 261.15,199.08 263.52,199.08" style="fill-opacity:0;fill-rule:nonzero;"/>
            </g>
        </g>
        <g transform="matrix(16.6667,0,0,16.6667,0,0)">
            <g transform="matrix(1,0,0,1,-22.4938,-50.0862)">
                <path d="M263.52,190.152C260.992,190.152 258.912,192.232 258.912,194.76C258.912,197.288 260.992,199.368 263.52,199.368C263.679,199.368 263.808,199.239 263.808,199.08C263.808,198.921 263.679,198.792 263.52,198.792C261.308,198.792 259.488,196.972 259.488,194.76C259.488,192.548 261.308,190.728 263.52,190.728C263.679,190.728 263.808,190.599 263.808,190.44C263.808,190.281 263.679,190.152 263.52,190.152Z"/>
            </g>
        </g>
        <g transform="matrix(16.6667,0,0,16.6667,0,0)">
            <g transform="matrix(1,0,0,1,-22.4938,-50.0862)">
                <path d="M271.8,190.44L270.36,191.88" style="fill:none;fill-rule:nonzero;"/>
            </g>
        </g>
        <g transform="matrix(16.6667,0,0,16.6667,0,0)">
            <g transform="matrix(1,0,0,1,-22.4938,-50.0862)">
                <path d="M271.596,190.236L270.156,191.676C270.044,191.789 270.044,191.971 270.156,192.084C270.269,192.196 270.451,192.196 270.564,192.084L272.004,190.644C272.116,190.531 272.116,190.349 272.004,190.236C271.891,190.124 271.709,190.124 271.596,190.236Z"/>
            </g>
        </g>
        <g transform="matrix(16.6667,0,0,16.6667,0,0)">
            <g transform="matrix(1,0,0,1,-22.4938,-50.0862)">
                <path d="M264.6,199.08L266.04,197.64" style="fill:none;fill-rule:nonzero;"/>
            </g>
        </g>
        <g transform="matrix(16.6667,0,0,16.6667,0,0)">
            <g transform="matrix(1,0,0,1,-22.4938,-50.0862)">
                <path d="M264.804,199.284L266.244,197.844C266.356,197.731 266.356,197.549 266.244,197.436C266.131,197.324 265.949,197.324 265.836,197.436L264.396,198.876C264.284,198.989 264.284,199.171 264.396,199.284C264.509,199.396 264.691,199.396 264.804,199.284Z"/>
            </g>
        </g>
        <g transform="matrix(16.6667,0,0,16.6667,0,0)">
            <g transform="matrix(1,0,0,1,-22.4938,-50.0862)">
                <path d="M264.6,199.08L266.04,200.52" style="fill:none;fill-rule:nonzero;"/>
            </g>
        </g>
        <g transform="matrix(16.6667,0,0,16.6667,0,0)">
            <g transform="matrix(1,0,0,1,-22.4938,-50.0862)">
                <path d="M264.396,199.284L265.836,200.724C265.949,200.836 266.131,200.836 266.244,200.724C266.356,200.611 266.356,200.429 266.244,200.316L264.804,198.876C264.691,198.764 264.509,198.764 264.396,198.876C264.284,198.989 264.284,199.171 264.396,199.284Z"/>
            </g>
        </g>
        <g transform="matrix(16.6667,0,0,16.6667,0,0)">
            <g transform="matrix(1,0,0,1,-22.4938,-50.0862)">
                <path d="M272.88,199.08C275.25,199.08 277.2,197.13 277.2,194.76C277.2,192.39 275.25,190.44 272.88,190.44" style="fill-opacity:0;fill-rule:nonzero;"/>
            </g>
        </g>
        <g transform="matrix(16.6667,0,0,16.6667,0,0)">
            <g transform="matrix(1,0,0,1,-22.4938,-50.0862)">
                <path d="M272.88,199.368C275.408,199.368 277.488,197.288 277.488,194.76C277.488,192.232 275.408,190.152 272.88,190.152C272.721,190.152 272.592,190.281 272.592,190.44C272.592,190.599 272.721,190.728 272.88,190.728C275.092,190.728 276.912,192.548 276.912,194.76C276.912,196.972 275.092,198.792 272.88,198.792C272.721,198.792 272.592,198.921 272.592,199.08C272.592,199.239 272.721,199.368 272.88,199.368Z"/>
            </g>
        </g>
        <g transform="matrix(16.6667,0,0,16.6667,0,0)">
            <g transform="matrix(1,0,0,1,-22.4938,-50.0862)">
                <path d="M271.8,190.44L270.36,189" style="fill:none;fill-rule:nonzero;"/>
            </g>
        </g>
        <g transform="matrix(16.6667,0,0,16.6667,0,0)">
            <g transform="matrix(1,0,0,1,-22.4938,-50.0862)">
                <path d="M272.004,190.236L270.564,188.796C270.451,188.684 270.269,188.684 270.156,188.796C270.044,188.909 270.044,189.091 270.156,189.204L271.596,190.644C271.709,190.756 271.891,190.756 272.004,190.644C272.116,190.531 272.116,190.349 272.004,190.236Z"/>
            </g>
        </g>
        <g transform="matrix(16.6667,0,0,16.6667,0,0)">
            <g transform="matrix(1,0,0,1,-22.4938,-50.0862)">
                <path d="M272.88,199.08L264.6,199.08" style="fill:none;fill-rule:nonzero;"/>
            </g>
        </g>
        <g transform="matrix(16.6667,0,0,16.6667,0,0)">
            <g transform="matrix(1,0,0,1,-22.4938,-50.0862)">
                <path d="M272.88,198.792L264.6,198.792C264.441,198.792 264.312,198.921 264.312,199.08C264.312,199.239 264.441,199.368 264.6,199.368L272.88,199.368C273.039,199.368 273.168,199.239 273.168,199.08C273.168,198.921 273.039,198.792 272.88,198.792Z"/>
            </g>
        </g>
        <g transform="matrix(16.6667,0,0,16.6667,0,0)">
            <g transform="matrix(1,0,0,1,-22.4938,-50.0862)">
                <path d="M255.96,186.48L253.944,184.968" style="fill:none;fill-rule:nonzero;"/>
            </g>
        </g>
        <g transform="matrix(16.6667,0,0,16.6667,0,0)">
            <g transform="matrix(1,0,0,1,-22.4938,-50.0862)">
                <path d="M256.062,186.344L254.046,184.832C253.971,184.776 253.864,184.791 253.808,184.866C253.752,184.941 253.767,185.048 253.842,185.104L255.858,186.616C255.933,186.672 256.04,186.657 256.096,186.582C256.152,186.507 256.137,186.4 256.062,186.344Z"/>
            </g>
        </g>
        <g transform="matrix(16.6667,0,0,16.6667,0,0)">
            <g transform="matrix(1,0,0,1,-22.4938,-50.0862)">
                <circle cx="267.84" cy="194.76" r="14.4" style="fill-opacity:0;"/>
            </g>
        </g>
        <g transform="matrix(16.6667,0,0,16.6667,0,0)">
            <g transform="matrix(1,0,0,1,-22.4938,-50.0862)">
                <path d="M267.84,180.19C259.799,180.19 253.27,186.719 253.27,194.76C253.27,202.801 259.799,209.33 267.84,209.33C275.881,209.33 282.41,202.801 282.41,194.76C282.41,186.719 275.881,180.19 267.84,180.19ZM267.84,180.53C275.694,180.53 282.07,186.906 282.07,194.76C282.07,202.614 275.694,208.99 267.84,208.99C259.986,208.99 253.61,202.614 253.61,194.76C253.61,186.906 259.986,180.53 267.84,180.53Z"/>
            </g>
        </g>
    </g>
</svg>
