<?xml version="1.0" encoding="UTF-8" standalone="no"?>
<!DOCTYPE svg PUBLIC "-//W3C//DTD SVG 1.1//EN" "http://www.w3.org/Graphics/SVG/1.1/DTD/svg11.dtd">
<svg width="100%" height="100%" viewBox="0 0 486 486" version="1.1" xmlns="http://www.w3.org/2000/svg" xmlns:xlink="http://www.w3.org/1999/xlink" xml:space="preserve" xmlns:serif="http://www.serif.com/" style="fill-rule:evenodd;clip-rule:evenodd;stroke-linejoin:round;stroke-miterlimit:2;">
    <g transform="matrix(1,0,0,1,-4422.27,-2168.4)">
        <g transform="matrix(16.6667,0,0,16.6667,0,0)">
            <g transform="matrix(1,0,0,1,-22.4938,-50.0862)">
                <path d="M301.32,185.04L301.32,200.16" style="fill:none;fill-rule:nonzero;"/>
            </g>
        </g>
        <g transform="matrix(16.6667,0,0,16.6667,0,0)">
            <g transform="matrix(1,0,0,1,-22.4938,-50.0862)">
                <path d="M301.032,185.04L301.032,200.16C301.032,200.319 301.161,200.448 301.32,200.448C301.479,200.448 301.608,200.319 301.608,200.16L301.608,185.04C301.608,184.881 301.479,184.752 301.32,184.752C301.161,184.752 301.032,184.881 301.032,185.04Z"/>
            </g>
        </g>
        <g transform="matrix(16.6667,0,0,16.6667,0,0)">
            <g transform="matrix(1,0,0,1,-22.4938,-50.0862)">
                <path d="M307.08,187.92L307.8,186.48" style="fill:none;fill-rule:nonzero;"/>
            </g>
        </g>
        <g transform="matrix(16.6667,0,0,16.6667,0,0)">
            <g transform="matrix(1,0,0,1,-22.4938,-50.0862)">
                <path d="M307.338,188.049L308.058,186.609C308.129,186.467 308.071,186.293 307.929,186.222C307.787,186.151 307.613,186.209 307.542,186.351L306.822,187.791C306.751,187.933 306.809,188.107 306.951,188.178C307.093,188.249 307.267,188.191 307.338,188.049Z"/>
            </g>
        </g>
        <g transform="matrix(16.6667,0,0,16.6667,0,0)">
            <g transform="matrix(1,0,0,1,-22.4938,-50.0862)">
                <path d="M301.32,200.16L306.18,189.9" style="fill:none;fill-rule:nonzero;"/>
            </g>
        </g>
        <g transform="matrix(16.6667,0,0,16.6667,0,0)">
            <g transform="matrix(1,0,0,1,-22.4938,-50.0862)">
                <path d="M301.58,200.283L306.44,190.023C306.508,189.88 306.447,189.708 306.303,189.64C306.16,189.572 305.988,189.633 305.92,189.777L301.06,200.037C300.992,200.18 301.053,200.352 301.197,200.42C301.34,200.488 301.512,200.427 301.58,200.283Z"/>
            </g>
        </g>
        <g transform="matrix(16.6667,0,0,16.6667,0,0)">
            <g transform="matrix(1,0,0,1,-22.4938,-50.0862)">
                <circle cx="306.662" cy="188.82" r="1.138" style="fill-opacity:0;"/>
            </g>
        </g>
        <g transform="matrix(16.6667,0,0,16.6667,0,0)">
            <g transform="matrix(1,0,0,1,-22.4938,-50.0862)">
                <path d="M306.662,187.394C305.874,187.394 305.235,188.033 305.235,188.82C305.235,189.607 305.874,190.246 306.662,190.246C307.449,190.246 308.088,189.607 308.088,188.82C308.088,188.033 307.449,187.394 306.662,187.394ZM306.662,187.97C307.131,187.97 307.512,188.351 307.512,188.82C307.512,189.289 307.131,189.67 306.662,189.67C306.192,189.67 305.811,189.289 305.811,188.82C305.811,188.351 306.192,187.97 306.662,187.97Z"/>
            </g>
        </g>
        <g transform="matrix(16.6667,0,0,16.6667,0,0)">
            <g transform="matrix(1,0,0,1,-22.4938,-50.0862)">
                <path d="M295.56,200.16L307.08,200.16" style="fill:none;fill-rule:nonzero;"/>
            </g>
        </g>
        <g transform="matrix(16.6667,0,0,16.6667,0,0)">
            <g transform="matrix(1,0,0,1,-22.4938,-50.0862)">
                <path d="M295.56,200.448L307.08,200.448C307.239,200.448 307.368,200.319 307.368,200.16C307.368,200.001 307.239,199.872 307.08,199.872L295.56,199.872C295.401,199.872 295.272,200.001 295.272,200.16C295.272,200.319 295.401,200.448 295.56,200.448Z"/>
            </g>
        </g>
        <g transform="matrix(16.6667,0,0,16.6667,0,0)">
            <g transform="matrix(1,0,0,1,-22.4938,-50.0862)">
                <path d="M307.8,203.04L302.76,185.04" style="fill:none;fill-rule:nonzero;"/>
            </g>
        </g>
        <g transform="matrix(16.6667,0,0,16.6667,0,0)">
            <g transform="matrix(1,0,0,1,-22.4938,-50.0862)">
                <path d="M308.077,202.962L303.037,184.962C302.994,184.809 302.835,184.72 302.682,184.763C302.529,184.806 302.44,184.965 302.483,185.118L307.523,203.118C307.566,203.271 307.725,203.36 307.878,203.317C308.031,203.274 308.12,203.115 308.077,202.962Z"/>
            </g>
        </g>
        <g transform="matrix(16.6667,0,0,16.6667,0,0)">
            <g transform="matrix(1,0,0,1,-22.4938,-50.0862)">
                <path d="M294.84,203.04L307.8,203.04" style="fill:none;fill-rule:nonzero;"/>
            </g>
        </g>
        <g transform="matrix(16.6667,0,0,16.6667,0,0)">
            <g transform="matrix(1,0,0,1,-22.4938,-50.0862)">
                <path d="M294.84,203.328L307.8,203.328C307.959,203.328 308.088,203.199 308.088,203.04C308.088,202.881 307.959,202.752 307.8,202.752L294.84,202.752C294.681,202.752 294.552,202.881 294.552,203.04C294.552,203.199 294.681,203.328 294.84,203.328Z"/>
            </g>
        </g>
        <g transform="matrix(16.6667,0,0,16.6667,0,0)">
            <g transform="matrix(1,0,0,1,-22.4938,-50.0862)">
                <path d="M299.88,185.04L294.84,203.04" style="fill:none;fill-rule:nonzero;"/>
            </g>
        </g>
        <g transform="matrix(16.6667,0,0,16.6667,0,0)">
            <g transform="matrix(1,0,0,1,-22.4938,-50.0862)">
                <path d="M299.603,184.962L294.563,202.962C294.52,203.115 294.609,203.274 294.762,203.317C294.915,203.36 295.074,203.271 295.117,203.118L300.157,185.118C300.2,184.965 300.111,184.806 299.958,184.763C299.805,184.72 299.646,184.809 299.603,184.962Z"/>
            </g>
        </g>
        <g transform="matrix(16.6667,0,0,16.6667,0,0)">
            <g transform="matrix(1,0,0,1,-22.4938,-50.0862)">
                <path d="M302.76,185.04L299.88,185.04" style="fill:none;fill-rule:nonzero;"/>
            </g>
        </g>
        <g transform="matrix(16.6667,0,0,16.6667,0,0)">
            <g transform="matrix(1,0,0,1,-22.4938,-50.0862)">
                <path d="M302.76,184.752L299.88,184.752C299.721,184.752 299.592,184.881 299.592,185.04C299.592,185.199 299.721,185.328 299.88,185.328L302.76,185.328C302.919,185.328 303.048,185.199 303.048,185.04C303.048,184.881 302.919,184.752 302.76,184.752Z"/>
            </g>
        </g>
        <g transform="matrix(16.6667,0,0,16.6667,0,0)">
            <g transform="matrix(1,0,0,1,-22.4938,-50.0862)">
                <path d="M290.52,186.48L288.504,184.968" style="fill:none;fill-rule:nonzero;"/>
            </g>
        </g>
        <g transform="matrix(16.6667,0,0,16.6667,0,0)">
            <g transform="matrix(1,0,0,1,-22.4938,-50.0862)">
                <path d="M290.622,186.344L288.606,184.832C288.531,184.776 288.424,184.791 288.368,184.866C288.312,184.941 288.327,185.048 288.402,185.104L290.418,186.616C290.493,186.672 290.6,186.657 290.656,186.582C290.712,186.507 290.697,186.4 290.622,186.344Z"/>
            </g>
        </g>
        <g transform="matrix(16.6667,0,0,16.6667,0,0)">
            <g transform="matrix(1,0,0,1,-22.4938,-50.0862)">
                <circle cx="302.4" cy="194.76" r="14.4" style="fill-opacity:0;"/>
            </g>
        </g>
        <g transform="matrix(16.6667,0,0,16.6667,0,0)">
            <g transform="matrix(1,0,0,1,-22.4938,-50.0862)">
                <path d="M302.4,180.19C294.359,180.19 287.83,186.719 287.83,194.76C287.83,202.801 294.359,209.33 302.4,209.33C310.441,209.33 316.97,202.801 316.97,194.76C316.97,186.719 310.441,180.19 302.4,180.19ZM302.4,180.53C310.254,180.53 316.63,186.906 316.63,194.76C316.63,202.614 310.254,208.99 302.4,208.99C294.546,208.99 288.17,202.614 288.17,194.76C288.17,186.906 294.546,180.53 302.4,180.53Z"/>
            </g>
        </g>
    </g>
</svg>
