<?xml version="1.0" encoding="UTF-8" standalone="no"?>
<!DOCTYPE svg PUBLIC "-//W3C//DTD SVG 1.1//EN" "http://www.w3.org/Graphics/SVG/1.1/DTD/svg11.dtd">
<svg width="100%" height="100%" viewBox="0 0 486 486" version="1.1" xmlns="http://www.w3.org/2000/svg" xmlns:xlink="http://www.w3.org/1999/xlink" xml:space="preserve" xmlns:serif="http://www.serif.com/" style="fill-rule:evenodd;clip-rule:evenodd;stroke-linejoin:round;stroke-miterlimit:2;">
    <g transform="matrix(1,0,0,1,-4998.27,-2168.4)">
        <g transform="matrix(16.6667,0,0,16.6667,0,0)">
            <g transform="matrix(1,0,0,1,-22.4938,-50.0862)">
                <path d="M335.102,188.107C335.102,187.317 334.452,186.667 333.662,186.667C332.872,186.667 332.222,187.317 332.222,188.107" style="fill-opacity:0;fill-rule:nonzero;"/>
            </g>
        </g>
        <g transform="matrix(16.6667,0,0,16.6667,0,0)">
            <g transform="matrix(1,0,0,1,-22.4938,-50.0862)">
                <path d="M335.39,188.107C335.39,187.159 334.61,186.379 333.662,186.379C332.714,186.379 331.934,187.159 331.934,188.107C331.934,188.266 332.063,188.395 332.222,188.395C332.381,188.395 332.51,188.266 332.51,188.107C332.51,187.475 333.03,186.955 333.662,186.955C334.294,186.955 334.814,187.475 334.814,188.107C334.814,188.266 334.943,188.395 335.102,188.395C335.261,188.395 335.39,188.266 335.39,188.107Z"/>
            </g>
        </g>
        <g transform="matrix(16.6667,0,0,16.6667,0,0)">
            <g transform="matrix(1,0,0,1,-22.4938,-50.0862)">
                <path d="M333.662,185.227L333.662,183.787" style="fill:none;fill-rule:nonzero;"/>
            </g>
        </g>
        <g transform="matrix(16.6667,0,0,16.6667,0,0)">
            <g transform="matrix(1,0,0,1,-22.4938,-50.0862)">
                <path d="M333.95,185.227L333.95,183.787C333.95,183.628 333.821,183.499 333.662,183.499C333.503,183.499 333.374,183.628 333.374,183.787L333.374,185.227C333.374,185.386 333.503,185.515 333.662,185.515C333.821,185.515 333.95,185.386 333.95,185.227Z"/>
            </g>
        </g>
        <g transform="matrix(16.6667,0,0,16.6667,0,0)">
            <g transform="matrix(1,0,0,1,-22.4938,-50.0862)">
                <path d="M328.622,197.467L330.062,202.507" style="fill:none;fill-rule:nonzero;"/>
            </g>
        </g>
        <g transform="matrix(16.6667,0,0,16.6667,0,0)">
            <g transform="matrix(1,0,0,1,-22.4938,-50.0862)">
                <path d="M328.345,197.546L329.785,202.586C329.829,202.739 329.989,202.828 330.142,202.784C330.294,202.74 330.383,202.581 330.339,202.428L328.899,197.388C328.856,197.235 328.696,197.147 328.543,197.19C328.39,197.234 328.302,197.393 328.345,197.546Z"/>
            </g>
        </g>
        <g transform="matrix(16.6667,0,0,16.6667,0,0)">
            <g transform="matrix(1,0,0,1,-22.4938,-50.0862)">
                <path d="M343.742,194.587C343.742,193.797 343.092,193.147 342.302,193.147C341.512,193.147 340.862,193.797 340.862,194.587" style="fill-opacity:0;fill-rule:nonzero;"/>
            </g>
        </g>
        <g transform="matrix(16.6667,0,0,16.6667,0,0)">
            <g transform="matrix(1,0,0,1,-22.4938,-50.0862)">
                <path d="M344.03,194.587C344.03,193.639 343.25,192.859 342.302,192.859C341.354,192.859 340.574,193.639 340.574,194.587C340.574,194.746 340.703,194.875 340.862,194.875C341.021,194.875 341.15,194.746 341.15,194.587C341.15,193.955 341.67,193.435 342.302,193.435C342.934,193.435 343.454,193.955 343.454,194.587C343.454,194.746 343.583,194.875 343.742,194.875C343.901,194.875 344.03,194.746 344.03,194.587Z"/>
            </g>
        </g>
        <g transform="matrix(16.6667,0,0,16.6667,0,0)">
            <g transform="matrix(1,0,0,1,-22.4938,-50.0862)">
                <path d="M330.782,187.387L329.342,187.387" style="fill:none;fill-rule:nonzero;"/>
            </g>
        </g>
        <g transform="matrix(16.6667,0,0,16.6667,0,0)">
            <g transform="matrix(1,0,0,1,-22.4938,-50.0862)">
                <path d="M330.782,187.099L329.342,187.099C329.183,187.099 329.054,187.228 329.054,187.387C329.054,187.546 329.183,187.675 329.342,187.675L330.782,187.675C330.941,187.675 331.07,187.546 331.07,187.387C331.07,187.228 330.941,187.099 330.782,187.099Z"/>
            </g>
        </g>
        <g transform="matrix(16.6667,0,0,16.6667,0,0)">
            <g transform="matrix(1,0,0,1,-22.4938,-50.0862)">
                <path d="M335.102,193.867L335.102,196.747" style="fill:none;fill-rule:nonzero;"/>
            </g>
        </g>
        <g transform="matrix(16.6667,0,0,16.6667,0,0)">
            <g transform="matrix(1,0,0,1,-22.4938,-50.0862)">
                <path d="M334.814,193.867L334.814,196.747C334.814,196.906 334.943,197.035 335.102,197.035C335.261,197.035 335.39,196.906 335.39,196.747L335.39,193.867C335.39,193.708 335.261,193.579 335.102,193.579C334.943,193.579 334.814,193.708 334.814,193.867Z"/>
            </g>
        </g>
        <g transform="matrix(16.6667,0,0,16.6667,0,0)">
            <g transform="matrix(1,0,0,1,-22.4938,-50.0862)">
                <path d="M335.822,185.947L336.542,185.227" style="fill:none;fill-rule:nonzero;"/>
            </g>
        </g>
        <g transform="matrix(16.6667,0,0,16.6667,0,0)">
            <g transform="matrix(1,0,0,1,-22.4938,-50.0862)">
                <path d="M336.026,186.151L336.746,185.431C336.858,185.318 336.858,185.136 336.746,185.024C336.634,184.911 336.451,184.911 336.339,185.024L335.619,185.744C335.506,185.856 335.506,186.038 335.619,186.151C335.731,186.263 335.914,186.263 336.026,186.151Z"/>
            </g>
        </g>
        <g transform="matrix(16.6667,0,0,16.6667,0,0)">
            <g transform="matrix(1,0,0,1,-22.4938,-50.0862)">
                <path d="M337.982,193.867L337.982,195.307" style="fill:none;fill-rule:nonzero;"/>
            </g>
        </g>
        <g transform="matrix(16.6667,0,0,16.6667,0,0)">
            <g transform="matrix(1,0,0,1,-22.4938,-50.0862)">
                <path d="M337.694,193.867L337.694,195.307C337.694,195.466 337.823,195.595 337.982,195.595C338.141,195.595 338.27,195.466 338.27,195.307L338.27,193.867C338.27,193.708 338.141,193.579 337.982,193.579C337.823,193.579 337.694,193.708 337.694,193.867Z"/>
            </g>
        </g>
        <g transform="matrix(16.6667,0,0,16.6667,0,0)">
            <g transform="matrix(1,0,0,1,-22.4938,-50.0862)">
                <path d="M332.222,189.547L332.222,188.107" style="fill:none;fill-rule:nonzero;"/>
            </g>
        </g>
        <g transform="matrix(16.6667,0,0,16.6667,0,0)">
            <g transform="matrix(1,0,0,1,-22.4938,-50.0862)">
                <path d="M332.51,189.547L332.51,188.107C332.51,187.948 332.381,187.819 332.222,187.819C332.063,187.819 331.934,187.948 331.934,188.107L331.934,189.547C331.934,189.706 332.063,189.835 332.222,189.835C332.381,189.835 332.51,189.706 332.51,189.547Z"/>
            </g>
        </g>
        <g transform="matrix(16.6667,0,0,16.6667,0,0)">
            <g transform="matrix(1,0,0,1,-22.4938,-50.0862)">
                <path d="M331.502,196.027C331.502,195.237 330.852,194.587 330.062,194.587C329.272,194.587 328.622,195.237 328.622,196.027" style="fill-opacity:0;fill-rule:nonzero;"/>
            </g>
        </g>
        <g transform="matrix(16.6667,0,0,16.6667,0,0)">
            <g transform="matrix(1,0,0,1,-22.4938,-50.0862)">
                <path d="M331.79,196.027C331.79,195.079 331.01,194.299 330.062,194.299C329.114,194.299 328.334,195.079 328.334,196.027C328.334,196.186 328.463,196.315 328.622,196.315C328.781,196.315 328.91,196.186 328.91,196.027C328.91,195.395 329.43,194.875 330.062,194.875C330.694,194.875 331.214,195.395 331.214,196.027C331.214,196.186 331.343,196.315 331.502,196.315C331.661,196.315 331.79,196.186 331.79,196.027Z"/>
            </g>
        </g>
        <g transform="matrix(16.6667,0,0,16.6667,0,0)">
            <g transform="matrix(1,0,0,1,-22.4938,-50.0862)">
                <path d="M340.862,193.867L340.862,195.307" style="fill:none;fill-rule:nonzero;"/>
            </g>
        </g>
        <g transform="matrix(16.6667,0,0,16.6667,0,0)">
            <g transform="matrix(1,0,0,1,-22.4938,-50.0862)">
                <path d="M340.574,193.867L340.574,195.307C340.574,195.466 340.703,195.595 340.862,195.595C341.021,195.595 341.15,195.466 341.15,195.307L341.15,193.867C341.15,193.708 341.021,193.579 340.862,193.579C340.703,193.579 340.574,193.708 340.574,193.867Z"/>
            </g>
        </g>
        <g transform="matrix(16.6667,0,0,16.6667,0,0)">
            <g transform="matrix(1,0,0,1,-22.4938,-50.0862)">
                <path d="M332.222,195.307L332.222,190.987" style="fill:none;fill-rule:nonzero;"/>
            </g>
        </g>
        <g transform="matrix(16.6667,0,0,16.6667,0,0)">
            <g transform="matrix(1,0,0,1,-22.4938,-50.0862)">
                <path d="M332.51,195.307L332.51,190.987C332.51,190.828 332.381,190.699 332.222,190.699C332.063,190.699 331.934,190.828 331.934,190.987L331.934,195.307C331.934,195.466 332.063,195.595 332.222,195.595C332.381,195.595 332.51,195.466 332.51,195.307Z"/>
            </g>
        </g>
        <g transform="matrix(16.6667,0,0,16.6667,0,0)">
            <g transform="matrix(1,0,0,1,-22.4938,-50.0862)">
                <path d="M343.742,201.067L342.302,203.947" style="fill:none;fill-rule:nonzero;"/>
            </g>
        </g>
        <g transform="matrix(16.6667,0,0,16.6667,0,0)">
            <g transform="matrix(1,0,0,1,-22.4938,-50.0862)">
                <path d="M343.485,200.938L342.045,203.818C341.974,203.961 342.031,204.134 342.174,204.205C342.316,204.276 342.489,204.218 342.56,204.076L344,201.196C344.071,201.054 344.013,200.881 343.871,200.81C343.729,200.739 343.556,200.796 343.485,200.938Z"/>
            </g>
        </g>
        <g transform="matrix(16.6667,0,0,16.6667,0,0)">
            <g transform="matrix(1,0,0,1,-22.4938,-50.0862)">
                <path d="M331.502,185.947L330.782,185.227" style="fill:none;fill-rule:nonzero;"/>
            </g>
        </g>
        <g transform="matrix(16.6667,0,0,16.6667,0,0)">
            <g transform="matrix(1,0,0,1,-22.4938,-50.0862)">
                <path d="M331.706,185.744L330.986,185.024C330.874,184.911 330.691,184.911 330.579,185.024C330.466,185.136 330.466,185.318 330.579,185.431L331.299,186.151C331.411,186.263 331.594,186.263 331.706,186.151C331.818,186.038 331.818,185.856 331.706,185.744Z"/>
            </g>
        </g>
        <g transform="matrix(16.6667,0,0,16.6667,0,0)">
            <g transform="matrix(1,0,0,1,-22.4938,-50.0862)">
                <path d="M343.742,194.587L343.742,199.627" style="fill:none;fill-rule:nonzero;"/>
            </g>
        </g>
        <g transform="matrix(16.6667,0,0,16.6667,0,0)">
            <g transform="matrix(1,0,0,1,-22.4938,-50.0862)">
                <path d="M343.454,194.587L343.454,199.627C343.454,199.786 343.583,199.915 343.742,199.915C343.901,199.915 344.03,199.786 344.03,199.627L344.03,194.587C344.03,194.428 343.901,194.299 343.742,194.299C343.583,194.299 343.454,194.428 343.454,194.587Z"/>
            </g>
        </g>
        <g transform="matrix(16.6667,0,0,16.6667,0,0)">
            <g transform="matrix(1,0,0,1,-22.4938,-50.0862)">
                <path d="M337.982,195.307L337.982,196.747" style="fill:none;fill-rule:nonzero;"/>
            </g>
        </g>
        <g transform="matrix(16.6667,0,0,16.6667,0,0)">
            <g transform="matrix(1,0,0,1,-22.4938,-50.0862)">
                <path d="M337.694,195.307L337.694,196.747C337.694,196.906 337.823,197.035 337.982,197.035C338.141,197.035 338.27,196.906 338.27,196.747L338.27,195.307C338.27,195.148 338.141,195.019 337.982,195.019C337.823,195.019 337.694,195.148 337.694,195.307Z"/>
            </g>
        </g>
        <g transform="matrix(16.6667,0,0,16.6667,0,0)">
            <g transform="matrix(1,0,0,1,-22.4938,-50.0862)">
                <path d="M343.742,199.627L343.742,201.067" style="fill:none;fill-rule:nonzero;"/>
            </g>
        </g>
        <g transform="matrix(16.6667,0,0,16.6667,0,0)">
            <g transform="matrix(1,0,0,1,-22.4938,-50.0862)">
                <path d="M343.454,199.627L343.454,201.067C343.454,201.226 343.583,201.355 343.742,201.355C343.901,201.355 344.03,201.226 344.03,201.067L344.03,199.627C344.03,199.468 343.901,199.339 343.742,199.339C343.583,199.339 343.454,199.468 343.454,199.627Z"/>
            </g>
        </g>
        <g transform="matrix(16.6667,0,0,16.6667,0,0)">
            <g transform="matrix(1,0,0,1,-22.4938,-50.0862)">
                <path d="M332.222,195.307L332.222,196.747" style="fill:none;fill-rule:nonzero;"/>
            </g>
        </g>
        <g transform="matrix(16.6667,0,0,16.6667,0,0)">
            <g transform="matrix(1,0,0,1,-22.4938,-50.0862)">
                <path d="M331.934,195.307L331.934,196.747C331.934,196.906 332.063,197.035 332.222,197.035C332.381,197.035 332.51,196.906 332.51,196.747L332.51,195.307C332.51,195.148 332.381,195.019 332.222,195.019C332.063,195.019 331.934,195.148 331.934,195.307Z"/>
            </g>
        </g>
        <g transform="matrix(16.6667,0,0,16.6667,0,0)">
            <g transform="matrix(1,0,0,1,-22.4938,-50.0862)">
                <path d="M332.222,199.627L332.222,196.747" style="fill:none;fill-rule:nonzero;"/>
            </g>
        </g>
        <g transform="matrix(16.6667,0,0,16.6667,0,0)">
            <g transform="matrix(1,0,0,1,-22.4938,-50.0862)">
                <path d="M332.51,199.627L332.51,196.747C332.51,196.588 332.381,196.459 332.222,196.459C332.063,196.459 331.934,196.588 331.934,196.747L331.934,199.627C331.934,199.786 332.063,199.915 332.222,199.915C332.381,199.915 332.51,199.786 332.51,199.627Z"/>
            </g>
        </g>
        <g transform="matrix(16.6667,0,0,16.6667,0,0)">
            <g transform="matrix(1,0,0,1,-22.4938,-50.0862)">
                <path d="M336.542,187.387L337.982,187.387" style="fill:none;fill-rule:nonzero;"/>
            </g>
        </g>
        <g transform="matrix(16.6667,0,0,16.6667,0,0)">
            <g transform="matrix(1,0,0,1,-22.4938,-50.0862)">
                <path d="M336.542,187.675L337.982,187.675C338.141,187.675 338.27,187.546 338.27,187.387C338.27,187.228 338.141,187.099 337.982,187.099L336.542,187.099C336.383,187.099 336.254,187.228 336.254,187.387C336.254,187.546 336.383,187.675 336.542,187.675Z"/>
            </g>
        </g>
        <g transform="matrix(16.6667,0,0,16.6667,0,0)">
            <g transform="matrix(1,0,0,1,-22.4938,-50.0862)">
                <path d="M335.102,188.107L335.102,193.867" style="fill:none;fill-rule:nonzero;"/>
            </g>
        </g>
        <g transform="matrix(16.6667,0,0,16.6667,0,0)">
            <g transform="matrix(1,0,0,1,-22.4938,-50.0862)">
                <path d="M334.814,188.107L334.814,193.867C334.814,194.026 334.943,194.155 335.102,194.155C335.261,194.155 335.39,194.026 335.39,193.867L335.39,188.107C335.39,187.948 335.261,187.819 335.102,187.819C334.943,187.819 334.814,187.948 334.814,188.107Z"/>
            </g>
        </g>
        <g transform="matrix(16.6667,0,0,16.6667,0,0)">
            <g transform="matrix(1,0,0,1,-22.4938,-50.0862)">
                <path d="M328.622,196.027L328.622,197.467" style="fill:none;fill-rule:nonzero;"/>
            </g>
        </g>
        <g transform="matrix(16.6667,0,0,16.6667,0,0)">
            <g transform="matrix(1,0,0,1,-22.4938,-50.0862)">
                <path d="M328.334,196.027L328.334,197.467C328.334,197.626 328.463,197.755 328.622,197.755C328.781,197.755 328.91,197.626 328.91,197.467L328.91,196.027C328.91,195.868 328.781,195.739 328.622,195.739C328.463,195.739 328.334,195.868 328.334,196.027Z"/>
            </g>
        </g>
        <g transform="matrix(16.6667,0,0,16.6667,0,0)">
            <g transform="matrix(1,0,0,1,-22.4938,-50.0862)">
                <path d="M340.862,195.307L340.862,198.187" style="fill:none;fill-rule:nonzero;"/>
            </g>
        </g>
        <g transform="matrix(16.6667,0,0,16.6667,0,0)">
            <g transform="matrix(1,0,0,1,-22.4938,-50.0862)">
                <path d="M340.574,195.307L340.574,198.187C340.574,198.346 340.703,198.475 340.862,198.475C341.021,198.475 341.15,198.346 341.15,198.187L341.15,195.307C341.15,195.148 341.021,195.019 340.862,195.019C340.703,195.019 340.574,195.148 340.574,195.307Z"/>
            </g>
        </g>
        <g transform="matrix(16.6667,0,0,16.6667,0,0)">
            <g transform="matrix(1,0,0,1,-22.4938,-50.0862)">
                <path d="M331.502,196.027L332.222,199.627" style="fill:none;fill-rule:nonzero;"/>
            </g>
        </g>
        <g transform="matrix(16.6667,0,0,16.6667,0,0)">
            <g transform="matrix(1,0,0,1,-22.4938,-50.0862)">
                <path d="M331.22,196.084L331.94,199.684C331.971,199.84 332.123,199.941 332.279,199.91C332.435,199.878 332.536,199.727 332.505,199.571L331.785,195.971C331.754,195.815 331.602,195.714 331.446,195.745C331.29,195.776 331.189,195.928 331.22,196.084Z"/>
            </g>
        </g>
        <g transform="matrix(16.6667,0,0,16.6667,0,0)">
            <g transform="matrix(1,0,0,1,-22.4938,-50.0862)">
                <path d="M332.222,190.987L332.222,189.547" style="fill:none;fill-rule:nonzero;"/>
            </g>
        </g>
        <g transform="matrix(16.6667,0,0,16.6667,0,0)">
            <g transform="matrix(1,0,0,1,-22.4938,-50.0862)">
                <path d="M332.51,190.987L332.51,189.547C332.51,189.388 332.381,189.259 332.222,189.259C332.063,189.259 331.934,189.388 331.934,189.547L331.934,190.987C331.934,191.146 332.063,191.275 332.222,191.275C332.381,191.275 332.51,191.146 332.51,190.987Z"/>
            </g>
        </g>
        <g transform="matrix(16.6667,0,0,16.6667,0,0)">
            <g transform="matrix(1,0,0,1,-22.4938,-50.0862)">
                <path d="M330.062,202.507L332.222,204.667" style="fill:none;fill-rule:nonzero;"/>
            </g>
        </g>
        <g transform="matrix(16.6667,0,0,16.6667,0,0)">
            <g transform="matrix(1,0,0,1,-22.4938,-50.0862)">
                <path d="M329.859,202.711L332.019,204.871C332.131,204.983 332.314,204.983 332.426,204.871C332.538,204.758 332.538,204.576 332.426,204.464L330.266,202.304C330.154,202.191 329.971,202.191 329.859,202.304C329.746,202.416 329.746,202.598 329.859,202.711Z"/>
            </g>
        </g>
        <g transform="matrix(16.6667,0,0,16.6667,0,0)">
            <g transform="matrix(1,0,0,1,-22.4938,-50.0862)">
                <path d="M337.982,193.867C337.982,193.077 337.332,192.427 336.542,192.427C335.752,192.427 335.102,193.077 335.102,193.867" style="fill-opacity:0;fill-rule:nonzero;"/>
            </g>
        </g>
        <g transform="matrix(16.6667,0,0,16.6667,0,0)">
            <g transform="matrix(1,0,0,1,-22.4938,-50.0862)">
                <path d="M338.27,193.867C338.27,192.919 337.49,192.139 336.542,192.139C335.594,192.139 334.814,192.919 334.814,193.867C334.814,194.026 334.943,194.155 335.102,194.155C335.261,194.155 335.39,194.026 335.39,193.867C335.39,193.235 335.91,192.715 336.542,192.715C337.174,192.715 337.694,193.235 337.694,193.867C337.694,194.026 337.823,194.155 337.982,194.155C338.141,194.155 338.27,194.026 338.27,193.867Z"/>
            </g>
        </g>
        <g transform="matrix(16.6667,0,0,16.6667,0,0)">
            <g transform="matrix(1,0,0,1,-22.4938,-50.0862)">
                <path d="M340.862,193.867C340.862,193.077 340.212,192.427 339.422,192.427C338.632,192.427 337.982,193.077 337.982,193.867" style="fill-opacity:0;fill-rule:nonzero;"/>
            </g>
        </g>
        <g transform="matrix(16.6667,0,0,16.6667,0,0)">
            <g transform="matrix(1,0,0,1,-22.4938,-50.0862)">
                <path d="M341.15,193.867C341.15,192.919 340.37,192.139 339.422,192.139C338.474,192.139 337.694,192.919 337.694,193.867C337.694,194.026 337.823,194.155 337.982,194.155C338.141,194.155 338.27,194.026 338.27,193.867C338.27,193.235 338.79,192.715 339.422,192.715C340.054,192.715 340.574,193.235 340.574,193.867C340.574,194.026 340.703,194.155 340.862,194.155C341.021,194.155 341.15,194.026 341.15,193.867Z"/>
            </g>
        </g>
        <g transform="matrix(16.6667,0,0,16.6667,0,0)">
            <g transform="matrix(1,0,0,1,-22.4938,-50.0862)">
                <circle cx="336.96" cy="194.76" r="14.4" style="fill-opacity:0;"/>
            </g>
        </g>
        <g transform="matrix(16.6667,0,0,16.6667,0,0)">
            <g transform="matrix(1,0,0,1,-22.4938,-50.0862)">
                <path d="M336.96,180.19C328.919,180.19 322.39,186.719 322.39,194.76C322.39,202.801 328.919,209.33 336.96,209.33C345.001,209.33 351.53,202.801 351.53,194.76C351.53,186.719 345.001,180.19 336.96,180.19ZM336.96,180.53C344.814,180.53 351.19,186.906 351.19,194.76C351.19,202.614 344.814,208.99 336.96,208.99C329.106,208.99 322.73,202.614 322.73,194.76C322.73,186.906 329.106,180.53 336.96,180.53Z"/>
            </g>
        </g>
        <g transform="matrix(16.6667,0,0,16.6667,0,0)">
            <g transform="matrix(1,0,0,1,-22.4938,-50.0862)">
                <path d="M325.08,186.48L323.064,184.968" style="fill:none;fill-rule:nonzero;"/>
            </g>
        </g>
        <g transform="matrix(16.6667,0,0,16.6667,0,0)">
            <g transform="matrix(1,0,0,1,-22.4938,-50.0862)">
                <path d="M325.182,186.344L323.166,184.832C323.091,184.776 322.984,184.791 322.928,184.866C322.872,184.941 322.887,185.048 322.962,185.104L324.978,186.616C325.053,186.672 325.16,186.657 325.216,186.582C325.272,186.507 325.257,186.4 325.182,186.344Z"/>
            </g>
        </g>
    </g>
</svg>
