<?xml version="1.0" encoding="UTF-8" standalone="no"?>
<!DOCTYPE svg PUBLIC "-//W3C//DTD SVG 1.1//EN" "http://www.w3.org/Graphics/SVG/1.1/DTD/svg11.dtd">
<svg width="100%" height="100%" viewBox="0 0 486 486" version="1.1" xmlns="http://www.w3.org/2000/svg" xmlns:xlink="http://www.w3.org/1999/xlink" xml:space="preserve" xmlns:serif="http://www.serif.com/" style="fill-rule:evenodd;clip-rule:evenodd;stroke-linejoin:round;stroke-miterlimit:2;">
    <g transform="matrix(1,0,0,1,-1542.27,-2708.4)">
        <g transform="matrix(16.6667,0,0,16.6667,0,0)">
            <g transform="matrix(1,0,0,1,-22.4938,-50.0862)">
                <path d="M124.063,223.783L136.303,220.183" style="fill:none;fill-rule:nonzero;"/>
            </g>
        </g>
        <g transform="matrix(16.6667,0,0,16.6667,0,0)">
            <g transform="matrix(1,0,0,1,-22.4938,-50.0862)">
                <path d="M124.144,224.059L136.384,220.459C136.537,220.415 136.624,220.254 136.579,220.102C136.535,219.949 136.374,219.862 136.222,219.907L123.982,223.507C123.829,223.552 123.742,223.712 123.787,223.864C123.832,224.017 123.992,224.104 124.144,224.059Z"/>
            </g>
        </g>
        <g transform="matrix(16.6667,0,0,16.6667,0,0)">
            <g transform="matrix(1,0,0,1,-22.4938,-50.0862)">
                <circle cx="134.849" cy="231.386" r="0.72" style="fill-opacity:0;"/>
            </g>
        </g>
        <g transform="matrix(16.6667,0,0,16.6667,0,0)">
            <g transform="matrix(1,0,0,1,-22.4938,-50.0862)">
                <circle cx="134.849" cy="231.386" r="1.44"/>
            </g>
        </g>
        <g transform="matrix(16.6667,0,0,16.6667,0,0)">
            <g transform="matrix(1,0,0,1,-22.4938,-50.0862)">
                <circle cx="129.089" cy="227.786" r="0.72" style="fill-opacity:0;"/>
            </g>
        </g>
        <g transform="matrix(16.6667,0,0,16.6667,0,0)">
            <g transform="matrix(1,0,0,1,-22.4938,-50.0862)">
                <circle cx="129.089" cy="227.786" r="1.44"/>
            </g>
        </g>
        <g transform="matrix(16.6667,0,0,16.6667,0,0)">
            <g transform="matrix(1,0,0,1,-22.4938,-50.0862)">
                <circle cx="122.465" cy="233.114" r="0.72" style="fill-opacity:0;"/>
            </g>
        </g>
        <g transform="matrix(16.6667,0,0,16.6667,0,0)">
            <g transform="matrix(1,0,0,1,-22.4938,-50.0862)">
                <circle cx="122.465" cy="233.114" r="1.44"/>
            </g>
        </g>
        <g transform="matrix(16.6667,0,0,16.6667,0,0)">
            <g transform="matrix(1,0,0,1,-22.4938,-50.0862)">
                <path d="M136.289,231.386L136.289,229.226" style="fill:none;fill-rule:nonzero;"/>
            </g>
        </g>
        <g transform="matrix(16.6667,0,0,16.6667,0,0)">
            <g transform="matrix(1,0,0,1,-22.4938,-50.0862)">
                <path d="M136.577,231.386L136.577,229.226C136.577,229.067 136.448,228.938 136.289,228.938C136.13,228.938 136.001,229.067 136.001,229.226L136.001,231.386C136.001,231.545 136.13,231.674 136.289,231.674C136.448,231.674 136.577,231.545 136.577,231.386Z"/>
            </g>
        </g>
        <g transform="matrix(16.6667,0,0,16.6667,0,0)">
            <g transform="matrix(1,0,0,1,-22.4938,-50.0862)">
                <circle cx="134.849" cy="231.386" r="1.44" style="fill-opacity:0;"/>
            </g>
        </g>
        <g transform="matrix(16.6667,0,0,16.6667,0,0)">
            <g transform="matrix(1,0,0,1,-22.4938,-50.0862)">
                <path d="M134.849,229.658C133.895,229.658 133.121,230.433 133.121,231.386C133.121,232.34 133.895,233.114 134.849,233.114C135.803,233.114 136.577,232.34 136.577,231.386C136.577,230.433 135.803,229.658 134.849,229.658ZM134.849,230.234C135.485,230.234 136.001,230.751 136.001,231.386C136.001,232.022 135.485,232.538 134.849,232.538C134.213,232.538 133.697,232.022 133.697,231.386C133.697,230.751 134.213,230.234 134.849,230.234Z"/>
            </g>
        </g>
        <g transform="matrix(16.6667,0,0,16.6667,0,0)">
            <g transform="matrix(1,0,0,1,-22.4938,-50.0862)">
                <circle cx="129.089" cy="227.786" r="1.44" style="fill-opacity:0;"/>
            </g>
        </g>
        <g transform="matrix(16.6667,0,0,16.6667,0,0)">
            <g transform="matrix(1,0,0,1,-22.4938,-50.0862)">
                <path d="M129.089,226.058C128.135,226.058 127.361,226.833 127.361,227.786C127.361,228.74 128.135,229.514 129.089,229.514C130.043,229.514 130.817,228.74 130.817,227.786C130.817,226.833 130.043,226.058 129.089,226.058ZM129.089,226.634C129.725,226.634 130.241,227.151 130.241,227.786C130.241,228.422 129.725,228.938 129.089,228.938C128.453,228.938 127.937,228.422 127.937,227.786C127.937,227.151 128.453,226.634 129.089,226.634Z"/>
            </g>
        </g>
        <g transform="matrix(16.6667,0,0,16.6667,0,0)">
            <g transform="matrix(1,0,0,1,-22.4938,-50.0862)">
                <path d="M124.049,223.466L136.289,219.866" style="fill:none;fill-rule:nonzero;"/>
            </g>
        </g>
        <g transform="matrix(16.6667,0,0,16.6667,0,0)">
            <g transform="matrix(1,0,0,1,-22.4938,-50.0862)">
                <path d="M124.13,223.743L136.37,220.143C136.523,220.098 136.61,219.938 136.565,219.785C136.52,219.633 136.36,219.545 136.208,219.59L123.968,223.19C123.815,223.235 123.728,223.395 123.773,223.548C123.817,223.7 123.978,223.788 124.13,223.743Z"/>
            </g>
        </g>
        <g transform="matrix(16.6667,0,0,16.6667,0,0)">
            <g transform="matrix(1,0,0,1,-22.4938,-50.0862)">
                <path d="M124.049,224.186L136.289,220.586" style="fill:none;fill-rule:nonzero;"/>
            </g>
        </g>
        <g transform="matrix(16.6667,0,0,16.6667,0,0)">
            <g transform="matrix(1,0,0,1,-22.4938,-50.0862)">
                <path d="M124.13,224.463L136.37,220.863C136.523,220.818 136.61,220.658 136.565,220.505C136.52,220.353 136.36,220.265 136.208,220.31L123.968,223.91C123.815,223.955 123.728,224.115 123.773,224.268C123.817,224.42 123.978,224.508 124.13,224.463Z"/>
            </g>
        </g>
        <g transform="matrix(16.6667,0,0,16.6667,0,0)">
            <g transform="matrix(1,0,0,1,-22.4938,-50.0862)">
                <circle cx="122.609" cy="233.114" r="1.44" style="fill-opacity:0;"/>
            </g>
        </g>
        <g transform="matrix(16.6667,0,0,16.6667,0,0)">
            <g transform="matrix(1,0,0,1,-22.4938,-50.0862)">
                <path d="M122.609,231.386C121.655,231.386 120.881,232.161 120.881,233.114C120.881,234.068 121.655,234.842 122.609,234.842C123.563,234.842 124.337,234.068 124.337,233.114C124.337,232.161 123.563,231.386 122.609,231.386ZM122.609,231.962C123.245,231.962 123.761,232.479 123.761,233.114C123.761,233.75 123.245,234.266 122.609,234.266C121.973,234.266 121.457,233.75 121.457,233.114C121.457,232.479 121.973,231.962 122.609,231.962Z"/>
            </g>
        </g>
        <g transform="matrix(16.6667,0,0,16.6667,0,0)">
            <g transform="matrix(1,0,0,1,-22.4938,-50.0862)">
                <path d="M130.529,222.026L130.529,227.786" style="fill:none;fill-rule:nonzero;"/>
            </g>
        </g>
        <g transform="matrix(16.6667,0,0,16.6667,0,0)">
            <g transform="matrix(1,0,0,1,-22.4938,-50.0862)">
                <path d="M130.241,222.026L130.241,227.786C130.241,227.945 130.37,228.074 130.529,228.074C130.688,228.074 130.817,227.945 130.817,227.786L130.817,222.026C130.817,221.867 130.688,221.738 130.529,221.738C130.37,221.738 130.241,221.867 130.241,222.026Z"/>
            </g>
        </g>
        <g transform="matrix(16.6667,0,0,16.6667,0,0)">
            <g transform="matrix(1,0,0,1,-22.4938,-50.0862)">
                <path d="M136.289,219.866L136.289,229.226" style="fill:none;fill-rule:nonzero;"/>
            </g>
        </g>
        <g transform="matrix(16.6667,0,0,16.6667,0,0)">
            <g transform="matrix(1,0,0,1,-22.4938,-50.0862)">
                <path d="M136.001,219.866L136.001,229.226C136.001,229.385 136.13,229.514 136.289,229.514C136.448,229.514 136.577,229.385 136.577,229.226L136.577,219.866C136.577,219.707 136.448,219.578 136.289,219.578C136.13,219.578 136.001,219.707 136.001,219.866Z"/>
            </g>
        </g>
        <g transform="matrix(16.6667,0,0,16.6667,0,0)">
            <g transform="matrix(1,0,0,1,-22.4938,-50.0862)">
                <path d="M124.049,233.258L124.049,223.466" style="fill:none;fill-rule:nonzero;"/>
            </g>
        </g>
        <g transform="matrix(16.6667,0,0,16.6667,0,0)">
            <g transform="matrix(1,0,0,1,-22.4938,-50.0862)">
                <path d="M124.337,233.258L124.337,223.466C124.337,223.307 124.208,223.178 124.049,223.178C123.89,223.178 123.761,223.307 123.761,223.466L123.761,233.258C123.761,233.417 123.89,233.546 124.049,233.546C124.208,233.546 124.337,233.417 124.337,233.258Z"/>
            </g>
        </g>
        <g transform="matrix(16.6667,0,0,16.6667,0,0)">
            <g transform="matrix(1,0,0,1,-22.4938,-50.0862)">
                <path d="M117.72,218.88L115.704,217.368" style="fill:none;fill-rule:nonzero;"/>
            </g>
        </g>
        <g transform="matrix(16.6667,0,0,16.6667,0,0)">
            <g transform="matrix(1,0,0,1,-22.4938,-50.0862)">
                <path d="M117.822,218.744L115.806,217.232C115.731,217.176 115.624,217.191 115.568,217.266C115.512,217.341 115.527,217.448 115.602,217.504L117.618,219.016C117.693,219.072 117.8,219.057 117.856,218.982C117.912,218.907 117.897,218.8 117.822,218.744Z"/>
            </g>
        </g>
        <g transform="matrix(16.6667,0,0,16.6667,0,0)">
            <g transform="matrix(1,0,0,1,-22.4938,-50.0862)">
                <circle cx="129.6" cy="227.16" r="14.4" style="fill-opacity:0;"/>
            </g>
        </g>
        <g transform="matrix(16.6667,0,0,16.6667,0,0)">
            <g transform="matrix(1,0,0,1,-22.4938,-50.0862)">
                <path d="M129.6,212.59C121.559,212.59 115.03,219.119 115.03,227.16C115.03,235.201 121.559,241.73 129.6,241.73C137.641,241.73 144.17,235.201 144.17,227.16C144.17,219.119 137.641,212.59 129.6,212.59ZM129.6,212.93C137.454,212.93 143.83,219.306 143.83,227.16C143.83,235.014 137.454,241.39 129.6,241.39C121.746,241.39 115.37,235.014 115.37,227.16C115.37,219.306 121.746,212.93 129.6,212.93Z"/>
            </g>
        </g>
    </g>
</svg>
