<?xml version="1.0" encoding="UTF-8" standalone="no"?>
<!DOCTYPE svg PUBLIC "-//W3C//DTD SVG 1.1//EN" "http://www.w3.org/Graphics/SVG/1.1/DTD/svg11.dtd">
<svg width="100%" height="100%" viewBox="0 0 486 486" version="1.1" xmlns="http://www.w3.org/2000/svg" xmlns:xlink="http://www.w3.org/1999/xlink" xml:space="preserve" xmlns:serif="http://www.serif.com/" style="fill-rule:evenodd;clip-rule:evenodd;stroke-linejoin:round;stroke-miterlimit:2;">
    <g transform="matrix(1,0,0,1,-2118.27,-2708.4)">
        <g transform="matrix(16.6667,0,0,16.6667,0,0)">
            <g transform="matrix(1,0,0,1,-22.4938,-50.0862)">
                <path d="M157.14,229.86L158.58,228.42" style="fill:none;fill-rule:nonzero;"/>
            </g>
        </g>
        <g transform="matrix(16.6667,0,0,16.6667,0,0)">
            <g transform="matrix(1,0,0,1,-22.4938,-50.0862)">
                <path d="M157.344,230.064L158.784,228.624C158.896,228.511 158.896,228.329 158.784,228.216C158.671,228.104 158.489,228.104 158.376,228.216L156.936,229.656C156.824,229.769 156.824,229.951 156.936,230.064C157.049,230.176 157.231,230.176 157.344,230.064Z"/>
            </g>
        </g>
        <g transform="matrix(16.6667,0,0,16.6667,0,0)">
            <g transform="matrix(1,0,0,1,-22.4938,-50.0862)">
                <path d="M157.14,229.86L158.58,231.3" style="fill:none;fill-rule:nonzero;"/>
            </g>
        </g>
        <g transform="matrix(16.6667,0,0,16.6667,0,0)">
            <g transform="matrix(1,0,0,1,-22.4938,-50.0862)">
                <path d="M156.936,230.064L158.376,231.504C158.489,231.616 158.671,231.616 158.784,231.504C158.896,231.391 158.896,231.209 158.784,231.096L157.344,229.656C157.231,229.544 157.049,229.544 156.936,229.656C156.824,229.769 156.824,229.951 156.936,230.064Z"/>
            </g>
        </g>
        <g transform="matrix(16.6667,0,0,16.6667,0,0)">
            <g transform="matrix(1,0,0,1,-22.4938,-50.0862)">
                <path d="M157.14,223.74L158.58,222.3" style="fill:none;fill-rule:nonzero;"/>
            </g>
        </g>
        <g transform="matrix(16.6667,0,0,16.6667,0,0)">
            <g transform="matrix(1,0,0,1,-22.4938,-50.0862)">
                <path d="M157.344,223.944L158.784,222.504C158.896,222.391 158.896,222.209 158.784,222.096C158.671,221.984 158.489,221.984 158.376,222.096L156.936,223.536C156.824,223.649 156.824,223.831 156.936,223.944C157.049,224.056 157.231,224.056 157.344,223.944Z"/>
            </g>
        </g>
        <g transform="matrix(16.6667,0,0,16.6667,0,0)">
            <g transform="matrix(1,0,0,1,-22.4938,-50.0862)">
                <path d="M157.14,223.74L158.58,225.18" style="fill:none;fill-rule:nonzero;"/>
            </g>
        </g>
        <g transform="matrix(16.6667,0,0,16.6667,0,0)">
            <g transform="matrix(1,0,0,1,-22.4938,-50.0862)">
                <path d="M156.936,223.944L158.376,225.384C158.489,225.496 158.671,225.496 158.784,225.384C158.896,225.271 158.896,225.089 158.784,224.976L157.344,223.536C157.231,223.424 157.049,223.424 156.936,223.536C156.824,223.649 156.824,223.831 156.936,223.944Z"/>
            </g>
        </g>
        <g transform="matrix(16.6667,0,0,16.6667,0,0)">
            <g transform="matrix(1,0,0,1,-22.4938,-50.0862)">
                <path d="M160.74,223.74L157.14,223.74" style="fill:none;fill-rule:nonzero;"/>
            </g>
        </g>
        <g transform="matrix(16.6667,0,0,16.6667,0,0)">
            <g transform="matrix(1,0,0,1,-22.4938,-50.0862)">
                <path d="M160.74,223.452L157.14,223.452C156.981,223.452 156.852,223.581 156.852,223.74C156.852,223.899 156.981,224.028 157.14,224.028L160.74,224.028C160.899,224.028 161.028,223.899 161.028,223.74C161.028,223.581 160.899,223.452 160.74,223.452Z"/>
            </g>
        </g>
        <g transform="matrix(16.6667,0,0,16.6667,0,0)">
            <g transform="matrix(1,0,0,1,-22.4938,-50.0862)">
                <path d="M162.9,225.9L160.74,223.74" style="fill:none;fill-rule:nonzero;"/>
            </g>
        </g>
        <g transform="matrix(16.6667,0,0,16.6667,0,0)">
            <g transform="matrix(1,0,0,1,-22.4938,-50.0862)">
                <path d="M163.104,225.696L160.944,223.536C160.831,223.424 160.649,223.424 160.536,223.536C160.424,223.649 160.424,223.831 160.536,223.944L162.696,226.104C162.809,226.216 162.991,226.216 163.104,226.104C163.216,225.991 163.216,225.809 163.104,225.696Z"/>
            </g>
        </g>
        <g transform="matrix(16.6667,0,0,16.6667,0,0)">
            <g transform="matrix(1,0,0,1,-22.4938,-50.0862)">
                <path d="M166.86,229.86L164.7,227.7" style="fill:none;fill-rule:nonzero;"/>
            </g>
        </g>
        <g transform="matrix(16.6667,0,0,16.6667,0,0)">
            <g transform="matrix(1,0,0,1,-22.4938,-50.0862)">
                <path d="M167.064,229.656L164.904,227.496C164.791,227.384 164.609,227.384 164.496,227.496C164.384,227.609 164.384,227.791 164.496,227.904L166.656,230.064C166.769,230.176 166.951,230.176 167.064,230.064C167.176,229.951 167.176,229.769 167.064,229.656Z"/>
            </g>
        </g>
        <g transform="matrix(16.6667,0,0,16.6667,0,0)">
            <g transform="matrix(1,0,0,1,-22.4938,-50.0862)">
                <path d="M171.18,229.86L166.86,229.86" style="fill:none;fill-rule:nonzero;"/>
            </g>
        </g>
        <g transform="matrix(16.6667,0,0,16.6667,0,0)">
            <g transform="matrix(1,0,0,1,-22.4938,-50.0862)">
                <path d="M171.18,229.572L166.86,229.572C166.701,229.572 166.572,229.701 166.572,229.86C166.572,230.019 166.701,230.148 166.86,230.148L171.18,230.148C171.339,230.148 171.468,230.019 171.468,229.86C171.468,229.701 171.339,229.572 171.18,229.572Z"/>
            </g>
        </g>
        <g transform="matrix(16.6667,0,0,16.6667,0,0)">
            <g transform="matrix(1,0,0,1,-22.4938,-50.0862)">
                <path d="M160.74,229.86L157.14,229.86" style="fill:none;fill-rule:nonzero;"/>
            </g>
        </g>
        <g transform="matrix(16.6667,0,0,16.6667,0,0)">
            <g transform="matrix(1,0,0,1,-22.4938,-50.0862)">
                <path d="M160.74,229.572L157.14,229.572C156.981,229.572 156.852,229.701 156.852,229.86C156.852,230.019 156.981,230.148 157.14,230.148L160.74,230.148C160.899,230.148 161.028,230.019 161.028,229.86C161.028,229.701 160.899,229.572 160.74,229.572Z"/>
            </g>
        </g>
        <g transform="matrix(16.6667,0,0,16.6667,0,0)">
            <g transform="matrix(1,0,0,1,-22.4938,-50.0862)">
                <path d="M166.86,223.74L160.74,229.86" style="fill:none;fill-rule:nonzero;"/>
            </g>
        </g>
        <g transform="matrix(16.6667,0,0,16.6667,0,0)">
            <g transform="matrix(1,0,0,1,-22.4938,-50.0862)">
                <path d="M166.656,223.536L160.536,229.656C160.424,229.769 160.424,229.951 160.536,230.064C160.649,230.176 160.831,230.176 160.944,230.064L167.064,223.944C167.176,223.831 167.176,223.649 167.064,223.536C166.951,223.424 166.769,223.424 166.656,223.536Z"/>
            </g>
        </g>
        <g transform="matrix(16.6667,0,0,16.6667,0,0)">
            <g transform="matrix(1,0,0,1,-22.4938,-50.0862)">
                <path d="M171.18,223.74L166.86,223.74" style="fill:none;fill-rule:nonzero;"/>
            </g>
        </g>
        <g transform="matrix(16.6667,0,0,16.6667,0,0)">
            <g transform="matrix(1,0,0,1,-22.4938,-50.0862)">
                <path d="M171.18,223.452L166.86,223.452C166.701,223.452 166.572,223.581 166.572,223.74C166.572,223.899 166.701,224.028 166.86,224.028L171.18,224.028C171.339,224.028 171.468,223.899 171.468,223.74C171.468,223.581 171.339,223.452 171.18,223.452Z"/>
            </g>
        </g>
        <g transform="matrix(16.6667,0,0,16.6667,0,0)">
            <g transform="matrix(1,0,0,1,-22.4938,-50.0862)">
                <path d="M171.18,229.86L169.74,231.3" style="fill:none;fill-rule:nonzero;"/>
            </g>
        </g>
        <g transform="matrix(16.6667,0,0,16.6667,0,0)">
            <g transform="matrix(1,0,0,1,-22.4938,-50.0862)">
                <path d="M170.976,229.656L169.536,231.096C169.424,231.209 169.424,231.391 169.536,231.504C169.649,231.616 169.831,231.616 169.944,231.504L171.384,230.064C171.496,229.951 171.496,229.769 171.384,229.656C171.271,229.544 171.089,229.544 170.976,229.656Z"/>
            </g>
        </g>
        <g transform="matrix(16.6667,0,0,16.6667,0,0)">
            <g transform="matrix(1,0,0,1,-22.4938,-50.0862)">
                <path d="M171.18,229.86L169.74,228.42" style="fill:none;fill-rule:nonzero;"/>
            </g>
        </g>
        <g transform="matrix(16.6667,0,0,16.6667,0,0)">
            <g transform="matrix(1,0,0,1,-22.4938,-50.0862)">
                <path d="M171.384,229.656L169.944,228.216C169.831,228.104 169.649,228.104 169.536,228.216C169.424,228.329 169.424,228.511 169.536,228.624L170.976,230.064C171.089,230.176 171.271,230.176 171.384,230.064C171.496,229.951 171.496,229.769 171.384,229.656Z"/>
            </g>
        </g>
        <g transform="matrix(16.6667,0,0,16.6667,0,0)">
            <g transform="matrix(1,0,0,1,-22.4938,-50.0862)">
                <path d="M171.18,223.74L169.74,225.18" style="fill:none;fill-rule:nonzero;"/>
            </g>
        </g>
        <g transform="matrix(16.6667,0,0,16.6667,0,0)">
            <g transform="matrix(1,0,0,1,-22.4938,-50.0862)">
                <path d="M170.976,223.536L169.536,224.976C169.424,225.089 169.424,225.271 169.536,225.384C169.649,225.496 169.831,225.496 169.944,225.384L171.384,223.944C171.496,223.831 171.496,223.649 171.384,223.536C171.271,223.424 171.089,223.424 170.976,223.536Z"/>
            </g>
        </g>
        <g transform="matrix(16.6667,0,0,16.6667,0,0)">
            <g transform="matrix(1,0,0,1,-22.4938,-50.0862)">
                <path d="M171.18,223.74L169.74,222.3" style="fill:none;fill-rule:nonzero;"/>
            </g>
        </g>
        <g transform="matrix(16.6667,0,0,16.6667,0,0)">
            <g transform="matrix(1,0,0,1,-22.4938,-50.0862)">
                <path d="M171.384,223.536L169.944,222.096C169.831,221.984 169.649,221.984 169.536,222.096C169.424,222.209 169.424,222.391 169.536,222.504L170.976,223.944C171.089,224.056 171.271,224.056 171.384,223.944C171.496,223.831 171.496,223.649 171.384,223.536Z"/>
            </g>
        </g>
        <g transform="matrix(16.6667,0,0,16.6667,0,0)">
            <g transform="matrix(1,0,0,1,-22.4938,-50.0862)">
                <path d="M152.28,218.88L150.264,217.368" style="fill:none;fill-rule:nonzero;"/>
            </g>
        </g>
        <g transform="matrix(16.6667,0,0,16.6667,0,0)">
            <g transform="matrix(1,0,0,1,-22.4938,-50.0862)">
                <path d="M152.382,218.744L150.366,217.232C150.291,217.176 150.184,217.191 150.128,217.266C150.072,217.341 150.087,217.448 150.162,217.504L152.178,219.016C152.253,219.072 152.36,219.057 152.416,218.982C152.472,218.907 152.457,218.8 152.382,218.744Z"/>
            </g>
        </g>
        <g transform="matrix(16.6667,0,0,16.6667,0,0)">
            <g transform="matrix(1,0,0,1,-22.4938,-50.0862)">
                <circle cx="164.16" cy="227.16" r="14.4" style="fill-opacity:0;"/>
            </g>
        </g>
        <g transform="matrix(16.6667,0,0,16.6667,0,0)">
            <g transform="matrix(1,0,0,1,-22.4938,-50.0862)">
                <path d="M164.16,212.59C156.119,212.59 149.59,219.119 149.59,227.16C149.59,235.201 156.119,241.73 164.16,241.73C172.201,241.73 178.73,235.201 178.73,227.16C178.73,219.119 172.201,212.59 164.16,212.59ZM164.16,212.93C172.014,212.93 178.39,219.306 178.39,227.16C178.39,235.014 172.014,241.39 164.16,241.39C156.306,241.39 149.93,235.014 149.93,227.16C149.93,219.306 156.306,212.93 164.16,212.93Z"/>
            </g>
        </g>
    </g>
</svg>
