<?xml version="1.0" encoding="UTF-8" standalone="no"?>
<!DOCTYPE svg PUBLIC "-//W3C//DTD SVG 1.1//EN" "http://www.w3.org/Graphics/SVG/1.1/DTD/svg11.dtd">
<svg width="100%" height="100%" viewBox="0 0 486 486" version="1.1" xmlns="http://www.w3.org/2000/svg" xmlns:xlink="http://www.w3.org/1999/xlink" xml:space="preserve" xmlns:serif="http://www.serif.com/" style="fill-rule:evenodd;clip-rule:evenodd;stroke-linejoin:round;stroke-miterlimit:2;">
    <g transform="matrix(1,0,0,1,-2694.27,-2708.4)">
        <g transform="matrix(16.6667,0,0,16.6667,0,0)">
            <g transform="matrix(1,0,0,1,-22.4938,-50.0862)">
                <circle cx="198.72" cy="230.76" r="0.72" style="fill-opacity:0;"/>
            </g>
        </g>
        <g transform="matrix(16.6667,0,0,16.6667,0,0)">
            <g transform="matrix(1,0,0,1,-22.4938,-50.0862)">
                <path d="M198.72,229.752C198.164,229.752 197.712,230.204 197.712,230.76C197.712,231.316 198.164,231.768 198.72,231.768C199.276,231.768 199.728,231.316 199.728,230.76C199.728,230.204 199.276,229.752 198.72,229.752ZM198.72,230.328C198.958,230.328 199.152,230.522 199.152,230.76C199.152,230.998 198.958,231.192 198.72,231.192C198.482,231.192 198.288,230.998 198.288,230.76C198.288,230.522 198.482,230.328 198.72,230.328Z"/>
            </g>
        </g>
        <g transform="matrix(16.6667,0,0,16.6667,0,0)">
            <g transform="matrix(1,0,0,1,-22.4938,-50.0862)">
                <circle cx="198.72" cy="222.84" r="0.72" style="fill-opacity:0;"/>
            </g>
        </g>
        <g transform="matrix(16.6667,0,0,16.6667,0,0)">
            <g transform="matrix(1,0,0,1,-22.4938,-50.0862)">
                <path d="M198.72,221.832C198.164,221.832 197.712,222.284 197.712,222.84C197.712,223.396 198.164,223.848 198.72,223.848C199.276,223.848 199.728,223.396 199.728,222.84C199.728,222.284 199.276,221.832 198.72,221.832ZM198.72,222.408C198.958,222.408 199.152,222.602 199.152,222.84C199.152,223.078 198.958,223.272 198.72,223.272C198.482,223.272 198.288,223.078 198.288,222.84C198.288,222.602 198.482,222.408 198.72,222.408Z"/>
            </g>
        </g>
        <g transform="matrix(16.6667,0,0,16.6667,0,0)">
            <g transform="matrix(1,0,0,1,-22.4938,-50.0862)">
                <path d="M198.72,226.8L203.4,226.8" style="fill:none;fill-rule:nonzero;"/>
            </g>
        </g>
        <g transform="matrix(16.6667,0,0,16.6667,0,0)">
            <g transform="matrix(1,0,0,1,-22.4938,-50.0862)">
                <path d="M198.72,227.088L203.4,227.088C203.559,227.088 203.688,226.959 203.688,226.8C203.688,226.641 203.559,226.512 203.4,226.512L198.72,226.512C198.561,226.512 198.432,226.641 198.432,226.8C198.432,226.959 198.561,227.088 198.72,227.088Z"/>
            </g>
        </g>
        <g transform="matrix(16.6667,0,0,16.6667,0,0)">
            <g transform="matrix(1,0,0,1,-22.4938,-50.0862)">
                <path d="M198.72,226.8L194.04,226.8" style="fill:none;fill-rule:nonzero;"/>
            </g>
        </g>
        <g transform="matrix(16.6667,0,0,16.6667,0,0)">
            <g transform="matrix(1,0,0,1,-22.4938,-50.0862)">
                <path d="M198.72,226.512L194.04,226.512C193.881,226.512 193.752,226.641 193.752,226.8C193.752,226.959 193.881,227.088 194.04,227.088L198.72,227.088C198.879,227.088 199.008,226.959 199.008,226.8C199.008,226.641 198.879,226.512 198.72,226.512Z"/>
            </g>
        </g>
        <g transform="matrix(16.6667,0,0,16.6667,0,0)">
            <g transform="matrix(1,0,0,1,-22.4938,-50.0862)">
                <path d="M186.84,218.88L184.824,217.368" style="fill:none;fill-rule:nonzero;"/>
            </g>
        </g>
        <g transform="matrix(16.6667,0,0,16.6667,0,0)">
            <g transform="matrix(1,0,0,1,-22.4938,-50.0862)">
                <path d="M186.942,218.744L184.926,217.232C184.851,217.176 184.744,217.191 184.688,217.266C184.632,217.341 184.647,217.448 184.722,217.504L186.738,219.016C186.813,219.072 186.92,219.057 186.976,218.982C187.032,218.907 187.017,218.8 186.942,218.744Z"/>
            </g>
        </g>
        <g transform="matrix(16.6667,0,0,16.6667,0,0)">
            <g transform="matrix(1,0,0,1,-22.4938,-50.0862)">
                <circle cx="198.72" cy="227.16" r="14.4" style="fill-opacity:0;"/>
            </g>
        </g>
        <g transform="matrix(16.6667,0,0,16.6667,0,0)">
            <g transform="matrix(1,0,0,1,-22.4938,-50.0862)">
                <path d="M198.72,212.59C190.679,212.59 184.15,219.119 184.15,227.16C184.15,235.201 190.679,241.73 198.72,241.73C206.761,241.73 213.29,235.201 213.29,227.16C213.29,219.119 206.761,212.59 198.72,212.59ZM198.72,212.93C206.574,212.93 212.95,219.306 212.95,227.16C212.95,235.014 206.574,241.39 198.72,241.39C190.866,241.39 184.49,235.014 184.49,227.16C184.49,219.306 190.866,212.93 198.72,212.93Z"/>
            </g>
        </g>
    </g>
</svg>
