<?xml version="1.0" encoding="UTF-8" standalone="no"?>
<!DOCTYPE svg PUBLIC "-//W3C//DTD SVG 1.1//EN" "http://www.w3.org/Graphics/SVG/1.1/DTD/svg11.dtd">
<svg width="100%" height="100%" viewBox="0 0 486 486" version="1.1" xmlns="http://www.w3.org/2000/svg" xmlns:xlink="http://www.w3.org/1999/xlink" xml:space="preserve" xmlns:serif="http://www.serif.com/" style="fill-rule:evenodd;clip-rule:evenodd;stroke-linejoin:round;stroke-miterlimit:2;">
    <g transform="matrix(1,0,0,1,-3270.27,-2708.4)">
        <g transform="matrix(16.6667,0,0,16.6667,0,0)">
            <g transform="matrix(1,0,0,1,-22.4938,-50.0862)">
                <circle cx="236.88" cy="230.4" r="0.72" style="fill-opacity:0;"/>
            </g>
        </g>
        <g transform="matrix(16.6667,0,0,16.6667,0,0)">
            <g transform="matrix(1,0,0,1,-22.4938,-50.0862)">
                <path d="M236.88,229.392C236.324,229.392 235.872,229.844 235.872,230.4C235.872,230.956 236.324,231.408 236.88,231.408C237.436,231.408 237.888,230.956 237.888,230.4C237.888,229.844 237.436,229.392 236.88,229.392ZM236.88,229.968C237.118,229.968 237.312,230.162 237.312,230.4C237.312,230.638 237.118,230.832 236.88,230.832C236.642,230.832 236.448,230.638 236.448,230.4C236.448,230.162 236.642,229.968 236.88,229.968Z"/>
            </g>
        </g>
        <g transform="matrix(16.6667,0,0,16.6667,0,0)">
            <g transform="matrix(1,0,0,1,-22.4938,-50.0862)">
                <circle cx="229.68" cy="223.2" r="0.72" style="fill-opacity:0;"/>
            </g>
        </g>
        <g transform="matrix(16.6667,0,0,16.6667,0,0)">
            <g transform="matrix(1,0,0,1,-22.4938,-50.0862)">
                <path d="M229.68,222.192C229.124,222.192 228.672,222.644 228.672,223.2C228.672,223.756 229.124,224.208 229.68,224.208C230.236,224.208 230.688,223.756 230.688,223.2C230.688,222.644 230.236,222.192 229.68,222.192ZM229.68,222.768C229.918,222.768 230.112,222.962 230.112,223.2C230.112,223.438 229.918,223.632 229.68,223.632C229.442,223.632 229.248,223.438 229.248,223.2C229.248,222.962 229.442,222.768 229.68,222.768Z"/>
            </g>
        </g>
        <g transform="matrix(16.6667,0,0,16.6667,0,0)">
            <g transform="matrix(1,0,0,1,-22.4938,-50.0862)">
                <path d="M233.28,226.8L237.6,222.48" style="fill:none;fill-rule:nonzero;"/>
            </g>
        </g>
        <g transform="matrix(16.6667,0,0,16.6667,0,0)">
            <g transform="matrix(1,0,0,1,-22.4938,-50.0862)">
                <path d="M233.484,227.004L237.804,222.684C237.916,222.571 237.916,222.389 237.804,222.276C237.691,222.164 237.509,222.164 237.396,222.276L233.076,226.596C232.964,226.709 232.964,226.891 233.076,227.004C233.189,227.116 233.371,227.116 233.484,227.004Z"/>
            </g>
        </g>
        <g transform="matrix(16.6667,0,0,16.6667,0,0)">
            <g transform="matrix(1,0,0,1,-22.4938,-50.0862)">
                <path d="M233.28,226.8L228.96,231.12" style="fill:none;fill-rule:nonzero;"/>
            </g>
        </g>
        <g transform="matrix(16.6667,0,0,16.6667,0,0)">
            <g transform="matrix(1,0,0,1,-22.4938,-50.0862)">
                <path d="M233.076,226.596L228.756,230.916C228.644,231.029 228.644,231.211 228.756,231.324C228.869,231.436 229.051,231.436 229.164,231.324L233.484,227.004C233.596,226.891 233.596,226.709 233.484,226.596C233.371,226.484 233.189,226.484 233.076,226.596Z"/>
            </g>
        </g>
        <g transform="matrix(16.6667,0,0,16.6667,0,0)">
            <g transform="matrix(1,0,0,1,-22.4938,-50.0862)">
                <path d="M221.4,218.88L219.384,217.368" style="fill:none;fill-rule:nonzero;"/>
            </g>
        </g>
        <g transform="matrix(16.6667,0,0,16.6667,0,0)">
            <g transform="matrix(1,0,0,1,-22.4938,-50.0862)">
                <path d="M221.502,218.744L219.486,217.232C219.411,217.176 219.304,217.191 219.248,217.266C219.192,217.341 219.207,217.448 219.282,217.504L221.298,219.016C221.373,219.072 221.48,219.057 221.536,218.982C221.592,218.907 221.577,218.8 221.502,218.744Z"/>
            </g>
        </g>
        <g transform="matrix(16.6667,0,0,16.6667,0,0)">
            <g transform="matrix(1,0,0,1,-22.4938,-50.0862)">
                <circle cx="233.28" cy="227.16" r="14.4" style="fill-opacity:0;"/>
            </g>
        </g>
        <g transform="matrix(16.6667,0,0,16.6667,0,0)">
            <g transform="matrix(1,0,0,1,-22.4938,-50.0862)">
                <path d="M233.28,212.59C225.239,212.59 218.71,219.119 218.71,227.16C218.71,235.201 225.239,241.73 233.28,241.73C241.321,241.73 247.85,235.201 247.85,227.16C247.85,219.119 241.321,212.59 233.28,212.59ZM233.28,212.93C241.134,212.93 247.51,219.306 247.51,227.16C247.51,235.014 241.134,241.39 233.28,241.39C225.426,241.39 219.05,235.014 219.05,227.16C219.05,219.306 225.426,212.93 233.28,212.93Z"/>
            </g>
        </g>
    </g>
</svg>
