<?xml version="1.0" encoding="UTF-8" standalone="no"?>
<!DOCTYPE svg PUBLIC "-//W3C//DTD SVG 1.1//EN" "http://www.w3.org/Graphics/SVG/1.1/DTD/svg11.dtd">
<svg width="100%" height="100%" viewBox="0 0 486 486" version="1.1" xmlns="http://www.w3.org/2000/svg" xmlns:xlink="http://www.w3.org/1999/xlink" xml:space="preserve" xmlns:serif="http://www.serif.com/" style="fill-rule:evenodd;clip-rule:evenodd;stroke-linejoin:round;stroke-miterlimit:2;">
    <g transform="matrix(1,0,0,1,-3846.27,-2708.4)">
        <g transform="matrix(16.6667,0,0,16.6667,0,0)">
            <g transform="matrix(1,0,0,1,-22.4938,-50.0862)">
                <path d="M277.92,231.48L277.92,222.84" style="fill:none;fill-rule:nonzero;"/>
            </g>
        </g>
        <g transform="matrix(16.6667,0,0,16.6667,0,0)">
            <g transform="matrix(1,0,0,1,-22.4938,-50.0862)">
                <path d="M278.208,231.48L278.208,222.84C278.208,222.681 278.079,222.552 277.92,222.552C277.761,222.552 277.632,222.681 277.632,222.84L277.632,231.48C277.632,231.639 277.761,231.768 277.92,231.768C278.079,231.768 278.208,231.639 278.208,231.48Z"/>
            </g>
        </g>
        <g transform="matrix(16.6667,0,0,16.6667,0,0)">
            <g transform="matrix(1,0,0,1,-22.4938,-50.0862)">
                <path d="M258.12,231.48L258.12,222.84" style="fill:none;fill-rule:nonzero;"/>
            </g>
        </g>
        <g transform="matrix(16.6667,0,0,16.6667,0,0)">
            <g transform="matrix(1,0,0,1,-22.4938,-50.0862)">
                <path d="M258.408,231.48L258.408,222.84C258.408,222.681 258.279,222.552 258.12,222.552C257.961,222.552 257.832,222.681 257.832,222.84L257.832,231.48C257.832,231.639 257.961,231.768 258.12,231.768C258.279,231.768 258.408,231.639 258.408,231.48Z"/>
            </g>
        </g>
        <g transform="matrix(16.6667,0,0,16.6667,0,0)">
            <g transform="matrix(1,0,0,1,-22.4938,-50.0862)">
                <path d="M258.84,229.68L260.64,231.48" style="fill:none;fill-rule:nonzero;"/>
            </g>
        </g>
        <g transform="matrix(16.6667,0,0,16.6667,0,0)">
            <g transform="matrix(1,0,0,1,-22.4938,-50.0862)">
                <path d="M258.636,229.884L260.436,231.684C260.549,231.796 260.731,231.796 260.844,231.684C260.956,231.571 260.956,231.389 260.844,231.276L259.044,229.476C258.931,229.364 258.749,229.364 258.636,229.476C258.524,229.589 258.524,229.771 258.636,229.884Z"/>
            </g>
        </g>
        <g transform="matrix(16.6667,0,0,16.6667,0,0)">
            <g transform="matrix(1,0,0,1,-22.4938,-50.0862)">
                <path d="M277.2,229.68L275.4,227.88" style="fill:none;fill-rule:nonzero;"/>
            </g>
        </g>
        <g transform="matrix(16.6667,0,0,16.6667,0,0)">
            <g transform="matrix(1,0,0,1,-22.4938,-50.0862)">
                <path d="M277.404,229.476L275.604,227.676C275.491,227.564 275.309,227.564 275.196,227.676C275.084,227.789 275.084,227.971 275.196,228.084L276.996,229.884C277.109,229.996 277.291,229.996 277.404,229.884C277.516,229.771 277.516,229.589 277.404,229.476Z"/>
            </g>
        </g>
        <g transform="matrix(16.6667,0,0,16.6667,0,0)">
            <g transform="matrix(1,0,0,1,-22.4938,-50.0862)">
                <path d="M258.84,229.68L277.2,229.68" style="fill:none;fill-rule:nonzero;"/>
            </g>
        </g>
        <g transform="matrix(16.6667,0,0,16.6667,0,0)">
            <g transform="matrix(1,0,0,1,-22.4938,-50.0862)">
                <path d="M258.84,229.968L277.2,229.968C277.359,229.968 277.488,229.839 277.488,229.68C277.488,229.521 277.359,229.392 277.2,229.392L258.84,229.392C258.681,229.392 258.552,229.521 258.552,229.68C258.552,229.839 258.681,229.968 258.84,229.968Z"/>
            </g>
        </g>
        <g transform="matrix(16.6667,0,0,16.6667,0,0)">
            <g transform="matrix(1,0,0,1,-22.4938,-50.0862)">
                <path d="M277.2,229.68L275.4,231.48" style="fill:none;fill-rule:nonzero;"/>
            </g>
        </g>
        <g transform="matrix(16.6667,0,0,16.6667,0,0)">
            <g transform="matrix(1,0,0,1,-22.4938,-50.0862)">
                <path d="M276.996,229.476L275.196,231.276C275.084,231.389 275.084,231.571 275.196,231.684C275.309,231.796 275.491,231.796 275.604,231.684L277.404,229.884C277.516,229.771 277.516,229.589 277.404,229.476C277.291,229.364 277.109,229.364 276.996,229.476Z"/>
            </g>
        </g>
        <g transform="matrix(16.6667,0,0,16.6667,0,0)">
            <g transform="matrix(1,0,0,1,-22.4938,-50.0862)">
                <path d="M258.84,229.68L260.64,227.88" style="fill:none;fill-rule:nonzero;"/>
            </g>
        </g>
        <g transform="matrix(16.6667,0,0,16.6667,0,0)">
            <g transform="matrix(1,0,0,1,-22.4938,-50.0862)">
                <path d="M259.044,229.884L260.844,228.084C260.956,227.971 260.956,227.789 260.844,227.676C260.731,227.564 260.549,227.564 260.436,227.676L258.636,229.476C258.524,229.589 258.524,229.771 258.636,229.884C258.749,229.996 258.931,229.996 259.044,229.884Z"/>
            </g>
        </g>
        <g transform="matrix(16.6667,0,0,16.6667,0,0)">
            <g transform="matrix(1,0,0,1,-22.4938,-50.0862)">
                <circle cx="275.04" cy="224.64" r="1.484" style="fill-opacity:0;"/>
            </g>
        </g>
        <g transform="matrix(16.6667,0,0,16.6667,0,0)">
            <g transform="matrix(1,0,0,1,-22.4938,-50.0862)">
                <path d="M275.04,222.868C274.062,222.868 273.268,223.662 273.268,224.64C273.268,225.618 274.062,226.412 275.04,226.412C276.018,226.412 276.812,225.618 276.812,224.64C276.812,223.662 276.018,222.868 275.04,222.868ZM275.04,223.444C275.7,223.444 276.236,223.98 276.236,224.64C276.236,225.3 275.7,225.836 275.04,225.836C274.38,225.836 273.844,225.3 273.844,224.64C273.844,223.98 274.38,223.444 275.04,223.444Z"/>
            </g>
        </g>
        <g transform="matrix(16.6667,0,0,16.6667,0,0)">
            <g transform="matrix(1,0,0,1,-22.4938,-50.0862)">
                <circle cx="261" cy="224.64" r="1.484" style="fill-opacity:0;"/>
            </g>
        </g>
        <g transform="matrix(16.6667,0,0,16.6667,0,0)">
            <g transform="matrix(1,0,0,1,-22.4938,-50.0862)">
                <path d="M261,222.868C260.022,222.868 259.228,223.662 259.228,224.64C259.228,225.618 260.022,226.412 261,226.412C261.978,226.412 262.772,225.618 262.772,224.64C262.772,223.662 261.978,222.868 261,222.868ZM261,223.444C261.66,223.444 262.196,223.98 262.196,224.64C262.196,225.3 261.66,225.836 261,225.836C260.34,225.836 259.804,225.3 259.804,224.64C259.804,223.98 260.34,223.444 261,223.444Z"/>
            </g>
        </g>
        <g transform="matrix(16.6667,0,0,16.6667,0,0)">
            <g transform="matrix(1,0,0,1,-22.4938,-50.0862)">
                <circle cx="265.68" cy="224.64" r="1.484" style="fill-opacity:0;"/>
            </g>
        </g>
        <g transform="matrix(16.6667,0,0,16.6667,0,0)">
            <g transform="matrix(1,0,0,1,-22.4938,-50.0862)">
                <path d="M265.68,222.868C264.702,222.868 263.908,223.662 263.908,224.64C263.908,225.618 264.702,226.412 265.68,226.412C266.658,226.412 267.452,225.618 267.452,224.64C267.452,223.662 266.658,222.868 265.68,222.868ZM265.68,223.444C266.34,223.444 266.876,223.98 266.876,224.64C266.876,225.3 266.34,225.836 265.68,225.836C265.02,225.836 264.484,225.3 264.484,224.64C264.484,223.98 265.02,223.444 265.68,223.444Z"/>
            </g>
        </g>
        <g transform="matrix(16.6667,0,0,16.6667,0,0)">
            <g transform="matrix(1,0,0,1,-22.4938,-50.0862)">
                <circle cx="270.36" cy="224.64" r="1.484" style="fill-opacity:0;"/>
            </g>
        </g>
        <g transform="matrix(16.6667,0,0,16.6667,0,0)">
            <g transform="matrix(1,0,0,1,-22.4938,-50.0862)">
                <path d="M270.36,222.868C269.382,222.868 268.588,223.662 268.588,224.64C268.588,225.618 269.382,226.412 270.36,226.412C271.338,226.412 272.132,225.618 272.132,224.64C272.132,223.662 271.338,222.868 270.36,222.868ZM270.36,223.444C271.02,223.444 271.556,223.98 271.556,224.64C271.556,225.3 271.02,225.836 270.36,225.836C269.7,225.836 269.164,225.3 269.164,224.64C269.164,223.98 269.7,223.444 270.36,223.444Z"/>
            </g>
        </g>
        <g transform="matrix(16.6667,0,0,16.6667,0,0)">
            <g transform="matrix(1,0,0,1,-22.4938,-50.0862)">
                <path d="M255.96,218.88L253.944,217.368" style="fill:none;fill-rule:nonzero;"/>
            </g>
        </g>
        <g transform="matrix(16.6667,0,0,16.6667,0,0)">
            <g transform="matrix(1,0,0,1,-22.4938,-50.0862)">
                <path d="M256.062,218.744L254.046,217.232C253.971,217.176 253.864,217.191 253.808,217.266C253.752,217.341 253.767,217.448 253.842,217.504L255.858,219.016C255.933,219.072 256.04,219.057 256.096,218.982C256.152,218.907 256.137,218.8 256.062,218.744Z"/>
            </g>
        </g>
        <g transform="matrix(16.6667,0,0,16.6667,0,0)">
            <g transform="matrix(1,0,0,1,-22.4938,-50.0862)">
                <circle cx="267.84" cy="227.16" r="14.4" style="fill-opacity:0;"/>
            </g>
        </g>
        <g transform="matrix(16.6667,0,0,16.6667,0,0)">
            <g transform="matrix(1,0,0,1,-22.4938,-50.0862)">
                <path d="M267.84,212.59C259.799,212.59 253.27,219.119 253.27,227.16C253.27,235.201 259.799,241.73 267.84,241.73C275.881,241.73 282.41,235.201 282.41,227.16C282.41,219.119 275.881,212.59 267.84,212.59ZM267.84,212.93C275.694,212.93 282.07,219.306 282.07,227.16C282.07,235.014 275.694,241.39 267.84,241.39C259.986,241.39 253.61,235.014 253.61,227.16C253.61,219.306 259.986,212.93 267.84,212.93Z"/>
            </g>
        </g>
    </g>
</svg>
