<?xml version="1.0" encoding="UTF-8" standalone="no"?>
<!DOCTYPE svg PUBLIC "-//W3C//DTD SVG 1.1//EN" "http://www.w3.org/Graphics/SVG/1.1/DTD/svg11.dtd">
<svg width="100%" height="100%" viewBox="0 0 486 486" version="1.1" xmlns="http://www.w3.org/2000/svg" xmlns:xlink="http://www.w3.org/1999/xlink" xml:space="preserve" xmlns:serif="http://www.serif.com/" style="fill-rule:evenodd;clip-rule:evenodd;stroke-linejoin:round;stroke-miterlimit:2;">
    <g transform="matrix(1,0,0,1,-4422.27,-2708.4)">
        <g transform="matrix(16.6667,0,0,16.6667,0,0)">
            <g transform="matrix(1,0,0,1,-22.4938,-50.0862)">
                <path d="M292.68,223.56C292.298,223.179 291.781,222.965 291.242,222.965C290.125,222.965 289.205,223.885 289.205,225.002C289.205,225.619 289.486,226.204 289.968,226.59" style="fill-opacity:0;fill-rule:nonzero;"/>
            </g>
        </g>
        <g transform="matrix(16.6667,0,0,16.6667,0,0)">
            <g transform="matrix(1,0,0,1,-22.4938,-50.0862)">
                <path d="M292.477,223.764L292.883,223.356C292.448,222.922 291.857,222.677 291.242,222.677C289.967,222.677 288.917,223.727 288.917,225.002C288.917,225.706 289.238,226.374 289.788,226.815C289.912,226.915 290.093,226.895 290.192,226.771C290.292,226.647 290.272,226.465 290.148,226.366C289.734,226.034 289.493,225.532 289.493,225.002C289.493,224.043 290.283,223.253 291.242,223.253C291.705,223.253 292.149,223.437 292.477,223.764Z"/>
            </g>
        </g>
        <g transform="matrix(16.6667,0,0,16.6667,0,0)">
            <g transform="matrix(1,0,0,1,-22.4938,-50.0862)">
                <path d="M292.68,223.56L306.72,236.52" style="fill:none;fill-rule:nonzero;"/>
            </g>
        </g>
        <g transform="matrix(16.6667,0,0,16.6667,0,0)">
            <g transform="matrix(1,0,0,1,-22.4938,-50.0862)">
                <path d="M292.485,223.772L306.525,236.732C306.641,236.839 306.824,236.832 306.932,236.715C307.039,236.599 307.032,236.416 306.915,236.308L292.875,223.348C292.759,223.241 292.576,223.248 292.468,223.365C292.361,223.481 292.368,223.664 292.485,223.772Z"/>
            </g>
        </g>
        <g transform="matrix(16.6667,0,0,16.6667,0,0)">
            <g transform="matrix(1,0,0,1,-22.4938,-50.0862)">
                <path d="M303.84,239.4C304.222,239.781 304.739,239.995 305.278,239.995C306.395,239.995 307.315,239.075 307.315,237.958C307.315,237.341 307.034,236.756 306.552,236.37" style="fill-opacity:0;fill-rule:nonzero;"/>
            </g>
        </g>
        <g transform="matrix(16.6667,0,0,16.6667,0,0)">
            <g transform="matrix(1,0,0,1,-22.4938,-50.0862)">
                <path d="M303.637,239.604C304.072,240.038 304.663,240.283 305.278,240.283C306.553,240.283 307.603,239.233 307.603,237.958C307.603,237.254 307.282,236.586 306.732,236.145C306.608,236.045 306.427,236.065 306.328,236.189C306.228,236.313 306.248,236.495 306.372,236.594C306.786,236.926 307.027,237.428 307.027,237.958C307.027,238.917 306.237,239.707 305.278,239.707C304.815,239.707 304.371,239.523 304.043,239.196C303.931,239.084 303.748,239.084 303.636,239.197C303.524,239.309 303.524,239.492 303.637,239.604Z"/>
            </g>
        </g>
        <g transform="matrix(16.6667,0,0,16.6667,0,0)">
            <g transform="matrix(1,0,0,1,-22.4938,-50.0862)">
                <path d="M289.8,226.44L303.84,239.4" style="fill:none;fill-rule:nonzero;"/>
            </g>
        </g>
        <g transform="matrix(16.6667,0,0,16.6667,0,0)">
            <g transform="matrix(1,0,0,1,-22.4938,-50.0862)">
                <path d="M289.605,226.652L303.645,239.612C303.761,239.719 303.944,239.712 304.052,239.595C304.159,239.479 304.152,239.296 304.035,239.188L289.995,226.228C289.879,226.121 289.696,226.128 289.588,226.245C289.481,226.361 289.488,226.544 289.605,226.652Z"/>
            </g>
        </g>
        <g transform="matrix(16.6667,0,0,16.6667,0,0)">
            <g transform="matrix(1,0,0,1,-22.4938,-50.0862)">
                <path d="M297.36,227.88L297.36,233.28" style="fill:none;fill-rule:nonzero;"/>
            </g>
        </g>
        <g transform="matrix(16.6667,0,0,16.6667,0,0)">
            <g transform="matrix(1,0,0,1,-22.4938,-50.0862)">
                <path d="M297.072,227.88L297.072,233.28C297.072,233.439 297.201,233.568 297.36,233.568C297.519,233.568 297.648,233.439 297.648,233.28L297.648,227.88C297.648,227.721 297.519,227.592 297.36,227.592C297.201,227.592 297.072,227.721 297.072,227.88Z"/>
            </g>
        </g>
        <g transform="matrix(16.6667,0,0,16.6667,0,0)">
            <g transform="matrix(1,0,0,1,-22.4938,-50.0862)">
                <path d="M298.8,234.72C299.182,235.101 299.699,235.315 300.238,235.315C301.355,235.315 302.275,234.395 302.275,233.278C302.275,232.661 301.994,232.076 301.512,231.69" style="fill-opacity:0;fill-rule:nonzero;"/>
            </g>
        </g>
        <g transform="matrix(16.6667,0,0,16.6667,0,0)">
            <g transform="matrix(1,0,0,1,-22.4938,-50.0862)">
                <path d="M298.597,234.924C299.032,235.358 299.623,235.603 300.238,235.603C301.513,235.603 302.563,234.553 302.563,233.278C302.563,232.574 302.242,231.906 301.692,231.465C301.568,231.365 301.387,231.385 301.288,231.509C301.188,231.633 301.208,231.815 301.332,231.914C301.746,232.246 301.987,232.748 301.987,233.278C301.987,234.237 301.197,235.027 300.238,235.027C299.775,235.027 299.331,234.843 299.003,234.516C298.891,234.404 298.708,234.404 298.596,234.517C298.484,234.629 298.484,234.812 298.597,234.924Z"/>
            </g>
        </g>
        <g transform="matrix(16.6667,0,0,16.6667,0,0)">
            <g transform="matrix(1,0,0,1,-22.4938,-50.0862)">
                <path d="M299.16,229.68L299.16,235.08" style="fill:none;fill-rule:nonzero;"/>
            </g>
        </g>
        <g transform="matrix(16.6667,0,0,16.6667,0,0)">
            <g transform="matrix(1,0,0,1,-22.4938,-50.0862)">
                <path d="M298.872,229.68L298.872,235.08C298.872,235.239 299.001,235.368 299.16,235.368C299.319,235.368 299.448,235.239 299.448,235.08L299.448,229.68C299.448,229.521 299.319,229.392 299.16,229.392C299.001,229.392 298.872,229.521 298.872,229.68Z"/>
            </g>
        </g>
        <g transform="matrix(16.6667,0,0,16.6667,0,0)">
            <g transform="matrix(1,0,0,1,-22.4938,-50.0862)">
                <path d="M300.96,231.48L300.96,235.08" style="fill:none;fill-rule:nonzero;"/>
            </g>
        </g>
        <g transform="matrix(16.6667,0,0,16.6667,0,0)">
            <g transform="matrix(1,0,0,1,-22.4938,-50.0862)">
                <path d="M300.672,231.48L300.672,235.08C300.672,235.239 300.801,235.368 300.96,235.368C301.119,235.368 301.248,235.239 301.248,235.08L301.248,231.48C301.248,231.321 301.119,231.192 300.96,231.192C300.801,231.192 300.672,231.321 300.672,231.48Z"/>
            </g>
        </g>
        <g transform="matrix(16.6667,0,0,16.6667,0,0)">
            <g transform="matrix(1,0,0,1,-22.4938,-50.0862)">
                <path d="M295.56,226.44L295.56,231.84" style="fill:none;fill-rule:nonzero;"/>
            </g>
        </g>
        <g transform="matrix(16.6667,0,0,16.6667,0,0)">
            <g transform="matrix(1,0,0,1,-22.4938,-50.0862)">
                <path d="M295.272,226.44L295.272,231.84C295.272,231.999 295.401,232.128 295.56,232.128C295.719,232.128 295.848,231.999 295.848,231.84L295.848,226.44C295.848,226.281 295.719,226.152 295.56,226.152C295.401,226.152 295.272,226.281 295.272,226.44Z"/>
            </g>
        </g>
        <g transform="matrix(16.6667,0,0,16.6667,0,0)">
            <g transform="matrix(1,0,0,1,-22.4938,-50.0862)">
                <path d="M291.96,223.2L291.96,228.24" style="fill:none;fill-rule:nonzero;"/>
            </g>
        </g>
        <g transform="matrix(16.6667,0,0,16.6667,0,0)">
            <g transform="matrix(1,0,0,1,-22.4938,-50.0862)">
                <path d="M291.672,223.2L291.672,228.24C291.672,228.399 291.801,228.528 291.96,228.528C292.119,228.528 292.248,228.399 292.248,228.24L292.248,223.2C292.248,223.041 292.119,222.912 291.96,222.912C291.801,222.912 291.672,223.041 291.672,223.2Z"/>
            </g>
        </g>
        <g transform="matrix(16.6667,0,0,16.6667,0,0)">
            <g transform="matrix(1,0,0,1,-22.4938,-50.0862)">
                <path d="M290.16,223.56L290.16,226.8" style="fill:none;fill-rule:nonzero;"/>
            </g>
        </g>
        <g transform="matrix(16.6667,0,0,16.6667,0,0)">
            <g transform="matrix(1,0,0,1,-22.4938,-50.0862)">
                <path d="M289.872,223.56L289.872,226.8C289.872,226.959 290.001,227.088 290.16,227.088C290.319,227.088 290.448,226.959 290.448,226.8L290.448,223.56C290.448,223.401 290.319,223.272 290.16,223.272C290.001,223.272 289.872,223.401 289.872,223.56Z"/>
            </g>
        </g>
        <g transform="matrix(16.6667,0,0,16.6667,0,0)">
            <g transform="matrix(1,0,0,1,-22.4938,-50.0862)">
                <path d="M293.76,224.64L293.76,230.04" style="fill:none;fill-rule:nonzero;"/>
            </g>
        </g>
        <g transform="matrix(16.6667,0,0,16.6667,0,0)">
            <g transform="matrix(1,0,0,1,-22.4938,-50.0862)">
                <path d="M293.472,224.64L293.472,230.04C293.472,230.199 293.601,230.328 293.76,230.328C293.919,230.328 294.048,230.199 294.048,230.04L294.048,224.64C294.048,224.481 293.919,224.352 293.76,224.352C293.601,224.352 293.472,224.481 293.472,224.64Z"/>
            </g>
        </g>
        <g transform="matrix(16.6667,0,0,16.6667,0,0)">
            <g transform="matrix(1,0,0,1,-22.4938,-50.0862)">
                <circle cx="305.28" cy="217.8" r="2.546" style="fill-opacity:0;"/>
            </g>
        </g>
        <g transform="matrix(16.6667,0,0,16.6667,0,0)">
            <g transform="matrix(1,0,0,1,-22.4938,-50.0862)">
                <path d="M305.28,214.966C303.716,214.966 302.446,216.236 302.446,217.8C302.446,219.364 303.716,220.634 305.28,220.634C306.844,220.634 308.114,219.364 308.114,217.8C308.114,216.236 306.844,214.966 305.28,214.966ZM305.28,215.542C306.526,215.542 307.538,216.554 307.538,217.8C307.538,219.046 306.526,220.058 305.28,220.058C304.034,220.058 303.022,219.046 303.022,217.8C303.022,216.554 304.034,215.542 305.28,215.542Z"/>
            </g>
        </g>
        <g transform="matrix(16.6667,0,0,16.6667,0,0)">
            <g transform="matrix(1,0,0,1,-22.4938,-50.0862)">
                <circle cx="305.28" cy="223.866" r="3.294" style="fill-opacity:0;"/>
            </g>
        </g>
        <g transform="matrix(16.6667,0,0,16.6667,0,0)">
            <g transform="matrix(1,0,0,1,-22.4938,-50.0862)">
                <path d="M305.28,220.284C303.303,220.284 301.698,221.889 301.698,223.866C301.698,225.843 303.303,227.448 305.28,227.448C307.257,227.448 308.862,225.843 308.862,223.866C308.862,221.889 307.257,220.284 305.28,220.284ZM305.28,220.86C306.939,220.86 308.286,222.207 308.286,223.866C308.286,225.525 306.939,226.872 305.28,226.872C303.621,226.872 302.274,225.525 302.274,223.866C302.274,222.207 303.621,220.86 305.28,220.86Z"/>
            </g>
        </g>
        <g transform="matrix(16.6667,0,0,16.6667,0,0)">
            <g transform="matrix(1,0,0,1,289.266,173.812)">
                <path d="M-1.202,0L-1.948,-1.96L-1.597,-1.96L-1.176,-0.786C-1.131,-0.659 -1.089,-0.528 -1.051,-0.391C-1.021,-0.495 -0.98,-0.619 -0.927,-0.764L-0.492,-1.96L-0.15,-1.96L-0.892,0L-1.202,0Z" style="fill-opacity:0;fill-rule:nonzero;"/>
                <path d="M1.422,-0.242C1.299,-0.137 1.18,-0.063 1.067,-0.02C0.953,0.023 0.831,0.044 0.7,0.044C0.485,0.044 0.32,-0.008 0.204,-0.113C0.088,-0.219 0.03,-0.353 0.03,-0.517C0.03,-0.613 0.052,-0.7 0.096,-0.78C0.14,-0.859 0.197,-0.923 0.268,-0.971C0.338,-1.019 0.418,-1.055 0.507,-1.08C0.572,-1.097 0.67,-1.113 0.802,-1.129C1.07,-1.161 1.268,-1.2 1.394,-1.244C1.395,-1.289 1.396,-1.318 1.396,-1.331C1.396,-1.466 1.365,-1.561 1.302,-1.617C1.217,-1.692 1.091,-1.729 0.924,-1.729C0.767,-1.729 0.652,-1.702 0.578,-1.647C0.503,-1.592 0.448,-1.495 0.412,-1.356L0.088,-1.401C0.117,-1.54 0.166,-1.652 0.233,-1.738C0.301,-1.823 0.399,-1.889 0.527,-1.935C0.655,-1.981 0.803,-2.004 0.972,-2.004C1.139,-2.004 1.275,-1.984 1.379,-1.945C1.484,-1.906 1.561,-1.856 1.61,-1.797C1.659,-1.737 1.694,-1.662 1.714,-1.57C1.725,-1.514 1.73,-1.412 1.73,-1.264L1.73,-0.821C1.73,-0.512 1.737,-0.317 1.751,-0.235C1.766,-0.153 1.793,-0.075 1.835,0L1.488,0C1.454,-0.069 1.432,-0.149 1.422,-0.242ZM1.394,-0.984C1.274,-0.934 1.093,-0.893 0.852,-0.858C0.715,-0.838 0.619,-0.816 0.562,-0.792C0.505,-0.767 0.462,-0.731 0.431,-0.684C0.4,-0.636 0.385,-0.584 0.385,-0.526C0.385,-0.437 0.418,-0.364 0.485,-0.305C0.552,-0.245 0.651,-0.216 0.78,-0.216C0.908,-0.216 1.021,-0.244 1.121,-0.3C1.221,-0.356 1.294,-0.432 1.341,-0.53C1.376,-0.605 1.394,-0.715 1.394,-0.862L1.394,-0.984Z" style="fill-opacity:0;fill-rule:nonzero;"/>
            </g>
        </g>
        <g transform="matrix(16.6667,0,0,16.6667,0,0)">
            <g transform="matrix(1,0,0,1,-22.4938,-50.0862)">
                <path d="M309.802,221.868L310.471,223.762L311.148,221.868" style="fill-opacity:0;fill-rule:nonzero;"/>
            </g>
        </g>
        <g transform="matrix(16.6667,0,0,16.6667,0,0)">
            <g transform="matrix(1,0,0,1,-22.4938,-50.0862)">
                <path d="M310.472,223.127L310.948,221.796C310.987,221.686 311.109,221.628 311.22,221.668C311.33,221.707 311.388,221.829 311.348,221.94L310.671,223.833C310.641,223.918 310.561,223.974 310.471,223.974C310.381,223.974 310.301,223.917 310.271,223.832L309.601,221.939C309.562,221.828 309.62,221.707 309.731,221.668C309.841,221.628 309.963,221.686 310.002,221.797L310.472,223.127Z"/>
            </g>
        </g>
        <g transform="matrix(16.6667,0,0,16.6667,0,0)">
            <g transform="matrix(1,0,0,1,-22.4938,-50.0862)">
                <path d="M313.445,223.762L313.445,222.271L313.308,222.005L313.042,221.868L312.502,221.868L312.228,222.005" style="fill-opacity:0;fill-rule:nonzero;"/>
            </g>
        </g>
        <g transform="matrix(16.6667,0,0,16.6667,0,0)">
            <g transform="matrix(1,0,0,1,-22.4938,-50.0862)">
                <path d="M312.552,222.081L312.323,222.195C312.218,222.247 312.09,222.205 312.038,222.1C311.985,221.995 312.028,221.867 312.133,221.815L312.407,221.678C312.436,221.663 312.469,221.655 312.502,221.655L313.042,221.655C313.075,221.655 313.109,221.663 313.139,221.679L313.405,221.816C313.445,221.836 313.477,221.868 313.497,221.908L313.634,222.174C313.649,222.204 313.657,222.237 313.657,222.271L313.657,223.762C313.657,223.879 313.562,223.974 313.445,223.974C313.327,223.974 313.232,223.879 313.232,223.762L313.232,222.323L313.15,222.163L312.99,222.081L312.552,222.081Z"/>
            </g>
        </g>
        <g transform="matrix(16.6667,0,0,16.6667,0,0)">
            <g transform="matrix(1,0,0,1,-22.4938,-50.0862)">
                <path d="M313.445,223.625L313.171,223.762L312.502,223.762L312.228,223.625L312.091,223.351L312.091,223.085L312.228,222.811L312.502,222.682L313.171,222.682L313.445,222.545" style="fill-opacity:0;fill-rule:nonzero;"/>
            </g>
        </g>
        <g transform="matrix(16.6667,0,0,16.6667,0,0)">
            <g transform="matrix(1,0,0,1,-22.4938,-50.0862)">
                <path d="M313.121,222.469L313.35,222.355C313.455,222.302 313.582,222.345 313.635,222.45C313.687,222.555 313.645,222.682 313.54,222.735L313.266,222.872C313.237,222.887 313.204,222.894 313.171,222.894L312.549,222.894L312.385,222.972L312.304,223.135L312.304,223.301L312.386,223.466L312.552,223.549L313.121,223.549L313.35,223.435C313.455,223.382 313.582,223.425 313.635,223.53C313.687,223.635 313.645,223.762 313.54,223.815L313.266,223.952C313.237,223.967 313.204,223.974 313.171,223.974L312.502,223.974C312.469,223.974 312.436,223.967 312.407,223.952L312.133,223.815C312.092,223.794 312.058,223.761 312.038,223.72L311.901,223.446C311.886,223.417 311.879,223.384 311.879,223.351L311.879,223.085C311.879,223.052 311.886,223.019 311.901,222.99L312.038,222.716C312.059,222.674 312.094,222.639 312.137,222.619L312.411,222.489C312.439,222.476 312.47,222.469 312.502,222.469L313.121,222.469Z"/>
            </g>
        </g>
        <g transform="matrix(16.6667,0,0,16.6667,0,0)">
            <g transform="matrix(1,0,0,1,-22.4938,-50.0862)">
                <path d="M290.52,218.88L288.504,217.368" style="fill:none;fill-rule:nonzero;"/>
            </g>
        </g>
        <g transform="matrix(16.6667,0,0,16.6667,0,0)">
            <g transform="matrix(1,0,0,1,-22.4938,-50.0862)">
                <path d="M290.622,218.744L288.606,217.232C288.531,217.176 288.424,217.191 288.368,217.266C288.312,217.341 288.327,217.448 288.402,217.504L290.418,219.016C290.493,219.072 290.6,219.057 290.656,218.982C290.712,218.907 290.697,218.8 290.622,218.744Z"/>
            </g>
        </g>
        <g transform="matrix(16.6667,0,0,16.6667,0,0)">
            <g transform="matrix(1,0,0,1,-22.4938,-50.0862)">
                <circle cx="302.4" cy="227.16" r="14.4" style="fill-opacity:0;"/>
            </g>
        </g>
        <g transform="matrix(16.6667,0,0,16.6667,0,0)">
            <g transform="matrix(1,0,0,1,-22.4938,-50.0862)">
                <path d="M302.4,212.59C294.359,212.59 287.83,219.119 287.83,227.16C287.83,235.201 294.359,241.73 302.4,241.73C310.441,241.73 316.97,235.201 316.97,227.16C316.97,219.119 310.441,212.59 302.4,212.59ZM302.4,212.93C310.254,212.93 316.63,219.306 316.63,227.16C316.63,235.014 310.254,241.39 302.4,241.39C294.546,241.39 288.17,235.014 288.17,227.16C288.17,219.306 294.546,212.93 302.4,212.93Z"/>
            </g>
        </g>
    </g>
</svg>
