<?xml version="1.0" encoding="UTF-8" standalone="no"?>
<!DOCTYPE svg PUBLIC "-//W3C//DTD SVG 1.1//EN" "http://www.w3.org/Graphics/SVG/1.1/DTD/svg11.dtd">
<svg width="100%" height="100%" viewBox="0 0 499 486" version="1.1" xmlns="http://www.w3.org/2000/svg" xmlns:xlink="http://www.w3.org/1999/xlink" xml:space="preserve" xmlns:serif="http://www.serif.com/" style="fill-rule:evenodd;clip-rule:evenodd;stroke-linejoin:round;stroke-miterlimit:2;">
    <g transform="matrix(1,0,0,1,-4982.27,-2708.4)">
        <g transform="matrix(16.6667,0,0,16.6667,0,0)">
            <g transform="matrix(1,0,0,1,-22.4938,-50.0862)">
                <path d="M338.76,222.12L341.64,219.24" style="fill:none;fill-rule:nonzero;"/>
            </g>
        </g>
        <g transform="matrix(16.6667,0,0,16.6667,0,0)">
            <g transform="matrix(1,0,0,1,-22.4938,-50.0862)">
                <path d="M338.964,222.324L341.844,219.444C341.956,219.331 341.956,219.149 341.844,219.036C341.731,218.924 341.549,218.924 341.436,219.036L338.556,221.916C338.444,222.029 338.444,222.211 338.556,222.324C338.669,222.436 338.851,222.436 338.964,222.324Z"/>
            </g>
        </g>
        <g transform="matrix(16.6667,0,0,16.6667,0,0)">
            <g transform="matrix(1,0,0,1,313.444,175.706)">
                <path d="M-1.929,0L-0.346,-4.123L0.242,-4.123L1.929,0L1.308,0L0.827,-1.249L-0.897,-1.249L-1.35,0L-1.929,0ZM-0.74,-1.693L0.658,-1.693L0.228,-2.835C0.097,-3.182 -0.001,-3.467 -0.065,-3.69C-0.117,-3.426 -0.191,-3.163 -0.287,-2.903L-0.74,-1.693Z" style="fill-opacity:0;fill-rule:nonzero;"/>
            </g>
        </g>
        <g transform="matrix(16.6667,0,0,16.6667,0,0)">
            <g transform="matrix(1,0,0,1,313.444,175.706)">
                <path d="M-0.695,-0.961L-1.079,0.098C-1.121,0.212 -1.229,0.288 -1.35,0.288L-1.929,0.288C-2.024,0.288 -2.113,0.241 -2.167,0.163C-2.22,0.085 -2.232,-0.015 -2.198,-0.103L-0.615,-4.226C-0.572,-4.338 -0.465,-4.411 -0.346,-4.411L0.242,-4.411C0.359,-4.411 0.464,-4.34 0.508,-4.232L2.196,-0.109C2.232,-0.02 2.222,0.081 2.169,0.161C2.115,0.24 2.025,0.288 1.929,0.288L1.308,0.288C1.189,0.288 1.082,0.215 1.039,0.104L0.629,-0.961L-0.695,-0.961ZM0.943,-1.65C0.936,-1.607 0.92,-1.566 0.895,-1.529L0.894,-1.529C0.941,-1.517 0.984,-1.495 1.02,-1.463L0.943,-1.65ZM-1.009,-1.592L-1.047,-1.495C-1.024,-1.508 -1,-1.519 -0.974,-1.526L-0.976,-1.529C-0.99,-1.549 -1.001,-1.57 -1.009,-1.592ZM-0.042,-2.735L-0.324,-1.981L0.242,-1.981L-0.042,-2.733L-0.042,-2.735Z"/>
            </g>
        </g>
        <g transform="matrix(16.6667,0,0,16.6667,0,0)">
            <g transform="matrix(1,0,0,1,-22.4938,-50.0862)">
                <path d="M334.908,224.352L336.96,224.352" style="fill:none;fill-rule:nonzero;"/>
            </g>
        </g>
        <g transform="matrix(16.6667,0,0,16.6667,0,0)">
            <g transform="matrix(1,0,0,1,-22.4938,-50.0862)">
                <path d="M334.908,224.64L336.96,224.64C337.119,224.64 337.248,224.511 337.248,224.352C337.248,224.193 337.119,224.064 336.96,224.064L334.908,224.064C334.749,224.064 334.62,224.193 334.62,224.352C334.62,224.511 334.749,224.64 334.908,224.64Z"/>
            </g>
        </g>
        <g transform="matrix(16.6667,0,0,16.6667,0,0)">
            <g transform="matrix(1,0,0,1,-22.4938,-50.0862)">
                <path d="M334.498,225.583L335.938,221.263L337.378,225.583" style="fill-opacity:0;fill-rule:nonzero;"/>
            </g>
        </g>
        <g transform="matrix(16.6667,0,0,16.6667,0,0)">
            <g transform="matrix(1,0,0,1,-22.4938,-50.0862)">
                <path d="M335.938,222.174L334.771,225.674C334.721,225.825 334.557,225.907 334.407,225.856C334.256,225.806 334.174,225.643 334.224,225.492L335.664,221.172C335.704,221.055 335.814,220.975 335.938,220.975C336.062,220.975 336.172,221.055 336.211,221.172L337.651,225.492C337.701,225.643 337.619,225.806 337.469,225.856C337.318,225.907 337.155,225.825 337.104,225.674L335.938,222.174Z"/>
            </g>
        </g>
        <g transform="matrix(16.6667,0,0,16.6667,0,0)">
            <g transform="matrix(1,0,0,1,-22.4938,-50.0862)">
                <circle cx="335.909" cy="223.646" r="7.2" style="fill-opacity:0;"/>
            </g>
        </g>
        <g transform="matrix(16.6667,0,0,16.6667,0,0)">
            <g transform="matrix(1,0,0,1,-22.4938,-50.0862)">
                <path d="M335.909,216.158C331.776,216.158 328.421,219.514 328.421,223.646C328.421,227.779 331.776,231.134 335.909,231.134C340.042,231.134 343.397,227.779 343.397,223.646C343.397,219.514 340.042,216.158 335.909,216.158ZM335.909,216.734C339.724,216.734 342.821,219.832 342.821,223.646C342.821,227.461 339.724,230.558 335.909,230.558C332.094,230.558 328.997,227.461 328.997,223.646C328.997,219.832 332.094,216.734 335.909,216.734Z"/>
            </g>
        </g>
        <g transform="matrix(16.6667,0,0,16.6667,0,0)">
            <g transform="matrix(1,0,0,1,-22.4938,-50.0862)">
                <path d="M325.44,228.24L322.56,231.12" style="fill:none;fill-rule:nonzero;"/>
            </g>
        </g>
        <g transform="matrix(16.6667,0,0,16.6667,0,0)">
            <g transform="matrix(1,0,0,1,-22.4938,-50.0862)">
                <path d="M325.236,228.036L322.356,230.916C322.244,231.029 322.244,231.211 322.356,231.324C322.469,231.436 322.651,231.436 322.764,231.324L325.644,228.444C325.756,228.331 325.756,228.149 325.644,228.036C325.531,227.924 325.349,227.924 325.236,228.036Z"/>
            </g>
        </g>
        <g transform="matrix(16.6667,0,0,16.6667,0,0)">
            <g transform="matrix(1,0,0,1,-22.4938,-50.0862)">
                <path d="M336.24,240.84L325.44,228.24" style="fill:none;fill-rule:nonzero;"/>
            </g>
        </g>
        <g transform="matrix(16.6667,0,0,16.6667,0,0)">
            <g transform="matrix(1,0,0,1,-22.4938,-50.0862)">
                <path d="M336.459,240.653L325.659,228.053C325.555,227.932 325.373,227.918 325.253,228.021C325.132,228.125 325.118,228.307 325.221,228.427L336.021,241.027C336.125,241.148 336.307,241.162 336.427,241.059C336.548,240.955 336.562,240.773 336.459,240.653Z"/>
            </g>
        </g>
        <g transform="matrix(16.6667,0,0,16.6667,0,0)">
            <g transform="matrix(1,0,0,1,-22.4938,-50.0862)">
                <path d="M345.96,228.24L349.2,231.48" style="fill:none;fill-rule:nonzero;"/>
            </g>
        </g>
        <g transform="matrix(16.6667,0,0,16.6667,0,0)">
            <g transform="matrix(1,0,0,1,-22.4938,-50.0862)">
                <path d="M345.756,228.444L348.996,231.684C349.109,231.796 349.291,231.796 349.404,231.684C349.516,231.571 349.516,231.389 349.404,231.276L346.164,228.036C346.051,227.924 345.869,227.924 345.756,228.036C345.644,228.149 345.644,228.331 345.756,228.444Z"/>
            </g>
        </g>
        <g transform="matrix(16.6667,0,0,16.6667,0,0)">
            <g transform="matrix(1,0,0,1,-22.4938,-50.0862)">
                <path d="M336.24,240.84L345.96,228.24" style="fill:none;fill-rule:nonzero;"/>
            </g>
        </g>
        <g transform="matrix(16.6667,0,0,16.6667,0,0)">
            <g transform="matrix(1,0,0,1,-22.4938,-50.0862)">
                <path d="M336.468,241.016L346.188,228.416C346.285,228.29 346.262,228.109 346.136,228.012C346.01,227.915 345.829,227.938 345.732,228.064L336.012,240.664C335.915,240.79 335.938,240.971 336.064,241.068C336.19,241.165 336.371,241.142 336.468,241.016Z"/>
            </g>
        </g>
        <g transform="matrix(16.6667,0,0,16.6667,0,0)">
            <g transform="matrix(1,0,0,1,-22.4938,-50.0862)">
                <circle cx="336.96" cy="227.16" r="14.4" style="fill-opacity:0;"/>
            </g>
        </g>
        <g transform="matrix(16.6667,0,0,16.6667,0,0)">
            <g transform="matrix(1,0,0,1,-23.4538,-50.0862)">
                <path d="M336.96,212.59C328.919,212.59 322.39,219.119 322.39,227.16C322.39,235.201 328.919,241.73 336.96,241.73C345.001,241.73 351.53,235.201 351.53,227.16C351.53,219.119 345.001,212.59 336.96,212.59ZM336.96,212.93C344.814,212.93 351.19,219.306 351.19,227.16C351.19,235.014 344.814,241.39 336.96,241.39C329.106,241.39 322.73,235.014 322.73,227.16C322.73,219.306 329.106,212.93 336.96,212.93Z"/>
            </g>
        </g>
        <g transform="matrix(16.6667,0,0,16.6667,0,0)">
            <g transform="matrix(1,0,0,1,-22.4938,-50.0862)">
                <path d="M325.08,218.88L323.064,217.368" style="fill:none;fill-rule:nonzero;"/>
            </g>
        </g>
        <g transform="matrix(16.6667,0,0,16.6667,0,0)">
            <g transform="matrix(1,0,0,1,-23.4538,-50.0862)">
                <path d="M325.182,218.744L323.166,217.232C323.091,217.176 322.984,217.191 322.928,217.266C322.872,217.341 322.887,217.448 322.962,217.504L324.978,219.016C325.053,219.072 325.16,219.057 325.216,218.982C325.272,218.907 325.257,218.8 325.182,218.744Z"/>
            </g>
        </g>
    </g>
</svg>
