<?xml version="1.0" encoding="UTF-8" standalone="no"?>
<!DOCTYPE svg PUBLIC "-//W3C//DTD SVG 1.1//EN" "http://www.w3.org/Graphics/SVG/1.1/DTD/svg11.dtd">
<svg width="100%" height="100%" viewBox="0 0 486 486" version="1.1" xmlns="http://www.w3.org/2000/svg" xmlns:xlink="http://www.w3.org/1999/xlink" xml:space="preserve" xmlns:serif="http://www.serif.com/" style="fill-rule:evenodd;clip-rule:evenodd;stroke-linejoin:round;stroke-miterlimit:2;">
    <g transform="matrix(1,0,0,1,-1542.27,-3248.4)">
        <g transform="matrix(16.6667,0,0,16.6667,0,0)">
            <g transform="matrix(1,0,0,1,-22.4938,-50.0862)">
                <path d="M124.92,267.48L126.36,268.92" style="fill:none;fill-rule:nonzero;"/>
            </g>
        </g>
        <g transform="matrix(16.6667,0,0,16.6667,0,0)">
            <g transform="matrix(1,0,0,1,-22.4938,-50.0862)">
                <path d="M124.716,267.684L126.156,269.124C126.269,269.236 126.451,269.236 126.564,269.124C126.676,269.011 126.676,268.829 126.564,268.716L125.124,267.276C125.011,267.164 124.829,267.164 124.716,267.276C124.604,267.389 124.604,267.571 124.716,267.684Z"/>
            </g>
        </g>
        <g transform="matrix(16.6667,0,0,16.6667,0,0)">
            <g transform="matrix(1,0,0,1,-22.4938,-50.0862)">
                <path d="M124.92,267.48L126.36,266.04" style="fill:none;fill-rule:nonzero;"/>
            </g>
        </g>
        <g transform="matrix(16.6667,0,0,16.6667,0,0)">
            <g transform="matrix(1,0,0,1,-22.4938,-50.0862)">
                <path d="M125.124,267.684L126.564,266.244C126.676,266.131 126.676,265.949 126.564,265.836C126.451,265.724 126.269,265.724 126.156,265.836L124.716,267.276C124.604,267.389 124.604,267.571 124.716,267.684C124.829,267.796 125.011,267.796 125.124,267.684Z"/>
            </g>
        </g>
        <g transform="matrix(16.6667,0,0,16.6667,0,0)">
            <g transform="matrix(1,0,0,1,-22.4938,-50.0862)">
                <path d="M133.56,267.48L132.12,268.92" style="fill:none;fill-rule:nonzero;"/>
            </g>
        </g>
        <g transform="matrix(16.6667,0,0,16.6667,0,0)">
            <g transform="matrix(1,0,0,1,-22.4938,-50.0862)">
                <path d="M133.356,267.276L131.916,268.716C131.804,268.829 131.804,269.011 131.916,269.124C132.029,269.236 132.211,269.236 132.324,269.124L133.764,267.684C133.876,267.571 133.876,267.389 133.764,267.276C133.651,267.164 133.469,267.164 133.356,267.276Z"/>
            </g>
        </g>
        <g transform="matrix(16.6667,0,0,16.6667,0,0)">
            <g transform="matrix(1,0,0,1,-22.4938,-50.0862)">
                <path d="M133.56,267.48L132.12,266.04" style="fill:none;fill-rule:nonzero;"/>
            </g>
        </g>
        <g transform="matrix(16.6667,0,0,16.6667,0,0)">
            <g transform="matrix(1,0,0,1,-22.4938,-50.0862)">
                <path d="M133.764,267.276L132.324,265.836C132.211,265.724 132.029,265.724 131.916,265.836C131.804,265.949 131.804,266.131 131.916,266.244L133.356,267.684C133.469,267.796 133.651,267.796 133.764,267.684C133.876,267.571 133.876,267.389 133.764,267.276Z"/>
            </g>
        </g>
        <g transform="matrix(16.6667,0,0,16.6667,0,0)">
            <g transform="matrix(1,0,0,1,-22.4938,-50.0862)">
                <path d="M124.92,267.48L132.84,267.48" style="fill:none;fill-rule:nonzero;"/>
            </g>
        </g>
        <g transform="matrix(16.6667,0,0,16.6667,0,0)">
            <g transform="matrix(1,0,0,1,-22.4938,-50.0862)">
                <path d="M124.92,267.768L132.84,267.768C132.999,267.768 133.128,267.639 133.128,267.48C133.128,267.321 132.999,267.192 132.84,267.192L124.92,267.192C124.761,267.192 124.632,267.321 124.632,267.48C124.632,267.639 124.761,267.768 124.92,267.768Z"/>
            </g>
        </g>
        <g transform="matrix(16.6667,0,0,16.6667,0,0)">
            <g transform="matrix(1,0,0,1,-22.4938,-50.0862)">
                <path d="M130.68,254.88L130.68,259.56" style="fill:none;fill-rule:nonzero;"/>
            </g>
        </g>
        <g transform="matrix(16.6667,0,0,16.6667,0,0)">
            <g transform="matrix(1,0,0,1,-22.4938,-50.0862)">
                <path d="M130.392,254.88L130.392,259.56C130.392,259.719 130.521,259.848 130.68,259.848C130.839,259.848 130.968,259.719 130.968,259.56L130.968,254.88C130.968,254.721 130.839,254.592 130.68,254.592C130.521,254.592 130.392,254.721 130.392,254.88Z"/>
            </g>
        </g>
        <g transform="matrix(16.6667,0,0,16.6667,0,0)">
            <g transform="matrix(1,0,0,1,-22.4938,-50.0862)">
                <path d="M120.24,255.96L120.24,258.84" style="fill:none;fill-rule:nonzero;"/>
            </g>
        </g>
        <g transform="matrix(16.6667,0,0,16.6667,0,0)">
            <g transform="matrix(1,0,0,1,-22.4938,-50.0862)">
                <path d="M119.952,255.96L119.952,258.84C119.952,258.999 120.081,259.128 120.24,259.128C120.399,259.128 120.528,258.999 120.528,258.84L120.528,255.96C120.528,255.801 120.399,255.672 120.24,255.672C120.081,255.672 119.952,255.801 119.952,255.96Z"/>
            </g>
        </g>
        <g transform="matrix(16.6667,0,0,16.6667,0,0)">
            <g transform="matrix(1,0,0,1,-22.4938,-50.0862)">
                <path d="M137.16,261.36L137.16,253.8" style="fill:none;fill-rule:nonzero;"/>
            </g>
        </g>
        <g transform="matrix(16.6667,0,0,16.6667,0,0)">
            <g transform="matrix(1,0,0,1,-22.4938,-50.0862)">
                <path d="M137.448,261.36L137.448,253.8C137.448,253.641 137.319,253.512 137.16,253.512C137.001,253.512 136.872,253.641 136.872,253.8L136.872,261.36C136.872,261.519 137.001,261.648 137.16,261.648C137.319,261.648 137.448,261.519 137.448,261.36Z"/>
            </g>
        </g>
        <g transform="matrix(16.6667,0,0,16.6667,0,0)">
            <g transform="matrix(1,0,0,1,-22.4938,-50.0862)">
                <path d="M131.76,253.08L131.76,262.08" style="fill:none;fill-rule:nonzero;"/>
            </g>
        </g>
        <g transform="matrix(16.6667,0,0,16.6667,0,0)">
            <g transform="matrix(1,0,0,1,-22.4938,-50.0862)">
                <path d="M131.472,253.08L131.472,262.08C131.472,262.239 131.601,262.368 131.76,262.368C131.919,262.368 132.048,262.239 132.048,262.08L132.048,253.08C132.048,252.921 131.919,252.792 131.76,252.792C131.601,252.792 131.472,252.921 131.472,253.08Z"/>
            </g>
        </g>
        <g transform="matrix(16.6667,0,0,16.6667,0,0)">
            <g transform="matrix(1,0,0,1,-22.4938,-50.0862)">
                <path d="M138.24,255.6L138.24,258.84" style="fill:none;fill-rule:nonzero;"/>
            </g>
        </g>
        <g transform="matrix(16.6667,0,0,16.6667,0,0)">
            <g transform="matrix(1,0,0,1,-22.4938,-50.0862)">
                <path d="M137.952,255.6L137.952,258.84C137.952,258.999 138.081,259.128 138.24,259.128C138.399,259.128 138.528,258.999 138.528,258.84L138.528,255.6C138.528,255.441 138.399,255.312 138.24,255.312C138.081,255.312 137.952,255.441 137.952,255.6Z"/>
            </g>
        </g>
        <g transform="matrix(16.6667,0,0,16.6667,0,0)">
            <g transform="matrix(1,0,0,1,-22.4938,-50.0862)">
                <path d="M133.92,256.68L133.92,257.04" style="fill:none;fill-rule:nonzero;"/>
            </g>
        </g>
        <g transform="matrix(16.6667,0,0,16.6667,0,0)">
            <g transform="matrix(1,0,0,1,-22.4938,-50.0862)">
                <path d="M133.632,256.68L133.632,257.04C133.632,257.199 133.761,257.328 133.92,257.328C134.079,257.328 134.208,257.199 134.208,257.04L134.208,256.68C134.208,256.521 134.079,256.392 133.92,256.392C133.761,256.392 133.632,256.521 133.632,256.68Z"/>
            </g>
        </g>
        <g transform="matrix(16.6667,0,0,16.6667,0,0)">
            <g transform="matrix(1,0,0,1,-22.4938,-50.0862)">
                <path d="M129.24,249.48L129.24,267.12" style="fill:none;fill-rule:nonzero;"/>
            </g>
        </g>
        <g transform="matrix(16.6667,0,0,16.6667,0,0)">
            <g transform="matrix(1,0,0,1,-22.4938,-50.0862)">
                <path d="M128.808,249.48L128.808,267.12C128.808,267.358 129.002,267.552 129.24,267.552C129.478,267.552 129.672,267.358 129.672,267.12L129.672,249.48C129.672,249.242 129.478,249.048 129.24,249.048C129.002,249.048 128.808,249.242 128.808,249.48Z"/>
            </g>
        </g>
        <g transform="matrix(16.6667,0,0,16.6667,0,0)">
            <g transform="matrix(1,0,0,1,-22.4938,-50.0862)">
                <path d="M123.48,251.64L123.48,263.16" style="fill:none;fill-rule:nonzero;"/>
            </g>
        </g>
        <g transform="matrix(16.6667,0,0,16.6667,0,0)">
            <g transform="matrix(1,0,0,1,-22.4938,-50.0862)">
                <path d="M123.192,251.64L123.192,263.16C123.192,263.319 123.321,263.448 123.48,263.448C123.639,263.448 123.768,263.319 123.768,263.16L123.768,251.64C123.768,251.481 123.639,251.352 123.48,251.352C123.321,251.352 123.192,251.481 123.192,251.64Z"/>
            </g>
        </g>
        <g transform="matrix(16.6667,0,0,16.6667,0,0)">
            <g transform="matrix(1,0,0,1,-22.4938,-50.0862)">
                <path d="M125.64,254.16L125.64,259.2" style="fill:none;fill-rule:nonzero;"/>
            </g>
        </g>
        <g transform="matrix(16.6667,0,0,16.6667,0,0)">
            <g transform="matrix(1,0,0,1,-22.4938,-50.0862)">
                <path d="M125.352,254.16L125.352,259.2C125.352,259.359 125.481,259.488 125.64,259.488C125.799,259.488 125.928,259.359 125.928,259.2L125.928,254.16C125.928,254.001 125.799,253.872 125.64,253.872C125.481,253.872 125.352,254.001 125.352,254.16Z"/>
            </g>
        </g>
        <g transform="matrix(16.6667,0,0,16.6667,0,0)">
            <g transform="matrix(1,0,0,1,-22.4938,-50.0862)">
                <path d="M126.72,257.4L126.72,256.68" style="fill:none;fill-rule:nonzero;"/>
            </g>
        </g>
        <g transform="matrix(16.6667,0,0,16.6667,0,0)">
            <g transform="matrix(1,0,0,1,-22.4938,-50.0862)">
                <path d="M127.008,257.4L127.008,256.68C127.008,256.521 126.879,256.392 126.72,256.392C126.561,256.392 126.432,256.521 126.432,256.68L126.432,257.4C126.432,257.559 126.561,257.688 126.72,257.688C126.879,257.688 127.008,257.559 127.008,257.4Z"/>
            </g>
        </g>
        <g transform="matrix(16.6667,0,0,16.6667,0,0)">
            <g transform="matrix(1,0,0,1,-22.4938,-50.0862)">
                <path d="M136.08,258.12L136.08,255.96" style="fill:none;fill-rule:nonzero;"/>
            </g>
        </g>
        <g transform="matrix(16.6667,0,0,16.6667,0,0)">
            <g transform="matrix(1,0,0,1,-22.4938,-50.0862)">
                <path d="M136.368,258.12L136.368,255.96C136.368,255.801 136.239,255.672 136.08,255.672C135.921,255.672 135.792,255.801 135.792,255.96L135.792,258.12C135.792,258.279 135.921,258.408 136.08,258.408C136.239,258.408 136.368,258.279 136.368,258.12Z"/>
            </g>
        </g>
        <g transform="matrix(16.6667,0,0,16.6667,0,0)">
            <g transform="matrix(1,0,0,1,-22.4938,-50.0862)">
                <path d="M135,259.92L135,255.24" style="fill:none;fill-rule:nonzero;"/>
            </g>
        </g>
        <g transform="matrix(16.6667,0,0,16.6667,0,0)">
            <g transform="matrix(1,0,0,1,-22.4938,-50.0862)">
                <path d="M135.288,259.92L135.288,255.24C135.288,255.081 135.159,254.952 135,254.952C134.841,254.952 134.712,255.081 134.712,255.24L134.712,259.92C134.712,260.079 134.841,260.208 135,260.208C135.159,260.208 135.288,260.079 135.288,259.92Z"/>
            </g>
        </g>
        <g transform="matrix(16.6667,0,0,16.6667,0,0)">
            <g transform="matrix(1,0,0,1,-22.4938,-50.0862)">
                <path d="M121.32,257.76L121.32,256.32" style="fill:none;fill-rule:nonzero;"/>
            </g>
        </g>
        <g transform="matrix(16.6667,0,0,16.6667,0,0)">
            <g transform="matrix(1,0,0,1,-22.4938,-50.0862)">
                <path d="M121.608,257.76L121.608,256.32C121.608,256.161 121.479,256.032 121.32,256.032C121.161,256.032 121.032,256.161 121.032,256.32L121.032,257.76C121.032,257.919 121.161,258.048 121.32,258.048C121.479,258.048 121.608,257.919 121.608,257.76Z"/>
            </g>
        </g>
        <g transform="matrix(16.6667,0,0,16.6667,0,0)">
            <g transform="matrix(1,0,0,1,-22.4938,-50.0862)">
                <path d="M122.4,259.92L122.4,253.8" style="fill:none;fill-rule:nonzero;"/>
            </g>
        </g>
        <g transform="matrix(16.6667,0,0,16.6667,0,0)">
            <g transform="matrix(1,0,0,1,-22.4938,-50.0862)">
                <path d="M122.688,259.92L122.688,253.8C122.688,253.641 122.559,253.512 122.4,253.512C122.241,253.512 122.112,253.641 122.112,253.8L122.112,259.92C122.112,260.079 122.241,260.208 122.4,260.208C122.559,260.208 122.688,260.079 122.688,259.92Z"/>
            </g>
        </g>
        <g transform="matrix(16.6667,0,0,16.6667,0,0)">
            <g transform="matrix(1,0,0,1,-22.4938,-50.0862)">
                <path d="M132.84,255.6L132.84,258.12" style="fill:none;fill-rule:nonzero;"/>
            </g>
        </g>
        <g transform="matrix(16.6667,0,0,16.6667,0,0)">
            <g transform="matrix(1,0,0,1,-22.4938,-50.0862)">
                <path d="M132.552,255.6L132.552,258.12C132.552,258.279 132.681,258.408 132.84,258.408C132.999,258.408 133.128,258.279 133.128,258.12L133.128,255.6C133.128,255.441 132.999,255.312 132.84,255.312C132.681,255.312 132.552,255.441 132.552,255.6Z"/>
            </g>
        </g>
        <g transform="matrix(16.6667,0,0,16.6667,0,0)">
            <g transform="matrix(1,0,0,1,-22.4938,-50.0862)">
                <path d="M124.56,256.32L124.56,257.4" style="fill:none;fill-rule:nonzero;"/>
            </g>
        </g>
        <g transform="matrix(16.6667,0,0,16.6667,0,0)">
            <g transform="matrix(1,0,0,1,-22.4938,-50.0862)">
                <path d="M124.272,256.32L124.272,257.4C124.272,257.559 124.401,257.688 124.56,257.688C124.719,257.688 124.848,257.559 124.848,257.4L124.848,256.32C124.848,256.161 124.719,256.032 124.56,256.032C124.401,256.032 124.272,256.161 124.272,256.32Z"/>
            </g>
        </g>
        <g transform="matrix(16.6667,0,0,16.6667,0,0)">
            <g transform="matrix(1,0,0,1,-22.4938,-50.0862)">
                <path d="M127.8,254.52L127.8,262.08" style="fill:none;fill-rule:nonzero;"/>
            </g>
        </g>
        <g transform="matrix(16.6667,0,0,16.6667,0,0)">
            <g transform="matrix(1,0,0,1,-22.4938,-50.0862)">
                <path d="M127.512,254.52L127.512,262.08C127.512,262.239 127.641,262.368 127.8,262.368C127.959,262.368 128.088,262.239 128.088,262.08L128.088,254.52C128.088,254.361 127.959,254.232 127.8,254.232C127.641,254.232 127.512,254.361 127.512,254.52Z"/>
            </g>
        </g>
        <g transform="matrix(16.6667,0,0,16.6667,0,0)">
            <g transform="matrix(1,0,0,1,-22.4938,-50.0862)">
                <path d="M117.72,251.28L115.704,249.768" style="fill:none;fill-rule:nonzero;"/>
            </g>
        </g>
        <g transform="matrix(16.6667,0,0,16.6667,0,0)">
            <g transform="matrix(1,0,0,1,-22.4938,-50.0862)">
                <path d="M117.822,251.144L115.806,249.632C115.731,249.576 115.624,249.591 115.568,249.666C115.512,249.741 115.527,249.848 115.602,249.904L117.618,251.416C117.693,251.472 117.8,251.457 117.856,251.382C117.912,251.307 117.897,251.2 117.822,251.144Z"/>
            </g>
        </g>
        <g transform="matrix(16.6667,0,0,16.6667,0,0)">
            <g transform="matrix(1,0,0,1,-22.4938,-50.0862)">
                <circle cx="129.6" cy="259.56" r="14.4" style="fill-opacity:0;"/>
            </g>
        </g>
        <g transform="matrix(16.6667,0,0,16.6667,0,0)">
            <g transform="matrix(1,0,0,1,-22.4938,-50.0862)">
                <path d="M129.6,244.99C121.559,244.99 115.03,251.519 115.03,259.56C115.03,267.601 121.559,274.13 129.6,274.13C137.641,274.13 144.17,267.601 144.17,259.56C144.17,251.519 137.641,244.99 129.6,244.99ZM129.6,245.33C137.454,245.33 143.83,251.706 143.83,259.56C143.83,267.414 137.454,273.79 129.6,273.79C121.746,273.79 115.37,267.414 115.37,259.56C115.37,251.706 121.746,245.33 129.6,245.33Z"/>
            </g>
        </g>
    </g>
</svg>
