<?xml version="1.0" encoding="UTF-8" standalone="no"?>
<!DOCTYPE svg PUBLIC "-//W3C//DTD SVG 1.1//EN" "http://www.w3.org/Graphics/SVG/1.1/DTD/svg11.dtd">
<svg width="100%" height="100%" viewBox="0 0 486 486" version="1.1" xmlns="http://www.w3.org/2000/svg" xmlns:xlink="http://www.w3.org/1999/xlink" xml:space="preserve" xmlns:serif="http://www.serif.com/" style="fill-rule:evenodd;clip-rule:evenodd;stroke-linejoin:round;stroke-miterlimit:2;">
    <g transform="matrix(1,0,0,1,-2118.27,-3248.4)">
        <g transform="matrix(16.6667,0,0,16.6667,0,0)">
            <g transform="matrix(1,0,0,1,-22.4938,-50.0862)">
                <path d="M157.68,253.44L157.68,261" style="fill:none;fill-rule:nonzero;"/>
            </g>
        </g>
        <g transform="matrix(16.6667,0,0,16.6667,0,0)">
            <g transform="matrix(1,0,0,1,-22.4938,-50.0862)">
                <path d="M157.392,253.44L157.392,261C157.392,261.159 157.521,261.288 157.68,261.288C157.839,261.288 157.968,261.159 157.968,261L157.968,253.44C157.968,253.281 157.839,253.152 157.68,253.152C157.521,253.152 157.392,253.281 157.392,253.44Z"/>
            </g>
        </g>
        <g transform="matrix(16.6667,0,0,16.6667,0,0)">
            <g transform="matrix(1,0,0,1,-22.4938,-50.0862)">
                <path d="M156.6,259.2L156.6,255.96" style="fill:none;fill-rule:nonzero;"/>
            </g>
        </g>
        <g transform="matrix(16.6667,0,0,16.6667,0,0)">
            <g transform="matrix(1,0,0,1,-22.4938,-50.0862)">
                <path d="M156.888,259.2L156.888,255.96C156.888,255.801 156.759,255.672 156.6,255.672C156.441,255.672 156.312,255.801 156.312,255.96L156.312,259.2C156.312,259.359 156.441,259.488 156.6,259.488C156.759,259.488 156.888,259.359 156.888,259.2Z"/>
            </g>
        </g>
        <g transform="matrix(16.6667,0,0,16.6667,0,0)">
            <g transform="matrix(1,0,0,1,-22.4938,-50.0862)">
                <path d="M159.84,254.88L159.84,259.56" style="fill:none;fill-rule:nonzero;"/>
            </g>
        </g>
        <g transform="matrix(16.6667,0,0,16.6667,0,0)">
            <g transform="matrix(1,0,0,1,-22.4938,-50.0862)">
                <path d="M159.552,254.88L159.552,259.56C159.552,259.719 159.681,259.848 159.84,259.848C159.999,259.848 160.128,259.719 160.128,259.56L160.128,254.88C160.128,254.721 159.999,254.592 159.84,254.592C159.681,254.592 159.552,254.721 159.552,254.88Z"/>
            </g>
        </g>
        <g transform="matrix(16.6667,0,0,16.6667,0,0)">
            <g transform="matrix(1,0,0,1,-22.4938,-50.0862)">
                <path d="M164.16,259.92L164.16,255.24" style="fill:none;fill-rule:nonzero;"/>
            </g>
        </g>
        <g transform="matrix(16.6667,0,0,16.6667,0,0)">
            <g transform="matrix(1,0,0,1,-22.4938,-50.0862)">
                <path d="M164.448,259.92L164.448,255.24C164.448,255.081 164.319,254.952 164.16,254.952C164.001,254.952 163.872,255.081 163.872,255.24L163.872,259.92C163.872,260.079 164.001,260.208 164.16,260.208C164.319,260.208 164.448,260.079 164.448,259.92Z"/>
            </g>
        </g>
        <g transform="matrix(16.6667,0,0,16.6667,0,0)">
            <g transform="matrix(1,0,0,1,-22.4938,-50.0862)">
                <path d="M160.92,258.12L160.92,257.76" style="fill:none;fill-rule:nonzero;"/>
            </g>
        </g>
        <g transform="matrix(16.6667,0,0,16.6667,0,0)">
            <g transform="matrix(1,0,0,1,-22.4938,-50.0862)">
                <path d="M161.208,258.12L161.208,257.76C161.208,257.601 161.079,257.472 160.92,257.472C160.761,257.472 160.632,257.601 160.632,257.76L160.632,258.12C160.632,258.279 160.761,258.408 160.92,258.408C161.079,258.408 161.208,258.279 161.208,258.12Z"/>
            </g>
        </g>
        <g transform="matrix(16.6667,0,0,16.6667,0,0)">
            <g transform="matrix(1,0,0,1,-22.4938,-50.0862)">
                <path d="M162,259.2L162,256.68" style="fill:none;fill-rule:nonzero;"/>
            </g>
        </g>
        <g transform="matrix(16.6667,0,0,16.6667,0,0)">
            <g transform="matrix(1,0,0,1,-22.4938,-50.0862)">
                <path d="M162.288,259.2L162.288,256.68C162.288,256.521 162.159,256.392 162,256.392C161.841,256.392 161.712,256.521 161.712,256.68L161.712,259.2C161.712,259.359 161.841,259.488 162,259.488C162.159,259.488 162.288,259.359 162.288,259.2Z"/>
            </g>
        </g>
        <g transform="matrix(16.6667,0,0,16.6667,0,0)">
            <g transform="matrix(1,0,0,1,-22.4938,-50.0862)">
                <path d="M155.52,258.12L155.52,257.04" style="fill:none;fill-rule:nonzero;"/>
            </g>
        </g>
        <g transform="matrix(16.6667,0,0,16.6667,0,0)">
            <g transform="matrix(1,0,0,1,-22.4938,-50.0862)">
                <path d="M155.808,258.12L155.808,257.04C155.808,256.881 155.679,256.752 155.52,256.752C155.361,256.752 155.232,256.881 155.232,257.04L155.232,258.12C155.232,258.279 155.361,258.408 155.52,258.408C155.679,258.408 155.808,258.279 155.808,258.12Z"/>
            </g>
        </g>
        <g transform="matrix(16.6667,0,0,16.6667,0,0)">
            <g transform="matrix(1,0,0,1,-22.4938,-50.0862)">
                <path d="M163.08,261.72L163.08,252.72" style="fill:none;fill-rule:nonzero;"/>
            </g>
        </g>
        <g transform="matrix(16.6667,0,0,16.6667,0,0)">
            <g transform="matrix(1,0,0,1,-22.4938,-50.0862)">
                <path d="M163.368,261.72L163.368,252.72C163.368,252.561 163.239,252.432 163.08,252.432C162.921,252.432 162.792,252.561 162.792,252.72L162.792,261.72C162.792,261.879 162.921,262.008 163.08,262.008C163.239,262.008 163.368,261.879 163.368,261.72Z"/>
            </g>
        </g>
        <g transform="matrix(16.6667,0,0,16.6667,0,0)">
            <g transform="matrix(1,0,0,1,-22.4938,-50.0862)">
                <path d="M158.76,256.68L158.76,258.84" style="fill:none;fill-rule:nonzero;"/>
            </g>
        </g>
        <g transform="matrix(16.6667,0,0,16.6667,0,0)">
            <g transform="matrix(1,0,0,1,-22.4938,-50.0862)">
                <path d="M158.472,256.68L158.472,258.84C158.472,258.999 158.601,259.128 158.76,259.128C158.919,259.128 159.048,258.999 159.048,258.84L159.048,256.68C159.048,256.521 158.919,256.392 158.76,256.392C158.601,256.392 158.472,256.521 158.472,256.68Z"/>
            </g>
        </g>
        <g transform="matrix(16.6667,0,0,16.6667,0,0)">
            <g transform="matrix(1,0,0,1,-22.4938,-50.0862)">
                <path d="M164.16,255.24L164.16,259.92" style="fill:none;fill-rule:nonzero;"/>
            </g>
        </g>
        <g transform="matrix(16.6667,0,0,16.6667,0,0)">
            <g transform="matrix(1,0,0,1,-22.4938,-50.0862)">
                <path d="M163.872,255.24L163.872,259.92C163.872,260.079 164.001,260.208 164.16,260.208C164.319,260.208 164.448,260.079 164.448,259.92L164.448,255.24C164.448,255.081 164.319,254.952 164.16,254.952C164.001,254.952 163.872,255.081 163.872,255.24Z"/>
            </g>
        </g>
        <g transform="matrix(16.6667,0,0,16.6667,0,0)">
            <g transform="matrix(1,0,0,1,-22.4938,-50.0862)">
                <path d="M167.4,257.04L167.4,257.4" style="fill:none;fill-rule:nonzero;"/>
            </g>
        </g>
        <g transform="matrix(16.6667,0,0,16.6667,0,0)">
            <g transform="matrix(1,0,0,1,-22.4938,-50.0862)">
                <path d="M167.112,257.04L167.112,257.4C167.112,257.559 167.241,257.688 167.4,257.688C167.559,257.688 167.688,257.559 167.688,257.4L167.688,257.04C167.688,256.881 167.559,256.752 167.4,256.752C167.241,256.752 167.112,256.881 167.112,257.04Z"/>
            </g>
        </g>
        <g transform="matrix(16.6667,0,0,16.6667,0,0)">
            <g transform="matrix(1,0,0,1,-22.4938,-50.0862)">
                <path d="M166.32,255.96L166.32,258.48" style="fill:none;fill-rule:nonzero;"/>
            </g>
        </g>
        <g transform="matrix(16.6667,0,0,16.6667,0,0)">
            <g transform="matrix(1,0,0,1,-22.4938,-50.0862)">
                <path d="M166.032,255.96L166.032,258.48C166.032,258.639 166.161,258.768 166.32,258.768C166.479,258.768 166.608,258.639 166.608,258.48L166.608,255.96C166.608,255.801 166.479,255.672 166.32,255.672C166.161,255.672 166.032,255.801 166.032,255.96Z"/>
            </g>
        </g>
        <g transform="matrix(16.6667,0,0,16.6667,0,0)">
            <g transform="matrix(1,0,0,1,-22.4938,-50.0862)">
                <path d="M168.48,260.28L168.48,255.6" style="fill:none;fill-rule:nonzero;"/>
            </g>
        </g>
        <g transform="matrix(16.6667,0,0,16.6667,0,0)">
            <g transform="matrix(1,0,0,1,-22.4938,-50.0862)">
                <path d="M168.768,260.28L168.768,255.6C168.768,255.441 168.639,255.312 168.48,255.312C168.321,255.312 168.192,255.441 168.192,255.6L168.192,260.28C168.192,260.439 168.321,260.568 168.48,260.568C168.639,260.568 168.768,260.439 168.768,260.28Z"/>
            </g>
        </g>
        <g transform="matrix(16.6667,0,0,16.6667,0,0)">
            <g transform="matrix(1,0,0,1,-22.4938,-50.0862)">
                <path d="M170.64,261.72L170.64,254.16" style="fill:none;fill-rule:nonzero;"/>
            </g>
        </g>
        <g transform="matrix(16.6667,0,0,16.6667,0,0)">
            <g transform="matrix(1,0,0,1,-22.4938,-50.0862)">
                <path d="M170.928,261.72L170.928,254.16C170.928,254.001 170.799,253.872 170.64,253.872C170.481,253.872 170.352,254.001 170.352,254.16L170.352,261.72C170.352,261.879 170.481,262.008 170.64,262.008C170.799,262.008 170.928,261.879 170.928,261.72Z"/>
            </g>
        </g>
        <g transform="matrix(16.6667,0,0,16.6667,0,0)">
            <g transform="matrix(1,0,0,1,-22.4938,-50.0862)">
                <path d="M171.72,255.96L171.72,259.2" style="fill:none;fill-rule:nonzero;"/>
            </g>
        </g>
        <g transform="matrix(16.6667,0,0,16.6667,0,0)">
            <g transform="matrix(1,0,0,1,-22.4938,-50.0862)">
                <path d="M171.432,255.96L171.432,259.2C171.432,259.359 171.561,259.488 171.72,259.488C171.879,259.488 172.008,259.359 172.008,259.2L172.008,255.96C172.008,255.801 171.879,255.672 171.72,255.672C171.561,255.672 171.432,255.801 171.432,255.96Z"/>
            </g>
        </g>
        <g transform="matrix(16.6667,0,0,16.6667,0,0)">
            <g transform="matrix(1,0,0,1,-22.4938,-50.0862)">
                <path d="M172.8,257.04L172.8,258.12" style="fill:none;fill-rule:nonzero;"/>
            </g>
        </g>
        <g transform="matrix(16.6667,0,0,16.6667,0,0)">
            <g transform="matrix(1,0,0,1,-22.4938,-50.0862)">
                <path d="M172.512,257.04L172.512,258.12C172.512,258.279 172.641,258.408 172.8,258.408C172.959,258.408 173.088,258.279 173.088,258.12L173.088,257.04C173.088,256.881 172.959,256.752 172.8,256.752C172.641,256.752 172.512,256.881 172.512,257.04Z"/>
            </g>
        </g>
        <g transform="matrix(16.6667,0,0,16.6667,0,0)">
            <g transform="matrix(1,0,0,1,-22.4938,-50.0862)">
                <path d="M169.56,258.48L169.56,256.32" style="fill:none;fill-rule:nonzero;"/>
            </g>
        </g>
        <g transform="matrix(16.6667,0,0,16.6667,0,0)">
            <g transform="matrix(1,0,0,1,-22.4938,-50.0862)">
                <path d="M169.848,258.48L169.848,256.32C169.848,256.161 169.719,256.032 169.56,256.032C169.401,256.032 169.272,256.161 169.272,256.32L169.272,258.48C169.272,258.639 169.401,258.768 169.56,258.768C169.719,258.768 169.848,258.639 169.848,258.48Z"/>
            </g>
        </g>
        <g transform="matrix(16.6667,0,0,16.6667,0,0)">
            <g transform="matrix(1,0,0,1,-22.4938,-50.0862)">
                <path d="M165.24,253.44L165.24,262.44" style="fill:none;fill-rule:nonzero;"/>
            </g>
        </g>
        <g transform="matrix(16.6667,0,0,16.6667,0,0)">
            <g transform="matrix(1,0,0,1,-22.4938,-50.0862)">
                <path d="M164.952,253.44L164.952,262.44C164.952,262.599 165.081,262.728 165.24,262.728C165.399,262.728 165.528,262.599 165.528,262.44L165.528,253.44C165.528,253.281 165.399,253.152 165.24,253.152C165.081,253.152 164.952,253.281 164.952,253.44Z"/>
            </g>
        </g>
        <g transform="matrix(16.6667,0,0,16.6667,0,0)">
            <g transform="matrix(1,0,0,1,-22.4938,-50.0862)">
                <path d="M154.08,266.76L154.08,258.12" style="fill:none;fill-rule:nonzero;"/>
            </g>
        </g>
        <g transform="matrix(16.6667,0,0,16.6667,0,0)">
            <g transform="matrix(1,0,0,1,-22.4938,-50.0862)">
                <path d="M154.368,266.76L154.368,258.12C154.368,257.961 154.239,257.832 154.08,257.832C153.921,257.832 153.792,257.961 153.792,258.12L153.792,266.76C153.792,266.919 153.921,267.048 154.08,267.048C154.239,267.048 154.368,266.919 154.368,266.76Z"/>
            </g>
        </g>
        <g transform="matrix(16.6667,0,0,16.6667,0,0)">
            <g transform="matrix(1,0,0,1,-22.4938,-50.0862)">
                <path d="M154.8,264.96L156.6,263.16" style="fill:none;fill-rule:nonzero;"/>
            </g>
        </g>
        <g transform="matrix(16.6667,0,0,16.6667,0,0)">
            <g transform="matrix(1,0,0,1,-22.4938,-50.0862)">
                <path d="M155.004,265.164L156.804,263.364C156.916,263.251 156.916,263.069 156.804,262.956C156.691,262.844 156.509,262.844 156.396,262.956L154.596,264.756C154.484,264.869 154.484,265.051 154.596,265.164C154.709,265.276 154.891,265.276 155.004,265.164Z"/>
            </g>
        </g>
        <g transform="matrix(16.6667,0,0,16.6667,0,0)">
            <g transform="matrix(1,0,0,1,-22.4938,-50.0862)">
                <path d="M154.8,264.96L156.6,266.76" style="fill:none;fill-rule:nonzero;"/>
            </g>
        </g>
        <g transform="matrix(16.6667,0,0,16.6667,0,0)">
            <g transform="matrix(1,0,0,1,-22.4938,-50.0862)">
                <path d="M154.596,265.164L156.396,266.964C156.509,267.076 156.691,267.076 156.804,266.964C156.916,266.851 156.916,266.669 156.804,266.556L155.004,264.756C154.891,264.644 154.709,264.644 154.596,264.756C154.484,264.869 154.484,265.051 154.596,265.164Z"/>
            </g>
        </g>
        <g transform="matrix(16.6667,0,0,16.6667,0,0)">
            <g transform="matrix(1,0,0,1,-22.4938,-50.0862)">
                <path d="M173.16,264.96L171.36,266.76" style="fill:none;fill-rule:nonzero;"/>
            </g>
        </g>
        <g transform="matrix(16.6667,0,0,16.6667,0,0)">
            <g transform="matrix(1,0,0,1,-22.4938,-50.0862)">
                <path d="M172.956,264.756L171.156,266.556C171.044,266.669 171.044,266.851 171.156,266.964C171.269,267.076 171.451,267.076 171.564,266.964L173.364,265.164C173.476,265.051 173.476,264.869 173.364,264.756C173.251,264.644 173.069,264.644 172.956,264.756Z"/>
            </g>
        </g>
        <g transform="matrix(16.6667,0,0,16.6667,0,0)">
            <g transform="matrix(1,0,0,1,-22.4938,-50.0862)">
                <path d="M173.88,266.76L173.88,258.12" style="fill:none;fill-rule:nonzero;"/>
            </g>
        </g>
        <g transform="matrix(16.6667,0,0,16.6667,0,0)">
            <g transform="matrix(1,0,0,1,-22.4938,-50.0862)">
                <path d="M174.168,266.76L174.168,258.12C174.168,257.961 174.039,257.832 173.88,257.832C173.721,257.832 173.592,257.961 173.592,258.12L173.592,266.76C173.592,266.919 173.721,267.048 173.88,267.048C174.039,267.048 174.168,266.919 174.168,266.76Z"/>
            </g>
        </g>
        <g transform="matrix(16.6667,0,0,16.6667,0,0)">
            <g transform="matrix(1,0,0,1,-22.4938,-50.0862)">
                <path d="M154.8,264.96L173.16,264.96" style="fill:none;fill-rule:nonzero;"/>
            </g>
        </g>
        <g transform="matrix(16.6667,0,0,16.6667,0,0)">
            <g transform="matrix(1,0,0,1,-22.4938,-50.0862)">
                <path d="M154.8,265.248L173.16,265.248C173.319,265.248 173.448,265.119 173.448,264.96C173.448,264.801 173.319,264.672 173.16,264.672L154.8,264.672C154.641,264.672 154.512,264.801 154.512,264.96C154.512,265.119 154.641,265.248 154.8,265.248Z"/>
            </g>
        </g>
        <g transform="matrix(16.6667,0,0,16.6667,0,0)">
            <g transform="matrix(1,0,0,1,-22.4938,-50.0862)">
                <path d="M173.16,264.96L171.36,263.16" style="fill:none;fill-rule:nonzero;"/>
            </g>
        </g>
        <g transform="matrix(16.6667,0,0,16.6667,0,0)">
            <g transform="matrix(1,0,0,1,-22.4938,-50.0862)">
                <path d="M173.364,264.756L171.564,262.956C171.451,262.844 171.269,262.844 171.156,262.956C171.044,263.069 171.044,263.251 171.156,263.364L172.956,265.164C173.069,265.276 173.251,265.276 173.364,265.164C173.476,265.051 173.476,264.869 173.364,264.756Z"/>
            </g>
        </g>
        <g transform="matrix(16.6667,0,0,16.6667,0,0)">
            <g transform="matrix(1,0,0,1,-22.4938,-50.0862)">
                <path d="M152.28,251.28L150.264,249.768" style="fill:none;fill-rule:nonzero;"/>
            </g>
        </g>
        <g transform="matrix(16.6667,0,0,16.6667,0,0)">
            <g transform="matrix(1,0,0,1,-22.4938,-50.0862)">
                <path d="M152.382,251.144L150.366,249.632C150.291,249.576 150.184,249.591 150.128,249.666C150.072,249.741 150.087,249.848 150.162,249.904L152.178,251.416C152.253,251.472 152.36,251.457 152.416,251.382C152.472,251.307 152.457,251.2 152.382,251.144Z"/>
            </g>
        </g>
        <g transform="matrix(16.6667,0,0,16.6667,0,0)">
            <g transform="matrix(1,0,0,1,-22.4938,-50.0862)">
                <circle cx="164.16" cy="259.56" r="14.4" style="fill-opacity:0;"/>
            </g>
        </g>
        <g transform="matrix(16.6667,0,0,16.6667,0,0)">
            <g transform="matrix(1,0,0,1,-22.4938,-50.0862)">
                <path d="M164.16,244.99C156.119,244.99 149.59,251.519 149.59,259.56C149.59,267.601 156.119,274.13 164.16,274.13C172.201,274.13 178.73,267.601 178.73,259.56C178.73,251.519 172.201,244.99 164.16,244.99ZM164.16,245.33C172.014,245.33 178.39,251.706 178.39,259.56C178.39,267.414 172.014,273.79 164.16,273.79C156.306,273.79 149.93,267.414 149.93,259.56C149.93,251.706 156.306,245.33 164.16,245.33Z"/>
            </g>
        </g>
    </g>
</svg>
