<?xml version="1.0" encoding="UTF-8" standalone="no"?>
<!DOCTYPE svg PUBLIC "-//W3C//DTD SVG 1.1//EN" "http://www.w3.org/Graphics/SVG/1.1/DTD/svg11.dtd">
<svg width="100%" height="100%" viewBox="0 0 486 486" version="1.1" xmlns="http://www.w3.org/2000/svg" xmlns:xlink="http://www.w3.org/1999/xlink" xml:space="preserve" xmlns:serif="http://www.serif.com/" style="fill-rule:evenodd;clip-rule:evenodd;stroke-linejoin:round;stroke-miterlimit:2;">
    <g transform="matrix(1,0,0,1,-2694.27,-3248.4)">
        <g transform="matrix(16.6667,0,0,16.6667,0,0)">
            <g transform="matrix(1,0,0,1,-22.4938,-50.0862)">
                <circle cx="197.64" cy="269.64" r="0.805" style="fill-opacity:0;"/>
            </g>
        </g>
        <g transform="matrix(16.6667,0,0,16.6667,0,0)">
            <g transform="matrix(1,0,0,1,-22.4938,-50.0862)">
                <path d="M197.64,268.547C197.037,268.547 196.547,269.037 196.547,269.64C196.547,270.243 197.037,270.733 197.64,270.733C198.243,270.733 198.733,270.243 198.733,269.64C198.733,269.037 198.243,268.547 197.64,268.547ZM197.64,269.123C197.925,269.123 198.157,269.355 198.157,269.64C198.157,269.925 197.925,270.157 197.64,270.157C197.355,270.157 197.123,269.925 197.123,269.64C197.123,269.355 197.355,269.123 197.64,269.123Z"/>
            </g>
        </g>
        <g transform="matrix(16.6667,0,0,16.6667,0,0)">
            <g transform="matrix(1,0,0,1,-22.4938,-50.0862)">
                <path d="M199.8,267.48L198.36,268.92" style="fill:none;fill-rule:nonzero;"/>
            </g>
        </g>
        <g transform="matrix(16.6667,0,0,16.6667,0,0)">
            <g transform="matrix(1,0,0,1,-22.4938,-50.0862)">
                <path d="M199.596,267.276L198.156,268.716C198.044,268.829 198.044,269.011 198.156,269.124C198.269,269.236 198.451,269.236 198.564,269.124L200.004,267.684C200.116,267.571 200.116,267.389 200.004,267.276C199.891,267.164 199.709,267.164 199.596,267.276Z"/>
            </g>
        </g>
        <g transform="matrix(16.6667,0,0,16.6667,0,0)">
            <g transform="matrix(1,0,0,1,-22.4938,-50.0862)">
                <path d="M199.8,265.32L199.8,267.48" style="fill:none;fill-rule:nonzero;"/>
            </g>
        </g>
        <g transform="matrix(16.6667,0,0,16.6667,0,0)">
            <g transform="matrix(1,0,0,1,-22.4938,-50.0862)">
                <path d="M199.512,265.32L199.512,267.48C199.512,267.639 199.641,267.768 199.8,267.768C199.959,267.768 200.088,267.639 200.088,267.48L200.088,265.32C200.088,265.161 199.959,265.032 199.8,265.032C199.641,265.032 199.512,265.161 199.512,265.32Z"/>
            </g>
        </g>
        <g transform="matrix(16.6667,0,0,16.6667,0,0)">
            <g transform="matrix(1,0,0,1,-22.4938,-50.0862)">
                <path d="M207,258.48L199.8,265.32" style="fill:none;fill-rule:nonzero;"/>
            </g>
        </g>
        <g transform="matrix(16.6667,0,0,16.6667,0,0)">
            <g transform="matrix(1,0,0,1,-22.4938,-50.0862)">
                <path d="M206.802,258.271L199.602,265.111C199.486,265.221 199.482,265.403 199.591,265.518C199.701,265.634 199.883,265.638 199.998,265.529L207.198,258.689C207.314,258.579 207.318,258.397 207.209,258.282C207.099,258.166 206.917,258.162 206.802,258.271Z"/>
            </g>
        </g>
        <g transform="matrix(16.6667,0,0,16.6667,0,0)">
            <g transform="matrix(1,0,0,1,-22.4938,-50.0862)">
                <path d="M209.16,261L201.96,267.84" style="fill:none;fill-rule:nonzero;"/>
            </g>
        </g>
        <g transform="matrix(16.6667,0,0,16.6667,0,0)">
            <g transform="matrix(1,0,0,1,-22.4938,-50.0862)">
                <path d="M208.962,260.791L201.762,267.631C201.646,267.741 201.642,267.923 201.751,268.038C201.861,268.154 202.043,268.158 202.158,268.049L209.358,261.209C209.474,261.099 209.478,260.917 209.369,260.802C209.259,260.686 209.077,260.682 208.962,260.791Z"/>
            </g>
        </g>
        <g transform="matrix(16.6667,0,0,16.6667,0,0)">
            <g transform="matrix(1,0,0,1,-22.4938,-50.0862)">
                <path d="M199.8,267.48L201.96,267.84" style="fill:none;fill-rule:nonzero;"/>
            </g>
        </g>
        <g transform="matrix(16.6667,0,0,16.6667,0,0)">
            <g transform="matrix(1,0,0,1,-22.4938,-50.0862)">
                <path d="M199.753,267.764L201.913,268.124C202.069,268.15 202.218,268.044 202.244,267.887C202.27,267.731 202.164,267.582 202.007,267.556L199.847,267.196C199.691,267.17 199.542,267.276 199.516,267.433C199.49,267.589 199.596,267.738 199.753,267.764Z"/>
            </g>
        </g>
        <g transform="matrix(16.6667,0,0,16.6667,0,0)">
            <g transform="matrix(1,0,0,1,-22.4938,-50.0862)">
                <path d="M193.68,255.24C193.464,255.492 193.267,255.76 193.091,256.042" style="fill-opacity:0;fill-rule:nonzero;"/>
            </g>
        </g>
        <g transform="matrix(16.6667,0,0,16.6667,0,0)">
            <g transform="matrix(1,0,0,1,-22.4938,-50.0862)">
                <path d="M193.461,255.053C193.236,255.316 193.03,255.596 192.847,255.89C192.763,256.024 192.804,256.202 192.938,256.286C193.073,256.371 193.251,256.329 193.335,256.195C193.504,255.925 193.692,255.669 193.899,255.427C194.002,255.307 193.988,255.125 193.867,255.021C193.747,254.918 193.565,254.932 193.461,255.053Z"/>
            </g>
        </g>
        <g transform="matrix(16.6667,0,0,16.6667,0,0)">
            <g transform="matrix(1,0,0,1,-22.4938,-50.0862)">
                <path d="M194.04,253.44C193.442,253.897 192.915,254.439 192.474,255.049" style="fill-opacity:0;fill-rule:nonzero;"/>
            </g>
        </g>
        <g transform="matrix(16.6667,0,0,16.6667,0,0)">
            <g transform="matrix(1,0,0,1,-22.4938,-50.0862)">
                <path d="M193.865,253.211C193.245,253.685 192.698,254.248 192.241,254.881C192.147,255.009 192.177,255.19 192.305,255.283C192.434,255.376 192.614,255.347 192.707,255.218C193.132,254.631 193.639,254.109 194.215,253.669C194.341,253.572 194.365,253.391 194.269,253.265C194.172,253.139 193.991,253.115 193.865,253.211Z"/>
            </g>
        </g>
        <g transform="matrix(16.6667,0,0,16.6667,0,0)">
            <g transform="matrix(1,0,0,1,-22.4938,-50.0862)">
                <path d="M192.6,253.08C192.411,253.258 192.231,253.445 192.059,253.639" style="fill-opacity:0;fill-rule:nonzero;"/>
            </g>
        </g>
        <g transform="matrix(16.6667,0,0,16.6667,0,0)">
            <g transform="matrix(1,0,0,1,-22.4938,-50.0862)">
                <path d="M192.402,252.871C192.208,253.055 192.021,253.247 191.843,253.448C191.738,253.566 191.748,253.749 191.867,253.854C191.986,253.96 192.168,253.949 192.274,253.83C192.441,253.642 192.615,253.462 192.798,253.289C192.913,253.18 192.918,252.998 192.809,252.882C192.7,252.767 192.518,252.762 192.402,252.871Z"/>
            </g>
        </g>
        <g transform="matrix(16.6667,0,0,16.6667,0,0)">
            <g transform="matrix(1,0,0,1,-22.4938,-50.0862)">
                <path d="M193.68,250.92C192.097,251.843 190.797,253.184 189.924,254.796" style="fill-opacity:0;fill-rule:nonzero;"/>
            </g>
        </g>
        <g transform="matrix(16.6667,0,0,16.6667,0,0)">
            <g transform="matrix(1,0,0,1,-22.4938,-50.0862)">
                <path d="M193.535,250.671C191.906,251.621 190.569,253.001 189.671,254.659C189.596,254.798 189.648,254.973 189.787,255.049C189.927,255.125 190.102,255.073 190.178,254.933C191.026,253.368 192.288,252.066 193.825,251.169C193.962,251.089 194.009,250.912 193.929,250.775C193.849,250.638 193.672,250.591 193.535,250.671Z"/>
            </g>
        </g>
        <g transform="matrix(16.6667,0,0,16.6667,0,0)">
            <g transform="matrix(1,0,0,1,-22.4938,-50.0862)">
                <circle cx="198.72" cy="259.56" r="0.72" style="fill-opacity:0;"/>
            </g>
        </g>
        <g transform="matrix(16.6667,0,0,16.6667,0,0)">
            <g transform="matrix(1,0,0,1,-22.4938,-50.0862)">
                <path d="M198.72,258.552C198.164,258.552 197.712,259.004 197.712,259.56C197.712,260.116 198.164,260.568 198.72,260.568C199.276,260.568 199.728,260.116 199.728,259.56C199.728,259.004 199.276,258.552 198.72,258.552ZM198.72,259.128C198.958,259.128 199.152,259.322 199.152,259.56C199.152,259.798 198.958,259.992 198.72,259.992C198.482,259.992 198.288,259.798 198.288,259.56C198.288,259.322 198.482,259.128 198.72,259.128Z"/>
            </g>
        </g>
        <g transform="matrix(16.6667,0,0,16.6667,0,0)">
            <g transform="matrix(1,0,0,1,-22.4938,-50.0862)">
                <circle cx="198.72" cy="259.56" r="1.44" style="fill-opacity:0;"/>
            </g>
        </g>
        <g transform="matrix(16.6667,0,0,16.6667,0,0)">
            <g transform="matrix(1,0,0,1,-22.4938,-50.0862)">
                <path d="M198.72,257.832C197.766,257.832 196.992,258.606 196.992,259.56C196.992,260.514 197.766,261.288 198.72,261.288C199.674,261.288 200.448,260.514 200.448,259.56C200.448,258.606 199.674,257.832 198.72,257.832ZM198.72,258.408C199.356,258.408 199.872,258.924 199.872,259.56C199.872,260.196 199.356,260.712 198.72,260.712C198.084,260.712 197.568,260.196 197.568,259.56C197.568,258.924 198.084,258.408 198.72,258.408Z"/>
            </g>
        </g>
        <g transform="matrix(16.6667,0,0,16.6667,0,0)">
            <g transform="matrix(1,0,0,1,-22.4938,-50.0862)">
                <circle cx="198.72" cy="259.56" r="2.16" style="fill-opacity:0;"/>
            </g>
        </g>
        <g transform="matrix(16.6667,0,0,16.6667,0,0)">
            <g transform="matrix(1,0,0,1,-22.4938,-50.0862)">
                <path d="M198.72,257.112C197.369,257.112 196.272,258.209 196.272,259.56C196.272,260.911 197.369,262.008 198.72,262.008C200.071,262.008 201.168,260.911 201.168,259.56C201.168,258.209 200.071,257.112 198.72,257.112ZM198.72,257.688C199.753,257.688 200.592,258.527 200.592,259.56C200.592,260.593 199.753,261.432 198.72,261.432C197.687,261.432 196.848,260.593 196.848,259.56C196.848,258.527 197.687,257.688 198.72,257.688Z"/>
            </g>
        </g>
        <g transform="matrix(16.6667,0,0,16.6667,0,0)">
            <g transform="matrix(1,0,0,1,-22.4938,-50.0862)">
                <circle cx="198.72" cy="259.56" r="2.88" style="fill-opacity:0;"/>
            </g>
        </g>
        <g transform="matrix(16.6667,0,0,16.6667,0,0)">
            <g transform="matrix(1,0,0,1,-22.4938,-50.0862)">
                <path d="M198.72,256.392C196.972,256.392 195.552,257.812 195.552,259.56C195.552,261.308 196.972,262.728 198.72,262.728C200.468,262.728 201.888,261.308 201.888,259.56C201.888,257.812 200.468,256.392 198.72,256.392ZM198.72,256.968C200.151,256.968 201.312,258.129 201.312,259.56C201.312,260.991 200.151,262.152 198.72,262.152C197.289,262.152 196.128,260.991 196.128,259.56C196.128,258.129 197.289,256.968 198.72,256.968Z"/>
            </g>
        </g>
        <g transform="matrix(16.6667,0,0,16.6667,0,0)">
            <g transform="matrix(1,0,0,1,-22.4938,-50.0862)">
                <circle cx="198.72" cy="259.56" r="3.618" style="fill-opacity:0;"/>
            </g>
        </g>
        <g transform="matrix(16.6667,0,0,16.6667,0,0)">
            <g transform="matrix(1,0,0,1,-22.4938,-50.0862)">
                <path d="M198.72,255.654C196.564,255.654 194.814,257.404 194.814,259.56C194.814,261.716 196.564,263.466 198.72,263.466C200.876,263.466 202.626,261.716 202.626,259.56C202.626,257.404 200.876,255.654 198.72,255.654ZM198.72,256.23C200.558,256.23 202.05,257.722 202.05,259.56C202.05,261.398 200.558,262.89 198.72,262.89C196.882,262.89 195.39,261.398 195.39,259.56C195.39,257.722 196.882,256.23 198.72,256.23Z"/>
            </g>
        </g>
        <g transform="matrix(16.6667,0,0,16.6667,0,0)">
            <g transform="matrix(1,0,0,1,-22.4938,-50.0862)">
                <circle cx="198.72" cy="259.56" r="11.88" style="fill-opacity:0;"/>
            </g>
        </g>
        <g transform="matrix(16.6667,0,0,16.6667,0,0)">
            <g transform="matrix(1,0,0,1,-22.4938,-50.0862)">
                <path d="M198.72,247.392C192.004,247.392 186.552,252.844 186.552,259.56C186.552,266.276 192.004,271.728 198.72,271.728C205.436,271.728 210.888,266.276 210.888,259.56C210.888,252.844 205.436,247.392 198.72,247.392ZM198.72,247.968C205.118,247.968 210.312,253.162 210.312,259.56C210.312,265.958 205.118,271.152 198.72,271.152C192.322,271.152 187.128,265.958 187.128,259.56C187.128,253.162 192.322,247.968 198.72,247.968Z"/>
            </g>
        </g>
        <g transform="matrix(16.6667,0,0,16.6667,0,0)">
            <g transform="matrix(1,0,0,1,-22.4938,-50.0862)">
                <path d="M186.84,251.28L184.824,249.768" style="fill:none;fill-rule:nonzero;"/>
            </g>
        </g>
        <g transform="matrix(16.6667,0,0,16.6667,0,0)">
            <g transform="matrix(1,0,0,1,-22.4938,-50.0862)">
                <path d="M186.942,251.144L184.926,249.632C184.851,249.576 184.744,249.591 184.688,249.666C184.632,249.741 184.647,249.848 184.722,249.904L186.738,251.416C186.813,251.472 186.92,251.457 186.976,251.382C187.032,251.307 187.017,251.2 186.942,251.144Z"/>
            </g>
        </g>
        <g transform="matrix(16.6667,0,0,16.6667,0,0)">
            <g transform="matrix(1,0,0,1,-22.4938,-50.0862)">
                <circle cx="198.72" cy="259.56" r="14.4" style="fill-opacity:0;"/>
            </g>
        </g>
        <g transform="matrix(16.6667,0,0,16.6667,0,0)">
            <g transform="matrix(1,0,0,1,-22.4938,-50.0862)">
                <path d="M198.72,244.99C190.679,244.99 184.15,251.519 184.15,259.56C184.15,267.601 190.679,274.13 198.72,274.13C206.761,274.13 213.29,267.601 213.29,259.56C213.29,251.519 206.761,244.99 198.72,244.99ZM198.72,245.33C206.574,245.33 212.95,251.706 212.95,259.56C212.95,267.414 206.574,273.79 198.72,273.79C190.866,273.79 184.49,267.414 184.49,259.56C184.49,251.706 190.866,245.33 198.72,245.33Z"/>
            </g>
        </g>
    </g>
</svg>
