<?xml version="1.0" encoding="UTF-8" standalone="no"?>
<!DOCTYPE svg PUBLIC "-//W3C//DTD SVG 1.1//EN" "http://www.w3.org/Graphics/SVG/1.1/DTD/svg11.dtd">
<svg width="100%" height="100%" viewBox="0 0 486 486" version="1.1" xmlns="http://www.w3.org/2000/svg" xmlns:xlink="http://www.w3.org/1999/xlink" xml:space="preserve" xmlns:serif="http://www.serif.com/" style="fill-rule:evenodd;clip-rule:evenodd;stroke-linejoin:round;stroke-miterlimit:2;">
    <g transform="matrix(1,0,0,1,-3270.27,-3248.4)">
        <g transform="matrix(16.6667,0,0,16.6667,0,0)">
            <g transform="matrix(1,0,0,1,-22.4938,-50.0862)">
                <path d="M236.52,255.6L235.8,257.04" style="fill:none;fill-rule:nonzero;"/>
            </g>
        </g>
        <g transform="matrix(16.6667,0,0,16.6667,0,0)">
            <g transform="matrix(1,0,0,1,-22.4938,-50.0862)">
                <path d="M236.262,255.471L235.542,256.911C235.471,257.053 235.529,257.227 235.671,257.298C235.813,257.369 235.987,257.311 236.058,257.169L236.778,255.729C236.849,255.587 236.791,255.413 236.649,255.342C236.507,255.271 236.333,255.329 236.262,255.471Z"/>
            </g>
        </g>
        <g transform="matrix(16.6667,0,0,16.6667,0,0)">
            <g transform="matrix(1,0,0,1,-22.4938,-50.0862)">
                <path d="M228.96,251.64L236.88,251.64" style="fill:none;fill-rule:nonzero;"/>
            </g>
        </g>
        <g transform="matrix(16.6667,0,0,16.6667,0,0)">
            <g transform="matrix(1,0,0,1,-22.4938,-50.0862)">
                <path d="M228.96,251.928L236.88,251.928C237.039,251.928 237.168,251.799 237.168,251.64C237.168,251.481 237.039,251.352 236.88,251.352L228.96,251.352C228.801,251.352 228.672,251.481 228.672,251.64C228.672,251.799 228.801,251.928 228.96,251.928Z"/>
            </g>
        </g>
        <g transform="matrix(16.6667,0,0,16.6667,0,0)">
            <g transform="matrix(1,0,0,1,-22.4938,-50.0862)">
                <path d="M231.48,259.2L231.48,258.12" style="fill:none;fill-rule:nonzero;"/>
            </g>
        </g>
        <g transform="matrix(16.6667,0,0,16.6667,0,0)">
            <g transform="matrix(1,0,0,1,-22.4938,-50.0862)">
                <path d="M231.768,259.2L231.768,258.12C231.768,257.961 231.639,257.832 231.48,257.832C231.321,257.832 231.192,257.961 231.192,258.12L231.192,259.2C231.192,259.359 231.321,259.488 231.48,259.488C231.639,259.488 231.768,259.359 231.768,259.2Z"/>
            </g>
        </g>
        <g transform="matrix(16.6667,0,0,16.6667,0,0)">
            <g transform="matrix(1,0,0,1,-22.4938,-50.0862)">
                <path d="M229.68,265.32L229.68,262.08" style="fill:none;fill-rule:nonzero;"/>
            </g>
        </g>
        <g transform="matrix(16.6667,0,0,16.6667,0,0)">
            <g transform="matrix(1,0,0,1,-22.4938,-50.0862)">
                <path d="M229.968,265.32L229.968,262.08C229.968,261.921 229.839,261.792 229.68,261.792C229.521,261.792 229.392,261.921 229.392,262.08L229.392,265.32C229.392,265.479 229.521,265.608 229.68,265.608C229.839,265.608 229.968,265.479 229.968,265.32Z"/>
            </g>
        </g>
        <g transform="matrix(16.6667,0,0,16.6667,0,0)">
            <g transform="matrix(1,0,0,1,-22.4938,-50.0862)">
                <path d="M229.32,252.72L228.96,252.72" style="fill:none;fill-rule:nonzero;"/>
            </g>
        </g>
        <g transform="matrix(16.6667,0,0,16.6667,0,0)">
            <g transform="matrix(1,0,0,1,-22.4938,-50.0862)">
                <path d="M229.32,252.432L228.96,252.432C228.801,252.432 228.672,252.561 228.672,252.72C228.672,252.879 228.801,253.008 228.96,253.008L229.32,253.008C229.479,253.008 229.608,252.879 229.608,252.72C229.608,252.561 229.479,252.432 229.32,252.432Z"/>
            </g>
        </g>
        <g transform="matrix(16.6667,0,0,16.6667,0,0)">
            <g transform="matrix(1,0,0,1,-22.4938,-50.0862)">
                <path d="M235.8,257.04L235.08,257.76" style="fill:none;fill-rule:nonzero;"/>
            </g>
        </g>
        <g transform="matrix(16.6667,0,0,16.6667,0,0)">
            <g transform="matrix(1,0,0,1,-22.4938,-50.0862)">
                <path d="M235.596,256.836L234.876,257.556C234.764,257.669 234.764,257.851 234.876,257.964C234.989,258.076 235.171,258.076 235.284,257.964L236.004,257.244C236.116,257.131 236.116,256.949 236.004,256.836C235.891,256.724 235.709,256.724 235.596,256.836Z"/>
            </g>
        </g>
        <g transform="matrix(16.6667,0,0,16.6667,0,0)">
            <g transform="matrix(1,0,0,1,-22.4938,-50.0862)">
                <path d="M230.4,256.68L229.68,255.24" style="fill:none;fill-rule:nonzero;"/>
            </g>
        </g>
        <g transform="matrix(16.6667,0,0,16.6667,0,0)">
            <g transform="matrix(1,0,0,1,-22.4938,-50.0862)">
                <path d="M230.658,256.551L229.938,255.111C229.867,254.969 229.693,254.911 229.551,254.982C229.409,255.053 229.351,255.227 229.422,255.369L230.142,256.809C230.213,256.951 230.387,257.009 230.529,256.938C230.671,256.867 230.729,256.693 230.658,256.551Z"/>
            </g>
        </g>
        <g transform="matrix(16.6667,0,0,16.6667,0,0)">
            <g transform="matrix(1,0,0,1,-22.4938,-50.0862)">
                <path d="M229.68,255.24L229.68,252.72" style="fill:none;fill-rule:nonzero;"/>
            </g>
        </g>
        <g transform="matrix(16.6667,0,0,16.6667,0,0)">
            <g transform="matrix(1,0,0,1,-22.4938,-50.0862)">
                <path d="M229.968,255.24L229.968,252.72C229.968,252.561 229.839,252.432 229.68,252.432C229.521,252.432 229.392,252.561 229.392,252.72L229.392,255.24C229.392,255.399 229.521,255.528 229.68,255.528C229.839,255.528 229.968,255.399 229.968,255.24Z"/>
            </g>
        </g>
        <g transform="matrix(16.6667,0,0,16.6667,0,0)">
            <g transform="matrix(1,0,0,1,-22.4938,-50.0862)">
                <path d="M236.52,252.72L236.52,255.6" style="fill:none;fill-rule:nonzero;"/>
            </g>
        </g>
        <g transform="matrix(16.6667,0,0,16.6667,0,0)">
            <g transform="matrix(1,0,0,1,-22.4938,-50.0862)">
                <path d="M236.232,252.72L236.232,255.6C236.232,255.759 236.361,255.888 236.52,255.888C236.679,255.888 236.808,255.759 236.808,255.6L236.808,252.72C236.808,252.561 236.679,252.432 236.52,252.432C236.361,252.432 236.232,252.561 236.232,252.72Z"/>
            </g>
        </g>
        <g transform="matrix(16.6667,0,0,16.6667,0,0)">
            <g transform="matrix(1,0,0,1,-22.4938,-50.0862)">
                <path d="M229.68,262.08L230.4,260.64" style="fill:none;fill-rule:nonzero;"/>
            </g>
        </g>
        <g transform="matrix(16.6667,0,0,16.6667,0,0)">
            <g transform="matrix(1,0,0,1,-22.4938,-50.0862)">
                <path d="M229.938,262.209L230.658,260.769C230.729,260.627 230.671,260.453 230.529,260.382C230.387,260.311 230.213,260.369 230.142,260.511L229.422,261.951C229.351,262.093 229.409,262.267 229.551,262.338C229.693,262.409 229.867,262.351 229.938,262.209Z"/>
            </g>
        </g>
        <g transform="matrix(16.6667,0,0,16.6667,0,0)">
            <g transform="matrix(1,0,0,1,-22.4938,-50.0862)">
                <path d="M230.4,260.64L231.12,259.92" style="fill:none;fill-rule:nonzero;"/>
            </g>
        </g>
        <g transform="matrix(16.6667,0,0,16.6667,0,0)">
            <g transform="matrix(1,0,0,1,-22.4938,-50.0862)">
                <path d="M230.604,260.844L231.324,260.124C231.436,260.011 231.436,259.829 231.324,259.716C231.211,259.604 231.029,259.604 230.916,259.716L230.196,260.436C230.084,260.549 230.084,260.731 230.196,260.844C230.309,260.956 230.491,260.956 230.604,260.844Z"/>
            </g>
        </g>
        <g transform="matrix(16.6667,0,0,16.6667,0,0)">
            <g transform="matrix(1,0,0,1,-22.4938,-50.0862)">
                <path d="M231.48,258.12L231.12,257.4" style="fill:none;fill-rule:nonzero;"/>
            </g>
        </g>
        <g transform="matrix(16.6667,0,0,16.6667,0,0)">
            <g transform="matrix(1,0,0,1,-22.4938,-50.0862)">
                <path d="M231.738,257.991L231.378,257.271C231.307,257.129 231.133,257.071 230.991,257.142C230.849,257.213 230.791,257.387 230.862,257.529L231.222,258.249C231.293,258.391 231.467,258.449 231.609,258.378C231.751,258.307 231.809,258.133 231.738,257.991Z"/>
            </g>
        </g>
        <g transform="matrix(16.6667,0,0,16.6667,0,0)">
            <g transform="matrix(1,0,0,1,-22.4938,-50.0862)">
                <path d="M231.12,259.92L231.48,259.2" style="fill:none;fill-rule:nonzero;"/>
            </g>
        </g>
        <g transform="matrix(16.6667,0,0,16.6667,0,0)">
            <g transform="matrix(1,0,0,1,-22.4938,-50.0862)">
                <path d="M231.378,260.049L231.738,259.329C231.809,259.187 231.751,259.013 231.609,258.942C231.467,258.871 231.293,258.929 231.222,259.071L230.862,259.791C230.791,259.933 230.849,260.107 230.991,260.178C231.133,260.249 231.307,260.191 231.378,260.049Z"/>
            </g>
        </g>
        <g transform="matrix(16.6667,0,0,16.6667,0,0)">
            <g transform="matrix(1,0,0,1,-22.4938,-50.0862)">
                <path d="M231.12,257.4L230.4,256.68" style="fill:none;fill-rule:nonzero;"/>
            </g>
        </g>
        <g transform="matrix(16.6667,0,0,16.6667,0,0)">
            <g transform="matrix(1,0,0,1,-22.4938,-50.0862)">
                <path d="M231.324,257.196L230.604,256.476C230.491,256.364 230.309,256.364 230.196,256.476C230.084,256.589 230.084,256.771 230.196,256.884L230.916,257.604C231.029,257.716 231.211,257.716 231.324,257.604C231.436,257.491 231.436,257.309 231.324,257.196Z"/>
            </g>
        </g>
        <g transform="matrix(16.6667,0,0,16.6667,0,0)">
            <g transform="matrix(1,0,0,1,-22.4938,-50.0862)">
                <path d="M229.68,252.72L229.32,252.72" style="fill:none;fill-rule:nonzero;"/>
            </g>
        </g>
        <g transform="matrix(16.6667,0,0,16.6667,0,0)">
            <g transform="matrix(1,0,0,1,-22.4938,-50.0862)">
                <path d="M229.68,252.432L229.32,252.432C229.161,252.432 229.032,252.561 229.032,252.72C229.032,252.879 229.161,253.008 229.32,253.008L229.68,253.008C229.839,253.008 229.968,252.879 229.968,252.72C229.968,252.561 229.839,252.432 229.68,252.432Z"/>
            </g>
        </g>
        <g transform="matrix(16.6667,0,0,16.6667,0,0)">
            <g transform="matrix(1,0,0,1,-22.4938,-50.0862)">
                <path d="M228.96,252.72L228.96,251.64" style="fill:none;fill-rule:nonzero;"/>
            </g>
        </g>
        <g transform="matrix(16.6667,0,0,16.6667,0,0)">
            <g transform="matrix(1,0,0,1,-22.4938,-50.0862)">
                <path d="M229.248,252.72L229.248,251.64C229.248,251.481 229.119,251.352 228.96,251.352C228.801,251.352 228.672,251.481 228.672,251.64L228.672,252.72C228.672,252.879 228.801,253.008 228.96,253.008C229.119,253.008 229.248,252.879 229.248,252.72Z"/>
            </g>
        </g>
        <g transform="matrix(16.6667,0,0,16.6667,0,0)">
            <g transform="matrix(1,0,0,1,-22.4938,-50.0862)">
                <path d="M235.08,257.76L234.72,258.48" style="fill:none;fill-rule:nonzero;"/>
            </g>
        </g>
        <g transform="matrix(16.6667,0,0,16.6667,0,0)">
            <g transform="matrix(1,0,0,1,-22.4938,-50.0862)">
                <path d="M234.822,257.631L234.462,258.351C234.391,258.493 234.449,258.667 234.591,258.738C234.733,258.809 234.907,258.751 234.978,258.609L235.338,257.889C235.409,257.747 235.351,257.573 235.209,257.502C235.067,257.431 234.893,257.489 234.822,257.631Z"/>
            </g>
        </g>
        <g transform="matrix(16.6667,0,0,16.6667,0,0)">
            <g transform="matrix(1,0,0,1,-22.4938,-50.0862)">
                <path d="M234.72,258.48L234.72,259.56" style="fill:none;fill-rule:nonzero;"/>
            </g>
        </g>
        <g transform="matrix(16.6667,0,0,16.6667,0,0)">
            <g transform="matrix(1,0,0,1,-22.4938,-50.0862)">
                <path d="M234.432,258.48L234.432,259.56C234.432,259.719 234.561,259.848 234.72,259.848C234.879,259.848 235.008,259.719 235.008,259.56L235.008,258.48C235.008,258.321 234.879,258.192 234.72,258.192C234.561,258.192 234.432,258.321 234.432,258.48Z"/>
            </g>
        </g>
        <g transform="matrix(16.6667,0,0,16.6667,0,0)">
            <g transform="matrix(1,0,0,1,-22.4938,-50.0862)">
                <path d="M236.52,265.32L229.68,265.32" style="fill:none;fill-rule:nonzero;"/>
            </g>
        </g>
        <g transform="matrix(16.6667,0,0,16.6667,0,0)">
            <g transform="matrix(1,0,0,1,-22.4938,-50.0862)">
                <path d="M236.52,265.032L229.68,265.032C229.521,265.032 229.392,265.161 229.392,265.32C229.392,265.479 229.521,265.608 229.68,265.608L236.52,265.608C236.679,265.608 236.808,265.479 236.808,265.32C236.808,265.161 236.679,265.032 236.52,265.032Z"/>
            </g>
        </g>
        <g transform="matrix(16.6667,0,0,16.6667,0,0)">
            <g transform="matrix(1,0,0,1,-22.4938,-50.0862)">
                <path d="M234.72,259.56L235.08,260.28" style="fill:none;fill-rule:nonzero;"/>
            </g>
        </g>
        <g transform="matrix(16.6667,0,0,16.6667,0,0)">
            <g transform="matrix(1,0,0,1,-22.4938,-50.0862)">
                <path d="M234.462,259.689L234.822,260.409C234.893,260.551 235.067,260.609 235.209,260.538C235.351,260.467 235.409,260.293 235.338,260.151L234.978,259.431C234.907,259.289 234.733,259.231 234.591,259.302C234.449,259.373 234.391,259.547 234.462,259.689Z"/>
            </g>
        </g>
        <g transform="matrix(16.6667,0,0,16.6667,0,0)">
            <g transform="matrix(1,0,0,1,-22.4938,-50.0862)">
                <path d="M235.8,261L236.52,262.44" style="fill:none;fill-rule:nonzero;"/>
            </g>
        </g>
        <g transform="matrix(16.6667,0,0,16.6667,0,0)">
            <g transform="matrix(1,0,0,1,-22.4938,-50.0862)">
                <path d="M235.542,261.129L236.262,262.569C236.333,262.711 236.507,262.769 236.649,262.698C236.791,262.627 236.849,262.453 236.778,262.311L236.058,260.871C235.987,260.729 235.813,260.671 235.671,260.742C235.529,260.813 235.471,260.987 235.542,261.129Z"/>
            </g>
        </g>
        <g transform="matrix(16.6667,0,0,16.6667,0,0)">
            <g transform="matrix(1,0,0,1,-22.4938,-50.0862)">
                <path d="M229.68,252.72L236.52,252.72" style="fill:none;fill-rule:nonzero;"/>
            </g>
        </g>
        <g transform="matrix(16.6667,0,0,16.6667,0,0)">
            <g transform="matrix(1,0,0,1,-22.4938,-50.0862)">
                <path d="M229.68,253.008L236.52,253.008C236.679,253.008 236.808,252.879 236.808,252.72C236.808,252.561 236.679,252.432 236.52,252.432L229.68,252.432C229.521,252.432 229.392,252.561 229.392,252.72C229.392,252.879 229.521,253.008 229.68,253.008Z"/>
            </g>
        </g>
        <g transform="matrix(16.6667,0,0,16.6667,0,0)">
            <g transform="matrix(1,0,0,1,-22.4938,-50.0862)">
                <path d="M235.08,260.28L235.8,261" style="fill:none;fill-rule:nonzero;"/>
            </g>
        </g>
        <g transform="matrix(16.6667,0,0,16.6667,0,0)">
            <g transform="matrix(1,0,0,1,-22.4938,-50.0862)">
                <path d="M234.876,260.484L235.596,261.204C235.709,261.316 235.891,261.316 236.004,261.204C236.116,261.091 236.116,260.909 236.004,260.796L235.284,260.076C235.171,259.964 234.989,259.964 234.876,260.076C234.764,260.189 234.764,260.371 234.876,260.484Z"/>
            </g>
        </g>
        <g transform="matrix(16.6667,0,0,16.6667,0,0)">
            <g transform="matrix(1,0,0,1,-22.4938,-50.0862)">
                <path d="M236.52,262.44L236.52,265.32" style="fill:none;fill-rule:nonzero;"/>
            </g>
        </g>
        <g transform="matrix(16.6667,0,0,16.6667,0,0)">
            <g transform="matrix(1,0,0,1,-22.4938,-50.0862)">
                <path d="M236.232,262.44L236.232,265.32C236.232,265.479 236.361,265.608 236.52,265.608C236.679,265.608 236.808,265.479 236.808,265.32L236.808,262.44C236.808,262.281 236.679,262.152 236.52,262.152C236.361,262.152 236.232,262.281 236.232,262.44Z"/>
            </g>
        </g>
        <g transform="matrix(16.6667,0,0,16.6667,0,0)">
            <g transform="matrix(1,0,0,1,-22.4938,-50.0862)">
                <path d="M229.68,265.32L228.96,265.32" style="fill:none;fill-rule:nonzero;"/>
            </g>
        </g>
        <g transform="matrix(16.6667,0,0,16.6667,0,0)">
            <g transform="matrix(1,0,0,1,-22.4938,-50.0862)">
                <path d="M229.68,265.032L228.96,265.032C228.801,265.032 228.672,265.161 228.672,265.32C228.672,265.479 228.801,265.608 228.96,265.608L229.68,265.608C229.839,265.608 229.968,265.479 229.968,265.32C229.968,265.161 229.839,265.032 229.68,265.032Z"/>
            </g>
        </g>
        <g transform="matrix(16.6667,0,0,16.6667,0,0)">
            <g transform="matrix(1,0,0,1,-22.4938,-50.0862)">
                <path d="M228.96,265.32L228.96,266.4" style="fill:none;fill-rule:nonzero;"/>
            </g>
        </g>
        <g transform="matrix(16.6667,0,0,16.6667,0,0)">
            <g transform="matrix(1,0,0,1,-22.4938,-50.0862)">
                <path d="M228.672,265.32L228.672,266.4C228.672,266.559 228.801,266.688 228.96,266.688C229.119,266.688 229.248,266.559 229.248,266.4L229.248,265.32C229.248,265.161 229.119,265.032 228.96,265.032C228.801,265.032 228.672,265.161 228.672,265.32Z"/>
            </g>
        </g>
        <g transform="matrix(16.6667,0,0,16.6667,0,0)">
            <g transform="matrix(1,0,0,1,-22.4938,-50.0862)">
                <path d="M232.2,260.64L232.92,260.28" style="fill:none;fill-rule:nonzero;"/>
            </g>
        </g>
        <g transform="matrix(16.6667,0,0,16.6667,0,0)">
            <g transform="matrix(1,0,0,1,-22.4938,-50.0862)">
                <path d="M232.329,260.898L233.049,260.538C233.191,260.467 233.249,260.293 233.178,260.151C233.107,260.009 232.933,259.951 232.791,260.022L232.071,260.382C231.929,260.453 231.871,260.627 231.942,260.769C232.013,260.911 232.187,260.969 232.329,260.898Z"/>
            </g>
        </g>
        <g transform="matrix(16.6667,0,0,16.6667,0,0)">
            <g transform="matrix(1,0,0,1,-22.4938,-50.0862)">
                <path d="M237.24,265.32L236.52,265.32" style="fill:none;fill-rule:nonzero;"/>
            </g>
        </g>
        <g transform="matrix(16.6667,0,0,16.6667,0,0)">
            <g transform="matrix(1,0,0,1,-22.4938,-50.0862)">
                <path d="M237.24,265.032L236.52,265.032C236.361,265.032 236.232,265.161 236.232,265.32C236.232,265.479 236.361,265.608 236.52,265.608L237.24,265.608C237.399,265.608 237.528,265.479 237.528,265.32C237.528,265.161 237.399,265.032 237.24,265.032Z"/>
            </g>
        </g>
        <g transform="matrix(16.6667,0,0,16.6667,0,0)">
            <g transform="matrix(1,0,0,1,-22.4938,-50.0862)">
                <path d="M232.92,260.28L234.36,260.64" style="fill:none;fill-rule:nonzero;"/>
            </g>
        </g>
        <g transform="matrix(16.6667,0,0,16.6667,0,0)">
            <g transform="matrix(1,0,0,1,-22.4938,-50.0862)">
                <path d="M232.85,260.559L234.29,260.919C234.444,260.958 234.601,260.864 234.639,260.71C234.678,260.556 234.584,260.399 234.43,260.361L232.99,260.001C232.836,259.962 232.679,260.056 232.641,260.21C232.602,260.364 232.696,260.521 232.85,260.559Z"/>
            </g>
        </g>
        <g transform="matrix(16.6667,0,0,16.6667,0,0)">
            <g transform="matrix(1,0,0,1,-22.4938,-50.0862)">
                <path d="M228.96,266.4L237.24,266.4" style="fill:none;fill-rule:nonzero;"/>
            </g>
        </g>
        <g transform="matrix(16.6667,0,0,16.6667,0,0)">
            <g transform="matrix(1,0,0,1,-22.4938,-50.0862)">
                <path d="M228.96,266.688L237.24,266.688C237.399,266.688 237.528,266.559 237.528,266.4C237.528,266.241 237.399,266.112 237.24,266.112L228.96,266.112C228.801,266.112 228.672,266.241 228.672,266.4C228.672,266.559 228.801,266.688 228.96,266.688Z"/>
            </g>
        </g>
        <g transform="matrix(16.6667,0,0,16.6667,0,0)">
            <g transform="matrix(1,0,0,1,-22.4938,-50.0862)">
                <path d="M237.24,266.4L237.24,265.32" style="fill:none;fill-rule:nonzero;"/>
            </g>
        </g>
        <g transform="matrix(16.6667,0,0,16.6667,0,0)">
            <g transform="matrix(1,0,0,1,-22.4938,-50.0862)">
                <path d="M237.528,266.4L237.528,265.32C237.528,265.161 237.399,265.032 237.24,265.032C237.081,265.032 236.952,265.161 236.952,265.32L236.952,266.4C236.952,266.559 237.081,266.688 237.24,266.688C237.399,266.688 237.528,266.559 237.528,266.4Z"/>
            </g>
        </g>
        <g transform="matrix(16.6667,0,0,16.6667,0,0)">
            <g transform="matrix(1,0,0,1,-22.4938,-50.0862)">
                <path d="M230.4,261L232.2,260.64" style="fill:none;fill-rule:nonzero;"/>
            </g>
        </g>
        <g transform="matrix(16.6667,0,0,16.6667,0,0)">
            <g transform="matrix(1,0,0,1,-22.4938,-50.0862)">
                <path d="M230.456,261.282L232.256,260.922C232.412,260.891 232.514,260.739 232.482,260.584C232.451,260.428 232.299,260.326 232.144,260.358L230.344,260.718C230.188,260.749 230.086,260.901 230.118,261.056C230.149,261.212 230.301,261.314 230.456,261.282Z"/>
            </g>
        </g>
        <g transform="matrix(16.6667,0,0,16.6667,0,0)">
            <g transform="matrix(1,0,0,1,-22.4938,-50.0862)">
                <path d="M234.36,260.64L236.16,261.72" style="fill:none;fill-rule:nonzero;"/>
            </g>
        </g>
        <g transform="matrix(16.6667,0,0,16.6667,0,0)">
            <g transform="matrix(1,0,0,1,-22.4938,-50.0862)">
                <path d="M234.212,260.887L236.012,261.967C236.148,262.049 236.325,262.004 236.407,261.868C236.489,261.732 236.444,261.555 236.308,261.473L234.508,260.393C234.372,260.311 234.195,260.356 234.113,260.492C234.031,260.628 234.076,260.805 234.212,260.887Z"/>
            </g>
        </g>
        <g transform="matrix(16.6667,0,0,16.6667,0,0)">
            <g transform="matrix(1,0,0,1,-22.4938,-50.0862)">
                <path d="M230.04,265.32L234.36,261" style="fill:none;fill-rule:nonzero;"/>
            </g>
        </g>
        <g transform="matrix(16.6667,0,0,16.6667,0,0)">
            <g transform="matrix(1,0,0,1,-22.4938,-50.0862)">
                <path d="M230.193,265.473L234.513,261.153C234.597,261.068 234.597,260.932 234.513,260.847C234.428,260.763 234.292,260.763 234.207,260.847L229.887,265.167C229.803,265.252 229.803,265.388 229.887,265.473C229.972,265.557 230.108,265.557 230.193,265.473Z"/>
            </g>
        </g>
        <g transform="matrix(16.6667,0,0,16.6667,0,0)">
            <g transform="matrix(1,0,0,1,-22.4938,-50.0862)">
                <path d="M229.68,263.52L232.92,260.28" style="fill:none;fill-rule:nonzero;"/>
            </g>
        </g>
        <g transform="matrix(16.6667,0,0,16.6667,0,0)">
            <g transform="matrix(1,0,0,1,-22.4938,-50.0862)">
                <path d="M229.833,263.673L233.073,260.433C233.157,260.348 233.157,260.212 233.073,260.127C232.988,260.043 232.852,260.043 232.767,260.127L229.527,263.367C229.443,263.452 229.443,263.588 229.527,263.673C229.612,263.757 229.748,263.757 229.833,263.673Z"/>
            </g>
        </g>
        <g transform="matrix(16.6667,0,0,16.6667,0,0)">
            <g transform="matrix(1,0,0,1,-22.4938,-50.0862)">
                <path d="M234.36,265.32L236.52,263.16" style="fill:none;fill-rule:nonzero;"/>
            </g>
        </g>
        <g transform="matrix(16.6667,0,0,16.6667,0,0)">
            <g transform="matrix(1,0,0,1,-22.4938,-50.0862)">
                <path d="M234.513,265.473L236.673,263.313C236.757,263.228 236.757,263.092 236.673,263.007C236.588,262.923 236.452,262.923 236.367,263.007L234.207,265.167C234.123,265.252 234.123,265.388 234.207,265.473C234.292,265.557 234.428,265.557 234.513,265.473Z"/>
            </g>
        </g>
        <g transform="matrix(16.6667,0,0,16.6667,0,0)">
            <g transform="matrix(1,0,0,1,-22.4938,-50.0862)">
                <path d="M232.2,265.32L235.8,261.72" style="fill:none;fill-rule:nonzero;"/>
            </g>
        </g>
        <g transform="matrix(16.6667,0,0,16.6667,0,0)">
            <g transform="matrix(1,0,0,1,-22.4938,-50.0862)">
                <path d="M232.353,265.473L235.953,261.873C236.037,261.788 236.037,261.652 235.953,261.567C235.868,261.483 235.732,261.483 235.647,261.567L232.047,265.167C231.963,265.252 231.963,265.388 232.047,265.473C232.132,265.557 232.268,265.557 232.353,265.473Z"/>
            </g>
        </g>
        <g transform="matrix(16.6667,0,0,16.6667,0,0)">
            <g transform="matrix(1,0,0,1,-22.4938,-50.0862)">
                <path d="M236.88,251.64L237.24,251.64" style="fill:none;fill-rule:nonzero;"/>
            </g>
        </g>
        <g transform="matrix(16.6667,0,0,16.6667,0,0)">
            <g transform="matrix(1,0,0,1,-22.4938,-50.0862)">
                <path d="M236.88,251.928L237.24,251.928C237.399,251.928 237.528,251.799 237.528,251.64C237.528,251.481 237.399,251.352 237.24,251.352L236.88,251.352C236.721,251.352 236.592,251.481 236.592,251.64C236.592,251.799 236.721,251.928 236.88,251.928Z"/>
            </g>
        </g>
        <g transform="matrix(16.6667,0,0,16.6667,0,0)">
            <g transform="matrix(1,0,0,1,-22.4938,-50.0862)">
                <path d="M237.24,252.72L236.52,252.72" style="fill:none;fill-rule:nonzero;"/>
            </g>
        </g>
        <g transform="matrix(16.6667,0,0,16.6667,0,0)">
            <g transform="matrix(1,0,0,1,-22.4938,-50.0862)">
                <path d="M237.24,252.432L236.52,252.432C236.361,252.432 236.232,252.561 236.232,252.72C236.232,252.879 236.361,253.008 236.52,253.008L237.24,253.008C237.399,253.008 237.528,252.879 237.528,252.72C237.528,252.561 237.399,252.432 237.24,252.432Z"/>
            </g>
        </g>
        <g transform="matrix(16.6667,0,0,16.6667,0,0)">
            <g transform="matrix(1,0,0,1,-22.4938,-50.0862)">
                <path d="M237.24,251.64L237.24,252.72" style="fill:none;fill-rule:nonzero;"/>
            </g>
        </g>
        <g transform="matrix(16.6667,0,0,16.6667,0,0)">
            <g transform="matrix(1,0,0,1,-22.4938,-50.0862)">
                <path d="M236.952,251.64L236.952,252.72C236.952,252.879 237.081,253.008 237.24,253.008C237.399,253.008 237.528,252.879 237.528,252.72L237.528,251.64C237.528,251.481 237.399,251.352 237.24,251.352C237.081,251.352 236.952,251.481 236.952,251.64Z"/>
            </g>
        </g>
        <g transform="matrix(16.6667,0,0,16.6667,0,0)">
            <g transform="matrix(1,0,0,1,-22.4938,-50.0862)">
                <path d="M221.4,251.28L219.384,249.768" style="fill:none;fill-rule:nonzero;"/>
            </g>
        </g>
        <g transform="matrix(16.6667,0,0,16.6667,0,0)">
            <g transform="matrix(1,0,0,1,-22.4938,-50.0862)">
                <path d="M221.502,251.144L219.486,249.632C219.411,249.576 219.304,249.591 219.248,249.666C219.192,249.741 219.207,249.848 219.282,249.904L221.298,251.416C221.373,251.472 221.48,251.457 221.536,251.382C221.592,251.307 221.577,251.2 221.502,251.144Z"/>
            </g>
        </g>
        <g transform="matrix(16.6667,0,0,16.6667,0,0)">
            <g transform="matrix(1,0,0,1,-22.4938,-50.0862)">
                <circle cx="233.28" cy="259.56" r="14.4" style="fill-opacity:0;"/>
            </g>
        </g>
        <g transform="matrix(16.6667,0,0,16.6667,0,0)">
            <g transform="matrix(1,0,0,1,-22.4938,-50.0862)">
                <path d="M233.28,244.99C225.239,244.99 218.71,251.519 218.71,259.56C218.71,267.601 225.239,274.13 233.28,274.13C241.321,274.13 247.85,267.601 247.85,259.56C247.85,251.519 241.321,244.99 233.28,244.99ZM233.28,245.33C241.134,245.33 247.51,251.706 247.51,259.56C247.51,267.414 241.134,273.79 233.28,273.79C225.426,273.79 219.05,267.414 219.05,259.56C219.05,251.706 225.426,245.33 233.28,245.33Z"/>
            </g>
        </g>
    </g>
</svg>
