<?xml version="1.0" encoding="UTF-8" standalone="no"?>
<!DOCTYPE svg PUBLIC "-//W3C//DTD SVG 1.1//EN" "http://www.w3.org/Graphics/SVG/1.1/DTD/svg11.dtd">
<svg width="100%" height="100%" viewBox="0 0 486 486" version="1.1" xmlns="http://www.w3.org/2000/svg" xmlns:xlink="http://www.w3.org/1999/xlink" xml:space="preserve" xmlns:serif="http://www.serif.com/" style="fill-rule:evenodd;clip-rule:evenodd;stroke-linejoin:round;stroke-miterlimit:2;">
    <g transform="matrix(1,0,0,1,-3846.27,-3248.4)">
        <g transform="matrix(16.6667,0,0,16.6667,0,0)">
            <g transform="matrix(1,0,0,1,-22.4938,-50.0862)">
                <path d="M255.96,260.28L255.96,259.2" style="fill:none;fill-rule:nonzero;"/>
            </g>
        </g>
        <g transform="matrix(16.6667,0,0,16.6667,0,0)">
            <g transform="matrix(1,0,0,1,-22.4938,-50.0862)">
                <path d="M256.248,260.28L256.248,259.2C256.248,259.041 256.119,258.912 255.96,258.912C255.801,258.912 255.672,259.041 255.672,259.2L255.672,260.28C255.672,260.439 255.801,260.568 255.96,260.568C256.119,260.568 256.248,260.439 256.248,260.28Z"/>
            </g>
        </g>
        <g transform="matrix(16.6667,0,0,16.6667,0,0)">
            <g transform="matrix(1,0,0,1,-22.4938,-50.0862)">
                <path d="M261.36,260.28L261.36,259.92" style="fill:none;fill-rule:nonzero;"/>
            </g>
        </g>
        <g transform="matrix(16.6667,0,0,16.6667,0,0)">
            <g transform="matrix(1,0,0,1,-22.4938,-50.0862)">
                <path d="M261.648,260.28L261.648,259.92C261.648,259.761 261.519,259.632 261.36,259.632C261.201,259.632 261.072,259.761 261.072,259.92L261.072,260.28C261.072,260.439 261.201,260.568 261.36,260.568C261.519,260.568 261.648,260.439 261.648,260.28Z"/>
            </g>
        </g>
        <g transform="matrix(16.6667,0,0,16.6667,0,0)">
            <g transform="matrix(1,0,0,1,-22.4938,-50.0862)">
                <path d="M262.44,261.36L262.44,258.84" style="fill:none;fill-rule:nonzero;"/>
            </g>
        </g>
        <g transform="matrix(16.6667,0,0,16.6667,0,0)">
            <g transform="matrix(1,0,0,1,-22.4938,-50.0862)">
                <path d="M262.728,261.36L262.728,258.84C262.728,258.681 262.599,258.552 262.44,258.552C262.281,258.552 262.152,258.681 262.152,258.84L262.152,261.36C262.152,261.519 262.281,261.648 262.44,261.648C262.599,261.648 262.728,261.519 262.728,261.36Z"/>
            </g>
        </g>
        <g transform="matrix(16.6667,0,0,16.6667,0,0)">
            <g transform="matrix(1,0,0,1,-22.4938,-50.0862)">
                <path d="M272.16,258.12L272.16,261.36" style="fill:none;fill-rule:nonzero;"/>
            </g>
        </g>
        <g transform="matrix(16.6667,0,0,16.6667,0,0)">
            <g transform="matrix(1,0,0,1,-22.4938,-50.0862)">
                <path d="M271.872,258.12L271.872,261.36C271.872,261.519 272.001,261.648 272.16,261.648C272.319,261.648 272.448,261.519 272.448,261.36L272.448,258.12C272.448,257.961 272.319,257.832 272.16,257.832C272.001,257.832 271.872,257.961 271.872,258.12Z"/>
            </g>
        </g>
        <g transform="matrix(16.6667,0,0,16.6667,0,0)">
            <g transform="matrix(1,0,0,1,-22.4938,-50.0862)">
                <path d="M257.04,261.36L257.04,258.12" style="fill:none;fill-rule:nonzero;"/>
            </g>
        </g>
        <g transform="matrix(16.6667,0,0,16.6667,0,0)">
            <g transform="matrix(1,0,0,1,-22.4938,-50.0862)">
                <path d="M257.328,261.36L257.328,258.12C257.328,257.961 257.199,257.832 257.04,257.832C256.881,257.832 256.752,257.961 256.752,258.12L256.752,261.36C256.752,261.519 256.881,261.648 257.04,261.648C257.199,261.648 257.328,261.519 257.328,261.36Z"/>
            </g>
        </g>
        <g transform="matrix(16.6667,0,0,16.6667,0,0)">
            <g transform="matrix(1,0,0,1,-22.4938,-50.0862)">
                <path d="M258.12,255.6L258.12,263.16" style="fill:none;fill-rule:nonzero;"/>
            </g>
        </g>
        <g transform="matrix(16.6667,0,0,16.6667,0,0)">
            <g transform="matrix(1,0,0,1,-22.4938,-50.0862)">
                <path d="M257.832,255.6L257.832,263.16C257.832,263.319 257.961,263.448 258.12,263.448C258.279,263.448 258.408,263.319 258.408,263.16L258.408,255.6C258.408,255.441 258.279,255.312 258.12,255.312C257.961,255.312 257.832,255.441 257.832,255.6Z"/>
            </g>
        </g>
        <g transform="matrix(16.6667,0,0,16.6667,0,0)">
            <g transform="matrix(1,0,0,1,-22.4938,-50.0862)">
                <path d="M260.28,257.04L260.28,261.72" style="fill:none;fill-rule:nonzero;"/>
            </g>
        </g>
        <g transform="matrix(16.6667,0,0,16.6667,0,0)">
            <g transform="matrix(1,0,0,1,-22.4938,-50.0862)">
                <path d="M259.992,257.04L259.992,261.72C259.992,261.879 260.121,262.008 260.28,262.008C260.439,262.008 260.568,261.879 260.568,261.72L260.568,257.04C260.568,256.881 260.439,256.752 260.28,256.752C260.121,256.752 259.992,256.881 259.992,257.04Z"/>
            </g>
        </g>
        <g transform="matrix(16.6667,0,0,16.6667,0,0)">
            <g transform="matrix(1,0,0,1,-22.4938,-50.0862)">
                <path d="M266.76,258.12L266.76,260.64" style="fill:none;fill-rule:nonzero;"/>
            </g>
        </g>
        <g transform="matrix(16.6667,0,0,16.6667,0,0)">
            <g transform="matrix(1,0,0,1,-22.4938,-50.0862)">
                <path d="M266.472,258.12L266.472,260.64C266.472,260.799 266.601,260.928 266.76,260.928C266.919,260.928 267.048,260.799 267.048,260.64L267.048,258.12C267.048,257.961 266.919,257.832 266.76,257.832C266.601,257.832 266.472,257.961 266.472,258.12Z"/>
            </g>
        </g>
        <g transform="matrix(16.6667,0,0,16.6667,0,0)">
            <g transform="matrix(1,0,0,1,-22.4938,-50.0862)">
                <path d="M270,260.64L270,258.48" style="fill:none;fill-rule:nonzero;"/>
            </g>
        </g>
        <g transform="matrix(16.6667,0,0,16.6667,0,0)">
            <g transform="matrix(1,0,0,1,-22.4938,-50.0862)">
                <path d="M270.288,260.64L270.288,258.48C270.288,258.321 270.159,258.192 270,258.192C269.841,258.192 269.712,258.321 269.712,258.48L269.712,260.64C269.712,260.799 269.841,260.928 270,260.928C270.159,260.928 270.288,260.799 270.288,260.64Z"/>
            </g>
        </g>
        <g transform="matrix(16.6667,0,0,16.6667,0,0)">
            <g transform="matrix(1,0,0,1,-22.4938,-50.0862)">
                <path d="M263.52,263.88L263.52,254.88" style="fill:none;fill-rule:nonzero;"/>
            </g>
        </g>
        <g transform="matrix(16.6667,0,0,16.6667,0,0)">
            <g transform="matrix(1,0,0,1,-22.4938,-50.0862)">
                <path d="M263.808,263.88L263.808,254.88C263.808,254.721 263.679,254.592 263.52,254.592C263.361,254.592 263.232,254.721 263.232,254.88L263.232,263.88C263.232,264.039 263.361,264.168 263.52,264.168C263.679,264.168 263.808,264.039 263.808,263.88Z"/>
            </g>
        </g>
        <g transform="matrix(16.6667,0,0,16.6667,0,0)">
            <g transform="matrix(1,0,0,1,-22.4938,-50.0862)">
                <path d="M264.6,262.08L264.6,257.4" style="fill:none;fill-rule:nonzero;"/>
            </g>
        </g>
        <g transform="matrix(16.6667,0,0,16.6667,0,0)">
            <g transform="matrix(1,0,0,1,-22.4938,-50.0862)">
                <path d="M264.888,262.08L264.888,257.4C264.888,257.241 264.759,257.112 264.6,257.112C264.441,257.112 264.312,257.241 264.312,257.4L264.312,262.08C264.312,262.239 264.441,262.368 264.6,262.368C264.759,262.368 264.888,262.239 264.888,262.08Z"/>
            </g>
        </g>
        <g transform="matrix(16.6667,0,0,16.6667,0,0)">
            <g transform="matrix(1,0,0,1,-22.4938,-50.0862)">
                <path d="M267.84,259.2L267.84,259.56" style="fill:none;fill-rule:nonzero;"/>
            </g>
        </g>
        <g transform="matrix(16.6667,0,0,16.6667,0,0)">
            <g transform="matrix(1,0,0,1,-22.4938,-50.0862)">
                <path d="M267.552,259.2L267.552,259.56C267.552,259.719 267.681,259.848 267.84,259.848C267.999,259.848 268.128,259.719 268.128,259.56L268.128,259.2C268.128,259.041 267.999,258.912 267.84,258.912C267.681,258.912 267.552,259.041 267.552,259.2Z"/>
            </g>
        </g>
        <g transform="matrix(16.6667,0,0,16.6667,0,0)">
            <g transform="matrix(1,0,0,1,-22.4938,-50.0862)">
                <path d="M273.24,259.2L273.24,260.28" style="fill:none;fill-rule:nonzero;"/>
            </g>
        </g>
        <g transform="matrix(16.6667,0,0,16.6667,0,0)">
            <g transform="matrix(1,0,0,1,-22.4938,-50.0862)">
                <path d="M272.952,259.2L272.952,260.28C272.952,260.439 273.081,260.568 273.24,260.568C273.399,260.568 273.528,260.439 273.528,260.28L273.528,259.2C273.528,259.041 273.399,258.912 273.24,258.912C273.081,258.912 272.952,259.041 272.952,259.2Z"/>
            </g>
        </g>
        <g transform="matrix(16.6667,0,0,16.6667,0,0)">
            <g transform="matrix(1,0,0,1,-22.4938,-50.0862)">
                <path d="M259.2,258.84L259.2,261" style="fill:none;fill-rule:nonzero;"/>
            </g>
        </g>
        <g transform="matrix(16.6667,0,0,16.6667,0,0)">
            <g transform="matrix(1,0,0,1,-22.4938,-50.0862)">
                <path d="M258.912,258.84L258.912,261C258.912,261.159 259.041,261.288 259.2,261.288C259.359,261.288 259.488,261.159 259.488,261L259.488,258.84C259.488,258.681 259.359,258.552 259.2,258.552C259.041,258.552 258.912,258.681 258.912,258.84Z"/>
            </g>
        </g>
        <g transform="matrix(16.6667,0,0,16.6667,0,0)">
            <g transform="matrix(1,0,0,1,-22.4938,-50.0862)">
                <path d="M271.08,263.88L271.08,256.32" style="fill:none;fill-rule:nonzero;"/>
            </g>
        </g>
        <g transform="matrix(16.6667,0,0,16.6667,0,0)">
            <g transform="matrix(1,0,0,1,-22.4938,-50.0862)">
                <path d="M271.368,263.88L271.368,256.32C271.368,256.161 271.239,256.032 271.08,256.032C270.921,256.032 270.792,256.161 270.792,256.32L270.792,263.88C270.792,264.039 270.921,264.168 271.08,264.168C271.239,264.168 271.368,264.039 271.368,263.88Z"/>
            </g>
        </g>
        <g transform="matrix(16.6667,0,0,16.6667,0,0)">
            <g transform="matrix(1,0,0,1,-22.4938,-50.0862)">
                <path d="M265.68,255.6L265.68,264.6" style="fill:none;fill-rule:nonzero;"/>
            </g>
        </g>
        <g transform="matrix(16.6667,0,0,16.6667,0,0)">
            <g transform="matrix(1,0,0,1,-22.4938,-50.0862)">
                <path d="M265.392,255.6L265.392,264.6C265.392,264.759 265.521,264.888 265.68,264.888C265.839,264.888 265.968,264.759 265.968,264.6L265.968,255.6C265.968,255.441 265.839,255.312 265.68,255.312C265.521,255.312 265.392,255.441 265.392,255.6Z"/>
            </g>
        </g>
        <g transform="matrix(16.6667,0,0,16.6667,0,0)">
            <g transform="matrix(1,0,0,1,-22.4938,-50.0862)">
                <path d="M268.92,262.44L268.92,257.76" style="fill:none;fill-rule:nonzero;"/>
            </g>
        </g>
        <g transform="matrix(16.6667,0,0,16.6667,0,0)">
            <g transform="matrix(1,0,0,1,-22.4938,-50.0862)">
                <path d="M269.208,262.44L269.208,257.76C269.208,257.601 269.079,257.472 268.92,257.472C268.761,257.472 268.632,257.601 268.632,257.76L268.632,262.44C268.632,262.599 268.761,262.728 268.92,262.728C269.079,262.728 269.208,262.599 269.208,262.44Z"/>
            </g>
        </g>
        <g transform="matrix(16.6667,0,0,16.6667,0,0)">
            <g transform="matrix(1,0,0,1,-22.4938,-50.0862)">
                <path d="M264.6,257.4L264.6,262.08" style="fill:none;fill-rule:nonzero;"/>
            </g>
        </g>
        <g transform="matrix(16.6667,0,0,16.6667,0,0)">
            <g transform="matrix(1,0,0,1,-22.4938,-50.0862)">
                <path d="M264.312,257.4L264.312,262.08C264.312,262.239 264.441,262.368 264.6,262.368C264.759,262.368 264.888,262.239 264.888,262.08L264.888,257.4C264.888,257.241 264.759,257.112 264.6,257.112C264.441,257.112 264.312,257.241 264.312,257.4Z"/>
            </g>
        </g>
        <g transform="matrix(16.6667,0,0,16.6667,0,0)">
            <g transform="matrix(1,0,0,1,-22.4938,-50.0862)">
                <circle cx="276.12" cy="257.4" r="1.484" style="fill-opacity:0;"/>
            </g>
        </g>
        <g transform="matrix(16.6667,0,0,16.6667,0,0)">
            <g transform="matrix(1,0,0,1,-22.4938,-50.0862)">
                <path d="M276.12,255.628C275.142,255.628 274.348,256.422 274.348,257.4C274.348,258.378 275.142,259.172 276.12,259.172C277.098,259.172 277.892,258.378 277.892,257.4C277.892,256.422 277.098,255.628 276.12,255.628ZM276.12,256.204C276.78,256.204 277.316,256.74 277.316,257.4C277.316,258.06 276.78,258.596 276.12,258.596C275.46,258.596 274.924,258.06 274.924,257.4C274.924,256.74 275.46,256.204 276.12,256.204Z"/>
            </g>
        </g>
        <g transform="matrix(16.6667,0,0,16.6667,0,0)">
            <g transform="matrix(1,0,0,1,-22.4938,-50.0862)">
                <circle cx="276.12" cy="252.36" r="1.484" style="fill-opacity:0;"/>
            </g>
        </g>
        <g transform="matrix(16.6667,0,0,16.6667,0,0)">
            <g transform="matrix(1,0,0,1,-22.4938,-50.0862)">
                <path d="M276.12,250.588C275.142,250.588 274.348,251.382 274.348,252.36C274.348,253.338 275.142,254.132 276.12,254.132C277.098,254.132 277.892,253.338 277.892,252.36C277.892,251.382 277.098,250.588 276.12,250.588ZM276.12,251.164C276.78,251.164 277.316,251.7 277.316,252.36C277.316,253.02 276.78,253.556 276.12,253.556C275.46,253.556 274.924,253.02 274.924,252.36C274.924,251.7 275.46,251.164 276.12,251.164Z"/>
            </g>
        </g>
        <g transform="matrix(16.6667,0,0,16.6667,0,0)">
            <g transform="matrix(1,0,0,1,-22.4938,-50.0862)">
                <circle cx="276.12" cy="262.44" r="1.484" style="fill-opacity:0;"/>
            </g>
        </g>
        <g transform="matrix(16.6667,0,0,16.6667,0,0)">
            <g transform="matrix(1,0,0,1,-22.4938,-50.0862)">
                <path d="M276.12,260.668C275.142,260.668 274.348,261.462 274.348,262.44C274.348,263.418 275.142,264.212 276.12,264.212C277.098,264.212 277.892,263.418 277.892,262.44C277.892,261.462 277.098,260.668 276.12,260.668ZM276.12,261.244C276.78,261.244 277.316,261.78 277.316,262.44C277.316,263.1 276.78,263.636 276.12,263.636C275.46,263.636 274.924,263.1 274.924,262.44C274.924,261.78 275.46,261.244 276.12,261.244Z"/>
            </g>
        </g>
        <g transform="matrix(16.6667,0,0,16.6667,0,0)">
            <g transform="matrix(1,0,0,1,-22.4938,-50.0862)">
                <circle cx="276.12" cy="267.48" r="1.484" style="fill-opacity:0;"/>
            </g>
        </g>
        <g transform="matrix(16.6667,0,0,16.6667,0,0)">
            <g transform="matrix(1,0,0,1,-22.4938,-50.0862)">
                <path d="M276.12,265.708C275.142,265.708 274.348,266.502 274.348,267.48C274.348,268.458 275.142,269.252 276.12,269.252C277.098,269.252 277.892,268.458 277.892,267.48C277.892,266.502 277.098,265.708 276.12,265.708ZM276.12,266.284C276.78,266.284 277.316,266.82 277.316,267.48C277.316,268.14 276.78,268.676 276.12,268.676C275.46,268.676 274.924,268.14 274.924,267.48C274.924,266.82 275.46,266.284 276.12,266.284Z"/>
            </g>
        </g>
        <g transform="matrix(16.6667,0,0,16.6667,0,0)">
            <g transform="matrix(1,0,0,1,-22.4938,-50.0862)">
                <path d="M255.96,251.28L253.944,249.768" style="fill:none;fill-rule:nonzero;"/>
            </g>
        </g>
        <g transform="matrix(16.6667,0,0,16.6667,0,0)">
            <g transform="matrix(1,0,0,1,-22.4938,-50.0862)">
                <path d="M256.062,251.144L254.046,249.632C253.971,249.576 253.864,249.591 253.808,249.666C253.752,249.741 253.767,249.848 253.842,249.904L255.858,251.416C255.933,251.472 256.04,251.457 256.096,251.382C256.152,251.307 256.137,251.2 256.062,251.144Z"/>
            </g>
        </g>
        <g transform="matrix(16.6667,0,0,16.6667,0,0)">
            <g transform="matrix(1,0,0,1,-22.4938,-50.0862)">
                <circle cx="267.84" cy="259.56" r="14.4" style="fill-opacity:0;"/>
            </g>
        </g>
        <g transform="matrix(16.6667,0,0,16.6667,0,0)">
            <g transform="matrix(1,0,0,1,-22.4938,-50.0862)">
                <path d="M267.84,244.99C259.799,244.99 253.27,251.519 253.27,259.56C253.27,267.601 259.799,274.13 267.84,274.13C275.881,274.13 282.41,267.601 282.41,259.56C282.41,251.519 275.881,244.99 267.84,244.99ZM267.84,245.33C275.694,245.33 282.07,251.706 282.07,259.56C282.07,267.414 275.694,273.79 267.84,273.79C259.986,273.79 253.61,267.414 253.61,259.56C253.61,251.706 259.986,245.33 267.84,245.33Z"/>
            </g>
        </g>
    </g>
</svg>
