<?xml version="1.0" encoding="UTF-8" standalone="no"?>
<!DOCTYPE svg PUBLIC "-//W3C//DTD SVG 1.1//EN" "http://www.w3.org/Graphics/SVG/1.1/DTD/svg11.dtd">
<svg width="100%" height="100%" viewBox="0 0 486 486" version="1.1" xmlns="http://www.w3.org/2000/svg" xmlns:xlink="http://www.w3.org/1999/xlink" xml:space="preserve" xmlns:serif="http://www.serif.com/" style="fill-rule:evenodd;clip-rule:evenodd;stroke-linejoin:round;stroke-miterlimit:2;">
    <g transform="matrix(1,0,0,1,-4422.27,-3248.4)">
        <g transform="matrix(16.6667,0,0,16.6667,0,0)">
            <g transform="matrix(1,0,0,1,-22.4938,-50.0862)">
                <circle cx="300.24" cy="267.48" r="1.484" style="fill-opacity:0;"/>
            </g>
        </g>
        <g transform="matrix(16.6667,0,0,16.6667,0,0)">
            <g transform="matrix(1,0,0,1,-22.4938,-50.0862)">
                <path d="M300.24,265.708C299.262,265.708 298.468,266.502 298.468,267.48C298.468,268.458 299.262,269.252 300.24,269.252C301.218,269.252 302.012,268.458 302.012,267.48C302.012,266.502 301.218,265.708 300.24,265.708ZM300.24,266.284C300.9,266.284 301.436,266.82 301.436,267.48C301.436,268.14 300.9,268.676 300.24,268.676C299.58,268.676 299.044,268.14 299.044,267.48C299.044,266.82 299.58,266.284 300.24,266.284Z"/>
            </g>
        </g>
        <g transform="matrix(16.6667,0,0,16.6667,0,0)">
            <g transform="matrix(1,0,0,1,-22.4938,-50.0862)">
                <circle cx="309.6" cy="267.48" r="1.484" style="fill-opacity:0;"/>
            </g>
        </g>
        <g transform="matrix(16.6667,0,0,16.6667,0,0)">
            <g transform="matrix(1,0,0,1,-22.4938,-50.0862)">
                <path d="M309.6,265.708C308.622,265.708 307.828,266.502 307.828,267.48C307.828,268.458 308.622,269.252 309.6,269.252C310.578,269.252 311.372,268.458 311.372,267.48C311.372,266.502 310.578,265.708 309.6,265.708ZM309.6,266.284C310.26,266.284 310.796,266.82 310.796,267.48C310.796,268.14 310.26,268.676 309.6,268.676C308.94,268.676 308.404,268.14 308.404,267.48C308.404,266.82 308.94,266.284 309.6,266.284Z"/>
            </g>
        </g>
        <g transform="matrix(16.6667,0,0,16.6667,0,0)">
            <g transform="matrix(1,0,0,1,-22.4938,-50.0862)">
                <circle cx="304.92" cy="262.44" r="1.484" style="fill-opacity:0;"/>
            </g>
        </g>
        <g transform="matrix(16.6667,0,0,16.6667,0,0)">
            <g transform="matrix(1,0,0,1,-22.4938,-50.0862)">
                <path d="M304.92,260.668C303.942,260.668 303.148,261.462 303.148,262.44C303.148,263.418 303.942,264.212 304.92,264.212C305.898,264.212 306.692,263.418 306.692,262.44C306.692,261.462 305.898,260.668 304.92,260.668ZM304.92,261.244C305.58,261.244 306.116,261.78 306.116,262.44C306.116,263.1 305.58,263.636 304.92,263.636C304.26,263.636 303.724,263.1 303.724,262.44C303.724,261.78 304.26,261.244 304.92,261.244Z"/>
            </g>
        </g>
        <g transform="matrix(16.6667,0,0,16.6667,0,0)">
            <g transform="matrix(1,0,0,1,-22.4938,-50.0862)">
                <circle cx="295.56" cy="267.48" r="1.484" style="fill-opacity:0;"/>
            </g>
        </g>
        <g transform="matrix(16.6667,0,0,16.6667,0,0)">
            <g transform="matrix(1,0,0,1,-22.4938,-50.0862)">
                <path d="M295.56,265.708C294.582,265.708 293.788,266.502 293.788,267.48C293.788,268.458 294.582,269.252 295.56,269.252C296.538,269.252 297.332,268.458 297.332,267.48C297.332,266.502 296.538,265.708 295.56,265.708ZM295.56,266.284C296.22,266.284 296.756,266.82 296.756,267.48C296.756,268.14 296.22,268.676 295.56,268.676C294.9,268.676 294.364,268.14 294.364,267.48C294.364,266.82 294.9,266.284 295.56,266.284Z"/>
            </g>
        </g>
        <g transform="matrix(16.6667,0,0,16.6667,0,0)">
            <g transform="matrix(1,0,0,1,-22.4938,-50.0862)">
                <circle cx="300.24" cy="262.44" r="1.484" style="fill-opacity:0;"/>
            </g>
        </g>
        <g transform="matrix(16.6667,0,0,16.6667,0,0)">
            <g transform="matrix(1,0,0,1,-22.4938,-50.0862)">
                <path d="M300.24,260.668C299.262,260.668 298.468,261.462 298.468,262.44C298.468,263.418 299.262,264.212 300.24,264.212C301.218,264.212 302.012,263.418 302.012,262.44C302.012,261.462 301.218,260.668 300.24,260.668ZM300.24,261.244C300.9,261.244 301.436,261.78 301.436,262.44C301.436,263.1 300.9,263.636 300.24,263.636C299.58,263.636 299.044,263.1 299.044,262.44C299.044,261.78 299.58,261.244 300.24,261.244Z"/>
            </g>
        </g>
        <g transform="matrix(16.6667,0,0,16.6667,0,0)">
            <g transform="matrix(1,0,0,1,-22.4938,-50.0862)">
                <circle cx="304.92" cy="267.48" r="1.484" style="fill-opacity:0;"/>
            </g>
        </g>
        <g transform="matrix(16.6667,0,0,16.6667,0,0)">
            <g transform="matrix(1,0,0,1,-22.4938,-50.0862)">
                <path d="M304.92,265.708C303.942,265.708 303.148,266.502 303.148,267.48C303.148,268.458 303.942,269.252 304.92,269.252C305.898,269.252 306.692,268.458 306.692,267.48C306.692,266.502 305.898,265.708 304.92,265.708ZM304.92,266.284C305.58,266.284 306.116,266.82 306.116,267.48C306.116,268.14 305.58,268.676 304.92,268.676C304.26,268.676 303.724,268.14 303.724,267.48C303.724,266.82 304.26,266.284 304.92,266.284Z"/>
            </g>
        </g>
        <g transform="matrix(16.6667,0,0,16.6667,0,0)">
            <g transform="matrix(1,0,0,1,-22.4938,-50.0862)">
                <circle cx="309.6" cy="262.44" r="1.484" style="fill-opacity:0;"/>
            </g>
        </g>
        <g transform="matrix(16.6667,0,0,16.6667,0,0)">
            <g transform="matrix(1,0,0,1,-22.4938,-50.0862)">
                <path d="M309.6,260.668C308.622,260.668 307.828,261.462 307.828,262.44C307.828,263.418 308.622,264.212 309.6,264.212C310.578,264.212 311.372,263.418 311.372,262.44C311.372,261.462 310.578,260.668 309.6,260.668ZM309.6,261.244C310.26,261.244 310.796,261.78 310.796,262.44C310.796,263.1 310.26,263.636 309.6,263.636C308.94,263.636 308.404,263.1 308.404,262.44C308.404,261.78 308.94,261.244 309.6,261.244Z"/>
            </g>
        </g>
        <g transform="matrix(16.6667,0,0,16.6667,0,0)">
            <g transform="matrix(1,0,0,1,-22.4938,-50.0862)">
                <circle cx="295.56" cy="262.44" r="1.484" style="fill-opacity:0;"/>
            </g>
        </g>
        <g transform="matrix(16.6667,0,0,16.6667,0,0)">
            <g transform="matrix(1,0,0,1,-22.4938,-50.0862)">
                <path d="M295.56,260.668C294.582,260.668 293.788,261.462 293.788,262.44C293.788,263.418 294.582,264.212 295.56,264.212C296.538,264.212 297.332,263.418 297.332,262.44C297.332,261.462 296.538,260.668 295.56,260.668ZM295.56,261.244C296.22,261.244 296.756,261.78 296.756,262.44C296.756,263.1 296.22,263.636 295.56,263.636C294.9,263.636 294.364,263.1 294.364,262.44C294.364,261.78 294.9,261.244 295.56,261.244Z"/>
            </g>
        </g>
        <g transform="matrix(16.6667,0,0,16.6667,0,0)">
            <g transform="matrix(1,0,0,1,-22.4938,-50.0862)">
                <circle cx="304.92" cy="257.4" r="1.484" style="fill-opacity:0;"/>
            </g>
        </g>
        <g transform="matrix(16.6667,0,0,16.6667,0,0)">
            <g transform="matrix(1,0,0,1,-22.4938,-50.0862)">
                <path d="M304.92,255.628C303.942,255.628 303.148,256.422 303.148,257.4C303.148,258.378 303.942,259.172 304.92,259.172C305.898,259.172 306.692,258.378 306.692,257.4C306.692,256.422 305.898,255.628 304.92,255.628ZM304.92,256.204C305.58,256.204 306.116,256.74 306.116,257.4C306.116,258.06 305.58,258.596 304.92,258.596C304.26,258.596 303.724,258.06 303.724,257.4C303.724,256.74 304.26,256.204 304.92,256.204Z"/>
            </g>
        </g>
        <g transform="matrix(16.6667,0,0,16.6667,0,0)">
            <g transform="matrix(1,0,0,1,-22.4938,-50.0862)">
                <circle cx="300.24" cy="257.4" r="1.484" style="fill-opacity:0;"/>
            </g>
        </g>
        <g transform="matrix(16.6667,0,0,16.6667,0,0)">
            <g transform="matrix(1,0,0,1,-22.4938,-50.0862)">
                <path d="M300.24,255.628C299.262,255.628 298.468,256.422 298.468,257.4C298.468,258.378 299.262,259.172 300.24,259.172C301.218,259.172 302.012,258.378 302.012,257.4C302.012,256.422 301.218,255.628 300.24,255.628ZM300.24,256.204C300.9,256.204 301.436,256.74 301.436,257.4C301.436,258.06 300.9,258.596 300.24,258.596C299.58,258.596 299.044,258.06 299.044,257.4C299.044,256.74 299.58,256.204 300.24,256.204Z"/>
            </g>
        </g>
        <g transform="matrix(16.6667,0,0,16.6667,0,0)">
            <g transform="matrix(1,0,0,1,-22.4938,-50.0862)">
                <circle cx="309.6" cy="257.4" r="1.484" style="fill-opacity:0;"/>
            </g>
        </g>
        <g transform="matrix(16.6667,0,0,16.6667,0,0)">
            <g transform="matrix(1,0,0,1,-22.4938,-50.0862)">
                <path d="M309.6,255.628C308.622,255.628 307.828,256.422 307.828,257.4C307.828,258.378 308.622,259.172 309.6,259.172C310.578,259.172 311.372,258.378 311.372,257.4C311.372,256.422 310.578,255.628 309.6,255.628ZM309.6,256.204C310.26,256.204 310.796,256.74 310.796,257.4C310.796,258.06 310.26,258.596 309.6,258.596C308.94,258.596 308.404,258.06 308.404,257.4C308.404,256.74 308.94,256.204 309.6,256.204Z"/>
            </g>
        </g>
        <g transform="matrix(16.6667,0,0,16.6667,0,0)">
            <g transform="matrix(1,0,0,1,-22.4938,-50.0862)">
                <circle cx="295.56" cy="257.4" r="1.484" style="fill-opacity:0;"/>
            </g>
        </g>
        <g transform="matrix(16.6667,0,0,16.6667,0,0)">
            <g transform="matrix(1,0,0,1,-22.4938,-50.0862)">
                <path d="M295.56,255.628C294.582,255.628 293.788,256.422 293.788,257.4C293.788,258.378 294.582,259.172 295.56,259.172C296.538,259.172 297.332,258.378 297.332,257.4C297.332,256.422 296.538,255.628 295.56,255.628ZM295.56,256.204C296.22,256.204 296.756,256.74 296.756,257.4C296.756,258.06 296.22,258.596 295.56,258.596C294.9,258.596 294.364,258.06 294.364,257.4C294.364,256.74 294.9,256.204 295.56,256.204Z"/>
            </g>
        </g>
        <g transform="matrix(16.6667,0,0,16.6667,0,0)">
            <g transform="matrix(1,0,0,1,-22.4938,-50.0862)">
                <circle cx="295.56" cy="252.36" r="1.484" style="fill-opacity:0;"/>
            </g>
        </g>
        <g transform="matrix(16.6667,0,0,16.6667,0,0)">
            <g transform="matrix(1,0,0,1,-22.4938,-50.0862)">
                <path d="M295.56,250.588C294.582,250.588 293.788,251.382 293.788,252.36C293.788,253.338 294.582,254.132 295.56,254.132C296.538,254.132 297.332,253.338 297.332,252.36C297.332,251.382 296.538,250.588 295.56,250.588ZM295.56,251.164C296.22,251.164 296.756,251.7 296.756,252.36C296.756,253.02 296.22,253.556 295.56,253.556C294.9,253.556 294.364,253.02 294.364,252.36C294.364,251.7 294.9,251.164 295.56,251.164Z"/>
            </g>
        </g>
        <g transform="matrix(16.6667,0,0,16.6667,0,0)">
            <g transform="matrix(1,0,0,1,-22.4938,-50.0862)">
                <circle cx="300.24" cy="252.36" r="1.484" style="fill-opacity:0;"/>
            </g>
        </g>
        <g transform="matrix(16.6667,0,0,16.6667,0,0)">
            <g transform="matrix(1,0,0,1,-22.4938,-50.0862)">
                <path d="M300.24,250.588C299.262,250.588 298.468,251.382 298.468,252.36C298.468,253.338 299.262,254.132 300.24,254.132C301.218,254.132 302.012,253.338 302.012,252.36C302.012,251.382 301.218,250.588 300.24,250.588ZM300.24,251.164C300.9,251.164 301.436,251.7 301.436,252.36C301.436,253.02 300.9,253.556 300.24,253.556C299.58,253.556 299.044,253.02 299.044,252.36C299.044,251.7 299.58,251.164 300.24,251.164Z"/>
            </g>
        </g>
        <g transform="matrix(16.6667,0,0,16.6667,0,0)">
            <g transform="matrix(1,0,0,1,-22.4938,-50.0862)">
                <circle cx="304.92" cy="252.36" r="1.484" style="fill-opacity:0;"/>
            </g>
        </g>
        <g transform="matrix(16.6667,0,0,16.6667,0,0)">
            <g transform="matrix(1,0,0,1,-22.4938,-50.0862)">
                <path d="M304.92,250.588C303.942,250.588 303.148,251.382 303.148,252.36C303.148,253.338 303.942,254.132 304.92,254.132C305.898,254.132 306.692,253.338 306.692,252.36C306.692,251.382 305.898,250.588 304.92,250.588ZM304.92,251.164C305.58,251.164 306.116,251.7 306.116,252.36C306.116,253.02 305.58,253.556 304.92,253.556C304.26,253.556 303.724,253.02 303.724,252.36C303.724,251.7 304.26,251.164 304.92,251.164Z"/>
            </g>
        </g>
        <g transform="matrix(16.6667,0,0,16.6667,0,0)">
            <g transform="matrix(1,0,0,1,-22.4938,-50.0862)">
                <circle cx="309.6" cy="252.36" r="1.484" style="fill-opacity:0;"/>
            </g>
        </g>
        <g transform="matrix(16.6667,0,0,16.6667,0,0)">
            <g transform="matrix(1,0,0,1,-22.4938,-50.0862)">
                <path d="M309.6,250.588C308.622,250.588 307.828,251.382 307.828,252.36C307.828,253.338 308.622,254.132 309.6,254.132C310.578,254.132 311.372,253.338 311.372,252.36C311.372,251.382 310.578,250.588 309.6,250.588ZM309.6,251.164C310.26,251.164 310.796,251.7 310.796,252.36C310.796,253.02 310.26,253.556 309.6,253.556C308.94,253.556 308.404,253.02 308.404,252.36C308.404,251.7 308.94,251.164 309.6,251.164Z"/>
            </g>
        </g>
        <g transform="matrix(16.6667,0,0,16.6667,0,0)">
            <g transform="matrix(1,0,0,1,-22.4938,-50.0862)">
                <path d="M290.52,251.28L288.504,249.768" style="fill:none;fill-rule:nonzero;"/>
            </g>
        </g>
        <g transform="matrix(16.6667,0,0,16.6667,0,0)">
            <g transform="matrix(1,0,0,1,-22.4938,-50.0862)">
                <path d="M290.622,251.144L288.606,249.632C288.531,249.576 288.424,249.591 288.368,249.666C288.312,249.741 288.327,249.848 288.402,249.904L290.418,251.416C290.493,251.472 290.6,251.457 290.656,251.382C290.712,251.307 290.697,251.2 290.622,251.144Z"/>
            </g>
        </g>
        <g transform="matrix(16.6667,0,0,16.6667,0,0)">
            <g transform="matrix(1,0,0,1,-22.4938,-50.0862)">
                <circle cx="302.4" cy="259.56" r="14.4" style="fill-opacity:0;"/>
            </g>
        </g>
        <g transform="matrix(16.6667,0,0,16.6667,0,0)">
            <g transform="matrix(1,0,0,1,-22.4938,-50.0862)">
                <path d="M302.4,244.99C294.359,244.99 287.83,251.519 287.83,259.56C287.83,267.601 294.359,274.13 302.4,274.13C310.441,274.13 316.97,267.601 316.97,259.56C316.97,251.519 310.441,244.99 302.4,244.99ZM302.4,245.33C310.254,245.33 316.63,251.706 316.63,259.56C316.63,267.414 310.254,273.79 302.4,273.79C294.546,273.79 288.17,267.414 288.17,259.56C288.17,251.706 294.546,245.33 302.4,245.33Z"/>
            </g>
        </g>
    </g>
</svg>
