<?xml version="1.0" encoding="UTF-8" standalone="no"?>
<!DOCTYPE svg PUBLIC "-//W3C//DTD SVG 1.1//EN" "http://www.w3.org/Graphics/SVG/1.1/DTD/svg11.dtd">
<svg width="100%" height="100%" viewBox="0 0 498 486" version="1.1" xmlns="http://www.w3.org/2000/svg" xmlns:xlink="http://www.w3.org/1999/xlink" xml:space="preserve" xmlns:serif="http://www.serif.com/" style="fill-rule:evenodd;clip-rule:evenodd;stroke-linejoin:round;stroke-miterlimit:2;">
    <g transform="matrix(1,0,0,1,-4983.27,-3248.4)">
        <g transform="matrix(16.6667,0,0,16.6667,0,0)">
            <g transform="matrix(1,0,0,1,-22.4938,-50.0862)">
                <path d="M338.76,254.52L341.64,251.64" style="fill:none;fill-rule:nonzero;"/>
            </g>
        </g>
        <g transform="matrix(16.6667,0,0,16.6667,0,0)">
            <g transform="matrix(1,0,0,1,-22.4938,-50.0862)">
                <path d="M338.964,254.724L341.844,251.844C341.956,251.731 341.956,251.549 341.844,251.436C341.731,251.324 341.549,251.324 341.436,251.436L338.556,254.316C338.444,254.429 338.444,254.611 338.556,254.724C338.669,254.836 338.851,254.836 338.964,254.724Z"/>
            </g>
        </g>
        <g transform="matrix(16.6667,0,0,16.6667,0,0)">
            <g transform="matrix(1,0,0,1,313.444,208.106)">
                <path d="M-1.499,0L-1.499,-4.123L0.048,-4.123C0.363,-4.123 0.615,-4.081 0.806,-3.998C0.996,-3.915 1.145,-3.786 1.253,-3.613C1.361,-3.439 1.415,-3.258 1.415,-3.068C1.415,-2.892 1.367,-2.726 1.271,-2.571C1.176,-2.415 1.031,-2.289 0.838,-2.194C1.088,-2.121 1.279,-1.996 1.413,-1.82C1.547,-1.643 1.614,-1.435 1.614,-1.195C1.614,-1.002 1.574,-0.823 1.492,-0.657C1.41,-0.491 1.31,-0.363 1.19,-0.273C1.07,-0.183 0.919,-0.115 0.738,-0.069C0.557,-0.023 0.336,0 0.073,0L-1.499,0ZM-0.953,-2.391L-0.062,-2.391C0.18,-2.391 0.353,-2.407 0.458,-2.438C0.597,-2.48 0.702,-2.548 0.772,-2.644C0.842,-2.739 0.878,-2.859 0.878,-3.004C0.878,-3.141 0.845,-3.261 0.779,-3.365C0.713,-3.469 0.62,-3.54 0.498,-3.579C0.376,-3.617 0.167,-3.637 -0.129,-3.637L-0.953,-3.637L-0.953,-2.391ZM-0.953,-0.487L0.073,-0.487C0.249,-0.487 0.373,-0.493 0.444,-0.506C0.57,-0.529 0.675,-0.566 0.759,-0.619C0.844,-0.671 0.913,-0.748 0.968,-0.848C1.022,-0.948 1.049,-1.064 1.049,-1.195C1.049,-1.349 1.01,-1.483 0.931,-1.596C0.852,-1.71 0.743,-1.789 0.603,-1.835C0.464,-1.881 0.263,-1.904 0,-1.904L-0.953,-1.904L-0.953,-0.487Z" style="fill-opacity:0;fill-rule:nonzero;"/>
            </g>
        </g>
        <g transform="matrix(16.6667,0,0,16.6667,0,0)">
            <g transform="matrix(1,0,0,1,313.444,208.106)">
                <path d="M1.386,-2.246C1.485,-2.173 1.57,-2.089 1.643,-1.994C1.814,-1.768 1.902,-1.503 1.902,-1.195C1.902,-0.957 1.851,-0.735 1.75,-0.53C1.647,-0.318 1.515,-0.157 1.362,-0.042C1.215,0.068 1.031,0.154 0.809,0.21C0.609,0.261 0.364,0.288 0.073,0.288L-1.499,0.288C-1.658,0.288 -1.787,0.159 -1.787,0L-1.787,-4.123C-1.787,-4.282 -1.658,-4.411 -1.499,-4.411C-1.499,-4.411 0.048,-4.411 0.048,-4.411C0.411,-4.411 0.702,-4.358 0.921,-4.262C1.167,-4.154 1.359,-3.988 1.498,-3.765C1.635,-3.543 1.703,-3.311 1.703,-3.068C1.703,-2.839 1.641,-2.623 1.517,-2.42C1.479,-2.358 1.435,-2.3 1.386,-2.246ZM-1.211,-0.358L-1.211,-0.288L-1.162,-0.288C-1.182,-0.309 -1.198,-0.332 -1.211,-0.358ZM-0.665,-0.775L0.073,-0.775C0.225,-0.775 0.331,-0.778 0.394,-0.79C0.478,-0.805 0.55,-0.828 0.607,-0.863C0.651,-0.891 0.686,-0.933 0.714,-0.985C0.747,-1.046 0.761,-1.116 0.761,-1.195C0.761,-1.286 0.741,-1.365 0.694,-1.432C0.651,-1.494 0.59,-1.536 0.513,-1.562C0.395,-1.601 0.223,-1.616 -0,-1.616L-0.665,-1.616L-0.665,-0.775ZM-1.211,-2.262L-1.211,-2.033C-1.188,-2.08 -1.152,-2.119 -1.107,-2.147C-1.152,-2.175 -1.188,-2.215 -1.211,-2.262ZM0.552,-2.166L0.542,-2.163C0.532,-2.16 0.521,-2.157 0.509,-2.154L0.522,-2.151L0.554,-2.145L0.554,-2.147L0.552,-2.166ZM-0.665,-2.679L-0.062,-2.679C0.141,-2.679 0.287,-2.687 0.376,-2.714C0.447,-2.736 0.504,-2.765 0.54,-2.814C0.577,-2.864 0.589,-2.928 0.589,-3.004C0.589,-3.082 0.573,-3.152 0.535,-3.212C0.507,-3.257 0.465,-3.287 0.411,-3.304C0.306,-3.337 0.126,-3.349 -0.129,-3.349L-0.665,-3.349L-0.665,-2.679ZM-1.211,-3.765C-1.198,-3.791 -1.182,-3.815 -1.162,-3.835L-1.211,-3.835L-1.211,-3.765Z"/>
            </g>
        </g>
        <g transform="matrix(16.6667,0,0,16.6667,0,0)">
            <g transform="matrix(1,0,0,1,-22.4938,-50.0862)">
                <path d="M336.24,255.722L336.859,255.924L337.068,256.133L337.27,256.543L337.27,257.162L337.068,257.573L336.859,257.774L336.449,257.983L334.8,257.983L334.8,253.663L336.24,253.663L336.658,253.872L336.859,254.074L337.068,254.484L337.068,254.894L336.859,255.312L336.658,255.514L336.24,255.722L334.8,255.722" style="fill-opacity:0;fill-rule:nonzero;"/>
            </g>
        </g>
        <g transform="matrix(16.6667,0,0,16.6667,0,0)">
            <g transform="matrix(1,0,0,1,-22.4938,-50.0862)">
                <path d="M336.933,255.645L336.948,255.65C336.992,255.664 337.031,255.688 337.063,255.72L337.272,255.929C337.294,255.952 337.313,255.977 337.326,256.006L337.528,256.416C337.548,256.456 337.558,256.499 337.558,256.543L337.558,257.162C337.558,257.206 337.548,257.25 337.528,257.289L337.326,257.7C337.312,257.73 337.292,257.757 337.268,257.78L337.059,257.982C337.039,258.001 337.015,258.018 336.99,258.031L336.579,258.24C336.539,258.26 336.494,258.271 336.449,258.271L334.8,258.271C334.641,258.271 334.512,258.142 334.512,257.983L334.512,253.663C334.512,253.504 334.641,253.375 334.8,253.375L336.24,253.375C336.285,253.375 336.329,253.386 336.369,253.406L336.786,253.614C336.814,253.628 336.839,253.646 336.861,253.668L337.063,253.87C337.084,253.891 337.102,253.916 337.116,253.943L337.325,254.353C337.345,254.394 337.356,254.439 337.356,254.484L337.356,254.894C337.356,254.939 337.346,254.983 337.326,255.023L337.117,255.441C337.103,255.468 337.085,255.494 337.063,255.516L336.933,255.645ZM335.088,256.01L335.088,257.695L336.38,257.695L336.69,257.537L336.832,257.401L336.982,257.095L336.982,256.61L336.831,256.303L336.704,256.176L336.194,256.01L335.088,256.01ZM335.088,253.951L335.088,255.434L336.172,255.434L336.487,255.277L336.623,255.141L336.78,254.826L336.78,254.553L336.623,254.245L336.487,254.109L336.172,253.951L335.088,253.951Z"/>
            </g>
        </g>
        <g transform="matrix(16.6667,0,0,16.6667,0,0)">
            <g transform="matrix(1,0,0,1,-22.4938,-50.0862)">
                <path d="M336.24,273.24L325.44,260.64" style="fill:none;fill-rule:nonzero;"/>
            </g>
        </g>
        <g transform="matrix(16.6667,0,0,16.6667,0,0)">
            <g transform="matrix(1,0,0,1,-22.4938,-50.0862)">
                <path d="M336.459,273.053L325.659,260.453C325.555,260.332 325.373,260.318 325.253,260.421C325.132,260.525 325.118,260.707 325.221,260.827L336.021,273.427C336.125,273.548 336.307,273.562 336.427,273.459C336.548,273.355 336.562,273.173 336.459,273.053Z"/>
            </g>
        </g>
        <g transform="matrix(16.6667,0,0,16.6667,0,0)">
            <g transform="matrix(1,0,0,1,-22.4938,-50.0862)">
                <path d="M325.44,260.64L322.56,263.52" style="fill:none;fill-rule:nonzero;"/>
            </g>
        </g>
        <g transform="matrix(16.6667,0,0,16.6667,0,0)">
            <g transform="matrix(1,0,0,1,-22.4938,-50.0862)">
                <path d="M325.236,260.436L322.356,263.316C322.244,263.429 322.244,263.611 322.356,263.724C322.469,263.836 322.651,263.836 322.764,263.724L325.644,260.844C325.756,260.731 325.756,260.549 325.644,260.436C325.531,260.324 325.349,260.324 325.236,260.436Z"/>
            </g>
        </g>
        <g transform="matrix(16.6667,0,0,16.6667,0,0)">
            <g transform="matrix(1,0,0,1,-22.4938,-50.0862)">
                <path d="M345.96,260.64L349.2,263.88" style="fill:none;fill-rule:nonzero;"/>
            </g>
        </g>
        <g transform="matrix(16.6667,0,0,16.6667,0,0)">
            <g transform="matrix(1,0,0,1,-22.4938,-50.0862)">
                <path d="M345.756,260.844L348.996,264.084C349.109,264.196 349.291,264.196 349.404,264.084C349.516,263.971 349.516,263.789 349.404,263.676L346.164,260.436C346.051,260.324 345.869,260.324 345.756,260.436C345.644,260.549 345.644,260.731 345.756,260.844Z"/>
            </g>
        </g>
        <g transform="matrix(16.6667,0,0,16.6667,0,0)">
            <g transform="matrix(1,0,0,1,-22.4938,-50.0862)">
                <path d="M336.24,273.24L345.96,260.64" style="fill:none;fill-rule:nonzero;"/>
            </g>
        </g>
        <g transform="matrix(16.6667,0,0,16.6667,0,0)">
            <g transform="matrix(1,0,0,1,-22.4938,-50.0862)">
                <path d="M336.468,273.416L346.188,260.816C346.285,260.69 346.262,260.509 346.136,260.412C346.01,260.315 345.829,260.338 345.732,260.464L336.012,273.064C335.915,273.19 335.938,273.371 336.064,273.468C336.19,273.565 336.371,273.542 336.468,273.416Z"/>
            </g>
        </g>
        <g transform="matrix(16.6667,0,0,16.6667,0,0)">
            <g transform="matrix(1,0,0,1,-22.4938,-50.0862)">
                <circle cx="335.909" cy="256.046" r="7.2" style="fill-opacity:0;"/>
            </g>
        </g>
        <g transform="matrix(16.6667,0,0,16.6667,0,0)">
            <g transform="matrix(1,0,0,1,-22.4938,-50.0862)">
                <path d="M335.909,248.558C331.776,248.558 328.421,251.914 328.421,256.046C328.421,260.179 331.776,263.534 335.909,263.534C340.042,263.534 343.397,260.179 343.397,256.046C343.397,251.914 340.042,248.558 335.909,248.558ZM335.909,249.134C339.724,249.134 342.821,252.232 342.821,256.046C342.821,259.861 339.724,262.958 335.909,262.958C332.094,262.958 328.997,259.861 328.997,256.046C328.997,252.232 332.094,249.134 335.909,249.134Z"/>
            </g>
        </g>
        <g transform="matrix(16.6667,0,0,16.6667,0,0)">
            <g transform="matrix(1,0,0,1,-22.4938,-50.0862)">
                <circle cx="336.96" cy="259.56" r="14.4" style="fill-opacity:0;"/>
            </g>
        </g>
        <g transform="matrix(16.6667,0,0,16.6667,0,0)">
            <g transform="matrix(1,0,0,1,-23.3938,-50.0862)">
                <path d="M336.96,244.99C328.919,244.99 322.39,251.519 322.39,259.56C322.39,267.601 328.919,274.13 336.96,274.13C345.001,274.13 351.53,267.601 351.53,259.56C351.53,251.519 345.001,244.99 336.96,244.99ZM336.96,245.33C344.814,245.33 351.19,251.706 351.19,259.56C351.19,267.414 344.814,273.79 336.96,273.79C329.106,273.79 322.73,267.414 322.73,259.56C322.73,251.706 329.106,245.33 336.96,245.33Z"/>
            </g>
        </g>
        <g transform="matrix(16.6667,0,0,16.6667,0,0)">
            <g transform="matrix(1,0,0,1,-22.4938,-50.0862)">
                <path d="M325.08,251.28L323.064,249.768" style="fill:none;fill-rule:nonzero;"/>
            </g>
        </g>
        <g transform="matrix(16.6667,0,0,16.6667,0,0)">
            <g transform="matrix(1,0,0,1,-23.3938,-50.0862)">
                <path d="M325.182,251.144L323.166,249.632C323.091,249.576 322.984,249.591 322.928,249.666C322.872,249.741 322.887,249.848 322.962,249.904L324.978,251.416C325.053,251.472 325.16,251.457 325.216,251.382C325.272,251.307 325.257,251.2 325.182,251.144Z"/>
            </g>
        </g>
    </g>
</svg>
