<?xml version="1.0" encoding="UTF-8" standalone="no"?>
<!DOCTYPE svg PUBLIC "-//W3C//DTD SVG 1.1//EN" "http://www.w3.org/Graphics/SVG/1.1/DTD/svg11.dtd">
<svg width="100%" height="100%" viewBox="0 0 486 486" version="1.1" xmlns="http://www.w3.org/2000/svg" xmlns:xlink="http://www.w3.org/1999/xlink" xml:space="preserve" xmlns:serif="http://www.serif.com/" style="fill-rule:evenodd;clip-rule:evenodd;stroke-linejoin:round;stroke-miterlimit:2;">
    <g transform="matrix(1,0,0,1,-1542.27,-3788.4)">
        <g transform="matrix(16.6667,0,0,16.6667,0,0)">
            <g transform="matrix(1,0,0,1,-22.4938,-50.0862)">
                <path d="M129.6,305.64L118.8,293.04" style="fill:none;fill-rule:nonzero;"/>
            </g>
        </g>
        <g transform="matrix(16.6667,0,0,16.6667,0,0)">
            <g transform="matrix(1,0,0,1,-22.4938,-50.0862)">
                <path d="M129.819,305.453L119.019,292.853C118.915,292.732 118.733,292.718 118.613,292.821C118.492,292.925 118.478,293.107 118.581,293.227L129.381,305.827C129.485,305.948 129.667,305.962 129.787,305.859C129.908,305.755 129.922,305.573 129.819,305.453Z"/>
            </g>
        </g>
        <g transform="matrix(16.6667,0,0,16.6667,0,0)">
            <g transform="matrix(1,0,0,1,-22.4938,-50.0862)">
                <path d="M133.56,285.48L135,284.04" style="fill:none;fill-rule:nonzero;"/>
            </g>
        </g>
        <g transform="matrix(16.6667,0,0,16.6667,0,0)">
            <g transform="matrix(1,0,0,1,-22.4938,-50.0862)">
                <path d="M133.764,285.684L135.204,284.244C135.316,284.131 135.316,283.949 135.204,283.836C135.091,283.724 134.909,283.724 134.796,283.836L133.356,285.276C133.244,285.389 133.244,285.571 133.356,285.684C133.469,285.796 133.651,285.796 133.764,285.684Z"/>
            </g>
        </g>
        <g transform="matrix(16.6667,0,0,16.6667,0,0)">
            <g transform="matrix(1,0,0,1,-22.4938,-50.0862)">
                <path d="M139.32,293.04L142.56,296.28" style="fill:none;fill-rule:nonzero;"/>
            </g>
        </g>
        <g transform="matrix(16.6667,0,0,16.6667,0,0)">
            <g transform="matrix(1,0,0,1,-22.4938,-50.0862)">
                <path d="M139.116,293.244L142.356,296.484C142.469,296.596 142.651,296.596 142.764,296.484C142.876,296.371 142.876,296.189 142.764,296.076L139.524,292.836C139.411,292.724 139.229,292.724 139.116,292.836C139.004,292.949 139.004,293.131 139.116,293.244Z"/>
            </g>
        </g>
        <g transform="matrix(16.6667,0,0,16.6667,0,0)">
            <g transform="matrix(1,0,0,1,-22.4938,-50.0862)">
                <path d="M118.8,293.04L115.92,295.92" style="fill:none;fill-rule:nonzero;"/>
            </g>
        </g>
        <g transform="matrix(16.6667,0,0,16.6667,0,0)">
            <g transform="matrix(1,0,0,1,-22.4938,-50.0862)">
                <path d="M118.596,292.836L115.716,295.716C115.604,295.829 115.604,296.011 115.716,296.124C115.829,296.236 116.011,296.236 116.124,296.124L119.004,293.244C119.116,293.131 119.116,292.949 119.004,292.836C118.891,292.724 118.709,292.724 118.596,292.836Z"/>
            </g>
        </g>
        <g transform="matrix(16.6667,0,0,16.6667,0,0)">
            <g transform="matrix(1,0,0,1,-22.4938,-50.0862)">
                <circle cx="129.269" cy="288.446" r="7.2" style="fill-opacity:0;"/>
            </g>
        </g>
        <g transform="matrix(16.6667,0,0,16.6667,0,0)">
            <g transform="matrix(1,0,0,1,-22.4938,-50.0862)">
                <path d="M129.269,280.958C125.136,280.958 121.781,284.314 121.781,288.446C121.781,292.579 125.136,295.934 129.269,295.934C133.402,295.934 136.757,292.579 136.757,288.446C136.757,284.314 133.402,280.958 129.269,280.958ZM129.269,281.534C133.084,281.534 136.181,284.632 136.181,288.446C136.181,292.261 133.084,295.358 129.269,295.358C125.454,295.358 122.357,292.261 122.357,288.446C122.357,284.632 125.454,281.534 129.269,281.534Z"/>
            </g>
        </g>
        <g transform="matrix(16.6667,0,0,16.6667,0,0)">
            <g transform="matrix(1,0,0,1,-22.4938,-50.0862)">
                <path d="M129.6,305.64L139.32,293.04" style="fill:none;fill-rule:nonzero;"/>
            </g>
        </g>
        <g transform="matrix(16.6667,0,0,16.6667,0,0)">
            <g transform="matrix(1,0,0,1,-22.4938,-50.0862)">
                <path d="M129.828,305.816L139.548,293.216C139.645,293.09 139.622,292.909 139.496,292.812C139.37,292.715 139.189,292.738 139.092,292.864L129.372,305.464C129.275,305.59 129.298,305.771 129.424,305.868C129.55,305.965 129.731,305.942 129.828,305.816Z"/>
            </g>
        </g>
        <g transform="matrix(16.6667,0,0,16.6667,0,0)">
            <g transform="matrix(1,0,0,1,106.804,240.506)">
                <path d="M-3.85,0L-2.267,-4.123L-1.679,-4.123L0.008,0L-0.613,0L-1.094,-1.249L-2.818,-1.249L-3.271,0L-3.85,0ZM-2.661,-1.693L-1.263,-1.693L-1.693,-2.835C-1.824,-3.182 -1.922,-3.467 -1.986,-3.69C-2.038,-3.426 -2.112,-3.163 -2.208,-2.903L-2.661,-1.693Z" style="fill-opacity:0;fill-rule:nonzero;"/>
                <path d="M0.422,0L0.422,-4.123L1.969,-4.123C2.284,-4.123 2.536,-4.081 2.727,-3.998C2.917,-3.915 3.066,-3.786 3.174,-3.613C3.282,-3.439 3.336,-3.258 3.336,-3.068C3.336,-2.892 3.288,-2.726 3.192,-2.571C3.097,-2.415 2.952,-2.289 2.759,-2.194C3.008,-2.121 3.2,-1.996 3.334,-1.82C3.468,-1.643 3.535,-1.435 3.535,-1.195C3.535,-1.002 3.495,-0.823 3.413,-0.657C3.331,-0.491 3.231,-0.363 3.111,-0.273C2.991,-0.183 2.84,-0.115 2.659,-0.069C2.478,-0.023 2.257,0 1.994,0L0.422,0ZM0.968,-2.391L1.859,-2.391C2.101,-2.391 2.274,-2.407 2.379,-2.438C2.518,-2.48 2.623,-2.548 2.693,-2.644C2.763,-2.739 2.798,-2.859 2.798,-3.004C2.798,-3.141 2.766,-3.261 2.7,-3.365C2.634,-3.469 2.541,-3.54 2.419,-3.579C2.297,-3.617 2.088,-3.637 1.792,-3.637L0.968,-3.637L0.968,-2.391ZM0.968,-0.487L1.994,-0.487C2.17,-0.487 2.294,-0.493 2.365,-0.506C2.491,-0.529 2.596,-0.566 2.68,-0.619C2.765,-0.671 2.834,-0.748 2.888,-0.848C2.943,-0.948 2.97,-1.064 2.97,-1.195C2.97,-1.349 2.931,-1.483 2.852,-1.596C2.773,-1.71 2.664,-1.789 2.524,-1.835C2.385,-1.881 2.183,-1.904 1.921,-1.904L0.968,-1.904L0.968,-0.487Z" style="fill-opacity:0;fill-rule:nonzero;"/>
            </g>
        </g>
        <g transform="matrix(16.6667,0,0,16.6667,0,0)">
            <g transform="matrix(1,0,0,1,-22.4938,-50.0862)">
                <path d="M126.108,289.152L128.16,289.152" style="fill:none;fill-rule:nonzero;"/>
            </g>
        </g>
        <g transform="matrix(16.6667,0,0,16.6667,0,0)">
            <g transform="matrix(1,0,0,1,-22.4938,-50.0862)">
                <path d="M126.108,289.44L128.16,289.44C128.319,289.44 128.448,289.311 128.448,289.152C128.448,288.993 128.319,288.864 128.16,288.864L126.108,288.864C125.949,288.864 125.82,288.993 125.82,289.152C125.82,289.311 125.949,289.44 126.108,289.44Z"/>
            </g>
        </g>
        <g transform="matrix(16.6667,0,0,16.6667,0,0)">
            <g transform="matrix(1,0,0,1,-22.4938,-50.0862)">
                <path d="M125.698,290.383L127.138,286.063L128.578,290.383" style="fill-opacity:0;fill-rule:nonzero;"/>
            </g>
        </g>
        <g transform="matrix(16.6667,0,0,16.6667,0,0)">
            <g transform="matrix(1,0,0,1,-22.4938,-50.0862)">
                <path d="M127.138,286.974L125.971,290.474C125.921,290.625 125.757,290.707 125.607,290.656C125.456,290.606 125.374,290.443 125.424,290.292L126.864,285.972C126.904,285.855 127.014,285.775 127.138,285.775C127.262,285.775 127.372,285.855 127.411,285.972L128.851,290.292C128.901,290.443 128.819,290.606 128.669,290.656C128.518,290.707 128.355,290.625 128.304,290.474L127.138,286.974Z"/>
            </g>
        </g>
        <g transform="matrix(16.6667,0,0,16.6667,0,0)">
            <g transform="matrix(1,0,0,1,-22.4938,-50.0862)">
                <path d="M131.458,288.122L132.07,288.324L132.278,288.533L132.48,288.943L132.48,289.562L132.278,289.973L132.07,290.174L131.659,290.383L130.018,290.383L130.018,286.063L131.458,286.063L131.868,286.272L132.07,286.474L132.278,286.884L132.278,287.294L132.07,287.712L131.868,287.914L131.458,288.122L130.018,288.122" style="fill-opacity:0;fill-rule:nonzero;"/>
            </g>
        </g>
        <g transform="matrix(16.6667,0,0,16.6667,0,0)">
            <g transform="matrix(1,0,0,1,-22.4938,-50.0862)">
                <path d="M132.144,288.045L132.16,288.05C132.203,288.065 132.241,288.088 132.273,288.12L132.482,288.329C132.504,288.352 132.523,288.377 132.537,288.406L132.738,288.816C132.758,288.856 132.768,288.899 132.768,288.943L132.768,289.562C132.768,289.606 132.758,289.65 132.738,289.689L132.537,290.1C132.522,290.13 132.502,290.157 132.478,290.18L132.27,290.382C132.249,290.401 132.226,290.418 132.2,290.431L131.79,290.64C131.749,290.66 131.705,290.671 131.659,290.671L130.018,290.671C129.859,290.671 129.73,290.542 129.73,290.383L129.73,286.063C129.73,285.904 129.859,285.775 130.018,285.775L131.458,285.775C131.503,285.775 131.548,285.786 131.588,285.807L131.999,286.015C132.026,286.029 132.05,286.047 132.072,286.068L132.273,286.27C132.295,286.291 132.313,286.316 132.326,286.343L132.535,286.753C132.556,286.794 132.566,286.839 132.566,286.884L132.566,287.294C132.566,287.339 132.556,287.383 132.536,287.423L132.327,287.841C132.313,287.868 132.295,287.894 132.273,287.916L132.144,288.045ZM130.306,288.41L130.306,290.095L131.59,290.095L131.901,289.937L132.042,289.801L132.192,289.495L132.192,289.01L132.041,288.703L131.914,288.576L131.411,288.41L130.306,288.41ZM130.306,286.351L130.306,287.834L131.389,287.834L131.697,287.678L131.833,287.541L131.99,287.226L131.99,286.953L131.834,286.645L131.697,286.508L131.389,286.351L130.306,286.351Z"/>
            </g>
        </g>
        <g transform="matrix(16.6667,0,0,16.6667,0,0)">
            <g transform="matrix(1,0,0,1,-22.4938,-50.0862)">
                <path d="M117.72,283.68L115.704,282.168" style="fill:none;fill-rule:nonzero;"/>
            </g>
        </g>
        <g transform="matrix(16.6667,0,0,16.6667,0,0)">
            <g transform="matrix(1,0,0,1,-22.4938,-50.0862)">
                <path d="M117.822,283.544L115.806,282.032C115.731,281.976 115.624,281.991 115.568,282.066C115.512,282.141 115.527,282.248 115.602,282.304L117.618,283.816C117.693,283.872 117.8,283.857 117.856,283.782C117.912,283.707 117.897,283.6 117.822,283.544Z"/>
            </g>
        </g>
        <g transform="matrix(16.6667,0,0,16.6667,0,0)">
            <g transform="matrix(1,0,0,1,-22.4938,-50.0862)">
                <circle cx="129.6" cy="291.96" r="14.4" style="fill-opacity:0;"/>
            </g>
        </g>
        <g transform="matrix(16.6667,0,0,16.6667,0,0)">
            <g transform="matrix(1,0,0,1,-22.4938,-50.0862)">
                <path d="M129.6,277.39C121.559,277.39 115.03,283.919 115.03,291.96C115.03,300.001 121.559,306.53 129.6,306.53C137.641,306.53 144.17,300.001 144.17,291.96C144.17,283.919 137.641,277.39 129.6,277.39ZM129.6,277.73C137.454,277.73 143.83,284.106 143.83,291.96C143.83,299.814 137.454,306.19 129.6,306.19C121.746,306.19 115.37,299.814 115.37,291.96C115.37,284.106 121.746,277.73 129.6,277.73Z"/>
            </g>
        </g>
    </g>
</svg>
