<?xml version="1.0" encoding="UTF-8" standalone="no"?>
<!DOCTYPE svg PUBLIC "-//W3C//DTD SVG 1.1//EN" "http://www.w3.org/Graphics/SVG/1.1/DTD/svg11.dtd">
<svg width="100%" height="100%" viewBox="0 0 486 486" version="1.1" xmlns="http://www.w3.org/2000/svg" xmlns:xlink="http://www.w3.org/1999/xlink" xml:space="preserve" xmlns:serif="http://www.serif.com/" style="fill-rule:evenodd;clip-rule:evenodd;stroke-linejoin:round;stroke-miterlimit:2;">
    <g transform="matrix(1,0,0,1,-2118.27,-3788.4)">
        <g transform="matrix(16.6667,0,0,16.6667,0,0)">
            <g transform="matrix(1,0,0,1,-22.4938,-50.0862)">
                <path d="M163.8,295.92L163.8,285.12" style="fill:none;fill-rule:nonzero;"/>
            </g>
        </g>
        <g transform="matrix(16.6667,0,0,16.6667,0,0)">
            <g transform="matrix(1,0,0,1,-22.4938,-50.0862)">
                <path d="M164.088,295.92L164.088,285.12C164.088,284.961 163.959,284.832 163.8,284.832C163.641,284.832 163.512,284.961 163.512,285.12L163.512,295.92C163.512,296.079 163.641,296.208 163.8,296.208C163.959,296.208 164.088,296.079 164.088,295.92Z"/>
            </g>
        </g>
        <g transform="matrix(16.6667,0,0,16.6667,0,0)">
            <g transform="matrix(1,0,0,1,-22.4938,-50.0862)">
                <path d="M163.8,297L159.48,297" style="fill:none;fill-rule:nonzero;"/>
            </g>
        </g>
        <g transform="matrix(16.6667,0,0,16.6667,0,0)">
            <g transform="matrix(1,0,0,1,-22.4938,-50.0862)">
                <path d="M163.8,296.712L159.48,296.712C159.321,296.712 159.192,296.841 159.192,297C159.192,297.159 159.321,297.288 159.48,297.288L163.8,297.288C163.959,297.288 164.088,297.159 164.088,297C164.088,296.841 163.959,296.712 163.8,296.712Z"/>
            </g>
        </g>
        <g transform="matrix(16.6667,0,0,16.6667,0,0)">
            <g transform="matrix(1,0,0,1,-22.4938,-50.0862)">
                <path d="M163.8,297L168.12,297" style="fill:none;fill-rule:nonzero;"/>
            </g>
        </g>
        <g transform="matrix(16.6667,0,0,16.6667,0,0)">
            <g transform="matrix(1,0,0,1,-22.4938,-50.0862)">
                <path d="M163.8,297.288L168.12,297.288C168.279,297.288 168.408,297.159 168.408,297C168.408,296.841 168.279,296.712 168.12,296.712L163.8,296.712C163.641,296.712 163.512,296.841 163.512,297C163.512,297.159 163.641,297.288 163.8,297.288Z"/>
            </g>
        </g>
        <g transform="matrix(16.6667,0,0,16.6667,0,0)">
            <g transform="matrix(1,0,0,1,-22.4938,-50.0862)">
                <path d="M167.4,288.72L168.12,289.44" style="fill:none;fill-rule:nonzero;"/>
            </g>
        </g>
        <g transform="matrix(16.6667,0,0,16.6667,0,0)">
            <g transform="matrix(1,0,0,1,-22.4938,-50.0862)">
                <path d="M167.196,288.924L167.916,289.644C168.029,289.756 168.211,289.756 168.324,289.644C168.436,289.531 168.436,289.349 168.324,289.236L167.604,288.516C167.491,288.404 167.309,288.404 167.196,288.516C167.084,288.629 167.084,288.811 167.196,288.924Z"/>
            </g>
        </g>
        <g transform="matrix(16.6667,0,0,16.6667,0,0)">
            <g transform="matrix(1,0,0,1,-22.4938,-50.0862)">
                <path d="M163.8,285.12L159.48,289.44" style="fill:none;fill-rule:nonzero;"/>
            </g>
        </g>
        <g transform="matrix(16.6667,0,0,16.6667,0,0)">
            <g transform="matrix(1,0,0,1,-22.4938,-50.0862)">
                <path d="M163.596,284.916L159.276,289.236C159.164,289.349 159.164,289.531 159.276,289.644C159.389,289.756 159.571,289.756 159.684,289.644L164.004,285.324C164.116,285.211 164.116,285.029 164.004,284.916C163.891,284.804 163.709,284.804 163.596,284.916Z"/>
            </g>
        </g>
        <g transform="matrix(16.6667,0,0,16.6667,0,0)">
            <g transform="matrix(1,0,0,1,-22.4938,-50.0862)">
                <path d="M163.8,285.12L167.4,288.72" style="fill:none;fill-rule:nonzero;"/>
            </g>
        </g>
        <g transform="matrix(16.6667,0,0,16.6667,0,0)">
            <g transform="matrix(1,0,0,1,-22.4938,-50.0862)">
                <path d="M163.596,285.324L167.196,288.924C167.309,289.036 167.491,289.036 167.604,288.924C167.716,288.811 167.716,288.629 167.604,288.516L164.004,284.916C163.891,284.804 163.709,284.804 163.596,284.916C163.484,285.029 163.484,285.211 163.596,285.324Z"/>
            </g>
        </g>
        <g transform="matrix(16.6667,0,0,16.6667,0,0)">
            <g transform="matrix(1,0,0,1,-22.4938,-50.0862)">
                <path d="M152.28,283.68L150.264,282.168" style="fill:none;fill-rule:nonzero;"/>
            </g>
        </g>
        <g transform="matrix(16.6667,0,0,16.6667,0,0)">
            <g transform="matrix(1,0,0,1,-22.4938,-50.0862)">
                <path d="M152.382,283.544L150.366,282.032C150.291,281.976 150.184,281.991 150.128,282.066C150.072,282.141 150.087,282.248 150.162,282.304L152.178,283.816C152.253,283.872 152.36,283.857 152.416,283.782C152.472,283.707 152.457,283.6 152.382,283.544Z"/>
            </g>
        </g>
        <g transform="matrix(16.6667,0,0,16.6667,0,0)">
            <g transform="matrix(1,0,0,1,-22.4938,-50.0862)">
                <circle cx="164.16" cy="291.96" r="14.4" style="fill-opacity:0;"/>
            </g>
        </g>
        <g transform="matrix(16.6667,0,0,16.6667,0,0)">
            <g transform="matrix(1,0,0,1,-22.4938,-50.0862)">
                <path d="M164.16,277.39C156.119,277.39 149.59,283.919 149.59,291.96C149.59,300.001 156.119,306.53 164.16,306.53C172.201,306.53 178.73,300.001 178.73,291.96C178.73,283.919 172.201,277.39 164.16,277.39ZM164.16,277.73C172.014,277.73 178.39,284.106 178.39,291.96C178.39,299.814 172.014,306.19 164.16,306.19C156.306,306.19 149.93,299.814 149.93,291.96C149.93,284.106 156.306,277.73 164.16,277.73Z"/>
            </g>
        </g>
    </g>
</svg>
