<?xml version="1.0" encoding="UTF-8" standalone="no"?>
<!DOCTYPE svg PUBLIC "-//W3C//DTD SVG 1.1//EN" "http://www.w3.org/Graphics/SVG/1.1/DTD/svg11.dtd">
<svg width="100%" height="100%" viewBox="0 0 486 486" version="1.1" xmlns="http://www.w3.org/2000/svg" xmlns:xlink="http://www.w3.org/1999/xlink" xml:space="preserve" xmlns:serif="http://www.serif.com/" style="fill-rule:evenodd;clip-rule:evenodd;stroke-linejoin:round;stroke-miterlimit:2;">
    <g transform="matrix(1,0,0,1,-2694.27,-3788.4)">
        <g transform="matrix(16.6667,0,0,16.6667,0,0)">
            <g transform="matrix(1,0,0,1,-22.4938,-50.0862)">
                <path d="M207.72,296.64L209.52,294.84" style="fill:none;fill-rule:nonzero;"/>
            </g>
        </g>
        <g transform="matrix(16.6667,0,0,16.6667,0,0)">
            <g transform="matrix(1,0,0,1,-22.4938,-50.0862)">
                <path d="M207.924,296.844L209.724,295.044C209.836,294.931 209.836,294.749 209.724,294.636C209.611,294.524 209.429,294.524 209.316,294.636L207.516,296.436C207.404,296.549 207.404,296.731 207.516,296.844C207.629,296.956 207.811,296.956 207.924,296.844Z"/>
            </g>
        </g>
        <g transform="matrix(16.6667,0,0,16.6667,0,0)">
            <g transform="matrix(1,0,0,1,-22.4938,-50.0862)">
                <path d="M207.72,296.64L205.92,294.84" style="fill:none;fill-rule:nonzero;"/>
            </g>
        </g>
        <g transform="matrix(16.6667,0,0,16.6667,0,0)">
            <g transform="matrix(1,0,0,1,-22.4938,-50.0862)">
                <path d="M207.924,296.436L206.124,294.636C206.011,294.524 205.829,294.524 205.716,294.636C205.604,294.749 205.604,294.931 205.716,295.044L207.516,296.844C207.629,296.956 207.811,296.956 207.924,296.844C208.036,296.731 208.036,296.549 207.924,296.436Z"/>
            </g>
        </g>
        <g transform="matrix(16.6667,0,0,16.6667,0,0)">
            <g transform="matrix(1,0,0,1,-22.4938,-50.0862)">
                <path d="M207.72,285.12L207.72,296.64" style="fill:none;fill-rule:nonzero;"/>
            </g>
        </g>
        <g transform="matrix(16.6667,0,0,16.6667,0,0)">
            <g transform="matrix(1,0,0,1,-22.4938,-50.0862)">
                <path d="M207.432,285.12L207.432,296.64C207.432,296.799 207.561,296.928 207.72,296.928C207.879,296.928 208.008,296.799 208.008,296.64L208.008,285.12C208.008,284.961 207.879,284.832 207.72,284.832C207.561,284.832 207.432,284.961 207.432,285.12Z"/>
            </g>
        </g>
        <g transform="matrix(16.6667,0,0,16.6667,0,0)">
            <g transform="matrix(1,0,0,1,-22.4938,-50.0862)">
                <path d="M207.72,285.12L209.52,286.92" style="fill:none;fill-rule:nonzero;"/>
            </g>
        </g>
        <g transform="matrix(16.6667,0,0,16.6667,0,0)">
            <g transform="matrix(1,0,0,1,-22.4938,-50.0862)">
                <path d="M207.516,285.324L209.316,287.124C209.429,287.236 209.611,287.236 209.724,287.124C209.836,287.011 209.836,286.829 209.724,286.716L207.924,284.916C207.811,284.804 207.629,284.804 207.516,284.916C207.404,285.029 207.404,285.211 207.516,285.324Z"/>
            </g>
        </g>
        <g transform="matrix(16.6667,0,0,16.6667,0,0)">
            <g transform="matrix(1,0,0,1,-22.4938,-50.0862)">
                <path d="M207.72,285.12L205.92,286.92" style="fill:none;fill-rule:nonzero;"/>
            </g>
        </g>
        <g transform="matrix(16.6667,0,0,16.6667,0,0)">
            <g transform="matrix(1,0,0,1,-22.4938,-50.0862)">
                <path d="M207.516,284.916L205.716,286.716C205.604,286.829 205.604,287.011 205.716,287.124C205.829,287.236 206.011,287.236 206.124,287.124L207.924,285.324C208.036,285.211 208.036,285.029 207.924,284.916C207.811,284.804 207.629,284.804 207.516,284.916Z"/>
            </g>
        </g>
        <g transform="matrix(16.6667,0,0,16.6667,0,0)">
            <g transform="matrix(1,0,0,1,-22.4938,-50.0862)">
                <path d="M199.44,285.12L203.76,297" style="fill:none;fill-rule:nonzero;"/>
            </g>
        </g>
        <g transform="matrix(16.6667,0,0,16.6667,0,0)">
            <g transform="matrix(1,0,0,1,-22.4938,-50.0862)">
                <path d="M199.169,285.218L203.489,297.098C203.544,297.248 203.709,297.325 203.858,297.271C204.008,297.216 204.085,297.051 204.031,296.902L199.711,285.022C199.656,284.872 199.491,284.795 199.342,284.849C199.192,284.904 199.115,285.069 199.169,285.218Z"/>
            </g>
        </g>
        <g transform="matrix(16.6667,0,0,16.6667,0,0)">
            <g transform="matrix(1,0,0,1,-22.4938,-50.0862)">
                <path d="M195.12,297L199.44,285.12" style="fill:none;fill-rule:nonzero;"/>
            </g>
        </g>
        <g transform="matrix(16.6667,0,0,16.6667,0,0)">
            <g transform="matrix(1,0,0,1,-22.4938,-50.0862)">
                <path d="M195.391,297.098L199.711,285.218C199.765,285.069 199.688,284.904 199.538,284.849C199.389,284.795 199.224,284.872 199.169,285.022L194.849,296.902C194.795,297.051 194.872,297.216 195.022,297.271C195.171,297.325 195.336,297.248 195.391,297.098Z"/>
            </g>
        </g>
        <g transform="matrix(16.6667,0,0,16.6667,0,0)">
            <g transform="matrix(1,0,0,1,-22.4938,-50.0862)">
                <path d="M191.16,285.12L195.12,297" style="fill:none;fill-rule:nonzero;"/>
            </g>
        </g>
        <g transform="matrix(16.6667,0,0,16.6667,0,0)">
            <g transform="matrix(1,0,0,1,-22.4938,-50.0862)">
                <path d="M190.887,285.211L194.847,297.091C194.897,297.242 195.06,297.323 195.211,297.273C195.362,297.223 195.443,297.06 195.393,296.909L191.433,285.029C191.383,284.878 191.22,284.797 191.069,284.847C190.918,284.897 190.837,285.06 190.887,285.211Z"/>
            </g>
        </g>
        <g transform="matrix(16.6667,0,0,16.6667,0,0)">
            <g transform="matrix(1,0,0,1,-22.4938,-50.0862)">
                <path d="M186.48,297L191.16,285.12" style="fill:none;fill-rule:nonzero;"/>
            </g>
        </g>
        <g transform="matrix(16.6667,0,0,16.6667,0,0)">
            <g transform="matrix(1,0,0,1,-22.4938,-50.0862)">
                <path d="M186.748,297.106L191.428,285.226C191.486,285.078 191.413,284.91 191.266,284.852C191.118,284.794 190.95,284.867 190.892,285.014L186.212,296.894C186.154,297.042 186.227,297.21 186.374,297.268C186.522,297.326 186.69,297.253 186.748,297.106Z"/>
            </g>
        </g>
        <g transform="matrix(16.6667,0,0,16.6667,0,0)">
            <g transform="matrix(1,0,0,1,-22.4938,-50.0862)">
                <path d="M186.84,283.68L184.824,282.168" style="fill:none;fill-rule:nonzero;"/>
            </g>
        </g>
        <g transform="matrix(16.6667,0,0,16.6667,0,0)">
            <g transform="matrix(1,0,0,1,-22.4938,-50.0862)">
                <path d="M186.942,283.544L184.926,282.032C184.851,281.976 184.744,281.991 184.688,282.066C184.632,282.141 184.647,282.248 184.722,282.304L186.738,283.816C186.813,283.872 186.92,283.857 186.976,283.782C187.032,283.707 187.017,283.6 186.942,283.544Z"/>
            </g>
        </g>
        <g transform="matrix(16.6667,0,0,16.6667,0,0)">
            <g transform="matrix(1,0,0,1,-22.4938,-50.0862)">
                <circle cx="198.72" cy="291.96" r="14.4" style="fill-opacity:0;"/>
            </g>
        </g>
        <g transform="matrix(16.6667,0,0,16.6667,0,0)">
            <g transform="matrix(1,0,0,1,-22.4938,-50.0862)">
                <path d="M198.72,277.39C190.679,277.39 184.15,283.919 184.15,291.96C184.15,300.001 190.679,306.53 198.72,306.53C206.761,306.53 213.29,300.001 213.29,291.96C213.29,283.919 206.761,277.39 198.72,277.39ZM198.72,277.73C206.574,277.73 212.95,284.106 212.95,291.96C212.95,299.814 206.574,306.19 198.72,306.19C190.866,306.19 184.49,299.814 184.49,291.96C184.49,284.106 190.866,277.73 198.72,277.73Z"/>
            </g>
        </g>
    </g>
</svg>
