<?xml version="1.0" encoding="UTF-8" standalone="no"?>
<!DOCTYPE svg PUBLIC "-//W3C//DTD SVG 1.1//EN" "http://www.w3.org/Graphics/SVG/1.1/DTD/svg11.dtd">
<svg width="100%" height="100%" viewBox="0 0 486 486" version="1.1" xmlns="http://www.w3.org/2000/svg" xmlns:xlink="http://www.w3.org/1999/xlink" xml:space="preserve" xmlns:serif="http://www.serif.com/" style="fill-rule:evenodd;clip-rule:evenodd;stroke-linejoin:round;stroke-miterlimit:2;">
    <g transform="matrix(1,0,0,1,-3270.27,-3788.4)">
        <g transform="matrix(16.6667,0,0,16.6667,0,0)">
            <g transform="matrix(1,0,0,1,-22.4938,-50.0862)">
                <path d="M239.76,296.64L244.08,284.76" style="fill:none;fill-rule:nonzero;"/>
            </g>
        </g>
        <g transform="matrix(16.6667,0,0,16.6667,0,0)">
            <g transform="matrix(1,0,0,1,-22.4938,-50.0862)">
                <path d="M240.031,296.738L244.351,284.858C244.405,284.709 244.328,284.544 244.178,284.489C244.029,284.435 243.864,284.512 243.809,284.662L239.489,296.542C239.435,296.691 239.512,296.856 239.662,296.911C239.811,296.965 239.976,296.888 240.031,296.738Z"/>
            </g>
        </g>
        <g transform="matrix(16.6667,0,0,16.6667,0,0)">
            <g transform="matrix(1,0,0,1,-22.4938,-50.0862)">
                <path d="M227.16,284.76L231.12,296.64" style="fill:none;fill-rule:nonzero;"/>
            </g>
        </g>
        <g transform="matrix(16.6667,0,0,16.6667,0,0)">
            <g transform="matrix(1,0,0,1,-22.4938,-50.0862)">
                <path d="M226.887,284.851L230.847,296.731C230.897,296.882 231.06,296.963 231.211,296.913C231.362,296.863 231.443,296.7 231.393,296.549L227.433,284.669C227.383,284.518 227.22,284.437 227.069,284.487C226.918,284.537 226.837,284.7 226.887,284.851Z"/>
            </g>
        </g>
        <g transform="matrix(16.6667,0,0,16.6667,0,0)">
            <g transform="matrix(1,0,0,1,-22.4938,-50.0862)">
                <path d="M223.56,300.24L241.92,300.24" style="fill:none;fill-rule:nonzero;"/>
            </g>
        </g>
        <g transform="matrix(16.6667,0,0,16.6667,0,0)">
            <g transform="matrix(1,0,0,1,-22.4938,-50.0862)">
                <path d="M223.56,300.528L241.92,300.528C242.079,300.528 242.208,300.399 242.208,300.24C242.208,300.081 242.079,299.952 241.92,299.952L223.56,299.952C223.401,299.952 223.272,300.081 223.272,300.24C223.272,300.399 223.401,300.528 223.56,300.528Z"/>
            </g>
        </g>
        <g transform="matrix(16.6667,0,0,16.6667,0,0)">
            <g transform="matrix(1,0,0,1,-22.4938,-50.0862)">
                <path d="M241.92,300.24L240.12,298.44" style="fill:none;fill-rule:nonzero;"/>
            </g>
        </g>
        <g transform="matrix(16.6667,0,0,16.6667,0,0)">
            <g transform="matrix(1,0,0,1,-22.4938,-50.0862)">
                <path d="M242.124,300.036L240.324,298.236C240.211,298.124 240.029,298.124 239.916,298.236C239.804,298.349 239.804,298.531 239.916,298.644L241.716,300.444C241.829,300.556 242.011,300.556 242.124,300.444C242.236,300.331 242.236,300.149 242.124,300.036Z"/>
            </g>
        </g>
        <g transform="matrix(16.6667,0,0,16.6667,0,0)">
            <g transform="matrix(1,0,0,1,-22.4938,-50.0862)">
                <path d="M222.48,296.64L227.16,284.76" style="fill:none;fill-rule:nonzero;"/>
            </g>
        </g>
        <g transform="matrix(16.6667,0,0,16.6667,0,0)">
            <g transform="matrix(1,0,0,1,-22.4938,-50.0862)">
                <path d="M222.748,296.746L227.428,284.866C227.486,284.718 227.413,284.55 227.266,284.492C227.118,284.434 226.95,284.507 226.892,284.654L222.212,296.534C222.154,296.682 222.227,296.85 222.374,296.908C222.522,296.966 222.69,296.893 222.748,296.746Z"/>
            </g>
        </g>
        <g transform="matrix(16.6667,0,0,16.6667,0,0)">
            <g transform="matrix(1,0,0,1,-22.4938,-50.0862)">
                <path d="M223.56,300.24L225.36,302.04" style="fill:none;fill-rule:nonzero;"/>
            </g>
        </g>
        <g transform="matrix(16.6667,0,0,16.6667,0,0)">
            <g transform="matrix(1,0,0,1,-22.4938,-50.0862)">
                <path d="M223.356,300.444L225.156,302.244C225.269,302.356 225.451,302.356 225.564,302.244C225.676,302.131 225.676,301.949 225.564,301.836L223.764,300.036C223.651,299.924 223.469,299.924 223.356,300.036C223.244,300.149 223.244,300.331 223.356,300.444Z"/>
            </g>
        </g>
        <g transform="matrix(16.6667,0,0,16.6667,0,0)">
            <g transform="matrix(1,0,0,1,-22.4938,-50.0862)">
                <path d="M235.44,284.76L239.76,296.64" style="fill:none;fill-rule:nonzero;"/>
            </g>
        </g>
        <g transform="matrix(16.6667,0,0,16.6667,0,0)">
            <g transform="matrix(1,0,0,1,-22.4938,-50.0862)">
                <path d="M235.169,284.858L239.489,296.738C239.544,296.888 239.709,296.965 239.858,296.911C240.008,296.856 240.085,296.691 240.031,296.542L235.711,284.662C235.656,284.512 235.491,284.435 235.342,284.489C235.192,284.544 235.115,284.709 235.169,284.858Z"/>
            </g>
        </g>
        <g transform="matrix(16.6667,0,0,16.6667,0,0)">
            <g transform="matrix(1,0,0,1,-22.4938,-50.0862)">
                <path d="M223.56,300.24L225.36,298.44" style="fill:none;fill-rule:nonzero;"/>
            </g>
        </g>
        <g transform="matrix(16.6667,0,0,16.6667,0,0)">
            <g transform="matrix(1,0,0,1,-22.4938,-50.0862)">
                <path d="M223.764,300.444L225.564,298.644C225.676,298.531 225.676,298.349 225.564,298.236C225.451,298.124 225.269,298.124 225.156,298.236L223.356,300.036C223.244,300.149 223.244,300.331 223.356,300.444C223.469,300.556 223.651,300.556 223.764,300.444Z"/>
            </g>
        </g>
        <g transform="matrix(16.6667,0,0,16.6667,0,0)">
            <g transform="matrix(1,0,0,1,-22.4938,-50.0862)">
                <path d="M231.12,296.64L235.44,284.76" style="fill:none;fill-rule:nonzero;"/>
            </g>
        </g>
        <g transform="matrix(16.6667,0,0,16.6667,0,0)">
            <g transform="matrix(1,0,0,1,-22.4938,-50.0862)">
                <path d="M231.391,296.738L235.711,284.858C235.765,284.709 235.688,284.544 235.538,284.489C235.389,284.435 235.224,284.512 235.169,284.662L230.849,296.542C230.795,296.691 230.872,296.856 231.022,296.911C231.171,296.965 231.336,296.888 231.391,296.738Z"/>
            </g>
        </g>
        <g transform="matrix(16.6667,0,0,16.6667,0,0)">
            <g transform="matrix(1,0,0,1,-22.4938,-50.0862)">
                <path d="M241.92,300.24L240.12,302.04" style="fill:none;fill-rule:nonzero;"/>
            </g>
        </g>
        <g transform="matrix(16.6667,0,0,16.6667,0,0)">
            <g transform="matrix(1,0,0,1,-22.4938,-50.0862)">
                <path d="M241.716,300.036L239.916,301.836C239.804,301.949 239.804,302.131 239.916,302.244C240.029,302.356 240.211,302.356 240.324,302.244L242.124,300.444C242.236,300.331 242.236,300.149 242.124,300.036C242.011,299.924 241.829,299.924 241.716,300.036Z"/>
            </g>
        </g>
        <g transform="matrix(16.6667,0,0,16.6667,0,0)">
            <g transform="matrix(1,0,0,1,-22.4938,-50.0862)">
                <path d="M221.4,283.68L219.384,282.168" style="fill:none;fill-rule:nonzero;"/>
            </g>
        </g>
        <g transform="matrix(16.6667,0,0,16.6667,0,0)">
            <g transform="matrix(1,0,0,1,-22.4938,-50.0862)">
                <path d="M221.502,283.544L219.486,282.032C219.411,281.976 219.304,281.991 219.248,282.066C219.192,282.141 219.207,282.248 219.282,282.304L221.298,283.816C221.373,283.872 221.48,283.857 221.536,283.782C221.592,283.707 221.577,283.6 221.502,283.544Z"/>
            </g>
        </g>
        <g transform="matrix(16.6667,0,0,16.6667,0,0)">
            <g transform="matrix(1,0,0,1,-22.4938,-50.0862)">
                <circle cx="233.28" cy="291.96" r="14.4" style="fill-opacity:0;"/>
            </g>
        </g>
        <g transform="matrix(16.6667,0,0,16.6667,0,0)">
            <g transform="matrix(1,0,0,1,-22.4938,-50.0862)">
                <path d="M233.28,277.39C225.239,277.39 218.71,283.919 218.71,291.96C218.71,300.001 225.239,306.53 233.28,306.53C241.321,306.53 247.85,300.001 247.85,291.96C247.85,283.919 241.321,277.39 233.28,277.39ZM233.28,277.73C241.134,277.73 247.51,284.106 247.51,291.96C247.51,299.814 241.134,306.19 233.28,306.19C225.426,306.19 219.05,299.814 219.05,291.96C219.05,284.106 225.426,277.73 233.28,277.73Z"/>
            </g>
        </g>
    </g>
</svg>
