<?xml version="1.0" encoding="UTF-8" standalone="no"?>
<!DOCTYPE svg PUBLIC "-//W3C//DTD SVG 1.1//EN" "http://www.w3.org/Graphics/SVG/1.1/DTD/svg11.dtd">
<svg width="100%" height="100%" viewBox="0 0 487 486" version="1.1" xmlns="http://www.w3.org/2000/svg" xmlns:xlink="http://www.w3.org/1999/xlink" xml:space="preserve" xmlns:serif="http://www.serif.com/" style="fill-rule:evenodd;clip-rule:evenodd;stroke-linejoin:round;stroke-miterlimit:2;">
    <g transform="matrix(1,0,0,1,-3845.42,-3788.4)">
        <g transform="matrix(16.6667,0,0,16.6667,0,0)">
            <g transform="matrix(1,0,0,1,-22.4938,-50.0862)">
                <path d="M280.44,291.96L281.16,286.92" style="fill:none;fill-rule:nonzero;"/>
            </g>
        </g>
        <g transform="matrix(16.6667,0,0,16.6667,0,0)">
            <g transform="matrix(1,0,0,1,-22.4938,-50.0862)">
                <path d="M280.725,292.001L281.445,286.961C281.468,286.803 281.358,286.657 281.201,286.635C281.043,286.612 280.897,286.722 280.875,286.879L280.155,291.919C280.132,292.077 280.242,292.223 280.399,292.245C280.557,292.268 280.703,292.158 280.725,292.001Z"/>
            </g>
        </g>
        <g transform="matrix(16.6667,0,0,16.6667,0,0)">
            <g transform="matrix(1,0,0,1,-22.4938,-50.0862)">
                <path d="M272.52,281.16L280.44,291.96" style="fill:none;fill-rule:nonzero;"/>
            </g>
        </g>
        <g transform="matrix(16.6667,0,0,16.6667,0,0)">
            <g transform="matrix(1,0,0,1,-22.4938,-50.0862)">
                <path d="M272.288,281.33L280.208,292.13C280.302,292.258 280.482,292.286 280.61,292.192C280.738,292.098 280.766,291.918 280.672,291.79L272.752,280.99C272.658,280.862 272.478,280.834 272.35,280.928C272.222,281.022 272.194,281.202 272.288,281.33Z"/>
            </g>
        </g>
        <g transform="matrix(16.6667,0,0,16.6667,0,0)">
            <g transform="matrix(1,0,0,1,-22.4938,-50.0862)">
                <path d="M271.08,288.36L272.52,281.16" style="fill:none;fill-rule:nonzero;"/>
            </g>
        </g>
        <g transform="matrix(16.6667,0,0,16.6667,0,0)">
            <g transform="matrix(1,0,0,1,-22.4938,-50.0862)">
                <path d="M271.362,288.416L272.802,281.216C272.834,281.061 272.732,280.909 272.576,280.878C272.421,280.846 272.269,280.948 272.238,281.104L270.798,288.304C270.766,288.459 270.868,288.611 271.024,288.642C271.179,288.674 271.331,288.572 271.362,288.416Z"/>
            </g>
        </g>
        <g transform="matrix(16.6667,0,0,16.6667,0,0)">
            <g transform="matrix(1,0,0,1,-22.4938,-50.0862)">
                <path d="M274.68,295.2L274.68,290.52" style="fill:none;fill-rule:nonzero;"/>
            </g>
        </g>
        <g transform="matrix(16.6667,0,0,16.6667,0,0)">
            <g transform="matrix(1,0,0,1,-22.4938,-50.0862)">
                <path d="M274.968,295.2L274.968,290.52C274.968,290.361 274.839,290.232 274.68,290.232C274.521,290.232 274.392,290.361 274.392,290.52L274.392,295.2C274.392,295.359 274.521,295.488 274.68,295.488C274.839,295.488 274.968,295.359 274.968,295.2Z"/>
            </g>
        </g>
        <g transform="matrix(16.6667,0,0,16.6667,0,0)">
            <g transform="matrix(1,0,0,1,-22.4938,-50.0862)">
                <path d="M268.56,295.2L274.68,295.2" style="fill:none;fill-rule:nonzero;"/>
            </g>
        </g>
        <g transform="matrix(16.6667,0,0,16.6667,0,0)">
            <g transform="matrix(1,0,0,1,-22.4938,-50.0862)">
                <path d="M268.56,295.488L274.68,295.488C274.839,295.488 274.968,295.359 274.968,295.2C274.968,295.041 274.839,294.912 274.68,294.912L268.56,294.912C268.401,294.912 268.272,295.041 268.272,295.2C268.272,295.359 268.401,295.488 268.56,295.488Z"/>
            </g>
        </g>
        <g transform="matrix(16.6667,0,0,16.6667,0,0)">
            <g transform="matrix(1,0,0,1,-22.4938,-50.0862)">
                <path d="M268.56,285.84L268.56,295.2" style="fill:none;fill-rule:nonzero;"/>
            </g>
        </g>
        <g transform="matrix(16.6667,0,0,16.6667,0,0)">
            <g transform="matrix(1,0,0,1,-22.4938,-50.0862)">
                <path d="M268.272,285.84L268.272,295.2C268.272,295.359 268.401,295.488 268.56,295.488C268.719,295.488 268.848,295.359 268.848,295.2L268.848,285.84C268.848,285.681 268.719,285.552 268.56,285.552C268.401,285.552 268.272,285.681 268.272,285.84Z"/>
            </g>
        </g>
        <g transform="matrix(16.6667,0,0,16.6667,0,0)">
            <g transform="matrix(1,0,0,1,-22.4938,-50.0862)">
                <path d="M261.36,285.84L268.56,285.84" style="fill:none;fill-rule:nonzero;"/>
            </g>
        </g>
        <g transform="matrix(16.6667,0,0,16.6667,0,0)">
            <g transform="matrix(1,0,0,1,-22.4938,-50.0862)">
                <path d="M261.36,286.128L268.56,286.128C268.719,286.128 268.848,285.999 268.848,285.84C268.848,285.681 268.719,285.552 268.56,285.552L261.36,285.552C261.201,285.552 261.072,285.681 261.072,285.84C261.072,285.999 261.201,286.128 261.36,286.128Z"/>
            </g>
        </g>
        <g transform="matrix(16.6667,0,0,16.6667,0,0)">
            <g transform="matrix(1,0,0,1,-22.4938,-50.0862)">
                <path d="M261.36,290.16L261.36,285.84" style="fill:none;fill-rule:nonzero;"/>
            </g>
        </g>
        <g transform="matrix(16.6667,0,0,16.6667,0,0)">
            <g transform="matrix(1,0,0,1,-22.4938,-50.0862)">
                <path d="M261.648,290.16L261.648,285.84C261.648,285.681 261.519,285.552 261.36,285.552C261.201,285.552 261.072,285.681 261.072,285.84L261.072,290.16C261.072,290.319 261.201,290.448 261.36,290.448C261.519,290.448 261.648,290.319 261.648,290.16Z"/>
            </g>
        </g>
        <g transform="matrix(16.6667,0,0,16.6667,0,0)">
            <g transform="matrix(1,0,0,1,-22.4938,-50.0862)">
                <path d="M260.28,295.56C260.28,295.56 260.28,295.56 260.28,295.56C260.28,298.128 262.393,300.24 264.96,300.24C266.73,300.24 268.355,299.236 269.146,297.653" style="fill-opacity:0;fill-rule:nonzero;"/>
            </g>
        </g>
        <g transform="matrix(16.6667,0,0,16.6667,0,0)">
            <g transform="matrix(1,0,0,1,-22.4938,-50.0862)">
                <path d="M259.992,295.56C259.992,295.56 259.992,295.56 259.992,295.56C259.992,298.286 262.235,300.528 264.96,300.528C266.839,300.528 268.564,299.462 269.404,297.782C269.475,297.64 269.417,297.467 269.275,297.395C269.133,297.324 268.96,297.382 268.888,297.524C268.146,299.01 266.621,299.952 264.96,299.952C262.551,299.952 260.568,297.97 260.568,295.56C260.568,295.56 260.568,295.56 260.568,295.56C260.568,295.401 260.439,295.272 260.28,295.272C260.121,295.272 259.992,295.401 259.992,295.56Z"/>
            </g>
        </g>
        <g transform="matrix(16.6667,0,0,16.6667,0,0)">
            <g transform="matrix(1,0,0,1,-22.4938,-50.0862)">
                <path d="M260.28,295.56C260.28,295.56 260.28,295.56 260.28,295.56C260.28,292.992 258.167,290.88 255.6,290.88C254.873,290.88 254.157,291.049 253.507,291.374" style="fill-opacity:0;fill-rule:nonzero;"/>
            </g>
        </g>
        <g transform="matrix(16.6667,0,0,16.6667,0,0)">
            <g transform="matrix(1,0,0,1,-22.4938,-50.0862)">
                <path d="M260.28,295.56L260.568,295.56C260.568,295.56 260.568,295.56 260.568,295.56C260.568,292.834 258.325,290.592 255.6,290.592C254.829,290.592 254.068,290.771 253.378,291.116C253.236,291.187 253.178,291.361 253.249,291.503C253.32,291.645 253.494,291.703 253.636,291.632C254.246,291.327 254.918,291.168 255.6,291.168C258.009,291.168 259.992,293.15 259.992,295.56C259.992,295.56 259.992,295.56 259.992,295.56L260.568,295.56L260.28,295.56Z"/>
            </g>
        </g>
        <g transform="matrix(16.6667,0,0,16.6667,0,0)">
            <g transform="matrix(1,0,0,1,-22.4938,-50.0862)">
                <path d="M255.96,283.68L253.944,282.168" style="fill:none;fill-rule:nonzero;"/>
            </g>
        </g>
        <g transform="matrix(16.6667,0,0,16.6667,0,0)">
            <g transform="matrix(1,0,0,1,-22.4938,-50.0862)">
                <path d="M256.062,283.544L254.046,282.032C253.971,281.976 253.864,281.991 253.808,282.066C253.752,282.141 253.767,282.248 253.842,282.304L255.858,283.816C255.933,283.872 256.04,283.857 256.096,283.782C256.152,283.707 256.137,283.6 256.062,283.544Z"/>
            </g>
        </g>
        <g transform="matrix(16.6667,0,0,16.6667,0,0)">
            <g transform="matrix(1,0,0,1,-22.4938,-50.0862)">
                <circle cx="267.84" cy="291.96" r="14.4" style="fill-opacity:0;"/>
            </g>
        </g>
        <g transform="matrix(16.6667,0,0,16.6667,0,0)">
            <g transform="matrix(1,0,0,1,-22.4938,-50.0862)">
                <path d="M267.84,277.39C259.799,277.39 253.27,283.919 253.27,291.96C253.27,300.001 259.799,306.53 267.84,306.53C275.881,306.53 282.41,300.001 282.41,291.96C282.41,283.919 275.881,277.39 267.84,277.39ZM267.84,277.73C275.694,277.73 282.07,284.106 282.07,291.96C282.07,299.814 275.694,306.19 267.84,306.19C259.986,306.19 253.61,299.814 253.61,291.96C253.61,284.106 259.986,277.73 267.84,277.73Z"/>
            </g>
        </g>
    </g>
</svg>
