<?xml version="1.0" encoding="UTF-8" standalone="no"?>
<!DOCTYPE svg PUBLIC "-//W3C//DTD SVG 1.1//EN" "http://www.w3.org/Graphics/SVG/1.1/DTD/svg11.dtd">
<svg width="100%" height="100%" viewBox="0 0 486 486" version="1.1" xmlns="http://www.w3.org/2000/svg" xmlns:xlink="http://www.w3.org/1999/xlink" xml:space="preserve" xmlns:serif="http://www.serif.com/" style="fill-rule:evenodd;clip-rule:evenodd;stroke-linejoin:round;stroke-miterlimit:2;">
    <g transform="matrix(1,0,0,1,-4422.27,-3788.4)">
        <g transform="matrix(16.6667,0,0,16.6667,0,0)">
            <g transform="matrix(1,0,0,1,-22.4938,-50.0862)">
                <path d="M294.703,284.076L296.503,285.876" style="fill:none;fill-rule:nonzero;"/>
            </g>
        </g>
        <g transform="matrix(16.6667,0,0,16.6667,0,0)">
            <g transform="matrix(1,0,0,1,-22.4938,-50.0862)">
                <path d="M294.5,284.28L296.3,286.08C296.412,286.192 296.594,286.192 296.707,286.08C296.819,285.967 296.819,285.785 296.707,285.672L294.907,283.872C294.794,283.76 294.612,283.76 294.5,283.872C294.387,283.985 294.387,284.167 294.5,284.28Z"/>
            </g>
        </g>
        <g transform="matrix(16.6667,0,0,16.6667,0,0)">
            <g transform="matrix(1,0,0,1,-22.4938,-50.0862)">
                <path d="M294.703,284.076L296.503,282.276" style="fill:none;fill-rule:nonzero;"/>
            </g>
        </g>
        <g transform="matrix(16.6667,0,0,16.6667,0,0)">
            <g transform="matrix(1,0,0,1,-22.4938,-50.0862)">
                <path d="M294.907,284.28L296.707,282.48C296.819,282.367 296.819,282.185 296.707,282.072C296.594,281.96 296.412,281.96 296.3,282.072L294.5,283.872C294.387,283.985 294.387,284.167 294.5,284.28C294.612,284.392 294.794,284.392 294.907,284.28Z"/>
            </g>
        </g>
        <g transform="matrix(16.6667,0,0,16.6667,0,0)">
            <g transform="matrix(1,0,0,1,-22.4938,-50.0862)">
                <path d="M294.703,284.076L309.744,284.04" style="fill:none;fill-rule:nonzero;"/>
            </g>
        </g>
        <g transform="matrix(16.6667,0,0,16.6667,0,0)">
            <g transform="matrix(1,0,0,1,-22.4938,-50.0862)">
                <path d="M294.704,284.364L309.745,284.328C309.904,284.328 310.032,284.198 310.032,284.039C310.032,283.88 309.902,283.752 309.743,283.752L294.703,283.788C294.544,283.788 294.415,283.918 294.415,284.077C294.416,284.236 294.545,284.364 294.704,284.364Z"/>
            </g>
        </g>
        <g transform="matrix(16.6667,0,0,16.6667,0,0)">
            <g transform="matrix(1,0,0,1,-22.4938,-50.0862)">
                <path d="M309.946,284.076L308.146,282.276" style="fill:none;fill-rule:nonzero;"/>
            </g>
        </g>
        <g transform="matrix(16.6667,0,0,16.6667,0,0)">
            <g transform="matrix(1,0,0,1,-22.4938,-50.0862)">
                <path d="M310.149,283.872L308.349,282.072C308.237,281.96 308.054,281.96 307.942,282.072C307.83,282.185 307.83,282.367 307.942,282.48L309.742,284.28C309.854,284.392 310.037,284.392 310.149,284.28C310.262,284.167 310.262,283.985 310.149,283.872Z"/>
            </g>
        </g>
        <g transform="matrix(16.6667,0,0,16.6667,0,0)">
            <g transform="matrix(1,0,0,1,-22.4938,-50.0862)">
                <path d="M309.946,284.076L308.146,285.876" style="fill:none;fill-rule:nonzero;"/>
            </g>
        </g>
        <g transform="matrix(16.6667,0,0,16.6667,0,0)">
            <g transform="matrix(1,0,0,1,-22.4938,-50.0862)">
                <path d="M309.742,283.872L307.942,285.672C307.83,285.785 307.83,285.967 307.942,286.08C308.054,286.192 308.237,286.192 308.349,286.08L310.149,284.28C310.262,284.167 310.262,283.985 310.149,283.872C310.037,283.76 309.854,283.76 309.742,283.872Z"/>
            </g>
        </g>
        <g transform="matrix(16.6667,0,0,16.6667,0,0)">
            <g transform="matrix(1,0,0,1,-22.4938,-50.0862)">
                <path d="M312.048,298.339L309.744,286.459" style="fill:none;fill-rule:nonzero;"/>
            </g>
        </g>
        <g transform="matrix(16.6667,0,0,16.6667,0,0)">
            <g transform="matrix(1,0,0,1,-22.4938,-50.0862)">
                <path d="M312.331,298.284L310.027,286.404C309.996,286.248 309.845,286.146 309.689,286.176C309.533,286.207 309.431,286.358 309.461,286.514L311.765,298.394C311.796,298.55 311.947,298.652 312.103,298.622C312.259,298.592 312.361,298.44 312.331,298.284Z"/>
            </g>
        </g>
        <g transform="matrix(16.6667,0,0,16.6667,0,0)">
            <g transform="matrix(1,0,0,1,-22.4938,-50.0862)">
                <path d="M291.881,298.339L309.708,286.459" style="fill:none;fill-rule:nonzero;"/>
            </g>
        </g>
        <g transform="matrix(16.6667,0,0,16.6667,0,0)">
            <g transform="matrix(1,0,0,1,-22.4938,-50.0862)">
                <path d="M292.041,298.579L309.868,286.699C310,286.611 310.036,286.432 309.948,286.299C309.86,286.167 309.681,286.131 309.548,286.22L291.721,298.1C291.589,298.188 291.553,298.367 291.641,298.499C291.729,298.631 291.908,298.667 292.041,298.579Z"/>
            </g>
        </g>
        <g transform="matrix(16.6667,0,0,16.6667,0,0)">
            <g transform="matrix(1,0,0,1,-22.4938,-50.0862)">
                <path d="M294.401,286.459L312.041,298.339" style="fill:none;fill-rule:nonzero;"/>
            </g>
        </g>
        <g transform="matrix(16.6667,0,0,16.6667,0,0)">
            <g transform="matrix(1,0,0,1,-22.4938,-50.0862)">
                <path d="M294.24,286.698L311.88,298.578C312.012,298.667 312.191,298.632 312.28,298.5C312.368,298.368 312.334,298.189 312.202,298.1L294.562,286.22C294.43,286.132 294.251,286.166 294.162,286.298C294.073,286.43 294.108,286.609 294.24,286.698Z"/>
            </g>
        </g>
        <g transform="matrix(16.6667,0,0,16.6667,0,0)">
            <g transform="matrix(1,0,0,1,-22.4938,-50.0862)">
                <path d="M291.881,298.339L294.401,286.459" style="fill:none;fill-rule:nonzero;"/>
            </g>
        </g>
        <g transform="matrix(16.6667,0,0,16.6667,0,0)">
            <g transform="matrix(1,0,0,1,-22.4938,-50.0862)">
                <path d="M292.163,298.399L294.683,286.519C294.716,286.363 294.616,286.21 294.461,286.177C294.305,286.144 294.152,286.244 294.119,286.399L291.599,298.279C291.566,298.435 291.666,298.588 291.821,298.621C291.977,298.654 292.13,298.554 292.163,298.399Z"/>
            </g>
        </g>
        <g transform="matrix(16.6667,0,0,16.6667,0,0)">
            <g transform="matrix(1,0,0,1,-22.4938,-50.0862)">
                <path d="M290.52,283.68L288.504,282.168" style="fill:none;fill-rule:nonzero;"/>
            </g>
        </g>
        <g transform="matrix(16.6667,0,0,16.6667,0,0)">
            <g transform="matrix(1,0,0,1,-22.4938,-50.0862)">
                <path d="M290.622,283.544L288.606,282.032C288.531,281.976 288.424,281.991 288.368,282.066C288.312,282.141 288.327,282.248 288.402,282.304L290.418,283.816C290.493,283.872 290.6,283.857 290.656,283.782C290.712,283.707 290.697,283.6 290.622,283.544Z"/>
            </g>
        </g>
        <g transform="matrix(16.6667,0,0,16.6667,0,0)">
            <g transform="matrix(1,0,0,1,-22.4938,-50.0862)">
                <circle cx="302.4" cy="291.96" r="14.4" style="fill-opacity:0;"/>
            </g>
        </g>
        <g transform="matrix(16.6667,0,0,16.6667,0,0)">
            <g transform="matrix(1,0,0,1,-22.4938,-50.0862)">
                <path d="M302.4,277.39C294.359,277.39 287.83,283.919 287.83,291.96C287.83,300.001 294.359,306.53 302.4,306.53C310.441,306.53 316.97,300.001 316.97,291.96C316.97,283.919 310.441,277.39 302.4,277.39ZM302.4,277.73C310.254,277.73 316.63,284.106 316.63,291.96C316.63,299.814 310.254,306.19 302.4,306.19C294.546,306.19 288.17,299.814 288.17,291.96C288.17,284.106 294.546,277.73 302.4,277.73Z"/>
            </g>
        </g>
    </g>
</svg>
