<?xml version="1.0" encoding="UTF-8" standalone="no"?>
<!DOCTYPE svg PUBLIC "-//W3C//DTD SVG 1.1//EN" "http://www.w3.org/Graphics/SVG/1.1/DTD/svg11.dtd">
<svg width="100%" height="100%" viewBox="0 0 498 486" version="1.1" xmlns="http://www.w3.org/2000/svg" xmlns:xlink="http://www.w3.org/1999/xlink" xml:space="preserve" xmlns:serif="http://www.serif.com/" style="fill-rule:evenodd;clip-rule:evenodd;stroke-linejoin:round;stroke-miterlimit:2;">
    <g transform="matrix(1,0,0,1,-4983.27,-3788.4)">
        <g transform="matrix(16.6667,0,0,16.6667,0,0)">
            <g transform="matrix(1,0,0,1,313.746,240.434)">
                <path d="M-1.896,0L-0.301,-2.149L-1.707,-4.123L-1.058,-4.123L-0.309,-3.066C-0.154,-2.846 -0.043,-2.678 0.022,-2.559C0.114,-2.709 0.223,-2.866 0.349,-3.029L1.178,-4.123L1.772,-4.123L0.323,-2.18L1.884,0L1.209,0L0.172,-1.471C0.113,-1.555 0.053,-1.647 -0.008,-1.747C-0.1,-1.597 -0.166,-1.493 -0.205,-1.437L-1.24,0L-1.896,0Z" style="fill-opacity:0;fill-rule:nonzero;"/>
            </g>
        </g>
        <g transform="matrix(16.6667,0,0,16.6667,0,0)">
            <g transform="matrix(1,0,0,1,313.746,240.434)">
                <path d="M-0.657,-2.152L-1.942,-3.956C-2.004,-4.044 -2.013,-4.159 -1.963,-4.255C-1.914,-4.351 -1.815,-4.411 -1.707,-4.411L-1.058,-4.411C-0.964,-4.411 -0.876,-4.366 -0.822,-4.289C-0.822,-4.289 -0.074,-3.232 -0.074,-3.232C-0.037,-3.18 -0.003,-3.13 0.029,-3.084C0.058,-3.123 0.088,-3.163 0.119,-3.203L0.949,-4.297C1.003,-4.369 1.088,-4.411 1.178,-4.411L1.772,-4.411C1.881,-4.411 1.98,-4.35 2.029,-4.252C2.078,-4.155 2.068,-4.038 2.003,-3.951L0.68,-2.176L2.119,-0.168C2.181,-0.08 2.19,0.036 2.141,0.132C2.091,0.228 1.992,0.288 1.884,0.288L1.209,0.288C1.116,0.288 1.028,0.243 0.974,0.166L-0.005,-1.222L-1.007,0.168C-1.061,0.243 -1.148,0.288 -1.24,0.288L-1.896,0.288C-2.004,0.288 -2.104,0.227 -2.153,0.129C-2.202,0.032 -2.192,-0.084 -2.127,-0.172L-0.657,-2.152ZM-0.044,-2.279C-0.005,-2.202 -0.003,-2.112 -0.037,-2.033C-0.028,-2.034 -0.019,-2.035 -0.009,-2.035C0.023,-2.035 0.055,-2.029 0.084,-2.019C0.033,-2.095 0.022,-2.189 0.051,-2.273C0.04,-2.272 0.028,-2.271 0.016,-2.271C-0.004,-2.272 -0.025,-2.275 -0.044,-2.279Z"/>
            </g>
        </g>
        <g transform="matrix(16.6667,0,0,16.6667,0,0)">
            <g transform="matrix(1,0,0,1,-22.4938,-50.0862)">
                <path d="M334.8,285.991L337.68,290.311" style="fill:none;fill-rule:nonzero;"/>
            </g>
        </g>
        <g transform="matrix(16.6667,0,0,16.6667,0,0)">
            <g transform="matrix(1,0,0,1,-22.4938,-50.0862)">
                <path d="M334.56,286.151L337.44,290.471C337.529,290.603 337.707,290.639 337.84,290.551C337.972,290.463 338.008,290.284 337.92,290.151L335.04,285.831C334.951,285.699 334.773,285.663 334.64,285.752C334.508,285.84 334.472,286.019 334.56,286.151Z"/>
            </g>
        </g>
        <g transform="matrix(16.6667,0,0,16.6667,0,0)">
            <g transform="matrix(1,0,0,1,-22.4938,-50.0862)">
                <path d="M337.68,285.991L334.8,290.311" style="fill:none;fill-rule:nonzero;"/>
            </g>
        </g>
        <g transform="matrix(16.6667,0,0,16.6667,0,0)">
            <g transform="matrix(1,0,0,1,-22.4938,-50.0862)">
                <path d="M337.44,285.831L334.56,290.151C334.472,290.284 334.508,290.463 334.64,290.551C334.773,290.639 334.951,290.603 335.04,290.471L337.92,286.151C338.008,286.019 337.972,285.84 337.84,285.752C337.707,285.663 337.529,285.699 337.44,285.831Z"/>
            </g>
        </g>
        <g transform="matrix(16.6667,0,0,16.6667,0,0)">
            <g transform="matrix(1,0,0,1,-22.4938,-50.0862)">
                <path d="M336.24,305.28L325.44,292.68" style="fill:none;fill-rule:nonzero;"/>
            </g>
        </g>
        <g transform="matrix(16.6667,0,0,16.6667,0,0)">
            <g transform="matrix(1,0,0,1,-22.4938,-50.0862)">
                <path d="M336.459,305.093L325.659,292.493C325.555,292.372 325.373,292.358 325.253,292.461C325.132,292.565 325.118,292.747 325.221,292.867L336.021,305.467C336.125,305.588 336.307,305.602 336.427,305.499C336.548,305.395 336.562,305.213 336.459,305.093Z"/>
            </g>
        </g>
        <g transform="matrix(16.6667,0,0,16.6667,0,0)">
            <g transform="matrix(1,0,0,1,-22.4938,-50.0862)">
                <path d="M336.24,305.28L345.96,292.68" style="fill:none;fill-rule:nonzero;"/>
            </g>
        </g>
        <g transform="matrix(16.6667,0,0,16.6667,0,0)">
            <g transform="matrix(1,0,0,1,-22.4938,-50.0862)">
                <path d="M336.468,305.456L346.188,292.856C346.285,292.73 346.262,292.549 346.136,292.452C346.01,292.355 345.829,292.378 345.732,292.504L336.012,305.104C335.915,305.23 335.938,305.411 336.064,305.508C336.19,305.605 336.371,305.582 336.468,305.456Z"/>
            </g>
        </g>
        <g transform="matrix(16.6667,0,0,16.6667,0,0)">
            <g transform="matrix(1,0,0,1,-22.4938,-50.0862)">
                <path d="M325.44,292.68L322.2,295.92" style="fill:none;fill-rule:nonzero;"/>
            </g>
        </g>
        <g transform="matrix(16.6667,0,0,16.6667,0,0)">
            <g transform="matrix(1,0,0,1,-22.4938,-50.0862)">
                <path d="M325.236,292.476L321.996,295.716C321.884,295.829 321.884,296.011 321.996,296.124C322.109,296.236 322.291,296.236 322.404,296.124L325.644,292.884C325.756,292.771 325.756,292.589 325.644,292.476C325.531,292.364 325.349,292.364 325.236,292.476Z"/>
            </g>
        </g>
        <g transform="matrix(16.6667,0,0,16.6667,0,0)">
            <g transform="matrix(1,0,0,1,-22.4938,-50.0862)">
                <path d="M345.96,292.68L349.56,296.28" style="fill:none;fill-rule:nonzero;"/>
            </g>
        </g>
        <g transform="matrix(16.6667,0,0,16.6667,0,0)">
            <g transform="matrix(1,0,0,1,-22.4938,-50.0862)">
                <path d="M345.756,292.884L349.356,296.484C349.469,296.596 349.651,296.596 349.764,296.484C349.876,296.371 349.876,296.189 349.764,296.076L346.164,292.476C346.051,292.364 345.869,292.364 345.756,292.476C345.644,292.589 345.644,292.771 345.756,292.884Z"/>
            </g>
        </g>
        <g transform="matrix(16.6667,0,0,16.6667,0,0)">
            <g transform="matrix(1,0,0,1,-22.4938,-50.0862)">
                <path d="M331.2,295.92L335.88,295.92" style="fill:none;fill-rule:nonzero;"/>
            </g>
        </g>
        <g transform="matrix(16.6667,0,0,16.6667,0,0)">
            <g transform="matrix(1,0,0,1,-22.4938,-50.0862)">
                <path d="M331.2,296.208L335.88,296.208C336.039,296.208 336.168,296.079 336.168,295.92C336.168,295.761 336.039,295.632 335.88,295.632L331.2,295.632C331.041,295.632 330.912,295.761 330.912,295.92C330.912,296.079 331.041,296.208 331.2,296.208Z"/>
            </g>
        </g>
        <g transform="matrix(16.6667,0,0,16.6667,0,0)">
            <g transform="matrix(1,0,0,1,-22.4938,-50.0862)">
                <circle cx="335.88" cy="288.36" r="6.569" style="fill-opacity:0;"/>
            </g>
        </g>
        <g transform="matrix(16.6667,0,0,16.6667,0,0)">
            <g transform="matrix(1,0,0,1,-22.4938,-50.0862)">
                <path d="M335.88,281.503C332.095,281.503 329.023,284.575 329.023,288.36C329.023,292.145 332.095,295.217 335.88,295.217C339.665,295.217 342.737,292.145 342.737,288.36C342.737,284.575 339.665,281.503 335.88,281.503ZM335.88,282.079C339.347,282.079 342.161,284.893 342.161,288.36C342.161,291.827 339.347,294.641 335.88,294.641C332.413,294.641 329.599,291.827 329.599,288.36C329.599,284.893 332.413,282.079 335.88,282.079Z"/>
            </g>
        </g>
        <g transform="matrix(16.6667,0,0,16.6667,0,0)">
            <g transform="matrix(1,0,0,1,-22.4938,-50.0862)">
                <path d="M327.6,288.36L331.2,295.92" style="fill:none;fill-rule:nonzero;"/>
            </g>
        </g>
        <g transform="matrix(16.6667,0,0,16.6667,0,0)">
            <g transform="matrix(1,0,0,1,-22.4938,-50.0862)">
                <path d="M327.34,288.484L330.94,296.044C331.008,296.187 331.18,296.248 331.324,296.18C331.467,296.112 331.528,295.94 331.46,295.796L327.86,288.236C327.792,288.093 327.62,288.032 327.476,288.1C327.333,288.168 327.272,288.34 327.34,288.484Z"/>
            </g>
        </g>
        <g transform="matrix(16.6667,0,0,16.6667,0,0)">
            <g transform="matrix(1,0,0,1,-22.4938,-50.0862)">
                <path d="M335.88,295.92L340.56,295.92" style="fill:none;fill-rule:nonzero;"/>
            </g>
        </g>
        <g transform="matrix(16.6667,0,0,16.6667,0,0)">
            <g transform="matrix(1,0,0,1,-22.4938,-50.0862)">
                <path d="M335.88,296.208L340.56,296.208C340.719,296.208 340.848,296.079 340.848,295.92C340.848,295.761 340.719,295.632 340.56,295.632L335.88,295.632C335.721,295.632 335.592,295.761 335.592,295.92C335.592,296.079 335.721,296.208 335.88,296.208Z"/>
            </g>
        </g>
        <g transform="matrix(16.6667,0,0,16.6667,0,0)">
            <g transform="matrix(1,0,0,1,-22.4938,-50.0862)">
                <path d="M340.56,280.8L335.88,280.8" style="fill:none;fill-rule:nonzero;"/>
            </g>
        </g>
        <g transform="matrix(16.6667,0,0,16.6667,0,0)">
            <g transform="matrix(1,0,0,1,-22.4938,-50.0862)">
                <path d="M340.56,280.512L335.88,280.512C335.721,280.512 335.592,280.641 335.592,280.8C335.592,280.959 335.721,281.088 335.88,281.088L340.56,281.088C340.719,281.088 340.848,280.959 340.848,280.8C340.848,280.641 340.719,280.512 340.56,280.512Z"/>
            </g>
        </g>
        <g transform="matrix(16.6667,0,0,16.6667,0,0)">
            <g transform="matrix(1,0,0,1,-22.4938,-50.0862)">
                <path d="M335.88,280.8L331.2,280.8" style="fill:none;fill-rule:nonzero;"/>
            </g>
        </g>
        <g transform="matrix(16.6667,0,0,16.6667,0,0)">
            <g transform="matrix(1,0,0,1,-22.4938,-50.0862)">
                <path d="M335.88,280.512L331.2,280.512C331.041,280.512 330.912,280.641 330.912,280.8C330.912,280.959 331.041,281.088 331.2,281.088L335.88,281.088C336.039,281.088 336.168,280.959 336.168,280.8C336.168,280.641 336.039,280.512 335.88,280.512Z"/>
            </g>
        </g>
        <g transform="matrix(16.6667,0,0,16.6667,0,0)">
            <g transform="matrix(1,0,0,1,-22.4938,-50.0862)">
                <path d="M344.16,288.36L340.56,280.8" style="fill:none;fill-rule:nonzero;"/>
            </g>
        </g>
        <g transform="matrix(16.6667,0,0,16.6667,0,0)">
            <g transform="matrix(1,0,0,1,-22.4938,-50.0862)">
                <path d="M344.42,288.236L340.82,280.676C340.752,280.533 340.58,280.472 340.436,280.54C340.293,280.608 340.232,280.78 340.3,280.924L343.9,288.484C343.968,288.627 344.14,288.688 344.284,288.62C344.427,288.552 344.488,288.38 344.42,288.236Z"/>
            </g>
        </g>
        <g transform="matrix(16.6667,0,0,16.6667,0,0)">
            <g transform="matrix(1,0,0,1,-22.4938,-50.0862)">
                <path d="M331.2,280.8L327.6,288.36" style="fill:none;fill-rule:nonzero;"/>
            </g>
        </g>
        <g transform="matrix(16.6667,0,0,16.6667,0,0)">
            <g transform="matrix(1,0,0,1,-22.4938,-50.0862)">
                <path d="M330.94,280.676L327.34,288.236C327.272,288.38 327.333,288.552 327.476,288.62C327.62,288.688 327.792,288.627 327.86,288.484L331.46,280.924C331.528,280.78 331.467,280.608 331.324,280.54C331.18,280.472 331.008,280.533 330.94,280.676Z"/>
            </g>
        </g>
        <g transform="matrix(16.6667,0,0,16.6667,0,0)">
            <g transform="matrix(1,0,0,1,-22.4938,-50.0862)">
                <path d="M340.56,295.92L344.16,288.36" style="fill:none;fill-rule:nonzero;"/>
            </g>
        </g>
        <g transform="matrix(16.6667,0,0,16.6667,0,0)">
            <g transform="matrix(1,0,0,1,-22.4938,-50.0862)">
                <path d="M340.82,296.044L344.42,288.484C344.488,288.34 344.427,288.168 344.284,288.1C344.14,288.032 343.968,288.093 343.9,288.236L340.3,295.796C340.232,295.94 340.293,296.112 340.436,296.18C340.58,296.248 340.752,296.187 340.82,296.044Z"/>
            </g>
        </g>
        <g transform="matrix(16.6667,0,0,16.6667,0,0)">
            <g transform="matrix(1,0,0,1,-22.4938,-50.0862)">
                <circle cx="335.88" cy="288.36" r="5.76" style="fill-opacity:0;"/>
            </g>
        </g>
        <g transform="matrix(16.6667,0,0,16.6667,0,0)">
            <g transform="matrix(1,0,0,1,-22.4938,-50.0862)">
                <path d="M335.88,282.312C332.542,282.312 329.832,285.022 329.832,288.36C329.832,291.698 332.542,294.408 335.88,294.408C339.218,294.408 341.928,291.698 341.928,288.36C341.928,285.022 339.218,282.312 335.88,282.312ZM335.88,282.888C338.9,282.888 341.352,285.34 341.352,288.36C341.352,291.38 338.9,293.832 335.88,293.832C332.86,293.832 330.408,291.38 330.408,288.36C330.408,285.34 332.86,282.888 335.88,282.888Z"/>
            </g>
        </g>
        <g transform="matrix(16.6667,0,0,16.6667,0,0)">
            <g transform="matrix(1,0,0,1,-22.4938,-50.0862)">
                <circle cx="336.96" cy="291.96" r="14.4" style="fill-opacity:0;"/>
            </g>
        </g>
        <g transform="matrix(16.6667,0,0,16.6667,0,0)">
            <g transform="matrix(1,0,0,1,-23.3938,-50.0862)">
                <path d="M336.96,277.39C328.919,277.39 322.39,283.919 322.39,291.96C322.39,300.001 328.919,306.53 336.96,306.53C345.001,306.53 351.53,300.001 351.53,291.96C351.53,283.919 345.001,277.39 336.96,277.39ZM336.96,277.73C344.814,277.73 351.19,284.106 351.19,291.96C351.19,299.814 344.814,306.19 336.96,306.19C329.106,306.19 322.73,299.814 322.73,291.96C322.73,284.106 329.106,277.73 336.96,277.73Z"/>
            </g>
        </g>
        <g transform="matrix(16.6667,0,0,16.6667,0,0)">
            <g transform="matrix(1,0,0,1,-22.4938,-50.0862)">
                <path d="M325.08,283.68L323.064,282.168" style="fill:none;fill-rule:nonzero;"/>
            </g>
        </g>
        <g transform="matrix(16.6667,0,0,16.6667,0,0)">
            <g transform="matrix(1,0,0,1,-23.3938,-50.0862)">
                <path d="M325.182,283.544L323.166,282.032C323.091,281.976 322.984,281.991 322.928,282.066C322.872,282.141 322.887,282.248 322.962,282.304L324.978,283.816C325.053,283.872 325.16,283.857 325.216,283.782C325.272,283.707 325.257,283.6 325.182,283.544Z"/>
            </g>
        </g>
    </g>
</svg>
