<?xml version="1.0" encoding="UTF-8" standalone="no"?>
<!DOCTYPE svg PUBLIC "-//W3C//DTD SVG 1.1//EN" "http://www.w3.org/Graphics/SVG/1.1/DTD/svg11.dtd">
<svg width="100%" height="100%" viewBox="0 0 486 486" version="1.1" xmlns="http://www.w3.org/2000/svg" xmlns:xlink="http://www.w3.org/1999/xlink" xml:space="preserve" xmlns:serif="http://www.serif.com/" style="fill-rule:evenodd;clip-rule:evenodd;stroke-linejoin:round;stroke-miterlimit:2;">
    <g transform="matrix(1,0,0,1,-1542.27,-4328.4)">
        <g transform="matrix(16.6667,0,0,16.6667,0,0)">
            <g transform="matrix(1,0,0,1,-22.4938,-50.0862)">
                <path d="M139.32,325.08L142.92,328.68" style="fill:none;fill-rule:nonzero;"/>
            </g>
        </g>
        <g transform="matrix(16.6667,0,0,16.6667,0,0)">
            <g transform="matrix(1,0,0,1,-22.4938,-50.0862)">
                <path d="M139.116,325.284L142.716,328.884C142.829,328.996 143.011,328.996 143.124,328.884C143.236,328.771 143.236,328.589 143.124,328.476L139.524,324.876C139.411,324.764 139.229,324.764 139.116,324.876C139.004,324.989 139.004,325.171 139.116,325.284Z"/>
            </g>
        </g>
        <g transform="matrix(16.6667,0,0,16.6667,0,0)">
            <g transform="matrix(1,0,0,1,-22.4938,-50.0862)">
                <path d="M133.92,328.32L137.52,320.76" style="fill:none;fill-rule:nonzero;"/>
            </g>
        </g>
        <g transform="matrix(16.6667,0,0,16.6667,0,0)">
            <g transform="matrix(1,0,0,1,-22.4938,-50.0862)">
                <path d="M134.18,328.444L137.78,320.884C137.848,320.74 137.787,320.568 137.644,320.5C137.5,320.432 137.328,320.493 137.26,320.636L133.66,328.196C133.592,328.34 133.653,328.512 133.796,328.58C133.94,328.648 134.112,328.587 134.18,328.444Z"/>
            </g>
        </g>
        <g transform="matrix(16.6667,0,0,16.6667,0,0)">
            <g transform="matrix(1,0,0,1,-22.4938,-50.0862)">
                <path d="M133.92,313.2L129.24,313.2" style="fill:none;fill-rule:nonzero;"/>
            </g>
        </g>
        <g transform="matrix(16.6667,0,0,16.6667,0,0)">
            <g transform="matrix(1,0,0,1,-22.4938,-50.0862)">
                <path d="M133.92,312.912L129.24,312.912C129.081,312.912 128.952,313.041 128.952,313.2C128.952,313.359 129.081,313.488 129.24,313.488L133.92,313.488C134.079,313.488 134.208,313.359 134.208,313.2C134.208,313.041 134.079,312.912 133.92,312.912Z"/>
            </g>
        </g>
        <g transform="matrix(16.6667,0,0,16.6667,0,0)">
            <g transform="matrix(1,0,0,1,-22.4938,-50.0862)">
                <path d="M120.96,320.76L124.56,328.32" style="fill:none;fill-rule:nonzero;"/>
            </g>
        </g>
        <g transform="matrix(16.6667,0,0,16.6667,0,0)">
            <g transform="matrix(1,0,0,1,-22.4938,-50.0862)">
                <path d="M120.7,320.884L124.3,328.444C124.368,328.587 124.54,328.648 124.684,328.58C124.827,328.512 124.888,328.34 124.82,328.196L121.22,320.636C121.152,320.493 120.98,320.432 120.836,320.5C120.693,320.568 120.632,320.74 120.7,320.884Z"/>
            </g>
        </g>
        <g transform="matrix(16.6667,0,0,16.6667,0,0)">
            <g transform="matrix(1,0,0,1,-22.4938,-50.0862)">
                <path d="M137.52,320.76L133.92,313.2" style="fill:none;fill-rule:nonzero;"/>
            </g>
        </g>
        <g transform="matrix(16.6667,0,0,16.6667,0,0)">
            <g transform="matrix(1,0,0,1,-22.4938,-50.0862)">
                <path d="M137.78,320.636L134.18,313.076C134.112,312.933 133.94,312.872 133.796,312.94C133.653,313.008 133.592,313.18 133.66,313.324L137.26,320.884C137.328,321.027 137.5,321.088 137.644,321.02C137.787,320.952 137.848,320.78 137.78,320.636Z"/>
            </g>
        </g>
        <g transform="matrix(16.6667,0,0,16.6667,0,0)">
            <g transform="matrix(1,0,0,1,-22.4938,-50.0862)">
                <path d="M124.56,328.32L129.24,328.32" style="fill:none;fill-rule:nonzero;"/>
            </g>
        </g>
        <g transform="matrix(16.6667,0,0,16.6667,0,0)">
            <g transform="matrix(1,0,0,1,-22.4938,-50.0862)">
                <path d="M124.56,328.608L129.24,328.608C129.399,328.608 129.528,328.479 129.528,328.32C129.528,328.161 129.399,328.032 129.24,328.032L124.56,328.032C124.401,328.032 124.272,328.161 124.272,328.32C124.272,328.479 124.401,328.608 124.56,328.608Z"/>
            </g>
        </g>
        <g transform="matrix(16.6667,0,0,16.6667,0,0)">
            <g transform="matrix(1,0,0,1,-22.4938,-50.0862)">
                <path d="M124.56,313.2L120.96,320.76" style="fill:none;fill-rule:nonzero;"/>
            </g>
        </g>
        <g transform="matrix(16.6667,0,0,16.6667,0,0)">
            <g transform="matrix(1,0,0,1,-22.4938,-50.0862)">
                <path d="M124.3,313.076L120.7,320.636C120.632,320.78 120.693,320.952 120.836,321.02C120.98,321.088 121.152,321.027 121.22,320.884L124.82,313.324C124.888,313.18 124.827,313.008 124.684,312.94C124.54,312.872 124.368,312.933 124.3,313.076Z"/>
            </g>
        </g>
        <g transform="matrix(16.6667,0,0,16.6667,0,0)">
            <g transform="matrix(1,0,0,1,-22.4938,-50.0862)">
                <path d="M129.24,328.32L133.92,328.32" style="fill:none;fill-rule:nonzero;"/>
            </g>
        </g>
        <g transform="matrix(16.6667,0,0,16.6667,0,0)">
            <g transform="matrix(1,0,0,1,-22.4938,-50.0862)">
                <path d="M129.24,328.608L133.92,328.608C134.079,328.608 134.208,328.479 134.208,328.32C134.208,328.161 134.079,328.032 133.92,328.032L129.24,328.032C129.081,328.032 128.952,328.161 128.952,328.32C128.952,328.479 129.081,328.608 129.24,328.608Z"/>
            </g>
        </g>
        <g transform="matrix(16.6667,0,0,16.6667,0,0)">
            <g transform="matrix(1,0,0,1,-22.4938,-50.0862)">
                <path d="M129.24,313.2L124.56,313.2" style="fill:none;fill-rule:nonzero;"/>
            </g>
        </g>
        <g transform="matrix(16.6667,0,0,16.6667,0,0)">
            <g transform="matrix(1,0,0,1,-22.4938,-50.0862)">
                <path d="M129.24,312.912L124.56,312.912C124.401,312.912 124.272,313.041 124.272,313.2C124.272,313.359 124.401,313.488 124.56,313.488L129.24,313.488C129.399,313.488 129.528,313.359 129.528,313.2C129.528,313.041 129.399,312.912 129.24,312.912Z"/>
            </g>
        </g>
        <g transform="matrix(16.6667,0,0,16.6667,0,0)">
            <g transform="matrix(1,0,0,1,-22.4938,-50.0862)">
                <path d="M129.6,337.68L118.8,325.08" style="fill:none;fill-rule:nonzero;"/>
            </g>
        </g>
        <g transform="matrix(16.6667,0,0,16.6667,0,0)">
            <g transform="matrix(1,0,0,1,-22.4938,-50.0862)">
                <path d="M129.819,337.493L119.019,324.893C118.915,324.772 118.733,324.758 118.613,324.861C118.492,324.965 118.478,325.147 118.581,325.267L129.381,337.867C129.485,337.988 129.667,338.002 129.787,337.899C129.908,337.795 129.922,337.613 129.819,337.493Z"/>
            </g>
        </g>
        <g transform="matrix(16.6667,0,0,16.6667,0,0)">
            <g transform="matrix(1,0,0,1,-22.4938,-50.0862)">
                <circle cx="129.24" cy="320.76" r="6.569" style="fill-opacity:0;"/>
            </g>
        </g>
        <g transform="matrix(16.6667,0,0,16.6667,0,0)">
            <g transform="matrix(1,0,0,1,-22.4938,-50.0862)">
                <path d="M129.24,313.903C125.455,313.903 122.383,316.975 122.383,320.76C122.383,324.545 125.455,327.617 129.24,327.617C133.025,327.617 136.097,324.545 136.097,320.76C136.097,316.975 133.025,313.903 129.24,313.903ZM129.24,314.479C132.707,314.479 135.521,317.293 135.521,320.76C135.521,324.227 132.707,327.041 129.24,327.041C125.773,327.041 122.959,324.227 122.959,320.76C122.959,317.293 125.773,314.479 129.24,314.479Z"/>
            </g>
        </g>
        <g transform="matrix(16.6667,0,0,16.6667,0,0)">
            <g transform="matrix(1,0,0,1,-22.4938,-50.0862)">
                <path d="M129.6,337.68L139.32,325.08" style="fill:none;fill-rule:nonzero;"/>
            </g>
        </g>
        <g transform="matrix(16.6667,0,0,16.6667,0,0)">
            <g transform="matrix(1,0,0,1,-22.4938,-50.0862)">
                <path d="M129.828,337.856L139.548,325.256C139.645,325.13 139.622,324.949 139.496,324.852C139.37,324.755 139.189,324.778 139.092,324.904L129.372,337.504C129.275,337.63 129.298,337.811 129.424,337.908C129.55,338.005 129.731,337.982 129.828,337.856Z"/>
            </g>
        </g>
        <g transform="matrix(16.6667,0,0,16.6667,0,0)">
            <g transform="matrix(1,0,0,1,-22.4938,-50.0862)">
                <circle cx="129.24" cy="320.76" r="5.76" style="fill-opacity:0;"/>
            </g>
        </g>
        <g transform="matrix(16.6667,0,0,16.6667,0,0)">
            <g transform="matrix(1,0,0,1,-22.4938,-50.0862)">
                <path d="M129.24,314.712C125.902,314.712 123.192,317.422 123.192,320.76C123.192,324.098 125.902,326.808 129.24,326.808C132.578,326.808 135.288,324.098 135.288,320.76C135.288,317.422 132.578,314.712 129.24,314.712ZM129.24,315.288C132.26,315.288 134.712,317.74 134.712,320.76C134.712,323.78 132.26,326.232 129.24,326.232C126.22,326.232 123.768,323.78 123.768,320.76C123.768,317.74 126.22,315.288 129.24,315.288Z"/>
            </g>
        </g>
        <g transform="matrix(16.6667,0,0,16.6667,0,0)">
            <g transform="matrix(1,0,0,1,-22.4938,-50.0862)">
                <path d="M118.8,325.08L115.56,328.32" style="fill:none;fill-rule:nonzero;"/>
            </g>
        </g>
        <g transform="matrix(16.6667,0,0,16.6667,0,0)">
            <g transform="matrix(1,0,0,1,-22.4938,-50.0862)">
                <path d="M118.596,324.876L115.356,328.116C115.244,328.229 115.244,328.411 115.356,328.524C115.469,328.636 115.651,328.636 115.764,328.524L119.004,325.284C119.116,325.171 119.116,324.989 119.004,324.876C118.891,324.764 118.709,324.764 118.596,324.876Z"/>
            </g>
        </g>
        <g transform="matrix(16.6667,0,0,16.6667,0,0)">
            <g transform="matrix(1,0,0,1,107.106,272.834)">
                <path d="M-3.817,0L-2.222,-2.149L-3.628,-4.123L-2.978,-4.123L-2.23,-3.066C-2.075,-2.846 -1.964,-2.678 -1.898,-2.559C-1.807,-2.709 -1.698,-2.866 -1.572,-3.029L-0.743,-4.123L-0.149,-4.123L-1.598,-2.18L-0.037,0L-0.712,0L-1.749,-1.471C-1.807,-1.555 -1.868,-1.647 -1.929,-1.747C-2.021,-1.597 -2.087,-1.493 -2.126,-1.437L-3.161,0L-3.817,0Z" style="fill-opacity:0;fill-rule:nonzero;"/>
                <path d="M1.606,0L1.606,-1.747L0.017,-4.123L0.681,-4.123L1.493,-2.88C1.643,-2.648 1.783,-2.415 1.913,-2.183C2.036,-2.398 2.186,-2.641 2.363,-2.911L3.161,-4.123L3.797,-4.123L2.152,-1.747L2.152,0L1.606,0Z" style="fill-opacity:0;fill-rule:nonzero;"/>
            </g>
        </g>
        <g transform="matrix(16.6667,0,0,16.6667,0,0)">
            <g transform="matrix(1,0,0,1,-22.4938,-50.0862)">
                <path d="M126.302,318.391L129.182,322.711" style="fill:none;fill-rule:nonzero;"/>
            </g>
        </g>
        <g transform="matrix(16.6667,0,0,16.6667,0,0)">
            <g transform="matrix(1,0,0,1,-22.4938,-50.0862)">
                <path d="M126.063,318.551L128.943,322.871C129.031,323.003 129.21,323.039 129.342,322.951C129.474,322.863 129.51,322.684 129.422,322.551L126.542,318.231C126.454,318.099 126.275,318.063 126.143,318.152C126.01,318.24 125.975,318.419 126.063,318.551Z"/>
            </g>
        </g>
        <g transform="matrix(16.6667,0,0,16.6667,0,0)">
            <g transform="matrix(1,0,0,1,-22.4938,-50.0862)">
                <path d="M129.182,318.391L126.302,322.711" style="fill:none;fill-rule:nonzero;"/>
            </g>
        </g>
        <g transform="matrix(16.6667,0,0,16.6667,0,0)">
            <g transform="matrix(1,0,0,1,-22.4938,-50.0862)">
                <path d="M128.943,318.231L126.063,322.551C125.975,322.684 126.01,322.863 126.143,322.951C126.275,323.039 126.454,323.003 126.542,322.871L129.422,318.551C129.51,318.419 129.474,318.24 129.342,318.152C129.21,318.063 129.031,318.099 128.943,318.231Z"/>
            </g>
        </g>
        <g transform="matrix(16.6667,0,0,16.6667,0,0)">
            <g transform="matrix(1,0,0,1,-22.4938,-50.0862)">
                <path d="M131.652,320.652L131.652,322.711" style="fill:none;fill-rule:nonzero;"/>
            </g>
        </g>
        <g transform="matrix(16.6667,0,0,16.6667,0,0)">
            <g transform="matrix(1,0,0,1,-22.4938,-50.0862)">
                <path d="M131.364,320.652L131.364,322.711C131.364,322.87 131.493,322.999 131.652,322.999C131.811,322.999 131.94,322.87 131.94,322.711L131.94,320.652C131.94,320.493 131.811,320.364 131.652,320.364C131.493,320.364 131.364,320.493 131.364,320.652Z"/>
            </g>
        </g>
        <g transform="matrix(16.6667,0,0,16.6667,0,0)">
            <g transform="matrix(1,0,0,1,-22.4938,-50.0862)">
                <path d="M130.212,318.391L131.652,320.652L133.092,318.391" style="fill-opacity:0;fill-rule:nonzero;"/>
            </g>
        </g>
        <g transform="matrix(16.6667,0,0,16.6667,0,0)">
            <g transform="matrix(1,0,0,1,-22.4938,-50.0862)">
                <path d="M131.652,320.116L132.849,318.236C132.934,318.102 133.113,318.063 133.247,318.148C133.381,318.234 133.42,318.412 133.335,318.546L131.895,320.807C131.842,320.89 131.75,320.94 131.652,320.94C131.554,320.94 131.462,320.89 131.409,320.807L129.969,318.546C129.884,318.412 129.923,318.234 130.057,318.148C130.191,318.063 130.37,318.102 130.455,318.236L131.652,320.116Z"/>
            </g>
        </g>
        <g transform="matrix(16.6667,0,0,16.6667,0,0)">
            <g transform="matrix(1,0,0,1,-22.4938,-50.0862)">
                <path d="M117.72,316.08L115.704,314.568" style="fill:none;fill-rule:nonzero;"/>
            </g>
        </g>
        <g transform="matrix(16.6667,0,0,16.6667,0,0)">
            <g transform="matrix(1,0,0,1,-22.4938,-50.0862)">
                <path d="M117.822,315.944L115.806,314.432C115.731,314.376 115.624,314.391 115.568,314.466C115.512,314.541 115.527,314.648 115.602,314.704L117.618,316.216C117.693,316.272 117.8,316.257 117.856,316.182C117.912,316.107 117.897,316 117.822,315.944Z"/>
            </g>
        </g>
        <g transform="matrix(16.6667,0,0,16.6667,0,0)">
            <g transform="matrix(1,0,0,1,-22.4938,-50.0862)">
                <circle cx="129.6" cy="324.36" r="14.4" style="fill-opacity:0;"/>
            </g>
        </g>
        <g transform="matrix(16.6667,0,0,16.6667,0,0)">
            <g transform="matrix(1,0,0,1,-22.4938,-50.0862)">
                <path d="M129.6,309.79C121.559,309.79 115.03,316.319 115.03,324.36C115.03,332.401 121.559,338.93 129.6,338.93C137.641,338.93 144.17,332.401 144.17,324.36C144.17,316.319 137.641,309.79 129.6,309.79ZM129.6,310.13C137.454,310.13 143.83,316.506 143.83,324.36C143.83,332.214 137.454,338.59 129.6,338.59C121.746,338.59 115.37,332.214 115.37,324.36C115.37,316.506 121.746,310.13 129.6,310.13Z"/>
            </g>
        </g>
    </g>
</svg>
