<?xml version="1.0" encoding="UTF-8" standalone="no"?>
<!DOCTYPE svg PUBLIC "-//W3C//DTD SVG 1.1//EN" "http://www.w3.org/Graphics/SVG/1.1/DTD/svg11.dtd">
<svg width="100%" height="100%" viewBox="0 0 498 486" version="1.1" xmlns="http://www.w3.org/2000/svg" xmlns:xlink="http://www.w3.org/1999/xlink" xml:space="preserve" xmlns:serif="http://www.serif.com/" style="fill-rule:evenodd;clip-rule:evenodd;stroke-linejoin:round;stroke-miterlimit:2;">
    <g transform="matrix(1,0,0,1,-4983.27,-4328.4)">
        <g transform="matrix(16.6667,0,0,16.6667,0,0)">
            <g transform="matrix(1,0,0,1,-22.4938,-50.0862)">
                <path d="M335.88,328.32L340.56,328.32" style="fill:none;fill-rule:nonzero;"/>
            </g>
        </g>
        <g transform="matrix(16.6667,0,0,16.6667,0,0)">
            <g transform="matrix(1,0,0,1,-22.4938,-50.0862)">
                <path d="M335.88,328.608L340.56,328.608C340.719,328.608 340.848,328.479 340.848,328.32C340.848,328.161 340.719,328.032 340.56,328.032L335.88,328.032C335.721,328.032 335.592,328.161 335.592,328.32C335.592,328.479 335.721,328.608 335.88,328.608Z"/>
            </g>
        </g>
        <g transform="matrix(16.6667,0,0,16.6667,0,0)">
            <g transform="matrix(1,0,0,1,-22.4938,-50.0862)">
                <path d="M340.56,313.2L335.88,313.2" style="fill:none;fill-rule:nonzero;"/>
            </g>
        </g>
        <g transform="matrix(16.6667,0,0,16.6667,0,0)">
            <g transform="matrix(1,0,0,1,-22.4938,-50.0862)">
                <path d="M340.56,312.912L335.88,312.912C335.721,312.912 335.592,313.041 335.592,313.2C335.592,313.359 335.721,313.488 335.88,313.488L340.56,313.488C340.719,313.488 340.848,313.359 340.848,313.2C340.848,313.041 340.719,312.912 340.56,312.912Z"/>
            </g>
        </g>
        <g transform="matrix(16.6667,0,0,16.6667,0,0)">
            <g transform="matrix(1,0,0,1,-22.4938,-50.0862)">
                <path d="M340.56,328.32L344.16,320.76" style="fill:none;fill-rule:nonzero;"/>
            </g>
        </g>
        <g transform="matrix(16.6667,0,0,16.6667,0,0)">
            <g transform="matrix(1,0,0,1,-22.4938,-50.0862)">
                <path d="M340.82,328.444L344.42,320.884C344.488,320.74 344.427,320.568 344.284,320.5C344.14,320.432 343.968,320.493 343.9,320.636L340.3,328.196C340.232,328.34 340.293,328.512 340.436,328.58C340.58,328.648 340.752,328.587 340.82,328.444Z"/>
            </g>
        </g>
        <g transform="matrix(16.6667,0,0,16.6667,0,0)">
            <g transform="matrix(1,0,0,1,-22.4938,-50.0862)">
                <path d="M344.16,320.76L340.56,313.2" style="fill:none;fill-rule:nonzero;"/>
            </g>
        </g>
        <g transform="matrix(16.6667,0,0,16.6667,0,0)">
            <g transform="matrix(1,0,0,1,-22.4938,-50.0862)">
                <path d="M344.42,320.636L340.82,313.076C340.752,312.933 340.58,312.872 340.436,312.94C340.293,313.008 340.232,313.18 340.3,313.324L343.9,320.884C343.968,321.027 344.14,321.088 344.284,321.02C344.427,320.952 344.488,320.78 344.42,320.636Z"/>
            </g>
        </g>
        <g transform="matrix(16.6667,0,0,16.6667,0,0)">
            <g transform="matrix(1,0,0,1,-22.4938,-50.0862)">
                <path d="M331.2,328.32L335.88,328.32" style="fill:none;fill-rule:nonzero;"/>
            </g>
        </g>
        <g transform="matrix(16.6667,0,0,16.6667,0,0)">
            <g transform="matrix(1,0,0,1,-22.4938,-50.0862)">
                <path d="M331.2,328.608L335.88,328.608C336.039,328.608 336.168,328.479 336.168,328.32C336.168,328.161 336.039,328.032 335.88,328.032L331.2,328.032C331.041,328.032 330.912,328.161 330.912,328.32C330.912,328.479 331.041,328.608 331.2,328.608Z"/>
            </g>
        </g>
        <g transform="matrix(16.6667,0,0,16.6667,0,0)">
            <g transform="matrix(1,0,0,1,-22.4938,-50.0862)">
                <path d="M327.6,320.76L331.2,328.32" style="fill:none;fill-rule:nonzero;"/>
            </g>
        </g>
        <g transform="matrix(16.6667,0,0,16.6667,0,0)">
            <g transform="matrix(1,0,0,1,-22.4938,-50.0862)">
                <path d="M327.34,320.884L330.94,328.444C331.008,328.587 331.18,328.648 331.324,328.58C331.467,328.512 331.528,328.34 331.46,328.196L327.86,320.636C327.792,320.493 327.62,320.432 327.476,320.5C327.333,320.568 327.272,320.74 327.34,320.884Z"/>
            </g>
        </g>
        <g transform="matrix(16.6667,0,0,16.6667,0,0)">
            <g transform="matrix(1,0,0,1,-22.4938,-50.0862)">
                <path d="M331.2,313.2L327.6,320.76" style="fill:none;fill-rule:nonzero;"/>
            </g>
        </g>
        <g transform="matrix(16.6667,0,0,16.6667,0,0)">
            <g transform="matrix(1,0,0,1,-22.4938,-50.0862)">
                <path d="M330.94,313.076L327.34,320.636C327.272,320.78 327.333,320.952 327.476,321.02C327.62,321.088 327.792,321.027 327.86,320.884L331.46,313.324C331.528,313.18 331.467,313.008 331.324,312.94C331.18,312.872 331.008,312.933 330.94,313.076Z"/>
            </g>
        </g>
        <g transform="matrix(16.6667,0,0,16.6667,0,0)">
            <g transform="matrix(1,0,0,1,-22.4938,-50.0862)">
                <path d="M335.88,313.2L331.2,313.2" style="fill:none;fill-rule:nonzero;"/>
            </g>
        </g>
        <g transform="matrix(16.6667,0,0,16.6667,0,0)">
            <g transform="matrix(1,0,0,1,-22.4938,-50.0862)">
                <path d="M335.88,312.912L331.2,312.912C331.041,312.912 330.912,313.041 330.912,313.2C330.912,313.359 331.041,313.488 331.2,313.488L335.88,313.488C336.039,313.488 336.168,313.359 336.168,313.2C336.168,313.041 336.039,312.912 335.88,312.912Z"/>
            </g>
        </g>
        <g transform="matrix(16.6667,0,0,16.6667,0,0)">
            <g transform="matrix(1,0,0,1,313.746,272.834)">
                <path d="M-0.315,0L-0.315,-1.747L-1.904,-4.123L-1.24,-4.123L-0.428,-2.88C-0.277,-2.648 -0.138,-2.415 -0.008,-2.183C0.115,-2.398 0.265,-2.641 0.442,-2.911L1.24,-4.123L1.876,-4.123L0.231,-1.747L0.231,0L-0.315,0Z" style="fill-opacity:0;fill-rule:nonzero;"/>
            </g>
        </g>
        <g transform="matrix(16.6667,0,0,16.6667,0,0)">
            <g transform="matrix(1,0,0,1,313.746,272.834)">
                <path d="M-0.603,-1.659L-2.143,-3.963C-2.203,-4.051 -2.208,-4.165 -2.158,-4.259C-2.108,-4.353 -2.01,-4.411 -1.904,-4.411L-1.24,-4.411C-1.143,-4.411 -1.052,-4.362 -0.999,-4.281C-0.999,-4.281 -0.186,-3.038 -0.185,-3.036C-0.123,-2.94 -0.063,-2.844 -0.005,-2.748C0.059,-2.85 0.128,-2.957 0.2,-3.068L1,-4.282C1.053,-4.362 1.143,-4.411 1.24,-4.411L1.876,-4.411C1.983,-4.411 2.081,-4.352 2.131,-4.257C2.181,-4.162 2.174,-4.047 2.113,-3.959L0.519,-1.657L0.519,0C0.519,0.159 0.39,0.288 0.231,0.288L-0.315,0.288C-0.474,0.288 -0.603,0.159 -0.603,0L-0.603,-1.659ZM-0.073,-1.902C-0.06,-1.882 -0.05,-1.861 -0.042,-1.838C-0.036,-1.858 -0.027,-1.877 -0.016,-1.895C-0.035,-1.895 -0.054,-1.898 -0.073,-1.902Z"/>
            </g>
        </g>
        <g transform="matrix(16.6667,0,0,16.6667,0,0)">
            <g transform="matrix(1,0,0,1,-22.4938,-50.0862)">
                <path d="M336.24,320.652L336.24,322.711" style="fill:none;fill-rule:nonzero;"/>
            </g>
        </g>
        <g transform="matrix(16.6667,0,0,16.6667,0,0)">
            <g transform="matrix(1,0,0,1,-22.4938,-50.0862)">
                <path d="M335.952,320.652L335.952,322.711C335.952,322.87 336.081,322.999 336.24,322.999C336.399,322.999 336.528,322.87 336.528,322.711L336.528,320.652C336.528,320.493 336.399,320.364 336.24,320.364C336.081,320.364 335.952,320.493 335.952,320.652Z"/>
            </g>
        </g>
        <g transform="matrix(16.6667,0,0,16.6667,0,0)">
            <g transform="matrix(1,0,0,1,-22.4938,-50.0862)">
                <path d="M334.8,318.391L336.24,320.652L337.68,318.391" style="fill-opacity:0;fill-rule:nonzero;"/>
            </g>
        </g>
        <g transform="matrix(16.6667,0,0,16.6667,0,0)">
            <g transform="matrix(1,0,0,1,-22.4938,-50.0862)">
                <path d="M336.24,320.116L337.437,318.236C337.522,318.102 337.701,318.063 337.835,318.148C337.969,318.234 338.008,318.412 337.923,318.546L336.483,320.807C336.43,320.89 336.338,320.94 336.24,320.94C336.142,320.94 336.05,320.89 335.997,320.807L334.557,318.546C334.472,318.412 334.511,318.234 334.645,318.148C334.779,318.063 334.958,318.102 335.043,318.236L336.24,320.116Z"/>
            </g>
        </g>
        <g transform="matrix(16.6667,0,0,16.6667,0,0)">
            <g transform="matrix(1,0,0,1,-22.4938,-50.0862)">
                <circle cx="335.88" cy="320.76" r="6.569" style="fill-opacity:0;"/>
            </g>
        </g>
        <g transform="matrix(16.6667,0,0,16.6667,0,0)">
            <g transform="matrix(1,0,0,1,-22.4938,-50.0862)">
                <path d="M335.88,313.903C332.095,313.903 329.023,316.975 329.023,320.76C329.023,324.545 332.095,327.617 335.88,327.617C339.665,327.617 342.737,324.545 342.737,320.76C342.737,316.975 339.665,313.903 335.88,313.903ZM335.88,314.479C339.347,314.479 342.161,317.293 342.161,320.76C342.161,324.227 339.347,327.041 335.88,327.041C332.413,327.041 329.599,324.227 329.599,320.76C329.599,317.293 332.413,314.479 335.88,314.479Z"/>
            </g>
        </g>
        <g transform="matrix(16.6667,0,0,16.6667,0,0)">
            <g transform="matrix(1,0,0,1,-22.4938,-50.0862)">
                <circle cx="335.88" cy="320.76" r="5.76" style="fill-opacity:0;"/>
            </g>
        </g>
        <g transform="matrix(16.6667,0,0,16.6667,0,0)">
            <g transform="matrix(1,0,0,1,-22.4938,-50.0862)">
                <path d="M335.88,314.712C332.542,314.712 329.832,317.422 329.832,320.76C329.832,324.098 332.542,326.808 335.88,326.808C339.218,326.808 341.928,324.098 341.928,320.76C341.928,317.422 339.218,314.712 335.88,314.712ZM335.88,315.288C338.9,315.288 341.352,317.74 341.352,320.76C341.352,323.78 338.9,326.232 335.88,326.232C332.86,326.232 330.408,323.78 330.408,320.76C330.408,317.74 332.86,315.288 335.88,315.288Z"/>
            </g>
        </g>
        <g transform="matrix(16.6667,0,0,16.6667,0,0)">
            <g transform="matrix(1,0,0,1,-22.4938,-50.0862)">
                <path d="M345.96,325.08L349.56,328.68" style="fill:none;fill-rule:nonzero;"/>
            </g>
        </g>
        <g transform="matrix(16.6667,0,0,16.6667,0,0)">
            <g transform="matrix(1,0,0,1,-22.4938,-50.0862)">
                <path d="M345.756,325.284L349.356,328.884C349.469,328.996 349.651,328.996 349.764,328.884C349.876,328.771 349.876,328.589 349.764,328.476L346.164,324.876C346.051,324.764 345.869,324.764 345.756,324.876C345.644,324.989 345.644,325.171 345.756,325.284Z"/>
            </g>
        </g>
        <g transform="matrix(16.6667,0,0,16.6667,0,0)">
            <g transform="matrix(1,0,0,1,-22.4938,-50.0862)">
                <path d="M336.24,337.68L345.96,325.08" style="fill:none;fill-rule:nonzero;"/>
            </g>
        </g>
        <g transform="matrix(16.6667,0,0,16.6667,0,0)">
            <g transform="matrix(1,0,0,1,-22.4938,-50.0862)">
                <path d="M336.468,337.856L346.188,325.256C346.285,325.13 346.262,324.949 346.136,324.852C346.01,324.755 345.829,324.778 345.732,324.904L336.012,337.504C335.915,337.63 335.938,337.811 336.064,337.908C336.19,338.005 336.371,337.982 336.468,337.856Z"/>
            </g>
        </g>
        <g transform="matrix(16.6667,0,0,16.6667,0,0)">
            <g transform="matrix(1,0,0,1,-22.4938,-50.0862)">
                <path d="M325.44,325.08L322.2,328.32" style="fill:none;fill-rule:nonzero;"/>
            </g>
        </g>
        <g transform="matrix(16.6667,0,0,16.6667,0,0)">
            <g transform="matrix(1,0,0,1,-22.4938,-50.0862)">
                <path d="M325.236,324.876L321.996,328.116C321.884,328.229 321.884,328.411 321.996,328.524C322.109,328.636 322.291,328.636 322.404,328.524L325.644,325.284C325.756,325.171 325.756,324.989 325.644,324.876C325.531,324.764 325.349,324.764 325.236,324.876Z"/>
            </g>
        </g>
        <g transform="matrix(16.6667,0,0,16.6667,0,0)">
            <g transform="matrix(1,0,0,1,-22.4938,-50.0862)">
                <path d="M336.24,337.68L325.44,325.08" style="fill:none;fill-rule:nonzero;"/>
            </g>
        </g>
        <g transform="matrix(16.6667,0,0,16.6667,0,0)">
            <g transform="matrix(1,0,0,1,-22.4938,-50.0862)">
                <path d="M336.459,337.493L325.659,324.893C325.555,324.772 325.373,324.758 325.253,324.861C325.132,324.965 325.118,325.147 325.221,325.267L336.021,337.867C336.125,337.988 336.307,338.002 336.427,337.899C336.548,337.795 336.562,337.613 336.459,337.493Z"/>
            </g>
        </g>
        <g transform="matrix(16.6667,0,0,16.6667,0,0)">
            <g transform="matrix(1,0,0,1,-22.4938,-50.0862)">
                <circle cx="336.96" cy="324.36" r="14.4" style="fill-opacity:0;"/>
            </g>
        </g>
        <g transform="matrix(16.6667,0,0,16.6667,0,0)">
            <g transform="matrix(1,0,0,1,-23.3938,-50.0862)">
                <path d="M336.96,309.79C328.919,309.79 322.39,316.319 322.39,324.36C322.39,332.401 328.919,338.93 336.96,338.93C345.001,338.93 351.53,332.401 351.53,324.36C351.53,316.319 345.001,309.79 336.96,309.79ZM336.96,310.13C344.814,310.13 351.19,316.506 351.19,324.36C351.19,332.214 344.814,338.59 336.96,338.59C329.106,338.59 322.73,332.214 322.73,324.36C322.73,316.506 329.106,310.13 336.96,310.13Z"/>
            </g>
        </g>
        <g transform="matrix(16.6667,0,0,16.6667,0,0)">
            <g transform="matrix(1,0,0,1,-22.4938,-50.0862)">
                <path d="M325.08,316.08L323.064,314.568" style="fill:none;fill-rule:nonzero;"/>
            </g>
        </g>
        <g transform="matrix(16.6667,0,0,16.6667,0,0)">
            <g transform="matrix(1,0,0,1,-23.3938,-50.0862)">
                <path d="M325.182,315.944L323.166,314.432C323.091,314.376 322.984,314.391 322.928,314.466C322.872,314.541 322.887,314.648 322.962,314.704L324.978,316.216C325.053,316.272 325.16,316.257 325.216,316.182C325.272,316.107 325.257,316 325.182,315.944Z"/>
            </g>
        </g>
    </g>
</svg>
