<?xml version="1.0" encoding="UTF-8" standalone="no"?>
<!DOCTYPE svg PUBLIC "-//W3C//DTD SVG 1.1//EN" "http://www.w3.org/Graphics/SVG/1.1/DTD/svg11.dtd">
<svg width="100%" height="100%" viewBox="0 0 486 486" version="1.1" xmlns="http://www.w3.org/2000/svg" xmlns:xlink="http://www.w3.org/1999/xlink" xml:space="preserve" xmlns:serif="http://www.serif.com/" style="fill-rule:evenodd;clip-rule:evenodd;stroke-linejoin:round;stroke-miterlimit:2;">
    <g transform="matrix(1,0,0,1,-1542.27,-4868.4)">
        <g transform="matrix(16.6667,0,0,16.6667,0,0)">
            <g transform="matrix(1,0,0,1,-22.4938,-50.0862)">
                <circle cx="131.4" cy="361.8" r="2.546" style="fill-opacity:0;"/>
            </g>
        </g>
        <g transform="matrix(16.6667,0,0,16.6667,0,0)">
            <g transform="matrix(1,0,0,1,-22.4938,-50.0862)">
                <path d="M131.4,358.966C129.836,358.966 128.566,360.236 128.566,361.8C128.566,363.364 129.836,364.634 131.4,364.634C132.964,364.634 134.234,363.364 134.234,361.8C134.234,360.236 132.964,358.966 131.4,358.966ZM131.4,359.542C132.646,359.542 133.658,360.554 133.658,361.8C133.658,363.046 132.646,364.058 131.4,364.058C130.154,364.058 129.142,363.046 129.142,361.8C129.142,360.554 130.154,359.542 131.4,359.542Z"/>
            </g>
        </g>
        <g transform="matrix(16.6667,0,0,16.6667,0,0)">
            <g transform="matrix(1,0,0,1,-22.4938,-50.0862)">
                <path d="M128.52,357.48L134.28,357.48" style="fill:none;fill-rule:nonzero;"/>
            </g>
        </g>
        <g transform="matrix(16.6667,0,0,16.6667,0,0)">
            <g transform="matrix(1,0,0,1,-22.4938,-50.0862)">
                <path d="M128.52,357.768L134.28,357.768C134.439,357.768 134.568,357.639 134.568,357.48C134.568,357.321 134.439,357.192 134.28,357.192L128.52,357.192C128.361,357.192 128.232,357.321 128.232,357.48C128.232,357.639 128.361,357.768 128.52,357.768Z"/>
            </g>
        </g>
        <g transform="matrix(16.6667,0,0,16.6667,0,0)">
            <g transform="matrix(1,0,0,1,-22.4938,-50.0862)">
                <path d="M126.72,361.8L128.52,357.48" style="fill:none;fill-rule:nonzero;"/>
            </g>
        </g>
        <g transform="matrix(16.6667,0,0,16.6667,0,0)">
            <g transform="matrix(1,0,0,1,-22.4938,-50.0862)">
                <path d="M126.986,361.911L128.786,357.591C128.847,357.444 128.777,357.275 128.631,357.214C128.484,357.153 128.315,357.223 128.254,357.369L126.454,361.689C126.393,361.836 126.463,362.005 126.609,362.066C126.756,362.127 126.925,362.057 126.986,361.911Z"/>
            </g>
        </g>
        <g transform="matrix(16.6667,0,0,16.6667,0,0)">
            <g transform="matrix(1,0,0,1,-22.4938,-50.0862)">
                <path d="M128.52,366.12L126.72,361.8" style="fill:none;fill-rule:nonzero;"/>
            </g>
        </g>
        <g transform="matrix(16.6667,0,0,16.6667,0,0)">
            <g transform="matrix(1,0,0,1,-22.4938,-50.0862)">
                <path d="M128.786,366.009L126.986,361.689C126.925,361.543 126.756,361.473 126.609,361.534C126.463,361.595 126.393,361.764 126.454,361.911L128.254,366.231C128.315,366.377 128.484,366.447 128.631,366.386C128.777,366.325 128.847,366.156 128.786,366.009Z"/>
            </g>
        </g>
        <g transform="matrix(16.6667,0,0,16.6667,0,0)">
            <g transform="matrix(1,0,0,1,-22.4938,-50.0862)">
                <path d="M134.28,366.12L128.52,366.12" style="fill:none;fill-rule:nonzero;"/>
            </g>
        </g>
        <g transform="matrix(16.6667,0,0,16.6667,0,0)">
            <g transform="matrix(1,0,0,1,-22.4938,-50.0862)">
                <path d="M134.28,365.832L128.52,365.832C128.361,365.832 128.232,365.961 128.232,366.12C128.232,366.279 128.361,366.408 128.52,366.408L134.28,366.408C134.439,366.408 134.568,366.279 134.568,366.12C134.568,365.961 134.439,365.832 134.28,365.832Z"/>
            </g>
        </g>
        <g transform="matrix(16.6667,0,0,16.6667,0,0)">
            <g transform="matrix(1,0,0,1,-22.4938,-50.0862)">
                <path d="M136.08,361.8L134.28,366.12" style="fill:none;fill-rule:nonzero;"/>
            </g>
        </g>
        <g transform="matrix(16.6667,0,0,16.6667,0,0)">
            <g transform="matrix(1,0,0,1,-22.4938,-50.0862)">
                <path d="M135.814,361.689L134.014,366.009C133.953,366.156 134.023,366.325 134.169,366.386C134.316,366.447 134.485,366.377 134.546,366.231L136.346,361.911C136.407,361.764 136.337,361.595 136.191,361.534C136.044,361.473 135.875,361.543 135.814,361.689Z"/>
            </g>
        </g>
        <g transform="matrix(16.6667,0,0,16.6667,0,0)">
            <g transform="matrix(1,0,0,1,-22.4938,-50.0862)">
                <path d="M134.28,357.48L136.08,361.8" style="fill:none;fill-rule:nonzero;"/>
            </g>
        </g>
        <g transform="matrix(16.6667,0,0,16.6667,0,0)">
            <g transform="matrix(1,0,0,1,-22.4938,-50.0862)">
                <path d="M134.014,357.591L135.814,361.911C135.875,362.057 136.044,362.127 136.191,362.066C136.337,362.005 136.407,361.836 136.346,361.689L134.546,357.369C134.485,357.223 134.316,357.153 134.169,357.214C134.023,357.275 133.953,357.444 134.014,357.591Z"/>
            </g>
        </g>
        <g transform="matrix(16.6667,0,0,16.6667,0,0)">
            <g transform="matrix(1,0,0,1,-22.4938,-50.0862)">
                <circle cx="131.4" cy="361.8" r="3.319" style="fill-opacity:0;"/>
            </g>
        </g>
        <g transform="matrix(16.6667,0,0,16.6667,0,0)">
            <g transform="matrix(1,0,0,1,-22.4938,-50.0862)">
                <path d="M131.4,358.193C129.409,358.193 127.793,359.809 127.793,361.8C127.793,363.791 129.409,365.407 131.4,365.407C133.391,365.407 135.007,363.791 135.007,361.8C135.007,359.809 133.391,358.193 131.4,358.193ZM131.4,358.769C133.073,358.769 134.431,360.127 134.431,361.8C134.431,363.473 133.073,364.831 131.4,364.831C129.727,364.831 128.369,363.473 128.369,361.8C128.369,360.127 129.727,358.769 131.4,358.769Z"/>
            </g>
        </g>
        <g transform="matrix(16.6667,0,0,16.6667,0,0)">
            <g transform="matrix(1,0,0,1,-22.4938,-50.0862)">
                <path d="M132.12,351.72C132.12,349.943 130.657,348.48 128.88,348.48C127.103,348.48 125.64,349.943 125.64,351.72" style="fill-opacity:0;fill-rule:nonzero;"/>
            </g>
        </g>
        <g transform="matrix(16.6667,0,0,16.6667,0,0)">
            <g transform="matrix(1,0,0,1,-22.4938,-50.0862)">
                <path d="M132.408,351.72C132.408,349.785 130.815,348.192 128.88,348.192C126.945,348.192 125.352,349.785 125.352,351.72C125.352,351.879 125.481,352.008 125.64,352.008C125.799,352.008 125.928,351.879 125.928,351.72C125.928,350.101 127.261,348.768 128.88,348.768C130.499,348.768 131.832,350.101 131.832,351.72C131.832,351.879 131.961,352.008 132.12,352.008C132.279,352.008 132.408,351.879 132.408,351.72Z"/>
            </g>
        </g>
        <g transform="matrix(16.6667,0,0,16.6667,0,0)">
            <g transform="matrix(1,0,0,1,-22.4938,-50.0862)">
                <path d="M132.12,351.72C132.12,353.497 133.583,354.96 135.36,354.96C137.137,354.96 138.6,353.497 138.6,351.72" style="fill-opacity:0;fill-rule:nonzero;"/>
            </g>
        </g>
        <g transform="matrix(16.6667,0,0,16.6667,0,0)">
            <g transform="matrix(1,0,0,1,-22.4938,-50.0862)">
                <path d="M131.832,351.72C131.832,353.655 133.425,355.248 135.36,355.248C137.295,355.248 138.888,353.655 138.888,351.72C138.888,351.561 138.759,351.432 138.6,351.432C138.441,351.432 138.312,351.561 138.312,351.72C138.312,353.339 136.979,354.672 135.36,354.672C133.741,354.672 132.408,353.339 132.408,351.72C132.408,351.561 132.279,351.432 132.12,351.432C131.961,351.432 131.832,351.561 131.832,351.72Z"/>
            </g>
        </g>
        <g transform="matrix(16.6667,0,0,16.6667,0,0)">
            <g transform="matrix(1,0,0,1,-22.4938,-50.0862)">
                <path d="M120.996,352.512L120.996,349.632" style="fill:none;fill-rule:nonzero;"/>
            </g>
        </g>
        <g transform="matrix(16.6667,0,0,16.6667,0,0)">
            <g transform="matrix(1,0,0,1,-22.4938,-50.0862)">
                <path d="M121.284,352.512L121.284,349.632C121.284,349.473 121.155,349.344 120.996,349.344C120.837,349.344 120.708,349.473 120.708,349.632L120.708,352.512C120.708,352.671 120.837,352.8 120.996,352.8C121.155,352.8 121.284,352.671 121.284,352.512Z"/>
            </g>
        </g>
        <g transform="matrix(16.6667,0,0,16.6667,0,0)">
            <g transform="matrix(1,0,0,1,-22.4938,-50.0862)">
                <path d="M118.836,352.512L123.156,352.512" style="fill:none;fill-rule:nonzero;"/>
            </g>
        </g>
        <g transform="matrix(16.6667,0,0,16.6667,0,0)">
            <g transform="matrix(1,0,0,1,-22.4938,-50.0862)">
                <path d="M118.836,352.8L123.156,352.8C123.315,352.8 123.444,352.671 123.444,352.512C123.444,352.353 123.315,352.224 123.156,352.224L118.836,352.224C118.677,352.224 118.548,352.353 118.548,352.512C118.548,352.671 118.677,352.8 118.836,352.8Z"/>
            </g>
        </g>
        <g transform="matrix(16.6667,0,0,16.6667,0,0)">
            <g transform="matrix(1,0,0,1,-22.4938,-50.0862)">
                <path d="M118.836,352.512L118.836,353.952" style="fill:none;fill-rule:nonzero;"/>
            </g>
        </g>
        <g transform="matrix(16.6667,0,0,16.6667,0,0)">
            <g transform="matrix(1,0,0,1,-22.4938,-50.0862)">
                <path d="M118.548,352.512L118.548,353.952C118.548,354.111 118.677,354.24 118.836,354.24C118.995,354.24 119.124,354.111 119.124,353.952L119.124,352.512C119.124,352.353 118.995,352.224 118.836,352.224C118.677,352.224 118.548,352.353 118.548,352.512Z"/>
            </g>
        </g>
        <g transform="matrix(16.6667,0,0,16.6667,0,0)">
            <g transform="matrix(1,0,0,1,-22.4938,-50.0862)">
                <path d="M120.996,353.952L120.996,364.032" style="fill:none;fill-rule:nonzero;"/>
            </g>
        </g>
        <g transform="matrix(16.6667,0,0,16.6667,0,0)">
            <g transform="matrix(1,0,0,1,-22.4938,-50.0862)">
                <path d="M120.708,353.952L120.708,364.032C120.708,364.191 120.837,364.32 120.996,364.32C121.155,364.32 121.284,364.191 121.284,364.032L121.284,353.952C121.284,353.793 121.155,353.664 120.996,353.664C120.837,353.664 120.708,353.793 120.708,353.952Z"/>
            </g>
        </g>
        <g transform="matrix(16.6667,0,0,16.6667,0,0)">
            <g transform="matrix(1,0,0,1,-22.4938,-50.0862)">
                <path d="M118.836,353.952L123.156,353.952" style="fill:none;fill-rule:nonzero;"/>
            </g>
        </g>
        <g transform="matrix(16.6667,0,0,16.6667,0,0)">
            <g transform="matrix(1,0,0,1,-22.4938,-50.0862)">
                <path d="M118.836,354.24L123.156,354.24C123.315,354.24 123.444,354.111 123.444,353.952C123.444,353.793 123.315,353.664 123.156,353.664L118.836,353.664C118.677,353.664 118.548,353.793 118.548,353.952C118.548,354.111 118.677,354.24 118.836,354.24Z"/>
            </g>
        </g>
        <g transform="matrix(16.6667,0,0,16.6667,0,0)">
            <g transform="matrix(1,0,0,1,-22.4938,-50.0862)">
                <path d="M123.156,353.952L123.156,352.512" style="fill:none;fill-rule:nonzero;"/>
            </g>
        </g>
        <g transform="matrix(16.6667,0,0,16.6667,0,0)">
            <g transform="matrix(1,0,0,1,-22.4938,-50.0862)">
                <path d="M123.444,353.952L123.444,352.512C123.444,352.353 123.315,352.224 123.156,352.224C122.997,352.224 122.868,352.353 122.868,352.512L122.868,353.952C122.868,354.111 122.997,354.24 123.156,354.24C123.315,354.24 123.444,354.111 123.444,353.952Z"/>
            </g>
        </g>
        <g transform="matrix(16.6667,0,0,16.6667,0,0)">
            <g transform="matrix(1,0,0,1,-22.4938,-50.0862)">
                <path d="M117.72,348.48L115.704,346.968" style="fill:none;fill-rule:nonzero;"/>
            </g>
        </g>
        <g transform="matrix(16.6667,0,0,16.6667,0,0)">
            <g transform="matrix(1,0,0,1,-22.4938,-50.0862)">
                <path d="M117.822,348.344L115.806,346.832C115.731,346.776 115.624,346.791 115.568,346.866C115.512,346.941 115.527,347.048 115.602,347.104L117.618,348.616C117.693,348.672 117.8,348.657 117.856,348.582C117.912,348.507 117.897,348.4 117.822,348.344Z"/>
            </g>
        </g>
        <g transform="matrix(16.6667,0,0,16.6667,0,0)">
            <g transform="matrix(1,0,0,1,-22.4938,-50.0862)">
                <circle cx="129.6" cy="356.76" r="14.4" style="fill-opacity:0;"/>
            </g>
        </g>
        <g transform="matrix(16.6667,0,0,16.6667,0,0)">
            <g transform="matrix(1,0,0,1,-22.4938,-50.0862)">
                <path d="M129.6,342.19C121.559,342.19 115.03,348.719 115.03,356.76C115.03,364.801 121.559,371.33 129.6,371.33C137.641,371.33 144.17,364.801 144.17,356.76C144.17,348.719 137.641,342.19 129.6,342.19ZM129.6,342.53C137.454,342.53 143.83,348.906 143.83,356.76C143.83,364.614 137.454,370.99 129.6,370.99C121.746,370.99 115.37,364.614 115.37,356.76C115.37,348.906 121.746,342.53 129.6,342.53Z"/>
            </g>
        </g>
    </g>
</svg>
