<?xml version="1.0" encoding="UTF-8" standalone="no"?>
<!DOCTYPE svg PUBLIC "-//W3C//DTD SVG 1.1//EN" "http://www.w3.org/Graphics/SVG/1.1/DTD/svg11.dtd">
<svg width="100%" height="100%" viewBox="0 0 486 486" version="1.1" xmlns="http://www.w3.org/2000/svg" xmlns:xlink="http://www.w3.org/1999/xlink" xml:space="preserve" xmlns:serif="http://www.serif.com/" style="fill-rule:evenodd;clip-rule:evenodd;stroke-linejoin:round;stroke-miterlimit:2;">
    <g transform="matrix(1,0,0,1,-2118.27,-4868.4)">
        <g transform="matrix(16.6667,0,0,16.6667,0,0)">
            <g transform="matrix(1,0,0,1,-22.4938,-50.0862)">
                <path d="M162,358.92C162.119,359.159 162.255,359.388 162.407,359.608" style="fill-opacity:0;fill-rule:nonzero;"/>
            </g>
        </g>
        <g transform="matrix(16.6667,0,0,16.6667,0,0)">
            <g transform="matrix(1,0,0,1,-22.4938,-50.0862)">
                <path d="M161.742,359.049C161.868,359.299 162.01,359.541 162.17,359.771C162.26,359.902 162.44,359.935 162.571,359.844C162.701,359.754 162.734,359.574 162.644,359.444C162.5,359.236 162.371,359.018 162.258,358.791C162.187,358.649 162.013,358.591 161.871,358.662C161.729,358.733 161.671,358.907 161.742,359.049Z"/>
            </g>
        </g>
        <g transform="matrix(16.6667,0,0,16.6667,0,0)">
            <g transform="matrix(1,0,0,1,-22.4938,-50.0862)">
                <path d="M169.56,364.68C170.077,364.523 170.578,364.317 171.056,364.067" style="fill-opacity:0;fill-rule:nonzero;"/>
            </g>
        </g>
        <g transform="matrix(16.6667,0,0,16.6667,0,0)">
            <g transform="matrix(1,0,0,1,-22.4938,-50.0862)">
                <path d="M169.644,364.956C170.178,364.793 170.695,364.581 171.19,364.322C171.331,364.248 171.385,364.074 171.311,363.933C171.237,363.792 171.063,363.738 170.922,363.811C170.46,364.054 169.976,364.252 169.476,364.404C169.324,364.451 169.238,364.612 169.284,364.764C169.331,364.916 169.492,365.002 169.644,364.956Z"/>
            </g>
        </g>
        <g transform="matrix(16.6667,0,0,16.6667,0,0)">
            <g transform="matrix(1,0,0,1,-22.4938,-50.0862)">
                <path d="M162.72,363.6C164.025,364.383 165.518,364.797 167.04,364.797" style="fill-opacity:0;fill-rule:nonzero;"/>
            </g>
        </g>
        <g transform="matrix(16.6667,0,0,16.6667,0,0)">
            <g transform="matrix(1,0,0,1,-22.4938,-50.0862)">
                <path d="M162.572,363.847C163.921,364.657 165.466,365.085 167.04,365.085C167.199,365.085 167.328,364.956 167.328,364.797C167.328,364.638 167.199,364.509 167.04,364.509C165.57,364.509 164.128,364.109 162.868,363.353C162.732,363.271 162.555,363.316 162.473,363.452C162.391,363.588 162.436,363.765 162.572,363.847Z"/>
            </g>
        </g>
        <g transform="matrix(16.6667,0,0,16.6667,0,0)">
            <g transform="matrix(1,0,0,1,-22.4938,-50.0862)">
                <path d="M160.2,361.44C160.3,361.576 160.405,361.709 160.513,361.839" style="fill-opacity:0;fill-rule:nonzero;"/>
            </g>
        </g>
        <g transform="matrix(16.6667,0,0,16.6667,0,0)">
            <g transform="matrix(1,0,0,1,-22.4938,-50.0862)">
                <path d="M159.968,361.611C160.072,361.752 160.18,361.889 160.292,362.023C160.394,362.145 160.576,362.162 160.698,362.06C160.82,361.958 160.836,361.776 160.734,361.654C160.63,361.529 160.529,361.4 160.432,361.269C160.337,361.141 160.157,361.114 160.029,361.208C159.901,361.303 159.874,361.483 159.968,361.611Z"/>
            </g>
        </g>
        <g transform="matrix(16.6667,0,0,16.6667,0,0)">
            <g transform="matrix(1,0,0,1,-22.4938,-50.0862)">
                <path d="M168.12,359.64C168.32,359.573 168.514,359.488 168.699,359.385" style="fill-opacity:0;fill-rule:nonzero;"/>
            </g>
        </g>
        <g transform="matrix(16.6667,0,0,16.6667,0,0)">
            <g transform="matrix(1,0,0,1,-22.4938,-50.0862)">
                <path d="M168.211,359.913C168.428,359.841 168.639,359.748 168.839,359.637C168.978,359.56 169.028,359.384 168.951,359.245C168.873,359.106 168.698,359.056 168.559,359.133C168.39,359.227 168.212,359.306 168.029,359.367C167.878,359.417 167.796,359.58 167.847,359.731C167.897,359.882 168.06,359.964 168.211,359.913Z"/>
            </g>
        </g>
        <g transform="matrix(16.6667,0,0,16.6667,0,0)">
            <g transform="matrix(1,0,0,1,-22.4938,-50.0862)">
                <path d="M166.68,358.2C167.029,358.27 167.391,358.237 167.722,358.104" style="fill-opacity:0;fill-rule:nonzero;"/>
            </g>
        </g>
        <g transform="matrix(16.6667,0,0,16.6667,0,0)">
            <g transform="matrix(1,0,0,1,-22.4938,-50.0862)">
                <path d="M166.624,358.482C167.027,358.563 167.446,358.525 167.829,358.372C167.976,358.313 168.048,358.145 167.989,357.997C167.93,357.85 167.762,357.778 167.615,357.837C167.336,357.948 167.031,357.976 166.736,357.918C166.581,357.886 166.429,357.988 166.398,358.144C166.366,358.299 166.468,358.451 166.624,358.482Z"/>
            </g>
        </g>
        <g transform="matrix(16.6667,0,0,16.6667,0,0)">
            <g transform="matrix(1,0,0,1,-22.4938,-50.0862)">
                <path d="M164.16,354.6C163.823,355.14 163.644,355.764 163.644,356.4" style="fill-opacity:0;fill-rule:nonzero;"/>
            </g>
        </g>
        <g transform="matrix(16.6667,0,0,16.6667,0,0)">
            <g transform="matrix(1,0,0,1,-22.4938,-50.0862)">
                <path d="M163.916,354.447C163.55,355.033 163.356,355.71 163.356,356.4C163.356,356.559 163.485,356.688 163.644,356.688C163.803,356.688 163.932,356.559 163.932,356.4C163.932,355.818 164.096,355.247 164.404,354.753C164.488,354.618 164.447,354.44 164.313,354.356C164.178,354.272 164,354.313 163.916,354.447Z"/>
            </g>
        </g>
        <g transform="matrix(16.6667,0,0,16.6667,0,0)">
            <g transform="matrix(1,0,0,1,-22.4938,-50.0862)">
                <path d="M162,354.6C161.665,355.537 161.599,356.548 161.807,357.521" style="fill-opacity:0;fill-rule:nonzero;"/>
            </g>
        </g>
        <g transform="matrix(16.6667,0,0,16.6667,0,0)">
            <g transform="matrix(1,0,0,1,-22.4938,-50.0862)">
                <path d="M162.271,354.697L161.729,354.503C161.376,355.49 161.306,356.556 161.525,357.581C161.559,357.737 161.712,357.836 161.867,357.803C162.023,357.769 162.122,357.616 162.089,357.461C161.891,356.54 161.955,355.583 162.271,354.697Z"/>
            </g>
        </g>
        <g transform="matrix(16.6667,0,0,16.6667,0,0)">
            <g transform="matrix(1,0,0,1,-22.4938,-50.0862)">
                <path d="M163.44,360.36C163.762,360.653 164.119,360.906 164.503,361.112" style="fill-opacity:0;fill-rule:nonzero;"/>
            </g>
        </g>
        <g transform="matrix(16.6667,0,0,16.6667,0,0)">
            <g transform="matrix(1,0,0,1,-22.4938,-50.0862)">
                <path d="M163.246,360.573C163.586,360.882 163.962,361.148 164.366,361.366C164.506,361.441 164.681,361.389 164.756,361.249C164.832,361.109 164.779,360.934 164.639,360.859C164.276,360.663 163.939,360.424 163.634,360.147C163.516,360.04 163.334,360.049 163.227,360.166C163.12,360.284 163.129,360.466 163.246,360.573Z"/>
            </g>
        </g>
        <g transform="matrix(16.6667,0,0,16.6667,0,0)">
            <g transform="matrix(1,0,0,1,-22.4938,-50.0862)">
                <path d="M164.16,357.84C164.648,358.816 165.6,359.48 166.684,359.6" style="fill-opacity:0;fill-rule:nonzero;"/>
            </g>
        </g>
        <g transform="matrix(16.6667,0,0,16.6667,0,0)">
            <g transform="matrix(1,0,0,1,-22.4938,-50.0862)">
                <path d="M164.16,357.84L163.902,357.969C164.434,359.032 165.471,359.755 166.652,359.887C166.81,359.904 166.953,359.79 166.971,359.632C166.988,359.474 166.874,359.332 166.716,359.314C165.729,359.204 164.862,358.6 164.418,357.711C164.358,357.84 164.224,357.84 164.094,357.84L163.872,357.84L164.16,357.84Z"/>
            </g>
        </g>
        <g transform="matrix(16.6667,0,0,16.6667,0,0)">
            <g transform="matrix(1,0,0,1,-22.4938,-50.0862)">
                <path d="M158.4,356.4C158.4,357.366 158.562,358.326 158.88,359.238" style="fill-opacity:0;fill-rule:nonzero;"/>
            </g>
        </g>
        <g transform="matrix(16.6667,0,0,16.6667,0,0)">
            <g transform="matrix(1,0,0,1,-22.4938,-50.0862)">
                <path d="M158.112,356.4C158.112,357.398 158.28,358.39 158.608,359.333C158.66,359.483 158.824,359.562 158.974,359.51C159.124,359.458 159.204,359.294 159.152,359.144C158.845,358.261 158.688,357.334 158.688,356.4C158.688,356.241 158.559,356.112 158.4,356.112C158.241,356.112 158.112,356.241 158.112,356.4Z"/>
            </g>
        </g>
        <g transform="matrix(16.6667,0,0,16.6667,0,0)">
            <g transform="matrix(1,0,0,1,-22.4938,-50.0862)">
                <path d="M159.84,352.08C159.505,352.638 159.236,353.234 159.039,353.854" style="fill-opacity:0;fill-rule:nonzero;"/>
            </g>
        </g>
        <g transform="matrix(16.6667,0,0,16.6667,0,0)">
            <g transform="matrix(1,0,0,1,-22.4938,-50.0862)">
                <path d="M159.84,352.08L159.593,351.932C159.247,352.509 158.968,353.125 158.764,353.767C158.716,353.918 158.8,354.08 158.951,354.129C159.103,354.177 159.265,354.093 159.313,353.941C159.504,353.342 159.763,352.767 160.087,352.228C160.031,352.08 159.926,352.08 159.817,352.08L159.573,352.08L159.84,352.08Z"/>
            </g>
        </g>
        <g transform="matrix(16.6667,0,0,16.6667,0,0)">
            <g transform="matrix(1,0,0,1,-22.4938,-50.0862)">
                <path d="M167.04,361.8C167.727,361.8 168.407,361.669 169.045,361.414" style="fill-opacity:0;fill-rule:nonzero;"/>
            </g>
        </g>
        <g transform="matrix(16.6667,0,0,16.6667,0,0)">
            <g transform="matrix(1,0,0,1,-22.4938,-50.0862)">
                <path d="M167.04,362.088C167.763,362.088 168.48,361.95 169.152,361.681C169.3,361.622 169.372,361.455 169.313,361.307C169.254,361.16 169.086,361.088 168.938,361.147C168.335,361.388 167.69,361.512 167.04,361.512C166.881,361.512 166.752,361.641 166.752,361.8C166.752,361.959 166.881,362.088 167.04,362.088Z"/>
            </g>
        </g>
        <g transform="matrix(16.6667,0,0,16.6667,0,0)">
            <g transform="matrix(1,0,0,1,-22.4938,-50.0862)">
                <path d="M165.24,355.68C165.055,356.142 165.055,356.658 165.24,357.12" style="fill-opacity:0;fill-rule:nonzero;"/>
            </g>
        </g>
        <g transform="matrix(16.6667,0,0,16.6667,0,0)">
            <g transform="matrix(1,0,0,1,-22.4938,-50.0862)">
                <path d="M164.973,355.573C164.76,356.104 164.76,356.696 164.973,357.227C165.032,357.375 165.199,357.446 165.347,357.387C165.495,357.328 165.566,357.161 165.507,357.013C165.35,356.62 165.35,356.18 165.507,355.787C165.566,355.639 165.495,355.472 165.347,355.413C165.199,355.354 165.032,355.425 164.973,355.573Z"/>
            </g>
        </g>
        <g transform="matrix(16.6667,0,0,16.6667,0,0)">
            <g transform="matrix(1,0,0,1,-22.4938,-50.0862)">
                <path d="M173.16,362.16C174.63,360.601 175.45,358.537 175.45,356.394C175.45,351.784 171.656,347.99 167.046,347.99C164.815,347.99 162.673,348.878 161.097,350.457" style="fill-opacity:0;fill-rule:nonzero;"/>
            </g>
        </g>
        <g transform="matrix(16.6667,0,0,16.6667,0,0)">
            <g transform="matrix(1,0,0,1,-22.4938,-50.0862)">
                <path d="M173.37,362.358C174.89,360.745 175.738,358.61 175.738,356.394C175.738,351.626 171.814,347.702 167.046,347.702C164.738,347.702 162.523,348.62 160.893,350.254C160.781,350.366 160.781,350.549 160.894,350.661C161.006,350.773 161.189,350.773 161.301,350.661C162.823,349.136 164.891,348.278 167.046,348.278C171.498,348.278 175.162,351.942 175.162,356.394C175.162,358.464 174.37,360.457 172.95,361.962C172.841,362.078 172.847,362.26 172.962,362.37C173.078,362.479 173.26,362.473 173.37,362.358Z"/>
            </g>
        </g>
        <g transform="matrix(16.6667,0,0,16.6667,0,0)">
            <g transform="matrix(1,0,0,1,-22.4938,-50.0862)">
                <path d="M171,360C171.897,359.015 172.394,357.729 172.394,356.397C172.394,353.461 169.978,351.045 167.043,351.045C165.682,351.045 164.371,351.564 163.38,352.495" style="fill-opacity:0;fill-rule:nonzero;"/>
            </g>
        </g>
        <g transform="matrix(16.6667,0,0,16.6667,0,0)">
            <g transform="matrix(1,0,0,1,-22.4938,-50.0862)">
                <path d="M171.213,360.194C172.158,359.156 172.682,357.801 172.682,356.397C172.682,353.303 170.136,350.757 167.043,350.757C165.609,350.757 164.228,351.304 163.182,352.285C163.067,352.394 163.061,352.577 163.17,352.693C163.278,352.808 163.461,352.814 163.577,352.705C164.515,351.824 165.755,351.333 167.043,351.333C169.82,351.333 172.106,353.619 172.106,356.397C172.106,357.658 171.636,358.874 170.787,359.806C170.68,359.924 170.689,360.106 170.806,360.213C170.924,360.32 171.106,360.311 171.213,360.194Z"/>
            </g>
        </g>
        <g transform="matrix(16.6667,0,0,16.6667,0,0)">
            <g transform="matrix(1,0,0,1,-22.4938,-50.0862)">
                <circle cx="167.04" cy="356.4" r="0.805" style="fill-opacity:0;"/>
            </g>
        </g>
        <g transform="matrix(16.6667,0,0,16.6667,0,0)">
            <g transform="matrix(1,0,0,1,-22.4938,-50.0862)">
                <path d="M167.04,355.307C166.437,355.307 165.947,355.797 165.947,356.4C165.947,357.003 166.437,357.493 167.04,357.493C167.643,357.493 168.133,357.003 168.133,356.4C168.133,355.797 167.643,355.307 167.04,355.307ZM167.04,355.883C167.325,355.883 167.557,356.115 167.557,356.4C167.557,356.685 167.325,356.917 167.04,356.917C166.755,356.917 166.523,356.685 166.523,356.4C166.523,356.115 166.755,355.883 167.04,355.883Z"/>
            </g>
        </g>
        <g transform="matrix(16.6667,0,0,16.6667,0,0)">
            <g transform="matrix(1,0,0,1,-22.4938,-50.0862)">
                <path d="M169.56,358.56C170.076,357.959 170.359,357.192 170.359,356.399C170.359,354.579 168.861,353.08 167.04,353.08C166.236,353.08 165.459,353.373 164.854,353.902" style="fill-opacity:0;fill-rule:nonzero;"/>
            </g>
        </g>
        <g transform="matrix(16.6667,0,0,16.6667,0,0)">
            <g transform="matrix(1,0,0,1,-22.4938,-50.0862)">
                <path d="M169.56,358.56L169.56,358.747L169.779,358.747C170.339,358.094 170.647,357.261 170.647,356.399C170.647,354.421 169.019,352.792 167.04,352.792C166.167,352.792 165.322,353.11 164.664,353.686C164.545,353.79 164.533,353.972 164.637,354.092C164.742,354.212 164.924,354.224 165.044,354.119C165.596,353.635 166.306,353.368 167.04,353.368C168.703,353.368 170.071,354.737 170.071,356.399C170.071,357.123 169.812,357.823 169.341,358.373L169.56,358.56Z"/>
            </g>
        </g>
        <g transform="matrix(16.6667,0,0,16.6667,0,0)">
            <g transform="matrix(1,0,0,1,-22.4938,-50.0862)">
                <path d="M168.48,357.48C168.714,357.168 168.84,356.789 168.84,356.4C168.84,355.412 168.028,354.6 167.04,354.6C166.619,354.6 166.211,354.747 165.888,355.017" style="fill-opacity:0;fill-rule:nonzero;"/>
            </g>
        </g>
        <g transform="matrix(16.6667,0,0,16.6667,0,0)">
            <g transform="matrix(1,0,0,1,-22.4938,-50.0862)">
                <path d="M168.71,357.653C168.981,357.291 169.128,356.852 169.128,356.4C169.128,355.254 168.186,354.312 167.04,354.312C166.552,354.312 166.079,354.483 165.704,354.796C165.582,354.897 165.565,355.079 165.667,355.201C165.768,355.323 165.95,355.34 166.072,355.238C166.344,355.012 166.687,354.888 167.04,354.888C167.87,354.888 168.552,355.57 168.552,356.4C168.552,356.727 168.446,357.045 168.25,357.307C168.154,357.434 168.18,357.615 168.307,357.71C168.434,357.806 168.615,357.78 168.71,357.653Z"/>
            </g>
        </g>
        <g transform="matrix(16.6667,0,0,16.6667,0,0)">
            <g transform="matrix(1,0,0,1,-22.4938,-50.0862)">
                <path d="M152.676,353.952L156.996,353.952" style="fill:none;fill-rule:nonzero;"/>
            </g>
        </g>
        <g transform="matrix(16.6667,0,0,16.6667,0,0)">
            <g transform="matrix(1,0,0,1,-22.4938,-50.0862)">
                <path d="M152.676,354.24L156.996,354.24C157.155,354.24 157.284,354.111 157.284,353.952C157.284,353.793 157.155,353.664 156.996,353.664L152.676,353.664C152.517,353.664 152.388,353.793 152.388,353.952C152.388,354.111 152.517,354.24 152.676,354.24Z"/>
            </g>
        </g>
        <g transform="matrix(16.6667,0,0,16.6667,0,0)">
            <g transform="matrix(1,0,0,1,-22.4938,-50.0862)">
                <path d="M154.836,352.512L154.836,349.632" style="fill:none;fill-rule:nonzero;"/>
            </g>
        </g>
        <g transform="matrix(16.6667,0,0,16.6667,0,0)">
            <g transform="matrix(1,0,0,1,-22.4938,-50.0862)">
                <path d="M155.124,352.512L155.124,349.632C155.124,349.473 154.995,349.344 154.836,349.344C154.677,349.344 154.548,349.473 154.548,349.632L154.548,352.512C154.548,352.671 154.677,352.8 154.836,352.8C154.995,352.8 155.124,352.671 155.124,352.512Z"/>
            </g>
        </g>
        <g transform="matrix(16.6667,0,0,16.6667,0,0)">
            <g transform="matrix(1,0,0,1,-22.4938,-50.0862)">
                <path d="M152.676,352.512L152.676,353.952" style="fill:none;fill-rule:nonzero;"/>
            </g>
        </g>
        <g transform="matrix(16.6667,0,0,16.6667,0,0)">
            <g transform="matrix(1,0,0,1,-22.4938,-50.0862)">
                <path d="M152.388,352.512L152.388,353.952C152.388,354.111 152.517,354.24 152.676,354.24C152.835,354.24 152.964,354.111 152.964,353.952L152.964,352.512C152.964,352.353 152.835,352.224 152.676,352.224C152.517,352.224 152.388,352.353 152.388,352.512Z"/>
            </g>
        </g>
        <g transform="matrix(16.6667,0,0,16.6667,0,0)">
            <g transform="matrix(1,0,0,1,-22.4938,-50.0862)">
                <path d="M156.996,353.952L156.996,352.512" style="fill:none;fill-rule:nonzero;"/>
            </g>
        </g>
        <g transform="matrix(16.6667,0,0,16.6667,0,0)">
            <g transform="matrix(1,0,0,1,-22.4938,-50.0862)">
                <path d="M157.284,353.952L157.284,352.512C157.284,352.353 157.155,352.224 156.996,352.224C156.837,352.224 156.708,352.353 156.708,352.512L156.708,353.952C156.708,354.111 156.837,354.24 156.996,354.24C157.155,354.24 157.284,354.111 157.284,353.952Z"/>
            </g>
        </g>
        <g transform="matrix(16.6667,0,0,16.6667,0,0)">
            <g transform="matrix(1,0,0,1,-22.4938,-50.0862)">
                <path d="M152.676,352.512L156.996,352.512" style="fill:none;fill-rule:nonzero;"/>
            </g>
        </g>
        <g transform="matrix(16.6667,0,0,16.6667,0,0)">
            <g transform="matrix(1,0,0,1,-22.4938,-50.0862)">
                <path d="M152.676,352.8L156.996,352.8C157.155,352.8 157.284,352.671 157.284,352.512C157.284,352.353 157.155,352.224 156.996,352.224L152.676,352.224C152.517,352.224 152.388,352.353 152.388,352.512C152.388,352.671 152.517,352.8 152.676,352.8Z"/>
            </g>
        </g>
        <g transform="matrix(16.6667,0,0,16.6667,0,0)">
            <g transform="matrix(1,0,0,1,-22.4938,-50.0862)">
                <path d="M154.836,353.952L154.836,364.032" style="fill:none;fill-rule:nonzero;"/>
            </g>
        </g>
        <g transform="matrix(16.6667,0,0,16.6667,0,0)">
            <g transform="matrix(1,0,0,1,-22.4938,-50.0862)">
                <path d="M154.548,353.952L154.548,364.032C154.548,364.191 154.677,364.32 154.836,364.32C154.995,364.32 155.124,364.191 155.124,364.032L155.124,353.952C155.124,353.793 154.995,353.664 154.836,353.664C154.677,353.664 154.548,353.793 154.548,353.952Z"/>
            </g>
        </g>
        <g transform="matrix(16.6667,0,0,16.6667,0,0)">
            <g transform="matrix(1,0,0,1,-22.4938,-50.0862)">
                <path d="M152.28,348.48L150.264,346.968" style="fill:none;fill-rule:nonzero;"/>
            </g>
        </g>
        <g transform="matrix(16.6667,0,0,16.6667,0,0)">
            <g transform="matrix(1,0,0,1,-22.4938,-50.0862)">
                <path d="M152.382,348.344L150.366,346.832C150.291,346.776 150.184,346.791 150.128,346.866C150.072,346.941 150.087,347.048 150.162,347.104L152.178,348.616C152.253,348.672 152.36,348.657 152.416,348.582C152.472,348.507 152.457,348.4 152.382,348.344Z"/>
            </g>
        </g>
        <g transform="matrix(16.6667,0,0,16.6667,0,0)">
            <g transform="matrix(1,0,0,1,-22.4938,-50.0862)">
                <circle cx="164.16" cy="356.76" r="14.4" style="fill-opacity:0;"/>
            </g>
        </g>
        <g transform="matrix(16.6667,0,0,16.6667,0,0)">
            <g transform="matrix(1,0,0,1,-22.4938,-50.0862)">
                <path d="M164.16,342.19C156.119,342.19 149.59,348.719 149.59,356.76C149.59,364.801 156.119,371.33 164.16,371.33C172.201,371.33 178.73,364.801 178.73,356.76C178.73,348.719 172.201,342.19 164.16,342.19ZM164.16,342.53C172.014,342.53 178.39,348.906 178.39,356.76C178.39,364.614 172.014,370.99 164.16,370.99C156.306,370.99 149.93,364.614 149.93,356.76C149.93,348.906 156.306,342.53 164.16,342.53Z"/>
            </g>
        </g>
    </g>
</svg>
