<?xml version="1.0" encoding="UTF-8" standalone="no"?>
<!DOCTYPE svg PUBLIC "-//W3C//DTD SVG 1.1//EN" "http://www.w3.org/Graphics/SVG/1.1/DTD/svg11.dtd">
<svg width="100%" height="100%" viewBox="0 0 486 486" version="1.1" xmlns="http://www.w3.org/2000/svg" xmlns:xlink="http://www.w3.org/1999/xlink" xml:space="preserve" xmlns:serif="http://www.serif.com/" style="fill-rule:evenodd;clip-rule:evenodd;stroke-linejoin:round;stroke-miterlimit:2;">
    <g transform="matrix(1,0,0,1,-2694.27,-4868.4)">
        <g transform="matrix(16.6667,0,0,16.6667,0,0)">
            <g transform="matrix(1,0,0,1,-22.4938,-50.0862)">
                <path d="M204.84,352.08L207.72,352.08" style="fill:none;fill-rule:nonzero;"/>
            </g>
        </g>
        <g transform="matrix(16.6667,0,0,16.6667,0,0)">
            <g transform="matrix(1,0,0,1,-22.4938,-50.0862)">
                <path d="M204.84,352.368L207.72,352.368C207.879,352.368 208.008,352.239 208.008,352.08C208.008,351.921 207.879,351.792 207.72,351.792L204.84,351.792C204.681,351.792 204.552,351.921 204.552,352.08C204.552,352.239 204.681,352.368 204.84,352.368Z"/>
            </g>
        </g>
        <g transform="matrix(16.6667,0,0,16.6667,0,0)">
            <g transform="matrix(1,0,0,1,-22.4938,-50.0862)">
                <path d="M197.64,352.08L204.84,352.08" style="fill:none;fill-rule:nonzero;"/>
            </g>
        </g>
        <g transform="matrix(16.6667,0,0,16.6667,0,0)">
            <g transform="matrix(1,0,0,1,-22.4938,-50.0862)">
                <path d="M197.64,352.368L204.84,352.368C204.999,352.368 205.128,352.239 205.128,352.08C205.128,351.921 204.999,351.792 204.84,351.792L197.64,351.792C197.481,351.792 197.352,351.921 197.352,352.08C197.352,352.239 197.481,352.368 197.64,352.368Z"/>
            </g>
        </g>
        <g transform="matrix(16.6667,0,0,16.6667,0,0)">
            <g transform="matrix(1,0,0,1,-22.4938,-50.0862)">
                <path d="M197.64,352.08C195.728,351.906 193.949,353.141 193.444,354.994" style="fill-opacity:0;fill-rule:nonzero;"/>
            </g>
        </g>
        <g transform="matrix(16.6667,0,0,16.6667,0,0)">
            <g transform="matrix(1,0,0,1,-22.4938,-50.0862)">
                <path d="M197.614,352.367L197.666,351.793C195.615,351.607 193.708,352.931 193.166,354.918C193.124,355.071 193.215,355.23 193.368,355.272C193.521,355.314 193.68,355.223 193.722,355.07C194.19,353.351 195.84,352.206 197.614,352.367Z"/>
            </g>
        </g>
        <g transform="matrix(16.6667,0,0,16.6667,0,0)">
            <g transform="matrix(1,0,0,1,-22.4938,-50.0862)">
                <path d="M190.8,362.88L193.442,354.989" style="fill:none;fill-rule:nonzero;"/>
            </g>
        </g>
        <g transform="matrix(16.6667,0,0,16.6667,0,0)">
            <g transform="matrix(1,0,0,1,-22.4938,-50.0862)">
                <path d="M191.073,362.971L193.715,355.08C193.766,354.93 193.685,354.766 193.534,354.716C193.383,354.665 193.22,354.747 193.169,354.897L190.527,362.789C190.476,362.939 190.558,363.103 190.709,363.153C190.859,363.204 191.023,363.122 191.073,362.971Z"/>
            </g>
        </g>
        <g transform="matrix(16.6667,0,0,16.6667,0,0)">
            <g transform="matrix(1,0,0,1,-22.4938,-50.0862)">
                <path d="M189,363.96L209.52,363.96" style="fill:none;fill-rule:nonzero;"/>
            </g>
        </g>
        <g transform="matrix(16.6667,0,0,16.6667,0,0)">
            <g transform="matrix(1,0,0,1,-22.4938,-50.0862)">
                <path d="M189,364.248L209.52,364.248C209.679,364.248 209.808,364.119 209.808,363.96C209.808,363.801 209.679,363.672 209.52,363.672L189,363.672C188.841,363.672 188.712,363.801 188.712,363.96C188.712,364.119 188.841,364.248 189,364.248Z"/>
            </g>
        </g>
        <g transform="matrix(16.6667,0,0,16.6667,0,0)">
            <g transform="matrix(1,0,0,1,-22.4938,-50.0862)">
                <path d="M189,349.56L189,363.96" style="fill:none;fill-rule:nonzero;"/>
            </g>
        </g>
        <g transform="matrix(16.6667,0,0,16.6667,0,0)">
            <g transform="matrix(1,0,0,1,-22.4938,-50.0862)">
                <path d="M188.712,349.56L188.712,363.96C188.712,364.119 188.841,364.248 189,364.248C189.159,364.248 189.288,364.119 189.288,363.96L189.288,349.56C189.288,349.401 189.159,349.272 189,349.272C188.841,349.272 188.712,349.401 188.712,349.56Z"/>
            </g>
        </g>
        <g transform="matrix(16.6667,0,0,16.6667,0,0)">
            <g transform="matrix(1,0,0,1,-22.4938,-50.0862)">
                <path d="M186.84,348.48L184.824,346.968" style="fill:none;fill-rule:nonzero;"/>
            </g>
        </g>
        <g transform="matrix(16.6667,0,0,16.6667,0,0)">
            <g transform="matrix(1,0,0,1,-22.4938,-50.0862)">
                <path d="M186.942,348.344L184.926,346.832C184.851,346.776 184.744,346.791 184.688,346.866C184.632,346.941 184.647,347.048 184.722,347.104L186.738,348.616C186.813,348.672 186.92,348.657 186.976,348.582C187.032,348.507 187.017,348.4 186.942,348.344Z"/>
            </g>
        </g>
        <g transform="matrix(16.6667,0,0,16.6667,0,0)">
            <g transform="matrix(1,0,0,1,-22.4938,-50.0862)">
                <circle cx="198.72" cy="356.76" r="14.4" style="fill-opacity:0;"/>
            </g>
        </g>
        <g transform="matrix(16.6667,0,0,16.6667,0,0)">
            <g transform="matrix(1,0,0,1,-22.4938,-50.0862)">
                <path d="M198.72,342.19C190.679,342.19 184.15,348.719 184.15,356.76C184.15,364.801 190.679,371.33 198.72,371.33C206.761,371.33 213.29,364.801 213.29,356.76C213.29,348.719 206.761,342.19 198.72,342.19ZM198.72,342.53C206.574,342.53 212.95,348.906 212.95,356.76C212.95,364.614 206.574,370.99 198.72,370.99C190.866,370.99 184.49,364.614 184.49,356.76C184.49,348.906 190.866,342.53 198.72,342.53Z"/>
            </g>
        </g>
    </g>
</svg>
