<?xml version="1.0" encoding="UTF-8" standalone="no"?>
<!DOCTYPE svg PUBLIC "-//W3C//DTD SVG 1.1//EN" "http://www.w3.org/Graphics/SVG/1.1/DTD/svg11.dtd">
<svg width="100%" height="100%" viewBox="0 0 486 486" version="1.1" xmlns="http://www.w3.org/2000/svg" xmlns:xlink="http://www.w3.org/1999/xlink" xml:space="preserve" xmlns:serif="http://www.serif.com/" style="fill-rule:evenodd;clip-rule:evenodd;stroke-linejoin:round;stroke-miterlimit:2;">
    <g transform="matrix(1,0,0,1,-3846.27,-4868.4)">
        <g transform="matrix(16.6667,0,0,16.6667,0,0)">
            <g transform="matrix(1,0,0,1,-22.4938,-50.0862)">
                <path d="M270.713,349.214L270,349.2" style="fill:none;fill-rule:nonzero;"/>
            </g>
        </g>
        <g transform="matrix(16.6667,0,0,16.6667,0,0)">
            <g transform="matrix(1,0,0,1,-22.4938,-50.0862)">
                <path d="M270.719,348.926L270.006,348.912C269.847,348.909 269.715,349.035 269.712,349.194C269.709,349.353 269.835,349.485 269.994,349.488L270.707,349.502C270.866,349.506 270.998,349.379 271.001,349.22C271.004,349.061 270.878,348.93 270.719,348.926Z"/>
            </g>
        </g>
        <g transform="matrix(16.6667,0,0,16.6667,0,0)">
            <g transform="matrix(1,0,0,1,-22.4938,-50.0862)">
                <path d="M273.6,353.16L272.88,351.72" style="fill:none;fill-rule:nonzero;"/>
            </g>
        </g>
        <g transform="matrix(16.6667,0,0,16.6667,0,0)">
            <g transform="matrix(1,0,0,1,-22.4938,-50.0862)">
                <path d="M273.858,353.031L273.138,351.591C273.067,351.449 272.893,351.391 272.751,351.462C272.609,351.533 272.551,351.707 272.622,351.849L273.342,353.289C273.413,353.431 273.587,353.489 273.729,353.418C273.871,353.347 273.929,353.173 273.858,353.031Z"/>
            </g>
        </g>
        <g transform="matrix(16.6667,0,0,16.6667,0,0)">
            <g transform="matrix(1,0,0,1,-22.4938,-50.0862)">
                <path d="M273.6,353.16L274.32,351.72" style="fill:none;fill-rule:nonzero;"/>
            </g>
        </g>
        <g transform="matrix(16.6667,0,0,16.6667,0,0)">
            <g transform="matrix(1,0,0,1,-22.4938,-50.0862)">
                <path d="M273.858,353.289L274.578,351.849C274.649,351.707 274.591,351.533 274.449,351.462C274.307,351.391 274.133,351.449 274.062,351.591L273.342,353.031C273.271,353.173 273.329,353.347 273.471,353.418C273.613,353.489 273.787,353.431 273.858,353.289Z"/>
            </g>
        </g>
        <g transform="matrix(16.6667,0,0,16.6667,0,0)">
            <g transform="matrix(1,0,0,1,-22.4938,-50.0862)">
                <path d="M273.6,352.44L273.6,353.16" style="fill:none;fill-rule:nonzero;"/>
            </g>
        </g>
        <g transform="matrix(16.6667,0,0,16.6667,0,0)">
            <g transform="matrix(1,0,0,1,-22.4938,-50.0862)">
                <path d="M273.312,352.44L273.312,353.16C273.312,353.319 273.441,353.448 273.6,353.448C273.759,353.448 273.888,353.319 273.888,353.16L273.888,352.44C273.888,352.281 273.759,352.152 273.6,352.152C273.441,352.152 273.312,352.281 273.312,352.44Z"/>
            </g>
        </g>
        <g transform="matrix(16.6667,0,0,16.6667,0,0)">
            <g transform="matrix(1,0,0,1,-22.4938,-50.0862)">
                <path d="M273.6,352.44C273.6,350.797 272.35,349.402 270.718,349.22" style="fill-opacity:0;fill-rule:nonzero;"/>
            </g>
        </g>
        <g transform="matrix(16.6667,0,0,16.6667,0,0)">
            <g transform="matrix(1,0,0,1,-22.4938,-50.0862)">
                <path d="M273.888,352.44C273.888,350.651 272.527,349.131 270.75,348.934C270.592,348.916 270.449,349.03 270.432,349.188C270.414,349.346 270.528,349.489 270.686,349.506C272.174,349.672 273.312,350.943 273.312,352.44C273.312,352.599 273.441,352.728 273.6,352.728C273.759,352.728 273.888,352.599 273.888,352.44Z"/>
            </g>
        </g>
        <g transform="matrix(16.6667,0,0,16.6667,0,0)">
            <g transform="matrix(1,0,0,1,-22.4938,-50.0862)">
                <path d="M261.36,344.88L267.12,344.88" style="fill:none;fill-rule:nonzero;"/>
            </g>
        </g>
        <g transform="matrix(16.6667,0,0,16.6667,0,0)">
            <g transform="matrix(1,0,0,1,-22.4938,-50.0862)">
                <path d="M261.36,345.168L267.12,345.168C267.279,345.168 267.408,345.039 267.408,344.88C267.408,344.721 267.279,344.592 267.12,344.592L261.36,344.592C261.201,344.592 261.072,344.721 261.072,344.88C261.072,345.039 261.201,345.168 261.36,345.168Z"/>
            </g>
        </g>
        <g transform="matrix(16.6667,0,0,16.6667,0,0)">
            <g transform="matrix(1,0,0,1,-22.4938,-50.0862)">
                <circle cx="264.24" cy="349.2" r="2.546" style="fill-opacity:0;"/>
            </g>
        </g>
        <g transform="matrix(16.6667,0,0,16.6667,0,0)">
            <g transform="matrix(1,0,0,1,-22.4938,-50.0862)">
                <path d="M264.24,346.366C262.676,346.366 261.406,347.636 261.406,349.2C261.406,350.764 262.676,352.034 264.24,352.034C265.804,352.034 267.074,350.764 267.074,349.2C267.074,347.636 265.804,346.366 264.24,346.366ZM264.24,346.942C265.486,346.942 266.498,347.954 266.498,349.2C266.498,350.446 265.486,351.458 264.24,351.458C262.994,351.458 261.982,350.446 261.982,349.2C261.982,347.954 262.994,346.942 264.24,346.942Z"/>
            </g>
        </g>
        <g transform="matrix(16.6667,0,0,16.6667,0,0)">
            <g transform="matrix(1,0,0,1,-22.4938,-50.0862)">
                <path d="M267.12,353.52L261.36,353.52" style="fill:none;fill-rule:nonzero;"/>
            </g>
        </g>
        <g transform="matrix(16.6667,0,0,16.6667,0,0)">
            <g transform="matrix(1,0,0,1,-22.4938,-50.0862)">
                <path d="M267.12,353.232L261.36,353.232C261.201,353.232 261.072,353.361 261.072,353.52C261.072,353.679 261.201,353.808 261.36,353.808L267.12,353.808C267.279,353.808 267.408,353.679 267.408,353.52C267.408,353.361 267.279,353.232 267.12,353.232Z"/>
            </g>
        </g>
        <g transform="matrix(16.6667,0,0,16.6667,0,0)">
            <g transform="matrix(1,0,0,1,-22.4938,-50.0862)">
                <path d="M261.36,353.52L259.56,349.2" style="fill:none;fill-rule:nonzero;"/>
            </g>
        </g>
        <g transform="matrix(16.6667,0,0,16.6667,0,0)">
            <g transform="matrix(1,0,0,1,-22.4938,-50.0862)">
                <path d="M261.626,353.409L259.826,349.089C259.765,348.943 259.596,348.873 259.449,348.934C259.303,348.995 259.233,349.164 259.294,349.311L261.094,353.631C261.155,353.777 261.324,353.847 261.471,353.786C261.617,353.725 261.687,353.556 261.626,353.409Z"/>
            </g>
        </g>
        <g transform="matrix(16.6667,0,0,16.6667,0,0)">
            <g transform="matrix(1,0,0,1,-22.4938,-50.0862)">
                <path d="M268.92,349.2L267.12,353.52" style="fill:none;fill-rule:nonzero;"/>
            </g>
        </g>
        <g transform="matrix(16.6667,0,0,16.6667,0,0)">
            <g transform="matrix(1,0,0,1,-22.4938,-50.0862)">
                <path d="M268.654,349.089L266.854,353.409C266.793,353.556 266.863,353.725 267.009,353.786C267.156,353.847 267.325,353.777 267.386,353.631L269.186,349.311C269.247,349.164 269.177,348.995 269.031,348.934C268.884,348.873 268.715,348.943 268.654,349.089Z"/>
            </g>
        </g>
        <g transform="matrix(16.6667,0,0,16.6667,0,0)">
            <g transform="matrix(1,0,0,1,-22.4938,-50.0862)">
                <path d="M267.12,344.88L268.92,349.2" style="fill:none;fill-rule:nonzero;"/>
            </g>
        </g>
        <g transform="matrix(16.6667,0,0,16.6667,0,0)">
            <g transform="matrix(1,0,0,1,-22.4938,-50.0862)">
                <path d="M266.854,344.991L268.654,349.311C268.715,349.457 268.884,349.527 269.031,349.466C269.177,349.405 269.247,349.236 269.186,349.089L267.386,344.769C267.325,344.623 267.156,344.553 267.009,344.614C266.863,344.675 266.793,344.844 266.854,344.991Z"/>
            </g>
        </g>
        <g transform="matrix(16.6667,0,0,16.6667,0,0)">
            <g transform="matrix(1,0,0,1,-22.4938,-50.0862)">
                <path d="M259.56,349.2L261.36,344.88" style="fill:none;fill-rule:nonzero;"/>
            </g>
        </g>
        <g transform="matrix(16.6667,0,0,16.6667,0,0)">
            <g transform="matrix(1,0,0,1,-22.4938,-50.0862)">
                <path d="M259.826,349.311L261.626,344.991C261.687,344.844 261.617,344.675 261.471,344.614C261.324,344.553 261.155,344.623 261.094,344.769L259.294,349.089C259.233,349.236 259.303,349.405 259.449,349.466C259.596,349.527 259.765,349.457 259.826,349.311Z"/>
            </g>
        </g>
        <g transform="matrix(16.6667,0,0,16.6667,0,0)">
            <g transform="matrix(1,0,0,1,-22.4938,-50.0862)">
                <circle cx="264.24" cy="349.2" r="3.319" style="fill-opacity:0;"/>
            </g>
        </g>
        <g transform="matrix(16.6667,0,0,16.6667,0,0)">
            <g transform="matrix(1,0,0,1,-22.4938,-50.0862)">
                <path d="M264.24,345.593C262.249,345.593 260.633,347.209 260.633,349.2C260.633,351.191 262.249,352.807 264.24,352.807C266.231,352.807 267.847,351.191 267.847,349.2C267.847,347.209 266.231,345.593 264.24,345.593ZM264.24,346.169C265.913,346.169 267.271,347.527 267.271,349.2C267.271,350.873 265.913,352.231 264.24,352.231C262.567,352.231 261.209,350.873 261.209,349.2C261.209,347.527 262.567,346.169 264.24,346.169Z"/>
            </g>
        </g>
        <g transform="matrix(16.6667,0,0,16.6667,0,0)">
            <g transform="matrix(1,0,0,1,-22.4938,-50.0862)">
                <path d="M271.08,362.52L271.08,366.84" style="fill:none;fill-rule:nonzero;"/>
            </g>
        </g>
        <g transform="matrix(16.6667,0,0,16.6667,0,0)">
            <g transform="matrix(1,0,0,1,-22.4938,-50.0862)">
                <path d="M270.792,362.52L270.792,366.84C270.792,366.999 270.921,367.128 271.08,367.128C271.239,367.128 271.368,366.999 271.368,366.84L271.368,362.52C271.368,362.361 271.239,362.232 271.08,362.232C270.921,362.232 270.792,362.361 270.792,362.52Z"/>
            </g>
        </g>
        <g transform="matrix(16.6667,0,0,16.6667,0,0)">
            <g transform="matrix(1,0,0,1,-22.4938,-50.0862)">
                <path d="M264.6,362.52L264.6,366.84" style="fill:none;fill-rule:nonzero;"/>
            </g>
        </g>
        <g transform="matrix(16.6667,0,0,16.6667,0,0)">
            <g transform="matrix(1,0,0,1,-22.4938,-50.0862)">
                <path d="M264.312,362.52L264.312,366.84C264.312,366.999 264.441,367.128 264.6,367.128C264.759,367.128 264.888,366.999 264.888,366.84L264.888,362.52C264.888,362.361 264.759,362.232 264.6,362.232C264.441,362.232 264.312,362.361 264.312,362.52Z"/>
            </g>
        </g>
        <g transform="matrix(16.6667,0,0,16.6667,0,0)">
            <g transform="matrix(1,0,0,1,-22.4938,-50.0862)">
                <path d="M263.16,362.16L266.04,362.16" style="fill:none;fill-rule:nonzero;"/>
            </g>
        </g>
        <g transform="matrix(16.6667,0,0,16.6667,0,0)">
            <g transform="matrix(1,0,0,1,-22.4938,-50.0862)">
                <path d="M263.16,362.448L266.04,362.448C266.199,362.448 266.328,362.319 266.328,362.16C266.328,362.001 266.199,361.872 266.04,361.872L263.16,361.872C263.001,361.872 262.872,362.001 262.872,362.16C262.872,362.319 263.001,362.448 263.16,362.448Z"/>
            </g>
        </g>
        <g transform="matrix(16.6667,0,0,16.6667,0,0)">
            <g transform="matrix(1,0,0,1,-22.4938,-50.0862)">
                <path d="M276.84,355.68L276.84,366.84" style="fill:none;fill-rule:nonzero;"/>
            </g>
        </g>
        <g transform="matrix(16.6667,0,0,16.6667,0,0)">
            <g transform="matrix(1,0,0,1,-22.4938,-50.0862)">
                <path d="M276.552,355.68L276.552,366.84C276.552,366.999 276.681,367.128 276.84,367.128C276.999,367.128 277.128,366.999 277.128,366.84L277.128,355.68C277.128,355.521 276.999,355.392 276.84,355.392C276.681,355.392 276.552,355.521 276.552,355.68Z"/>
            </g>
        </g>
        <g transform="matrix(16.6667,0,0,16.6667,0,0)">
            <g transform="matrix(1,0,0,1,-22.4938,-50.0862)">
                <path d="M269.64,362.16L272.52,362.16" style="fill:none;fill-rule:nonzero;"/>
            </g>
        </g>
        <g transform="matrix(16.6667,0,0,16.6667,0,0)">
            <g transform="matrix(1,0,0,1,-22.4938,-50.0862)">
                <path d="M269.64,362.448L272.52,362.448C272.679,362.448 272.808,362.319 272.808,362.16C272.808,362.001 272.679,361.872 272.52,361.872L269.64,361.872C269.481,361.872 269.352,362.001 269.352,362.16C269.352,362.319 269.481,362.448 269.64,362.448Z"/>
            </g>
        </g>
        <g transform="matrix(16.6667,0,0,16.6667,0,0)">
            <g transform="matrix(1,0,0,1,-22.4938,-50.0862)">
                <path d="M276.84,366.84L258.84,366.84" style="fill:none;fill-rule:nonzero;"/>
            </g>
        </g>
        <g transform="matrix(16.6667,0,0,16.6667,0,0)">
            <g transform="matrix(1,0,0,1,-22.4938,-50.0862)">
                <path d="M276.84,366.552L258.84,366.552C258.681,366.552 258.552,366.681 258.552,366.84C258.552,366.999 258.681,367.128 258.84,367.128L276.84,367.128C276.999,367.128 277.128,366.999 277.128,366.84C277.128,366.681 276.999,366.552 276.84,366.552Z"/>
            </g>
        </g>
        <g transform="matrix(16.6667,0,0,16.6667,0,0)">
            <g transform="matrix(1,0,0,1,-22.4938,-50.0862)">
                <path d="M272.52,362.16L272.52,355.68" style="fill:none;fill-rule:nonzero;"/>
            </g>
        </g>
        <g transform="matrix(16.6667,0,0,16.6667,0,0)">
            <g transform="matrix(1,0,0,1,-22.4938,-50.0862)">
                <path d="M272.808,362.16L272.808,355.68C272.808,355.521 272.679,355.392 272.52,355.392C272.361,355.392 272.232,355.521 272.232,355.68L272.232,362.16C272.232,362.319 272.361,362.448 272.52,362.448C272.679,362.448 272.808,362.319 272.808,362.16Z"/>
            </g>
        </g>
        <g transform="matrix(16.6667,0,0,16.6667,0,0)">
            <g transform="matrix(1,0,0,1,-22.4938,-50.0862)">
                <path d="M266.04,362.16L266.04,355.68" style="fill:none;fill-rule:nonzero;"/>
            </g>
        </g>
        <g transform="matrix(16.6667,0,0,16.6667,0,0)">
            <g transform="matrix(1,0,0,1,-22.4938,-50.0862)">
                <path d="M266.328,362.16L266.328,355.68C266.328,355.521 266.199,355.392 266.04,355.392C265.881,355.392 265.752,355.521 265.752,355.68L265.752,362.16C265.752,362.319 265.881,362.448 266.04,362.448C266.199,362.448 266.328,362.319 266.328,362.16Z"/>
            </g>
        </g>
        <g transform="matrix(16.6667,0,0,16.6667,0,0)">
            <g transform="matrix(1,0,0,1,-22.4938,-50.0862)">
                <path d="M269.64,355.68L269.64,362.16" style="fill:none;fill-rule:nonzero;"/>
            </g>
        </g>
        <g transform="matrix(16.6667,0,0,16.6667,0,0)">
            <g transform="matrix(1,0,0,1,-22.4938,-50.0862)">
                <path d="M269.352,355.68L269.352,362.16C269.352,362.319 269.481,362.448 269.64,362.448C269.799,362.448 269.928,362.319 269.928,362.16L269.928,355.68C269.928,355.521 269.799,355.392 269.64,355.392C269.481,355.392 269.352,355.521 269.352,355.68Z"/>
            </g>
        </g>
        <g transform="matrix(16.6667,0,0,16.6667,0,0)">
            <g transform="matrix(1,0,0,1,-22.4938,-50.0862)">
                <path d="M263.16,355.68L263.16,362.16" style="fill:none;fill-rule:nonzero;"/>
            </g>
        </g>
        <g transform="matrix(16.6667,0,0,16.6667,0,0)">
            <g transform="matrix(1,0,0,1,-22.4938,-50.0862)">
                <path d="M262.872,355.68L262.872,362.16C262.872,362.319 263.001,362.448 263.16,362.448C263.319,362.448 263.448,362.319 263.448,362.16L263.448,355.68C263.448,355.521 263.319,355.392 263.16,355.392C263.001,355.392 262.872,355.521 262.872,355.68Z"/>
            </g>
        </g>
        <g transform="matrix(16.6667,0,0,16.6667,0,0)">
            <g transform="matrix(1,0,0,1,-22.4938,-50.0862)">
                <path d="M258.84,355.68L276.84,355.68" style="fill:none;fill-rule:nonzero;"/>
            </g>
        </g>
        <g transform="matrix(16.6667,0,0,16.6667,0,0)">
            <g transform="matrix(1,0,0,1,-22.4938,-50.0862)">
                <path d="M258.84,355.968L276.84,355.968C276.999,355.968 277.128,355.839 277.128,355.68C277.128,355.521 276.999,355.392 276.84,355.392L258.84,355.392C258.681,355.392 258.552,355.521 258.552,355.68C258.552,355.839 258.681,355.968 258.84,355.968Z"/>
            </g>
        </g>
        <g transform="matrix(16.6667,0,0,16.6667,0,0)">
            <g transform="matrix(1,0,0,1,-22.4938,-50.0862)">
                <path d="M258.84,366.84L258.84,355.68" style="fill:none;fill-rule:nonzero;"/>
            </g>
        </g>
        <g transform="matrix(16.6667,0,0,16.6667,0,0)">
            <g transform="matrix(1,0,0,1,-22.4938,-50.0862)">
                <path d="M259.128,366.84L259.128,355.68C259.128,355.521 258.999,355.392 258.84,355.392C258.681,355.392 258.552,355.521 258.552,355.68L258.552,366.84C258.552,366.999 258.681,367.128 258.84,367.128C258.999,367.128 259.128,366.999 259.128,366.84Z"/>
            </g>
        </g>
        <g transform="matrix(16.6667,0,0,16.6667,0,0)">
            <g transform="matrix(1,0,0,1,-22.4938,-50.0862)">
                <path d="M255.96,348.48L253.944,346.968" style="fill:none;fill-rule:nonzero;"/>
            </g>
        </g>
        <g transform="matrix(16.6667,0,0,16.6667,0,0)">
            <g transform="matrix(1,0,0,1,-22.4938,-50.0862)">
                <path d="M256.062,348.344L254.046,346.832C253.971,346.776 253.864,346.791 253.808,346.866C253.752,346.941 253.767,347.048 253.842,347.104L255.858,348.616C255.933,348.672 256.04,348.657 256.096,348.582C256.152,348.507 256.137,348.4 256.062,348.344Z"/>
            </g>
        </g>
        <g transform="matrix(16.6667,0,0,16.6667,0,0)">
            <g transform="matrix(1,0,0,1,-22.4938,-50.0862)">
                <circle cx="267.84" cy="356.76" r="14.4" style="fill-opacity:0;"/>
            </g>
        </g>
        <g transform="matrix(16.6667,0,0,16.6667,0,0)">
            <g transform="matrix(1,0,0,1,-22.4938,-50.0862)">
                <path d="M267.84,342.19C259.799,342.19 253.27,348.719 253.27,356.76C253.27,364.801 259.799,371.33 267.84,371.33C275.881,371.33 282.41,364.801 282.41,356.76C282.41,348.719 275.881,342.19 267.84,342.19ZM267.84,342.53C275.694,342.53 282.07,348.906 282.07,356.76C282.07,364.614 275.694,370.99 267.84,370.99C259.986,370.99 253.61,364.614 253.61,356.76C253.61,348.906 259.986,342.53 267.84,342.53Z"/>
            </g>
        </g>
    </g>
</svg>
