<?xml version="1.0" encoding="UTF-8" standalone="no"?>
<!DOCTYPE svg PUBLIC "-//W3C//DTD SVG 1.1//EN" "http://www.w3.org/Graphics/SVG/1.1/DTD/svg11.dtd">
<svg width="100%" height="100%" viewBox="0 0 486 486" version="1.1" xmlns="http://www.w3.org/2000/svg" xmlns:xlink="http://www.w3.org/1999/xlink" xml:space="preserve" xmlns:serif="http://www.serif.com/" style="fill-rule:evenodd;clip-rule:evenodd;stroke-linejoin:round;stroke-miterlimit:2;">
    <g transform="matrix(1,0,0,1,-4422.27,-4868.4)">
        <g transform="matrix(16.6667,0,0,16.6667,0,0)">
            <g transform="matrix(1,0,0,1,-22.4938,-50.0862)">
                <path d="M307.44,355.32C307.44,352.555 305.165,350.28 302.4,350.28C299.635,350.28 297.36,352.555 297.36,355.32" style="fill-opacity:0;fill-rule:nonzero;"/>
            </g>
        </g>
        <g transform="matrix(16.6667,0,0,16.6667,0,0)">
            <g transform="matrix(1,0,0,1,-22.4938,-50.0862)">
                <path d="M307.728,355.32C307.728,352.397 305.323,349.992 302.4,349.992C299.477,349.992 297.072,352.397 297.072,355.32C297.072,355.479 297.201,355.608 297.36,355.608C297.519,355.608 297.648,355.479 297.648,355.32C297.648,352.713 299.793,350.568 302.4,350.568C305.007,350.568 307.152,352.713 307.152,355.32C307.152,355.479 307.281,355.608 307.44,355.608C307.599,355.608 307.728,355.479 307.728,355.32Z"/>
            </g>
        </g>
        <g transform="matrix(16.6667,0,0,16.6667,0,0)">
            <g transform="matrix(1,0,0,1,-22.4938,-50.0862)">
                <path d="M307.44,354.6L307.44,356.4" style="fill:none;fill-rule:nonzero;"/>
            </g>
        </g>
        <g transform="matrix(16.6667,0,0,16.6667,0,0)">
            <g transform="matrix(1,0,0,1,-22.4938,-50.0862)">
                <path d="M307.152,354.6L307.152,356.4C307.152,356.559 307.281,356.688 307.44,356.688C307.599,356.688 307.728,356.559 307.728,356.4L307.728,354.6C307.728,354.441 307.599,354.312 307.44,354.312C307.281,354.312 307.152,354.441 307.152,354.6Z"/>
            </g>
        </g>
        <g transform="matrix(16.6667,0,0,16.6667,0,0)">
            <g transform="matrix(1,0,0,1,-22.4938,-50.0862)">
                <path d="M297.36,354.6L297.36,356.4" style="fill:none;fill-rule:nonzero;"/>
            </g>
        </g>
        <g transform="matrix(16.6667,0,0,16.6667,0,0)">
            <g transform="matrix(1,0,0,1,-22.4938,-50.0862)">
                <path d="M297.072,354.6L297.072,356.4C297.072,356.559 297.201,356.688 297.36,356.688C297.519,356.688 297.648,356.559 297.648,356.4L297.648,354.6C297.648,354.441 297.519,354.312 297.36,354.312C297.201,354.312 297.072,354.441 297.072,354.6Z"/>
            </g>
        </g>
        <g transform="matrix(16.6667,0,0,16.6667,0,0)">
            <g transform="matrix(1,0,0,1,-22.4938,-50.0862)">
                <path d="M306.72,356.4L307.44,356.4" style="fill:none;fill-rule:nonzero;"/>
            </g>
        </g>
        <g transform="matrix(16.6667,0,0,16.6667,0,0)">
            <g transform="matrix(1,0,0,1,-22.4938,-50.0862)">
                <path d="M306.72,356.688L307.44,356.688C307.599,356.688 307.728,356.559 307.728,356.4C307.728,356.241 307.599,356.112 307.44,356.112L306.72,356.112C306.561,356.112 306.432,356.241 306.432,356.4C306.432,356.559 306.561,356.688 306.72,356.688Z"/>
            </g>
        </g>
        <g transform="matrix(16.6667,0,0,16.6667,0,0)">
            <g transform="matrix(1,0,0,1,-22.4938,-50.0862)">
                <path d="M306.72,362.16L306.72,356.4" style="fill:none;fill-rule:nonzero;"/>
            </g>
        </g>
        <g transform="matrix(16.6667,0,0,16.6667,0,0)">
            <g transform="matrix(1,0,0,1,-22.4938,-50.0862)">
                <path d="M307.008,362.16L307.008,356.4C307.008,356.241 306.879,356.112 306.72,356.112C306.561,356.112 306.432,356.241 306.432,356.4L306.432,362.16C306.432,362.319 306.561,362.448 306.72,362.448C306.879,362.448 307.008,362.319 307.008,362.16Z"/>
            </g>
        </g>
        <g transform="matrix(16.6667,0,0,16.6667,0,0)">
            <g transform="matrix(1,0,0,1,-22.4938,-50.0862)">
                <path d="M307.44,362.16L306.72,362.16" style="fill:none;fill-rule:nonzero;"/>
            </g>
        </g>
        <g transform="matrix(16.6667,0,0,16.6667,0,0)">
            <g transform="matrix(1,0,0,1,-22.4938,-50.0862)">
                <path d="M307.44,361.872L306.72,361.872C306.561,361.872 306.432,362.001 306.432,362.16C306.432,362.319 306.561,362.448 306.72,362.448L307.44,362.448C307.599,362.448 307.728,362.319 307.728,362.16C307.728,362.001 307.599,361.872 307.44,361.872Z"/>
            </g>
        </g>
        <g transform="matrix(16.6667,0,0,16.6667,0,0)">
            <g transform="matrix(1,0,0,1,-22.4938,-50.0862)">
                <path d="M298.08,356.4L297.36,356.4" style="fill:none;fill-rule:nonzero;"/>
            </g>
        </g>
        <g transform="matrix(16.6667,0,0,16.6667,0,0)">
            <g transform="matrix(1,0,0,1,-22.4938,-50.0862)">
                <path d="M298.08,356.112L297.36,356.112C297.201,356.112 297.072,356.241 297.072,356.4C297.072,356.559 297.201,356.688 297.36,356.688L298.08,356.688C298.239,356.688 298.368,356.559 298.368,356.4C298.368,356.241 298.239,356.112 298.08,356.112Z"/>
            </g>
        </g>
        <g transform="matrix(16.6667,0,0,16.6667,0,0)">
            <g transform="matrix(1,0,0,1,-22.4938,-50.0862)">
                <path d="M298.08,362.16L298.08,356.4" style="fill:none;fill-rule:nonzero;"/>
            </g>
        </g>
        <g transform="matrix(16.6667,0,0,16.6667,0,0)">
            <g transform="matrix(1,0,0,1,-22.4938,-50.0862)">
                <path d="M298.368,362.16L298.368,356.4C298.368,356.241 298.239,356.112 298.08,356.112C297.921,356.112 297.792,356.241 297.792,356.4L297.792,362.16C297.792,362.319 297.921,362.448 298.08,362.448C298.239,362.448 298.368,362.319 298.368,362.16Z"/>
            </g>
        </g>
        <g transform="matrix(16.6667,0,0,16.6667,0,0)">
            <g transform="matrix(1,0,0,1,-22.4938,-50.0862)">
                <path d="M297.36,362.16L298.08,362.16" style="fill:none;fill-rule:nonzero;"/>
            </g>
        </g>
        <g transform="matrix(16.6667,0,0,16.6667,0,0)">
            <g transform="matrix(1,0,0,1,-22.4938,-50.0862)">
                <path d="M297.36,362.448L298.08,362.448C298.239,362.448 298.368,362.319 298.368,362.16C298.368,362.001 298.239,361.872 298.08,361.872L297.36,361.872C297.201,361.872 297.072,362.001 297.072,362.16C297.072,362.319 297.201,362.448 297.36,362.448Z"/>
            </g>
        </g>
        <g transform="matrix(16.6667,0,0,16.6667,0,0)">
            <g transform="matrix(1,0,0,1,-22.4938,-50.0862)">
                <path d="M307.44,356.4L307.44,362.16" style="fill:none;fill-rule:nonzero;"/>
            </g>
        </g>
        <g transform="matrix(16.6667,0,0,16.6667,0,0)">
            <g transform="matrix(1,0,0,1,-22.4938,-50.0862)">
                <path d="M307.152,356.4L307.152,362.16C307.152,362.319 307.281,362.448 307.44,362.448C307.599,362.448 307.728,362.319 307.728,362.16L307.728,356.4C307.728,356.241 307.599,356.112 307.44,356.112C307.281,356.112 307.152,356.241 307.152,356.4Z"/>
            </g>
        </g>
        <g transform="matrix(16.6667,0,0,16.6667,0,0)">
            <g transform="matrix(1,0,0,1,-22.4938,-50.0862)">
                <path d="M297.36,356.4L297.36,362.16" style="fill:none;fill-rule:nonzero;"/>
            </g>
        </g>
        <g transform="matrix(16.6667,0,0,16.6667,0,0)">
            <g transform="matrix(1,0,0,1,-22.4938,-50.0862)">
                <path d="M297.072,356.4L297.072,362.16C297.072,362.319 297.201,362.448 297.36,362.448C297.519,362.448 297.648,362.319 297.648,362.16L297.648,356.4C297.648,356.241 297.519,356.112 297.36,356.112C297.201,356.112 297.072,356.241 297.072,356.4Z"/>
            </g>
        </g>
        <g transform="matrix(16.6667,0,0,16.6667,0,0)">
            <g transform="matrix(1,0,0,1,-22.4938,-50.0862)">
                <path d="M307.44,362.16C309.02,362.16 310.32,360.86 310.32,359.28C310.32,357.7 309.02,356.4 307.44,356.4" style="fill-opacity:0;fill-rule:nonzero;"/>
            </g>
        </g>
        <g transform="matrix(16.6667,0,0,16.6667,0,0)">
            <g transform="matrix(1,0,0,1,-22.4938,-50.0862)">
                <path d="M307.44,362.448C309.178,362.448 310.608,361.018 310.608,359.28C310.608,357.542 309.178,356.112 307.44,356.112C307.281,356.112 307.152,356.241 307.152,356.4C307.152,356.559 307.281,356.688 307.44,356.688C308.862,356.688 310.032,357.858 310.032,359.28C310.032,360.702 308.862,361.872 307.44,361.872C307.281,361.872 307.152,362.001 307.152,362.16C307.152,362.319 307.281,362.448 307.44,362.448Z"/>
            </g>
        </g>
        <g transform="matrix(16.6667,0,0,16.6667,0,0)">
            <g transform="matrix(1,0,0,1,-22.4938,-50.0862)">
                <path d="M307.44,354.6C307.44,351.835 305.165,349.56 302.4,349.56C299.635,349.56 297.36,351.835 297.36,354.6" style="fill-opacity:0;fill-rule:nonzero;"/>
            </g>
        </g>
        <g transform="matrix(16.6667,0,0,16.6667,0,0)">
            <g transform="matrix(1,0,0,1,-22.4938,-50.0862)">
                <path d="M307.728,354.6C307.728,351.677 305.323,349.272 302.4,349.272C299.477,349.272 297.072,351.677 297.072,354.6C297.072,354.759 297.201,354.888 297.36,354.888C297.519,354.888 297.648,354.759 297.648,354.6C297.648,351.993 299.793,349.848 302.4,349.848C305.007,349.848 307.152,351.993 307.152,354.6C307.152,354.759 307.281,354.888 307.44,354.888C307.599,354.888 307.728,354.759 307.728,354.6Z"/>
            </g>
        </g>
        <g transform="matrix(16.6667,0,0,16.6667,0,0)">
            <g transform="matrix(1,0,0,1,-22.4938,-50.0862)">
                <path d="M297.36,356.4C295.78,356.4 294.48,357.7 294.48,359.28C294.48,360.86 295.78,362.16 297.36,362.16" style="fill-opacity:0;fill-rule:nonzero;"/>
            </g>
        </g>
        <g transform="matrix(16.6667,0,0,16.6667,0,0)">
            <g transform="matrix(1,0,0,1,-22.4938,-50.0862)">
                <path d="M297.36,356.112C295.622,356.112 294.192,357.542 294.192,359.28C294.192,361.018 295.622,362.448 297.36,362.448C297.519,362.448 297.648,362.319 297.648,362.16C297.648,362.001 297.519,361.872 297.36,361.872C295.938,361.872 294.768,360.702 294.768,359.28C294.768,357.858 295.938,356.688 297.36,356.688C297.519,356.688 297.648,356.559 297.648,356.4C297.648,356.241 297.519,356.112 297.36,356.112Z"/>
            </g>
        </g>
        <g transform="matrix(16.6667,0,0,16.6667,0,0)">
            <g transform="matrix(1,0,0,1,-22.4938,-50.0862)">
                <path d="M290.52,348.48L288.504,346.968" style="fill:none;fill-rule:nonzero;"/>
            </g>
        </g>
        <g transform="matrix(16.6667,0,0,16.6667,0,0)">
            <g transform="matrix(1,0,0,1,-22.4938,-50.0862)">
                <path d="M290.622,348.344L288.606,346.832C288.531,346.776 288.424,346.791 288.368,346.866C288.312,346.941 288.327,347.048 288.402,347.104L290.418,348.616C290.493,348.672 290.6,348.657 290.656,348.582C290.712,348.507 290.697,348.4 290.622,348.344Z"/>
            </g>
        </g>
        <g transform="matrix(16.6667,0,0,16.6667,0,0)">
            <g transform="matrix(1,0,0,1,-22.4938,-50.0862)">
                <circle cx="302.4" cy="356.76" r="14.4" style="fill-opacity:0;"/>
            </g>
        </g>
        <g transform="matrix(16.6667,0,0,16.6667,0,0)">
            <g transform="matrix(1,0,0,1,-22.4938,-50.0862)">
                <path d="M302.4,342.19C294.359,342.19 287.83,348.719 287.83,356.76C287.83,364.801 294.359,371.33 302.4,371.33C310.441,371.33 316.97,364.801 316.97,356.76C316.97,348.719 310.441,342.19 302.4,342.19ZM302.4,342.53C310.254,342.53 316.63,348.906 316.63,356.76C316.63,364.614 310.254,370.99 302.4,370.99C294.546,370.99 288.17,364.614 288.17,356.76C288.17,348.906 294.546,342.53 302.4,342.53Z"/>
            </g>
        </g>
    </g>
</svg>
