<?xml version="1.0" encoding="UTF-8" standalone="no"?>
<!DOCTYPE svg PUBLIC "-//W3C//DTD SVG 1.1//EN" "http://www.w3.org/Graphics/SVG/1.1/DTD/svg11.dtd">
<svg width="100%" height="100%" viewBox="0 0 501 486" version="1.1" xmlns="http://www.w3.org/2000/svg" xmlns:xlink="http://www.w3.org/1999/xlink" xml:space="preserve" xmlns:serif="http://www.serif.com/" style="fill-rule:evenodd;clip-rule:evenodd;stroke-linejoin:round;stroke-miterlimit:2;">
    <g transform="matrix(1,0,0,1,-4980.27,-4868.4)">
        <g transform="matrix(16.6667,0,0,16.6667,0,0)">
            <g transform="matrix(1,0,0,1,-22.4938,-50.0862)">
                <circle cx="335.88" cy="356.04" r="1.44" style="fill-opacity:0;"/>
            </g>
        </g>
        <g transform="matrix(16.6667,0,0,16.6667,0,0)">
            <g transform="matrix(1,0,0,1,-22.4938,-50.0862)">
                <path d="M335.88,354.312C334.926,354.312 334.152,355.086 334.152,356.04C334.152,356.994 334.926,357.768 335.88,357.768C336.834,357.768 337.608,356.994 337.608,356.04C337.608,355.086 336.834,354.312 335.88,354.312ZM335.88,354.888C336.516,354.888 337.032,355.404 337.032,356.04C337.032,356.676 336.516,357.192 335.88,357.192C335.244,357.192 334.728,356.676 334.728,356.04C334.728,355.404 335.244,354.888 335.88,354.888Z"/>
            </g>
        </g>
        <g transform="matrix(16.6667,0,0,16.6667,0,0)">
            <g transform="matrix(1,0,0,1,-22.4938,-50.0862)">
                <circle cx="340.92" cy="351.72" r="1.44" style="fill-opacity:0;"/>
            </g>
        </g>
        <g transform="matrix(16.6667,0,0,16.6667,0,0)">
            <g transform="matrix(1,0,0,1,-22.4938,-50.0862)">
                <path d="M340.92,349.992C339.966,349.992 339.192,350.766 339.192,351.72C339.192,352.674 339.966,353.448 340.92,353.448C341.874,353.448 342.648,352.674 342.648,351.72C342.648,350.766 341.874,349.992 340.92,349.992ZM340.92,350.568C341.556,350.568 342.072,351.084 342.072,351.72C342.072,352.356 341.556,352.872 340.92,352.872C340.284,352.872 339.768,352.356 339.768,351.72C339.768,351.084 340.284,350.568 340.92,350.568Z"/>
            </g>
        </g>
        <g transform="matrix(16.6667,0,0,16.6667,0,0)">
            <g transform="matrix(1,0,0,1,-22.4938,-50.0862)">
                <circle cx="340.92" cy="361.08" r="1.44" style="fill-opacity:0;"/>
            </g>
        </g>
        <g transform="matrix(16.6667,0,0,16.6667,0,0)">
            <g transform="matrix(1,0,0,1,-22.4938,-50.0862)">
                <path d="M340.92,359.352C339.966,359.352 339.192,360.126 339.192,361.08C339.192,362.034 339.966,362.808 340.92,362.808C341.874,362.808 342.648,362.034 342.648,361.08C342.648,360.126 341.874,359.352 340.92,359.352ZM340.92,359.928C341.556,359.928 342.072,360.444 342.072,361.08C342.072,361.716 341.556,362.232 340.92,362.232C340.284,362.232 339.768,361.716 339.768,361.08C339.768,360.444 340.284,359.928 340.92,359.928Z"/>
            </g>
        </g>
        <g transform="matrix(16.6667,0,0,16.6667,0,0)">
            <g transform="matrix(1,0,0,1,-22.4938,-50.0862)">
                <circle cx="330.84" cy="361.08" r="1.44" style="fill-opacity:0;"/>
            </g>
        </g>
        <g transform="matrix(16.6667,0,0,16.6667,0,0)">
            <g transform="matrix(1,0,0,1,-22.4938,-50.0862)">
                <path d="M330.84,359.352C329.886,359.352 329.112,360.126 329.112,361.08C329.112,362.034 329.886,362.808 330.84,362.808C331.794,362.808 332.568,362.034 332.568,361.08C332.568,360.126 331.794,359.352 330.84,359.352ZM330.84,359.928C331.476,359.928 331.992,360.444 331.992,361.08C331.992,361.716 331.476,362.232 330.84,362.232C330.204,362.232 329.688,361.716 329.688,361.08C329.688,360.444 330.204,359.928 330.84,359.928Z"/>
            </g>
        </g>
        <g transform="matrix(16.6667,0,0,16.6667,0,0)">
            <g transform="matrix(1,0,0,1,-22.4938,-50.0862)">
                <circle cx="330.84" cy="351.72" r="1.44" style="fill-opacity:0;"/>
            </g>
        </g>
        <g transform="matrix(16.6667,0,0,16.6667,0,0)">
            <g transform="matrix(1,0,0,1,-22.4938,-50.0862)">
                <path d="M330.84,349.992C329.886,349.992 329.112,350.766 329.112,351.72C329.112,352.674 329.886,353.448 330.84,353.448C331.794,353.448 332.568,352.674 332.568,351.72C332.568,350.766 331.794,349.992 330.84,349.992ZM330.84,350.568C331.476,350.568 331.992,351.084 331.992,351.72C331.992,352.356 331.476,352.872 330.84,352.872C330.204,352.872 329.688,352.356 329.688,351.72C329.688,351.084 330.204,350.568 330.84,350.568Z"/>
            </g>
        </g>
        <g transform="matrix(16.6667,0,0,16.6667,0,0)">
            <g transform="matrix(1,0,0,1,-22.4938,-50.0862)">
                <path d="M327.24,364.68L327.24,348.12" style="fill:none;fill-rule:nonzero;"/>
            </g>
        </g>
        <g transform="matrix(16.6667,0,0,16.6667,0,0)">
            <g transform="matrix(1,0,0,1,-22.4938,-50.0862)">
                <path d="M327.528,364.68L327.528,348.12C327.528,347.961 327.399,347.832 327.24,347.832C327.081,347.832 326.952,347.961 326.952,348.12L326.952,364.68C326.952,364.839 327.081,364.968 327.24,364.968C327.399,364.968 327.528,364.839 327.528,364.68Z"/>
            </g>
        </g>
        <g transform="matrix(16.6667,0,0,16.6667,0,0)">
            <g transform="matrix(1,0,0,1,-22.4938,-50.0862)">
                <path d="M344.52,364.68L327.24,364.68" style="fill:none;fill-rule:nonzero;"/>
            </g>
        </g>
        <g transform="matrix(16.6667,0,0,16.6667,0,0)">
            <g transform="matrix(1,0,0,1,-22.4938,-50.0862)">
                <path d="M344.52,364.392L327.24,364.392C327.081,364.392 326.952,364.521 326.952,364.68C326.952,364.839 327.081,364.968 327.24,364.968L344.52,364.968C344.679,364.968 344.808,364.839 344.808,364.68C344.808,364.521 344.679,364.392 344.52,364.392Z"/>
            </g>
        </g>
        <g transform="matrix(16.6667,0,0,16.6667,0,0)">
            <g transform="matrix(1,0,0,1,-22.4938,-50.0862)">
                <path d="M344.52,348.12L344.52,364.68" style="fill:none;fill-rule:nonzero;"/>
            </g>
        </g>
        <g transform="matrix(16.6667,0,0,16.6667,0,0)">
            <g transform="matrix(1,0,0,1,-22.4938,-50.0862)">
                <path d="M344.232,348.12L344.232,364.68C344.232,364.839 344.361,364.968 344.52,364.968C344.679,364.968 344.808,364.839 344.808,364.68L344.808,348.12C344.808,347.961 344.679,347.832 344.52,347.832C344.361,347.832 344.232,347.961 344.232,348.12Z"/>
            </g>
        </g>
        <g transform="matrix(16.6667,0,0,16.6667,0,0)">
            <g transform="matrix(1,0,0,1,-22.4938,-50.0862)">
                <path d="M327.24,348.12L344.52,348.12" style="fill:none;fill-rule:nonzero;"/>
            </g>
        </g>
        <g transform="matrix(16.6667,0,0,16.6667,0,0)">
            <g transform="matrix(1,0,0,1,-22.4938,-50.0862)">
                <path d="M327.24,348.408L344.52,348.408C344.679,348.408 344.808,348.279 344.808,348.12C344.808,347.961 344.679,347.832 344.52,347.832L327.24,347.832C327.081,347.832 326.952,347.961 326.952,348.12C326.952,348.279 327.081,348.408 327.24,348.408Z"/>
            </g>
        </g>
        <g transform="matrix(16.6667,0,0,16.6667,0,0)">
            <g transform="matrix(1,0,0,1,-22.4938,-50.0862)">
                <circle cx="336.96" cy="356.76" r="14.4" style="fill-opacity:0;"/>
            </g>
        </g>
        <g transform="matrix(16.6667,0,0,16.6667,0,0)">
            <g transform="matrix(1,0,0,1,-23.5738,-50.0862)">
                <path d="M336.96,342.19C328.919,342.19 322.39,348.719 322.39,356.76C322.39,364.801 328.919,371.33 336.96,371.33C345.001,371.33 351.53,364.801 351.53,356.76C351.53,348.719 345.001,342.19 336.96,342.19ZM336.96,342.53C344.814,342.53 351.19,348.906 351.19,356.76C351.19,364.614 344.814,370.99 336.96,370.99C329.106,370.99 322.73,364.614 322.73,356.76C322.73,348.906 329.106,342.53 336.96,342.53Z"/>
            </g>
        </g>
        <g transform="matrix(16.6667,0,0,16.6667,0,0)">
            <g transform="matrix(1,0,0,1,-22.4938,-50.0862)">
                <path d="M325.08,348.48L323.064,346.968" style="fill:none;fill-rule:nonzero;"/>
            </g>
        </g>
        <g transform="matrix(16.6667,0,0,16.6667,0,0)">
            <g transform="matrix(1,0,0,1,-23.5738,-50.0862)">
                <path d="M325.182,348.344L323.166,346.832C323.091,346.776 322.984,346.791 322.928,346.866C322.872,346.941 322.887,347.048 322.962,347.104L324.978,348.616C325.053,348.672 325.16,348.657 325.216,348.582C325.272,348.507 325.257,348.4 325.182,348.344Z"/>
            </g>
        </g>
    </g>
</svg>
