<?xml version="1.0" encoding="UTF-8" standalone="no"?>
<!DOCTYPE svg PUBLIC "-//W3C//DTD SVG 1.1//EN" "http://www.w3.org/Graphics/SVG/1.1/DTD/svg11.dtd">
<svg width="100%" height="100%" viewBox="0 0 486 486" version="1.1" xmlns="http://www.w3.org/2000/svg" xmlns:xlink="http://www.w3.org/1999/xlink" xml:space="preserve" xmlns:serif="http://www.serif.com/" style="fill-rule:evenodd;clip-rule:evenodd;stroke-linejoin:round;stroke-miterlimit:2;">
    <g transform="matrix(1,0,0,1,-972.269,-5438.4)">
        <g transform="matrix(16.6667,0,0,16.6667,0,0)">
            <g transform="matrix(1,0,0,1,-22.4938,-50.0862)">
                <path d="M99,393.12C99.517,392.381 99.794,391.501 99.794,390.6C99.794,388.189 97.811,386.206 95.4,386.206C94.564,386.206 93.746,386.444 93.041,386.893" style="fill-opacity:0;fill-rule:nonzero;"/>
            </g>
        </g>
        <g transform="matrix(16.6667,0,0,16.6667,0,0)">
            <g transform="matrix(1,0,0,1,-22.4938,-50.0862)">
                <path d="M99.236,393.285C99.787,392.498 100.082,391.56 100.082,390.6C100.082,388.031 97.969,385.918 95.4,385.918C94.51,385.918 93.637,386.172 92.886,386.65C92.752,386.735 92.712,386.913 92.798,387.047C92.883,387.181 93.061,387.221 93.195,387.136C93.854,386.716 94.619,386.494 95.4,386.494C97.653,386.494 99.506,388.347 99.506,390.6C99.506,391.442 99.247,392.265 98.764,392.955C98.673,393.085 98.705,393.265 98.835,393.356C98.965,393.447 99.145,393.415 99.236,393.285Z"/>
            </g>
        </g>
        <g transform="matrix(16.6667,0,0,16.6667,0,0)">
            <g transform="matrix(1,0,0,1,-22.4938,-50.0862)">
                <path d="M100.8,394.56C101.642,393.412 102.096,392.024 102.096,390.6C102.096,386.927 99.073,383.904 95.4,383.904C93.862,383.904 92.371,384.433 91.177,385.403" style="fill-opacity:0;fill-rule:nonzero;"/>
            </g>
        </g>
        <g transform="matrix(16.6667,0,0,16.6667,0,0)">
            <g transform="matrix(1,0,0,1,-22.4938,-50.0862)">
                <path d="M101.032,394.73C101.91,393.533 102.384,392.085 102.384,390.6C102.384,386.769 99.231,383.616 95.4,383.616C93.796,383.616 92.24,384.168 90.996,385.18C90.872,385.28 90.853,385.461 90.954,385.585C91.054,385.708 91.235,385.727 91.359,385.627C92.501,384.699 93.928,384.192 95.4,384.192C98.915,384.192 101.808,387.085 101.808,390.6C101.808,391.963 101.374,393.291 100.568,394.39C100.474,394.518 100.502,394.698 100.63,394.792C100.758,394.886 100.938,394.858 101.032,394.73Z"/>
            </g>
        </g>
        <g transform="matrix(16.6667,0,0,16.6667,0,0)">
            <g transform="matrix(1,0,0,1,-22.4938,-50.0862)">
                <path d="M102.24,396.36C103.598,394.748 104.343,392.707 104.343,390.599C104.343,385.694 100.306,381.657 95.401,381.657C93.279,381.657 91.225,382.412 89.608,383.787" style="fill-opacity:0;fill-rule:nonzero;"/>
            </g>
        </g>
        <g transform="matrix(16.6667,0,0,16.6667,0,0)">
            <g transform="matrix(1,0,0,1,-22.4938,-50.0862)">
                <path d="M102.02,396.174L102.46,396.546C103.862,394.882 104.631,392.775 104.631,390.599C104.631,385.536 100.464,381.369 95.401,381.369C93.211,381.369 91.09,382.149 89.422,383.567C89.301,383.67 89.286,383.852 89.389,383.973C89.492,384.094 89.674,384.109 89.795,384.006C91.359,382.676 93.347,381.945 95.401,381.945C100.148,381.945 104.055,385.852 104.055,390.599C104.055,392.639 103.334,394.614 102.02,396.174Z"/>
            </g>
        </g>
        <g transform="matrix(16.6667,0,0,16.6667,0,0)">
            <g transform="matrix(1,0,0,1,-22.4938,-50.0862)">
                <path d="M104.04,397.8C105.724,395.779 106.647,393.23 106.647,390.6C106.647,384.43 101.57,379.353 95.4,379.353C92.595,379.353 89.889,380.403 87.817,382.294" style="fill-opacity:0;fill-rule:nonzero;"/>
            </g>
        </g>
        <g transform="matrix(16.6667,0,0,16.6667,0,0)">
            <g transform="matrix(1,0,0,1,-22.4938,-50.0862)">
                <path d="M104.04,397.8L104.04,397.984L104.261,397.984C105.988,395.912 106.935,393.298 106.935,390.6C106.935,384.272 101.728,379.065 95.4,379.065C92.523,379.065 89.748,380.141 87.623,382.081C87.505,382.189 87.497,382.371 87.604,382.488C87.711,382.606 87.894,382.614 88.011,382.507C90.03,380.664 92.667,379.641 95.4,379.641C101.412,379.641 106.359,384.588 106.359,390.6C106.359,393.163 105.46,395.647 103.819,397.616L104.04,397.8Z"/>
            </g>
        </g>
        <g transform="matrix(16.6667,0,0,16.6667,0,0)">
            <g transform="matrix(1,0,0,1,-22.4938,-50.0862)">
                <circle cx="95.4" cy="390.96" r="14.4" style="fill-opacity:0;"/>
            </g>
        </g>
        <g transform="matrix(16.6667,0,0,16.6667,0,0)">
            <g transform="matrix(1,0,0,1,-22.4938,-50.0862)">
                <path d="M95.4,376.39C87.359,376.39 80.83,382.919 80.83,390.96C80.83,399.001 87.359,405.53 95.4,405.53C103.441,405.53 109.97,399.001 109.97,390.96C109.97,382.919 103.441,376.39 95.4,376.39ZM95.4,376.73C103.254,376.73 109.63,383.106 109.63,390.96C109.63,398.814 103.254,405.19 95.4,405.19C87.546,405.19 81.17,398.814 81.17,390.96C81.17,383.106 87.546,376.73 95.4,376.73Z"/>
            </g>
        </g>
    </g>
</svg>
