<?xml version="1.0" encoding="UTF-8" standalone="no"?>
<!DOCTYPE svg PUBLIC "-//W3C//DTD SVG 1.1//EN" "http://www.w3.org/Graphics/SVG/1.1/DTD/svg11.dtd">
<svg width="100%" height="100%" viewBox="0 0 486 486" version="1.1" xmlns="http://www.w3.org/2000/svg" xmlns:xlink="http://www.w3.org/1999/xlink" xml:space="preserve" xmlns:serif="http://www.serif.com/" style="fill-rule:evenodd;clip-rule:evenodd;stroke-linejoin:round;stroke-miterlimit:2;">
    <g transform="matrix(1,0,0,1,-1548.27,-5438.4)">
        <g transform="matrix(16.6667,0,0,16.6667,0,0)">
            <g transform="matrix(1,0,0,1,-22.4938,-50.0862)">
                <path d="M126.36,388.44C125.843,389.179 125.566,390.059 125.566,390.96C125.566,393.371 127.549,395.354 129.96,395.354C130.796,395.354 131.614,395.116 132.319,394.667" style="fill-opacity:0;fill-rule:nonzero;"/>
            </g>
        </g>
        <g transform="matrix(16.6667,0,0,16.6667,0,0)">
            <g transform="matrix(1,0,0,1,-22.4938,-50.0862)">
                <path d="M126.124,388.275C125.573,389.062 125.278,390 125.278,390.96C125.278,393.529 127.391,395.642 129.96,395.642C130.85,395.642 131.723,395.388 132.474,394.91C132.608,394.825 132.648,394.647 132.562,394.513C132.477,394.379 132.299,394.339 132.165,394.424C131.506,394.844 130.741,395.066 129.96,395.066C127.707,395.066 125.854,393.213 125.854,390.96C125.854,390.118 126.113,389.295 126.596,388.605C126.687,388.475 126.655,388.295 126.525,388.204C126.395,388.113 126.215,388.145 126.124,388.275Z"/>
            </g>
        </g>
        <g transform="matrix(16.6667,0,0,16.6667,0,0)">
            <g transform="matrix(1,0,0,1,-22.4938,-50.0862)">
                <path d="M123.12,385.2C121.762,386.812 121.017,388.853 121.017,390.961C121.017,395.866 125.054,399.903 129.959,399.903C132.081,399.903 134.135,399.148 135.752,397.773" style="fill-opacity:0;fill-rule:nonzero;"/>
            </g>
        </g>
        <g transform="matrix(16.6667,0,0,16.6667,0,0)">
            <g transform="matrix(1,0,0,1,-22.4938,-50.0862)">
                <path d="M122.9,385.014C121.498,386.678 120.729,388.785 120.729,390.961C120.729,396.024 124.896,400.191 129.959,400.191C132.149,400.191 134.27,399.411 135.938,397.993C136.059,397.89 136.074,397.708 135.971,397.587C135.868,397.466 135.686,397.451 135.565,397.554C134.001,398.884 132.013,399.615 129.959,399.615C125.212,399.615 121.305,395.708 121.305,390.961C121.305,388.921 122.026,386.946 123.34,385.386C123.443,385.264 123.427,385.082 123.306,384.98C123.184,384.877 123.002,384.893 122.9,385.014Z"/>
            </g>
        </g>
        <g transform="matrix(16.6667,0,0,16.6667,0,0)">
            <g transform="matrix(1,0,0,1,-22.4938,-50.0862)">
                <path d="M124.56,387C123.718,388.148 123.264,389.536 123.264,390.96C123.264,394.633 126.287,397.656 129.96,397.656C131.498,397.656 132.989,397.127 134.183,396.157" style="fill-opacity:0;fill-rule:nonzero;"/>
            </g>
        </g>
        <g transform="matrix(16.6667,0,0,16.6667,0,0)">
            <g transform="matrix(1,0,0,1,-22.4938,-50.0862)">
                <path d="M124.328,386.83C123.45,388.027 122.976,389.475 122.976,390.96C122.976,394.791 126.129,397.944 129.96,397.944C131.564,397.944 133.12,397.392 134.364,396.38C134.488,396.28 134.507,396.099 134.406,395.975C134.306,395.852 134.125,395.833 134.001,395.933C132.859,396.861 131.432,397.368 129.96,397.368C126.445,397.368 123.552,394.475 123.552,390.96C123.552,389.597 123.986,388.269 124.792,387.17C124.886,387.042 124.858,386.862 124.73,386.768C124.602,386.674 124.422,386.702 124.328,386.83Z"/>
            </g>
        </g>
        <g transform="matrix(16.6667,0,0,16.6667,0,0)">
            <g transform="matrix(1,0,0,1,-22.4938,-50.0862)">
                <path d="M121.32,383.76C119.636,385.781 118.713,388.33 118.713,390.96C118.713,397.13 123.79,402.207 129.96,402.207C132.765,402.207 135.471,401.157 137.543,399.266" style="fill-opacity:0;fill-rule:nonzero;"/>
            </g>
        </g>
        <g transform="matrix(16.6667,0,0,16.6667,0,0)">
            <g transform="matrix(1,0,0,1,-22.4938,-50.0862)">
                <path d="M121.541,383.944L121.099,383.576C119.372,385.648 118.425,388.262 118.425,390.96C118.425,397.288 123.632,402.495 129.96,402.495C132.837,402.495 135.612,401.419 137.737,399.479C137.855,399.371 137.863,399.189 137.756,399.072C137.649,398.954 137.466,398.946 137.349,399.053C135.33,400.896 132.693,401.919 129.96,401.919C123.948,401.919 119.001,396.972 119.001,390.96C119.001,388.397 119.9,385.913 121.541,383.944Z"/>
            </g>
        </g>
        <g transform="matrix(16.6667,0,0,16.6667,0,0)">
            <g transform="matrix(1,0,0,1,-22.4938,-50.0862)">
                <circle cx="129.96" cy="390.96" r="14.4" style="fill-opacity:0;"/>
            </g>
        </g>
        <g transform="matrix(16.6667,0,0,16.6667,0,0)">
            <g transform="matrix(1,0,0,1,-22.4938,-50.0862)">
                <path d="M129.96,376.39C121.919,376.39 115.39,382.919 115.39,390.96C115.39,399.001 121.919,405.53 129.96,405.53C138.001,405.53 144.53,399.001 144.53,390.96C144.53,382.919 138.001,376.39 129.96,376.39ZM129.96,376.73C137.814,376.73 144.19,383.106 144.19,390.96C144.19,398.814 137.814,405.19 129.96,405.19C122.106,405.19 115.73,398.814 115.73,390.96C115.73,383.106 122.106,376.73 129.96,376.73Z"/>
            </g>
        </g>
    </g>
</svg>
