<?xml version="1.0" encoding="UTF-8" standalone="no"?>
<!DOCTYPE svg PUBLIC "-//W3C//DTD SVG 1.1//EN" "http://www.w3.org/Graphics/SVG/1.1/DTD/svg11.dtd">
<svg width="100%" height="100%" viewBox="0 0 486 486" version="1.1" xmlns="http://www.w3.org/2000/svg" xmlns:xlink="http://www.w3.org/1999/xlink" xml:space="preserve" xmlns:serif="http://www.serif.com/" style="fill-rule:evenodd;clip-rule:evenodd;stroke-linejoin:round;stroke-miterlimit:2;">
    <g transform="matrix(1,0,0,1,-2124.27,-5438.4)">
        <g transform="matrix(16.6667,0,0,16.6667,0,0)">
            <g transform="matrix(1,0,0,1,-22.4938,-50.0862)">
                <path d="M163.44,387L158.4,387" style="fill:none;fill-rule:nonzero;"/>
            </g>
        </g>
        <g transform="matrix(16.6667,0,0,16.6667,0,0)">
            <g transform="matrix(1,0,0,1,-22.4938,-50.0862)">
                <path d="M163.44,386.712L158.4,386.712C158.241,386.712 158.112,386.841 158.112,387C158.112,387.159 158.241,387.288 158.4,387.288L163.44,387.288C163.599,387.288 163.728,387.159 163.728,387C163.728,386.841 163.599,386.712 163.44,386.712Z"/>
            </g>
        </g>
        <g transform="matrix(16.6667,0,0,16.6667,0,0)">
            <g transform="matrix(1,0,0,1,-22.4938,-50.0862)">
                <path d="M163.44,386.64L163.44,387" style="fill:none;fill-rule:nonzero;"/>
            </g>
        </g>
        <g transform="matrix(16.6667,0,0,16.6667,0,0)">
            <g transform="matrix(1,0,0,1,-22.4938,-50.0862)">
                <path d="M163.152,386.64L163.152,387C163.152,387.159 163.281,387.288 163.44,387.288C163.599,387.288 163.728,387.159 163.728,387L163.728,386.64C163.728,386.481 163.599,386.352 163.44,386.352C163.281,386.352 163.152,386.481 163.152,386.64Z"/>
            </g>
        </g>
        <g transform="matrix(16.6667,0,0,16.6667,0,0)">
            <g transform="matrix(1,0,0,1,-22.4938,-50.0862)">
                <path d="M163.44,381.96L163.44,386.64" style="fill:none;fill-rule:nonzero;"/>
            </g>
        </g>
        <g transform="matrix(16.6667,0,0,16.6667,0,0)">
            <g transform="matrix(1,0,0,1,-22.4938,-50.0862)">
                <path d="M163.152,381.96L163.152,386.64C163.152,386.799 163.281,386.928 163.44,386.928C163.599,386.928 163.728,386.799 163.728,386.64L163.728,381.96C163.728,381.801 163.599,381.672 163.44,381.672C163.281,381.672 163.152,381.801 163.152,381.96Z"/>
            </g>
        </g>
        <g transform="matrix(16.6667,0,0,16.6667,0,0)">
            <g transform="matrix(1,0,0,1,-22.4938,-50.0862)">
                <path d="M158.4,387L163.44,381.96" style="fill:none;fill-rule:nonzero;"/>
            </g>
        </g>
        <g transform="matrix(16.6667,0,0,16.6667,0,0)">
            <g transform="matrix(1,0,0,1,-22.4938,-50.0862)">
                <path d="M158.604,387.204L163.644,382.164C163.756,382.051 163.756,381.869 163.644,381.756C163.531,381.644 163.349,381.644 163.236,381.756L158.196,386.796C158.084,386.909 158.084,387.091 158.196,387.204C158.309,387.316 158.491,387.316 158.604,387.204Z"/>
            </g>
        </g>
        <g transform="matrix(16.6667,0,0,16.6667,0,0)">
            <g transform="matrix(1,0,0,1,-22.4938,-50.0862)">
                <path d="M158.4,399.24L158.4,387" style="fill:none;fill-rule:nonzero;"/>
            </g>
        </g>
        <g transform="matrix(16.6667,0,0,16.6667,0,0)">
            <g transform="matrix(1,0,0,1,-22.4938,-50.0862)">
                <path d="M158.688,399.24L158.688,387C158.688,386.841 158.559,386.712 158.4,386.712C158.241,386.712 158.112,386.841 158.112,387L158.112,399.24C158.112,399.399 158.241,399.528 158.4,399.528C158.559,399.528 158.688,399.399 158.688,399.24Z"/>
            </g>
        </g>
        <g transform="matrix(16.6667,0,0,16.6667,0,0)">
            <g transform="matrix(1,0,0,1,-22.4938,-50.0862)">
                <path d="M171.36,399.24L158.4,399.24" style="fill:none;fill-rule:nonzero;"/>
            </g>
        </g>
        <g transform="matrix(16.6667,0,0,16.6667,0,0)">
            <g transform="matrix(1,0,0,1,-22.4938,-50.0862)">
                <path d="M171.36,398.952L158.4,398.952C158.241,398.952 158.112,399.081 158.112,399.24C158.112,399.399 158.241,399.528 158.4,399.528L171.36,399.528C171.519,399.528 171.648,399.399 171.648,399.24C171.648,399.081 171.519,398.952 171.36,398.952Z"/>
            </g>
        </g>
        <g transform="matrix(16.6667,0,0,16.6667,0,0)">
            <g transform="matrix(1,0,0,1,-22.4938,-50.0862)">
                <path d="M171.36,381.96L171.36,399.24" style="fill:none;fill-rule:nonzero;"/>
            </g>
        </g>
        <g transform="matrix(16.6667,0,0,16.6667,0,0)">
            <g transform="matrix(1,0,0,1,-22.4938,-50.0862)">
                <path d="M171.072,381.96L171.072,399.24C171.072,399.399 171.201,399.528 171.36,399.528C171.519,399.528 171.648,399.399 171.648,399.24L171.648,381.96C171.648,381.801 171.519,381.672 171.36,381.672C171.201,381.672 171.072,381.801 171.072,381.96Z"/>
            </g>
        </g>
        <g transform="matrix(16.6667,0,0,16.6667,0,0)">
            <g transform="matrix(1,0,0,1,-22.4938,-50.0862)">
                <path d="M163.44,381.96L171.36,381.96" style="fill:none;fill-rule:nonzero;"/>
            </g>
        </g>
        <g transform="matrix(16.6667,0,0,16.6667,0,0)">
            <g transform="matrix(1,0,0,1,-22.4938,-50.0862)">
                <path d="M163.44,382.248L171.36,382.248C171.519,382.248 171.648,382.119 171.648,381.96C171.648,381.801 171.519,381.672 171.36,381.672L163.44,381.672C163.281,381.672 163.152,381.801 163.152,381.96C163.152,382.119 163.281,382.248 163.44,382.248Z"/>
            </g>
        </g>
        <g transform="matrix(16.6667,0,0,16.6667,0,0)">
            <g transform="matrix(1,0,0,1,-22.4938,-50.0862)">
                <circle cx="164.52" cy="390.96" r="14.4" style="fill-opacity:0;"/>
            </g>
        </g>
        <g transform="matrix(16.6667,0,0,16.6667,0,0)">
            <g transform="matrix(1,0,0,1,-22.4938,-50.0862)">
                <path d="M164.52,376.39C156.479,376.39 149.95,382.919 149.95,390.96C149.95,399.001 156.479,405.53 164.52,405.53C172.561,405.53 179.09,399.001 179.09,390.96C179.09,382.919 172.561,376.39 164.52,376.39ZM164.52,376.73C172.374,376.73 178.75,383.106 178.75,390.96C178.75,398.814 172.374,405.19 164.52,405.19C156.666,405.19 150.29,398.814 150.29,390.96C150.29,383.106 156.666,376.73 164.52,376.73Z"/>
            </g>
        </g>
    </g>
</svg>
