<?xml version="1.0" encoding="UTF-8" standalone="no"?>
<!DOCTYPE svg PUBLIC "-//W3C//DTD SVG 1.1//EN" "http://www.w3.org/Graphics/SVG/1.1/DTD/svg11.dtd">
<svg width="100%" height="100%" viewBox="0 0 486 486" version="1.1" xmlns="http://www.w3.org/2000/svg" xmlns:xlink="http://www.w3.org/1999/xlink" xml:space="preserve" xmlns:serif="http://www.serif.com/" style="fill-rule:evenodd;clip-rule:evenodd;stroke-linejoin:round;stroke-miterlimit:2;">
    <g transform="matrix(1,0,0,1,-2700.27,-5438.4)">
        <g transform="matrix(16.6667,0,0,16.6667,0,0)">
            <g transform="matrix(1,0,0,1,-22.4938,-50.0862)">
                <path d="M194.04,390.6L194.04,394.92" style="fill:none;fill-rule:nonzero;"/>
            </g>
        </g>
        <g transform="matrix(16.6667,0,0,16.6667,0,0)">
            <g transform="matrix(1,0,0,1,-22.4938,-50.0862)">
                <path d="M193.752,390.6L193.752,394.92C193.752,395.079 193.881,395.208 194.04,395.208C194.199,395.208 194.328,395.079 194.328,394.92L194.328,390.6C194.328,390.441 194.199,390.312 194.04,390.312C193.881,390.312 193.752,390.441 193.752,390.6Z"/>
            </g>
        </g>
        <g transform="matrix(16.6667,0,0,16.6667,0,0)">
            <g transform="matrix(1,0,0,1,-22.4938,-50.0862)">
                <path d="M194.04,390.6L194.04,386.28" style="fill:none;fill-rule:nonzero;"/>
            </g>
        </g>
        <g transform="matrix(16.6667,0,0,16.6667,0,0)">
            <g transform="matrix(1,0,0,1,-22.4938,-50.0862)">
                <path d="M194.328,390.6L194.328,386.28C194.328,386.121 194.199,385.992 194.04,385.992C193.881,385.992 193.752,386.121 193.752,386.28L193.752,390.6C193.752,390.759 193.881,390.888 194.04,390.888C194.199,390.888 194.328,390.759 194.328,390.6Z"/>
            </g>
        </g>
        <g transform="matrix(16.6667,0,0,16.6667,0,0)">
            <g transform="matrix(1,0,0,1,-22.4938,-50.0862)">
                <path d="M194.76,390.6L199.08,394.92" style="fill:none;fill-rule:nonzero;"/>
            </g>
        </g>
        <g transform="matrix(16.6667,0,0,16.6667,0,0)">
            <g transform="matrix(1,0,0,1,-22.4938,-50.0862)">
                <path d="M194.556,390.804L198.876,395.124C198.989,395.236 199.171,395.236 199.284,395.124C199.396,395.011 199.396,394.829 199.284,394.716L194.964,390.396C194.851,390.284 194.669,390.284 194.556,390.396C194.444,390.509 194.444,390.691 194.556,390.804Z"/>
            </g>
        </g>
        <g transform="matrix(16.6667,0,0,16.6667,0,0)">
            <g transform="matrix(1,0,0,1,-22.4938,-50.0862)">
                <path d="M198.36,387L199.08,386.28" style="fill:none;fill-rule:nonzero;"/>
            </g>
        </g>
        <g transform="matrix(16.6667,0,0,16.6667,0,0)">
            <g transform="matrix(1,0,0,1,-22.4938,-50.0862)">
                <path d="M198.564,387.204L199.284,386.484C199.396,386.371 199.396,386.189 199.284,386.076C199.171,385.964 198.989,385.964 198.876,386.076L198.156,386.796C198.044,386.909 198.044,387.091 198.156,387.204C198.269,387.316 198.451,387.316 198.564,387.204Z"/>
            </g>
        </g>
        <g transform="matrix(16.6667,0,0,16.6667,0,0)">
            <g transform="matrix(1,0,0,1,-22.4938,-50.0862)">
                <path d="M194.76,390.6L198.36,387" style="fill:none;fill-rule:nonzero;"/>
            </g>
        </g>
        <g transform="matrix(16.6667,0,0,16.6667,0,0)">
            <g transform="matrix(1,0,0,1,-22.4938,-50.0862)">
                <path d="M194.964,390.804L198.564,387.204C198.676,387.091 198.676,386.909 198.564,386.796C198.451,386.684 198.269,386.684 198.156,386.796L194.556,390.396C194.444,390.509 194.444,390.691 194.556,390.804C194.669,390.916 194.851,390.916 194.964,390.804Z"/>
            </g>
        </g>
        <g transform="matrix(16.6667,0,0,16.6667,0,0)">
            <g transform="matrix(1,0,0,1,-22.4938,-50.0862)">
                <path d="M205.56,390.6L194.76,390.6" style="fill:none;fill-rule:nonzero;"/>
            </g>
        </g>
        <g transform="matrix(16.6667,0,0,16.6667,0,0)">
            <g transform="matrix(1,0,0,1,-22.4938,-50.0862)">
                <path d="M205.56,390.312L194.76,390.312C194.601,390.312 194.472,390.441 194.472,390.6C194.472,390.759 194.601,390.888 194.76,390.888L205.56,390.888C205.719,390.888 205.848,390.759 205.848,390.6C205.848,390.441 205.719,390.312 205.56,390.312Z"/>
            </g>
        </g>
        <g transform="matrix(16.6667,0,0,16.6667,0,0)">
            <g transform="matrix(1,0,0,1,-22.4938,-50.0862)">
                <circle cx="199.08" cy="390.96" r="14.4" style="fill-opacity:0;"/>
            </g>
        </g>
        <g transform="matrix(16.6667,0,0,16.6667,0,0)">
            <g transform="matrix(1,0,0,1,-22.4938,-50.0862)">
                <path d="M199.08,376.39C191.039,376.39 184.51,382.919 184.51,390.96C184.51,399.001 191.039,405.53 199.08,405.53C207.121,405.53 213.65,399.001 213.65,390.96C213.65,382.919 207.121,376.39 199.08,376.39ZM199.08,376.73C206.934,376.73 213.31,383.106 213.31,390.96C213.31,398.814 206.934,405.19 199.08,405.19C191.226,405.19 184.85,398.814 184.85,390.96C184.85,383.106 191.226,376.73 199.08,376.73Z"/>
            </g>
        </g>
    </g>
</svg>
