<?xml version="1.0" encoding="UTF-8" standalone="no"?>
<!DOCTYPE svg PUBLIC "-//W3C//DTD SVG 1.1//EN" "http://www.w3.org/Graphics/SVG/1.1/DTD/svg11.dtd">
<svg width="100%" height="100%" viewBox="0 0 486 486" version="1.1" xmlns="http://www.w3.org/2000/svg" xmlns:xlink="http://www.w3.org/1999/xlink" xml:space="preserve" xmlns:serif="http://www.serif.com/" style="fill-rule:evenodd;clip-rule:evenodd;stroke-linejoin:round;stroke-miterlimit:2;">
    <g transform="matrix(1,0,0,1,-3276.27,-5438.4)">
        <g transform="matrix(16.6667,0,0,16.6667,0,0)">
            <g transform="matrix(1,0,0,1,-22.4938,-50.0862)">
                <path d="M227.52,390.96L238.32,390.96" style="fill:none;fill-rule:nonzero;"/>
            </g>
        </g>
        <g transform="matrix(16.6667,0,0,16.6667,0,0)">
            <g transform="matrix(1,0,0,1,-22.4938,-50.0862)">
                <path d="M227.52,391.248L238.32,391.248C238.479,391.248 238.608,391.119 238.608,390.96C238.608,390.801 238.479,390.672 238.32,390.672L227.52,390.672C227.361,390.672 227.232,390.801 227.232,390.96C227.232,391.119 227.361,391.248 227.52,391.248Z"/>
            </g>
        </g>
        <g transform="matrix(16.6667,0,0,16.6667,0,0)">
            <g transform="matrix(1,0,0,1,-22.4938,-50.0862)">
                <path d="M239.04,390.96L239.04,386.64" style="fill:none;fill-rule:nonzero;"/>
            </g>
        </g>
        <g transform="matrix(16.6667,0,0,16.6667,0,0)">
            <g transform="matrix(1,0,0,1,-22.4938,-50.0862)">
                <path d="M239.328,390.96L239.328,386.64C239.328,386.481 239.199,386.352 239.04,386.352C238.881,386.352 238.752,386.481 238.752,386.64L238.752,390.96C238.752,391.119 238.881,391.248 239.04,391.248C239.199,391.248 239.328,391.119 239.328,390.96Z"/>
            </g>
        </g>
        <g transform="matrix(16.6667,0,0,16.6667,0,0)">
            <g transform="matrix(1,0,0,1,-22.4938,-50.0862)">
                <path d="M239.04,390.96L239.04,395.28" style="fill:none;fill-rule:nonzero;"/>
            </g>
        </g>
        <g transform="matrix(16.6667,0,0,16.6667,0,0)">
            <g transform="matrix(1,0,0,1,-22.4938,-50.0862)">
                <path d="M238.752,390.96L238.752,395.28C238.752,395.439 238.881,395.568 239.04,395.568C239.199,395.568 239.328,395.439 239.328,395.28L239.328,390.96C239.328,390.801 239.199,390.672 239.04,390.672C238.881,390.672 238.752,390.801 238.752,390.96Z"/>
            </g>
        </g>
        <g transform="matrix(16.6667,0,0,16.6667,0,0)">
            <g transform="matrix(1,0,0,1,-22.4938,-50.0862)">
                <path d="M234.72,394.56L234,395.28" style="fill:none;fill-rule:nonzero;"/>
            </g>
        </g>
        <g transform="matrix(16.6667,0,0,16.6667,0,0)">
            <g transform="matrix(1,0,0,1,-22.4938,-50.0862)">
                <path d="M234.516,394.356L233.796,395.076C233.684,395.189 233.684,395.371 233.796,395.484C233.909,395.596 234.091,395.596 234.204,395.484L234.924,394.764C235.036,394.651 235.036,394.469 234.924,394.356C234.811,394.244 234.629,394.244 234.516,394.356Z"/>
            </g>
        </g>
        <g transform="matrix(16.6667,0,0,16.6667,0,0)">
            <g transform="matrix(1,0,0,1,-22.4938,-50.0862)">
                <path d="M238.32,390.96L234,386.64" style="fill:none;fill-rule:nonzero;"/>
            </g>
        </g>
        <g transform="matrix(16.6667,0,0,16.6667,0,0)">
            <g transform="matrix(1,0,0,1,-22.4938,-50.0862)">
                <path d="M238.524,390.756L234.204,386.436C234.091,386.324 233.909,386.324 233.796,386.436C233.684,386.549 233.684,386.731 233.796,386.844L238.116,391.164C238.229,391.276 238.411,391.276 238.524,391.164C238.636,391.051 238.636,390.869 238.524,390.756Z"/>
            </g>
        </g>
        <g transform="matrix(16.6667,0,0,16.6667,0,0)">
            <g transform="matrix(1,0,0,1,-22.4938,-50.0862)">
                <path d="M238.32,390.96L234.72,394.56" style="fill:none;fill-rule:nonzero;"/>
            </g>
        </g>
        <g transform="matrix(16.6667,0,0,16.6667,0,0)">
            <g transform="matrix(1,0,0,1,-22.4938,-50.0862)">
                <path d="M238.116,390.756L234.516,394.356C234.404,394.469 234.404,394.651 234.516,394.764C234.629,394.876 234.811,394.876 234.924,394.764L238.524,391.164C238.636,391.051 238.636,390.869 238.524,390.756C238.411,390.644 238.229,390.644 238.116,390.756Z"/>
            </g>
        </g>
        <g transform="matrix(16.6667,0,0,16.6667,0,0)">
            <g transform="matrix(1,0,0,1,-22.4938,-50.0862)">
                <circle cx="233.64" cy="390.96" r="14.4" style="fill-opacity:0;"/>
            </g>
        </g>
        <g transform="matrix(16.6667,0,0,16.6667,0,0)">
            <g transform="matrix(1,0,0,1,-22.4938,-50.0862)">
                <path d="M233.64,376.39C225.599,376.39 219.07,382.919 219.07,390.96C219.07,399.001 225.599,405.53 233.64,405.53C241.681,405.53 248.21,399.001 248.21,390.96C248.21,382.919 241.681,376.39 233.64,376.39ZM233.64,376.73C241.494,376.73 247.87,383.106 247.87,390.96C247.87,398.814 241.494,405.19 233.64,405.19C225.786,405.19 219.41,398.814 219.41,390.96C219.41,383.106 225.786,376.73 233.64,376.73Z"/>
            </g>
        </g>
    </g>
</svg>
