<?xml version="1.0" encoding="UTF-8" standalone="no"?>
<!DOCTYPE svg PUBLIC "-//W3C//DTD SVG 1.1//EN" "http://www.w3.org/Graphics/SVG/1.1/DTD/svg11.dtd">
<svg width="100%" height="100%" viewBox="0 0 486 486" version="1.1" xmlns="http://www.w3.org/2000/svg" xmlns:xlink="http://www.w3.org/1999/xlink" xml:space="preserve" xmlns:serif="http://www.serif.com/" style="fill-rule:evenodd;clip-rule:evenodd;stroke-linejoin:round;stroke-miterlimit:2;">
    <g transform="matrix(1,0,0,1,-3852.27,-5438.4)">
        <g transform="matrix(16.6667,0,0,16.6667,0,0)">
            <g transform="matrix(1,0,0,1,-22.4938,-50.0862)">
                <path d="M268.56,390.6L264.24,394.92" style="fill:none;fill-rule:nonzero;"/>
            </g>
        </g>
        <g transform="matrix(16.6667,0,0,16.6667,0,0)">
            <g transform="matrix(1,0,0,1,-22.4938,-50.0862)">
                <path d="M268.356,390.396L264.036,394.716C263.924,394.829 263.924,395.011 264.036,395.124C264.149,395.236 264.331,395.236 264.444,395.124L268.764,390.804C268.876,390.691 268.876,390.509 268.764,390.396C268.651,390.284 268.469,390.284 268.356,390.396Z"/>
            </g>
        </g>
        <g transform="matrix(16.6667,0,0,16.6667,0,0)">
            <g transform="matrix(1,0,0,1,-22.4938,-50.0862)">
                <path d="M268.56,390.6L264.24,386.28" style="fill:none;fill-rule:nonzero;"/>
            </g>
        </g>
        <g transform="matrix(16.6667,0,0,16.6667,0,0)">
            <g transform="matrix(1,0,0,1,-22.4938,-50.0862)">
                <path d="M268.764,390.396L264.444,386.076C264.331,385.964 264.149,385.964 264.036,386.076C263.924,386.189 263.924,386.371 264.036,386.484L268.356,390.804C268.469,390.916 268.651,390.916 268.764,390.804C268.876,390.691 268.876,390.509 268.764,390.396Z"/>
            </g>
        </g>
        <g transform="matrix(16.6667,0,0,16.6667,0,0)">
            <g transform="matrix(1,0,0,1,-22.4938,-50.0862)">
                <path d="M268.56,390.6L272.88,386.28" style="fill:none;fill-rule:nonzero;"/>
            </g>
        </g>
        <g transform="matrix(16.6667,0,0,16.6667,0,0)">
            <g transform="matrix(1,0,0,1,-22.4938,-50.0862)">
                <path d="M268.764,390.804L273.084,386.484C273.196,386.371 273.196,386.189 273.084,386.076C272.971,385.964 272.789,385.964 272.676,386.076L268.356,390.396C268.244,390.509 268.244,390.691 268.356,390.804C268.469,390.916 268.651,390.916 268.764,390.804Z"/>
            </g>
        </g>
        <g transform="matrix(16.6667,0,0,16.6667,0,0)">
            <g transform="matrix(1,0,0,1,-22.4938,-50.0862)">
                <path d="M268.56,390.6L272.88,394.92" style="fill:none;fill-rule:nonzero;"/>
            </g>
        </g>
        <g transform="matrix(16.6667,0,0,16.6667,0,0)">
            <g transform="matrix(1,0,0,1,-22.4938,-50.0862)">
                <path d="M268.356,390.804L272.676,395.124C272.789,395.236 272.971,395.236 273.084,395.124C273.196,395.011 273.196,394.829 273.084,394.716L268.764,390.396C268.651,390.284 268.469,390.284 268.356,390.396C268.244,390.509 268.244,390.691 268.356,390.804Z"/>
            </g>
        </g>
        <g transform="matrix(16.6667,0,0,16.6667,0,0)">
            <g transform="matrix(1,0,0,1,-22.4938,-50.0862)">
                <circle cx="268.2" cy="390.96" r="14.4" style="fill-opacity:0;"/>
            </g>
        </g>
        <g transform="matrix(16.6667,0,0,16.6667,0,0)">
            <g transform="matrix(1,0,0,1,-22.4938,-50.0862)">
                <path d="M268.2,376.39C260.159,376.39 253.63,382.919 253.63,390.96C253.63,399.001 260.159,405.53 268.2,405.53C276.241,405.53 282.77,399.001 282.77,390.96C282.77,382.919 276.241,376.39 268.2,376.39ZM268.2,376.73C276.054,376.73 282.43,383.106 282.43,390.96C282.43,398.814 276.054,405.19 268.2,405.19C260.346,405.19 253.97,398.814 253.97,390.96C253.97,383.106 260.346,376.73 268.2,376.73Z"/>
            </g>
        </g>
    </g>
</svg>
