<?xml version="1.0" encoding="UTF-8" standalone="no"?>
<!DOCTYPE svg PUBLIC "-//W3C//DTD SVG 1.1//EN" "http://www.w3.org/Graphics/SVG/1.1/DTD/svg11.dtd">
<svg width="100%" height="100%" viewBox="0 0 486 486" version="1.1" xmlns="http://www.w3.org/2000/svg" xmlns:xlink="http://www.w3.org/1999/xlink" xml:space="preserve" xmlns:serif="http://www.serif.com/" style="fill-rule:evenodd;clip-rule:evenodd;stroke-linejoin:round;stroke-miterlimit:2;">
    <g transform="matrix(1,0,0,1,-4428.27,-5438.4)">
        <g transform="matrix(16.6667,0,0,16.6667,0,0)">
            <g transform="matrix(1,0,0,1,-22.4938,-50.0862)">
                <circle cx="303.12" cy="390.6" r="5.04" style="fill-opacity:0;"/>
            </g>
        </g>
        <g transform="matrix(16.6667,0,0,16.6667,0,0)">
            <g transform="matrix(1,0,0,1,-22.4938,-50.0862)">
                <path d="M303.12,385.272C300.179,385.272 297.792,387.659 297.792,390.6C297.792,393.541 300.179,395.928 303.12,395.928C306.061,395.928 308.448,393.541 308.448,390.6C308.448,387.659 306.061,385.272 303.12,385.272ZM303.12,385.848C305.743,385.848 307.872,387.977 307.872,390.6C307.872,393.223 305.743,395.352 303.12,395.352C300.497,395.352 298.368,393.223 298.368,390.6C298.368,387.977 300.497,385.848 303.12,385.848Z"/>
            </g>
        </g>
        <g transform="matrix(16.6667,0,0,16.6667,0,0)">
            <g transform="matrix(1,0,0,1,-22.4938,-50.0862)">
                <circle cx="302.76" cy="390.96" r="14.4" style="fill-opacity:0;"/>
            </g>
        </g>
        <g transform="matrix(16.6667,0,0,16.6667,0,0)">
            <g transform="matrix(1,0,0,1,-22.4938,-50.0862)">
                <path d="M302.76,376.39C294.719,376.39 288.19,382.919 288.19,390.96C288.19,399.001 294.719,405.53 302.76,405.53C310.801,405.53 317.33,399.001 317.33,390.96C317.33,382.919 310.801,376.39 302.76,376.39ZM302.76,376.73C310.614,376.73 316.99,383.106 316.99,390.96C316.99,398.814 310.614,405.19 302.76,405.19C294.906,405.19 288.53,398.814 288.53,390.96C288.53,383.106 294.906,376.73 302.76,376.73Z"/>
            </g>
        </g>
    </g>
</svg>
