<?xml version="1.0" encoding="UTF-8" standalone="no"?>
<!DOCTYPE svg PUBLIC "-//W3C//DTD SVG 1.1//EN" "http://www.w3.org/Graphics/SVG/1.1/DTD/svg11.dtd">
<svg width="100%" height="100%" viewBox="0 0 486 486" version="1.1" xmlns="http://www.w3.org/2000/svg" xmlns:xlink="http://www.w3.org/1999/xlink" xml:space="preserve" xmlns:serif="http://www.serif.com/" style="fill-rule:evenodd;clip-rule:evenodd;stroke-linejoin:round;stroke-miterlimit:2;">
    <g transform="matrix(1,0,0,1,-5004.27,-5438.4)">
        <g transform="matrix(16.6667,0,0,16.6667,0,0)">
            <g transform="matrix(1,0,0,1,-22.4938,-50.0862)">
                <path d="M336.6,390.6L336.6,386.28" style="fill:none;fill-rule:nonzero;"/>
            </g>
        </g>
        <g transform="matrix(16.6667,0,0,16.6667,0,0)">
            <g transform="matrix(1,0,0,1,-22.4938,-50.0862)">
                <path d="M336.888,390.6L336.888,386.28C336.888,386.121 336.759,385.992 336.6,385.992C336.441,385.992 336.312,386.121 336.312,386.28L336.312,390.6C336.312,390.759 336.441,390.888 336.6,390.888C336.759,390.888 336.888,390.759 336.888,390.6Z"/>
            </g>
        </g>
        <g transform="matrix(16.6667,0,0,16.6667,0,0)">
            <g transform="matrix(1,0,0,1,-22.4938,-50.0862)">
                <path d="M336.6,390.6L336.6,394.92" style="fill:none;fill-rule:nonzero;"/>
            </g>
        </g>
        <g transform="matrix(16.6667,0,0,16.6667,0,0)">
            <g transform="matrix(1,0,0,1,-22.4938,-50.0862)">
                <path d="M336.312,390.6L336.312,394.92C336.312,395.079 336.441,395.208 336.6,395.208C336.759,395.208 336.888,395.079 336.888,394.92L336.888,390.6C336.888,390.441 336.759,390.312 336.6,390.312C336.441,390.312 336.312,390.441 336.312,390.6Z"/>
            </g>
        </g>
        <g transform="matrix(16.6667,0,0,16.6667,0,0)">
            <g transform="matrix(1,0,0,1,-22.4938,-50.0862)">
                <path d="M337.32,394.2L336.6,394.92" style="fill:none;fill-rule:nonzero;"/>
            </g>
        </g>
        <g transform="matrix(16.6667,0,0,16.6667,0,0)">
            <g transform="matrix(1,0,0,1,-22.4938,-50.0862)">
                <path d="M337.116,393.996L336.396,394.716C336.284,394.829 336.284,395.011 336.396,395.124C336.509,395.236 336.691,395.236 336.804,395.124L337.524,394.404C337.636,394.291 337.636,394.109 337.524,393.996C337.411,393.884 337.229,393.884 337.116,393.996Z"/>
            </g>
        </g>
        <g transform="matrix(16.6667,0,0,16.6667,0,0)">
            <g transform="matrix(1,0,0,1,-22.4938,-50.0862)">
                <path d="M340.92,390.6L336.6,386.28" style="fill:none;fill-rule:nonzero;"/>
            </g>
        </g>
        <g transform="matrix(16.6667,0,0,16.6667,0,0)">
            <g transform="matrix(1,0,0,1,-22.4938,-50.0862)">
                <path d="M341.124,390.396L336.804,386.076C336.691,385.964 336.509,385.964 336.396,386.076C336.284,386.189 336.284,386.371 336.396,386.484L340.716,390.804C340.829,390.916 341.011,390.916 341.124,390.804C341.236,390.691 341.236,390.509 341.124,390.396Z"/>
            </g>
        </g>
        <g transform="matrix(16.6667,0,0,16.6667,0,0)">
            <g transform="matrix(1,0,0,1,-22.4938,-50.0862)">
                <path d="M340.92,390.6L337.32,394.2" style="fill:none;fill-rule:nonzero;"/>
            </g>
        </g>
        <g transform="matrix(16.6667,0,0,16.6667,0,0)">
            <g transform="matrix(1,0,0,1,-22.4938,-50.0862)">
                <path d="M340.716,390.396L337.116,393.996C337.004,394.109 337.004,394.291 337.116,394.404C337.229,394.516 337.411,394.516 337.524,394.404L341.124,390.804C341.236,390.691 341.236,390.509 341.124,390.396C341.011,390.284 340.829,390.284 340.716,390.396Z"/>
            </g>
        </g>
        <g transform="matrix(16.6667,0,0,16.6667,0,0)">
            <g transform="matrix(1,0,0,1,-22.4938,-50.0862)">
                <circle cx="337.32" cy="390.96" r="14.4" style="fill-opacity:0;"/>
            </g>
        </g>
        <g transform="matrix(16.6667,0,0,16.6667,0,0)">
            <g transform="matrix(1,0,0,1,-22.4938,-50.0862)">
                <path d="M337.32,376.39C329.279,376.39 322.75,382.919 322.75,390.96C322.75,399.001 329.279,405.53 337.32,405.53C345.361,405.53 351.89,399.001 351.89,390.96C351.89,382.919 345.361,376.39 337.32,376.39ZM337.32,376.73C345.174,376.73 351.55,383.106 351.55,390.96C351.55,398.814 345.174,405.19 337.32,405.19C329.466,405.19 323.09,398.814 323.09,390.96C323.09,383.106 329.466,376.73 337.32,376.73Z"/>
            </g>
        </g>
    </g>
</svg>
