<?xml version="1.0" encoding="UTF-8" standalone="no"?>
<!DOCTYPE svg PUBLIC "-//W3C//DTD SVG 1.1//EN" "http://www.w3.org/Graphics/SVG/1.1/DTD/svg11.dtd">
<svg width="100%" height="100%" viewBox="0 0 70 70" version="1.1" xmlns="http://www.w3.org/2000/svg" xmlns:xlink="http://www.w3.org/1999/xlink" xml:space="preserve" xmlns:serif="http://www.serif.com/" style="fill-rule:evenodd;clip-rule:evenodd;stroke-linejoin:round;stroke-miterlimit:2;">
    <g transform="matrix(1,0,0,1,-198.219,-2506.88)">
        <path d="M204.828,2520.94C211.075,2512.38 221.201,2506.88 232.778,2506.88C252.072,2506.88 267.619,2522.15 267.619,2541.44C267.619,2560.73 252.07,2576.28 232.778,2576.28C213.485,2576.28 198.219,2560.73 198.219,2541.44C198.219,2534.33 200.293,2527.76 203.878,2522.31L199.696,2519.36C199.32,2519.09 199.231,2518.57 199.496,2518.19C199.761,2517.82 200.281,2517.73 200.657,2517.99L204.828,2520.94ZM265.952,2541.44C265.952,2559.81 251.147,2574.61 232.778,2574.61C214.411,2574.61 199.886,2559.81 199.886,2541.44C199.886,2523.07 214.413,2508.55 232.778,2508.55C251.145,2508.55 265.952,2523.07 265.952,2541.44ZM248.398,2522.07C248.481,2522.05 248.563,2522.05 248.642,2522.07C248.781,2522.09 248.909,2522.14 249.016,2522.22C249.124,2522.3 249.213,2522.41 249.272,2522.54C249.306,2522.61 249.33,2522.69 249.342,2522.77C249.349,2522.82 249.351,2522.86 249.35,2522.91L249.35,2523.44C249.351,2523.45 249.351,2523.46 249.35,2523.47L249.35,2524.56C249.351,2524.57 249.351,2524.58 249.35,2524.59L249.35,2548.37C249.532,2548.83 249.631,2549.34 249.631,2549.87C249.631,2552.29 247.561,2554.36 245.144,2554.36C242.711,2554.36 240.939,2552.3 240.939,2549.87C240.939,2547.42 242.691,2545.66 245.144,2545.66C246.078,2545.66 246.956,2545.93 247.684,2546.39L247.684,2525.69L235.86,2529.17L235.86,2539.94C236.041,2540.4 236.141,2540.9 236.141,2541.44C236.141,2543.86 234.07,2545.93 231.654,2545.93C229.221,2545.93 227.448,2543.87 227.448,2541.44C227.448,2538.99 229.201,2537.23 231.654,2537.23C232.588,2537.23 233.466,2537.49 234.193,2537.95L234.193,2529.66L220.683,2533.63L220.683,2552.31C220.865,2552.76 220.964,2553.27 220.964,2553.8C220.964,2556.22 218.894,2558.29 216.477,2558.29C214.044,2558.29 212.272,2556.24 212.272,2553.8C212.272,2551.35 214.024,2549.6 216.477,2549.6C217.411,2549.6 218.289,2549.86 219.017,2550.32L219.017,2533.02C219.016,2533.01 219.016,2533 219.017,2532.99L219.017,2531.9C219.016,2531.89 219.016,2531.88 219.017,2531.87L219.017,2531.34C219.016,2531.29 219.019,2531.24 219.026,2531.2C219.047,2531.06 219.102,2530.93 219.183,2530.82C219.263,2530.72 219.37,2530.63 219.497,2530.57C219.54,2530.55 219.584,2530.53 219.63,2530.52L248.266,2522.1C248.309,2522.08 248.353,2522.07 248.398,2522.07ZM217.509,2551.44C218.235,2551.91 218.716,2552.73 218.716,2553.66C218.716,2555.13 217.524,2556.33 216.056,2556.33C215.669,2556.33 215.3,2556.24 214.968,2556.09C215.378,2556.43 215.893,2556.63 216.477,2556.63C217.728,2556.63 218.831,2555.74 219.182,2554.58C219.078,2554.45 219.017,2554.27 219.017,2554.09L219.017,2552.67C218.705,2552.1 218.16,2551.66 217.509,2551.44ZM217.049,2553.66C217.049,2554.21 216.604,2554.66 216.056,2554.66C215.508,2554.66 215.062,2554.21 215.062,2553.66C215.062,2553.12 215.508,2552.67 216.056,2552.67C216.604,2552.67 217.049,2553.12 217.049,2553.66ZM246.911,2547.88C247.377,2548.36 247.664,2549.01 247.664,2549.73C247.664,2551.2 246.472,2552.39 245.004,2552.39C244.283,2552.39 243.63,2552.1 243.15,2551.64C243.599,2552.27 244.298,2552.69 245.144,2552.69C246.471,2552.69 247.631,2551.7 247.904,2550.43C247.767,2550.29 247.684,2550.09 247.684,2549.87L247.684,2548.74C247.499,2548.4 247.233,2548.1 246.911,2547.88ZM245.997,2549.73C245.997,2550.28 245.552,2550.72 245.004,2550.72C244.456,2550.72 244.01,2550.28 244.01,2549.73C244.01,2549.18 244.456,2548.74 245.004,2548.74C245.552,2548.74 245.997,2549.18 245.997,2549.73ZM233.421,2539.45C233.887,2539.92 234.174,2540.58 234.174,2541.3C234.174,2542.77 232.982,2543.96 231.514,2543.96C230.793,2543.96 230.139,2543.67 229.66,2543.21C230.109,2543.84 230.808,2544.26 231.654,2544.26C232.98,2544.26 234.141,2543.27 234.414,2542C234.277,2541.86 234.193,2541.66 234.193,2541.44L234.193,2540.31C234.009,2539.97 233.743,2539.67 233.421,2539.45ZM232.507,2541.3C232.507,2541.85 232.062,2542.29 231.514,2542.29C230.965,2542.29 230.52,2541.85 230.52,2541.3C230.52,2540.75 230.965,2540.3 231.514,2540.3C232.062,2540.3 232.507,2540.75 232.507,2541.3Z"/>
    </g>
</svg>
