<?xml version="1.0" encoding="UTF-8" standalone="no"?>
<!DOCTYPE svg PUBLIC "-//W3C//DTD SVG 1.1//EN" "http://www.w3.org/Graphics/SVG/1.1/DTD/svg11.dtd">
<svg width="100%" height="100%" viewBox="0 0 70 70" version="1.1" xmlns="http://www.w3.org/2000/svg" xmlns:xlink="http://www.w3.org/1999/xlink" xml:space="preserve" xmlns:serif="http://www.serif.com/" style="fill-rule:evenodd;clip-rule:evenodd;stroke-linejoin:round;stroke-miterlimit:2;">
    <g transform="matrix(1,0,0,1,-602.93,-2582.76)">
        <path d="M609.538,2596.82C615.786,2588.26 625.912,2582.76 637.489,2582.76C656.783,2582.76 672.329,2598.03 672.329,2617.32C672.329,2636.61 656.781,2652.16 637.489,2652.16C618.195,2652.16 602.93,2636.62 602.93,2617.32C602.93,2610.21 605.004,2603.65 608.589,2598.19L604.407,2595.24C604.031,2594.97 603.941,2594.45 604.206,2594.08C604.472,2593.7 604.992,2593.61 605.368,2593.88L609.538,2596.82ZM670.663,2617.32C670.663,2635.69 655.858,2650.5 637.489,2650.5C619.122,2650.5 604.596,2635.69 604.596,2617.32C604.596,2598.96 619.124,2584.43 637.489,2584.43C655.856,2584.43 670.663,2598.96 670.663,2617.32ZM619.189,2604.75C619.314,2604.7 619.451,2604.68 619.592,2604.69C619.671,2604.7 619.75,2604.72 619.825,2604.75L619.829,2604.75C619.882,2604.78 619.933,2604.8 619.979,2604.84L637.371,2616.55L655.003,2604.83C655.052,2604.8 655.104,2604.77 655.159,2604.75L655.162,2604.75C655.238,2604.72 655.317,2604.7 655.396,2604.69C655.537,2604.68 655.674,2604.7 655.798,2604.75L655.799,2604.75C655.923,2604.8 656.035,2604.88 656.124,2604.99C656.174,2605.06 656.216,2605.13 656.247,2605.2L656.248,2605.2C656.271,2605.26 656.287,2605.32 656.297,2605.38L661.634,2633.18C661.654,2633.29 661.654,2633.4 661.633,2633.51L661.633,2633.51C661.611,2633.61 661.57,2633.72 661.507,2633.81C661.444,2633.9 661.365,2633.98 661.275,2634.04C661.186,2634.1 661.084,2634.14 660.973,2634.16C660.863,2634.18 660.753,2634.18 660.649,2634.16C660.545,2634.14 660.444,2634.1 660.351,2634.03L637.364,2618.55L614.061,2634.04C613.969,2634.1 613.867,2634.14 613.76,2634.16L613.754,2634.16C613.649,2634.18 613.538,2634.18 613.427,2634.16C613.318,2634.13 613.218,2634.09 613.131,2634.03C613.045,2633.97 612.967,2633.9 612.906,2633.8C612.843,2633.71 612.802,2633.61 612.781,2633.5L612.781,2633.5C612.761,2633.39 612.761,2633.28 612.785,2633.17L618.684,2605.36C618.694,2605.3 618.711,2605.25 618.734,2605.2L618.735,2605.19C618.767,2605.12 618.81,2605.05 618.861,2604.99C618.951,2604.88 619.065,2604.8 619.189,2604.75ZM638.866,2617.55L659.62,2631.53L654.894,2606.91L638.866,2617.55ZM614.838,2631.52L635.869,2617.55L620.061,2606.9L614.838,2631.52ZM653.759,2598.8L651.233,2596.27C650.908,2595.95 650.908,2595.42 651.233,2595.09C651.558,2594.77 652.087,2594.77 652.412,2595.09L656.627,2599.31L656.651,2599.33L656.672,2599.36L656.692,2599.38L656.711,2599.41L656.729,2599.43L656.749,2599.46L656.767,2599.49L656.783,2599.52L656.798,2599.56L656.81,2599.58L656.821,2599.61L656.831,2599.64L656.84,2599.67L656.847,2599.7L656.854,2599.73L656.86,2599.76L656.864,2599.79L656.868,2599.82L656.87,2599.86L656.871,2599.89L656.871,2599.93L656.869,2599.97L656.865,2600L656.86,2600.03L656.854,2600.07L656.846,2600.1L656.837,2600.14L656.826,2600.17L656.813,2600.2L656.8,2600.24L656.784,2600.27L656.769,2600.3L656.753,2600.33L656.737,2600.35L656.719,2600.38L656.701,2600.4L656.681,2600.43L656.66,2600.45L656.639,2600.47L656.627,2600.49L652.412,2604.7C652.087,2605.03 651.558,2605.03 651.233,2604.7C650.908,2604.38 650.908,2603.85 651.233,2603.52L654.298,2600.46L622.341,2600.72L625.15,2603.52C625.475,2603.85 625.475,2604.38 625.15,2604.7C624.825,2605.03 624.297,2605.03 623.971,2604.7L619.756,2600.49L619.732,2600.46L619.711,2600.44L619.691,2600.41L619.672,2600.39L619.654,2600.36L619.634,2600.33L619.616,2600.3L619.6,2600.27L619.585,2600.24L619.576,2600.22C619.535,2600.12 619.512,2600.02 619.512,2599.9C619.511,2599.79 619.533,2599.68 619.574,2599.58L619.588,2599.55L619.602,2599.52L619.617,2599.49L619.632,2599.47L619.649,2599.44L619.667,2599.41L619.685,2599.39L619.705,2599.36L619.726,2599.34L619.748,2599.32L619.756,2599.31L623.971,2595.09C624.297,2594.77 624.825,2594.77 625.15,2595.09C625.475,2595.42 625.475,2595.95 625.15,2596.27L622.373,2599.05L653.759,2598.8Z"/>
    </g>
</svg>
