<?xml version="1.0" encoding="UTF-8" standalone="no"?>
<!DOCTYPE svg PUBLIC "-//W3C//DTD SVG 1.1//EN" "http://www.w3.org/Graphics/SVG/1.1/DTD/svg11.dtd">
<svg width="100%" height="100%" viewBox="0 0 70 70" version="1.1" xmlns="http://www.w3.org/2000/svg" xmlns:xlink="http://www.w3.org/1999/xlink" xml:space="preserve" xmlns:serif="http://www.serif.com/" style="fill-rule:evenodd;clip-rule:evenodd;stroke-linejoin:round;stroke-miterlimit:2;">
    <g transform="matrix(1,0,0,1,-683.872,-2582.76)">
        <path d="M690.481,2596.82C696.728,2588.26 706.854,2582.76 718.431,2582.76C737.725,2582.76 753.271,2598.03 753.271,2617.32C753.271,2636.61 737.723,2652.16 718.431,2652.16C699.137,2652.16 683.872,2636.62 683.872,2617.32C683.872,2610.21 685.946,2603.65 689.531,2598.19L685.349,2595.24C684.973,2594.97 684.883,2594.45 685.149,2594.08C685.414,2593.7 685.934,2593.61 686.31,2593.88L690.481,2596.82ZM751.605,2617.32C751.605,2635.69 736.8,2650.5 718.431,2650.5C700.064,2650.5 685.538,2635.69 685.538,2617.32C685.538,2598.96 700.066,2584.43 718.431,2584.43C736.798,2584.43 751.605,2598.96 751.605,2617.32ZM736.98,2597.1L737.015,2597.1L737.046,2597.1L737.078,2597.1L737.109,2597.11L737.143,2597.11L737.178,2597.12L737.208,2597.13L737.233,2597.14L737.257,2597.14C737.257,2597.14 737.262,2597.15 737.262,2597.15C737.582,2597.26 737.811,2597.57 737.814,2597.92L737.814,2597.93L737.814,2636.72L737.813,2636.75L737.811,2636.78L737.808,2636.81L737.805,2636.84L737.801,2636.86L737.8,2636.87C737.728,2637.26 737.388,2637.55 736.98,2637.55L696.509,2637.55L696.475,2637.55L696.444,2637.55L696.412,2637.54L696.381,2637.54L696.344,2637.53L696.311,2637.53L696.281,2637.52L696.257,2637.51L696.232,2637.5L696.228,2637.5C695.908,2637.38 695.678,2637.08 695.676,2636.72L695.676,2636.72L695.676,2597.93L695.677,2597.9L695.679,2597.86L695.682,2597.83L695.686,2597.8L695.692,2597.77L695.697,2597.74L695.703,2597.72C695.798,2597.36 696.123,2597.1 696.509,2597.1L696.509,2597.1L736.98,2597.1ZM697.343,2598.76L697.343,2635.88L736.147,2635.88L736.147,2598.76L697.343,2598.76ZM733.036,2628.28C733.036,2625.85 730.982,2624.08 728.549,2624.08C726.095,2624.08 724.343,2625.83 724.343,2628.28C724.343,2630.72 726.116,2632.77 728.549,2632.77C730.965,2632.77 733.036,2630.7 733.036,2628.28ZM709.428,2628.28C709.428,2625.85 707.374,2624.08 704.941,2624.08C702.487,2624.08 700.735,2625.83 700.735,2628.28C700.735,2630.72 702.507,2632.77 704.941,2632.77C707.357,2632.77 709.428,2630.7 709.428,2628.28ZM731.369,2628.28C731.369,2629.8 730.068,2631.1 728.549,2631.1C727.047,2631.1 726.01,2629.78 726.01,2628.28C726.01,2626.8 727.068,2625.74 728.549,2625.74C730.05,2625.74 731.369,2626.78 731.369,2628.28ZM707.761,2628.28C707.761,2629.8 706.459,2631.1 704.941,2631.1C703.439,2631.1 702.401,2629.78 702.401,2628.28C702.401,2626.8 703.46,2625.74 704.941,2625.74C706.442,2625.74 707.761,2626.78 707.761,2628.28ZM721.232,2616.48C721.232,2614.05 719.178,2612.27 716.745,2612.27C714.291,2612.27 712.539,2614.03 712.539,2616.48C712.539,2618.91 714.311,2620.97 716.745,2620.97C719.161,2620.97 721.232,2618.89 721.232,2616.48ZM719.565,2616.48C719.565,2618 718.263,2619.3 716.745,2619.3C715.243,2619.3 714.206,2617.98 714.206,2616.48C714.206,2615 715.264,2613.94 716.745,2613.94C718.246,2613.94 719.565,2614.98 719.565,2616.48ZM733.036,2606.36C733.036,2603.93 730.982,2602.16 728.549,2602.16C726.095,2602.16 724.343,2603.91 724.343,2606.36C724.343,2608.8 726.116,2610.85 728.549,2610.85C730.965,2610.85 733.036,2608.78 733.036,2606.36ZM709.428,2606.36C709.428,2603.93 707.374,2602.16 704.941,2602.16C702.487,2602.16 700.735,2603.91 700.735,2606.36C700.735,2608.8 702.507,2610.85 704.941,2610.85C707.357,2610.85 709.428,2608.78 709.428,2606.36ZM731.369,2606.36C731.369,2607.88 730.068,2609.18 728.549,2609.18C727.047,2609.18 726.01,2607.86 726.01,2606.36C726.01,2604.88 727.068,2603.82 728.549,2603.82C730.05,2603.82 731.369,2604.86 731.369,2606.36ZM707.761,2606.36C707.761,2607.88 706.459,2609.18 704.941,2609.18C703.439,2609.18 702.401,2607.86 702.401,2606.36C702.401,2604.88 703.46,2603.82 704.941,2603.82C706.442,2603.82 707.761,2604.86 707.761,2606.36Z"/>
    </g>
</svg>
