<?xml version="1.0" encoding="UTF-8" standalone="no"?>
<!DOCTYPE svg PUBLIC "-//W3C//DTD SVG 1.1//EN" "http://www.w3.org/Graphics/SVG/1.1/DTD/svg11.dtd">
<svg width="100%" height="100%" viewBox="0 0 70 70" version="1.1" xmlns="http://www.w3.org/2000/svg" xmlns:xlink="http://www.w3.org/1999/xlink" xml:space="preserve" xmlns:serif="http://www.serif.com/" style="fill-rule:evenodd;clip-rule:evenodd;stroke-linejoin:round;stroke-miterlimit:2;">
    <g transform="matrix(1,0,0,1,-198.219,-2658.93)">
        <path d="M204.845,2672.96C211.095,2664.41 221.213,2658.93 232.778,2658.93C252.072,2658.93 267.619,2674.19 267.619,2693.49C267.619,2712.78 252.07,2728.33 232.778,2728.33C213.485,2728.33 198.219,2712.78 198.219,2693.49C198.219,2686.37 200.299,2679.79 203.893,2674.33L199.67,2671.1C199.305,2670.82 199.235,2670.3 199.515,2669.93C199.794,2669.57 200.317,2669.5 200.683,2669.78L204.845,2672.96ZM201.541,2703.98C205.844,2717.18 218.081,2726.66 232.778,2726.66C251.147,2726.66 265.952,2711.86 265.952,2693.49C265.952,2675.12 251.145,2660.59 232.778,2660.59C214.413,2660.59 199.886,2675.12 199.886,2693.49C199.886,2696.49 200.274,2699.4 201.004,2702.16L207.732,2695.43C207.741,2695.42 207.751,2695.41 207.761,2695.41C207.821,2695.35 207.888,2695.3 207.959,2695.27L207.967,2695.26C208.09,2695.21 208.224,2695.18 208.357,2695.18L208.361,2695.18C208.494,2695.19 208.625,2695.23 208.744,2695.29L208.751,2695.3C208.819,2695.34 208.882,2695.39 208.938,2695.45C208.948,2695.46 208.956,2695.47 208.965,2695.48L233.587,2724.21L255.682,2695.57C255.711,2695.52 255.744,2695.48 255.781,2695.44C255.794,2695.43 255.807,2695.42 255.82,2695.41C256.145,2695.1 256.614,2695.07 256.88,2695.33L263.942,2702.39C264.215,2702.67 264.172,2703.15 263.846,2703.48C263.521,2703.8 263.036,2703.84 262.764,2703.57L256.467,2697.28L234.291,2726.02C234.271,2726.05 234.249,2726.08 234.226,2726.1L234.225,2726.1C234.168,2726.16 234.104,2726.21 234.035,2726.25C233.913,2726.32 233.779,2726.36 233.644,2726.36L233.642,2726.36C233.507,2726.36 233.371,2726.33 233.246,2726.27C233.175,2726.24 233.108,2726.19 233.048,2726.13L233.047,2726.13C233.023,2726.11 233,2726.08 232.979,2726.06L208.28,2697.24L201.541,2703.98ZM221.763,2667.36C221.785,2667.36 221.808,2667.36 221.83,2667.36L243.726,2667.36C243.749,2667.36 243.771,2667.36 243.794,2667.36C243.936,2667.37 244.07,2667.41 244.184,2667.49C244.299,2667.56 244.397,2667.66 244.467,2667.79C244.478,2667.8 244.488,2667.83 244.497,2667.85L252.923,2685.54C252.976,2685.65 253.004,2685.77 253.004,2685.9L253.004,2685.9C253.004,2686.02 252.978,2686.14 252.923,2686.26L244.497,2703.95C244.488,2703.97 244.478,2703.99 244.467,2704.01C244.397,2704.14 244.299,2704.24 244.184,2704.31C244.07,2704.38 243.937,2704.43 243.794,2704.44C243.771,2704.44 243.749,2704.44 243.726,2704.44L221.83,2704.44C221.808,2704.44 221.785,2704.44 221.763,2704.44C221.62,2704.43 221.487,2704.38 221.372,2704.31C221.258,2704.24 221.16,2704.14 221.09,2704.01C221.079,2703.99 221.069,2703.97 221.059,2703.95L212.634,2686.26C212.581,2686.14 212.553,2686.02 212.552,2685.9L212.552,2685.9C212.552,2685.78 212.578,2685.66 212.634,2685.54L221.059,2667.85C221.069,2667.83 221.079,2667.8 221.09,2667.79C221.16,2667.66 221.258,2667.56 221.372,2667.49C221.487,2667.41 221.62,2667.37 221.763,2667.36ZM243.213,2669.03L222.344,2669.03L214.309,2685.9L222.344,2702.77L243.213,2702.77L251.248,2685.9L243.213,2669.03ZM249.35,2685.9C249.35,2676.72 241.956,2669.61 232.778,2669.61C223.596,2669.61 216.487,2676.72 216.487,2685.9C216.487,2695.08 223.6,2702.47 232.778,2702.47C241.952,2702.47 249.35,2695.07 249.35,2685.9ZM247.684,2685.9C247.684,2694.15 241.03,2700.8 232.778,2700.8C224.531,2700.8 218.154,2694.15 218.154,2685.9C218.154,2677.66 224.535,2671.27 232.778,2671.27C241.025,2671.27 247.684,2677.65 247.684,2685.9ZM247.383,2685.9C247.383,2677.85 240.83,2671.58 232.778,2671.58C224.721,2671.58 218.455,2677.84 218.455,2685.9C218.455,2693.95 224.726,2700.5 232.778,2700.5C240.826,2700.5 247.383,2693.95 247.383,2685.9ZM245.716,2685.9C245.716,2693.03 239.907,2698.84 232.778,2698.84C225.654,2698.84 220.121,2693.02 220.121,2685.9C220.121,2678.78 225.659,2673.24 232.778,2673.24C239.903,2673.24 245.716,2678.77 245.716,2685.9ZM237.566,2685.86L234.322,2680.72C234.076,2680.33 234.193,2679.82 234.582,2679.57C234.971,2679.33 235.486,2679.44 235.731,2679.83L238.399,2684.06L241.067,2679.83C241.313,2679.44 241.828,2679.33 242.217,2679.57C242.606,2679.82 242.722,2680.33 242.476,2680.72L239.233,2685.86L239.233,2690.39C239.233,2690.86 238.859,2691.23 238.399,2691.23C237.939,2691.23 237.566,2690.86 237.566,2690.39L237.566,2685.86ZM228.404,2685.34L225.34,2680.74C225.085,2680.36 225.188,2679.84 225.571,2679.58C225.954,2679.33 226.471,2679.43 226.726,2679.82L229.406,2683.83L232.085,2679.82C232.34,2679.43 232.858,2679.33 233.241,2679.58C233.623,2679.84 233.727,2680.36 233.472,2680.74L230.407,2685.34L233.472,2689.93C233.727,2690.32 233.623,2690.83 233.241,2691.09C232.858,2691.34 232.34,2691.24 232.085,2690.86L229.406,2686.84L226.726,2690.86C226.471,2691.24 225.954,2691.34 225.571,2691.09C225.188,2690.83 225.085,2690.32 225.34,2689.93L228.404,2685.34Z"/>
    </g>
</svg>
