<?xml version="1.0" encoding="UTF-8" standalone="no"?>
<!DOCTYPE svg PUBLIC "-//W3C//DTD SVG 1.1//EN" "http://www.w3.org/Graphics/SVG/1.1/DTD/svg11.dtd">
<svg width="100%" height="100%" viewBox="0 0 70 70" version="1.1" xmlns="http://www.w3.org/2000/svg" xmlns:xlink="http://www.w3.org/1999/xlink" xml:space="preserve" xmlns:serif="http://www.serif.com/" style="fill-rule:evenodd;clip-rule:evenodd;stroke-linejoin:round;stroke-miterlimit:2;">
    <g transform="matrix(1,0,0,1,-683.872,-2658.93)">
        <path d="M690.498,2672.96C696.748,2664.41 706.865,2658.93 718.431,2658.93C737.725,2658.93 753.271,2674.19 753.271,2693.49C753.271,2712.78 737.723,2728.33 718.431,2728.33C699.137,2728.33 683.872,2712.78 683.872,2693.49C683.872,2686.37 685.951,2679.79 689.546,2674.33L685.323,2671.1C684.958,2670.82 684.888,2670.3 685.167,2669.93C685.447,2669.57 685.97,2669.5 686.336,2669.78L690.498,2672.96ZM751.605,2693.49C751.605,2711.86 736.8,2726.66 718.431,2726.66C700.064,2726.66 685.538,2711.85 685.538,2693.49C685.538,2675.12 700.066,2660.59 718.431,2660.59C736.798,2660.59 751.605,2675.12 751.605,2693.49ZM707.48,2678.59C707.48,2676.14 709.232,2674.39 711.686,2674.39C714.139,2674.39 715.892,2676.14 715.892,2678.59L715.892,2688.65C716.581,2688.16 717.45,2687.88 718.431,2687.88C719.864,2687.88 721.058,2688.47 721.804,2689.46C722.549,2688.47 723.743,2687.88 725.176,2687.88C727.075,2687.88 728.553,2688.93 729.125,2690.54C729.85,2689.92 730.814,2689.56 731.921,2689.56C734.375,2689.56 736.127,2691.31 736.127,2693.77L736.127,2708.93C736.128,2709 736.121,2709.07 736.106,2709.13L736.104,2709.14C736.089,2709.2 736.065,2709.27 736.035,2709.33L732.667,2716.06C732.461,2716.47 731.96,2716.64 731.549,2716.43C731.137,2716.23 730.97,2715.73 731.176,2715.32L734.461,2708.75L734.461,2693.77C734.461,2692.29 733.403,2691.23 731.921,2691.23C730.44,2691.23 729.382,2692.29 729.382,2693.77L729.382,2702.2C729.382,2702.66 729.009,2703.03 728.549,2703.03C728.089,2703.03 727.716,2702.66 727.716,2702.2L727.716,2692.08C727.716,2690.6 726.658,2689.54 725.176,2689.54C723.695,2689.54 722.637,2690.6 722.637,2692.08L722.637,2698.83C722.637,2699.29 722.264,2699.66 721.804,2699.66C721.344,2699.66 720.97,2699.29 720.97,2698.83L720.97,2692.08C720.97,2690.6 719.912,2689.54 718.431,2689.54C716.95,2689.54 715.892,2690.6 715.892,2692.08L715.892,2698.83C715.892,2699.29 715.518,2699.66 715.059,2699.66C714.599,2699.66 714.225,2699.29 714.225,2698.83L714.225,2678.59C714.225,2677.11 713.167,2676.05 711.686,2676.05C710.205,2676.05 709.147,2677.11 709.147,2678.59L709.147,2705.56C709.148,2705.62 709.142,2705.68 709.131,2705.73C709.104,2705.87 709.043,2706 708.958,2706.1C708.872,2706.2 708.762,2706.29 708.632,2706.34C708.558,2706.37 708.479,2706.39 708.395,2706.4C708.312,2706.41 708.23,2706.41 708.151,2706.39C708.014,2706.36 707.889,2706.3 707.785,2706.22C707.681,2706.13 707.597,2706.02 707.543,2705.89C707.521,2705.84 707.504,2705.78 707.493,2705.72L705.813,2697.32C705.806,2697.29 705.801,2697.26 705.798,2697.22C705.795,2697.19 705.793,2697.16 705.794,2697.13C705.788,2695.65 704.731,2694.6 703.254,2694.6C701.773,2694.6 700.715,2695.66 700.715,2697.14L700.715,2700.4L703.996,2711.88L708.903,2716.79C709.228,2717.11 709.228,2717.64 708.903,2717.97C708.577,2718.29 708.049,2718.29 707.724,2717.97L702.669,2712.91C702.619,2712.86 702.574,2712.8 702.537,2712.74L702.535,2712.74C702.498,2712.68 702.47,2712.61 702.452,2712.54L699.085,2700.76C699.072,2700.72 699.063,2700.67 699.056,2700.63C699.05,2700.58 699.048,2700.54 699.048,2700.5L699.048,2697.14C699.048,2694.69 700.801,2692.93 703.254,2692.93C705.679,2692.93 707.419,2694.65 707.46,2697.05L707.48,2697.16L707.48,2678.59ZM718.431,2677.74L721.804,2677.74C722.264,2677.74 722.637,2677.37 722.637,2676.91C722.637,2676.45 722.264,2676.07 721.804,2676.07L718.431,2676.07C717.971,2676.07 717.598,2676.45 717.598,2676.91C717.598,2677.37 717.971,2677.74 718.431,2677.74ZM704.941,2676.07L701.568,2676.07C701.108,2676.07 700.735,2676.45 700.735,2676.91C700.735,2677.37 701.108,2677.74 701.568,2677.74L704.941,2677.74C705.401,2677.74 705.774,2677.37 705.774,2676.91C705.774,2676.45 705.401,2676.07 704.941,2676.07ZM707.216,2672.94L705.53,2671.26C705.205,2670.93 704.677,2670.93 704.351,2671.26C704.026,2671.58 704.026,2672.11 704.351,2672.43L706.038,2674.12C706.363,2674.45 706.891,2674.45 707.216,2674.12C707.542,2673.8 707.542,2673.27 707.216,2672.94ZM717.334,2674.12L719.02,2672.43C719.346,2672.11 719.346,2671.58 719.02,2671.26C718.695,2670.93 718.167,2670.93 717.842,2671.26L716.155,2672.94C715.83,2673.27 715.83,2673.8 716.155,2674.12C716.481,2674.45 717.009,2674.45 717.334,2674.12ZM712.519,2671.85L712.519,2668.47C712.519,2668.01 712.146,2667.64 711.686,2667.64C711.226,2667.64 710.853,2668.01 710.853,2668.47L710.853,2671.85C710.853,2672.31 711.226,2672.68 711.686,2672.68C712.146,2672.68 712.519,2672.31 712.519,2671.85Z"/>
    </g>
</svg>
