<?xml version="1.0" encoding="UTF-8" standalone="no"?>
<!DOCTYPE svg PUBLIC "-//W3C//DTD SVG 1.1//EN" "http://www.w3.org/Graphics/SVG/1.1/DTD/svg11.dtd">
<svg width="100%" height="100%" viewBox="0 0 70 70" version="1.1" xmlns="http://www.w3.org/2000/svg" xmlns:xlink="http://www.w3.org/1999/xlink" xml:space="preserve" xmlns:serif="http://www.serif.com/" style="fill-rule:evenodd;clip-rule:evenodd;stroke-linejoin:round;stroke-miterlimit:2;">
    <g transform="matrix(1,0,0,1,-198.219,-2734.81)">
        <path d="M204.845,2748.85C211.095,2740.3 221.213,2734.81 232.778,2734.81C252.072,2734.81 267.619,2750.08 267.619,2769.37C267.619,2788.66 252.07,2804.21 232.778,2804.21C213.485,2804.21 198.219,2788.66 198.219,2769.37C198.219,2762.25 200.299,2755.68 203.893,2750.22L199.67,2746.99C199.305,2746.71 199.235,2746.18 199.515,2745.82C199.794,2745.45 200.317,2745.38 200.683,2745.66L204.845,2748.85ZM265.952,2769.37C265.952,2787.74 251.147,2802.54 232.778,2802.54C214.411,2802.54 199.886,2787.74 199.886,2769.37C199.886,2751.01 214.413,2736.48 232.778,2736.48C251.145,2736.48 265.952,2751 265.952,2769.37ZM220.121,2768.52L220.121,2778.36C220.121,2778.82 219.748,2779.2 219.288,2779.2C218.828,2779.2 218.455,2778.82 218.455,2778.36L218.455,2758.13C218.455,2757.67 218.828,2757.3 219.288,2757.3L228.844,2757.3C229.304,2757.3 229.677,2757.67 229.677,2758.13C229.677,2758.59 229.304,2758.96 228.844,2758.96L220.121,2758.96L220.121,2766.85L226.033,2766.85C226.493,2766.85 226.866,2767.22 226.866,2767.68C226.866,2768.14 226.493,2768.52 226.033,2768.52L220.121,2768.52ZM240.489,2768.25L234.052,2758.59C233.797,2758.21 233.901,2757.69 234.283,2757.43C234.666,2757.18 235.184,2757.28 235.439,2757.67L241.491,2766.74L247.543,2757.67C247.798,2757.28 248.316,2757.18 248.698,2757.43C249.081,2757.69 249.184,2758.21 248.929,2758.59L242.492,2768.25L248.929,2777.9C249.184,2778.28 249.081,2778.8 248.698,2779.06C248.316,2779.31 247.798,2779.21 247.543,2778.83L241.491,2769.75L235.439,2778.83C235.184,2779.21 234.666,2779.31 234.283,2779.06C233.901,2778.8 233.797,2778.28 234.052,2777.9L240.489,2768.25Z"/>
    </g>
</svg>
