<?xml version="1.0" encoding="UTF-8" standalone="no"?>
<!DOCTYPE svg PUBLIC "-//W3C//DTD SVG 1.1//EN" "http://www.w3.org/Graphics/SVG/1.1/DTD/svg11.dtd">
<svg width="100%" height="100%" viewBox="0 0 70 70" version="1.1" xmlns="http://www.w3.org/2000/svg" xmlns:xlink="http://www.w3.org/1999/xlink" xml:space="preserve" xmlns:serif="http://www.serif.com/" style="fill-rule:evenodd;clip-rule:evenodd;stroke-linejoin:round;stroke-miterlimit:2;">
    <g transform="matrix(1,0,0,1,-279.161,-2734.81)">
        <path d="M285.787,2748.85C292.037,2740.3 302.155,2734.81 313.72,2734.81C333.014,2734.81 348.561,2750.08 348.561,2769.37C348.561,2788.66 333.012,2804.21 313.72,2804.21C294.427,2804.21 279.161,2788.66 279.161,2769.37C279.161,2762.25 281.241,2755.68 284.836,2750.22L280.613,2746.99C280.247,2746.71 280.177,2746.18 280.457,2745.82C280.736,2745.45 281.26,2745.38 281.625,2745.66L285.787,2748.85ZM346.894,2769.37C346.894,2787.74 332.089,2802.54 313.72,2802.54C295.353,2802.54 280.828,2787.74 280.828,2769.37C280.828,2751.01 295.355,2736.48 313.72,2736.48C332.087,2736.48 346.894,2751 346.894,2769.37ZM322.998,2750.83L323.035,2750.83L323.066,2750.83L323.098,2750.84L323.134,2750.84L323.168,2750.85L323.198,2750.86L323.228,2750.86L323.252,2750.87L323.277,2750.88C323.596,2750.99 323.826,2751.3 323.828,2751.66L323.828,2751.66L323.828,2754.19L323.828,2754.23L323.826,2754.26L323.823,2754.29L323.818,2754.33L323.812,2754.36L323.806,2754.39L323.801,2754.41C323.707,2754.76 323.382,2755.03 322.996,2755.03L322.142,2755.03L322.142,2760.93C322.143,2760.99 322.136,2761.06 322.121,2761.13L322.119,2761.13C322.103,2761.2 322.08,2761.26 322.05,2761.32L320.375,2764.67C320.354,2764.71 320.329,2764.76 320.3,2764.8L320.298,2764.8C320.268,2764.84 320.236,2764.88 320.2,2764.91L318.621,2766.49L317.926,2767.88L317.926,2770.02L318.621,2771.41L320.2,2772.99C320.236,2773.02 320.268,2773.06 320.298,2773.1L320.3,2773.1C320.329,2773.14 320.354,2773.18 320.375,2773.23L322.05,2776.58C322.08,2776.64 322.103,2776.7 322.119,2776.76L322.121,2776.77C322.136,2776.84 322.143,2776.9 322.142,2776.97L322.142,2782.87L322.995,2782.87L323.029,2782.87L323.061,2782.87L323.092,2782.88L323.124,2782.88L323.16,2782.89L323.193,2782.89L323.223,2782.9L323.252,2782.91L323.281,2782.92L323.305,2782.93L323.329,2782.94C323.618,2783.07 323.822,2783.35 323.828,2783.69L323.828,2783.7L323.828,2786.23L323.828,2786.27L323.826,2786.3L323.823,2786.33L323.818,2786.36L323.813,2786.39L323.807,2786.42L323.798,2786.46L323.787,2786.49L323.775,2786.53L323.762,2786.56L323.75,2786.59L323.737,2786.61L323.722,2786.64L323.707,2786.66L323.7,2786.68C323.557,2786.9 323.31,2787.05 323.027,2787.07L322.995,2787.07L303.603,2787.07L303.568,2787.07L303.537,2787.06L303.505,2787.06L303.471,2787.06L303.44,2787.05L303.415,2787.05L303.41,2787.04C303.043,2786.96 302.769,2786.63 302.769,2786.23L302.769,2783.7L302.77,2783.67L302.772,2783.64L302.775,2783.61L302.78,2783.57L302.785,2783.54L302.791,2783.52L302.796,2783.49C302.888,2783.14 303.214,2782.87 303.602,2782.87L304.456,2782.87L304.456,2776.13C304.455,2776.06 304.462,2775.99 304.477,2775.93L304.479,2775.92C304.494,2775.86 304.518,2775.79 304.548,2775.73L306.223,2772.38C306.244,2772.34 306.269,2772.3 306.298,2772.26L306.3,2772.25C306.329,2772.21 306.362,2772.18 306.397,2772.14L307.977,2770.56L308.671,2769.17L308.671,2767.04L307.977,2765.65L306.397,2764.07C306.362,2764.03 306.329,2764 306.3,2763.96L306.298,2763.95C306.269,2763.91 306.244,2763.87 306.223,2763.83L304.548,2760.48C304.518,2760.42 304.494,2760.36 304.479,2760.29L304.477,2760.28C304.462,2760.22 304.455,2760.15 304.456,2760.09L304.456,2755.03L303.603,2755.03L303.568,2755.03L303.537,2755.02L303.505,2755.02L303.474,2755.02L303.438,2755.01L303.404,2755L303.37,2754.99L303.34,2754.99L303.311,2754.97L303.283,2754.96L303.26,2754.95L303.241,2754.95C302.968,2754.81 302.778,2754.54 302.77,2754.22L302.769,2754.19L302.769,2751.66L302.77,2751.63L302.772,2751.6L302.775,2751.57L302.779,2751.53L302.786,2751.5L302.793,2751.47L302.801,2751.44L302.81,2751.41L302.82,2751.38L302.829,2751.35L302.839,2751.33L302.841,2751.33C302.969,2751.04 303.254,2750.84 303.586,2750.83L303.603,2750.83L322.995,2750.83C322.995,2750.83 322.998,2750.83 322.998,2750.83ZM304.436,2784.54L304.436,2785.4L322.162,2785.4L322.162,2784.54L304.436,2784.54ZM313.203,2782.87L315.905,2782.87L320.475,2778.3L320.475,2777.16L319.956,2776.12L313.203,2782.87ZM318.262,2782.87L320.475,2782.87L320.475,2780.66L318.262,2782.87ZM316.901,2774.11C316.882,2774.13 316.861,2774.15 316.839,2774.18L308.144,2782.87L310.846,2782.87L318.595,2775.12L316.901,2774.11ZM306.122,2779.83L306.122,2782.53L315.294,2773.36L313.133,2772.82L306.122,2779.83ZM307.139,2774.4C307.118,2774.41 307.097,2774.41 307.075,2774.41L307.071,2774.41L306.122,2776.31L306.122,2777.48L309.709,2773.89L307.139,2774.4ZM317.358,2765.4L318.938,2763.82L320.475,2760.74L320.475,2755.03L306.122,2755.03L306.122,2759.9L307.66,2762.97L309.24,2764.55C309.275,2764.59 309.307,2764.63 309.337,2764.67L309.339,2764.67C309.368,2764.71 309.393,2764.75 309.414,2764.8L310.246,2766.46C310.276,2766.52 310.299,2766.58 310.315,2766.65L310.317,2766.65C310.332,2766.72 310.339,2766.78 310.338,2766.85L310.338,2769.36C310.339,2769.43 310.332,2769.49 310.317,2769.56L310.315,2769.57C310.299,2769.63 310.276,2769.69 310.246,2769.75L309.414,2771.41C309.393,2771.46 309.368,2771.5 309.339,2771.54L309.337,2771.55C309.307,2771.59 309.275,2771.62 309.24,2771.66L308.457,2772.44L310.918,2771.95L312.49,2771.16C312.528,2771.14 312.567,2771.13 312.607,2771.11C312.666,2771.09 312.726,2771.08 312.786,2771.07C312.882,2771.06 312.981,2771.07 313.079,2771.09L316.436,2771.93C316.48,2771.94 316.524,2771.95 316.567,2771.97L316.57,2771.97C316.613,2771.99 316.654,2772.01 316.693,2772.04L317.248,2772.37C317.223,2772.33 317.202,2772.3 317.184,2772.26L316.352,2770.6C316.322,2770.54 316.298,2770.47 316.283,2770.41L316.281,2770.4C316.266,2770.34 316.259,2770.27 316.26,2770.2L316.26,2767.69C316.259,2767.63 316.266,2767.56 316.281,2767.5L316.283,2767.49C316.298,2767.42 316.322,2767.36 316.352,2767.3L317.184,2765.64C317.205,2765.6 317.23,2765.55 317.259,2765.51L317.261,2765.51C317.29,2765.47 317.323,2765.43 317.358,2765.4ZM304.436,2752.5L304.436,2753.36L322.162,2753.36L322.162,2752.5L304.436,2752.5Z"/>
    </g>
</svg>
