<?xml version="1.0" encoding="UTF-8" standalone="no"?>
<!DOCTYPE svg PUBLIC "-//W3C//DTD SVG 1.1//EN" "http://www.w3.org/Graphics/SVG/1.1/DTD/svg11.dtd">
<svg width="100%" height="100%" viewBox="0 0 70 70" version="1.1" xmlns="http://www.w3.org/2000/svg" xmlns:xlink="http://www.w3.org/1999/xlink" xml:space="preserve" xmlns:serif="http://www.serif.com/" style="fill-rule:evenodd;clip-rule:evenodd;stroke-linejoin:round;stroke-miterlimit:2;">
    <g transform="matrix(1,0,0,1,-360.103,-2734.81)">
        <path d="M366.729,2748.85C372.98,2740.3 383.097,2734.81 394.663,2734.81C413.956,2734.81 429.503,2750.08 429.503,2769.37C429.503,2788.66 413.954,2804.21 394.663,2804.21C375.369,2804.21 360.103,2788.66 360.103,2769.37C360.103,2762.25 362.183,2755.68 365.778,2750.22L361.555,2746.99C361.189,2746.71 361.119,2746.18 361.399,2745.82C361.678,2745.45 362.202,2745.38 362.567,2745.66L366.729,2748.85ZM427.836,2769.37C427.836,2787.74 413.031,2802.54 394.663,2802.54C376.296,2802.54 361.77,2787.74 361.77,2769.37C361.77,2751.01 376.297,2736.48 394.663,2736.48C413.029,2736.48 427.836,2751 427.836,2769.37ZM414.186,2789.83C414.339,2789.69 414.539,2789.62 414.748,2789.62L415.591,2789.62C416.051,2789.62 416.424,2789.99 416.424,2790.45C416.424,2790.91 416.051,2791.28 415.591,2791.28L415.093,2791.28L414.589,2791.79L414.457,2792.05L414.457,2794.95C414.457,2795.41 414.084,2795.78 413.624,2795.78C413.164,2795.78 412.79,2795.41 412.79,2794.95L412.79,2790.45C412.79,2789.99 413.164,2789.62 413.624,2789.62C413.84,2789.62 414.037,2789.7 414.186,2789.83ZM390.718,2789.73C390.845,2789.66 390.99,2789.62 391.14,2789.62L391.983,2789.62C392.147,2789.62 392.308,2789.66 392.445,2789.76L393.057,2790.16L393.361,2789.86C393.517,2789.7 393.729,2789.62 393.95,2789.62L394.793,2789.62C394.958,2789.62 395.119,2789.66 395.255,2789.76L396.099,2790.32C396.219,2790.4 396.317,2790.51 396.382,2790.64L396.663,2791.2C396.721,2791.32 396.751,2791.44 396.751,2791.57L396.751,2794.95C396.751,2795.41 396.377,2795.78 395.917,2795.78C395.458,2795.78 395.084,2795.41 395.084,2794.95L395.084,2791.77L394.99,2791.58L394.541,2791.28L394.295,2791.28L394.073,2791.51L393.94,2791.77L393.94,2794.95C393.94,2795.41 393.567,2795.78 393.107,2795.78C392.647,2795.78 392.274,2795.41 392.274,2794.95L392.274,2791.77L392.18,2791.58L391.73,2791.28L391.485,2791.28L391.13,2791.64L391.13,2794.95C391.13,2795.41 390.756,2795.78 390.296,2795.78C389.837,2795.78 389.463,2795.41 389.463,2794.95L389.463,2790.45C389.463,2789.99 389.837,2789.62 390.296,2789.62C390.45,2789.62 390.594,2789.66 390.718,2789.73ZM399.842,2791.64L399.842,2794.95C399.842,2795.41 399.469,2795.78 399.009,2795.78C398.549,2795.78 398.176,2795.41 398.176,2794.95L398.176,2790.45C398.176,2789.99 398.549,2789.62 399.009,2789.62C399.163,2789.62 399.307,2789.66 399.431,2789.73C399.557,2789.66 399.703,2789.62 399.852,2789.62L400.976,2789.62C401.197,2789.62 401.409,2789.7 401.566,2789.86L401.869,2790.16L402.481,2789.76C402.618,2789.66 402.779,2789.62 402.944,2789.62L403.787,2789.62C404.008,2789.62 404.22,2789.7 404.376,2789.86L404.938,2790.42C405.001,2790.49 405.054,2790.56 405.094,2790.64L405.375,2791.2C405.433,2791.32 405.463,2791.44 405.463,2791.57L405.463,2794.95C405.463,2795.41 405.09,2795.78 404.63,2795.78C404.17,2795.78 403.797,2795.41 403.797,2794.95L403.797,2791.77L403.664,2791.51L403.442,2791.28L403.196,2791.28L402.747,2791.58L402.653,2791.77L402.653,2794.95C402.653,2795.41 402.279,2795.78 401.819,2795.78C401.36,2795.78 400.986,2795.41 400.986,2794.95L400.986,2791.77L400.854,2791.51L400.631,2791.28L400.197,2791.28L399.842,2791.64ZM386.477,2789.75L386.461,2789.74L386.335,2789.63L386.054,2789.35C385.728,2789.03 385.728,2788.5 386.054,2788.17L386.335,2787.89C386.41,2787.82 386.502,2787.75 386.605,2787.71C386.916,2787.58 387.275,2787.65 387.513,2787.89L387.794,2788.17C387.951,2788.33 388.038,2788.54 388.038,2788.76C388.038,2788.98 387.951,2789.2 387.794,2789.35L387.513,2789.63L387.386,2789.74L387.371,2789.75C387.603,2789.89 387.757,2790.15 387.757,2790.45L387.757,2794.95C387.757,2795.41 387.384,2795.78 386.924,2795.78C386.464,2795.78 386.091,2795.41 386.091,2794.95L386.091,2790.45C386.091,2790.15 386.245,2789.89 386.477,2789.75ZM381.855,2791.64L381.855,2794.95C381.855,2795.41 381.482,2795.78 381.022,2795.78C380.562,2795.78 380.189,2795.41 380.189,2794.95L380.189,2788.48C380.189,2788.02 380.562,2787.65 381.022,2787.65C381.482,2787.65 381.855,2788.02 381.855,2788.48L381.855,2789.62C381.858,2789.62 381.862,2789.62 381.865,2789.62L382.989,2789.62C383.21,2789.62 383.422,2789.7 383.578,2789.86L384.141,2790.42C384.204,2790.49 384.257,2790.56 384.297,2790.64L384.578,2791.2C384.636,2791.32 384.666,2791.44 384.666,2791.57L384.666,2794.95C384.666,2795.41 384.292,2795.78 383.832,2795.78C383.372,2795.78 382.999,2795.41 382.999,2794.95L382.999,2791.77L382.866,2791.51L382.644,2791.28L382.21,2791.28L381.855,2791.64ZM376.952,2793.53L376.244,2793.53C376.115,2793.53 375.987,2793.5 375.871,2793.44L375.309,2793.16C375.148,2793.08 375.017,2792.95 374.937,2792.79L374.656,2792.23C374.598,2792.11 374.568,2791.98 374.568,2791.85L374.568,2791.57C374.568,2791.44 374.598,2791.32 374.656,2791.2L374.937,2790.64C374.977,2790.56 375.029,2790.49 375.093,2790.42L375.655,2789.86C375.811,2789.7 376.023,2789.62 376.244,2789.62L377.087,2789.62C377.252,2789.62 377.413,2789.66 377.549,2789.76L378.393,2790.32C378.775,2790.57 378.879,2791.09 378.624,2791.47C378.369,2791.86 377.851,2791.96 377.468,2791.7L376.835,2791.28L376.589,2791.28L376.367,2791.51L376.262,2791.71L376.303,2791.8L376.441,2791.86L377.087,2791.86C377.177,2791.86 377.266,2791.88 377.351,2791.91L378.194,2792.19C378.443,2792.27 378.638,2792.47 378.721,2792.72L379.002,2793.56C379.03,2793.64 379.045,2793.73 379.045,2793.82L379.045,2794.1C379.045,2794.23 379.015,2794.36 378.957,2794.47L378.676,2795.04C378.577,2795.24 378.404,2795.39 378.194,2795.45L377.351,2795.74C377.266,2795.76 377.177,2795.78 377.087,2795.78L375.963,2795.78C375.834,2795.78 375.706,2795.75 375.59,2795.69L375.028,2795.41C374.617,2795.2 374.45,2794.7 374.656,2794.29C374.861,2793.88 375.362,2793.71 375.774,2793.92L376.16,2794.11L376.952,2794.11L377.339,2793.98L377.368,2793.93L377.272,2793.64L376.952,2793.53ZM406.607,2794.1L406.607,2791.57C406.607,2791.35 406.695,2791.14 406.851,2790.98L407.975,2789.86C408.132,2789.7 408.344,2789.62 408.565,2789.62L409.689,2789.62C409.853,2789.62 410.014,2789.66 410.151,2789.76L410.994,2790.32C411.115,2790.4 411.213,2790.51 411.277,2790.64L411.558,2791.2C411.616,2791.32 411.646,2791.44 411.646,2791.57L411.646,2792.14C411.646,2792.54 411.352,2792.89 410.95,2792.96L408.274,2793.4L408.274,2793.76L408.496,2793.98L408.761,2794.11L409.554,2794.11L410.268,2793.87C410.705,2793.73 411.177,2793.97 411.323,2794.4C411.468,2794.84 411.232,2795.31 410.796,2795.45L409.952,2795.74C409.867,2795.76 409.778,2795.78 409.689,2795.78L408.565,2795.78C408.435,2795.78 408.308,2795.75 408.192,2795.69L407.63,2795.41C407.55,2795.37 407.477,2795.32 407.413,2795.25L406.851,2794.69C406.695,2794.53 406.607,2794.32 406.607,2794.1ZM408.91,2791.28L408.519,2791.67L409.722,2791.47L409.437,2791.28L408.91,2791.28ZM387.168,2788.73L387.232,2788.7L387.232,2788.45L386.897,2788.45L387.168,2788.73ZM397.463,2778.64C397.463,2777.97 397.244,2777.43 396.891,2777.02C396.398,2776.45 395.61,2776.13 394.663,2776.13C393.832,2776.13 393.224,2776.38 392.809,2776.79C392.393,2777.21 392.143,2777.81 392.143,2778.64C392.143,2779.59 392.469,2780.38 393.038,2780.87C393.445,2781.23 393.983,2781.45 394.663,2781.45C396.263,2781.45 397.463,2780.24 397.463,2778.64ZM395.797,2778.64C395.797,2779.29 395.311,2779.78 394.663,2779.78C394.047,2779.78 393.81,2779.26 393.81,2778.64C393.81,2778.35 393.84,2778.12 393.987,2777.97C394.134,2777.82 394.368,2777.79 394.663,2777.79C395.278,2777.79 395.797,2778.03 395.797,2778.64ZM405.623,2768.54C406.083,2768.54 406.457,2768.91 406.457,2769.37C406.457,2769.83 406.083,2770.2 405.623,2770.2L383.702,2770.2C383.242,2770.2 382.868,2769.83 382.868,2769.37C382.868,2768.91 383.242,2768.54 383.702,2768.54L405.623,2768.54ZM397.463,2760.1C397.463,2759.42 397.244,2758.88 396.891,2758.47C396.398,2757.9 395.61,2757.58 394.663,2757.58C393.832,2757.58 393.224,2757.83 392.809,2758.24C392.393,2758.66 392.143,2759.26 392.143,2760.1C392.143,2761.04 392.469,2761.83 393.038,2762.32C393.445,2762.68 393.983,2762.9 394.663,2762.9C396.263,2762.9 397.463,2761.7 397.463,2760.1ZM395.797,2760.1C395.797,2760.74 395.311,2761.23 394.663,2761.23C394.047,2761.23 393.81,2760.71 393.81,2760.1C393.81,2759.8 393.84,2759.57 393.987,2759.42C394.134,2759.27 394.368,2759.24 394.663,2759.24C395.278,2759.24 395.797,2759.48 395.797,2760.1Z"/>
    </g>
</svg>
