<?xml version="1.0" encoding="UTF-8" standalone="no"?>
<!DOCTYPE svg PUBLIC "-//W3C//DTD SVG 1.1//EN" "http://www.w3.org/Graphics/SVG/1.1/DTD/svg11.dtd">
<svg width="100%" height="100%" viewBox="0 0 70 70" version="1.1" xmlns="http://www.w3.org/2000/svg" xmlns:xlink="http://www.w3.org/1999/xlink" xml:space="preserve" xmlns:serif="http://www.serif.com/" style="fill-rule:evenodd;clip-rule:evenodd;stroke-linejoin:round;stroke-miterlimit:2;">
    <g transform="matrix(1,0,0,1,-441.045,-2734.81)">
        <path d="M447.671,2748.85C453.922,2740.3 464.039,2734.81 475.605,2734.81C494.898,2734.81 510.445,2750.08 510.445,2769.37C510.445,2788.66 494.896,2804.21 475.605,2804.21C456.311,2804.21 441.045,2788.66 441.045,2769.37C441.045,2762.25 443.125,2755.68 446.72,2750.22L442.497,2746.99C442.131,2746.71 442.062,2746.18 442.341,2745.82C442.62,2745.45 443.144,2745.38 443.509,2745.66L447.671,2748.85ZM508.778,2769.37C508.778,2787.74 493.974,2802.54 475.605,2802.54C457.238,2802.54 442.712,2787.74 442.712,2769.37C442.712,2751.01 457.24,2736.48 475.605,2736.48C493.972,2736.48 508.778,2751 508.778,2769.37ZM459.855,2753.59C459.94,2753.51 460.045,2753.44 460.164,2753.4C460.259,2753.37 460.354,2753.36 460.448,2753.36L460.452,2753.36C460.546,2753.36 460.641,2753.38 460.733,2753.42C460.851,2753.46 460.952,2753.53 461.033,2753.62C461.114,2753.71 461.179,2753.81 461.219,2753.93L469.737,2779.49L479.037,2753.91C479.08,2753.79 479.147,2753.69 479.231,2753.6C479.315,2753.52 479.417,2753.45 479.536,2753.41C479.629,2753.38 479.724,2753.36 479.818,2753.36L479.822,2753.36C479.916,2753.36 480.012,2753.38 480.105,2753.41C480.223,2753.45 480.326,2753.52 480.41,2753.6C480.493,2753.69 480.56,2753.79 480.604,2753.91L490.721,2781.73C490.878,2782.16 490.655,2782.64 490.223,2782.8C489.791,2782.96 489.312,2782.73 489.155,2782.3L479.82,2756.63L470.486,2782.3C470.443,2782.42 470.374,2782.53 470.285,2782.61L470.284,2782.62C470.197,2782.7 470.089,2782.77 469.966,2782.81C469.875,2782.84 469.782,2782.85 469.691,2782.85C469.6,2782.85 469.508,2782.83 469.418,2782.8C469.296,2782.76 469.19,2782.69 469.105,2782.6C469.02,2782.51 468.953,2782.4 468.912,2782.28L460.363,2756.63L450.242,2782.32C450.074,2782.75 449.59,2782.96 449.162,2782.79C448.734,2782.62 448.523,2782.14 448.692,2781.71L459.653,2753.89C459.699,2753.77 459.769,2753.67 459.855,2753.59ZM498.895,2753.42C498.993,2753.38 499.1,2753.36 499.213,2753.36C499.325,2753.36 499.433,2753.38 499.531,2753.42L499.561,2753.44L499.593,2753.45L499.623,2753.47L499.654,2753.49L499.68,2753.5L499.706,2753.52L499.731,2753.54L499.755,2753.56L499.779,2753.58L499.802,2753.6L504.018,2757.82C504.343,2758.14 504.343,2758.67 504.018,2759C503.693,2759.32 503.164,2759.32 502.839,2759L500.046,2756.2L500.046,2779.16L502.839,2776.37C503.164,2776.04 503.693,2776.04 504.018,2776.37C504.343,2776.69 504.343,2777.22 504.018,2777.55L499.802,2781.76L499.777,2781.79L499.754,2781.81L499.73,2781.83L499.709,2781.84L499.693,2781.86C499.642,2781.89 499.589,2781.92 499.533,2781.94L499.531,2781.95C499.433,2781.99 499.325,2782.01 499.213,2782.01C499.1,2782.01 498.993,2781.99 498.895,2781.95L498.893,2781.94C498.795,2781.9 498.703,2781.84 498.624,2781.76L494.408,2777.55C494.083,2777.22 494.083,2776.69 494.408,2776.37C494.733,2776.04 495.261,2776.04 495.586,2776.37L498.379,2779.16L498.379,2756.2L495.586,2759C495.261,2759.32 494.733,2759.32 494.408,2759C494.083,2758.67 494.083,2758.14 494.408,2757.82L498.624,2753.6L498.648,2753.58L498.672,2753.56L498.696,2753.54L498.722,2753.52L498.747,2753.5L498.778,2753.48L498.809,2753.46L498.839,2753.45L498.871,2753.43L498.895,2753.42Z"/>
    </g>
</svg>
