<?xml version="1.0" encoding="UTF-8" standalone="no"?>
<!DOCTYPE svg PUBLIC "-//W3C//DTD SVG 1.1//EN" "http://www.w3.org/Graphics/SVG/1.1/DTD/svg11.dtd">
<svg width="100%" height="100%" viewBox="0 0 70 70" version="1.1" xmlns="http://www.w3.org/2000/svg" xmlns:xlink="http://www.w3.org/1999/xlink" xml:space="preserve" xmlns:serif="http://www.serif.com/" style="fill-rule:evenodd;clip-rule:evenodd;stroke-linejoin:round;stroke-miterlimit:2;">
    <g transform="matrix(1,0,0,1,-521.988,-2734.81)">
        <path d="M528.613,2748.85C534.864,2740.3 544.981,2734.81 556.547,2734.81C575.84,2734.81 591.387,2750.08 591.387,2769.37C591.387,2788.66 575.839,2804.21 556.547,2804.21C537.253,2804.21 521.988,2788.66 521.988,2769.37C521.988,2762.25 524.067,2755.68 527.662,2750.22L523.439,2746.99C523.074,2746.71 523.004,2746.18 523.283,2745.82C523.563,2745.45 524.086,2745.38 524.451,2745.66L528.613,2748.85ZM589.72,2769.37C589.72,2787.74 574.916,2802.54 556.547,2802.54C538.18,2802.54 523.654,2787.74 523.654,2769.37C523.654,2751.01 538.182,2736.48 556.547,2736.48C574.914,2736.48 589.72,2751 589.72,2769.37ZM568.351,2778.66C573.509,2778.66 577.635,2774.53 577.635,2769.37C577.635,2764.21 573.509,2760.09 568.351,2760.09C567.891,2760.09 567.518,2759.71 567.518,2759.25C567.518,2758.79 567.891,2758.42 568.351,2758.42C574.435,2758.42 579.302,2763.29 579.302,2769.37C579.302,2775.45 574.435,2780.32 568.351,2780.32L550.97,2780.32L552.92,2782.27C553.246,2782.6 553.246,2783.12 552.92,2783.45C552.595,2783.78 552.067,2783.78 551.742,2783.45L548.369,2780.08L548.345,2780.05L548.324,2780.03L548.304,2780L548.285,2779.98L548.267,2779.95L548.247,2779.92L548.229,2779.89L548.214,2779.86L548.198,2779.83L548.188,2779.81C548.148,2779.71 548.125,2779.6 548.125,2779.49C548.125,2779.38 548.148,2779.27 548.188,2779.17L548.201,2779.14L548.217,2779.11L548.234,2779.08L548.251,2779.05L548.268,2779.02L548.286,2778.99L548.305,2778.97L548.326,2778.95L548.347,2778.92L548.369,2778.9L551.742,2775.53C552.067,2775.2 552.595,2775.2 552.92,2775.53C553.246,2775.85 553.246,2776.38 552.92,2776.7L550.97,2778.66L568.351,2778.66ZM563.81,2758.42L561.86,2756.47C561.534,2756.14 561.534,2755.62 561.86,2755.29C562.185,2754.97 562.713,2754.97 563.038,2755.29L566.411,2758.66L566.434,2758.69L566.455,2758.71L566.476,2758.74L566.495,2758.76L566.513,2758.79L566.532,2758.82L566.551,2758.85L566.566,2758.88L566.582,2758.91L566.592,2758.93C566.632,2759.03 566.655,2759.14 566.655,2759.25C566.655,2759.37 566.632,2759.47 566.592,2759.57L566.577,2759.6L566.562,2759.64L566.547,2759.66L566.531,2759.69L566.515,2759.72L566.497,2759.74L566.478,2759.77L566.458,2759.79L566.437,2759.81L566.411,2759.84L563.038,2763.21C562.713,2763.54 562.185,2763.54 561.86,2763.21C561.534,2762.89 561.534,2762.36 561.86,2762.04L563.81,2760.09L546.429,2760.09C541.271,2760.09 537.145,2764.21 537.145,2769.37C537.145,2774.53 541.271,2778.66 546.429,2778.66C546.889,2778.66 547.262,2779.03 547.262,2779.49C547.262,2779.95 546.889,2780.32 546.429,2780.32C540.345,2780.32 535.478,2775.45 535.478,2769.37C535.478,2763.29 540.345,2758.42 546.429,2758.42L563.81,2758.42Z"/>
    </g>
</svg>
