<?xml version="1.0" encoding="UTF-8" standalone="no"?>
<!DOCTYPE svg PUBLIC "-//W3C//DTD SVG 1.1//EN" "http://www.w3.org/Graphics/SVG/1.1/DTD/svg11.dtd">
<svg width="100%" height="100%" viewBox="0 0 70 70" version="1.1" xmlns="http://www.w3.org/2000/svg" xmlns:xlink="http://www.w3.org/1999/xlink" xml:space="preserve" xmlns:serif="http://www.serif.com/" style="fill-rule:evenodd;clip-rule:evenodd;stroke-linejoin:round;stroke-miterlimit:2;">
    <g transform="matrix(1,0,0,1,-602.93,-2734.81)">
        <path d="M609.556,2748.85C615.806,2740.3 625.923,2734.81 637.489,2734.81C656.783,2734.81 672.329,2750.08 672.329,2769.37C672.329,2788.66 656.781,2804.21 637.489,2804.21C618.195,2804.21 602.93,2788.66 602.93,2769.37C602.93,2762.25 605.009,2755.68 608.604,2750.22L604.381,2746.99C604.016,2746.71 603.946,2746.18 604.225,2745.82C604.505,2745.45 605.028,2745.38 605.393,2745.66L609.556,2748.85ZM670.663,2769.37C670.663,2787.74 655.858,2802.54 637.489,2802.54C619.122,2802.54 604.596,2787.74 604.596,2769.37C604.596,2751.01 619.124,2736.48 637.489,2736.48C655.856,2736.48 670.663,2751 670.663,2769.37ZM631.597,2796.35L631.597,2789.61C631.597,2789.15 631.97,2788.77 632.43,2788.77C632.529,2788.77 632.623,2788.79 632.711,2788.82C632.801,2788.79 632.895,2788.77 632.992,2788.77L634.397,2788.77C634.618,2788.77 634.83,2788.86 634.987,2789.02L635.83,2789.86C635.893,2789.92 635.946,2790 635.986,2790.08L636.267,2790.64C636.325,2790.75 636.355,2790.88 636.355,2791.01L636.355,2792.98C636.355,2793.11 636.325,2793.24 636.267,2793.35L635.986,2793.91C635.946,2793.99 635.893,2794.07 635.83,2794.13L635.549,2794.41C635.485,2794.47 635.412,2794.53 635.332,2794.57L634.77,2794.85C634.654,2794.91 634.527,2794.94 634.397,2794.94L633.263,2794.94L633.263,2796.35C633.263,2796.81 632.89,2797.18 632.43,2797.18C631.97,2797.18 631.597,2796.81 631.597,2796.35ZM621.76,2794.1L621.76,2789.61C621.76,2789.15 622.133,2788.77 622.593,2788.77C622.81,2788.77 623.007,2788.86 623.155,2788.99C623.309,2788.85 623.509,2788.77 623.718,2788.77L624.561,2788.77C625.021,2788.77 625.394,2789.15 625.394,2789.61C625.394,2790.07 625.021,2790.44 624.561,2790.44L624.063,2790.44L623.559,2790.94L623.427,2791.21L623.427,2794.1C623.427,2794.56 623.053,2794.94 622.593,2794.94C622.133,2794.94 621.76,2794.56 621.76,2794.1ZM649.303,2788.77L649.303,2787.64C649.303,2787.18 649.676,2786.8 650.136,2786.8C650.596,2786.8 650.969,2787.18 650.969,2787.64L650.969,2788.77L651.541,2788.77C652.001,2788.77 652.375,2789.15 652.375,2789.61C652.375,2790.07 652.001,2790.44 651.541,2790.44L650.969,2790.44L650.969,2793.06L651.038,2793.2L651.176,2793.27L651.541,2793.27C652.001,2793.27 652.375,2793.64 652.375,2794.1C652.375,2794.56 652.001,2794.94 651.541,2794.94L650.979,2794.94C650.85,2794.94 650.722,2794.91 650.607,2794.85L650.045,2794.57C649.883,2794.49 649.753,2794.36 649.672,2794.19L649.391,2793.63C649.333,2793.52 649.303,2793.39 649.303,2793.26L649.303,2790.44L649.012,2790.44C648.552,2790.44 648.179,2790.07 648.179,2789.61C648.179,2789.15 648.552,2788.77 649.012,2788.77L649.303,2788.77ZM643.885,2791C643.64,2790.98 643.406,2790.85 643.26,2790.63C643.005,2790.25 643.108,2789.73 643.491,2789.47L644.334,2788.91C644.471,2788.82 644.632,2788.77 644.796,2788.77L645.92,2788.77C646.141,2788.77 646.353,2788.86 646.51,2789.02L647.634,2790.14C647.79,2790.3 647.878,2790.51 647.878,2790.73L647.878,2791.28C647.878,2791.29 647.878,2791.3 647.878,2791.31L647.878,2793.8C647.878,2793.82 647.878,2793.83 647.878,2793.84L647.878,2794.1C647.878,2794.56 647.505,2794.94 647.045,2794.94C646.899,2794.94 646.763,2794.9 646.644,2794.83L646.465,2794.89C646.38,2794.92 646.291,2794.94 646.201,2794.94L644.796,2794.94C644.707,2794.94 644.618,2794.92 644.533,2794.89L643.69,2794.61C643.48,2794.54 643.307,2794.39 643.208,2794.19L642.927,2793.63C642.869,2793.52 642.839,2793.39 642.839,2793.26L642.839,2792.7C642.839,2792.61 642.853,2792.52 642.881,2792.43L643.162,2791.59C643.245,2791.34 643.441,2791.15 643.69,2791.06L643.885,2791ZM640.103,2793.27L640.489,2793.08C640.9,2792.87 641.401,2793.04 641.607,2793.45C641.813,2793.86 641.646,2794.36 641.234,2794.57L640.672,2794.85C640.556,2794.91 640.429,2794.94 640.299,2794.94L638.894,2794.94C638.765,2794.94 638.637,2794.91 638.522,2794.85L637.959,2794.57C637.798,2794.49 637.667,2794.36 637.587,2794.19L637.306,2793.63C637.248,2793.52 637.218,2793.39 637.218,2793.26L637.218,2790.73C637.218,2790.6 637.248,2790.47 637.306,2790.36L637.587,2789.8C637.627,2789.72 637.68,2789.64 637.743,2789.58L638.305,2789.02C638.461,2788.86 638.673,2788.77 638.894,2788.77L640.299,2788.77C640.52,2788.77 640.732,2788.86 640.889,2789.02L641.451,2789.58C641.514,2789.64 641.567,2789.72 641.607,2789.8L641.888,2790.36C641.946,2790.47 641.976,2790.6 641.976,2790.73L641.976,2791.29C641.976,2791.7 641.688,2792.04 641.292,2792.11L638.884,2792.55L638.884,2793.06L638.953,2793.2L639.091,2793.27L640.103,2793.27ZM625.414,2793.26L625.414,2790.73C625.414,2790.51 625.501,2790.3 625.658,2790.14L626.782,2789.02C626.938,2788.86 627.15,2788.77 627.371,2788.77L628.495,2788.77C628.66,2788.77 628.821,2788.82 628.958,2788.91L629.801,2789.47C629.921,2789.55 630.019,2789.66 630.084,2789.8L630.365,2790.36C630.423,2790.47 630.453,2790.6 630.453,2790.73L630.453,2791.29C630.453,2791.7 630.158,2792.05 629.757,2792.11L627.08,2792.56L627.08,2792.91L627.303,2793.14L627.568,2793.27L628.36,2793.27L629.075,2793.03C629.511,2792.89 629.984,2793.12 630.129,2793.56C630.275,2793.99 630.038,2794.47 629.602,2794.61L628.759,2794.89C628.674,2794.92 628.585,2794.94 628.495,2794.94L627.371,2794.94C627.242,2794.94 627.114,2794.91 626.999,2794.85L626.436,2794.57C626.356,2794.53 626.283,2794.47 626.22,2794.41L625.658,2793.85C625.501,2793.69 625.414,2793.48 625.414,2793.26ZM633.263,2793.27L634.201,2793.27L634.466,2793.14L634.556,2793.05L634.688,2792.78L634.688,2791.21L634.556,2790.94L634.052,2790.44L633.337,2790.44L633.263,2790.51L633.263,2793.27ZM646.211,2792.41C646.208,2792.41 646.205,2792.41 646.201,2792.41L644.931,2792.41L644.612,2792.51L644.505,2792.83L644.505,2793.06L644.544,2793.14L644.931,2793.27L646.066,2793.27L646.211,2793.22L646.211,2792.41ZM639.239,2790.44L639.017,2790.66L638.923,2790.85L640.142,2790.63L639.954,2790.44L639.239,2790.44ZM627.716,2790.44L627.326,2790.83L628.528,2790.63L628.243,2790.44L627.716,2790.44ZM645.876,2790.74L645.575,2790.44L645.049,2790.44L644.534,2790.78C644.619,2790.75 644.707,2790.74 644.796,2790.74L645.876,2790.74ZM616.682,2750.32C616.809,2750.27 616.948,2750.26 617.09,2750.28C617.168,2750.29 617.246,2750.31 617.32,2750.34C617.38,2750.37 617.436,2750.41 617.486,2750.45L654.014,2778.26C654.379,2778.54 654.45,2779.07 654.172,2779.43C653.893,2779.8 653.37,2779.87 653.004,2779.59L617.514,2752.56L611.886,2779.1C611.79,2779.55 611.347,2779.84 610.897,2779.74C610.447,2779.65 610.16,2779.2 610.255,2778.75L616.155,2750.94C616.167,2750.88 616.187,2750.82 616.215,2750.76C616.249,2750.68 616.293,2750.61 616.345,2750.55C616.439,2750.45 616.556,2750.37 616.682,2750.32ZM659.374,2751.18C659.472,2751.13 659.579,2751.11 659.692,2751.11C659.804,2751.11 659.912,2751.13 660.01,2751.18L660.012,2751.18C660.072,2751.2 660.13,2751.23 660.185,2751.27L660.206,2751.29L660.231,2751.31L660.255,2751.33L660.281,2751.36L664.497,2755.57C664.822,2755.9 664.822,2756.43 664.497,2756.75C664.172,2757.08 663.644,2757.08 663.318,2756.75L660.525,2753.96L660.525,2776.91L663.318,2774.12C663.644,2773.8 664.172,2773.8 664.497,2774.12C664.822,2774.45 664.822,2774.97 664.497,2775.3L660.281,2779.51L660.256,2779.54L660.233,2779.56L660.208,2779.58L660.183,2779.6L660.157,2779.62L660.127,2779.64L660.095,2779.66L660.066,2779.67L660.033,2779.69L660.01,2779.7C659.912,2779.74 659.804,2779.76 659.692,2779.76C659.579,2779.76 659.472,2779.74 659.374,2779.7L659.341,2779.68L659.309,2779.67L659.277,2779.65L659.251,2779.63L659.225,2779.62L659.199,2779.6L659.174,2779.58L659.15,2779.56L659.126,2779.54L659.103,2779.51L654.887,2775.3C654.562,2774.97 654.562,2774.45 654.887,2774.12C655.212,2773.8 655.74,2773.8 656.065,2774.12L658.858,2776.91L658.858,2753.96L656.065,2756.75C655.74,2757.08 655.212,2757.08 654.887,2756.75C654.562,2756.43 654.562,2755.9 654.887,2755.57L659.103,2751.36L659.127,2751.33L659.151,2751.31L659.175,2751.29L659.2,2751.27L659.226,2751.25L659.257,2751.23L659.288,2751.22L659.32,2751.2L659.35,2751.18L659.374,2751.18Z"/>
    </g>
</svg>
