<?xml version="1.0" encoding="UTF-8" standalone="no"?>
<!DOCTYPE svg PUBLIC "-//W3C//DTD SVG 1.1//EN" "http://www.w3.org/Graphics/SVG/1.1/DTD/svg11.dtd">
<svg width="100%" height="100%" viewBox="0 0 70 70" version="1.1" xmlns="http://www.w3.org/2000/svg" xmlns:xlink="http://www.w3.org/1999/xlink" xml:space="preserve" xmlns:serif="http://www.serif.com/" style="fill-rule:evenodd;clip-rule:evenodd;stroke-linejoin:round;stroke-miterlimit:2;">
    <g transform="matrix(1,0,0,1,-279.161,-2506.88)">
        <path d="M285.77,2520.94C292.017,2512.38 302.143,2506.88 313.72,2506.88C333.014,2506.88 348.561,2522.15 348.561,2541.44C348.561,2560.73 333.012,2576.28 313.72,2576.28C294.427,2576.28 279.161,2560.73 279.161,2541.44C279.161,2534.33 281.235,2527.76 284.821,2522.31L280.638,2519.36C280.262,2519.09 280.173,2518.57 280.438,2518.19C280.703,2517.82 281.224,2517.73 281.599,2517.99L285.77,2520.94ZM346.894,2541.44C346.894,2559.81 332.089,2574.61 313.72,2574.61C295.353,2574.61 280.828,2559.81 280.828,2541.44C280.828,2523.07 295.355,2508.55 313.72,2508.55C332.087,2508.55 346.894,2523.07 346.894,2541.44Z"/>
    </g>
</svg>
