<?xml version="1.0" encoding="UTF-8" standalone="no"?>
<!DOCTYPE svg PUBLIC "-//W3C//DTD SVG 1.1//EN" "http://www.w3.org/Graphics/SVG/1.1/DTD/svg11.dtd">
<svg width="100%" height="100%" viewBox="0 0 70 70" version="1.1" xmlns="http://www.w3.org/2000/svg" xmlns:xlink="http://www.w3.org/1999/xlink" xml:space="preserve" xmlns:serif="http://www.serif.com/" style="fill-rule:evenodd;clip-rule:evenodd;stroke-linejoin:round;stroke-miterlimit:2;">
    <g transform="matrix(1,0,0,1,-683.872,-2734.81)">
        <path d="M690.498,2748.85C696.748,2740.3 706.865,2734.81 718.431,2734.81C737.725,2734.81 753.271,2750.08 753.271,2769.37C753.271,2788.66 737.723,2804.21 718.431,2804.21C699.137,2804.21 683.872,2788.66 683.872,2769.37C683.872,2762.25 685.951,2755.68 689.546,2750.22L685.323,2746.99C684.958,2746.71 684.888,2746.18 685.167,2745.82C685.447,2745.45 685.97,2745.38 686.336,2745.66L690.498,2748.85ZM751.605,2769.37C751.605,2787.74 736.8,2802.54 718.431,2802.54C700.064,2802.54 685.538,2787.74 685.538,2769.37C685.538,2751.01 700.066,2736.48 718.431,2736.48C736.798,2736.48 751.605,2751 751.605,2769.37ZM704.373,2752.01C704.498,2751.96 704.636,2751.94 704.775,2751.96L704.781,2751.96C704.858,2751.97 704.934,2752 705.007,2752.03C705.067,2752.06 705.122,2752.09 705.173,2752.13L741.701,2779.95C742.067,2780.23 742.138,2780.75 741.859,2781.12C741.58,2781.48 741.057,2781.55 740.691,2781.28L705.202,2754.25L699.573,2780.78C699.477,2781.24 699.035,2781.52 698.585,2781.43C698.135,2781.33 697.847,2780.89 697.942,2780.44L703.842,2752.63C703.855,2752.56 703.875,2752.5 703.902,2752.44C703.935,2752.37 703.978,2752.3 704.03,2752.24L704.033,2752.24C704.126,2752.13 704.241,2752.05 704.366,2752.01L704.373,2752.01Z"/>
    </g>
</svg>
