<?xml version="1.0" encoding="UTF-8" standalone="no"?>
<!DOCTYPE svg PUBLIC "-//W3C//DTD SVG 1.1//EN" "http://www.w3.org/Graphics/SVG/1.1/DTD/svg11.dtd">
<svg width="100%" height="100%" viewBox="0 0 70 70" version="1.1" xmlns="http://www.w3.org/2000/svg" xmlns:xlink="http://www.w3.org/1999/xlink" xml:space="preserve" xmlns:serif="http://www.serif.com/" style="fill-rule:evenodd;clip-rule:evenodd;stroke-linejoin:round;stroke-miterlimit:2;">
    <g transform="matrix(1,0,0,1,-198.219,-2810.69)">
        <path d="M204.845,2824.73C211.095,2816.18 221.213,2810.69 232.778,2810.69C252.072,2810.69 267.619,2825.96 267.619,2845.25C267.619,2864.55 252.07,2880.09 232.778,2880.09C213.485,2880.09 198.219,2864.55 198.219,2845.25C198.219,2838.13 200.299,2831.56 203.893,2826.1L199.67,2822.87C199.305,2822.59 199.235,2822.07 199.515,2821.7C199.794,2821.34 200.317,2821.27 200.683,2821.55L204.845,2824.73ZM265.952,2845.25C265.952,2863.62 251.147,2878.43 232.778,2878.43C214.411,2878.43 199.886,2863.62 199.886,2845.25C199.886,2826.89 214.413,2812.36 232.778,2812.36C251.145,2812.36 265.952,2826.89 265.952,2845.25ZM220.261,2869.24L220.385,2869.12C220.541,2868.96 220.753,2868.87 220.974,2868.87L221.536,2868.87C221.996,2868.87 222.37,2869.24 222.37,2869.7C222.37,2870.16 221.996,2870.54 221.536,2870.54L221.319,2870.54L221.001,2870.86C220.938,2870.92 220.865,2870.97 220.785,2871.01L220.471,2871.17L220.402,2871.31L220.402,2874.2C220.402,2874.66 220.029,2875.03 219.569,2875.03C219.109,2875.03 218.736,2874.66 218.736,2874.2L218.736,2869.7C218.736,2869.24 219.109,2868.87 219.569,2868.87C219.857,2868.87 220.111,2869.02 220.261,2869.24ZM228.853,2868.87L228.853,2867.74C228.853,2867.28 229.227,2866.9 229.687,2866.9C230.147,2866.9 230.52,2867.28 230.52,2867.74L230.52,2868.87L231.373,2868.87C231.833,2868.87 232.206,2869.24 232.206,2869.7C232.206,2870.16 231.833,2870.54 231.373,2870.54L230.52,2870.54L230.52,2873.16L230.559,2873.24L230.946,2873.37L231.373,2873.37C231.833,2873.37 232.206,2873.74 232.206,2874.2C232.206,2874.66 231.833,2875.03 231.373,2875.03L230.811,2875.03C230.721,2875.03 230.632,2875.02 230.547,2874.99L229.704,2874.71C229.495,2874.64 229.321,2874.49 229.222,2874.29L228.941,2873.73C228.884,2873.62 228.853,2873.49 228.853,2873.36L228.853,2870.54L228.844,2870.54C228.384,2870.54 228.01,2870.16 228.01,2869.7C228.01,2869.24 228.384,2868.87 228.844,2868.87L228.853,2868.87ZM238.69,2868.87L238.69,2867.74C238.69,2867.28 239.064,2866.9 239.523,2866.9C239.983,2866.9 240.357,2867.28 240.357,2867.74L240.357,2868.87L241.21,2868.87C241.67,2868.87 242.043,2869.24 242.043,2869.7C242.043,2870.16 241.67,2870.54 241.21,2870.54L240.357,2870.54L240.357,2873.16L240.395,2873.24L240.783,2873.37L241.21,2873.37C241.67,2873.37 242.043,2873.74 242.043,2874.2C242.043,2874.66 241.67,2875.03 241.21,2875.03L240.648,2875.03C240.558,2875.03 240.469,2875.02 240.384,2874.99L239.541,2874.71C239.331,2874.64 239.158,2874.49 239.059,2874.29L238.778,2873.73C238.72,2873.62 238.69,2873.49 238.69,2873.36L238.69,2870.54L238.68,2870.54C238.22,2870.54 237.847,2870.16 237.847,2869.7C237.847,2869.24 238.22,2868.87 238.68,2868.87L238.69,2868.87ZM233.486,2871.09C233.32,2871.06 233.16,2870.98 233.032,2870.86C232.707,2870.53 232.707,2870 233.032,2869.68L233.594,2869.12C233.751,2868.96 233.963,2868.87 234.184,2868.87L235.589,2868.87C235.81,2868.87 236.022,2868.96 236.178,2869.12L236.74,2869.68C236.803,2869.74 236.856,2869.81 236.896,2869.89L237.177,2870.46C237.235,2870.57 237.265,2870.7 237.265,2870.83L237.265,2874.2C237.265,2874.66 236.892,2875.03 236.432,2875.03C236.333,2875.03 236.239,2875.02 236.151,2874.99C236.061,2875.02 235.966,2875.03 235.87,2875.03L234.184,2875.03C234.054,2875.03 233.927,2875.01 233.811,2874.95L233.249,2874.67C233.087,2874.59 232.957,2874.45 232.876,2874.29L232.595,2873.73C232.537,2873.62 232.507,2873.49 232.507,2873.36L232.507,2872.8C232.507,2872.71 232.521,2872.62 232.55,2872.53L232.831,2871.69C232.901,2871.48 233.051,2871.31 233.249,2871.21L233.486,2871.09ZM224.267,2874.95L223.693,2874.67C223.613,2874.63 223.54,2874.57 223.477,2874.51L223.195,2874.23C223.132,2874.16 223.079,2874.09 223.039,2874.01L222.758,2873.45C222.7,2873.33 222.67,2873.21 222.67,2873.08L222.67,2871.11C222.67,2870.98 222.7,2870.85 222.758,2870.74L223.039,2870.18C223.079,2870.1 223.132,2870.02 223.195,2869.96L224.039,2869.12C224.195,2868.96 224.407,2868.87 224.628,2868.87L225.752,2868.87C225.973,2868.87 226.185,2868.96 226.341,2869.12L227.184,2869.96C227.248,2870.02 227.301,2870.1 227.341,2870.18L227.622,2870.74C227.679,2870.85 227.71,2870.98 227.71,2871.11L227.71,2873.08C227.71,2873.21 227.679,2873.33 227.622,2873.45L227.341,2874.01C227.301,2874.09 227.248,2874.16 227.184,2874.23L226.903,2874.51C226.84,2874.57 226.767,2874.63 226.687,2874.67L226.125,2874.95C226.009,2875.01 225.881,2875.03 225.752,2875.03L224.575,2875.03L224.42,2875.01L224.267,2874.95ZM245.009,2873.37L245.724,2873.13C246.16,2872.98 246.633,2873.22 246.778,2873.66C246.924,2874.09 246.687,2874.57 246.251,2874.71L245.408,2874.99C245.323,2875.02 245.234,2875.03 245.144,2875.03L244.02,2875.03C243.891,2875.03 243.763,2875.01 243.648,2874.95L243.085,2874.67C242.924,2874.59 242.793,2874.45 242.713,2874.29L242.432,2873.73C242.374,2873.62 242.344,2873.49 242.344,2873.36L242.344,2870.83C242.344,2870.7 242.374,2870.57 242.432,2870.46L242.713,2869.89C242.753,2869.81 242.806,2869.74 242.869,2869.68L243.431,2869.12C243.587,2868.96 243.799,2868.87 244.02,2868.87L245.144,2868.87C245.309,2868.87 245.47,2868.92 245.607,2869.01L246.45,2869.57C246.571,2869.65 246.668,2869.76 246.733,2869.89L247.014,2870.46C247.072,2870.57 247.102,2870.7 247.102,2870.83L247.102,2871.39C247.102,2871.79 246.814,2872.14 246.418,2872.21L244.01,2872.65L244.01,2873.16L244.079,2873.3L244.217,2873.37L245.009,2873.37ZM224.973,2870.54L224.47,2871.04L224.337,2871.31L224.337,2872.88L224.47,2873.15L224.559,2873.24L224.825,2873.37L225.555,2873.37L225.821,2873.24L225.91,2873.15L226.043,2872.88L226.043,2871.31L225.91,2871.04L225.407,2870.54L224.973,2870.54ZM235.599,2872.51L234.38,2872.51L234.303,2872.54L234.174,2872.93L234.174,2873.16L234.243,2873.3L234.38,2873.37L235.599,2873.37L235.599,2872.51ZM244.365,2870.54L244.143,2870.76L244.05,2870.95L245.194,2870.74L244.892,2870.54L244.365,2870.54ZM235.505,2870.84L235.466,2870.76L235.244,2870.54L234.529,2870.54L234.228,2870.84L235.505,2870.84ZM225.42,2843.05C223.249,2841.88 221.827,2839.51 221.827,2836.82C221.827,2832.97 224.714,2830.09 228.563,2830.09C232.4,2830.09 235.579,2832.98 235.579,2836.82C235.579,2839.51 234.009,2841.88 231.75,2843.05C234.927,2844.29 237.265,2847.32 237.265,2850.87C237.265,2855.54 233.225,2859.58 228.563,2859.58C223.892,2859.58 220.141,2855.54 220.141,2850.87C220.141,2847.31 222.315,2844.29 225.42,2843.05ZM235.599,2850.87C235.599,2854.64 232.332,2857.91 228.563,2857.91C224.801,2857.91 221.808,2854.64 221.808,2850.87C221.808,2847.12 224.81,2844.12 228.563,2844.12C232.324,2844.12 235.599,2847.11 235.599,2850.87ZM240.719,2848.03L241.554,2845.8C241.715,2845.37 242.196,2845.16 242.627,2845.32C243.057,2845.48 243.276,2845.96 243.114,2846.39L241.428,2850.89C241.303,2851.22 240.98,2851.44 240.624,2851.43C240.269,2851.42 239.958,2851.18 239.852,2850.84L238.447,2846.35C238.31,2845.91 238.555,2845.44 238.994,2845.3C239.433,2845.16 239.901,2845.41 240.038,2845.85L240.719,2848.03ZM244.728,2847.48C244.562,2847.45 244.402,2847.38 244.274,2847.25C243.949,2846.92 243.949,2846.39 244.274,2846.07L244.836,2845.51C244.993,2845.35 245.204,2845.26 245.425,2845.26L246.831,2845.26C247.052,2845.26 247.264,2845.35 247.42,2845.51L247.982,2846.07C248.045,2846.13 248.098,2846.21 248.138,2846.29L248.419,2846.85C248.477,2846.96 248.507,2847.09 248.507,2847.22L248.507,2850.59C248.507,2851.05 248.134,2851.43 247.674,2851.43C247.575,2851.43 247.48,2851.41 247.393,2851.38C247.303,2851.41 247.208,2851.43 247.112,2851.43L245.425,2851.43C245.296,2851.43 245.169,2851.4 245.053,2851.34L244.491,2851.06C244.329,2850.98 244.199,2850.85 244.118,2850.68L243.837,2850.12C243.779,2850.01 243.749,2849.88 243.749,2849.75L243.749,2849.19C243.749,2849.1 243.763,2849.01 243.792,2848.93L244.073,2848.08C244.143,2847.87 244.293,2847.7 244.491,2847.6L244.728,2847.48ZM246.841,2848.9L245.622,2848.9L245.545,2848.94L245.416,2849.32L245.416,2849.55L245.485,2849.69L245.622,2849.76L246.841,2849.76L246.841,2848.9ZM246.747,2847.23L246.708,2847.15L246.486,2846.93L245.771,2846.93L245.47,2847.23L246.747,2847.23ZM233.912,2836.82C233.912,2839.74 231.481,2842.17 228.563,2842.17C225.655,2842.17 223.494,2839.73 223.494,2836.82C223.494,2833.93 225.666,2831.75 228.563,2831.75C231.47,2831.75 233.912,2833.91 233.912,2836.82Z"/>
    </g>
</svg>
