<?xml version="1.0" encoding="UTF-8" standalone="no"?>
<!DOCTYPE svg PUBLIC "-//W3C//DTD SVG 1.1//EN" "http://www.w3.org/Graphics/SVG/1.1/DTD/svg11.dtd">
<svg width="100%" height="100%" viewBox="0 0 70 70" version="1.1" xmlns="http://www.w3.org/2000/svg" xmlns:xlink="http://www.w3.org/1999/xlink" xml:space="preserve" xmlns:serif="http://www.serif.com/" style="fill-rule:evenodd;clip-rule:evenodd;stroke-linejoin:round;stroke-miterlimit:2;">
    <g transform="matrix(1,0,0,1,-279.161,-2810.69)">
        <path d="M285.787,2824.73C292.037,2816.18 302.155,2810.69 313.72,2810.69C333.014,2810.69 348.561,2825.96 348.561,2845.25C348.561,2864.55 333.012,2880.09 313.72,2880.09C294.427,2880.09 279.161,2864.55 279.161,2845.25C279.161,2838.13 281.241,2831.56 284.836,2826.1L280.613,2822.87C280.247,2822.59 280.177,2822.07 280.457,2821.7C280.736,2821.34 281.26,2821.27 281.625,2821.55L285.787,2824.73ZM346.894,2845.25C346.894,2863.62 332.089,2878.43 313.72,2878.43C295.353,2878.43 280.828,2863.62 280.828,2845.25C280.828,2826.89 295.355,2812.36 313.72,2812.36C332.087,2812.36 346.894,2826.89 346.894,2845.25ZM320.244,2873.3L320.557,2873.46C320.969,2873.66 321.136,2874.16 320.93,2874.57C320.724,2874.99 320.223,2875.15 319.812,2874.95L319.25,2874.67C319.088,2874.59 318.958,2874.45 318.877,2874.29L318.596,2873.73C318.538,2873.62 318.508,2873.49 318.508,2873.36L318.508,2867.74C318.508,2867.28 318.881,2866.9 319.341,2866.9C319.801,2866.9 320.175,2867.28 320.175,2867.74L320.175,2873.16L320.244,2873.3ZM313.091,2871.1C312.846,2871.08 312.612,2870.95 312.465,2870.73C312.21,2870.35 312.313,2869.83 312.696,2869.57L313.539,2869.01C313.676,2868.92 313.837,2868.87 314.001,2868.87L315.126,2868.87C315.347,2868.87 315.559,2868.96 315.715,2869.12L316.277,2869.68C316.34,2869.74 316.393,2869.81 316.433,2869.89L316.714,2870.46C316.772,2870.57 316.802,2870.7 316.802,2870.83L316.802,2874.2C316.802,2874.66 316.429,2875.03 315.969,2875.03C315.87,2875.03 315.775,2875.02 315.688,2874.99C315.598,2875.02 315.503,2875.03 315.407,2875.03L314.001,2875.03C313.912,2875.03 313.823,2875.02 313.738,2874.99L312.895,2874.71C312.685,2874.64 312.512,2874.49 312.413,2874.29L312.132,2873.73C312.074,2873.62 312.044,2873.49 312.044,2873.36L312.044,2872.8C312.044,2872.71 312.058,2872.62 312.087,2872.53L312.368,2871.69C312.451,2871.44 312.646,2871.24 312.895,2871.16L313.091,2871.1ZM303.687,2872.79L302.76,2872.79C302.63,2872.79 302.503,2872.76 302.387,2872.7L301.825,2872.42C301.663,2872.34 301.533,2872.21 301.452,2872.05L301.171,2871.48C301.113,2871.37 301.083,2871.24 301.083,2871.11L301.083,2870.83C301.083,2870.7 301.113,2870.57 301.171,2870.46L301.452,2869.89C301.492,2869.81 301.545,2869.74 301.608,2869.68L302.17,2869.12C302.327,2868.96 302.538,2868.87 302.76,2868.87L303.884,2868.87C304.105,2868.87 304.317,2868.96 304.473,2869.12L305.035,2869.68C305.36,2870 305.36,2870.53 305.035,2870.86C304.71,2871.18 304.182,2871.18 303.857,2870.86L303.539,2870.54L303.105,2870.54L302.882,2870.76L302.778,2870.97L302.819,2871.05L302.956,2871.12L303.884,2871.12C304.013,2871.12 304.141,2871.15 304.256,2871.21L304.818,2871.49C305.016,2871.59 305.166,2871.76 305.236,2871.97L305.517,2872.81C305.546,2872.9 305.56,2872.99 305.56,2873.08L305.56,2873.36C305.56,2873.49 305.53,2873.62 305.472,2873.73L305.191,2874.29C305.111,2874.45 304.98,2874.59 304.818,2874.67L304.256,2874.95C304.141,2875.01 304.013,2875.03 303.884,2875.03L302.478,2875.03C302.349,2875.03 302.221,2875.01 302.106,2874.95L301.544,2874.67C301.132,2874.46 300.965,2873.96 301.171,2873.55C301.377,2873.14 301.878,2872.97 302.289,2873.18L302.675,2873.37L303.687,2873.37L303.825,2873.3L303.883,2873.18L303.764,2872.83L303.687,2872.79ZM324.485,2873.37L324.871,2873.18C325.282,2872.97 325.783,2873.14 325.989,2873.55C326.194,2873.96 326.027,2874.46 325.616,2874.67L325.054,2874.95C324.938,2875.01 324.811,2875.03 324.681,2875.03L323.276,2875.03C323.147,2875.03 323.019,2875.01 322.903,2874.95L322.341,2874.67C322.18,2874.59 322.049,2874.45 321.969,2874.29L321.688,2873.73C321.63,2873.62 321.6,2873.49 321.6,2873.36L321.6,2870.83C321.6,2870.7 321.63,2870.57 321.688,2870.46L321.969,2869.89C322.009,2869.81 322.061,2869.74 322.125,2869.68L322.687,2869.12C322.843,2868.96 323.055,2868.87 323.276,2868.87L324.681,2868.87C324.902,2868.87 325.114,2868.96 325.271,2869.12L325.833,2869.68C325.896,2869.74 325.949,2869.81 325.989,2869.89L326.27,2870.46C326.328,2870.57 326.358,2870.7 326.358,2870.83L326.358,2871.39C326.358,2871.79 326.07,2872.14 325.674,2872.21L323.266,2872.65L323.266,2873.16L323.335,2873.3L323.473,2873.37L324.485,2873.37ZM309.589,2873.37L309.975,2873.18C310.387,2872.97 310.887,2873.14 311.093,2873.55C311.299,2873.96 311.132,2874.46 310.72,2874.67L310.158,2874.95C310.043,2875.01 309.915,2875.03 309.786,2875.03L308.38,2875.03C308.251,2875.03 308.123,2875.01 308.008,2874.95L307.446,2874.67C307.366,2874.63 307.292,2874.57 307.229,2874.51L306.948,2874.23C306.885,2874.16 306.832,2874.09 306.792,2874.01L306.511,2873.45C306.453,2873.33 306.423,2873.21 306.423,2873.08L306.423,2871.11C306.423,2870.98 306.453,2870.85 306.511,2870.74L306.792,2870.18C306.832,2870.1 306.885,2870.02 306.948,2869.96L307.791,2869.12C307.947,2868.96 308.159,2868.87 308.38,2868.87L309.786,2868.87C310.007,2868.87 310.219,2868.96 310.375,2869.12L310.937,2869.68C311.262,2870 311.262,2870.53 310.937,2870.86C310.612,2871.18 310.084,2871.18 309.759,2870.86L309.441,2870.54L308.726,2870.54L308.222,2871.04L308.09,2871.31L308.09,2872.88L308.222,2873.15L308.312,2873.24L308.577,2873.37L309.589,2873.37ZM315.135,2872.51L314.137,2872.51L313.817,2872.61L313.711,2872.93L313.711,2873.16L313.749,2873.24L314.137,2873.37L315.135,2873.37L315.135,2872.51ZM323.621,2870.54L323.399,2870.76L323.305,2870.95L324.524,2870.73L324.336,2870.54L323.621,2870.54ZM315.042,2870.84L315.003,2870.76L314.78,2870.54L314.254,2870.54L313.739,2870.88C313.824,2870.85 313.912,2870.84 314.001,2870.84L315.042,2870.84ZM292.642,2830.93L334.799,2830.93L334.834,2830.93L334.871,2830.93L334.902,2830.94L334.938,2830.94L334.972,2830.95L335.002,2830.95L335.027,2830.96L335.052,2830.97L335.076,2830.98C335.081,2830.98 335.086,2830.98 335.09,2830.98C335.405,2831.1 335.63,2831.4 335.632,2831.76L335.632,2831.76L335.632,2857.9L335.632,2857.93L335.63,2857.97L335.627,2858L335.622,2858.03L335.617,2858.06L335.611,2858.09L335.609,2858.1C335.52,2858.46 335.191,2858.73 334.799,2858.73L292.642,2858.73L292.608,2858.73L292.576,2858.73L292.545,2858.73L292.513,2858.72L292.479,2858.72L292.449,2858.71L292.419,2858.7L292.394,2858.7L292.375,2858.69C292.046,2858.58 291.809,2858.27 291.808,2857.9L291.808,2857.9L291.808,2831.76L291.809,2831.73L291.811,2831.7L291.812,2831.68C291.852,2831.26 292.209,2830.93 292.642,2830.93ZM301.926,2832.6L293.475,2832.6L293.475,2857.07L305.299,2857.07L305.299,2847.78C305.299,2847.78 305.299,2847.78 305.299,2847.77L302.76,2847.77L302.725,2847.77L302.694,2847.77L302.662,2847.77L302.631,2847.76L302.595,2847.76L302.559,2847.75L302.527,2847.74L302.497,2847.73L302.468,2847.72L302.44,2847.71L302.412,2847.7L302.389,2847.69L302.367,2847.68L302.358,2847.67C302.11,2847.53 301.938,2847.27 301.927,2846.97L301.926,2846.94L301.926,2832.6ZM317.103,2832.6L310.338,2832.6L310.338,2846.94L310.337,2846.97L310.335,2847.01L310.332,2847.04L310.327,2847.08L310.321,2847.11L310.315,2847.13L310.313,2847.14C310.222,2847.51 309.895,2847.77 309.505,2847.77C309.505,2847.77 306.965,2847.77 306.965,2847.77C306.965,2847.78 306.965,2847.78 306.965,2847.78L306.965,2857.07L320.475,2857.07L320.475,2847.78C320.475,2847.78 320.475,2847.78 320.475,2847.77L317.936,2847.77L317.902,2847.77L317.87,2847.77L317.839,2847.77L317.808,2847.76L317.771,2847.76L317.736,2847.75L317.703,2847.74L317.674,2847.73L317.645,2847.72L317.617,2847.71L317.589,2847.7L317.566,2847.69L317.544,2847.68L317.521,2847.66L317.517,2847.66C317.28,2847.52 317.117,2847.27 317.104,2846.98L317.103,2846.95L317.103,2846.94L317.103,2832.6ZM322.142,2857.07L333.966,2857.07L333.966,2832.6L325.515,2832.6L325.515,2846.94L325.514,2846.97L325.512,2847.01L325.508,2847.04L325.503,2847.08L325.498,2847.11L325.492,2847.13L325.49,2847.14C325.399,2847.51 325.071,2847.77 324.681,2847.77L322.142,2847.77C322.142,2847.78 322.142,2847.78 322.142,2847.78L322.142,2857.07ZM303.593,2832.6L303.593,2846.11L308.671,2846.11L308.671,2832.6L303.593,2832.6ZM318.769,2832.6L318.769,2846.11L323.848,2846.11L323.848,2832.6L318.769,2832.6Z"/>
    </g>
</svg>
