<?xml version="1.0" encoding="UTF-8" standalone="no"?>
<!DOCTYPE svg PUBLIC "-//W3C//DTD SVG 1.1//EN" "http://www.w3.org/Graphics/SVG/1.1/DTD/svg11.dtd">
<svg width="100%" height="100%" viewBox="0 0 70 70" version="1.1" xmlns="http://www.w3.org/2000/svg" xmlns:xlink="http://www.w3.org/1999/xlink" xml:space="preserve" xmlns:serif="http://www.serif.com/" style="fill-rule:evenodd;clip-rule:evenodd;stroke-linejoin:round;stroke-miterlimit:2;">
    <g transform="matrix(1,0,0,1,-360.103,-2810.69)">
        <path d="M366.729,2824.73C372.98,2816.18 383.097,2810.69 394.663,2810.69C413.956,2810.69 429.503,2825.96 429.503,2845.25C429.503,2864.55 413.954,2880.09 394.663,2880.09C375.369,2880.09 360.103,2864.55 360.103,2845.25C360.103,2838.13 362.183,2831.56 365.778,2826.1L361.555,2822.87C361.189,2822.59 361.119,2822.07 361.399,2821.7C361.678,2821.34 362.202,2821.27 362.567,2821.55L366.729,2824.73ZM427.836,2845.25C427.836,2863.62 413.031,2878.43 394.663,2878.43C376.296,2878.43 361.77,2863.62 361.77,2845.25C361.77,2826.89 376.297,2812.36 394.663,2812.36C413.029,2812.36 427.836,2826.89 427.836,2845.25ZM402.351,2869.2L402.632,2869.01C402.769,2868.92 402.929,2868.87 403.094,2868.87L403.656,2868.87C404.116,2868.87 404.489,2869.24 404.489,2869.7C404.489,2870.16 404.116,2870.54 403.656,2870.54L403.346,2870.54L402.782,2870.91L402.655,2871.04L402.522,2871.31L402.522,2874.2C402.522,2874.66 402.149,2875.03 401.689,2875.03C401.229,2875.03 400.855,2874.66 400.855,2874.2L400.855,2869.7C400.855,2869.24 401.229,2868.87 401.689,2868.87C401.958,2868.87 402.198,2869 402.351,2869.2ZM392.529,2869L392.514,2868.99L392.387,2868.89L392.106,2868.61C391.95,2868.45 391.862,2868.24 391.862,2868.02C391.862,2867.8 391.95,2867.59 392.106,2867.43L392.387,2867.15C392.463,2867.07 392.554,2867.01 392.657,2866.97C392.969,2866.84 393.327,2866.91 393.566,2867.15L393.847,2867.43C394.172,2867.76 394.172,2868.28 393.847,2868.61L393.566,2868.89L393.439,2868.99L393.423,2869C393.655,2869.15 393.81,2869.41 393.81,2869.7L393.81,2874.2C393.81,2874.66 393.436,2875.03 392.976,2875.03C392.516,2875.03 392.143,2874.66 392.143,2874.2L392.143,2869.7C392.143,2869.41 392.297,2869.15 392.529,2869ZM384.816,2870.9L384.816,2874.2C384.816,2874.66 384.443,2875.03 383.983,2875.03C383.523,2875.03 383.149,2874.66 383.149,2874.2L383.149,2869.7C383.149,2869.24 383.523,2868.87 383.983,2868.87C384.196,2868.87 384.39,2868.95 384.537,2869.08L384.645,2869.01C384.781,2868.92 384.942,2868.87 385.107,2868.87L385.95,2868.87C386.171,2868.87 386.383,2868.96 386.539,2869.12L386.843,2869.42L387.455,2869.01C387.592,2868.92 387.753,2868.87 387.917,2868.87L388.761,2868.87C388.982,2868.87 389.193,2868.96 389.35,2869.12L389.912,2869.68C389.975,2869.74 390.028,2869.81 390.068,2869.89L390.349,2870.46C390.407,2870.57 390.437,2870.7 390.437,2870.83L390.437,2874.2C390.437,2874.66 390.064,2875.03 389.604,2875.03C389.144,2875.03 388.77,2874.66 388.77,2874.2L388.77,2871.03L388.638,2870.76L388.415,2870.54L388.17,2870.54L387.721,2870.84L387.627,2871.03L387.627,2874.2C387.627,2874.66 387.253,2875.03 386.793,2875.03C386.333,2875.03 385.96,2874.66 385.96,2874.2L385.96,2871.03L385.827,2870.76L385.605,2870.54L385.359,2870.54L384.816,2870.9ZM406.386,2874.95L405.813,2874.67C405.733,2874.63 405.66,2874.57 405.596,2874.51L405.315,2874.23C405.252,2874.16 405.199,2874.09 405.159,2874.01L404.878,2873.45C404.82,2873.33 404.79,2873.21 404.79,2873.08L404.79,2871.11C404.79,2870.98 404.82,2870.85 404.878,2870.74L405.159,2870.18C405.199,2870.1 405.252,2870.02 405.315,2869.96L406.158,2869.12C406.315,2868.96 406.527,2868.87 406.748,2868.87L407.591,2868.87C407.755,2868.87 407.916,2868.92 408.053,2869.01L408.896,2869.57C408.942,2869.6 408.984,2869.64 409.023,2869.68L409.304,2869.96C409.368,2870.02 409.42,2870.1 409.46,2870.18L409.741,2870.74C409.799,2870.85 409.829,2870.98 409.829,2871.11L409.829,2873.08C409.829,2873.21 409.799,2873.33 409.741,2873.45L409.46,2874.01C409.42,2874.09 409.368,2874.16 409.304,2874.23L409.023,2874.51C408.932,2874.6 408.82,2874.67 408.697,2874.71L407.854,2874.99C407.769,2875.02 407.68,2875.03 407.591,2875.03L406.694,2875.03L406.539,2875.01L406.386,2874.95ZM398.119,2873.37L398.506,2873.18C398.917,2872.97 399.418,2873.14 399.624,2873.55C399.829,2873.96 399.662,2874.46 399.251,2874.67L398.689,2874.95C398.573,2875.01 398.446,2875.03 398.316,2875.03L396.911,2875.03C396.782,2875.03 396.654,2875.01 396.538,2874.95L395.976,2874.67C395.896,2874.63 395.823,2874.57 395.76,2874.51L395.479,2874.23C395.415,2874.16 395.363,2874.09 395.322,2874.01L395.041,2873.45C394.984,2873.33 394.953,2873.21 394.953,2873.08L394.953,2871.11C394.953,2870.98 394.984,2870.85 395.041,2870.74L395.322,2870.18C395.363,2870.1 395.415,2870.02 395.479,2869.96L396.322,2869.12C396.478,2868.96 396.69,2868.87 396.911,2868.87L398.316,2868.87C398.537,2868.87 398.749,2868.96 398.905,2869.12L399.468,2869.68C399.793,2870 399.793,2870.53 399.468,2870.86C399.142,2871.18 398.614,2871.18 398.289,2870.86L397.971,2870.54L397.256,2870.54L396.753,2871.04L396.62,2871.31L396.62,2872.88L396.753,2873.15L396.842,2873.24L397.108,2873.37L398.119,2873.37ZM407.093,2870.54L406.589,2871.04L406.457,2871.31L406.457,2872.88L406.589,2873.15L406.679,2873.24L406.944,2873.37L407.456,2873.37L407.984,2873.19L408.03,2873.15L408.163,2872.88L408.163,2871.31L408.03,2871.04L407.903,2870.91L407.338,2870.54L407.093,2870.54ZM392.949,2867.71L393.22,2867.98L393.284,2867.95L393.284,2867.71L392.949,2867.71ZM417.368,2828.4C417.442,2828.4 417.516,2828.4 417.587,2828.41L417.589,2828.42C417.673,2828.43 417.756,2828.46 417.833,2828.51C417.886,2828.53 417.937,2828.57 417.983,2828.61L417.987,2828.62C418.006,2828.63 418.025,2828.65 418.043,2828.67C418.071,2828.7 418.096,2828.73 418.119,2828.77L418.12,2828.77C418.149,2828.81 418.175,2828.86 418.196,2828.91C418.211,2828.95 418.224,2828.99 418.234,2829.02L418.235,2829.03C418.247,2829.08 418.255,2829.13 418.259,2829.17C418.264,2829.25 418.26,2829.32 418.246,2829.39L418.245,2829.39C418.229,2829.48 418.199,2829.56 418.155,2829.64C418.14,2829.67 418.123,2829.69 418.105,2829.72L393.67,2865.11C393.654,2865.13 393.636,2865.16 393.617,2865.18L393.616,2865.18C393.563,2865.24 393.502,2865.3 393.435,2865.34L393.432,2865.34C393.317,2865.42 393.186,2865.46 393.053,2865.47L393.051,2865.48C392.917,2865.49 392.781,2865.47 392.653,2865.41L392.65,2865.41C392.577,2865.38 392.507,2865.34 392.444,2865.29L392.442,2865.28C392.419,2865.27 392.397,2865.25 392.377,2865.22L383.702,2856.55L379.24,2861.01C379.227,2861.02 379.214,2861.04 379.2,2861.05C379.128,2861.11 379.048,2861.16 378.963,2861.2L378.961,2861.2C378.895,2861.23 378.826,2861.25 378.753,2861.26C378.674,2861.27 378.592,2861.27 378.511,2861.25L378.508,2861.25C378.444,2861.24 378.383,2861.22 378.325,2861.2L378.323,2861.2C378.283,2861.18 378.245,2861.16 378.208,2861.14L378.202,2861.14C378.134,2861.1 378.074,2861.04 378.023,2860.99C377.958,2860.91 377.908,2860.84 377.873,2860.75L377.872,2860.75C377.845,2860.68 377.826,2860.61 377.817,2860.54C377.811,2860.5 377.809,2860.46 377.809,2860.41L377.809,2851.5L367.093,2840.78L367.063,2840.75C367.025,2840.71 366.99,2840.66 366.961,2840.61L366.943,2840.58L366.941,2840.58C366.914,2840.53 366.894,2840.47 366.878,2840.42L366.876,2840.41C366.873,2840.4 366.871,2840.39 366.868,2840.37C366.837,2840.23 366.844,2840.09 366.882,2839.96L366.882,2839.96C366.92,2839.83 366.99,2839.71 367.093,2839.61C367.101,2839.6 367.109,2839.59 367.117,2839.58L367.124,2839.58C367.166,2839.54 367.213,2839.5 367.263,2839.47L367.296,2839.46L367.3,2839.45C367.352,2839.43 367.405,2839.41 367.46,2839.39L367.469,2839.39C367.48,2839.39 367.491,2839.38 367.503,2839.38L417.232,2828.42C417.277,2828.41 417.322,2828.41 417.368,2828.4ZM382.488,2852.98L392.859,2863.35L414.34,2832.24L382.488,2852.98ZM380.55,2857.35L382.523,2855.37L381.536,2854.38L380.55,2857.35ZM380.731,2852.14L394.719,2843.03L379.476,2851.64L379.476,2855.3L380.379,2852.59C380.399,2852.53 380.426,2852.46 380.461,2852.41L380.465,2852.4C380.479,2852.38 380.495,2852.36 380.511,2852.33L380.514,2852.33C380.552,2852.28 380.596,2852.24 380.646,2852.2L380.649,2852.19C380.675,2852.17 380.702,2852.15 380.731,2852.14ZM369.347,2840.68L378.784,2850.12L412.178,2831.24L369.347,2840.68Z"/>
    </g>
</svg>
