<?xml version="1.0" encoding="UTF-8" standalone="no"?>
<!DOCTYPE svg PUBLIC "-//W3C//DTD SVG 1.1//EN" "http://www.w3.org/Graphics/SVG/1.1/DTD/svg11.dtd">
<svg width="100%" height="100%" viewBox="0 0 70 70" version="1.1" xmlns="http://www.w3.org/2000/svg" xmlns:xlink="http://www.w3.org/1999/xlink" xml:space="preserve" xmlns:serif="http://www.serif.com/" style="fill-rule:evenodd;clip-rule:evenodd;stroke-linejoin:round;stroke-miterlimit:2;">
    <g transform="matrix(1,0,0,1,-441.045,-2810.69)">
        <path d="M447.671,2824.73C453.922,2816.18 464.039,2810.69 475.605,2810.69C494.898,2810.69 510.445,2825.96 510.445,2845.25C510.445,2864.55 494.896,2880.09 475.605,2880.09C456.311,2880.09 441.045,2864.55 441.045,2845.25C441.045,2838.13 443.125,2831.56 446.72,2826.1L442.497,2822.87C442.131,2822.59 442.062,2822.07 442.341,2821.7C442.62,2821.34 443.144,2821.27 443.509,2821.55L447.671,2824.73ZM508.778,2845.25C508.778,2863.62 493.974,2878.43 475.605,2878.43C457.238,2878.43 442.712,2863.62 442.712,2845.25C442.712,2826.89 457.24,2812.36 475.605,2812.36C493.972,2812.36 508.778,2826.89 508.778,2845.25ZM472.894,2869.2L473.175,2869.01C473.312,2868.92 473.473,2868.87 473.637,2868.87L474.199,2868.87C474.659,2868.87 475.033,2869.24 475.033,2869.7C475.033,2870.16 474.659,2870.54 474.199,2870.54L473.89,2870.54L473.325,2870.91L473.198,2871.04L473.065,2871.31L473.065,2874.2C473.065,2874.66 472.692,2875.03 472.232,2875.03C471.772,2875.03 471.399,2874.66 471.399,2874.2L471.399,2869.7C471.399,2869.24 471.772,2868.87 472.232,2868.87C472.502,2868.87 472.742,2869 472.894,2869.2ZM481.516,2868.87L481.516,2867.74C481.516,2867.28 481.89,2866.9 482.35,2866.9C482.81,2866.9 483.183,2867.28 483.183,2867.74L483.183,2874.2C483.183,2874.66 482.81,2875.03 482.35,2875.03C482.251,2875.03 482.156,2875.02 482.069,2874.99C481.979,2875.02 481.884,2875.03 481.788,2875.03L480.382,2875.03C480.253,2875.03 480.125,2875.01 480.01,2874.95L479.448,2874.67C479.368,2874.63 479.294,2874.57 479.231,2874.51L478.95,2874.23C478.887,2874.16 478.834,2874.09 478.794,2874.01L478.513,2873.45C478.455,2873.33 478.425,2873.21 478.425,2873.08L478.425,2871.11C478.425,2870.98 478.455,2870.85 478.513,2870.74L478.794,2870.18C478.834,2870.1 478.887,2870.02 478.95,2869.96L479.793,2869.12C479.949,2868.96 480.161,2868.87 480.382,2868.87L481.516,2868.87ZM476.001,2869L475.985,2868.99L475.858,2868.89L475.577,2868.61C475.252,2868.28 475.252,2867.76 475.577,2867.43L475.859,2867.15C475.934,2867.07 476.026,2867.01 476.129,2866.97C476.44,2866.84 476.799,2866.91 477.037,2867.15L477.318,2867.43C477.474,2867.59 477.562,2867.8 477.562,2868.02C477.562,2868.24 477.474,2868.45 477.318,2868.61L477.037,2868.89L476.91,2868.99L476.895,2869C477.127,2869.15 477.281,2869.41 477.281,2869.7L477.281,2874.2C477.281,2874.66 476.908,2875.03 476.448,2875.03C475.988,2875.03 475.614,2874.66 475.614,2874.2L475.614,2869.7C475.614,2869.41 475.769,2869.15 476.001,2869ZM467.745,2868.87L467.745,2867.74C467.745,2867.28 468.119,2866.9 468.578,2866.9C469.038,2866.9 469.412,2867.28 469.412,2867.74L469.412,2868.87L469.984,2868.87C470.444,2868.87 470.817,2869.24 470.817,2869.7C470.817,2870.16 470.444,2870.54 469.984,2870.54L469.412,2870.54L469.412,2873.16L469.481,2873.3L469.618,2873.37L469.984,2873.37C470.444,2873.37 470.817,2873.74 470.817,2874.2C470.817,2874.66 470.444,2875.03 469.984,2875.03L469.422,2875.03C469.292,2875.03 469.165,2875.01 469.049,2874.95L468.487,2874.67C468.326,2874.59 468.195,2874.45 468.114,2874.29L467.833,2873.73C467.775,2873.62 467.745,2873.49 467.745,2873.36L467.745,2870.54L467.454,2870.54C466.994,2870.54 466.621,2870.16 466.621,2869.7C466.621,2869.24 466.994,2868.87 467.454,2868.87L467.745,2868.87ZM464.447,2872.79L463.801,2872.79C463.671,2872.79 463.544,2872.76 463.428,2872.7L462.866,2872.42C462.786,2872.38 462.713,2872.33 462.649,2872.26L462.087,2871.7C461.931,2871.54 461.843,2871.33 461.843,2871.11L461.843,2870.83C461.843,2870.61 461.931,2870.4 462.087,2870.24L463.211,2869.12C463.368,2868.96 463.58,2868.87 463.801,2868.87L464.644,2868.87C464.865,2868.87 465.077,2868.96 465.233,2869.12L465.795,2869.68C466.12,2870 466.12,2870.53 465.795,2870.86C465.47,2871.18 464.942,2871.18 464.617,2870.86L464.299,2870.54L464.146,2870.54L463.714,2870.97L463.732,2870.99L463.997,2871.12L464.644,2871.12C464.773,2871.12 464.901,2871.15 465.016,2871.21L465.579,2871.49C465.708,2871.55 465.819,2871.65 465.899,2871.77L466.461,2872.62C466.553,2872.75 466.601,2872.91 466.601,2873.08L466.601,2873.36C466.601,2873.58 466.514,2873.79 466.357,2873.95L465.795,2874.51C465.732,2874.57 465.659,2874.63 465.579,2874.67L465.016,2874.95C464.901,2875.01 464.773,2875.03 464.644,2875.03L463.52,2875.03C463.43,2875.03 463.341,2875.02 463.256,2874.99L462.413,2874.71C461.977,2874.57 461.74,2874.09 461.886,2873.66C462.031,2873.22 462.504,2872.98 462.94,2873.13L463.655,2873.37L464.447,2873.37L464.712,2873.24L464.808,2873.14L464.635,2872.88L464.447,2872.79ZM484.327,2873.36L484.327,2870.83C484.327,2870.7 484.357,2870.57 484.415,2870.46L484.696,2869.89C484.761,2869.76 484.858,2869.65 484.979,2869.57L485.822,2869.01C485.959,2868.92 486.12,2868.87 486.285,2868.87L487.409,2868.87C487.63,2868.87 487.842,2868.96 487.998,2869.12L489.122,2870.24C489.278,2870.4 489.366,2870.61 489.366,2870.83L489.366,2871.39C489.366,2871.8 489.072,2872.15 488.67,2872.21L485.994,2872.66L485.994,2873.16L486.032,2873.24L486.42,2873.37L487.212,2873.37L487.598,2873.18C488.01,2872.97 488.51,2873.14 488.716,2873.55C488.922,2873.96 488.755,2874.46 488.343,2874.67L487.781,2874.95C487.666,2875.01 487.538,2875.03 487.409,2875.03L486.285,2875.03C486.195,2875.03 486.106,2875.02 486.021,2874.99L485.178,2874.71C484.968,2874.64 484.795,2874.49 484.696,2874.29L484.415,2873.73C484.357,2873.62 484.327,2873.49 484.327,2873.36ZM481.516,2870.61L481.443,2870.54L480.728,2870.54L480.224,2871.04L480.092,2871.31L480.092,2872.88L480.224,2873.15L480.314,2873.24L480.579,2873.37L481.516,2873.37L481.516,2870.61ZM486.537,2870.54L486.088,2870.84L486.024,2870.96L487.28,2870.76L487.064,2870.54L486.537,2870.54ZM476.692,2867.98L476.756,2867.95L476.756,2867.71L476.421,2867.71L476.692,2867.98ZM485.722,2864.66C486.182,2864.66 486.556,2865.03 486.556,2865.49C486.556,2865.95 486.182,2866.32 485.722,2866.32L465.487,2866.32C465.027,2866.32 464.654,2865.95 464.654,2865.49C464.654,2865.03 465.027,2864.66 465.487,2864.66L485.722,2864.66ZM475.287,2826.78C475.385,2826.74 475.492,2826.71 475.605,2826.71C475.717,2826.71 475.825,2826.74 475.922,2826.78L475.925,2826.78C476.013,2826.81 476.097,2826.87 476.171,2826.94L476.194,2826.96L484.625,2835.39C484.625,2835.39 486.312,2837.08 486.312,2837.08C486.637,2837.4 486.637,2837.93 486.312,2838.25C485.987,2838.58 485.458,2838.58 485.133,2838.25L483.447,2836.57C483.447,2836.57 476.438,2829.56 476.438,2829.56L476.438,2860.95L485.133,2852.25C485.458,2851.93 485.987,2851.93 486.312,2852.25C486.637,2852.58 486.637,2853.11 486.312,2853.43L476.194,2863.55L476.169,2863.57L476.145,2863.59L476.121,2863.61L476.096,2863.63L476.066,2863.65L476.037,2863.67L476.006,2863.69L475.979,2863.7L475.951,2863.72L475.922,2863.73C475.825,2863.77 475.717,2863.79 475.605,2863.79C475.492,2863.79 475.385,2863.77 475.287,2863.73L475.285,2863.73C475.193,2863.69 475.107,2863.64 475.031,2863.56L475.015,2863.55C475.015,2863.55 466.584,2855.12 466.584,2855.12C466.584,2855.12 464.898,2853.43 464.898,2853.43C464.572,2853.11 464.572,2852.58 464.898,2852.25C465.223,2851.93 465.751,2851.93 466.076,2852.25L467.762,2853.94C467.762,2853.94 474.771,2860.95 474.771,2860.95L474.771,2829.56L466.076,2838.25C465.751,2838.58 465.223,2838.58 464.898,2838.25C464.572,2837.93 464.572,2837.4 464.898,2837.08L475.015,2826.96L475.04,2826.93L475.064,2826.91L475.088,2826.89L475.113,2826.87L475.139,2826.86L475.165,2826.84L475.196,2826.82L475.228,2826.8L475.26,2826.79L475.287,2826.78ZM465.487,2824.18L485.722,2824.18C486.182,2824.18 486.556,2824.56 486.556,2825.02C486.556,2825.48 486.182,2825.85 485.722,2825.85L465.487,2825.85C465.027,2825.85 464.654,2825.48 464.654,2825.02C464.654,2824.56 465.027,2824.18 465.487,2824.18Z"/>
    </g>
</svg>
