<?xml version="1.0" encoding="UTF-8" standalone="no"?>
<!DOCTYPE svg PUBLIC "-//W3C//DTD SVG 1.1//EN" "http://www.w3.org/Graphics/SVG/1.1/DTD/svg11.dtd">
<svg width="100%" height="100%" viewBox="0 0 70 70" version="1.1" xmlns="http://www.w3.org/2000/svg" xmlns:xlink="http://www.w3.org/1999/xlink" xml:space="preserve" xmlns:serif="http://www.serif.com/" style="fill-rule:evenodd;clip-rule:evenodd;stroke-linejoin:round;stroke-miterlimit:2;">
    <g transform="matrix(1,0,0,1,-521.988,-2810.69)">
        <path d="M528.613,2824.73C534.864,2816.18 544.981,2810.69 556.547,2810.69C575.84,2810.69 591.387,2825.96 591.387,2845.25C591.387,2864.55 575.839,2880.09 556.547,2880.09C537.253,2880.09 521.988,2864.55 521.988,2845.25C521.988,2838.13 524.067,2831.56 527.662,2826.1L523.439,2822.87C523.074,2822.59 523.004,2822.07 523.283,2821.7C523.563,2821.34 524.086,2821.27 524.451,2821.55L528.613,2824.73ZM589.72,2845.25C589.72,2863.62 574.916,2878.43 556.547,2878.43C538.18,2878.43 523.654,2863.62 523.654,2845.25C523.654,2826.89 538.182,2812.36 556.547,2812.36C574.914,2812.36 589.72,2826.89 589.72,2845.25ZM548.949,2871.94L548.949,2874.2C548.949,2874.66 548.575,2875.03 548.115,2875.03C547.655,2875.03 547.282,2874.66 547.282,2874.2L547.282,2867.74C547.282,2867.28 547.655,2866.9 548.115,2866.9L550.645,2866.9C550.774,2866.9 550.902,2866.93 551.017,2866.99L551.58,2867.27C551.66,2867.31 551.733,2867.37 551.796,2867.43L552.077,2867.71C552.14,2867.77 552.193,2867.85 552.233,2867.93L552.514,2868.49C552.572,2868.61 552.602,2868.73 552.602,2868.86L552.602,2869.7C552.602,2869.79 552.588,2869.88 552.559,2869.97L552.278,2870.81C552.238,2870.93 552.169,2871.05 552.077,2871.14L551.796,2871.42C551.733,2871.48 551.66,2871.53 551.58,2871.57L551.017,2871.86C550.902,2871.91 550.774,2871.94 550.645,2871.94L548.949,2871.94ZM564.416,2870.37L565.919,2867.37C566.092,2867.02 566.48,2866.84 566.856,2866.93C567.232,2867.01 567.498,2867.35 567.498,2867.74L567.498,2874.2C567.498,2874.66 567.124,2875.03 566.665,2875.03C566.205,2875.03 565.831,2874.66 565.831,2874.2L565.831,2871.27L565.162,2872.61C565.02,2872.89 564.732,2873.07 564.416,2873.07C564.101,2873.07 563.812,2872.89 563.671,2872.61L563.001,2871.27L563.001,2874.2C563.001,2874.66 562.628,2875.03 562.168,2875.03C561.708,2875.03 561.334,2874.66 561.334,2874.2L561.334,2867.74C561.334,2867.35 561.6,2867.01 561.976,2866.93C562.352,2866.84 562.74,2867.02 562.913,2867.37L564.416,2870.37ZM556.917,2872.68L556.515,2874.39C556.427,2874.76 556.097,2875.03 555.714,2875.03C555.331,2875.04 554.994,2874.78 554.897,2874.41L553.211,2867.95C553.095,2867.5 553.362,2867.05 553.807,2866.93C554.252,2866.82 554.708,2867.08 554.824,2867.53L555.662,2870.74L556.017,2869.23C556.103,2868.87 556.427,2868.6 556.805,2868.59C557.183,2868.58 557.521,2868.83 557.627,2869.19L558.112,2870.84L558.824,2867.56C558.922,2867.11 559.366,2866.83 559.815,2866.92C560.265,2867.02 560.55,2867.47 560.453,2867.91L559.047,2874.38C558.966,2874.75 558.644,2875.02 558.263,2875.03C557.882,2875.05 557.541,2874.8 557.434,2874.44L556.917,2872.68ZM548.949,2868.57L548.949,2870.28L550.448,2870.28L550.713,2870.14L550.76,2870.1L550.936,2869.57L550.936,2869.06L550.803,2868.79L550.713,2868.7L550.448,2868.57L548.949,2868.57ZM580.145,2855.37L580.145,2835.14C580.145,2834.68 579.772,2834.3 579.312,2834.3C578.852,2834.3 578.478,2834.68 578.478,2835.14L578.478,2855.37C578.478,2855.83 578.852,2856.2 579.312,2856.2C579.772,2856.2 580.145,2855.83 580.145,2855.37ZM533.772,2855.37L533.772,2835.14C533.772,2834.68 533.399,2834.3 532.939,2834.3C532.479,2834.3 532.105,2834.68 532.105,2835.14L532.105,2855.37C532.105,2855.83 532.479,2856.2 532.939,2856.2C533.399,2856.2 533.772,2855.83 533.772,2855.37ZM534.036,2850.57L538.251,2846.35C538.577,2846.03 539.105,2846.03 539.43,2846.35C539.755,2846.68 539.755,2847.2 539.43,2847.53L536.637,2850.32L563.81,2850.32L561.016,2847.53C560.691,2847.2 560.691,2846.68 561.016,2846.35C561.342,2846.03 561.87,2846.03 562.195,2846.35L566.411,2850.57L566.434,2850.59L566.455,2850.62L566.476,2850.64L566.495,2850.66L566.513,2850.69L566.532,2850.72L566.551,2850.75L566.566,2850.78L566.582,2850.81L566.592,2850.84C566.632,2850.94 566.655,2851.04 566.655,2851.16C566.655,2851.27 566.632,2851.38 566.592,2851.47L566.577,2851.51L566.562,2851.54L566.544,2851.57L566.529,2851.6L566.512,2851.62L566.494,2851.65L566.474,2851.67L566.454,2851.7L566.433,2851.72L566.411,2851.74L562.195,2855.96C561.87,2856.29 561.342,2856.29 561.016,2855.96C560.691,2855.64 560.691,2855.11 561.016,2854.78L563.81,2851.99L536.637,2851.99L539.43,2854.78C539.755,2855.11 539.755,2855.64 539.43,2855.96C539.105,2856.29 538.577,2856.29 538.251,2855.96L534.036,2851.74L534.012,2851.72L533.991,2851.7L533.971,2851.67L533.952,2851.65L533.934,2851.62L533.914,2851.59L533.896,2851.56L533.88,2851.53L533.865,2851.5L533.854,2851.47C533.814,2851.38 533.792,2851.27 533.792,2851.16C533.792,2851.04 533.814,2850.94 533.854,2850.84L533.869,2850.8L533.885,2850.77L533.902,2850.74L533.918,2850.71L533.935,2850.69L533.953,2850.66L533.972,2850.64L533.992,2850.61L534.013,2850.59L534.036,2850.57ZM561.606,2835.14C564.059,2835.14 565.812,2836.9 565.812,2839.35C565.812,2841.8 564.059,2843.56 561.606,2843.56C561.606,2843.56 539.684,2843.56 539.684,2843.56C537.23,2843.56 535.478,2841.8 535.478,2839.35C535.478,2836.9 537.23,2835.14 539.684,2835.14L561.606,2835.14ZM561.606,2836.81L539.684,2836.81C538.203,2836.81 537.145,2837.87 537.145,2839.35C537.145,2840.83 538.203,2841.89 539.684,2841.89L561.606,2841.89C563.087,2841.89 564.145,2840.83 564.145,2839.35C564.145,2837.87 563.087,2836.81 561.606,2836.81Z"/>
    </g>
</svg>
