<?xml version="1.0" encoding="UTF-8" standalone="no"?>
<!DOCTYPE svg PUBLIC "-//W3C//DTD SVG 1.1//EN" "http://www.w3.org/Graphics/SVG/1.1/DTD/svg11.dtd">
<svg width="100%" height="100%" viewBox="0 0 70 70" version="1.1" xmlns="http://www.w3.org/2000/svg" xmlns:xlink="http://www.w3.org/1999/xlink" xml:space="preserve" xmlns:serif="http://www.serif.com/" style="fill-rule:evenodd;clip-rule:evenodd;stroke-linejoin:round;stroke-miterlimit:2;">
    <g transform="matrix(1,0,0,1,-602.93,-2810.69)">
        <path d="M609.556,2824.73C615.806,2816.18 625.923,2810.69 637.489,2810.69C656.783,2810.69 672.329,2825.96 672.329,2845.25C672.329,2864.55 656.781,2880.09 637.489,2880.09C618.195,2880.09 602.93,2864.55 602.93,2845.25C602.93,2838.13 605.009,2831.56 608.604,2826.1L604.381,2822.87C604.016,2822.59 603.946,2822.07 604.225,2821.7C604.505,2821.34 605.028,2821.27 605.393,2821.55L609.556,2824.73ZM670.663,2845.25C670.663,2863.62 655.858,2878.43 637.489,2878.43C619.122,2878.43 604.596,2863.62 604.596,2845.25C604.596,2826.89 619.124,2812.36 637.489,2812.36C655.856,2812.36 670.663,2826.89 670.663,2845.25ZM644.525,2873.9L644.525,2869.7C644.525,2869.24 644.898,2868.87 645.358,2868.87C645.512,2868.87 645.656,2868.91 645.78,2868.99C645.908,2868.91 646.053,2868.87 646.201,2868.87L647.326,2868.87C647.547,2868.87 647.759,2868.96 647.915,2869.12L649.32,2870.52C649.476,2870.68 649.564,2870.89 649.564,2871.11L649.564,2873.08C649.564,2873.3 649.476,2873.51 649.32,2873.67L648.477,2874.51C648.414,2874.57 648.341,2874.63 648.26,2874.67L647.698,2874.95C647.583,2875.01 647.455,2875.03 647.326,2875.03L646.201,2875.03C646.198,2875.03 646.195,2875.03 646.192,2875.03L646.192,2876.45C646.192,2876.91 645.818,2877.28 645.358,2877.28C644.898,2877.28 644.525,2876.91 644.525,2876.45L644.525,2873.94C644.525,2873.93 644.525,2873.91 644.525,2873.9ZM630.267,2873.31L629.841,2874.49C629.718,2874.82 629.396,2875.04 629.038,2875.03C628.681,2875.03 628.369,2874.79 628.262,2874.45L626.857,2869.95C626.72,2869.51 626.965,2869.05 627.404,2868.91C627.843,2868.77 628.31,2869.02 628.448,2869.46L629.117,2871.6L629.399,2870.83C629.514,2870.51 629.811,2870.29 630.149,2870.28C630.488,2870.26 630.8,2870.46 630.94,2870.76L631.358,2871.68L631.903,2869.5C632.014,2869.06 632.467,2868.78 632.913,2868.9C633.359,2869.01 633.631,2869.46 633.52,2869.91L632.395,2874.4C632.309,2874.75 632.015,2875 631.662,2875.03C631.31,2875.06 630.975,2874.87 630.828,2874.55L630.267,2873.31ZM635.173,2871.1C634.928,2871.08 634.694,2870.95 634.547,2870.73C634.292,2870.35 634.396,2869.83 634.778,2869.57L635.621,2869.01C635.758,2868.92 635.919,2868.87 636.084,2868.87L637.208,2868.87C637.429,2868.87 637.641,2868.96 637.797,2869.12L638.359,2869.68C638.423,2869.74 638.475,2869.81 638.515,2869.89L638.796,2870.46C638.854,2870.57 638.884,2870.7 638.884,2870.83L638.884,2874.2C638.884,2874.66 638.511,2875.03 638.051,2875.03C637.952,2875.03 637.858,2875.02 637.77,2874.99C637.68,2875.02 637.585,2875.03 637.489,2875.03L636.084,2875.03C635.994,2875.03 635.905,2875.02 635.82,2874.99L634.977,2874.71C634.767,2874.64 634.594,2874.49 634.495,2874.29L634.214,2873.73C634.156,2873.62 634.126,2873.49 634.126,2873.36L634.126,2872.8C634.126,2872.71 634.141,2872.62 634.169,2872.53L634.45,2871.69C634.533,2871.44 634.728,2871.24 634.977,2871.16L635.173,2871.1ZM641.986,2869.09C642.139,2868.95 642.339,2868.87 642.548,2868.87L643.11,2868.87C643.57,2868.87 643.943,2869.24 643.943,2869.7C643.943,2870.16 643.57,2870.54 643.11,2870.54L642.893,2870.54L642.39,2871.04L642.257,2871.31L642.257,2874.2C642.257,2874.66 641.884,2875.03 641.424,2875.03C640.964,2875.03 640.59,2874.66 640.59,2874.2L640.59,2869.7C640.59,2869.24 640.964,2868.87 641.424,2868.87C641.64,2868.87 641.837,2868.95 641.986,2869.09ZM646.192,2873.32L646.337,2873.37L647.129,2873.37L647.394,2873.24L647.898,2872.73L647.898,2871.45L646.981,2870.54L646.454,2870.54L646.192,2870.71L646.192,2873.32ZM637.218,2872.51L636.219,2872.51L635.899,2872.61L635.793,2872.93L635.793,2873.16L635.832,2873.24L636.219,2873.37L637.218,2873.37L637.218,2872.51ZM637.124,2870.84L637.085,2870.76L636.863,2870.54L636.336,2870.54L635.822,2870.88C635.906,2870.85 635.995,2870.84 636.084,2870.84L637.124,2870.84ZM655.994,2862.13L653.201,2859.33C652.875,2859.01 652.875,2858.48 653.201,2858.15C653.526,2857.83 654.054,2857.83 654.379,2858.15L658.595,2862.37L658.619,2862.39L658.64,2862.42L658.66,2862.44L658.679,2862.47L658.697,2862.49L658.716,2862.53L658.735,2862.56L658.75,2862.59L658.766,2862.62L658.776,2862.64C658.816,2862.74 658.839,2862.85 658.839,2862.96C658.839,2863.07 658.816,2863.18 658.776,2863.28L658.763,2863.31L658.747,2863.34L658.731,2863.37L658.713,2863.4L658.696,2863.43L658.678,2863.45L658.658,2863.48L658.638,2863.5L658.617,2863.53L658.595,2863.55L654.379,2867.76C654.054,2868.09 653.526,2868.09 653.201,2867.76C652.875,2867.44 652.875,2866.91 653.201,2866.59L655.994,2863.79L617.017,2863.79L619.81,2866.59C620.135,2866.91 620.135,2867.44 619.81,2867.76C619.485,2868.09 618.957,2868.09 618.632,2867.76L614.416,2863.55L614.392,2863.52L614.371,2863.5L614.351,2863.48L614.332,2863.45L614.314,2863.43L614.294,2863.39L614.276,2863.36L614.26,2863.33L614.245,2863.3L614.234,2863.28C614.194,2863.18 614.172,2863.07 614.172,2862.96C614.172,2862.85 614.194,2862.74 614.234,2862.64L614.248,2862.61L614.263,2862.58L614.279,2862.55L614.298,2862.52L614.315,2862.49L614.333,2862.47L614.352,2862.44L614.372,2862.42L614.393,2862.39L614.416,2862.37L618.632,2858.15C618.957,2857.83 619.485,2857.83 619.81,2858.15C620.135,2858.48 620.135,2859.01 619.81,2859.33L617.017,2862.13L655.994,2862.13ZM623.196,2825.91C623.324,2825.87 623.463,2825.86 623.6,2825.89C623.679,2825.9 623.756,2825.93 623.829,2825.97L623.829,2825.97C623.862,2825.99 623.894,2826.01 623.924,2826.03L664.101,2853.84C664.479,2854.11 664.573,2854.62 664.312,2855C664.05,2855.38 663.53,2855.47 663.152,2855.21L623.826,2827.99L613.251,2854.83C613.082,2855.26 612.598,2855.47 612.17,2855.3C611.742,2855.14 611.532,2854.65 611.7,2854.22L622.655,2826.41C622.668,2826.38 622.683,2826.35 622.701,2826.31L622.701,2826.31C622.74,2826.24 622.789,2826.17 622.846,2826.12C622.944,2826.02 623.064,2825.95 623.193,2825.91L623.196,2825.91Z"/>
    </g>
</svg>
