<?xml version="1.0" encoding="UTF-8" standalone="no"?>
<!DOCTYPE svg PUBLIC "-//W3C//DTD SVG 1.1//EN" "http://www.w3.org/Graphics/SVG/1.1/DTD/svg11.dtd">
<svg width="100%" height="100%" viewBox="0 0 70 70" version="1.1" xmlns="http://www.w3.org/2000/svg" xmlns:xlink="http://www.w3.org/1999/xlink" xml:space="preserve" xmlns:serif="http://www.serif.com/" style="fill-rule:evenodd;clip-rule:evenodd;stroke-linejoin:round;stroke-miterlimit:2;">
    <g transform="matrix(1,0,0,1,-683.872,-2810.69)">
        <path d="M690.498,2824.73C696.748,2816.18 706.865,2810.69 718.431,2810.69C737.725,2810.69 753.271,2825.96 753.271,2845.25C753.271,2864.55 737.723,2880.09 718.431,2880.09C702.965,2880.09 690.088,2870.1 685.587,2856.2C685.361,2856.21 685.132,2856.13 684.959,2855.96C684.634,2855.64 684.634,2855.11 684.959,2854.78L685.117,2854.62C684.305,2851.64 683.872,2848.5 683.872,2845.25C683.872,2838.13 685.951,2831.56 689.546,2826.1L685.323,2822.87C684.958,2822.59 684.888,2822.07 685.167,2821.7C685.447,2821.34 685.97,2821.27 686.336,2821.55L690.498,2824.73ZM718.416,2878.43L718.431,2878.43C736.8,2878.43 751.605,2863.62 751.605,2845.25C751.605,2826.89 736.798,2812.36 718.431,2812.36C700.066,2812.36 685.538,2826.89 685.538,2845.25C685.538,2848.01 685.867,2850.69 686.486,2853.26L691.699,2848.04C691.708,2848.03 691.717,2848.02 691.727,2848.01C691.788,2847.96 691.855,2847.91 691.926,2847.88L691.933,2847.87C692.057,2847.82 692.191,2847.79 692.323,2847.79L692.328,2847.79C692.46,2847.8 692.592,2847.84 692.71,2847.9L692.718,2847.91C692.786,2847.95 692.849,2848 692.905,2848.06C692.914,2848.07 692.923,2848.08 692.931,2848.09L717.554,2876.82L739.686,2848.13C739.699,2848.11 739.712,2848.09 739.727,2848.08C739.782,2848.01 739.844,2847.96 739.912,2847.92L739.914,2847.92C740.031,2847.85 740.163,2847.8 740.296,2847.8L740.303,2847.79C740.436,2847.79 740.572,2847.81 740.698,2847.87L740.7,2847.87C740.772,2847.9 740.841,2847.95 740.903,2848C740.92,2848.01 740.935,2848.03 740.951,2848.05L748.53,2855.63C748.856,2855.95 748.856,2856.48 748.53,2856.8C748.205,2857.13 747.677,2857.13 747.352,2856.8L740.434,2849.89L718.416,2878.43ZM716.702,2878.38L692.246,2849.85L686.991,2855.11L687,2855.14C687.124,2855.54 687.255,2855.94 687.394,2856.34C687.675,2857.15 687.988,2857.95 688.332,2858.74C689.171,2860.66 690.193,2862.5 691.381,2864.23C692.344,2865.63 693.415,2866.96 694.582,2868.2C695.759,2869.44 697.033,2870.59 698.389,2871.64C699.699,2872.65 701.085,2873.56 702.533,2874.36C703.965,2875.15 705.458,2875.84 706.994,2876.4C708.847,2877.09 710.763,2877.6 712.709,2877.94C713.567,2878.09 714.43,2878.2 715.297,2878.28C715.753,2878.32 716.21,2878.36 716.668,2878.38L716.702,2878.38ZM734.722,2837.66C734.722,2827.94 726.474,2819.97 716.745,2819.97C707.012,2819.97 699.048,2827.93 699.048,2837.66C699.048,2847.39 707.016,2855.64 716.745,2855.64C726.47,2855.64 734.722,2847.39 734.722,2837.66ZM729.202,2827.4C726.179,2823.88 721.669,2821.64 716.745,2821.64C707.928,2821.64 700.715,2828.85 700.715,2837.66C700.715,2846.49 707.925,2853.98 716.745,2853.98C725.569,2853.98 733.055,2846.49 733.055,2837.66C733.055,2834.36 732.006,2831.29 730.23,2828.73L724.079,2834.88C723.754,2835.21 723.226,2835.21 722.901,2834.88C722.575,2834.56 722.575,2834.03 722.901,2833.7L729.202,2827.4ZM714.91,2840.18L714.163,2842.43C714.017,2842.86 713.545,2843.1 713.109,2842.95C712.672,2842.81 712.436,2842.34 712.582,2841.9L715.954,2831.78C716.068,2831.44 716.386,2831.21 716.745,2831.21C717.103,2831.21 717.422,2831.44 717.535,2831.78L719.862,2838.76C720.014,2838.91 720.108,2839.12 720.108,2839.35C720.108,2839.39 720.105,2839.43 720.099,2839.47L720.908,2841.9C721.053,2842.34 720.817,2842.81 720.381,2842.95C719.945,2843.1 719.472,2842.86 719.327,2842.43L718.58,2840.18L714.91,2840.18ZM715.465,2838.52L718.024,2838.52L716.745,2834.68L715.465,2838.52Z"/>
    </g>
</svg>
