<?xml version="1.0" encoding="UTF-8" standalone="no"?>
<!DOCTYPE svg PUBLIC "-//W3C//DTD SVG 1.1//EN" "http://www.w3.org/Graphics/SVG/1.1/DTD/svg11.dtd">
<svg width="100%" height="100%" viewBox="0 0 70 70" version="1.1" xmlns="http://www.w3.org/2000/svg" xmlns:xlink="http://www.w3.org/1999/xlink" xml:space="preserve" xmlns:serif="http://www.serif.com/" style="fill-rule:evenodd;clip-rule:evenodd;stroke-linejoin:round;stroke-miterlimit:2;">
    <g transform="matrix(1,0,0,1,-198.219,-2886.58)">
        <path d="M204.845,2900.61C211.095,2892.06 221.213,2886.58 232.778,2886.58C252.072,2886.58 267.619,2901.84 267.619,2921.14C267.619,2940.43 252.07,2955.98 232.778,2955.98C213.485,2955.98 198.219,2940.43 198.219,2921.14C198.219,2914.01 200.299,2907.44 203.893,2901.98L199.67,2898.75C199.305,2898.47 199.235,2897.95 199.515,2897.58C199.794,2897.22 200.317,2897.15 200.683,2897.43L204.845,2900.61ZM265.952,2921.14C265.952,2939.51 251.147,2954.31 232.778,2954.31C214.411,2954.31 199.886,2939.5 199.886,2921.14C199.886,2902.77 214.413,2888.24 232.778,2888.24C251.145,2888.24 265.952,2902.77 265.952,2921.14ZM230.53,2944.8C230.619,2944.77 230.714,2944.76 230.811,2944.76L232.216,2944.76C232.437,2944.76 232.649,2944.84 232.805,2945L233.649,2945.84C233.712,2945.91 233.765,2945.98 233.805,2946.06L234.086,2946.62C234.144,2946.74 234.174,2946.86 234.174,2946.99L234.174,2948.96C234.174,2949.09 234.144,2949.22 234.086,2949.33L233.805,2949.89C233.765,2949.97 233.712,2950.05 233.649,2950.11L233.368,2950.39C233.304,2950.46 233.231,2950.51 233.151,2950.55L232.589,2950.83C232.473,2950.89 232.346,2950.92 232.216,2950.92L231.082,2950.92L231.082,2952.33C231.082,2952.79 230.709,2953.17 230.249,2953.17C229.789,2953.17 229.416,2952.79 229.416,2952.33L229.416,2945.59C229.416,2945.13 229.789,2944.76 230.249,2944.76C230.348,2944.76 230.442,2944.77 230.53,2944.8ZM224.628,2944.97C224.781,2944.83 224.981,2944.76 225.19,2944.76L226.033,2944.76C226.254,2944.76 226.466,2944.84 226.622,2945L227.747,2946.12C227.903,2946.28 227.991,2946.49 227.991,2946.71L227.991,2950.09C227.991,2950.55 227.617,2950.92 227.157,2950.92C226.697,2950.92 226.324,2950.55 226.324,2950.09L226.324,2947.06L225.688,2946.42L225.535,2946.42L225.217,2946.74C225.154,2946.8 225.081,2946.86 225.001,2946.89L224.899,2946.95L224.899,2950.09C224.899,2950.55 224.526,2950.92 224.066,2950.92C223.606,2950.92 223.232,2950.55 223.232,2950.09L223.232,2945.59C223.232,2945.13 223.606,2944.76 224.066,2944.76C224.282,2944.76 224.48,2944.84 224.628,2944.97ZM220.527,2944.89L220.512,2944.88L220.385,2944.77L220.104,2944.49C219.778,2944.16 219.779,2943.64 220.104,2943.31L220.385,2943.03C220.461,2942.95 220.552,2942.89 220.655,2942.85C220.967,2942.72 221.325,2942.79 221.563,2943.03L221.844,2943.31C222.001,2943.47 222.089,2943.68 222.089,2943.9C222.089,2944.12 222.001,2944.34 221.845,2944.49L221.563,2944.77L221.437,2944.88L221.421,2944.89C221.653,2945.03 221.808,2945.29 221.808,2945.59L221.808,2950.09C221.808,2950.55 221.434,2950.92 220.974,2950.92C220.514,2950.92 220.141,2950.55 220.141,2950.09L220.141,2945.59C220.141,2945.29 220.295,2945.03 220.527,2944.89ZM238.542,2950.8L238.491,2950.83C238.375,2950.89 238.248,2950.92 238.118,2950.92L237.275,2950.92C237.186,2950.92 237.097,2950.9 237.012,2950.88L236.168,2950.59C235.959,2950.52 235.785,2950.37 235.687,2950.18L235.406,2949.61C235.348,2949.5 235.318,2949.37 235.318,2949.24L235.318,2945.59C235.318,2945.13 235.691,2944.76 236.151,2944.76C236.611,2944.76 236.984,2945.13 236.984,2945.59L236.984,2949.05L237.023,2949.12L237.41,2949.25L237.921,2949.25L238.128,2949.15L238.128,2945.59C238.128,2945.13 238.501,2944.76 238.961,2944.76C239.421,2944.76 239.795,2945.13 239.795,2945.59L239.795,2950.09C239.795,2950.55 239.421,2950.92 238.961,2950.92C238.808,2950.92 238.665,2950.88 238.542,2950.8ZM241.501,2944.76L241.501,2943.62C241.501,2943.16 241.874,2942.79 242.334,2942.79C242.794,2942.79 243.167,2943.16 243.167,2943.62L243.167,2944.76L243.739,2944.76C244.199,2944.76 244.573,2945.13 244.573,2945.59C244.573,2946.05 244.199,2946.42 243.739,2946.42L243.167,2946.42L243.167,2949.05L243.236,2949.18L243.374,2949.25L243.739,2949.25C244.199,2949.25 244.573,2949.63 244.573,2950.09C244.573,2950.55 244.199,2950.92 243.739,2950.92L243.177,2950.92C243.048,2950.92 242.92,2950.89 242.804,2950.83L242.242,2950.55C242.081,2950.47 241.95,2950.34 241.87,2950.18L241.589,2949.61C241.531,2949.5 241.501,2949.37 241.501,2949.24L241.501,2946.42L241.21,2946.42C240.75,2946.42 240.376,2946.05 240.376,2945.59C240.376,2945.13 240.75,2944.76 241.21,2944.76L241.501,2944.76ZM231.082,2949.25L232.019,2949.25L232.285,2949.12L232.374,2949.03L232.507,2948.76L232.507,2947.19L232.374,2946.93L231.871,2946.42L231.156,2946.42L231.082,2946.49L231.082,2949.25ZM221.218,2943.87L221.282,2943.84L221.282,2943.59L220.947,2943.59L221.218,2943.87ZM222.67,2902.87C222.67,2900.41 224.423,2898.66 226.876,2898.66C229.33,2898.66 231.082,2900.41 231.082,2902.87L231.082,2912.93C231.772,2912.43 232.641,2912.15 233.621,2912.15C235.055,2912.15 236.249,2912.75 236.994,2913.74C237.739,2912.75 238.933,2912.15 240.367,2912.15C242.265,2912.15 243.743,2913.2 244.315,2914.81C245.04,2914.2 246.005,2913.84 247.112,2913.84C249.565,2913.84 251.318,2915.59 251.318,2918.05L251.318,2933.21C251.319,2933.28 251.312,2933.34 251.296,2933.41L251.295,2933.42C251.279,2933.48 251.256,2933.55 251.225,2933.6L247.857,2940.34C247.651,2940.75 247.15,2940.92 246.739,2940.71C246.328,2940.51 246.161,2940.01 246.366,2939.59L249.651,2933.03L249.651,2918.05C249.651,2916.56 248.593,2915.51 247.112,2915.51C245.631,2915.51 244.573,2916.56 244.573,2918.05L244.573,2926.48C244.573,2926.94 244.199,2927.31 243.739,2927.31C243.279,2927.31 242.906,2926.94 242.906,2926.48L242.906,2916.36C242.906,2914.88 241.848,2913.82 240.367,2913.82C238.891,2913.82 237.836,2914.87 237.827,2916.34L237.827,2916.36L237.827,2923.1C237.827,2923.56 237.454,2923.94 236.994,2923.94C236.534,2923.94 236.161,2923.56 236.161,2923.1L236.161,2916.36C236.161,2914.88 235.103,2913.82 233.621,2913.82C232.14,2913.82 231.082,2914.88 231.082,2916.36L231.082,2923.1C231.082,2923.56 230.709,2923.94 230.249,2923.94C229.789,2923.94 229.416,2923.56 229.416,2923.1L229.416,2902.87C229.416,2901.39 228.357,2900.33 226.876,2900.33C225.395,2900.33 224.337,2901.39 224.337,2902.87L224.337,2929.84C224.338,2929.89 224.333,2929.95 224.321,2930.01C224.294,2930.15 224.233,2930.27 224.148,2930.38C224.063,2930.48 223.952,2930.57 223.823,2930.62C223.749,2930.65 223.669,2930.67 223.586,2930.68C223.503,2930.69 223.42,2930.68 223.342,2930.67C223.204,2930.64 223.079,2930.58 222.975,2930.49C222.871,2930.41 222.787,2930.3 222.734,2930.17C222.711,2930.11 222.694,2930.06 222.684,2930L221.003,2921.6C220.996,2921.57 220.991,2921.53 220.988,2921.5C220.985,2921.47 220.984,2921.44 220.984,2921.41C220.978,2919.93 219.922,2918.88 218.445,2918.88C216.964,2918.88 215.906,2919.94 215.906,2921.42L215.906,2924.67L219.187,2936.16L224.093,2941.06C224.418,2941.39 224.418,2941.92 224.093,2942.24C223.768,2942.57 223.24,2942.57 222.914,2942.24L217.86,2937.19C217.809,2937.14 217.764,2937.08 217.727,2937.02L217.725,2937.01C217.689,2936.95 217.661,2936.89 217.642,2936.82L214.275,2925.03C214.263,2924.99 214.253,2924.95 214.247,2924.91C214.241,2924.86 214.238,2924.82 214.239,2924.77L214.239,2921.42C214.239,2918.96 215.991,2917.21 218.445,2917.21C220.87,2917.21 222.61,2918.92 222.65,2921.33L222.67,2921.43L222.67,2902.87ZM220.131,2900.35L216.758,2900.35C216.299,2900.35 215.925,2900.72 215.925,2901.18C215.925,2901.64 216.299,2902.01 216.758,2902.01L220.131,2902.01C220.591,2902.01 220.964,2901.64 220.964,2901.18C220.964,2900.72 220.591,2900.35 220.131,2900.35ZM233.621,2902.01L236.994,2902.01C237.454,2902.01 237.827,2901.64 237.827,2901.18C237.827,2900.72 237.454,2900.35 236.994,2900.35L233.621,2900.35C233.161,2900.35 232.788,2900.72 232.788,2901.18C232.788,2901.64 233.161,2902.01 233.621,2902.01ZM232.524,2898.4L234.211,2896.71C234.536,2896.39 234.536,2895.86 234.211,2895.53C233.885,2895.21 233.357,2895.21 233.032,2895.53L231.346,2897.22C231.021,2897.55 231.021,2898.07 231.346,2898.4C231.671,2898.72 232.199,2898.72 232.524,2898.4ZM222.407,2897.22L220.72,2895.53C220.395,2895.21 219.867,2895.21 219.542,2895.53C219.217,2895.86 219.217,2896.39 219.542,2896.71L221.228,2898.4C221.553,2898.72 222.081,2898.72 222.407,2898.4C222.732,2898.07 222.732,2897.55 222.407,2897.22ZM227.71,2896.12L227.71,2892.75C227.71,2892.29 227.336,2891.92 226.876,2891.92C226.416,2891.92 226.043,2892.29 226.043,2892.75L226.043,2896.12C226.043,2896.58 226.416,2896.96 226.876,2896.96C227.336,2896.96 227.71,2896.58 227.71,2896.12Z"/>
    </g>
</svg>
