<?xml version="1.0" encoding="UTF-8" standalone="no"?>
<!DOCTYPE svg PUBLIC "-//W3C//DTD SVG 1.1//EN" "http://www.w3.org/Graphics/SVG/1.1/DTD/svg11.dtd">
<svg width="100%" height="100%" viewBox="0 0 70 70" version="1.1" xmlns="http://www.w3.org/2000/svg" xmlns:xlink="http://www.w3.org/1999/xlink" xml:space="preserve" xmlns:serif="http://www.serif.com/" style="fill-rule:evenodd;clip-rule:evenodd;stroke-linejoin:round;stroke-miterlimit:2;">
    <g transform="matrix(1,0,0,1,-279.161,-2886.58)">
        <path d="M285.787,2900.61C292.037,2892.06 302.155,2886.58 313.72,2886.58C333.014,2886.58 348.561,2901.84 348.561,2921.14C348.561,2940.43 333.012,2955.98 313.72,2955.98C294.427,2955.98 279.161,2940.43 279.161,2921.14C279.161,2914.01 281.241,2907.44 284.836,2901.98L280.613,2898.75C280.247,2898.47 280.177,2897.95 280.457,2897.58C280.736,2897.22 281.26,2897.15 281.625,2897.43L285.787,2900.61ZM346.894,2921.14C346.894,2939.51 332.089,2954.31 313.72,2954.31C295.353,2954.31 280.828,2939.5 280.828,2921.14C280.828,2902.77 295.355,2888.24 313.72,2888.24C332.087,2888.24 346.894,2902.77 346.894,2921.14ZM308.348,2950.08L307.023,2945.84C306.886,2945.4 307.131,2944.93 307.57,2944.79C308.009,2944.66 308.477,2944.9 308.614,2945.34L309.295,2947.52L310.13,2945.3C310.291,2944.87 310.772,2944.65 311.203,2944.81C311.633,2944.97 311.852,2945.45 311.69,2945.88L310.009,2950.36L309.452,2952.03C309.411,2952.16 309.342,2952.27 309.251,2952.36L308.97,2952.64C308.906,2952.7 308.833,2952.76 308.753,2952.8L308.191,2953.08C307.78,2953.28 307.279,2953.12 307.073,2952.71C306.867,2952.29 307.034,2951.79 307.446,2951.59L307.887,2951.37L307.933,2951.32L308.348,2950.08ZM313.861,2944.87C313.988,2944.8 314.133,2944.76 314.283,2944.76L315.407,2944.76C315.628,2944.76 315.84,2944.84 315.996,2945L316.558,2945.56C316.621,2945.62 316.674,2945.7 316.714,2945.78L316.995,2946.34C317.053,2946.45 317.083,2946.58 317.083,2946.71L317.083,2950.09C317.083,2950.55 316.71,2950.92 316.25,2950.92C315.79,2950.92 315.417,2950.55 315.417,2950.09L315.417,2946.91L315.284,2946.64L315.062,2946.42L314.628,2946.42L314.273,2946.78L314.273,2950.09C314.273,2950.55 313.899,2950.92 313.439,2950.92C312.979,2950.92 312.606,2950.55 312.606,2950.09L312.606,2945.59C312.606,2945.13 312.979,2944.76 313.439,2944.76C313.593,2944.76 313.737,2944.8 313.861,2944.87ZM324.109,2946.78L324.109,2950.09C324.109,2950.55 323.736,2950.92 323.276,2950.92C322.816,2950.92 322.443,2950.55 322.443,2950.09L322.443,2943.62C322.443,2943.16 322.816,2942.79 323.276,2942.79C323.736,2942.79 324.109,2943.16 324.109,2943.62L324.109,2944.76C324.113,2944.76 324.116,2944.76 324.119,2944.76L325.243,2944.76C325.464,2944.76 325.676,2944.84 325.833,2945L326.395,2945.56C326.458,2945.62 326.511,2945.7 326.551,2945.78L326.832,2946.34C326.89,2946.45 326.92,2946.58 326.92,2946.71L326.92,2950.09C326.92,2950.55 326.547,2950.92 326.087,2950.92C325.627,2950.92 325.253,2950.55 325.253,2950.09L325.253,2946.91L325.121,2946.64L324.898,2946.42L324.464,2946.42L324.109,2946.78ZM318.508,2944.76L318.508,2943.62C318.508,2943.16 318.881,2942.79 319.341,2942.79C319.801,2942.79 320.175,2943.16 320.175,2943.62L320.175,2944.76L321.028,2944.76C321.488,2944.76 321.861,2945.13 321.861,2945.59C321.861,2946.05 321.488,2946.42 321.028,2946.42L320.175,2946.42L320.175,2948.9L320.397,2949.12L320.662,2949.25L321.028,2949.25C321.488,2949.25 321.861,2949.63 321.861,2950.09C321.861,2950.55 321.488,2950.92 321.028,2950.92L320.466,2950.92C320.336,2950.92 320.209,2950.89 320.093,2950.83L319.531,2950.55C319.451,2950.51 319.378,2950.46 319.314,2950.39L318.752,2949.83C318.596,2949.67 318.508,2949.46 318.508,2949.24L318.508,2946.42L318.498,2946.42C318.038,2946.42 317.665,2946.05 317.665,2945.59C317.665,2945.13 318.038,2944.76 318.498,2944.76L318.508,2944.76ZM304.53,2948.67L303.603,2948.67C303.473,2948.67 303.346,2948.64 303.23,2948.58L302.668,2948.3C302.507,2948.22 302.376,2948.09 302.295,2947.93L302.014,2947.37C301.956,2947.25 301.926,2947.12 301.926,2946.99L301.926,2946.71C301.926,2946.58 301.956,2946.45 302.014,2946.34L302.295,2945.78C302.335,2945.7 302.388,2945.62 302.451,2945.56L303.013,2945C303.17,2944.84 303.382,2944.76 303.603,2944.76L304.727,2944.76C304.948,2944.76 305.16,2944.84 305.316,2945L305.878,2945.56C306.203,2945.89 306.203,2946.41 305.878,2946.74C305.553,2947.06 305.025,2947.06 304.7,2946.74L304.382,2946.42L303.948,2946.42L303.725,2946.64L303.621,2946.85L303.662,2946.93L303.799,2947L304.727,2947C304.856,2947 304.984,2947.03 305.1,2947.09L305.662,2947.37C305.859,2947.47 306.01,2947.64 306.08,2947.85L306.361,2948.7C306.389,2948.78 306.403,2948.87 306.403,2948.96L306.403,2949.24C306.403,2949.37 306.373,2949.5 306.315,2949.61L306.034,2950.18C305.954,2950.34 305.823,2950.47 305.662,2950.55L305.1,2950.83C304.984,2950.89 304.856,2950.92 304.727,2950.92L303.322,2950.92C303.192,2950.92 303.065,2950.89 302.949,2950.83L302.387,2950.55C301.975,2950.34 301.808,2949.84 302.014,2949.43C302.22,2949.02 302.721,2948.85 303.132,2949.06L303.518,2949.25L304.53,2949.25L304.668,2949.18L304.726,2949.07L304.608,2948.71L304.53,2948.67ZM319.632,2900.9C319.632,2898.45 321.385,2896.7 323.838,2896.7C326.292,2896.7 328.044,2898.45 328.044,2900.9L328.044,2931.24C328.045,2931.31 328.038,2931.38 328.023,2931.44L328.021,2931.45C328.005,2931.51 327.982,2931.58 327.952,2931.64L324.584,2938.37C324.378,2938.78 323.877,2938.95 323.466,2938.74C323.054,2938.54 322.887,2938.04 323.093,2937.63L326.377,2931.06L326.377,2900.9C326.377,2899.42 325.319,2898.36 323.838,2898.36C322.357,2898.36 321.299,2899.42 321.299,2900.9L321.299,2924.51C321.299,2924.97 320.926,2925.34 320.466,2925.34C320.192,2925.34 319.949,2925.21 319.797,2925.01C319.084,2925.58 318.154,2925.91 317.093,2925.91C315.727,2925.91 314.579,2925.36 313.829,2924.46C313.515,2925.11 313.052,2925.68 312.496,2926.05C312.468,2926.07 312.438,2926.08 312.407,2926.1C311.279,2926.66 310.151,2926.76 309.023,2926.4L306.012,2931.67C305.784,2932.07 305.275,2932.21 304.875,2931.98C304.476,2931.75 304.337,2931.24 304.565,2930.84L307.927,2924.96L309.596,2921.62C309.615,2921.58 309.638,2921.54 309.664,2921.5C309.695,2921.46 309.729,2921.42 309.766,2921.38C309.925,2921.22 309.977,2920.96 310.018,2920.72C310.069,2920.41 310.076,2920.11 310.076,2919.87C309.869,2919.31 309.521,2918.74 308.96,2918.55C308.837,2918.51 308.726,2918.45 308.634,2918.35C308.288,2918.01 307.759,2918.1 307.239,2918.27C307.154,2918.3 307.065,2918.32 306.975,2918.32C306.403,2918.32 306.083,2918.78 305.702,2919.35L305.687,2919.37L297.691,2930.68L297.691,2934.35L299.982,2937.4L303.26,2939.86C303.627,2940.14 303.702,2940.66 303.426,2941.03C303.15,2941.4 302.627,2941.47 302.26,2941.2L298.9,2938.68C298.864,2938.65 298.831,2938.62 298.799,2938.59L298.796,2938.59C298.765,2938.56 298.736,2938.52 298.71,2938.49L296.191,2935.13C296.139,2935.06 296.097,2934.98 296.069,2934.9L296.065,2934.89C296.039,2934.8 296.024,2934.72 296.024,2934.63L296.024,2930.41C296.024,2930.32 296.038,2930.24 296.063,2930.16L296.063,2930.16C296.089,2930.08 296.126,2930 296.177,2929.93L299.397,2925.38C299.397,2925.37 299.397,2925.36 299.397,2925.35L299.397,2900.9C299.397,2898.45 301.149,2896.7 303.603,2896.7C306.056,2896.7 307.809,2898.45 307.809,2900.9L307.809,2910.96C308.498,2910.47 309.367,2910.18 310.348,2910.18C311.781,2910.18 312.975,2910.78 313.72,2911.77C314.466,2910.78 315.66,2910.18 317.093,2910.18C318.074,2910.18 318.943,2910.47 319.632,2910.96L319.632,2900.9ZM312.887,2914.37C312.879,2912.9 311.823,2911.85 310.348,2911.85C308.867,2911.85 307.809,2912.91 307.809,2914.39L307.809,2916.47C308.507,2916.43 309.156,2916.61 309.668,2917.04C310.658,2917.45 311.359,2918.44 311.701,2919.47C311.729,2919.55 311.743,2919.64 311.743,2919.73C311.743,2920.12 311.737,2920.73 311.598,2921.3C311.493,2921.74 311.311,2922.14 311.041,2922.46L309.827,2924.88C310.423,2925 311.018,2924.92 311.613,2924.63C312.221,2924.2 312.606,2923.37 312.606,2922.54C312.606,2922.29 312.717,2922.07 312.892,2921.91C312.889,2921.84 312.887,2921.77 312.887,2921.7C312.887,2921.6 312.904,2921.51 312.936,2921.42C312.904,2921.33 312.887,2921.24 312.887,2921.14L312.887,2914.39C312.887,2914.39 312.887,2914.37 312.887,2914.37ZM319.632,2914.39C319.632,2912.91 318.574,2911.85 317.093,2911.85C315.612,2911.85 314.554,2912.91 314.554,2914.39L314.554,2921.14C314.554,2921.24 314.537,2921.33 314.505,2921.42C314.537,2921.51 314.554,2921.6 314.554,2921.7C314.554,2923.18 315.612,2924.24 317.093,2924.24C318.574,2924.24 319.632,2923.18 319.632,2921.7L319.632,2914.39ZM306.142,2900.9C306.142,2899.42 305.084,2898.36 303.603,2898.36C302.121,2898.36 301.063,2899.42 301.063,2900.9L301.063,2923.02L304.321,2918.42C304.864,2917.6 305.438,2917.03 306.142,2916.79L306.142,2900.9Z"/>
    </g>
</svg>
