<?xml version="1.0" encoding="UTF-8" standalone="no"?>
<!DOCTYPE svg PUBLIC "-//W3C//DTD SVG 1.1//EN" "http://www.w3.org/Graphics/SVG/1.1/DTD/svg11.dtd">
<svg width="100%" height="100%" viewBox="0 0 70 70" version="1.1" xmlns="http://www.w3.org/2000/svg" xmlns:xlink="http://www.w3.org/1999/xlink" xml:space="preserve" xmlns:serif="http://www.serif.com/" style="fill-rule:evenodd;clip-rule:evenodd;stroke-linejoin:round;stroke-miterlimit:2;">
    <g transform="matrix(1,0,0,1,-602.93,-2506.88)">
        <path d="M609.538,2520.94C615.786,2512.38 625.912,2506.88 637.489,2506.88C656.783,2506.88 672.329,2522.15 672.329,2541.44C672.329,2560.73 656.781,2576.28 637.489,2576.28C618.195,2576.28 602.93,2560.73 602.93,2541.44C602.93,2534.33 605.004,2527.76 608.589,2522.31L604.407,2519.36C604.031,2519.09 603.941,2518.57 604.206,2518.19C604.472,2517.82 604.992,2517.73 605.368,2517.99L609.538,2520.94ZM670.663,2541.44C670.663,2559.81 655.858,2574.61 637.489,2574.61C619.122,2574.61 604.596,2559.81 604.596,2541.44C604.596,2523.07 619.124,2508.55 637.489,2508.55C655.856,2508.55 670.663,2523.07 670.663,2541.44ZM628.786,2533.85C628.786,2528.62 633.097,2524.3 638.332,2524.3C643.567,2524.3 647.878,2528.62 647.878,2533.85L647.878,2536.39L648.169,2536.39L648.203,2536.39L648.234,2536.39L648.266,2536.4L648.297,2536.4L648.328,2536.41L648.358,2536.41L648.388,2536.42L648.418,2536.43L648.447,2536.44L648.476,2536.45L648.503,2536.46L648.531,2536.47L648.557,2536.49L648.579,2536.5L648.601,2536.51C648.833,2536.65 648.991,2536.9 649.002,2537.19L649.002,2537.22L649.002,2552.68L649.001,2552.72L649,2552.75L648.996,2552.78L648.992,2552.81L648.986,2552.84L648.981,2552.87L648.977,2552.88C648.886,2553.25 648.559,2553.51 648.169,2553.51L628.214,2553.51L628.18,2553.51L628.149,2553.51L628.117,2553.51L628.086,2553.51L628.055,2553.5L628.025,2553.49L627.995,2553.49L627.966,2553.48L627.942,2553.47L627.933,2553.47C627.613,2553.35 627.383,2553.05 627.381,2552.69L627.381,2552.68L627.381,2537.22L627.382,2537.19L627.384,2537.15L627.386,2537.13L627.387,2537.12C627.437,2536.71 627.789,2536.39 628.214,2536.39L628.786,2536.39L628.786,2533.85ZM629.048,2538.06L629.048,2551.85L647.335,2551.85L647.335,2538.06L629.048,2538.06ZM637.489,2541.17L639.737,2541.17L639.772,2541.17L639.803,2541.17L639.835,2541.17L639.866,2541.18L639.897,2541.18L639.927,2541.19L639.957,2541.2L639.986,2541.21L640.015,2541.22L640.039,2541.22L640.062,2541.23C640.358,2541.36 640.566,2541.65 640.571,2541.99L640.571,2542L640.571,2547.34L640.57,2547.38L640.568,2547.41L640.564,2547.44L640.559,2547.48L640.554,2547.51L640.548,2547.53L640.547,2547.54C640.458,2547.9 640.129,2548.18 639.737,2548.18L637.489,2548.18L637.455,2548.17L637.423,2548.17L637.392,2548.17L637.36,2548.16L637.324,2548.16L637.288,2548.15L637.256,2548.14L637.227,2548.13L637.198,2548.12L637.169,2548.11L637.146,2548.1L637.123,2548.09L637.101,2548.08L637.096,2548.08C636.842,2547.94 636.666,2547.68 636.656,2547.37L636.656,2547.34L636.656,2542L636.656,2541.97L636.658,2541.93L636.661,2541.9L636.666,2541.87L636.671,2541.84L636.677,2541.81L636.681,2541.8C636.771,2541.44 637.099,2541.17 637.489,2541.17ZM638.322,2542.84L638.322,2546.51L638.904,2546.51L638.904,2542.84L638.322,2542.84ZM646.211,2533.85C646.211,2529.53 642.653,2525.97 638.332,2525.97C634.011,2525.97 630.453,2529.53 630.453,2533.85L630.453,2536.39L630.754,2536.39L630.754,2533.85C630.754,2529.75 634.227,2526.27 638.332,2526.27C642.437,2526.27 645.911,2529.75 645.911,2533.85C645.911,2534.1 645.802,2534.32 645.63,2534.47L645.63,2536.39L646.211,2536.39L646.211,2533.85ZM644.213,2533.26C643.903,2530.32 641.334,2527.94 638.332,2527.94C635.13,2527.94 632.42,2530.65 632.42,2533.85L632.42,2536.39L643.963,2536.39L643.963,2533.85C643.963,2533.78 643.971,2533.72 643.987,2533.65C644.023,2533.5 644.102,2533.37 644.211,2533.26L644.213,2533.26Z"/>
    </g>
</svg>
