<?xml version="1.0" encoding="UTF-8" standalone="no"?>
<!DOCTYPE svg PUBLIC "-//W3C//DTD SVG 1.1//EN" "http://www.w3.org/Graphics/SVG/1.1/DTD/svg11.dtd">
<svg width="100%" height="100%" viewBox="0 0 70 70" version="1.1" xmlns="http://www.w3.org/2000/svg" xmlns:xlink="http://www.w3.org/1999/xlink" xml:space="preserve" xmlns:serif="http://www.serif.com/" style="fill-rule:evenodd;clip-rule:evenodd;stroke-linejoin:round;stroke-miterlimit:2;">
    <g transform="matrix(1,0,0,1,-360.103,-2886.58)">
        <path d="M366.729,2900.61C372.98,2892.06 383.097,2886.58 394.663,2886.58C413.956,2886.58 429.503,2901.84 429.503,2921.14C429.503,2940.43 413.954,2955.98 394.663,2955.98C375.369,2955.98 360.103,2940.43 360.103,2921.14C360.103,2914.01 362.183,2907.44 365.778,2901.98L361.555,2898.75C361.189,2898.47 361.119,2897.95 361.399,2897.58C361.678,2897.22 362.202,2897.15 362.567,2897.43L366.729,2900.61ZM427.836,2921.14C427.836,2939.51 413.031,2954.31 394.663,2954.31C376.296,2954.31 361.77,2939.5 361.77,2921.14C361.77,2902.77 376.297,2888.24 394.663,2888.24C413.029,2888.24 427.836,2902.77 427.836,2921.14ZM386.653,2944.87C386.779,2944.8 386.925,2944.76 387.074,2944.76L387.917,2944.76C388.082,2944.76 388.243,2944.8 388.38,2944.89L389.223,2945.46C389.343,2945.54 389.441,2945.65 389.506,2945.78L389.787,2946.34C389.845,2946.45 389.875,2946.58 389.875,2946.71L389.875,2950.09C389.875,2950.55 389.501,2950.92 389.042,2950.92C388.582,2950.92 388.208,2950.55 388.208,2950.09L388.208,2946.91L388.114,2946.72L387.665,2946.42L387.419,2946.42L387.064,2946.78L387.064,2950.09C387.064,2950.55 386.691,2950.92 386.231,2950.92C385.771,2950.92 385.398,2950.55 385.398,2950.09L385.398,2945.59C385.398,2945.13 385.771,2944.76 386.231,2944.76C386.385,2944.76 386.529,2944.8 386.653,2944.87ZM399.45,2944.76L399.45,2944.46C399.45,2944.33 399.48,2944.21 399.538,2944.09L399.819,2943.53C399.918,2943.33 400.091,2943.18 400.301,2943.11L401.144,2942.83C401.229,2942.8 401.318,2942.79 401.408,2942.79L401.97,2942.79C402.43,2942.79 402.803,2943.16 402.803,2943.62C402.803,2944.08 402.43,2944.45 401.97,2944.45L401.543,2944.45L401.156,2944.58L401.117,2944.66L401.117,2944.76L401.97,2944.76C402.265,2944.76 402.524,2944.91 402.672,2945.14C402.719,2945.07 402.778,2945 402.85,2944.94C403.207,2944.65 403.732,2944.7 404.022,2945.06L405.202,2946.51L406.382,2945.06C406.672,2944.7 407.197,2944.65 407.554,2944.94C407.911,2945.23 407.966,2945.76 407.676,2946.11L406.276,2947.84L407.676,2949.56C407.966,2949.92 407.911,2950.44 407.554,2950.73C407.197,2951.02 406.672,2950.97 406.382,2950.61L405.202,2949.16L404.022,2950.61C403.732,2950.97 403.207,2951.02 402.85,2950.73C402.493,2950.44 402.438,2949.92 402.728,2949.56L404.128,2947.84L402.728,2946.11C402.709,2946.09 402.692,2946.07 402.675,2946.04L402.672,2946.04C402.524,2946.27 402.265,2946.42 401.97,2946.42L401.117,2946.42L401.117,2950.09C401.117,2950.55 400.743,2950.92 400.284,2950.92C399.824,2950.92 399.45,2950.55 399.45,2950.09L399.45,2946.42L399.44,2946.42C398.98,2946.42 398.607,2946.05 398.607,2945.59C398.607,2945.13 398.98,2944.76 399.44,2944.76L399.45,2944.76ZM382.413,2944.88L382.344,2944.84L382.269,2944.77L381.988,2944.49C381.832,2944.34 381.744,2944.12 381.744,2943.9C381.744,2943.68 381.832,2943.47 381.988,2943.31L382.27,2943.03C382.314,2942.99 382.365,2942.95 382.42,2942.91C382.666,2942.76 382.973,2942.75 383.231,2942.88L383.793,2943.16C384.076,2943.3 384.254,2943.59 384.254,2943.9C384.254,2944.22 384.076,2944.51 383.793,2944.65L383.308,2944.89C383.539,2945.03 383.692,2945.29 383.692,2945.59L383.692,2950.09C383.692,2950.55 383.318,2950.92 382.859,2950.92C382.399,2950.92 382.025,2950.55 382.025,2950.09L382.025,2945.59C382.025,2945.29 382.18,2945.03 382.413,2944.88ZM394.893,2947.55L391.831,2946.37C391.402,2946.2 391.19,2945.72 391.356,2945.29C391.523,2944.86 392.006,2944.64 392.435,2944.81L397.494,2946.78C397.814,2946.9 398.025,2947.21 398.025,2947.55C398.025,2947.9 397.814,2948.21 397.494,2948.33L392.435,2950.3C392.006,2950.47 391.523,2950.25 391.356,2949.83C391.19,2949.4 391.402,2948.91 391.831,2948.75L394.893,2947.55ZM383.048,2943.81L383.167,2943.93L383.167,2943.55L383.048,2943.53L383.048,2943.81ZM392.659,2919.52C392.756,2919.48 392.864,2919.46 392.976,2919.46L398.035,2919.46C398.148,2919.46 398.255,2919.48 398.353,2919.52L398.355,2919.52C398.453,2919.57 398.545,2919.63 398.624,2919.7L400.311,2921.39L401.997,2923.08C402.077,2923.16 402.137,2923.25 402.177,2923.35L402.178,2923.35C402.219,2923.45 402.241,2923.55 402.241,2923.67L402.241,2933.78C402.241,2934.24 401.868,2934.62 401.408,2934.62C400.948,2934.62 400.574,2934.24 400.574,2933.78L400.574,2927.87L390.437,2927.87L390.437,2933.78C390.437,2934.24 390.064,2934.62 389.604,2934.62C389.144,2934.62 388.77,2934.24 388.77,2933.78L388.77,2923.67C388.77,2923.55 388.793,2923.45 388.833,2923.35L388.834,2923.35C388.875,2923.25 388.935,2923.16 389.014,2923.08L392.387,2919.7C392.467,2919.63 392.558,2919.57 392.656,2919.52L392.659,2919.52ZM377.757,2900.91C377.868,2900.91 377.982,2900.92 378.092,2900.96C378.192,2901 378.281,2901.06 378.356,2901.12L378.358,2901.13C378.433,2901.19 378.497,2901.28 378.545,2901.37L385.06,2914.4L408.153,2914.4C408.265,2914.4 408.373,2914.42 408.471,2914.46L408.473,2914.47C408.571,2914.51 408.663,2914.57 408.742,2914.64L422.232,2928.14C422.558,2928.46 422.558,2928.99 422.232,2929.31C421.907,2929.64 421.379,2929.64 421.054,2929.31L407.808,2916.07L384.556,2916.07C384.538,2916.07 384.519,2916.07 384.5,2916.07C384.356,2916.06 384.222,2916.01 384.107,2915.94C383.991,2915.87 383.891,2915.77 383.82,2915.65C383.811,2915.63 383.802,2915.61 383.794,2915.6L377.909,2903.83L368.462,2929.02C368.301,2929.45 367.82,2929.67 367.389,2929.51C366.959,2929.34 366.74,2928.86 366.902,2928.43L377.019,2901.45C377.057,2901.35 377.112,2901.26 377.179,2901.19L377.181,2901.18C377.249,2901.11 377.331,2901.05 377.427,2901C377.533,2900.95 377.644,2900.92 377.755,2900.91L377.757,2900.91ZM397.69,2921.13L393.321,2921.13L390.437,2924.01L390.437,2926.2L400.574,2926.2L400.574,2924.01L399.132,2922.57L397.69,2921.13Z"/>
    </g>
</svg>
