<?xml version="1.0" encoding="UTF-8" standalone="no"?>
<!DOCTYPE svg PUBLIC "-//W3C//DTD SVG 1.1//EN" "http://www.w3.org/Graphics/SVG/1.1/DTD/svg11.dtd">
<svg width="100%" height="100%" viewBox="0 0 70 70" version="1.1" xmlns="http://www.w3.org/2000/svg" xmlns:xlink="http://www.w3.org/1999/xlink" xml:space="preserve" xmlns:serif="http://www.serif.com/" style="fill-rule:evenodd;clip-rule:evenodd;stroke-linejoin:round;stroke-miterlimit:2;">
    <g transform="matrix(1,0,0,1,-441.045,-2886.58)">
        <path d="M447.671,2900.61C453.922,2892.06 464.039,2886.58 475.605,2886.58C494.898,2886.58 510.445,2901.84 510.445,2921.14C510.445,2940.43 494.896,2955.98 475.605,2955.98C456.311,2955.98 441.045,2940.43 441.045,2921.14C441.045,2914.01 443.125,2907.44 446.72,2901.98L442.497,2898.75C442.131,2898.47 442.062,2897.95 442.341,2897.58C442.62,2897.22 443.144,2897.15 443.509,2897.43L447.671,2900.61ZM508.778,2921.14C508.778,2939.51 493.974,2954.31 475.605,2954.31C457.238,2954.31 442.712,2939.5 442.712,2921.14C442.712,2902.77 457.24,2888.24 475.605,2888.24C493.972,2888.24 508.778,2902.77 508.778,2921.14ZM471.756,2949.2L471.329,2950.37C471.207,2950.7 470.884,2950.93 470.527,2950.92C470.169,2950.91 469.857,2950.67 469.75,2950.33L468.345,2945.84C468.208,2945.4 468.453,2944.93 468.892,2944.79C469.331,2944.66 469.799,2944.9 469.936,2945.34L470.606,2947.48L470.887,2946.71C471.003,2946.39 471.299,2946.17 471.638,2946.16C471.976,2946.15 472.289,2946.34 472.429,2946.65L472.846,2947.57L473.391,2945.39C473.503,2944.94 473.955,2944.67 474.402,2944.78C474.848,2944.89 475.119,2945.34 475.008,2945.79L473.884,2950.29C473.798,2950.63 473.504,2950.88 473.151,2950.91C472.798,2950.95 472.463,2950.75 472.317,2950.43L471.756,2949.2ZM481.516,2944.76L481.516,2943.62C481.516,2943.16 481.89,2942.79 482.35,2942.79C482.81,2942.79 483.183,2943.16 483.183,2943.62L483.183,2944.76L484.036,2944.76C484.496,2944.76 484.869,2945.13 484.869,2945.59C484.869,2946.05 484.496,2946.42 484.036,2946.42L483.183,2946.42L483.183,2949.05L483.222,2949.12L483.609,2949.25L484.036,2949.25C484.496,2949.25 484.869,2949.63 484.869,2950.09C484.869,2950.55 484.496,2950.92 484.036,2950.92L483.474,2950.92C483.384,2950.92 483.295,2950.9 483.21,2950.88L482.367,2950.59C482.158,2950.52 481.984,2950.37 481.886,2950.18L481.604,2949.61C481.547,2949.5 481.516,2949.37 481.516,2949.24L481.516,2946.42L481.507,2946.42C481.047,2946.42 480.673,2946.05 480.673,2945.59C480.673,2945.13 481.047,2944.76 481.507,2944.76L481.516,2944.76ZM478.5,2949.25L478.886,2949.06C479.297,2948.85 479.798,2949.02 480.004,2949.43C480.209,2949.84 480.042,2950.34 479.631,2950.55L479.069,2950.83C478.953,2950.89 478.826,2950.92 478.696,2950.92L477.291,2950.92C477.162,2950.92 477.034,2950.89 476.918,2950.83L476.356,2950.55C476.195,2950.47 476.064,2950.34 475.984,2950.18L475.703,2949.61C475.645,2949.5 475.615,2949.37 475.615,2949.24L475.615,2946.71C475.615,2946.58 475.645,2946.45 475.703,2946.34L475.984,2945.78C476.024,2945.7 476.076,2945.62 476.14,2945.56L476.702,2945C476.858,2944.84 477.07,2944.76 477.291,2944.76L478.696,2944.76C478.917,2944.76 479.129,2944.84 479.286,2945L479.848,2945.56C479.911,2945.62 479.964,2945.7 480.004,2945.78L480.285,2946.34C480.343,2946.45 480.373,2946.58 480.373,2946.71L480.373,2947.27C480.373,2947.68 480.085,2948.02 479.688,2948.09L477.281,2948.53L477.281,2949.05L477.35,2949.18L477.488,2949.25L478.5,2949.25ZM477.636,2946.42L477.414,2946.64L477.32,2946.83L478.539,2946.61L478.351,2946.42L477.636,2946.42ZM472.232,2919.46L480.664,2919.46C480.772,2919.46 480.878,2919.48 480.978,2919.52L480.984,2919.52C481.082,2919.57 481.173,2919.63 481.253,2919.7L484.625,2923.08C484.705,2923.16 484.765,2923.25 484.806,2923.35L484.807,2923.35C484.847,2923.45 484.869,2923.55 484.869,2923.67L484.869,2930.41C484.869,2930.52 484.847,2930.63 484.807,2930.73L484.806,2930.73C484.765,2930.83 484.705,2930.92 484.625,2931L481.253,2934.37C481.173,2934.45 481.082,2934.51 480.984,2934.55L480.981,2934.55C480.883,2934.6 480.776,2934.62 480.664,2934.62L472.232,2934.62L472.197,2934.62L472.166,2934.62L472.135,2934.61L472.1,2934.61L472.069,2934.6L472.044,2934.6L472.024,2934.59C471.665,2934.5 471.399,2934.17 471.399,2933.78L471.399,2933.78L471.399,2920.29L471.399,2920.26L471.401,2920.23L471.404,2920.2L471.409,2920.16L471.415,2920.13L471.42,2920.11L471.424,2920.09C471.515,2919.73 471.842,2919.46 472.232,2919.46ZM473.065,2921.13L473.065,2932.95L480.318,2932.95L483.203,2930.07L483.203,2924.01L480.318,2921.13L473.065,2921.13ZM458.699,2900.91C458.81,2900.91 458.924,2900.92 459.034,2900.96C459.134,2901 459.223,2901.06 459.298,2901.12L459.3,2901.13C459.375,2901.19 459.439,2901.28 459.487,2901.37L466.002,2914.4L489.095,2914.4C489.208,2914.4 489.315,2914.42 489.413,2914.46L489.415,2914.47C489.513,2914.51 489.605,2914.57 489.684,2914.64L503.175,2928.14C503.5,2928.46 503.5,2928.99 503.175,2929.31C502.849,2929.64 502.321,2929.64 501.996,2929.31L488.75,2916.07L465.499,2916.07C465.48,2916.07 465.461,2916.07 465.442,2916.07C465.299,2916.06 465.164,2916.01 465.049,2915.94C464.933,2915.87 464.834,2915.77 464.762,2915.65C464.753,2915.63 464.744,2915.61 464.736,2915.6L458.851,2903.83L449.404,2929.02C449.243,2929.45 448.762,2929.67 448.331,2929.51C447.901,2929.34 447.682,2928.86 447.844,2928.43L457.961,2901.45C457.999,2901.35 458.054,2901.26 458.121,2901.19L458.123,2901.18C458.191,2901.11 458.273,2901.05 458.369,2901C458.475,2900.95 458.586,2900.92 458.697,2900.91L458.699,2900.91Z"/>
    </g>
</svg>
