<?xml version="1.0" encoding="UTF-8" standalone="no"?>
<!DOCTYPE svg PUBLIC "-//W3C//DTD SVG 1.1//EN" "http://www.w3.org/Graphics/SVG/1.1/DTD/svg11.dtd">
<svg width="100%" height="100%" viewBox="0 0 70 70" version="1.1" xmlns="http://www.w3.org/2000/svg" xmlns:xlink="http://www.w3.org/1999/xlink" xml:space="preserve" xmlns:serif="http://www.serif.com/" style="fill-rule:evenodd;clip-rule:evenodd;stroke-linejoin:round;stroke-miterlimit:2;">
    <g transform="matrix(1,0,0,1,-521.988,-2886.58)">
        <path d="M528.613,2900.61C534.864,2892.06 544.981,2886.58 556.547,2886.58C575.84,2886.58 591.387,2901.84 591.387,2921.14C591.387,2940.43 575.839,2955.98 556.547,2955.98C537.253,2955.98 521.988,2940.43 521.988,2921.14C521.988,2914.01 524.067,2907.44 527.662,2901.98L523.439,2898.75C523.074,2898.47 523.004,2897.95 523.283,2897.58C523.563,2897.22 524.086,2897.15 524.451,2897.43L528.613,2900.61ZM589.72,2921.14C589.72,2939.51 574.916,2954.31 556.547,2954.31C538.18,2954.31 523.654,2939.5 523.654,2921.14C523.654,2902.77 538.182,2888.24 556.547,2888.24C574.914,2888.24 589.72,2902.77 589.72,2921.14ZM557.942,2947.83L557.942,2950.09C557.942,2950.55 557.569,2950.92 557.109,2950.92C556.649,2950.92 556.276,2950.55 556.276,2950.09L556.276,2943.62C556.276,2943.16 556.649,2942.79 557.109,2942.79L559.638,2942.79C559.768,2942.79 559.895,2942.82 560.011,2942.88L560.573,2943.16C560.653,2943.2 560.726,2943.25 560.79,2943.31L561.633,2944.16C561.789,2944.31 561.877,2944.52 561.877,2944.74L561.877,2945.59C561.877,2945.75 561.828,2945.91 561.737,2946.05L561.175,2946.89C561.144,2946.94 561.11,2946.98 561.071,2947.02L560.79,2947.3C560.726,2947.37 560.653,2947.42 560.573,2947.46L560.011,2947.74C559.895,2947.8 559.768,2947.83 559.638,2947.83L557.942,2947.83ZM564.687,2947.55L564.687,2950.09C564.687,2950.55 564.314,2950.92 563.854,2950.92C563.394,2950.92 563.021,2950.55 563.021,2950.09L563.021,2943.62C563.021,2943.16 563.394,2942.79 563.854,2942.79L566.946,2942.79C567.406,2942.79 567.779,2943.16 567.779,2943.62C567.779,2944.08 567.406,2944.45 566.946,2944.45L564.687,2944.45L564.687,2945.88L566.103,2945.88C566.562,2945.88 566.936,2946.25 566.936,2946.71C566.936,2947.17 566.562,2947.55 566.103,2947.55L564.687,2947.55ZM553.184,2945.88L553.184,2943.62C553.184,2943.16 553.557,2942.79 554.017,2942.79C554.477,2942.79 554.851,2943.16 554.851,2943.62L554.851,2950.09C554.851,2950.55 554.477,2950.92 554.017,2950.92C553.557,2950.92 553.184,2950.55 553.184,2950.09L553.184,2947.55L550.916,2947.55L550.916,2950.09C550.916,2950.55 550.543,2950.92 550.083,2950.92C549.623,2950.92 549.249,2950.55 549.249,2950.09L549.249,2943.62C549.249,2943.16 549.623,2942.79 550.083,2942.79C550.543,2942.79 550.916,2943.16 550.916,2943.62L550.916,2945.88L553.184,2945.88ZM557.942,2944.45L557.942,2946.16L559.442,2946.16L559.707,2946.03L559.834,2945.9L560.21,2945.34L560.21,2945.09L559.707,2944.59L559.442,2944.45L557.942,2944.45ZM552.856,2919.52C552.954,2919.48 553.062,2919.46 553.174,2919.46L558.233,2919.46C558.346,2919.46 558.453,2919.48 558.551,2919.52L558.553,2919.52C558.651,2919.57 558.743,2919.63 558.822,2919.7L562.195,2923.08C562.52,2923.4 562.52,2923.93 562.195,2924.26C561.87,2924.58 561.342,2924.58 561.016,2924.26L557.888,2921.13L553.519,2921.13L550.98,2923.67L553.519,2926.2L558.233,2926.2C558.346,2926.2 558.453,2926.23 558.551,2926.27L558.553,2926.27C558.651,2926.31 558.743,2926.37 558.822,2926.45L562.195,2929.82L562.219,2929.85L562.24,2929.87L562.26,2929.89L562.279,2929.92L562.297,2929.95L562.317,2929.98L562.335,2930.01L562.351,2930.04L562.366,2930.07L562.378,2930.1L562.389,2930.13L562.399,2930.16L562.407,2930.18L562.415,2930.21L562.422,2930.24L562.427,2930.27L562.432,2930.31L562.436,2930.34L562.438,2930.38L562.439,2930.41L562.438,2930.45L562.436,2930.48L562.432,2930.52L562.428,2930.55L562.422,2930.58L562.416,2930.61L562.408,2930.64L562.4,2930.66L562.39,2930.69L562.379,2930.72L562.365,2930.76L562.35,2930.79L562.333,2930.82L562.316,2930.85L562.299,2930.87L562.281,2930.9L562.262,2930.93L562.242,2930.95L562.221,2930.97L562.195,2931L558.822,2934.37C558.743,2934.45 558.651,2934.51 558.553,2934.55L558.551,2934.55C558.453,2934.6 558.346,2934.62 558.233,2934.62L553.174,2934.62C553.062,2934.62 552.954,2934.6 552.856,2934.55L552.854,2934.55C552.756,2934.51 552.664,2934.45 552.585,2934.37L549.212,2931C548.887,2930.68 548.887,2930.15 549.212,2929.82C549.538,2929.5 550.066,2929.5 550.391,2929.82L553.519,2932.95L557.888,2932.95L560.427,2930.41L557.888,2927.87L553.174,2927.87C553.066,2927.87 552.959,2927.85 552.859,2927.81L552.854,2927.81C552.756,2927.77 552.664,2927.71 552.585,2927.63L549.212,2924.26L549.189,2924.23L549.168,2924.21L549.147,2924.18L549.128,2924.16L549.11,2924.13L549.091,2924.1L549.072,2924.07L549.057,2924.04L549.041,2924.01L549.029,2923.98L549.019,2923.95L549.009,2923.92L549,2923.89L548.992,2923.86L548.986,2923.84L548.98,2923.81L548.975,2923.77L548.971,2923.74L548.969,2923.7L548.968,2923.66L548.969,2923.63L548.972,2923.59L548.975,2923.56L548.98,2923.53L548.985,2923.5L548.991,2923.47L548.999,2923.44L549.008,2923.41L549.017,2923.38L549.028,2923.36L549.042,2923.32L549.058,2923.29L549.075,2923.26L549.092,2923.23L549.109,2923.2L549.126,2923.18L549.145,2923.15L549.165,2923.13L549.186,2923.1L549.212,2923.08L552.585,2919.7C552.664,2919.63 552.756,2919.57 552.854,2919.52L552.856,2919.52ZM539.641,2900.91C539.752,2900.91 539.866,2900.92 539.976,2900.96C540.077,2901 540.165,2901.06 540.24,2901.12L540.243,2901.13C540.318,2901.19 540.381,2901.28 540.429,2901.37L546.944,2914.4L570.037,2914.4C570.15,2914.4 570.257,2914.42 570.355,2914.46L570.357,2914.47C570.455,2914.51 570.547,2914.57 570.626,2914.64L584.117,2928.14C584.442,2928.46 584.442,2928.99 584.117,2929.31C583.792,2929.64 583.263,2929.64 582.938,2929.31L569.692,2916.07L546.441,2916.07C546.422,2916.07 546.403,2916.07 546.385,2916.07C546.241,2916.06 546.107,2916.01 545.991,2915.94C545.875,2915.87 545.776,2915.77 545.705,2915.65C545.695,2915.63 545.687,2915.61 545.678,2915.6L539.793,2903.83L530.346,2929.02C530.185,2929.45 529.704,2929.67 529.273,2929.51C528.843,2929.34 528.624,2928.86 528.786,2928.43L538.904,2901.45C538.941,2901.35 538.996,2901.26 539.063,2901.19L539.065,2901.18C539.133,2901.11 539.216,2901.05 539.311,2901C539.417,2900.95 539.528,2900.92 539.639,2900.91L539.641,2900.91Z"/>
    </g>
</svg>
