<?xml version="1.0" encoding="UTF-8" standalone="no"?>
<!DOCTYPE svg PUBLIC "-//W3C//DTD SVG 1.1//EN" "http://www.w3.org/Graphics/SVG/1.1/DTD/svg11.dtd">
<svg width="100%" height="100%" viewBox="0 0 70 70" version="1.1" xmlns="http://www.w3.org/2000/svg" xmlns:xlink="http://www.w3.org/1999/xlink" xml:space="preserve" xmlns:serif="http://www.serif.com/" style="fill-rule:evenodd;clip-rule:evenodd;stroke-linejoin:round;stroke-miterlimit:2;">
    <g transform="matrix(1,0,0,1,-602.93,-2886.58)">
        <path d="M609.556,2900.61C615.806,2892.06 625.923,2886.58 637.489,2886.58C656.783,2886.58 672.329,2901.84 672.329,2921.14C672.329,2940.43 656.781,2955.98 637.489,2955.98C618.195,2955.98 602.93,2940.43 602.93,2921.14C602.93,2914.01 605.009,2907.44 608.604,2901.98L604.381,2898.75C604.016,2898.47 603.946,2897.95 604.225,2897.58C604.505,2897.22 605.028,2897.15 605.393,2897.43L609.556,2900.61ZM670.663,2921.14C670.663,2939.51 655.858,2954.31 637.489,2954.31C619.122,2954.31 604.596,2939.5 604.596,2921.14C604.596,2902.77 619.124,2888.24 637.489,2888.24C655.856,2888.24 670.663,2902.77 670.663,2921.14ZM629.057,2944.97C629.211,2944.83 629.411,2944.76 629.62,2944.76L630.463,2944.76C630.923,2944.76 631.296,2945.13 631.296,2945.59C631.296,2946.05 630.923,2946.42 630.463,2946.42L629.965,2946.42L629.461,2946.93L629.329,2947.19L629.329,2950.09C629.329,2950.55 628.955,2950.92 628.495,2950.92C628.035,2950.92 627.662,2950.55 627.662,2950.09L627.662,2945.59C627.662,2945.13 628.035,2944.76 628.495,2944.76C628.712,2944.76 628.909,2944.84 629.057,2944.97ZM644.154,2950.84L643.58,2950.55C643.5,2950.51 643.427,2950.46 643.364,2950.39L643.083,2950.11C643.019,2950.05 642.967,2949.97 642.927,2949.89L642.646,2949.33C642.588,2949.22 642.558,2949.09 642.558,2948.96L642.558,2946.99C642.558,2946.86 642.588,2946.74 642.646,2946.62L642.927,2946.06C642.967,2945.98 643.019,2945.91 643.083,2945.84L643.926,2945C644.082,2944.84 644.294,2944.76 644.515,2944.76L645.639,2944.76C645.86,2944.76 646.072,2944.84 646.229,2945L647.072,2945.84C647.135,2945.91 647.188,2945.98 647.228,2946.06L647.509,2946.62C647.567,2946.74 647.597,2946.86 647.597,2946.99L647.597,2948.96C647.597,2949.09 647.567,2949.22 647.509,2949.33L647.228,2949.89C647.188,2949.97 647.135,2950.05 647.072,2950.11L646.791,2950.39C646.727,2950.46 646.654,2950.51 646.574,2950.55L646.012,2950.83C645.896,2950.89 645.769,2950.92 645.639,2950.92L644.462,2950.92L644.307,2950.89L644.154,2950.84ZM639.602,2948.67L638.894,2948.67C638.765,2948.67 638.637,2948.64 638.521,2948.58L637.959,2948.3C637.798,2948.22 637.667,2948.09 637.587,2947.93L637.306,2947.37C637.248,2947.25 637.218,2947.12 637.218,2946.99L637.218,2946.71C637.218,2946.58 637.248,2946.45 637.306,2946.34L637.587,2945.78C637.627,2945.7 637.679,2945.62 637.743,2945.56L638.305,2945C638.461,2944.84 638.673,2944.76 638.894,2944.76L639.737,2944.76C639.902,2944.76 640.063,2944.8 640.2,2944.89L641.043,2945.46C641.425,2945.71 641.529,2946.23 641.274,2946.61C641.019,2946.99 640.501,2947.1 640.118,2946.84L639.485,2946.42L639.239,2946.42L639.017,2946.64L638.912,2946.85L638.953,2946.93L639.091,2947L639.737,2947C639.827,2947 639.916,2947.02 640.001,2947.05L640.844,2947.33C641.093,2947.41 641.288,2947.61 641.371,2947.85L641.652,2948.7C641.68,2948.78 641.695,2948.87 641.695,2948.96L641.695,2949.24C641.695,2949.37 641.665,2949.5 641.607,2949.61L641.326,2950.18C641.227,2950.37 641.054,2950.52 640.844,2950.59L640.001,2950.88C639.916,2950.9 639.827,2950.92 639.737,2950.92L638.613,2950.92C638.484,2950.92 638.356,2950.89 638.24,2950.83L637.678,2950.55C637.267,2950.34 637.1,2949.84 637.306,2949.43C637.511,2949.02 638.012,2948.85 638.424,2949.06L638.81,2949.25L639.602,2949.25L639.989,2949.12L640.018,2949.07L639.922,2948.78L639.602,2948.67ZM631.316,2949.24L631.316,2946.71C631.316,2946.49 631.403,2946.28 631.56,2946.12L632.684,2945C632.84,2944.84 633.052,2944.76 633.273,2944.76L634.397,2944.76C634.562,2944.76 634.723,2944.8 634.86,2944.89L635.703,2945.46C635.823,2945.54 635.921,2945.65 635.986,2945.78L636.267,2946.34C636.325,2946.45 636.355,2946.58 636.355,2946.71L636.355,2947.27C636.355,2947.68 636.06,2948.03 635.659,2948.1L632.982,2948.54L632.982,2948.9L633.205,2949.12L633.47,2949.25L634.262,2949.25L634.977,2949.01C635.413,2948.87 635.886,2949.1 636.031,2949.54C636.177,2949.98 635.94,2950.45 635.504,2950.59L634.661,2950.88C634.576,2950.9 634.487,2950.92 634.397,2950.92L633.273,2950.92C633.144,2950.92 633.016,2950.89 632.901,2950.83L632.338,2950.55C632.258,2950.51 632.185,2950.46 632.122,2950.39L631.56,2949.83C631.403,2949.67 631.316,2949.46 631.316,2949.24ZM644.86,2946.42L644.357,2946.93L644.224,2947.19L644.224,2948.76L644.357,2949.03L644.447,2949.12L644.712,2949.25L645.443,2949.25L645.708,2949.12L645.798,2949.03L645.93,2948.76L645.93,2947.19L645.798,2946.93L645.294,2946.42L644.86,2946.42ZM633.618,2946.42L633.228,2946.81L634.43,2946.61L634.145,2946.42L633.618,2946.42ZM630.744,2919.46L639.175,2919.46C639.288,2919.46 639.395,2919.48 639.493,2919.52L639.495,2919.52C639.593,2919.57 639.685,2919.63 639.764,2919.7L643.137,2923.08L643.161,2923.1L643.182,2923.13L643.202,2923.15L643.221,2923.18L643.239,2923.2L643.259,2923.23L643.277,2923.26L643.293,2923.29L643.308,2923.32L643.32,2923.35L643.331,2923.38L643.341,2923.41L643.349,2923.44L643.357,2923.47L643.364,2923.5L643.369,2923.53L643.374,2923.56L643.378,2923.59L643.38,2923.63L643.381,2923.66L643.38,2923.7L643.378,2923.73L643.375,2923.77L643.37,2923.8L643.363,2923.84L643.356,2923.87L643.346,2923.91L643.335,2923.94L643.323,2923.97L643.309,2924.01L643.294,2924.04L643.278,2924.07L643.263,2924.09L643.247,2924.12L643.229,2924.15L643.211,2924.17L643.191,2924.2L643.17,2924.22L643.148,2924.24L643.137,2924.26L640.354,2927.04L643.137,2929.82C643.217,2929.9 643.277,2929.99 643.317,2930.09L643.318,2930.09C643.359,2930.19 643.381,2930.3 643.381,2930.41L643.381,2933.78C643.381,2934.24 643.008,2934.62 642.548,2934.62C642.088,2934.62 641.714,2934.24 641.714,2933.78L641.714,2930.76L638.83,2927.87L631.577,2927.87L631.577,2933.78C631.577,2934.24 631.204,2934.62 630.744,2934.62C630.284,2934.62 629.91,2934.24 629.91,2933.78L629.91,2920.29L629.911,2920.26L629.913,2920.23L629.917,2920.19L629.922,2920.16L629.927,2920.13L629.933,2920.1L629.935,2920.09C630.026,2919.73 630.354,2919.46 630.744,2919.46ZM620.583,2900.91C620.694,2900.91 620.808,2900.92 620.919,2900.96C621.019,2901 621.107,2901.06 621.183,2901.12L621.185,2901.13C621.26,2901.19 621.324,2901.28 621.371,2901.37L627.886,2914.4L650.979,2914.4C651.092,2914.4 651.199,2914.42 651.297,2914.46L651.299,2914.47C651.397,2914.51 651.489,2914.57 651.568,2914.64L665.059,2928.14C665.384,2928.46 665.384,2928.99 665.059,2929.31C664.734,2929.64 664.206,2929.64 663.88,2929.31L650.634,2916.07L627.383,2916.07C627.364,2916.07 627.345,2916.07 627.327,2916.07C627.183,2916.06 627.049,2916.01 626.933,2915.94C626.817,2915.87 626.718,2915.77 626.647,2915.65C626.637,2915.63 626.629,2915.61 626.621,2915.6L620.735,2903.83L611.288,2929.02C611.127,2929.45 610.646,2929.67 610.216,2929.51C609.785,2929.34 609.566,2928.86 609.728,2928.43L619.846,2901.45C619.883,2901.35 619.938,2901.26 620.006,2901.19L620.008,2901.18C620.075,2901.11 620.158,2901.05 620.253,2901C620.359,2900.95 620.47,2900.92 620.581,2900.91L620.583,2900.91ZM631.577,2921.13L631.577,2926.2L638.83,2926.2L641.369,2923.67L638.83,2921.13L631.577,2921.13Z"/>
    </g>
</svg>
