<?xml version="1.0" encoding="UTF-8" standalone="no"?>
<!DOCTYPE svg PUBLIC "-//W3C//DTD SVG 1.1//EN" "http://www.w3.org/Graphics/SVG/1.1/DTD/svg11.dtd">
<svg width="100%" height="100%" viewBox="0 0 70 70" version="1.1" xmlns="http://www.w3.org/2000/svg" xmlns:xlink="http://www.w3.org/1999/xlink" xml:space="preserve" xmlns:serif="http://www.serif.com/" style="fill-rule:evenodd;clip-rule:evenodd;stroke-linejoin:round;stroke-miterlimit:2;">
    <g transform="matrix(1,0,0,1,-683.872,-2886.58)">
        <path d="M690.498,2900.61C696.748,2892.06 706.865,2886.58 718.431,2886.58C737.725,2886.58 753.271,2901.84 753.271,2921.14C753.271,2940.43 737.723,2955.98 718.431,2955.98C702.965,2955.98 690.088,2945.99 685.587,2932.09C685.361,2932.1 685.132,2932.02 684.959,2931.84C684.634,2931.52 684.634,2930.99 684.959,2930.66L685.117,2930.51C684.305,2927.53 683.872,2924.39 683.872,2921.14C683.872,2914.01 685.951,2907.44 689.546,2901.98L685.323,2898.75C684.958,2898.47 684.888,2897.95 685.167,2897.58C685.447,2897.22 685.97,2897.15 686.336,2897.43L690.498,2900.61ZM718.416,2954.31L718.431,2954.31C736.8,2954.31 751.605,2939.51 751.605,2921.14C751.605,2902.77 736.798,2888.24 718.431,2888.24C700.066,2888.24 685.538,2902.77 685.538,2921.14C685.538,2923.9 685.867,2926.58 686.486,2929.14L691.7,2923.93C691.709,2923.91 691.718,2923.91 691.727,2923.9C691.785,2923.84 691.849,2923.8 691.917,2923.77L691.936,2923.76L691.943,2923.75C692.057,2923.7 692.18,2923.68 692.303,2923.68L692.333,2923.68L692.348,2923.68C692.47,2923.69 692.591,2923.72 692.701,2923.78L692.719,2923.79L692.726,2923.8C692.791,2923.84 692.851,2923.89 692.905,2923.94C692.914,2923.95 692.922,2923.96 692.93,2923.97L717.554,2952.7L739.686,2924.01C739.699,2923.99 739.713,2923.97 739.727,2923.96C739.779,2923.9 739.839,2923.85 739.903,2923.81L739.921,2923.8L739.925,2923.79C740.039,2923.72 740.166,2923.69 740.295,2923.68L740.304,2923.68C740.433,2923.67 740.563,2923.69 740.685,2923.74L740.704,2923.75L740.71,2923.76C740.778,2923.79 740.844,2923.83 740.903,2923.88C740.92,2923.9 740.935,2923.91 740.95,2923.93L748.53,2931.51C748.856,2931.83 748.856,2932.36 748.53,2932.69C748.205,2933.01 747.677,2933.01 747.352,2932.69L740.434,2925.77L718.416,2954.31ZM716.702,2954.27L692.246,2925.74L686.991,2930.99C690.942,2943.99 702.545,2953.54 716.702,2954.27ZM734.722,2913.55C734.722,2903.82 726.474,2895.85 716.745,2895.85C707.012,2895.85 699.048,2903.82 699.048,2913.55C699.048,2923.28 707.016,2931.53 716.745,2931.53C726.47,2931.53 734.722,2923.27 734.722,2913.55ZM729.202,2903.28C726.179,2899.77 721.669,2897.52 716.745,2897.52C707.928,2897.52 700.715,2904.73 700.715,2913.55C700.715,2922.37 707.925,2929.86 716.745,2929.86C725.569,2929.86 733.055,2922.37 733.055,2913.55C733.055,2910.25 732.006,2907.17 730.23,2904.61L724.079,2910.76C723.754,2911.09 723.226,2911.09 722.901,2910.76C722.575,2910.44 722.575,2909.91 722.901,2909.59L729.202,2903.28ZM719.458,2912.58C719.502,2912.61 719.544,2912.64 719.582,2912.68L720.145,2913.24C720.183,2913.28 720.218,2913.32 720.249,2913.37L720.811,2914.21C720.902,2914.35 720.951,2914.51 720.951,2914.67L720.951,2916.36C720.951,2916.52 720.902,2916.68 720.811,2916.82L720.249,2917.66C720.218,2917.71 720.183,2917.75 720.145,2917.79L719.582,2918.35C719.491,2918.45 719.379,2918.51 719.257,2918.55L718.414,2918.84C718.329,2918.86 718.24,2918.88 718.15,2918.88L714.215,2918.88C713.755,2918.88 713.382,2918.51 713.382,2918.05L713.382,2907.93C713.382,2907.47 713.755,2907.09 714.215,2907.09L717.588,2907.09C717.752,2907.09 717.913,2907.14 718.05,2907.23L718.893,2907.8C718.939,2907.83 718.982,2907.86 719.02,2907.9L719.582,2908.46C719.621,2908.5 719.656,2908.54 719.687,2908.59L720.249,2909.43C720.34,2909.57 720.389,2909.73 720.389,2909.89L720.389,2911.02C720.389,2911.18 720.34,2911.34 720.249,2911.48L719.687,2912.32C719.656,2912.37 719.621,2912.41 719.582,2912.45L719.458,2912.58ZM715.049,2913.82L715.049,2917.21L718.015,2917.21L718.543,2917.04L718.908,2916.67L719.284,2916.11L719.284,2914.93L718.908,2914.36L718.582,2914.03L717.505,2913.82L715.049,2913.82ZM715.049,2908.76L715.049,2912.15L717.336,2912.15L717.9,2911.78L718.346,2911.33L718.722,2910.77L718.722,2910.15L718.346,2909.58L717.9,2909.14L717.336,2908.76L715.049,2908.76Z"/>
    </g>
</svg>
