<?xml version="1.0" encoding="UTF-8" standalone="no"?>
<!DOCTYPE svg PUBLIC "-//W3C//DTD SVG 1.1//EN" "http://www.w3.org/Graphics/SVG/1.1/DTD/svg11.dtd">
<svg width="100%" height="100%" viewBox="0 0 70 70" version="1.1" xmlns="http://www.w3.org/2000/svg" xmlns:xlink="http://www.w3.org/1999/xlink" xml:space="preserve" xmlns:serif="http://www.serif.com/" style="fill-rule:evenodd;clip-rule:evenodd;stroke-linejoin:round;stroke-miterlimit:2;">
    <g transform="matrix(1,0,0,1,-198.219,-2962.46)">
        <path d="M204.845,2976.49C211.095,2967.95 221.213,2962.46 232.778,2962.46C252.072,2962.46 267.619,2977.73 267.619,2997.02C267.619,3016.31 252.07,3031.86 232.778,3031.86C213.485,3031.86 198.219,3016.31 198.219,2997.02C198.219,2989.9 200.299,2983.33 203.893,2977.87L199.67,2974.64C199.305,2974.36 199.235,2973.83 199.515,2973.47C199.794,2973.1 200.317,2973.03 200.683,2973.31L204.845,2976.49ZM265.952,2997.02C265.952,3015.39 251.147,3030.19 232.778,3030.19C214.411,3030.19 199.886,3015.39 199.886,2997.02C199.886,2978.66 214.413,2964.13 232.778,2964.13C251.145,2964.13 265.952,2978.65 265.952,2997.02ZM238.922,3004.82C238.824,3004.78 238.733,3004.72 238.653,3004.64L233.594,2999.58C233.269,2999.25 233.269,2998.72 233.594,2998.4C233.92,2998.07 234.448,2998.07 234.773,2998.4L239.588,3003.21L247.348,3003.21L245.398,3001.26C245.073,3000.94 245.073,3000.41 245.398,3000.08C245.724,2999.76 246.252,2999.76 246.577,3000.08L249.949,3003.46L249.973,3003.48L249.994,3003.51L250.014,3003.53L250.033,3003.55L250.051,3003.58L250.071,3003.61L250.089,3003.64L250.105,3003.67L250.12,3003.7L250.131,3003.73C250.171,3003.83 250.193,3003.93 250.193,3004.05C250.193,3004.16 250.171,3004.27 250.131,3004.36L250.117,3004.39L250.102,3004.43L250.086,3004.46L250.067,3004.49L250.05,3004.51L250.032,3004.54L250.013,3004.56L249.993,3004.59L249.972,3004.61L249.949,3004.64L246.577,3008.01C246.252,3008.33 245.724,3008.33 245.398,3008.01C245.073,3007.68 245.073,3007.16 245.398,3006.83L247.348,3004.88L239.242,3004.88C239.13,3004.88 239.023,3004.86 238.925,3004.82L238.922,3004.82ZM247.348,2988.88L245.398,2986.93C245.073,2986.6 245.073,2986.08 245.398,2985.75C245.724,2985.43 246.252,2985.43 246.577,2985.75L249.949,2989.12L249.973,2989.15L249.994,2989.17L250.014,2989.2L250.033,2989.22L250.048,2989.24L250.059,2989.26C250.087,2989.3 250.11,2989.35 250.13,2989.39L250.131,2989.39C250.171,2989.49 250.193,2989.6 250.193,2989.71C250.193,2989.83 250.171,2989.93 250.131,2990.03L250.13,2990.03C250.089,2990.13 250.029,2990.22 249.949,2990.3C249.949,2990.3 246.577,2993.67 246.577,2993.67C246.252,2994 245.724,2994 245.398,2993.67C245.073,2993.35 245.073,2992.82 245.398,2992.5L247.348,2990.55L239.588,2990.55L225.498,3004.64C225.419,3004.72 225.327,3004.78 225.229,3004.82L225.227,3004.82C225.129,3004.86 225.021,3004.88 224.909,3004.88L218.489,3004.88L220.439,3006.83C220.765,3007.16 220.765,3007.68 220.439,3008.01C220.114,3008.33 219.586,3008.33 219.261,3008.01L215.888,3004.64L215.864,3004.61L215.843,3004.59L215.823,3004.56L215.804,3004.54L215.786,3004.51L215.766,3004.48L215.748,3004.45L215.733,3004.42L215.719,3004.39L215.707,3004.36C215.666,3004.27 215.644,3004.16 215.644,3004.05C215.644,3003.93 215.666,3003.83 215.707,3003.73L215.721,3003.7L215.735,3003.67L215.749,3003.64L215.765,3003.61L215.781,3003.59L215.799,3003.56L215.818,3003.54L215.838,3003.51L215.859,3003.49L215.881,3003.46L215.888,3003.46C215.888,3003.46 219.261,3000.08 219.261,3000.08C219.586,2999.76 220.114,2999.76 220.439,3000.08C220.765,3000.41 220.765,3000.94 220.439,3001.26L218.489,3003.21L224.564,3003.21L238.653,2989.12C238.73,2989.05 238.82,2988.99 238.919,2988.94L238.925,2988.94C239.023,2988.9 239.13,2988.88 239.242,2988.88L247.348,2988.88ZM215.888,2989.12L219.261,2985.75C219.586,2985.43 220.114,2985.43 220.439,2985.75C220.765,2986.08 220.765,2986.6 220.439,2986.93L218.489,2988.88L224.909,2988.88C225.017,2988.88 225.124,2988.9 225.224,2988.94L225.229,2988.94C225.327,2988.98 225.419,2989.04 225.498,2989.12L230.557,2994.18C230.882,2994.51 230.882,2995.04 230.557,2995.36C230.232,2995.69 229.704,2995.69 229.379,2995.36L224.564,2990.55L218.489,2990.55L220.439,2992.5C220.765,2992.82 220.765,2993.35 220.439,2993.67C220.114,2994 219.586,2994 219.261,2993.67L215.888,2990.3L215.864,2990.28L215.843,2990.25L215.823,2990.23L215.804,2990.2L215.786,2990.18L215.766,2990.15L215.748,2990.12L215.733,2990.09L215.717,2990.05L215.707,2990.03C215.666,2989.93 215.644,2989.83 215.644,2989.71C215.644,2989.6 215.666,2989.49 215.707,2989.39L215.72,2989.36L215.736,2989.33L215.752,2989.3L215.77,2989.27L215.787,2989.24L215.805,2989.22L215.824,2989.2L215.845,2989.17L215.866,2989.15L215.888,2989.12Z"/>
    </g>
</svg>
