<?xml version="1.0" encoding="UTF-8" standalone="no"?>
<!DOCTYPE svg PUBLIC "-//W3C//DTD SVG 1.1//EN" "http://www.w3.org/Graphics/SVG/1.1/DTD/svg11.dtd">
<svg width="100%" height="100%" viewBox="0 0 70 70" version="1.1" xmlns="http://www.w3.org/2000/svg" xmlns:xlink="http://www.w3.org/1999/xlink" xml:space="preserve" xmlns:serif="http://www.serif.com/" style="fill-rule:evenodd;clip-rule:evenodd;stroke-linejoin:round;stroke-miterlimit:2;">
    <g transform="matrix(1,0,0,1,-279.161,-2962.46)">
        <path d="M285.787,2976.49C292.037,2967.95 302.155,2962.46 313.72,2962.46C333.014,2962.46 348.561,2977.73 348.561,2997.02C348.561,3016.31 333.012,3031.86 313.72,3031.86C294.427,3031.86 279.161,3016.31 279.161,2997.02C279.161,2989.9 281.241,2983.33 284.836,2977.87L280.613,2974.64C280.247,2974.36 280.177,2973.83 280.457,2973.47C280.736,2973.1 281.26,2973.03 281.625,2973.31L285.787,2976.49ZM346.894,2997.02C346.894,3015.39 332.089,3030.19 313.72,3030.19C295.353,3030.19 280.828,3015.39 280.828,2997.02C280.828,2978.66 295.355,2964.13 313.72,2964.13C332.087,2964.13 346.894,2978.65 346.894,2997.02ZM316.521,3006.29C316.521,3005.62 316.302,3005.08 315.949,3004.67C315.456,3004.1 314.668,3003.78 313.72,3003.78C312.89,3003.78 312.282,3004.03 311.866,3004.44C311.451,3004.86 311.201,3005.46 311.201,3006.29C311.201,3007.24 311.527,3008.03 312.095,3008.52C312.503,3008.88 313.041,3009.1 313.72,3009.1C315.321,3009.1 316.521,3007.89 316.521,3006.29ZM314.854,3006.29C314.854,3006.94 314.368,3007.43 313.72,3007.43C313.105,3007.43 312.867,3006.91 312.867,3006.29C312.867,3006 312.898,3005.77 313.045,3005.62C313.192,3005.47 313.426,3005.44 313.72,3005.44C314.336,3005.44 314.854,3005.68 314.854,3006.29ZM302.76,2996.19L324.681,2996.19C325.141,2996.19 325.515,2996.56 325.515,2997.02C325.515,2997.48 325.141,2997.85 324.681,2997.85L302.76,2997.85C302.3,2997.85 301.926,2997.48 301.926,2997.02C301.926,2996.56 302.3,2996.19 302.76,2996.19ZM316.521,2987.74C316.521,2987.07 316.302,2986.53 315.949,2986.12C315.456,2985.55 314.668,2985.23 313.72,2985.23C312.89,2985.23 312.282,2985.48 311.866,2985.89C311.451,2986.31 311.201,2986.91 311.201,2987.74C311.201,2988.69 311.527,2989.48 312.095,2989.97C312.503,2990.33 313.041,2990.55 313.72,2990.55C315.321,2990.55 316.521,2989.35 316.521,2987.74ZM314.854,2987.74C314.854,2988.39 314.368,2988.88 313.72,2988.88C313.105,2988.88 312.867,2988.36 312.867,2987.74C312.867,2987.45 312.898,2987.22 313.045,2987.07C313.192,2986.92 313.426,2986.89 313.72,2986.89C314.336,2986.89 314.854,2987.13 314.854,2987.74Z"/>
    </g>
</svg>
