<?xml version="1.0" encoding="UTF-8" standalone="no"?>
<!DOCTYPE svg PUBLIC "-//W3C//DTD SVG 1.1//EN" "http://www.w3.org/Graphics/SVG/1.1/DTD/svg11.dtd">
<svg width="100%" height="100%" viewBox="0 0 70 70" version="1.1" xmlns="http://www.w3.org/2000/svg" xmlns:xlink="http://www.w3.org/1999/xlink" xml:space="preserve" xmlns:serif="http://www.serif.com/" style="fill-rule:evenodd;clip-rule:evenodd;stroke-linejoin:round;stroke-miterlimit:2;">
    <g transform="matrix(1,0,0,1,-360.103,-2962.46)">
        <path d="M366.729,2976.49C372.98,2967.95 383.097,2962.46 394.663,2962.46C413.956,2962.46 429.503,2977.73 429.503,2997.02C429.503,3016.31 413.954,3031.86 394.663,3031.86C375.369,3031.86 360.103,3016.31 360.103,2997.02C360.103,2989.9 362.183,2983.33 365.778,2977.87L361.555,2974.64C361.189,2974.36 361.119,2973.83 361.399,2973.47C361.678,2973.1 362.202,2973.03 362.567,2973.31L366.729,2976.49ZM427.836,2997.02C427.836,3015.39 413.031,3030.19 394.663,3030.19C376.296,3030.19 361.77,3015.39 361.77,2997.02C361.77,2978.66 376.297,2964.13 394.663,2964.13C413.029,2964.13 427.836,2978.65 427.836,2997.02ZM405.895,3005.45C405.895,3004.77 405.676,3004.23 405.322,3003.83C404.83,3003.26 404.041,3002.93 403.094,3002.93C402.263,3002.93 401.655,3003.18 401.24,3003.6C400.825,3004.01 400.574,3004.62 400.574,3005.45C400.574,3006.4 400.901,3007.19 401.469,3007.68C401.877,3008.03 402.415,3008.25 403.094,3008.25C404.694,3008.25 405.895,3007.05 405.895,3005.45ZM394.073,2996.43L404.191,2986.31C404.516,2985.99 405.044,2985.99 405.37,2986.31C405.695,2986.64 405.695,2987.17 405.37,2987.49L395.252,2997.61L385.134,3007.73C384.809,3008.05 384.281,3008.05 383.955,3007.73C383.63,3007.4 383.63,3006.87 383.955,3006.55L394.073,2996.43ZM404.228,3005.45C404.228,3006.1 403.742,3006.59 403.094,3006.59C402.478,3006.59 402.241,3006.07 402.241,3005.45C402.241,3005.16 402.271,3004.92 402.419,3004.78C402.566,3004.63 402.799,3004.6 403.094,3004.6C403.71,3004.6 404.228,3004.84 404.228,3005.45ZM389.032,2988.59C389.032,2987.91 388.813,2987.37 388.459,2986.96C387.967,2986.39 387.178,2986.07 386.231,2986.07C385.401,2986.07 384.792,2986.32 384.377,2986.73C383.962,2987.15 383.711,2987.76 383.711,2988.59C383.711,2989.54 384.038,2990.32 384.606,2990.82C385.014,2991.17 385.552,2991.39 386.231,2991.39C387.831,2991.39 389.032,2990.19 389.032,2988.59ZM387.365,2988.59C387.365,2989.24 386.879,2989.72 386.231,2989.72C385.615,2989.72 385.378,2989.2 385.378,2988.59C385.378,2988.29 385.408,2988.06 385.556,2987.91C385.703,2987.77 385.937,2987.74 386.231,2987.74C386.847,2987.74 387.365,2987.97 387.365,2988.59Z"/>
    </g>
</svg>
