<?xml version="1.0" encoding="UTF-8" standalone="no"?>
<!DOCTYPE svg PUBLIC "-//W3C//DTD SVG 1.1//EN" "http://www.w3.org/Graphics/SVG/1.1/DTD/svg11.dtd">
<svg width="100%" height="100%" viewBox="0 0 70 70" version="1.1" xmlns="http://www.w3.org/2000/svg" xmlns:xlink="http://www.w3.org/1999/xlink" xml:space="preserve" xmlns:serif="http://www.serif.com/" style="fill-rule:evenodd;clip-rule:evenodd;stroke-linejoin:round;stroke-miterlimit:2;">
    <g transform="matrix(1,0,0,1,-441.045,-2962.46)">
        <path d="M447.671,2976.49C453.922,2967.95 464.039,2962.46 475.605,2962.46C494.898,2962.46 510.445,2977.73 510.445,2997.02C510.445,3016.31 494.896,3031.86 475.605,3031.86C456.311,3031.86 441.045,3016.31 441.045,2997.02C441.045,2989.9 443.125,2983.33 446.72,2977.87L442.497,2974.64C442.131,2974.36 442.062,2973.83 442.341,2973.47C442.62,2973.1 443.144,2973.03 443.509,2973.31L447.671,2976.49ZM508.778,2997.02C508.778,3015.39 493.974,3030.19 475.605,3030.19C457.238,3030.19 442.712,3015.39 442.712,2997.02C442.712,2978.66 457.24,2964.13 475.605,2964.13C493.972,2964.13 508.778,2978.65 508.778,2997.02ZM500.046,3007.98L500.046,2987.74C500.046,2987.28 499.673,2986.91 499.213,2986.91C498.753,2986.91 498.379,2987.28 498.379,2987.74L498.379,3007.98C498.379,3008.44 498.753,3008.81 499.213,3008.81C499.673,3008.81 500.046,3008.44 500.046,3007.98ZM453.673,3007.98L453.673,2987.74C453.673,2987.28 453.3,2986.91 452.84,2986.91C452.38,2986.91 452.006,2987.28 452.006,2987.74L452.006,3007.98C452.006,3008.44 452.38,3008.81 452.84,3008.81C453.3,3008.81 453.673,3008.44 453.673,3007.98ZM453.914,3003.2L453.937,3003.18L458.152,2998.96C458.478,2998.64 459.006,2998.64 459.331,2998.96C459.656,2999.28 459.656,2999.81 459.331,3000.14L456.538,3002.93L495.515,3002.93L492.722,3000.14C492.396,2999.81 492.396,2999.28 492.722,2998.96C493.047,2998.64 493.575,2998.64 493.9,2998.96L498.116,3003.18L498.14,3003.2L498.161,3003.22L498.181,3003.25L498.2,3003.27L498.218,3003.3L498.238,3003.33L498.256,3003.36L498.271,3003.39L498.287,3003.42L498.297,3003.45C498.337,3003.55 498.36,3003.65 498.36,3003.76C498.36,3003.88 498.337,3003.99 498.297,3004.08L498.282,3004.12L498.267,3004.15L498.25,3004.18L498.234,3004.21L498.217,3004.23L498.199,3004.26L498.18,3004.28L498.159,3004.31L498.138,3004.33L498.116,3004.35L493.9,3008.57C493.575,3008.89 493.047,3008.89 492.722,3008.57C492.396,3008.24 492.396,3007.72 492.722,3007.39L495.515,3004.6L456.538,3004.6L459.331,3007.39C459.656,3007.72 459.656,3008.24 459.331,3008.57C459.006,3008.89 458.478,3008.89 458.152,3008.57L453.937,3004.35L453.913,3004.33L453.892,3004.31L453.872,3004.28L453.853,3004.26L453.835,3004.23L453.815,3004.2L453.797,3004.17L453.781,3004.14L453.766,3004.11L453.755,3004.08C453.715,3003.99 453.693,3003.88 453.693,3003.76C453.693,3003.65 453.715,3003.55 453.755,3003.45L453.769,3003.42L453.784,3003.38L453.8,3003.36L453.819,3003.32L453.836,3003.3L453.854,3003.27L453.873,3003.25L453.893,3003.22L453.914,3003.2ZM475.033,2991.96C475.033,2989.53 472.979,2987.76 470.546,2987.76C468.092,2987.76 466.34,2989.51 466.34,2991.96C466.34,2994.39 468.112,2996.45 470.546,2996.45C472.962,2996.45 475.033,2994.38 475.033,2991.96ZM496.955,2991.96C496.955,2989.53 494.901,2987.76 492.468,2987.76C490.014,2987.76 488.262,2989.51 488.262,2991.96C488.262,2994.39 490.034,2996.45 492.468,2996.45C494.884,2996.45 496.955,2994.38 496.955,2991.96ZM485.994,2991.96C485.994,2989.53 483.94,2987.76 481.507,2987.76C479.053,2987.76 477.301,2989.51 477.301,2991.96C477.301,2994.39 479.073,2996.45 481.507,2996.45C483.923,2996.45 485.994,2994.38 485.994,2991.96ZM464.072,2991.96C464.072,2989.53 462.018,2987.76 459.585,2987.76C457.131,2987.76 455.379,2989.51 455.379,2991.96C455.379,2994.39 457.152,2996.45 459.585,2996.45C462.001,2996.45 464.072,2994.38 464.072,2991.96ZM473.366,2991.96C473.366,2993.48 472.064,2994.78 470.546,2994.78C469.044,2994.78 468.007,2993.46 468.007,2991.96C468.007,2990.48 469.065,2989.42 470.546,2989.42C472.047,2989.42 473.366,2990.46 473.366,2991.96ZM495.288,2991.96C495.288,2993.48 493.986,2994.78 492.468,2994.78C490.966,2994.78 489.928,2993.46 489.928,2991.96C489.928,2990.48 490.986,2989.42 492.468,2989.42C493.969,2989.42 495.288,2990.46 495.288,2991.96ZM484.327,2991.96C484.327,2993.48 483.025,2994.78 481.507,2994.78C480.005,2994.78 478.967,2993.46 478.967,2991.96C478.967,2990.48 480.025,2989.42 481.507,2989.42C483.008,2989.42 484.327,2990.46 484.327,2991.96ZM462.405,2991.96C462.405,2993.48 461.104,2994.78 459.585,2994.78C458.083,2994.78 457.046,2993.46 457.046,2991.96C457.046,2990.48 458.104,2989.42 459.585,2989.42C461.086,2989.42 462.405,2990.46 462.405,2991.96Z"/>
    </g>
</svg>
