<?xml version="1.0" encoding="UTF-8" standalone="no"?>
<!DOCTYPE svg PUBLIC "-//W3C//DTD SVG 1.1//EN" "http://www.w3.org/Graphics/SVG/1.1/DTD/svg11.dtd">
<svg width="100%" height="100%" viewBox="0 0 70 70" version="1.1" xmlns="http://www.w3.org/2000/svg" xmlns:xlink="http://www.w3.org/1999/xlink" xml:space="preserve" xmlns:serif="http://www.serif.com/" style="fill-rule:evenodd;clip-rule:evenodd;stroke-linejoin:round;stroke-miterlimit:2;">
    <g transform="matrix(1,0,0,1,-521.988,-2962.46)">
        <path d="M528.613,2976.49C534.864,2967.95 544.981,2962.46 556.547,2962.46C575.84,2962.46 591.387,2977.73 591.387,2997.02C591.387,3016.31 575.839,3031.86 556.547,3031.86C537.253,3031.86 521.988,3016.31 521.988,2997.02C521.988,2989.9 524.067,2983.33 527.662,2977.87L523.439,2974.64C523.074,2974.36 523.004,2973.83 523.283,2973.47C523.563,2973.1 524.086,2973.03 524.451,2973.31L528.613,2976.49ZM589.72,2997.02C589.72,3015.39 574.916,3030.19 556.547,3030.19C538.18,3030.19 523.654,3015.39 523.654,2997.02C523.654,2978.66 538.182,2964.13 556.547,2964.13C574.914,2964.13 589.72,2978.65 589.72,2997.02ZM541.38,3025.69L541.38,3018.94C541.38,3018.48 541.753,3018.11 542.213,3018.11C542.312,3018.11 542.407,3018.13 542.495,3018.16C542.584,3018.13 542.679,3018.11 542.775,3018.11L543.9,3018.11C544.064,3018.11 544.225,3018.16 544.362,3018.25L545.205,3018.81C545.251,3018.84 545.293,3018.88 545.332,3018.91L545.613,3019.2C545.676,3019.26 545.729,3019.33 545.769,3019.41L546.05,3019.97C546.108,3020.09 546.138,3020.22 546.138,3020.35L546.138,3022.31C546.138,3022.44 546.108,3022.57 546.05,3022.69L545.769,3023.25C545.729,3023.33 545.676,3023.4 545.613,3023.47L545.332,3023.75C545.241,3023.84 545.129,3023.91 545.006,3023.95L544.163,3024.23C544.078,3024.26 543.989,3024.27 543.9,3024.27L543.047,3024.27L543.047,3025.69C543.047,3026.15 542.673,3026.52 542.213,3026.52C541.753,3026.52 541.38,3026.15 541.38,3025.69ZM557.119,3018.11L557.119,3016.97C557.119,3016.51 557.492,3016.14 557.952,3016.14C558.412,3016.14 558.785,3016.51 558.785,3016.97L558.785,3018.11L559.357,3018.11C559.817,3018.11 560.191,3018.48 560.191,3018.94C560.191,3019.4 559.817,3019.78 559.357,3019.78L558.785,3019.78L558.785,3022.4L558.854,3022.54L558.992,3022.61L559.357,3022.61C559.817,3022.61 560.191,3022.98 560.191,3023.44C560.191,3023.9 559.817,3024.27 559.357,3024.27L558.795,3024.27C558.666,3024.27 558.538,3024.24 558.422,3024.18L557.86,3023.9C557.699,3023.82 557.568,3023.69 557.488,3023.53L557.207,3022.97C557.149,3022.85 557.119,3022.72 557.119,3022.6L557.119,3019.78L557.109,3019.78C557.033,3019.78 556.958,3019.76 556.886,3019.74C556.753,3019.71 556.63,3019.64 556.53,3019.54C556.484,3019.5 556.442,3019.45 556.407,3019.39L556.406,3019.39C556.258,3019.62 555.999,3019.78 555.704,3019.78L554.851,3019.78L554.851,3022.25L555.073,3022.47L555.338,3022.61L555.704,3022.61C556.164,3022.61 556.537,3022.98 556.537,3023.44C556.537,3023.9 556.164,3024.27 555.704,3024.27L555.142,3024.27C555.012,3024.27 554.884,3024.24 554.769,3024.18L554.207,3023.9C554.127,3023.86 554.054,3023.81 553.99,3023.75L553.428,3023.18C553.272,3023.03 553.184,3022.82 553.184,3022.6L553.184,3019.78L553.174,3019.78C552.714,3019.78 552.341,3019.4 552.341,3018.94C552.341,3018.48 552.714,3018.11 553.174,3018.11L553.184,3018.11L553.184,3016.97C553.184,3016.51 553.557,3016.14 554.017,3016.14C554.477,3016.14 554.851,3016.51 554.851,3016.97L554.851,3018.11L555.704,3018.11C555.999,3018.11 556.258,3018.26 556.406,3018.49C556.554,3018.26 556.814,3018.11 557.109,3018.11L557.119,3018.11ZM571.997,3018.32L572.104,3018.25C572.241,3018.16 572.402,3018.11 572.567,3018.11L573.41,3018.11C573.631,3018.11 573.843,3018.2 573.999,3018.35L574.561,3018.91C574.624,3018.98 574.677,3019.05 574.717,3019.13L574.998,3019.69C575.056,3019.81 575.086,3019.94 575.086,3020.07L575.086,3023.44C575.086,3023.9 574.713,3024.27 574.253,3024.27C573.793,3024.27 573.42,3023.9 573.42,3023.44L573.42,3020.26L573.287,3020L573.065,3019.78L572.819,3019.78L572.276,3020.14L572.276,3023.44C572.276,3023.9 571.902,3024.27 571.442,3024.27C570.982,3024.27 570.609,3023.9 570.609,3023.44L570.609,3018.94C570.609,3018.48 570.982,3018.11 571.442,3018.11C571.655,3018.11 571.85,3018.19 571.997,3018.32ZM566.674,3023.44L566.674,3018.94C566.674,3018.48 567.048,3018.11 567.508,3018.11C567.724,3018.11 567.922,3018.19 568.07,3018.33C568.223,3018.19 568.423,3018.11 568.632,3018.11L569.194,3018.11C569.654,3018.11 570.027,3018.48 570.027,3018.94C570.027,3019.4 569.654,3019.78 569.194,3019.78L568.977,3019.78L568.474,3020.28L568.341,3020.54L568.341,3023.44C568.341,3023.9 567.968,3024.27 567.508,3024.27C567.048,3024.27 566.674,3023.9 566.674,3023.44ZM547.98,3020.33C547.814,3020.3 547.654,3020.22 547.526,3020.09C547.201,3019.77 547.201,3019.24 547.526,3018.91L548.088,3018.35C548.244,3018.2 548.456,3018.11 548.677,3018.11L550.083,3018.11C550.304,3018.11 550.516,3018.2 550.672,3018.35L551.234,3018.91C551.297,3018.98 551.35,3019.05 551.39,3019.13L551.671,3019.69C551.729,3019.81 551.759,3019.94 551.759,3020.07L551.759,3023.44C551.759,3023.9 551.386,3024.27 550.926,3024.27C550.827,3024.27 550.732,3024.26 550.644,3024.22C550.555,3024.26 550.46,3024.27 550.364,3024.27L548.677,3024.27C548.548,3024.27 548.42,3024.24 548.305,3024.18L547.743,3023.9C547.581,3023.82 547.451,3023.69 547.37,3023.53L547.089,3022.97C547.031,3022.85 547.001,3022.72 547.001,3022.6L547.001,3022.03C547.001,3021.94 547.015,3021.86 547.044,3021.77L547.325,3020.93C547.395,3020.72 547.545,3020.54 547.743,3020.45L547.98,3020.33ZM563.376,3022.61L563.762,3022.41C564.174,3022.21 564.675,3022.37 564.88,3022.78C565.086,3023.2 564.919,3023.7 564.508,3023.9L563.946,3024.18C563.83,3024.24 563.702,3024.27 563.573,3024.27L562.449,3024.27C562.359,3024.27 562.27,3024.26 562.185,3024.23L561.342,3023.95C561.132,3023.88 560.959,3023.73 560.86,3023.53L560.579,3022.97C560.521,3022.85 560.491,3022.72 560.491,3022.6L560.491,3020.07C560.491,3019.94 560.521,3019.81 560.579,3019.69L560.86,3019.13C560.925,3019 561.023,3018.89 561.143,3018.81L561.987,3018.25C562.123,3018.16 562.284,3018.11 562.449,3018.11L563.573,3018.11C563.794,3018.11 564.006,3018.2 564.162,3018.35L564.724,3018.91C564.788,3018.98 564.84,3019.05 564.88,3019.13L565.161,3019.69C565.219,3019.81 565.249,3019.94 565.249,3020.07L565.249,3020.63C565.249,3021.03 564.961,3021.38 564.565,3021.45L562.158,3021.89L562.158,3022.4L562.197,3022.48L562.584,3022.61L563.376,3022.61ZM543.047,3022.61L543.764,3022.61L544.293,3022.43L544.339,3022.38L544.471,3022.12L544.471,3020.54L544.339,3020.28L544.212,3020.15L543.647,3019.78L543.121,3019.78L543.047,3019.85L543.047,3022.61ZM550.093,3021.74L548.874,3021.74L548.797,3021.78L548.668,3022.17L548.668,3022.4L548.736,3022.54L548.874,3022.61L550.093,3022.61L550.093,3021.74ZM562.701,3019.78L562.252,3020.07L562.197,3020.18L563.416,3019.96L563.228,3019.78L562.701,3019.78ZM549.999,3020.08L549.96,3020L549.737,3019.78L549.023,3019.78L548.722,3020.08L549.999,3020.08ZM549.188,2993.13C547.018,2991.95 545.596,2989.59 545.596,2986.9C545.596,2983.05 548.482,2980.17 552.331,2980.17C556.169,2980.17 559.348,2983.07 559.348,2986.9C559.348,2989.59 557.777,2991.96 555.518,2993.14C558.695,2994.38 561.034,2997.4 561.034,3000.95C561.034,3005.62 556.993,3009.66 552.331,3009.66C547.661,3009.66 543.909,3005.63 543.909,3000.95C543.909,2997.39 546.083,2994.37 549.188,2993.13ZM559.367,3000.95C559.367,3004.72 556.1,3007.99 552.331,3007.99C548.57,3007.99 545.576,3004.72 545.576,3000.95C545.576,2997.2 548.578,2994.2 552.331,2994.2C556.092,2994.2 559.367,2997.19 559.367,3000.95ZM568.497,2997.56C568.33,2997.53 568.171,2997.46 568.043,2997.33C567.718,2997 567.717,2996.47 568.043,2996.15L568.605,2995.59C568.761,2995.43 568.973,2995.34 569.194,2995.34L570.599,2995.34C570.82,2995.34 571.032,2995.43 571.189,2995.59L571.751,2996.15C571.814,2996.21 571.867,2996.29 571.907,2996.37L572.188,2996.93C572.246,2997.04 572.276,2997.17 572.276,2997.3L572.276,3000.67C572.276,3001.13 571.902,3001.51 571.442,3001.51C571.344,3001.51 571.249,3001.49 571.161,3001.46C571.071,3001.49 570.976,3001.51 570.88,3001.51L569.194,3001.51C569.065,3001.51 568.937,3001.48 568.821,3001.42L568.259,3001.14C568.098,3001.06 567.967,3000.93 567.887,3000.76L567.606,3000.2C567.548,3000.09 567.518,2999.96 567.518,2999.83L567.518,2999.27C567.518,2999.18 567.532,2999.09 567.56,2999.01L567.841,2998.16C567.911,2997.95 568.062,2997.78 568.259,2997.68L568.497,2997.56ZM564.488,2998.11L565.322,2995.88C565.484,2995.45 565.964,2995.24 566.395,2995.4C566.826,2995.56 567.044,2996.04 566.883,2996.47L565.196,3000.97C565.071,3001.3 564.749,3001.52 564.393,3001.51C564.037,3001.5 563.727,3001.26 563.621,3000.92L562.216,2996.43C562.078,2995.99 562.323,2995.52 562.762,2995.38C563.201,2995.24 563.669,2995.49 563.806,2995.93L564.488,2998.11ZM570.609,2998.98L569.391,2998.98L569.313,2999.02L569.184,2999.4L569.184,2999.63L569.253,2999.77L569.391,2999.84L570.609,2999.84L570.609,2998.98ZM570.516,2997.31L570.476,2997.23L570.254,2997.01L569.539,2997.01L569.239,2997.31L570.516,2997.31ZM557.681,2986.9C557.681,2989.82 555.249,2992.25 552.331,2992.25C549.423,2992.25 547.262,2989.81 547.262,2986.9C547.262,2984.01 549.435,2981.83 552.331,2981.83C555.239,2981.83 557.681,2983.99 557.681,2986.9Z"/>
    </g>
</svg>
