<?xml version="1.0" encoding="UTF-8" standalone="no"?>
<!DOCTYPE svg PUBLIC "-//W3C//DTD SVG 1.1//EN" "http://www.w3.org/Graphics/SVG/1.1/DTD/svg11.dtd">
<svg width="100%" height="100%" viewBox="0 0 70 70" version="1.1" xmlns="http://www.w3.org/2000/svg" xmlns:xlink="http://www.w3.org/1999/xlink" xml:space="preserve" xmlns:serif="http://www.serif.com/" style="fill-rule:evenodd;clip-rule:evenodd;stroke-linejoin:round;stroke-miterlimit:2;">
    <g transform="matrix(1,0,0,1,-683.872,-2506.88)">
        <path d="M690.48,2520.94C696.728,2512.38 706.854,2506.88 718.431,2506.88C737.725,2506.88 753.271,2522.15 753.271,2541.44C753.271,2560.73 737.723,2576.28 718.431,2576.28C699.137,2576.28 683.872,2560.73 683.872,2541.44C683.872,2534.33 685.946,2527.76 689.531,2522.31L685.349,2519.36C684.973,2519.09 684.883,2518.57 685.149,2518.19C685.414,2517.82 685.934,2517.73 686.31,2517.99L690.48,2520.94ZM751.605,2541.44C751.605,2559.81 736.8,2574.61 718.431,2574.61C700.064,2574.61 685.538,2559.81 685.538,2541.44C685.538,2523.07 700.066,2508.55 718.431,2508.55C736.798,2508.55 751.605,2523.07 751.605,2541.44ZM715.911,2550.16L715.911,2525.7C715.911,2525.24 716.285,2524.87 716.745,2524.87C717.205,2524.87 717.578,2525.24 717.578,2525.7L717.578,2550.16L721.804,2550.16L721.838,2550.16L721.87,2550.16L721.901,2550.17L721.938,2550.17L721.971,2550.18L722.002,2550.18L722.027,2550.19L722.046,2550.2C722.388,2550.3 722.636,2550.62 722.637,2550.99L722.637,2550.99L722.637,2554.37L722.636,2554.4L722.634,2554.43L722.631,2554.47L722.627,2554.5L722.621,2554.53L722.614,2554.56L722.608,2554.59C722.512,2554.94 722.188,2555.2 721.804,2555.2L721.804,2555.2L717.578,2555.2L717.578,2559.43C717.578,2559.89 717.205,2560.26 716.745,2560.26C716.285,2560.26 715.911,2559.89 715.911,2559.43L715.911,2555.2L711.686,2555.2L711.651,2555.2L711.62,2555.2L711.588,2555.2L711.552,2555.19L711.518,2555.18L711.488,2555.18L711.458,2555.17L711.433,2555.16L711.409,2555.15C711.087,2555.04 710.855,2554.73 710.853,2554.37L710.853,2554.37L710.853,2550.99L710.853,2550.96L710.855,2550.93L710.858,2550.9L710.863,2550.86L710.869,2550.83L710.876,2550.8L710.884,2550.77L710.892,2550.74L710.893,2550.74C711.002,2550.4 711.315,2550.16 711.684,2550.16L711.686,2550.16L715.911,2550.16ZM729.402,2540.04L729.402,2525.7C729.402,2525.24 729.775,2524.87 730.235,2524.87C730.695,2524.87 731.069,2525.24 731.069,2525.7L731.069,2540.04L735.294,2540.04L735.328,2540.05L735.36,2540.05L735.397,2540.05L735.431,2540.05L735.462,2540.06L735.477,2540.06C735.849,2540.15 736.127,2540.48 736.127,2540.88L736.127,2544.25L736.127,2544.28L736.124,2544.32L736.121,2544.35L736.118,2544.38L736.117,2544.38C736.054,2544.78 735.709,2545.08 735.294,2545.08L731.069,2545.08L731.069,2559.43C731.069,2559.89 730.695,2560.26 730.235,2560.26C729.775,2560.26 729.402,2559.89 729.402,2559.43L729.402,2545.08L725.176,2545.08L725.142,2545.08L725.11,2545.08L725.073,2545.08L725.039,2545.07L725.014,2545.07L724.998,2545.06C724.624,2544.98 724.343,2544.65 724.343,2544.25L724.343,2540.88C724.343,2540.87 724.343,2540.87 724.343,2540.86C724.352,2540.41 724.722,2540.04 725.176,2540.04L729.402,2540.04ZM702.421,2531.61L702.421,2525.7C702.421,2525.24 702.794,2524.87 703.254,2524.87C703.714,2524.87 704.088,2525.24 704.088,2525.7L704.088,2531.61L708.313,2531.61L708.347,2531.61L708.379,2531.62L708.41,2531.62L708.442,2531.62L708.473,2531.63L708.503,2531.63L708.533,2531.64L708.568,2531.65L708.602,2531.66L708.635,2531.68L708.667,2531.69L708.699,2531.71L708.725,2531.72L708.75,2531.74L708.775,2531.75L708.787,2531.76C708.993,2531.9 709.132,2532.14 709.146,2532.4L709.147,2532.44L709.147,2532.45L709.147,2535.82L709.146,2535.85L709.144,2535.88L709.14,2535.92L709.135,2535.96L709.13,2535.99L709.124,2536.01L709.122,2536.02C709.031,2536.38 708.703,2536.65 708.313,2536.65L704.088,2536.65L704.088,2559.43C704.088,2559.89 703.714,2560.26 703.254,2560.26C702.794,2560.26 702.421,2559.89 702.421,2559.43L702.421,2536.65L698.195,2536.65L698.161,2536.65L698.13,2536.65L698.098,2536.65L698.067,2536.64L698.036,2536.64L698.006,2536.63L697.977,2536.62L697.952,2536.62L697.938,2536.61C697.606,2536.5 697.365,2536.19 697.362,2535.82L697.362,2535.82L697.362,2532.45L697.363,2532.41L697.365,2532.38L697.368,2532.35L697.368,2532.35C697.418,2531.93 697.77,2531.61 698.195,2531.61L702.421,2531.61ZM720.97,2553.53L720.97,2551.83L712.519,2551.83L712.519,2553.53L720.97,2553.53ZM726.01,2541.71L726.01,2543.42L734.461,2543.42L734.461,2541.71L726.01,2541.71ZM699.029,2534.99L707.48,2534.99L707.48,2533.28L699.029,2533.28L699.029,2534.99Z"/>
    </g>
</svg>
