<?xml version="1.0" encoding="UTF-8" standalone="no"?>
<!DOCTYPE svg PUBLIC "-//W3C//DTD SVG 1.1//EN" "http://www.w3.org/Graphics/SVG/1.1/DTD/svg11.dtd">
<svg width="100%" height="100%" viewBox="0 0 70 70" version="1.1" xmlns="http://www.w3.org/2000/svg" xmlns:xlink="http://www.w3.org/1999/xlink" xml:space="preserve" xmlns:serif="http://www.serif.com/" style="fill-rule:evenodd;clip-rule:evenodd;stroke-linejoin:round;stroke-miterlimit:2;">
    <g transform="matrix(1,0,0,1,-602.93,-2962.46)">
        <path d="M609.556,2976.49C615.806,2967.95 625.923,2962.46 637.489,2962.46C656.783,2962.46 672.329,2977.73 672.329,2997.02C672.329,3016.31 656.781,3031.86 637.489,3031.86C618.195,3031.86 602.93,3016.31 602.93,2997.02C602.93,2989.9 605.009,2983.33 608.604,2977.87L604.381,2974.64C604.016,2974.36 603.946,2973.83 604.225,2973.47C604.505,2973.1 605.028,2973.03 605.393,2973.31L609.556,2976.49ZM670.663,2997.02C670.663,3015.39 655.858,3030.19 637.489,3030.19C619.122,3030.19 604.596,3015.39 604.596,2997.02C604.596,2978.66 619.124,2964.13 637.489,2964.13C655.856,2964.13 670.663,2978.65 670.663,2997.02ZM642.558,3023.98L642.558,3019.78C642.558,3019.33 642.931,3018.95 643.391,3018.95C643.545,3018.95 643.689,3018.99 643.813,3019.07C643.94,3018.99 644.086,3018.95 644.234,3018.95L645.358,3018.95C645.579,3018.95 645.791,3019.04 645.948,3019.2L647.353,3020.6C647.509,3020.76 647.597,3020.97 647.597,3021.19L647.597,3023.16C647.597,3023.38 647.509,3023.59 647.353,3023.75L646.51,3024.59C646.446,3024.65 646.373,3024.71 646.293,3024.75L645.731,3025.03C645.615,3025.09 645.488,3025.12 645.358,3025.12L644.234,3025.12C644.231,3025.12 644.228,3025.12 644.224,3025.12L644.224,3026.53C644.224,3026.99 643.851,3027.36 643.391,3027.36C642.931,3027.36 642.558,3026.99 642.558,3026.53L642.558,3024.02C642.557,3024.01 642.557,3023.99 642.558,3023.98ZM629.985,3022.87L629.339,3022.87C629.209,3022.87 629.082,3022.84 628.966,3022.78L628.404,3022.5C628.324,3022.46 628.251,3022.41 628.187,3022.34L627.625,3021.78C627.469,3021.62 627.381,3021.41 627.381,3021.19L627.381,3020.91C627.381,3020.69 627.469,3020.48 627.625,3020.32L628.749,3019.2C628.906,3019.04 629.118,3018.95 629.339,3018.95L630.182,3018.95C630.403,3018.95 630.615,3019.04 630.771,3019.2L631.333,3019.76C631.658,3020.08 631.658,3020.61 631.333,3020.94C631.008,3021.26 630.48,3021.26 630.155,3020.94L629.837,3020.62L629.684,3020.62L629.252,3021.05L629.27,3021.07L629.535,3021.2L630.182,3021.2C630.311,3021.2 630.439,3021.23 630.554,3021.29L631.116,3021.57C631.246,3021.63 631.357,3021.73 631.437,3021.85L631.999,3022.7C632.091,3022.83 632.139,3022.99 632.139,3023.16L632.139,3023.44C632.139,3023.66 632.051,3023.87 631.895,3024.03L631.333,3024.59C631.27,3024.65 631.197,3024.71 631.116,3024.75L630.554,3025.03C630.439,3025.09 630.311,3025.12 630.182,3025.12L629.057,3025.12C628.968,3025.12 628.879,3025.1 628.794,3025.07L627.951,3024.79C627.514,3024.65 627.278,3024.17 627.424,3023.74C627.569,3023.3 628.042,3023.07 628.478,3023.21L629.193,3023.45L629.985,3023.45L630.25,3023.32L630.346,3023.22L630.173,3022.96L629.985,3022.87ZM639.541,3023.45L639.927,3023.26C640.338,3023.05 640.839,3023.22 641.045,3023.63C641.25,3024.04 641.084,3024.54 640.672,3024.75L640.11,3025.03C639.994,3025.09 639.867,3025.12 639.737,3025.12L638.332,3025.12C638.203,3025.12 638.075,3025.09 637.959,3025.03L637.397,3024.75C637.236,3024.66 637.105,3024.53 637.025,3024.37L636.744,3023.81C636.686,3023.7 636.656,3023.57 636.656,3023.44L636.656,3020.91C636.656,3020.78 636.686,3020.65 636.744,3020.54L637.025,3019.97C637.065,3019.89 637.117,3019.82 637.181,3019.76L637.743,3019.2C637.899,3019.04 638.111,3018.95 638.332,3018.95L639.737,3018.95C639.958,3018.95 640.17,3019.04 640.327,3019.2L640.889,3019.76C640.952,3019.82 641.005,3019.89 641.045,3019.97L641.326,3020.54C641.384,3020.65 641.414,3020.78 641.414,3020.91L641.414,3021.47C641.414,3021.87 641.126,3022.22 640.73,3022.29L638.322,3022.73L638.322,3023.24L638.391,3023.38L638.529,3023.45L639.541,3023.45ZM633.283,3018.95L633.283,3017.82C633.283,3017.36 633.656,3016.98 634.116,3016.98C634.576,3016.98 634.95,3017.36 634.95,3017.82L634.95,3018.95L635.522,3018.95C635.981,3018.95 636.355,3019.33 636.355,3019.78C636.355,3020.24 635.981,3020.62 635.522,3020.62L634.95,3020.62L634.95,3023.24L635.018,3023.38L635.156,3023.45L635.522,3023.45C635.981,3023.45 636.355,3023.82 636.355,3024.28C636.355,3024.74 635.981,3025.12 635.522,3025.12L634.959,3025.12C634.83,3025.12 634.703,3025.09 634.587,3025.03L634.025,3024.75C633.863,3024.66 633.733,3024.53 633.652,3024.37L633.371,3023.81C633.313,3023.7 633.283,3023.57 633.283,3023.44L633.283,3020.62L632.992,3020.62C632.532,3020.62 632.159,3020.24 632.159,3019.78C632.159,3019.33 632.532,3018.95 632.992,3018.95L633.283,3018.95ZM644.224,3023.4L644.369,3023.45L645.162,3023.45L645.427,3023.32L645.93,3022.81L645.93,3021.53L645.013,3020.62L644.486,3020.62L644.224,3020.79L644.224,3023.4ZM638.677,3020.62L638.455,3020.84L638.361,3021.03L639.58,3020.81L639.392,3020.62L638.677,3020.62ZM633.985,2971.74C634.034,2971.74 634.083,2971.73 634.132,2971.74L640.845,2971.74C640.895,2971.73 640.944,2971.74 640.992,2971.74C641.131,2971.77 641.258,2971.82 641.365,2971.91C641.472,2971.99 641.56,2972.09 641.619,2972.22C641.639,2972.26 641.656,2972.31 641.668,2972.36L646.064,2988.06L647.987,2984.02C647.248,2983.33 646.773,2982.31 646.773,2981.28C646.773,2979.41 648.268,2977.92 650.136,2977.92C650.332,2977.92 650.527,2977.94 650.72,2977.97L651.92,2975.57C652.126,2975.16 652.627,2974.99 653.038,2975.2C653.45,2975.4 653.617,2975.9 653.411,2976.31L652.265,2978.61C653.155,2979.22 653.78,2980.2 653.78,2981.28C653.78,2982.2 653.343,2983.12 652.658,2983.8C651.972,2984.49 651.05,2984.93 650.136,2984.93C649.899,2984.93 649.668,2984.89 649.445,2984.84L646.747,2990.5L651.45,3007.29C651.669,3007.44 651.813,3007.7 651.813,3007.98C651.813,3008.1 651.786,3008.22 651.739,3008.32L653.464,3014.49C653.476,3014.53 653.485,3014.57 653.491,3014.61C653.503,3014.7 653.501,3014.78 653.489,3014.86C653.467,3014.99 653.411,3015.12 653.329,3015.23C653.248,3015.34 653.141,3015.43 653.014,3015.48C652.94,3015.52 652.862,3015.54 652.779,3015.55C652.736,3015.56 652.692,3015.56 652.649,3015.56L622.329,3015.56C622.286,3015.56 622.242,3015.56 622.199,3015.55C622.116,3015.54 622.037,3015.52 621.964,3015.48C621.837,3015.43 621.73,3015.34 621.648,3015.23C621.567,3015.12 621.511,3014.99 621.489,3014.86C621.477,3014.78 621.475,3014.7 621.487,3014.61C621.493,3014.57 621.502,3014.53 621.514,3014.49L623.239,3008.33C623.192,3008.22 623.165,3008.1 623.165,3007.98C623.165,3007.7 623.309,3007.44 623.528,3007.29L633.31,2972.36C633.322,2972.31 633.339,2972.26 633.359,2972.22C633.417,2972.09 633.506,2971.99 633.613,2971.91C633.72,2971.82 633.847,2971.77 633.985,2971.74ZM650.145,3008.81L624.833,3008.81L623.411,3013.89L651.567,3013.89L650.145,3008.81ZM638.809,3007.15L649.678,3007.15L645.657,2992.78L638.809,3007.15ZM634.748,2973.4L625.3,3007.15L636.656,3007.15L636.656,2973.4L634.748,2973.4ZM638.322,2973.4L638.322,3004.3L644.974,2990.35L640.23,2973.4L638.322,2973.4ZM650.192,2979.59C650.173,2979.59 650.155,2979.59 650.136,2979.59C649.194,2979.59 648.44,2980.34 648.44,2981.28C648.44,2982.25 649.168,2983.26 650.136,2983.26C650.628,2983.26 651.11,2982.99 651.479,2982.62C651.848,2982.26 652.113,2981.77 652.113,2981.28C652.113,2980.77 651.831,2980.33 651.423,2980.02C651.184,2980.17 650.876,2980.19 650.607,2980.06C650.404,2979.96 650.26,2979.78 650.192,2979.59Z"/>
    </g>
</svg>
