<?xml version="1.0" encoding="UTF-8" standalone="no"?>
<!DOCTYPE svg PUBLIC "-//W3C//DTD SVG 1.1//EN" "http://www.w3.org/Graphics/SVG/1.1/DTD/svg11.dtd">
<svg width="100%" height="100%" viewBox="0 0 70 70" version="1.1" xmlns="http://www.w3.org/2000/svg" xmlns:xlink="http://www.w3.org/1999/xlink" xml:space="preserve" xmlns:serif="http://www.serif.com/" style="fill-rule:evenodd;clip-rule:evenodd;stroke-linejoin:round;stroke-miterlimit:2;">
    <g transform="matrix(1,0,0,1,-683.872,-2962.46)">
        <path d="M690.498,2976.49C696.748,2967.95 706.865,2962.46 718.431,2962.46C737.725,2962.46 753.271,2977.73 753.271,2997.02C753.271,3016.31 737.723,3031.86 718.431,3031.86C699.137,3031.86 683.872,3016.31 683.872,2997.02C683.872,2989.9 685.951,2983.33 689.546,2977.87L685.323,2974.64C684.958,2974.36 684.888,2973.83 685.167,2973.47C685.447,2973.1 685.97,2973.03 686.336,2973.31L690.498,2976.49ZM751.605,2997.02C751.605,3015.39 736.8,3030.19 718.431,3030.19C700.064,3030.19 685.538,3015.39 685.538,2997.02C685.538,2978.66 700.066,2964.13 718.431,2964.13C736.798,2964.13 751.605,2978.65 751.605,2997.02ZM691.902,2998.76C691.921,2998.74 691.941,2998.73 691.963,2998.71C692.079,2998.64 692.227,2998.63 692.36,2998.66C692.382,2998.66 692.405,2998.67 692.427,2998.68C692.456,2998.69 692.484,2998.7 692.512,2998.71C692.547,2998.72 692.581,2998.74 692.614,2998.76C692.655,2998.78 692.694,2998.8 692.731,2998.83C692.78,2998.87 692.825,2998.9 692.867,2998.95L692.89,2998.97C692.924,2999 692.955,2999.04 692.984,2999.07L717.554,3027.74L739.686,2999.05C739.699,2999.03 739.712,2999.01 739.727,2999C739.782,2998.94 739.844,2998.88 739.912,2998.84L739.914,2998.84C740.031,2998.77 740.163,2998.73 740.296,2998.72L740.303,2998.72C740.436,2998.71 740.572,2998.73 740.698,2998.79L740.7,2998.79C740.772,2998.83 740.841,2998.87 740.903,2998.92C740.92,2998.94 740.935,2998.95 740.951,2998.97L749.374,3007.39C749.699,3007.72 749.699,3008.24 749.374,3008.57C749.048,3008.89 748.52,3008.89 748.195,3008.57L740.434,3000.81L718.257,3029.56C718.237,3029.58 718.216,3029.61 718.193,3029.63L718.192,3029.63C718.135,3029.69 718.07,3029.74 718.001,3029.78C717.88,3029.85 717.745,3029.89 717.61,3029.89L717.608,3029.89C717.474,3029.9 717.338,3029.87 717.213,3029.8C717.141,3029.77 717.074,3029.72 717.014,3029.66L717.014,3029.66C716.989,3029.64 716.966,3029.62 716.945,3029.59L692.246,3000.78L688.041,3004.98C687.825,3005.2 687.386,3005.11 687.061,3004.78C686.735,3004.46 686.647,3004.02 686.863,3003.8L691.902,2998.76ZM705.73,2970.89C705.752,2970.89 705.774,2970.89 705.797,2970.89L727.693,2970.89C727.715,2970.89 727.738,2970.89 727.76,2970.89C727.903,2970.9 728.036,2970.95 728.151,2971.02C728.265,2971.09 728.363,2971.19 728.433,2971.32C728.444,2971.34 728.454,2971.36 728.464,2971.38L736.89,2989.07C736.942,2989.18 736.97,2989.31 736.971,2989.43L736.971,2989.43C736.971,2989.55 736.945,2989.67 736.89,2989.79L728.464,3007.48C728.454,3007.51 728.444,3007.53 728.433,3007.54C728.363,3007.67 728.265,3007.77 728.151,3007.84C728.036,3007.91 727.903,3007.96 727.76,3007.97C727.738,3007.97 727.715,3007.97 727.693,3007.97L705.797,3007.97C705.774,3007.97 705.752,3007.97 705.73,3007.97C705.587,3007.96 705.453,3007.91 705.339,3007.84C705.224,3007.77 705.126,3007.67 705.056,3007.54C705.045,3007.53 705.035,3007.51 705.026,3007.48L696.6,2989.79C696.547,2989.68 696.519,2989.56 696.519,2989.43L696.519,2989.43C696.519,2989.31 696.545,2989.19 696.6,2989.07L705.026,2971.38C705.035,2971.36 705.045,2971.34 705.056,2971.32C705.126,2971.19 705.224,2971.09 705.339,2971.02C705.453,2970.95 705.587,2970.9 705.73,2970.89ZM706.31,2972.56L698.275,2989.43L706.31,3006.3L727.18,3006.3L735.214,2989.43L727.18,2972.56L706.31,2972.56ZM733.317,2989.43C733.317,2980.25 725.923,2973.14 716.745,2973.14C707.563,2973.14 700.454,2980.25 700.454,2989.43C700.454,2998.61 707.567,3006 716.745,3006C725.919,3006 733.317,2998.61 733.317,2989.43ZM731.65,2989.43C731.65,2997.68 724.996,3004.34 716.745,3004.34C708.498,3004.34 702.12,2997.68 702.12,2989.43C702.12,2981.19 708.502,2974.81 716.745,2974.81C724.992,2974.81 731.65,2981.18 731.65,2989.43ZM731.35,2989.43C731.35,2981.38 724.797,2975.11 716.745,2975.11C708.688,2975.11 702.421,2981.37 702.421,2989.43C702.421,2997.48 708.693,3004.04 716.745,3004.04C724.792,3004.04 731.35,2997.48 731.35,2989.43ZM729.683,2989.43C729.683,2996.56 723.874,3002.37 716.745,3002.37C709.62,3002.37 704.088,2996.56 704.088,2989.43C704.088,2982.31 709.625,2976.77 716.745,2976.77C723.869,2976.77 729.683,2982.31 729.683,2989.43ZM716.586,2988.87L713.522,2984.27C713.267,2983.89 713.37,2983.37 713.753,2983.12C714.136,2982.86 714.654,2982.97 714.909,2983.35L717.588,2987.37L720.267,2983.35C720.522,2982.97 721.04,2982.86 721.423,2983.12C721.805,2983.37 721.909,2983.89 721.654,2984.27L718.589,2988.87L721.654,2993.47C721.909,2993.85 721.805,2994.37 721.423,2994.62C721.04,2994.88 720.522,2994.77 720.267,2994.39L717.588,2990.37L714.909,2994.39C714.654,2994.77 714.136,2994.88 713.753,2994.62C713.37,2994.37 713.267,2993.85 713.522,2993.47L716.586,2988.87Z"/>
    </g>
</svg>
