<?xml version="1.0" encoding="UTF-8" standalone="no"?>
<!DOCTYPE svg PUBLIC "-//W3C//DTD SVG 1.1//EN" "http://www.w3.org/Graphics/SVG/1.1/DTD/svg11.dtd">
<svg width="100%" height="100%" viewBox="0 0 70 70" version="1.1" xmlns="http://www.w3.org/2000/svg" xmlns:xlink="http://www.w3.org/1999/xlink" xml:space="preserve" xmlns:serif="http://www.serif.com/" style="fill-rule:evenodd;clip-rule:evenodd;stroke-linejoin:round;stroke-miterlimit:2;">
    <g transform="matrix(1,0,0,1,-198.219,-3038.34)">
        <path d="M204.845,3052.38C211.095,3043.83 221.213,3038.34 232.778,3038.34C252.072,3038.34 267.619,3053.61 267.619,3072.9C267.619,3092.2 252.07,3107.74 232.778,3107.74C213.485,3107.74 198.219,3092.2 198.219,3072.9C198.219,3065.78 200.299,3059.21 203.893,3053.75L199.67,3050.52C199.305,3050.24 199.235,3049.72 199.515,3049.35C199.794,3048.99 200.317,3048.92 200.683,3049.2L204.845,3052.38ZM265.952,3072.9C265.952,3091.27 251.147,3106.08 232.778,3106.08C214.411,3106.08 199.886,3091.27 199.886,3072.9C199.886,3054.54 214.413,3040.01 232.778,3040.01C251.145,3040.01 265.952,3054.54 265.952,3072.9ZM222.52,3094.95C222.647,3094.88 222.792,3094.84 222.942,3094.84L224.066,3094.84C224.287,3094.84 224.499,3094.92 224.655,3095.08L225.217,3095.64C225.28,3095.7 225.333,3095.78 225.373,3095.86L225.654,3096.42C225.712,3096.53 225.742,3096.66 225.742,3096.79L225.742,3100.16C225.742,3100.63 225.369,3101 224.909,3101C224.449,3101 224.076,3100.63 224.076,3100.16L224.076,3096.99L223.943,3096.72L223.721,3096.5L223.287,3096.5L222.932,3096.86L222.932,3100.16C222.932,3100.63 222.558,3101 222.098,3101C221.638,3101 221.265,3100.63 221.265,3100.16L221.265,3095.67C221.265,3095.21 221.638,3094.84 222.098,3094.84C222.252,3094.84 222.396,3094.88 222.52,3094.95ZM233.737,3094.97L233.721,3094.96L233.594,3094.85L233.313,3094.57C233.157,3094.41 233.069,3094.2 233.069,3093.98C233.069,3093.76 233.157,3093.55 233.313,3093.39L233.595,3093.11C233.67,3093.04 233.761,3092.97 233.865,3092.93C234.176,3092.8 234.534,3092.87 234.773,3093.11L235.054,3093.39C235.21,3093.55 235.298,3093.76 235.298,3093.98C235.298,3094.2 235.21,3094.41 235.054,3094.57L234.773,3094.85L234.646,3094.96L234.631,3094.97C234.863,3095.11 235.017,3095.37 235.017,3095.67L235.017,3100.16C235.017,3100.63 234.643,3101 234.184,3101C233.724,3101 233.35,3100.63 233.35,3100.16L233.35,3095.67C233.35,3095.37 233.504,3095.11 233.737,3094.97ZM228.877,3100.96L228.018,3100.67C227.895,3100.63 227.784,3100.57 227.692,3100.47L227.411,3100.19C227.348,3100.13 227.295,3100.06 227.255,3099.97L226.974,3099.41C226.916,3099.3 226.886,3099.17 226.886,3099.04L226.886,3097.07C226.886,3096.94 226.916,3096.82 226.974,3096.7L227.255,3096.14C227.295,3096.06 227.348,3095.99 227.411,3095.92L227.692,3095.64C227.731,3095.6 227.774,3095.57 227.819,3095.54L228.662,3094.97C228.799,3094.88 228.96,3094.84 229.125,3094.84L229.968,3094.84C230.189,3094.84 230.401,3094.92 230.557,3095.08L231.962,3096.48C232.119,3096.64 232.206,3096.85 232.206,3097.07L232.206,3099.04C232.206,3099.26 232.119,3099.47 231.962,3099.63L231.119,3100.47C231.056,3100.54 230.983,3100.59 230.903,3100.63L230.34,3100.91C230.225,3100.97 230.097,3101 229.968,3101L229.067,3101L228.943,3100.98L228.877,3100.96ZM238.765,3098.75L237.837,3098.75C237.708,3098.75 237.58,3098.72 237.465,3098.66L236.902,3098.38C236.741,3098.3 236.61,3098.17 236.53,3098.01L236.249,3097.45C236.191,3097.33 236.161,3097.2 236.161,3097.07L236.161,3096.79C236.161,3096.66 236.191,3096.53 236.249,3096.42L236.53,3095.86C236.57,3095.78 236.622,3095.7 236.686,3095.64L237.248,3095.08C237.404,3094.92 237.616,3094.84 237.837,3094.84L238.961,3094.84C239.182,3094.84 239.394,3094.92 239.551,3095.08L240.113,3095.64C240.438,3095.97 240.438,3096.49 240.113,3096.82C239.788,3097.14 239.259,3097.14 238.934,3096.82L238.616,3096.5L238.182,3096.5L237.96,3096.72L237.855,3096.93L237.896,3097.01L238.034,3097.08L238.961,3097.08C239.091,3097.08 239.218,3097.11 239.334,3097.17L239.896,3097.45C240.094,3097.55 240.244,3097.72 240.314,3097.93L240.595,3098.78C240.623,3098.86 240.638,3098.95 240.638,3099.04L240.638,3099.32C240.638,3099.45 240.608,3099.58 240.55,3099.69L240.269,3100.26C240.188,3100.42 240.057,3100.55 239.896,3100.63L239.334,3100.91C239.218,3100.97 239.091,3101 238.961,3101L237.556,3101C237.427,3101 237.299,3100.97 237.183,3100.91L236.621,3100.63C236.21,3100.42 236.043,3099.92 236.249,3099.51C236.454,3099.1 236.955,3098.93 237.367,3099.14L237.753,3099.33L238.765,3099.33L238.902,3099.26L238.961,3099.14L238.842,3098.79L238.765,3098.75ZM244.386,3099.33L244.772,3099.14C245.183,3098.93 245.684,3099.1 245.89,3099.51C246.095,3099.92 245.928,3100.42 245.517,3100.63L244.955,3100.91C244.839,3100.97 244.712,3101 244.582,3101L243.177,3101C243.048,3101 242.92,3100.97 242.804,3100.91L242.242,3100.63C242.081,3100.55 241.95,3100.42 241.87,3100.26L241.589,3099.69C241.531,3099.58 241.501,3099.45 241.501,3099.32L241.501,3096.79C241.501,3096.66 241.531,3096.53 241.589,3096.42L241.87,3095.86C241.91,3095.78 241.962,3095.7 242.026,3095.64L242.588,3095.08C242.744,3094.92 242.956,3094.84 243.177,3094.84L244.582,3094.84C244.803,3094.84 245.015,3094.92 245.172,3095.08L245.734,3095.64C245.797,3095.7 245.85,3095.78 245.89,3095.86L246.171,3096.42C246.229,3096.53 246.259,3096.66 246.259,3096.79L246.259,3097.35C246.259,3097.76 245.971,3098.1 245.575,3098.17L243.167,3098.61L243.167,3099.13L243.236,3099.26L243.374,3099.33L244.386,3099.33ZM229.377,3096.5L228.812,3096.88L228.685,3097.01L228.553,3097.27L228.553,3098.84L228.685,3099.11L228.732,3099.16L229.26,3099.33L229.771,3099.33L230.036,3099.2L230.54,3098.7L230.54,3097.42L229.623,3096.5L229.377,3096.5ZM243.522,3096.5L243.3,3096.72L243.206,3096.91L244.425,3096.69L244.237,3096.5L243.522,3096.5ZM234.428,3093.95L234.492,3093.92L234.492,3093.67L234.156,3093.67L234.428,3093.95ZM218.455,3060.26L218.455,3087.24C218.455,3087.7 218.828,3088.07 219.288,3088.07C219.748,3088.07 220.121,3087.7 220.121,3087.24L220.121,3060.26C220.121,3059.8 219.748,3059.42 219.288,3059.42C218.828,3059.42 218.455,3059.8 218.455,3060.26ZM228.572,3067L228.572,3084.71C228.572,3085.17 228.946,3085.54 229.406,3085.54C229.866,3085.54 230.239,3085.17 230.239,3084.71L230.239,3067C230.239,3066.54 229.866,3066.17 229.406,3066.17C228.946,3066.17 228.572,3066.54 228.572,3067ZM236.161,3063.63L236.161,3084.71C236.161,3085.17 236.534,3085.54 236.994,3085.54C237.454,3085.54 237.827,3085.17 237.827,3084.71L237.827,3063.63C237.827,3063.17 237.454,3062.8 236.994,3062.8C236.534,3062.8 236.161,3063.17 236.161,3063.63ZM250.475,3083.02L250.475,3065.32C250.475,3064.86 250.101,3064.48 249.641,3064.48C249.181,3064.48 248.808,3064.86 248.808,3065.32L248.808,3083.02C248.808,3083.48 249.181,3083.85 249.641,3083.85C250.101,3083.85 250.475,3083.48 250.475,3083.02ZM231.102,3058.57L231.102,3083.02C231.102,3083.48 231.475,3083.85 231.935,3083.85C232.395,3083.85 232.768,3083.48 232.768,3083.02L232.768,3058.57C232.768,3058.11 232.395,3057.74 231.935,3057.74C231.475,3057.74 231.102,3058.11 231.102,3058.57ZM217.592,3079.65L217.592,3065.32C217.592,3064.86 217.218,3064.48 216.758,3064.48C216.299,3064.48 215.925,3064.86 215.925,3065.32L215.925,3079.65C215.925,3080.11 216.299,3080.48 216.758,3080.48C217.218,3080.48 217.592,3080.11 217.592,3079.65ZM245.416,3079.65L245.416,3068.69C245.416,3068.23 245.042,3067.85 244.582,3067.85C244.122,3067.85 243.749,3068.23 243.749,3068.69L243.749,3079.65C243.749,3080.11 244.122,3080.48 244.582,3080.48C245.042,3080.48 245.416,3080.11 245.416,3079.65ZM233.631,3067.84L233.631,3078.81C233.631,3079.26 234.005,3079.64 234.465,3079.64C234.925,3079.64 235.298,3079.26 235.298,3078.81L235.298,3067.84C235.298,3067.38 234.925,3067.01 234.465,3067.01C234.005,3067.01 233.631,3067.38 233.631,3067.84ZM223.513,3066.16L223.513,3077.96C223.513,3078.42 223.887,3078.8 224.347,3078.8C224.807,3078.8 225.18,3078.42 225.18,3077.96L225.18,3066.16C225.18,3065.7 224.807,3065.33 224.347,3065.33C223.887,3065.33 223.513,3065.7 223.513,3066.16ZM251.337,3069.53L251.337,3077.12C251.337,3077.58 251.711,3077.95 252.171,3077.95C252.631,3077.95 253.004,3077.58 253.004,3077.12L253.004,3069.53C253.004,3069.07 252.631,3068.7 252.171,3068.7C251.711,3068.7 251.337,3069.07 251.337,3069.53ZM247.945,3075.43L247.945,3070.37C247.945,3069.91 247.572,3069.54 247.112,3069.54C246.652,3069.54 246.278,3069.91 246.278,3070.37L246.278,3075.43C246.278,3075.89 246.652,3076.27 247.112,3076.27C247.572,3076.27 247.945,3075.89 247.945,3075.43ZM238.69,3069.53L238.69,3075.43C238.69,3075.89 239.064,3076.27 239.523,3076.27C239.983,3076.27 240.357,3075.89 240.357,3075.43L240.357,3069.53C240.357,3069.07 239.983,3068.7 239.523,3068.7C239.064,3068.7 238.69,3069.07 238.69,3069.53ZM253.867,3072.06L253.867,3074.59C253.867,3075.05 254.24,3075.42 254.7,3075.42C255.16,3075.42 255.533,3075.05 255.533,3074.59L255.533,3072.06C255.533,3071.6 255.16,3071.23 254.7,3071.23C254.24,3071.23 253.867,3071.6 253.867,3072.06ZM215.062,3074.59L215.062,3071.22C215.062,3070.76 214.689,3070.38 214.229,3070.38C213.769,3070.38 213.396,3070.76 213.396,3071.22L213.396,3074.59C213.396,3075.05 213.769,3075.42 214.229,3075.42C214.689,3075.42 215.062,3075.05 215.062,3074.59ZM220.984,3071.22L220.984,3073.75C220.984,3074.21 221.357,3074.58 221.817,3074.58C222.277,3074.58 222.651,3074.21 222.651,3073.75L222.651,3071.22C222.651,3070.76 222.277,3070.38 221.817,3070.38C221.357,3070.38 220.984,3070.76 220.984,3071.22ZM227.71,3073.75L227.71,3072.06C227.71,3071.6 227.336,3071.23 226.876,3071.23C226.416,3071.23 226.043,3071.6 226.043,3072.06L226.043,3073.75C226.043,3074.21 226.416,3074.58 226.876,3074.58C227.336,3074.58 227.71,3074.21 227.71,3073.75ZM241.22,3072.06L241.22,3072.9C241.22,3073.36 241.593,3073.74 242.053,3073.74C242.513,3073.74 242.886,3073.36 242.886,3072.9L242.886,3072.06C242.886,3071.6 242.513,3071.23 242.053,3071.23C241.593,3071.23 241.22,3071.6 241.22,3072.06Z"/>
    </g>
</svg>
