<?xml version="1.0" encoding="UTF-8" standalone="no"?>
<!DOCTYPE svg PUBLIC "-//W3C//DTD SVG 1.1//EN" "http://www.w3.org/Graphics/SVG/1.1/DTD/svg11.dtd">
<svg width="100%" height="100%" viewBox="0 0 70 70" version="1.1" xmlns="http://www.w3.org/2000/svg" xmlns:xlink="http://www.w3.org/1999/xlink" xml:space="preserve" xmlns:serif="http://www.serif.com/" style="fill-rule:evenodd;clip-rule:evenodd;stroke-linejoin:round;stroke-miterlimit:2;">
    <g transform="matrix(1,0,0,1,-360.103,-3038.34)">
        <path d="M366.729,3052.38C372.98,3043.83 383.097,3038.34 394.663,3038.34C413.956,3038.34 429.503,3053.61 429.503,3072.9C429.503,3092.2 413.954,3107.74 394.663,3107.74C375.369,3107.74 360.103,3092.2 360.103,3072.9C360.103,3065.78 362.183,3059.21 365.778,3053.75L361.555,3050.52C361.189,3050.24 361.119,3049.72 361.399,3049.35C361.678,3048.99 362.202,3048.92 362.567,3049.2L366.729,3052.38ZM427.836,3072.9C427.836,3091.27 413.031,3106.08 394.663,3106.08C376.296,3106.08 361.77,3091.27 361.77,3072.9C361.77,3054.54 376.297,3040.01 394.663,3040.01C413.029,3040.01 427.836,3054.54 427.836,3072.9ZM374.427,3058.58L416.584,3058.58L416.618,3058.58L416.65,3058.58L416.681,3058.59L416.712,3058.59L416.743,3058.6L416.774,3058.6L416.804,3058.61L416.833,3058.62L416.862,3058.63L416.885,3058.64L416.909,3058.64C417.205,3058.77 417.413,3059.06 417.418,3059.4L417.418,3059.41L417.418,3085.55L417.417,3085.58L417.415,3085.62L417.414,3085.63C417.374,3086.05 417.017,3086.38 416.584,3086.38L374.427,3086.38L374.405,3086.38L374.381,3086.38C374.375,3086.38 374.369,3086.38 374.363,3086.38L374.339,3086.38L374.321,3086.38C374.312,3086.38 374.304,3086.38 374.295,3086.37L374.269,3086.37L374.243,3086.36L374.229,3086.36L374.203,3086.35L374.194,3086.35C373.849,3086.25 373.596,3085.93 373.594,3085.56L373.594,3085.55L373.594,3059.41L373.594,3059.38L373.596,3059.35L373.6,3059.31L373.605,3059.28L373.611,3059.24L373.616,3059.22L373.617,3059.22C373.706,3058.85 374.035,3058.58 374.427,3058.58ZM383.711,3060.25L375.26,3060.25L375.26,3084.72L387.084,3084.72L387.084,3075.43C387.084,3075.43 387.084,3075.43 387.084,3075.42L384.545,3075.42L384.507,3075.42L384.48,3075.42L384.448,3075.42L384.423,3075.41L384.407,3075.41L384.387,3075.41C384.002,3075.33 383.711,3074.99 383.711,3074.59L383.711,3060.25ZM398.888,3060.25L392.123,3060.25L392.123,3074.59L392.123,3074.62L392.121,3074.66L392.118,3074.68L392.114,3074.71C392.056,3075.11 391.709,3075.42 391.29,3075.42L388.751,3075.42C388.751,3075.43 388.751,3075.43 388.751,3075.43L388.751,3084.72L402.261,3084.72L402.261,3075.43C402.261,3075.43 402.261,3075.43 402.261,3075.42L399.721,3075.42L399.688,3075.42L399.656,3075.42L399.625,3075.42L399.599,3075.41L399.579,3075.41C399.574,3075.41 399.569,3075.41 399.564,3075.41C399.179,3075.33 398.888,3074.99 398.888,3074.59L398.888,3060.25ZM403.927,3084.72L415.751,3084.72L415.751,3060.25L407.3,3060.25L407.3,3074.59L407.3,3074.62L407.298,3074.64L407.296,3074.67L407.293,3074.7C407.241,3075.11 406.891,3075.42 406.467,3075.42L403.927,3075.42C403.927,3075.43 403.927,3075.43 403.927,3075.43L403.927,3084.72ZM385.378,3060.25L385.378,3073.76L390.457,3073.76L390.457,3060.25L385.378,3060.25ZM400.555,3060.25L400.555,3073.76L405.633,3073.76L405.633,3060.25L400.555,3060.25Z"/>
    </g>
</svg>
