<?xml version="1.0" encoding="UTF-8" standalone="no"?>
<!DOCTYPE svg PUBLIC "-//W3C//DTD SVG 1.1//EN" "http://www.w3.org/Graphics/SVG/1.1/DTD/svg11.dtd">
<svg width="100%" height="100%" viewBox="0 0 70 70" version="1.1" xmlns="http://www.w3.org/2000/svg" xmlns:xlink="http://www.w3.org/1999/xlink" xml:space="preserve" xmlns:serif="http://www.serif.com/" style="fill-rule:evenodd;clip-rule:evenodd;stroke-linejoin:round;stroke-miterlimit:2;">
    <g transform="matrix(1,0,0,1,-441.045,-3038.34)">
        <path d="M447.671,3052.38C453.922,3043.83 464.039,3038.34 475.605,3038.34C494.898,3038.34 510.445,3053.61 510.445,3072.9C510.445,3092.2 494.896,3107.74 475.605,3107.74C456.311,3107.74 441.045,3092.2 441.045,3072.9C441.045,3065.78 443.125,3059.21 446.72,3053.75L442.497,3050.52C442.131,3050.24 442.062,3049.72 442.341,3049.35C442.62,3048.99 443.144,3048.92 443.509,3049.2L447.671,3052.38ZM508.778,3072.9C508.778,3091.27 493.974,3106.08 475.605,3106.08C457.238,3106.08 442.712,3091.27 442.712,3072.9C442.712,3054.54 457.24,3040.01 475.605,3040.01C493.972,3040.01 508.778,3054.54 508.778,3072.9ZM453.673,3086.39L453.673,3066.16C453.673,3065.7 453.3,3065.33 452.84,3065.33C452.38,3065.33 452.006,3065.7 452.006,3066.16L452.006,3086.39C452.006,3086.85 452.38,3087.23 452.84,3087.23C453.3,3087.23 453.673,3086.85 453.673,3086.39ZM500.046,3086.39L500.046,3066.16C500.046,3065.7 499.673,3065.33 499.213,3065.33C498.753,3065.33 498.379,3065.7 498.379,3066.16L498.379,3086.39C498.379,3086.85 498.753,3087.23 499.213,3087.23C499.673,3087.23 500.046,3086.85 500.046,3086.39ZM495.515,3081.34L492.722,3078.55C492.396,3078.23 492.396,3077.7 492.722,3077.37C493.047,3077.05 493.575,3077.05 493.9,3077.37L498.116,3081.59L498.14,3081.61L498.161,3081.64L498.181,3081.66L498.2,3081.69L498.218,3081.71L498.238,3081.74L498.256,3081.77L498.271,3081.8L498.287,3081.84L498.297,3081.86C498.337,3081.96 498.36,3082.07 498.36,3082.18C498.36,3082.29 498.337,3082.4 498.297,3082.5L498.284,3082.53L498.268,3082.56L498.252,3082.59L498.234,3082.62L498.217,3082.64L498.199,3082.67L498.18,3082.7L498.159,3082.72L498.138,3082.74L498.116,3082.77L493.9,3086.98C493.575,3087.31 493.047,3087.31 492.722,3086.98C492.396,3086.66 492.396,3086.13 492.722,3085.8L495.515,3083.01L456.538,3083.01L459.331,3085.8C459.656,3086.13 459.656,3086.66 459.331,3086.98C459.006,3087.31 458.478,3087.31 458.152,3086.98L453.937,3082.77L453.913,3082.74L453.892,3082.72L453.872,3082.69L453.853,3082.67L453.835,3082.64L453.815,3082.61L453.797,3082.58L453.781,3082.55L453.766,3082.52L453.755,3082.5C453.715,3082.4 453.693,3082.29 453.693,3082.18C453.693,3082.07 453.715,3081.96 453.755,3081.86L453.77,3081.83L453.786,3081.8L453.803,3081.76L453.819,3081.74L453.836,3081.71L453.854,3081.68L453.873,3081.66L453.893,3081.64L453.914,3081.61L453.937,3081.59L458.152,3077.37C458.478,3077.05 459.006,3077.05 459.331,3077.37C459.656,3077.7 459.656,3078.23 459.331,3078.55L456.538,3081.34L495.515,3081.34ZM478.144,3055.2L478.144,3076.28C478.144,3076.74 478.517,3077.11 478.977,3077.11C479.437,3077.11 479.811,3076.74 479.811,3076.28L479.811,3055.2C479.811,3054.74 479.437,3054.36 478.977,3054.36C478.517,3054.36 478.144,3054.74 478.144,3055.2ZM474.752,3074.59L474.752,3053.51C474.752,3053.05 474.378,3052.68 473.918,3052.68C473.458,3052.68 473.085,3053.05 473.085,3053.51L473.085,3074.59C473.085,3075.05 473.458,3075.42 473.918,3075.42C474.378,3075.42 474.752,3075.05 474.752,3074.59ZM492.458,3074.59L492.458,3056.88C492.458,3056.42 492.084,3056.05 491.624,3056.05C491.165,3056.05 490.791,3056.42 490.791,3056.88L490.791,3074.59C490.791,3075.05 491.165,3075.42 491.624,3075.42C492.084,3075.42 492.458,3075.05 492.458,3074.59ZM460.438,3055.2L460.438,3072.9C460.438,3073.36 460.811,3073.74 461.271,3073.74C461.731,3073.74 462.104,3073.36 462.104,3072.9L462.104,3055.2C462.104,3054.74 461.731,3054.36 461.271,3054.36C460.811,3054.36 460.438,3054.74 460.438,3055.2ZM487.399,3071.22L487.399,3060.26C487.399,3059.8 487.026,3059.42 486.566,3059.42C486.106,3059.42 485.732,3059.8 485.732,3060.26L485.732,3071.22C485.732,3071.68 486.106,3072.05 486.566,3072.05C487.026,3072.05 487.399,3071.68 487.399,3071.22ZM476.448,3058.58C476.908,3058.58 477.281,3058.95 477.281,3059.41L477.281,3070.37C477.281,3070.83 476.908,3071.21 476.448,3071.21C476.074,3071.21 475.757,3070.96 475.652,3070.62L475.65,3070.62C475.627,3070.54 475.614,3070.46 475.614,3070.37L475.614,3059.41C475.614,3058.95 475.988,3058.58 476.448,3058.58ZM465.497,3058.57L465.497,3069.53C465.497,3069.99 465.87,3070.36 466.33,3070.36C466.79,3070.36 467.163,3069.99 467.163,3069.53L467.163,3058.57C467.163,3058.11 466.79,3057.74 466.33,3057.74C465.87,3057.74 465.497,3058.11 465.497,3058.57ZM472.222,3068.69L472.222,3062.78C472.222,3062.33 471.849,3061.95 471.389,3061.95C470.929,3061.95 470.556,3062.33 470.556,3062.78L470.556,3068.69C470.556,3069.15 470.929,3069.52 471.389,3069.52C471.849,3069.52 472.222,3069.15 472.222,3068.69ZM493.321,3061.1L493.321,3068.69C493.321,3069.15 493.694,3069.52 494.154,3069.52C494.614,3069.52 494.987,3069.15 494.987,3068.69L494.987,3061.1C494.987,3060.64 494.614,3060.27 494.154,3060.27C493.694,3060.27 493.321,3060.64 493.321,3061.1ZM459.575,3068.69L459.575,3061.1C459.575,3060.64 459.202,3060.27 458.742,3060.27C458.282,3060.27 457.908,3060.64 457.908,3061.1L457.908,3068.69C457.908,3069.15 458.282,3069.52 458.742,3069.52C459.202,3069.52 459.575,3069.15 459.575,3068.69ZM462.967,3062.78L462.967,3067.84C462.967,3068.3 463.341,3068.68 463.801,3068.68C464.261,3068.68 464.634,3068.3 464.634,3067.84L464.634,3062.78C464.634,3062.33 464.261,3061.95 463.801,3061.95C463.341,3061.95 462.967,3062.33 462.967,3062.78ZM489.928,3067L489.928,3061.94C489.928,3061.48 489.555,3061.11 489.095,3061.11C488.635,3061.11 488.262,3061.48 488.262,3061.94L488.262,3067C488.262,3067.46 488.635,3067.83 489.095,3067.83C489.555,3067.83 489.928,3067.46 489.928,3067ZM480.673,3061.1L480.673,3067C480.673,3067.46 481.047,3067.83 481.507,3067.83C481.967,3067.83 482.34,3067.46 482.34,3067L482.34,3061.1C482.34,3060.64 481.967,3060.27 481.507,3060.27C481.047,3060.27 480.673,3060.64 480.673,3061.1ZM457.046,3066.16L457.046,3063.63C457.046,3063.17 456.672,3062.8 456.212,3062.8C455.752,3062.8 455.379,3063.17 455.379,3063.63L455.379,3066.16C455.379,3066.62 455.752,3066.99 456.212,3066.99C456.672,3066.99 457.046,3066.62 457.046,3066.16ZM495.85,3063.63L495.85,3066.16C495.85,3066.62 496.223,3066.99 496.683,3066.99C497.143,3066.99 497.517,3066.62 497.517,3066.16L497.517,3063.63C497.517,3063.17 497.143,3062.8 496.683,3062.8C496.223,3062.8 495.85,3063.17 495.85,3063.63ZM469.693,3066.16L469.693,3065.32C469.693,3064.86 469.319,3064.48 468.859,3064.48C468.4,3064.48 468.026,3064.86 468.026,3065.32L468.026,3066.16C468.026,3066.62 468.4,3066.99 468.859,3066.99C469.319,3066.99 469.693,3066.62 469.693,3066.16ZM483.203,3063.63L483.203,3064.47C483.203,3064.93 483.576,3065.31 484.036,3065.31C484.496,3065.31 484.869,3064.93 484.869,3064.47L484.869,3063.63C484.869,3063.17 484.496,3062.8 484.036,3062.8C483.576,3062.8 483.203,3063.17 483.203,3063.63Z"/>
    </g>
</svg>
