<?xml version="1.0" encoding="UTF-8" standalone="no"?>
<!DOCTYPE svg PUBLIC "-//W3C//DTD SVG 1.1//EN" "http://www.w3.org/Graphics/SVG/1.1/DTD/svg11.dtd">
<svg width="100%" height="100%" viewBox="0 0 70 70" version="1.1" xmlns="http://www.w3.org/2000/svg" xmlns:xlink="http://www.w3.org/1999/xlink" xml:space="preserve" xmlns:serif="http://www.serif.com/" style="fill-rule:evenodd;clip-rule:evenodd;stroke-linejoin:round;stroke-miterlimit:2;">
    <g transform="matrix(1,0,0,1,-521.988,-3038.34)">
        <path d="M528.613,3052.38C534.864,3043.83 544.981,3038.34 556.547,3038.34C575.84,3038.34 591.387,3053.61 591.387,3072.9C591.387,3092.2 575.839,3107.74 556.547,3107.74C537.253,3107.74 521.988,3092.2 521.988,3072.9C521.988,3065.78 524.067,3059.21 527.662,3053.75L523.439,3050.52C523.074,3050.24 523.004,3049.72 523.283,3049.35C523.563,3048.99 524.086,3048.92 524.451,3049.2L528.613,3052.38ZM589.72,3072.9C589.72,3091.27 574.916,3106.08 556.547,3106.08C538.18,3106.08 523.654,3091.27 523.654,3072.9C523.654,3054.54 538.182,3040.01 556.547,3040.01C574.914,3040.01 589.72,3054.54 589.72,3072.9ZM565.824,3052.68L565.861,3052.68L565.893,3052.68L565.924,3052.68L565.955,3052.69L565.986,3052.69L566.016,3052.7L566.046,3052.71L566.075,3052.72L566.104,3052.73L566.132,3052.74L566.155,3052.75L566.173,3052.76C566.453,3052.89 566.648,3053.17 566.655,3053.49L566.655,3053.51L566.655,3056.04L566.654,3056.08L566.652,3056.1L566.65,3056.13C566.608,3056.55 566.253,3056.87 565.821,3056.87C565.821,3056.87 564.968,3056.87 564.968,3056.87L564.968,3062.78C564.969,3062.84 564.962,3062.91 564.947,3062.97L564.945,3062.98C564.93,3063.05 564.906,3063.11 564.876,3063.17L563.201,3066.52C563.18,3066.56 563.155,3066.6 563.126,3066.64L563.124,3066.65C563.095,3066.69 563.062,3066.72 563.027,3066.76L561.447,3068.34L560.753,3069.73L560.753,3071.86L561.447,3073.25L563.027,3074.83C563.062,3074.87 563.095,3074.9 563.124,3074.94L563.126,3074.95C563.155,3074.99 563.18,3075.03 563.201,3075.07L564.876,3078.42C564.906,3078.48 564.93,3078.55 564.945,3078.61L564.947,3078.62C564.962,3078.68 564.969,3078.75 564.968,3078.82L564.968,3084.72L565.821,3084.72L565.856,3084.72L565.887,3084.72L565.918,3084.72L565.943,3084.73L565.953,3084.73C566.351,3084.79 566.655,3085.14 566.655,3085.55L566.655,3088.08L566.654,3088.11L566.652,3088.14L566.649,3088.18L566.646,3088.2L566.643,3088.22C566.575,3088.61 566.233,3088.91 565.821,3088.91C565.821,3088.91 546.429,3088.91 546.429,3088.91L546.395,3088.91L546.363,3088.91L546.331,3088.91L546.297,3088.9L546.266,3088.9L546.241,3088.89L546.221,3088.89C545.862,3088.79 545.596,3088.47 545.596,3088.08L545.596,3088.08L545.596,3085.55L545.596,3085.52L545.599,3085.48L545.602,3085.45L545.604,3085.43C545.661,3085.03 546.009,3084.72 546.429,3084.72L547.282,3084.72L547.282,3077.97C547.281,3077.91 547.288,3077.84 547.303,3077.77L547.305,3077.77C547.321,3077.7 547.344,3077.64 547.374,3077.58L549.049,3074.23C549.07,3074.19 549.095,3074.14 549.125,3074.1L549.127,3074.1C549.156,3074.06 549.188,3074.02 549.224,3073.99L550.803,3072.41L551.498,3071.02L551.498,3068.88L550.803,3067.49L549.224,3065.91C549.188,3065.88 549.156,3065.84 549.127,3065.8L549.125,3065.8C549.095,3065.76 549.07,3065.72 549.049,3065.67L547.374,3062.32C547.344,3062.26 547.321,3062.2 547.305,3062.14L547.303,3062.13C547.288,3062.07 547.281,3062 547.282,3061.93L547.282,3056.87L546.429,3056.87L546.395,3056.87L546.364,3056.87L546.338,3056.87L546.318,3056.87C545.91,3056.81 545.596,3056.46 545.596,3056.04L545.596,3053.51L545.596,3053.48L545.598,3053.45L545.601,3053.41L545.606,3053.38L545.612,3053.35L545.619,3053.31L545.627,3053.28L545.636,3053.25L545.645,3053.23L545.654,3053.2L545.657,3053.2C545.78,3052.89 546.074,3052.68 546.418,3052.68L546.429,3052.68L565.821,3052.68C565.821,3052.68 565.824,3052.68 565.824,3052.68ZM564.988,3086.38L547.262,3086.38L547.262,3087.25L564.988,3087.25L564.988,3086.38ZM556.029,3084.72L558.731,3084.72L563.302,3080.15L563.302,3079L562.783,3077.96L556.029,3084.72ZM561.088,3084.72L563.302,3084.72L563.302,3082.5L561.088,3084.72ZM559.728,3075.95C559.709,3075.98 559.688,3076 559.666,3076.02L550.97,3084.72L553.672,3084.72L561.421,3076.97L559.728,3075.95ZM548.949,3081.68L548.949,3084.38L558.121,3075.21L555.959,3074.67L548.949,3081.68ZM549.965,3076.25C549.944,3076.25 549.923,3076.26 549.902,3076.26L549.898,3076.26L548.949,3078.16L548.949,3079.32L552.536,3075.74L549.965,3076.25ZM560.185,3067.24L561.764,3065.66L563.302,3062.59L563.302,3056.87L548.949,3056.87L548.949,3061.74L550.486,3064.82L552.066,3066.4C552.101,3066.43 552.134,3066.47 552.163,3066.51L552.165,3066.51C552.194,3066.56 552.219,3066.6 552.24,3066.64L553.072,3068.31C553.102,3068.37 553.126,3068.43 553.141,3068.49L553.143,3068.5C553.158,3068.57 553.165,3068.63 553.164,3068.7L553.164,3071.21C553.165,3071.27 553.158,3071.34 553.143,3071.41L553.141,3071.41C553.126,3071.48 553.102,3071.54 553.072,3071.6L552.24,3073.26C552.219,3073.31 552.194,3073.35 552.165,3073.39L552.163,3073.39C552.134,3073.43 552.101,3073.47 552.066,3073.5L551.283,3074.29L553.745,3073.79L555.316,3073.01C555.354,3072.99 555.393,3072.97 555.433,3072.96C555.491,3072.94 555.551,3072.93 555.611,3072.92L555.615,3072.92C555.71,3072.91 555.808,3072.91 555.906,3072.94L559.263,3073.78C559.307,3073.79 559.351,3073.8 559.394,3073.82L559.397,3073.82C559.44,3073.84 559.48,3073.86 559.519,3073.88L560.074,3074.22C560.05,3074.18 560.028,3074.14 560.01,3074.11L559.178,3072.44C559.148,3072.38 559.125,3072.32 559.109,3072.26L559.107,3072.25C559.092,3072.18 559.085,3072.12 559.086,3072.05L559.086,3069.54C559.085,3069.47 559.092,3069.41 559.107,3069.34L559.109,3069.34C559.125,3069.27 559.148,3069.21 559.178,3069.15L560.01,3067.49C560.031,3067.44 560.056,3067.4 560.085,3067.36L560.087,3067.36C560.117,3067.32 560.149,3067.28 560.185,3067.24ZM564.988,3055.21L564.988,3054.34L547.262,3054.34L547.262,3055.21L564.988,3055.21Z"/>
    </g>
</svg>
