<?xml version="1.0" encoding="UTF-8" standalone="no"?>
<!DOCTYPE svg PUBLIC "-//W3C//DTD SVG 1.1//EN" "http://www.w3.org/Graphics/SVG/1.1/DTD/svg11.dtd">
<svg width="100%" height="100%" viewBox="0 0 70 70" version="1.1" xmlns="http://www.w3.org/2000/svg" xmlns:xlink="http://www.w3.org/1999/xlink" xml:space="preserve" xmlns:serif="http://www.serif.com/" style="fill-rule:evenodd;clip-rule:evenodd;stroke-linejoin:round;stroke-miterlimit:2;">
    <g transform="matrix(1,0,0,1,-602.93,-3038.34)">
        <path d="M609.556,3052.38C615.806,3043.83 625.923,3038.34 637.489,3038.34C656.783,3038.34 672.329,3053.61 672.329,3072.9C672.329,3092.2 656.781,3107.74 637.489,3107.74C618.195,3107.74 602.93,3092.2 602.93,3072.9C602.93,3065.78 605.009,3059.21 608.604,3053.75L604.381,3050.52C604.016,3050.24 603.946,3049.72 604.225,3049.35C604.505,3048.99 605.028,3048.92 605.393,3049.2L609.556,3052.38ZM670.663,3072.9C670.663,3091.27 655.858,3106.08 637.489,3106.08C619.122,3106.08 604.596,3091.27 604.596,3072.9C604.596,3054.54 619.124,3040.01 637.489,3040.01C655.856,3040.01 670.663,3054.54 670.663,3072.9ZM628.495,3095.73C628.583,3095.7 628.678,3095.68 628.776,3095.68C629.236,3095.68 629.61,3096.05 629.61,3096.51L629.61,3103.26C629.61,3103.72 629.236,3104.09 628.776,3104.09C628.317,3104.09 627.943,3103.72 627.943,3103.26L627.943,3101.84L627.09,3101.84C627.001,3101.84 626.912,3101.83 626.827,3101.8L625.983,3101.52C625.861,3101.48 625.749,3101.41 625.658,3101.32L625.377,3101.03C625.313,3100.97 625.261,3100.9 625.221,3100.82L624.94,3100.26C624.882,3100.14 624.852,3100.01 624.852,3099.88L624.852,3097.92C624.852,3097.79 624.882,3097.66 624.94,3097.54L625.221,3096.98C625.261,3096.9 625.313,3096.83 625.377,3096.76L625.658,3096.48C625.697,3096.45 625.739,3096.41 625.785,3096.38L626.628,3095.82C626.765,3095.73 626.926,3095.68 627.09,3095.68L628.214,3095.68C628.311,3095.68 628.406,3095.7 628.495,3095.73ZM637.916,3097.9C637.75,3097.87 637.59,3097.79 637.462,3097.66C637.137,3097.34 637.137,3096.81 637.462,3096.48L638.024,3095.92C638.18,3095.77 638.392,3095.68 638.613,3095.68L640.018,3095.68C640.239,3095.68 640.451,3095.77 640.608,3095.92L641.17,3096.48C641.233,3096.55 641.286,3096.62 641.326,3096.7L641.607,3097.26C641.665,3097.38 641.695,3097.51 641.695,3097.64L641.695,3101.01C641.695,3101.47 641.321,3101.84 640.862,3101.84C640.763,3101.84 640.668,3101.82 640.58,3101.79C640.49,3101.83 640.395,3101.84 640.299,3101.84L638.613,3101.84C638.484,3101.84 638.356,3101.81 638.24,3101.75L637.678,3101.47C637.517,3101.39 637.386,3101.26 637.306,3101.1L637.025,3100.54C636.967,3100.42 636.937,3100.29 636.937,3100.16L636.937,3099.6C636.937,3099.51 636.951,3099.42 636.979,3099.34L637.261,3098.5C637.33,3098.29 637.481,3098.11 637.678,3098.01L637.916,3097.9ZM634.463,3101.68L634.099,3101.8C634.014,3101.83 633.925,3101.84 633.835,3101.84L632.992,3101.84C632.863,3101.84 632.735,3101.81 632.619,3101.75L632.057,3101.47C631.896,3101.39 631.765,3101.26 631.685,3101.1L631.404,3100.54C631.346,3100.42 631.316,3100.29 631.316,3100.16L631.316,3096.51C631.316,3096.05 631.689,3095.68 632.149,3095.68C632.609,3095.68 632.982,3096.05 632.982,3096.51L632.982,3099.97L633.051,3100.11L633.189,3100.18L633.7,3100.18L634.126,3100.03L634.126,3096.51C634.126,3096.05 634.5,3095.68 634.959,3095.68C635.419,3095.68 635.793,3096.05 635.793,3096.51L635.793,3101.01C635.793,3101.47 635.419,3101.84 634.959,3101.84C634.774,3101.84 634.602,3101.78 634.463,3101.68ZM644.508,3095.89L644.615,3095.82C644.752,3095.73 644.913,3095.68 645.077,3095.68L645.92,3095.68C646.141,3095.68 646.353,3095.77 646.51,3095.92L647.072,3096.48C647.135,3096.55 647.188,3096.62 647.228,3096.7L647.509,3097.26C647.567,3097.38 647.597,3097.51 647.597,3097.64L647.597,3101.01C647.597,3101.47 647.224,3101.84 646.764,3101.84C646.304,3101.84 645.93,3101.47 645.93,3101.01L645.93,3097.83L645.798,3097.57L645.575,3097.35L645.33,3097.35L644.786,3097.71L644.786,3101.01C644.786,3101.47 644.413,3101.84 643.953,3101.84C643.493,3101.84 643.12,3101.47 643.12,3101.01L643.12,3096.51C643.12,3096.05 643.493,3095.68 643.953,3095.68C644.166,3095.68 644.36,3095.76 644.508,3095.89ZM649.303,3095.68L649.303,3094.54C649.303,3094.08 649.676,3093.71 650.136,3093.71C650.596,3093.71 650.969,3094.08 650.969,3094.54L650.969,3095.68L651.541,3095.68C652.001,3095.68 652.375,3096.05 652.375,3096.51C652.375,3096.97 652.001,3097.35 651.541,3097.35L650.969,3097.35L650.969,3099.97L651.038,3100.11L651.176,3100.18L651.541,3100.18C652.001,3100.18 652.375,3100.55 652.375,3101.01C652.375,3101.47 652.001,3101.84 651.541,3101.84L650.979,3101.84C650.85,3101.84 650.722,3101.81 650.607,3101.75L650.045,3101.47C649.883,3101.39 649.753,3101.26 649.672,3101.1L649.391,3100.54C649.333,3100.42 649.303,3100.29 649.303,3100.16L649.303,3097.35L649.012,3097.35C648.552,3097.35 648.179,3096.97 648.179,3096.51C648.179,3096.05 648.552,3095.68 649.012,3095.68L649.303,3095.68ZM640.028,3099.31L638.81,3099.31L638.732,3099.35L638.603,3099.74L638.603,3099.97L638.672,3100.11L638.81,3100.18L640.028,3100.18L640.028,3099.31ZM627.943,3097.42L627.869,3097.35L627.342,3097.35L626.778,3097.72L626.651,3097.85L626.518,3098.11L626.518,3099.69L626.651,3099.95L626.697,3100L627.225,3100.18L627.943,3100.18L627.943,3097.42ZM639.935,3097.64L639.896,3097.57L639.673,3097.35L638.958,3097.35L638.658,3097.64L639.935,3097.64ZM624.852,3065.32C624.852,3058.39 630.568,3052.68 637.489,3052.68C644.409,3052.68 650.126,3058.39 650.126,3065.32L650.126,3068.74C653.858,3069.18 656.871,3072.45 656.871,3076.28C656.871,3080.38 653.398,3083.85 649.293,3083.85C649.293,3083.85 647.607,3083.85 647.607,3083.85L647.573,3083.85L647.542,3083.85L647.516,3083.85L647.49,3083.85L647.458,3083.84L647.428,3083.84L647.403,3083.83L647.379,3083.82L647.359,3083.82L647.344,3083.81C647.016,3083.7 646.778,3083.39 646.773,3083.03L646.773,3083.02L646.773,3069.53L646.774,3069.5L646.776,3069.46L646.78,3069.43L646.785,3069.39L646.79,3069.36L646.796,3069.34L646.797,3069.33C646.886,3068.97 647.215,3068.7 647.607,3068.7L648.46,3068.7L648.46,3067C648.46,3060.99 643.497,3056.03 637.489,3056.03C631.481,3056.03 626.518,3060.99 626.518,3067L626.518,3068.7L627.371,3068.7L627.405,3068.7L627.437,3068.7L627.469,3068.7L627.5,3068.71L627.536,3068.71L627.569,3068.72L627.604,3068.73L627.633,3068.74L627.662,3068.75L627.691,3068.76L627.714,3068.77L627.737,3068.78C628.008,3068.91 628.196,3069.19 628.204,3069.51L628.204,3069.53L628.204,3083.02L628.204,3083.06L628.202,3083.08C628.172,3083.51 627.811,3083.85 627.371,3083.85L625.685,3083.85C621.58,3083.85 618.106,3080.38 618.106,3076.28C618.106,3072.45 621.12,3069.18 624.852,3068.74L624.852,3065.32ZM648.44,3070.36L648.44,3082.19L648.46,3082.19L648.46,3070.36L648.44,3070.36ZM626.518,3070.36L626.518,3082.19L626.538,3082.19L626.538,3070.36L626.518,3070.36ZM624.852,3070.43C622.026,3070.85 619.773,3073.36 619.773,3076.28C619.773,3079.2 622.026,3081.71 624.852,3082.13L624.852,3070.43ZM650.126,3070.43L650.126,3082.13C652.952,3081.71 655.205,3079.2 655.205,3076.28C655.205,3073.36 652.952,3070.85 650.126,3070.43ZM639.263,3054.49C638.685,3054.39 638.092,3054.34 637.489,3054.34C636.886,3054.34 636.293,3054.39 635.715,3054.49C636.295,3054.41 636.888,3054.36 637.489,3054.36C638.09,3054.36 638.683,3054.41 639.263,3054.49Z"/>
    </g>
</svg>
