<?xml version="1.0" encoding="UTF-8" standalone="no"?>
<!DOCTYPE svg PUBLIC "-//W3C//DTD SVG 1.1//EN" "http://www.w3.org/Graphics/SVG/1.1/DTD/svg11.dtd">
<svg width="100%" height="100%" viewBox="0 0 70 70" version="1.1" xmlns="http://www.w3.org/2000/svg" xmlns:xlink="http://www.w3.org/1999/xlink" xml:space="preserve" xmlns:serif="http://www.serif.com/" style="fill-rule:evenodd;clip-rule:evenodd;stroke-linejoin:round;stroke-miterlimit:2;">
    <g transform="matrix(1,0,0,1,-683.872,-3038.34)">
        <path d="M690.498,3052.38C696.748,3043.83 706.865,3038.34 718.431,3038.34C737.725,3038.34 753.271,3053.61 753.271,3072.9C753.271,3092.2 737.723,3107.74 718.431,3107.74C699.137,3107.74 683.872,3092.2 683.872,3072.9C683.872,3065.78 685.951,3059.21 689.546,3053.75L685.323,3050.52C684.958,3050.24 684.888,3049.72 685.167,3049.35C685.447,3048.99 685.97,3048.92 686.336,3049.2L690.498,3052.38ZM751.605,3072.9C751.605,3091.27 736.8,3106.08 718.431,3106.08C700.064,3106.08 685.538,3091.27 685.538,3072.9C685.538,3054.54 700.066,3040.01 718.431,3040.01C736.798,3040.01 751.605,3054.54 751.605,3072.9ZM691.919,3074.63C691.936,3074.61 691.953,3074.6 691.972,3074.59C692.068,3074.52 692.188,3074.51 692.3,3074.53C692.319,3074.53 692.338,3074.53 692.357,3074.54C692.379,3074.54 692.401,3074.55 692.423,3074.55C692.451,3074.56 692.479,3074.57 692.506,3074.59C692.541,3074.6 692.575,3074.62 692.607,3074.63C692.65,3074.66 692.692,3074.68 692.732,3074.71C692.78,3074.75 692.825,3074.79 692.867,3074.83L692.89,3074.85C692.926,3074.89 692.96,3074.93 692.99,3074.97L717.554,3103.62L739.686,3074.93C739.699,3074.92 739.712,3074.9 739.727,3074.88C739.782,3074.82 739.844,3074.77 739.912,3074.72L739.914,3074.72C740.031,3074.65 740.163,3074.61 740.296,3074.6L740.303,3074.6C740.436,3074.59 740.572,3074.62 740.698,3074.67L740.7,3074.68C740.772,3074.71 740.841,3074.75 740.903,3074.81C740.92,3074.82 740.935,3074.84 740.951,3074.85L749.374,3083.28C749.699,3083.6 749.699,3084.13 749.374,3084.45C749.048,3084.78 748.52,3084.78 748.195,3084.45L740.434,3076.69L718.257,3105.44C718.237,3105.47 718.216,3105.49 718.193,3105.52L718.192,3105.52C718.135,3105.58 718.07,3105.63 718.001,3105.67C717.88,3105.74 717.745,3105.77 717.61,3105.78L717.608,3105.78C717.474,3105.78 717.338,3105.75 717.213,3105.69C717.141,3105.65 717.074,3105.6 717.014,3105.55L717.014,3105.55C716.989,3105.52 716.966,3105.5 716.945,3105.47L692.246,3076.66L688.281,3080.62C688.075,3080.83 687.643,3080.73 687.318,3080.41C686.993,3080.08 686.897,3079.65 687.103,3079.45L691.919,3074.63ZM705.73,3046.78C705.752,3046.78 705.774,3046.78 705.797,3046.78L727.693,3046.78C727.715,3046.78 727.738,3046.78 727.76,3046.78C727.903,3046.79 728.036,3046.83 728.151,3046.9C728.265,3046.98 728.363,3047.08 728.433,3047.2C728.444,3047.22 728.454,3047.24 728.464,3047.26L736.89,3064.96C736.942,3065.07 736.97,3065.19 736.971,3065.31L736.971,3065.32C736.971,3065.43 736.945,3065.56 736.89,3065.67L728.464,3083.37C728.454,3083.39 728.444,3083.41 728.433,3083.43C728.363,3083.55 728.265,3083.65 728.151,3083.72C728.036,3083.8 727.903,3083.84 727.76,3083.85C727.738,3083.85 727.715,3083.86 727.693,3083.85L705.797,3083.85C705.774,3083.86 705.752,3083.85 705.73,3083.85C705.587,3083.84 705.453,3083.8 705.339,3083.72C705.224,3083.65 705.126,3083.55 705.056,3083.43C705.045,3083.41 705.035,3083.39 705.026,3083.37L696.6,3065.67C696.547,3065.56 696.519,3065.44 696.519,3065.32L696.519,3065.32C696.519,3065.19 696.545,3065.07 696.6,3064.96L705.026,3047.26C705.035,3047.24 705.045,3047.22 705.056,3047.2C705.126,3047.08 705.224,3046.98 705.339,3046.9C705.453,3046.83 705.587,3046.79 705.73,3046.78ZM706.31,3048.44L698.275,3065.32L706.31,3082.19L727.18,3082.19L735.214,3065.32L727.18,3048.44L706.31,3048.44ZM733.317,3065.32C733.317,3056.14 725.923,3049.02 716.745,3049.02C707.563,3049.02 700.454,3056.13 700.454,3065.32C700.454,3074.49 707.567,3081.89 716.745,3081.89C725.919,3081.89 733.317,3074.49 733.317,3065.32ZM731.65,3065.32C731.65,3073.57 724.996,3080.22 716.745,3080.22C708.498,3080.22 702.12,3073.56 702.12,3065.32C702.12,3057.07 708.502,3050.69 716.745,3050.69C724.992,3050.69 731.65,3057.07 731.65,3065.32ZM731.35,3065.32C731.35,3057.26 724.797,3050.99 716.745,3050.99C708.688,3050.99 702.421,3057.26 702.421,3065.32C702.421,3073.37 708.693,3079.92 716.745,3079.92C724.792,3079.92 731.35,3073.36 731.35,3065.32ZM729.683,3065.32C729.683,3072.44 723.874,3078.25 716.745,3078.25C709.62,3078.25 704.088,3072.44 704.088,3065.32C704.088,3058.2 709.625,3052.66 716.745,3052.66C723.869,3052.66 729.683,3058.19 729.683,3065.32ZM716.755,3065.28L713.511,3060.14C713.265,3059.75 713.381,3059.24 713.77,3058.99C714.159,3058.74 714.674,3058.86 714.92,3059.25L717.588,3063.47L720.256,3059.25C720.502,3058.86 721.017,3058.74 721.405,3058.99C721.794,3059.24 721.911,3059.75 721.665,3060.14L718.421,3065.28L718.421,3069.81C718.421,3070.27 718.048,3070.64 717.588,3070.64C717.128,3070.64 716.755,3070.27 716.755,3069.81L716.755,3065.28Z"/>
    </g>
</svg>
