<?xml version="1.0" encoding="UTF-8" standalone="no"?>
<!DOCTYPE svg PUBLIC "-//W3C//DTD SVG 1.1//EN" "http://www.w3.org/Graphics/SVG/1.1/DTD/svg11.dtd">
<svg width="100%" height="100%" viewBox="0 0 74 71" version="1.1" xmlns="http://www.w3.org/2000/svg" xmlns:xlink="http://www.w3.org/1999/xlink" xml:space="preserve" xmlns:serif="http://www.serif.com/" style="fill-rule:evenodd;clip-rule:evenodd;stroke-linejoin:round;stroke-miterlimit:2;">
    <g transform="matrix(1,0,0,1,-118.12,-3118.44)">
        <path d="M173.53,3185.22L172.587,3184.2C172.273,3183.87 172.291,3183.34 172.627,3183.03C172.964,3182.71 173.491,3182.73 173.805,3183.07L174.709,3184.04L175.136,3183.61C175.461,3183.28 175.989,3183.28 176.315,3183.61C176.64,3183.93 176.64,3184.46 176.315,3184.79L175.847,3185.26L177.637,3187.17L177.757,3187.23L177.945,3187.17L178.071,3186.92C178.277,3186.51 178.778,3186.34 179.189,3186.55C179.601,3186.75 179.768,3187.25 179.562,3187.66L179.281,3188.22C179.182,3188.42 179.009,3188.57 178.799,3188.64L177.956,3188.92C177.747,3188.99 177.518,3188.98 177.32,3188.88L176.758,3188.6C176.669,3188.55 176.589,3188.49 176.521,3188.42L174.668,3186.43L174.628,3186.47C174.303,3186.8 173.775,3186.8 173.45,3186.47C173.125,3186.15 173.125,3185.62 173.45,3185.3L173.53,3185.22ZM187.52,3153C187.52,3133.71 171.973,3118.44 152.679,3118.44C133.384,3118.44 118.12,3133.71 118.12,3153C118.12,3172.3 133.386,3187.84 152.679,3187.84C171.971,3187.84 187.52,3172.29 187.52,3153ZM178.306,3183.36C178.153,3183.52 177.935,3183.63 177.693,3183.63C177.233,3183.63 176.859,3183.25 176.859,3182.79L176.859,3182.23C176.859,3181.97 176.983,3181.72 177.193,3181.56L178.317,3180.72C178.357,3180.69 178.399,3180.66 178.444,3180.64L179.006,3180.36C179.241,3180.24 179.517,3180.24 179.752,3180.36L180.314,3180.64C180.379,3180.68 180.44,3180.72 180.495,3180.76L180.578,3180.84C180.641,3180.85 180.704,3180.86 180.767,3180.88C181.057,3180.98 181.259,3181.22 181.319,3181.5L183.024,3183.01C183.368,3183.32 183.399,3183.85 183.093,3184.19C183.07,3184.22 183.046,3184.24 183.02,3184.26C183.005,3184.46 182.92,3184.65 182.779,3184.79L181.655,3185.91C181.563,3186 181.452,3186.07 181.329,3186.11L180.486,3186.39C180.276,3186.46 180.047,3186.45 179.849,3186.35L179.287,3186.07C179.207,3186.03 179.134,3185.97 179.071,3185.91L178.509,3185.35C178.445,3185.29 178.393,3185.21 178.353,3185.13L178.072,3184.57C177.954,3184.34 177.954,3184.06 178.072,3183.83L178.306,3183.36ZM185.853,3153C185.853,3171.37 171.048,3186.18 152.679,3186.18C134.312,3186.18 119.787,3171.37 119.787,3153C119.787,3134.64 134.314,3120.11 152.679,3120.11C171.046,3120.11 185.853,3134.64 185.853,3153ZM180.719,3183.19L179.783,3184.13L179.749,3184.2L179.783,3184.27L180.154,3184.64L180.286,3184.7L180.615,3184.59L181.356,3183.85L181.356,3183.76L180.719,3183.19ZM151.846,3182.8L151.846,3175.96L151.212,3176.43L150.331,3177.02C149.948,3177.28 149.431,3177.17 149.175,3176.79C148.92,3176.41 149.024,3175.89 149.407,3175.64L150.23,3175.09L151.206,3174.36L151.965,3173.09C152.157,3172.77 152.541,3172.62 152.902,3172.72C153.263,3172.82 153.513,3173.14 153.513,3173.52L153.513,3182.8L155.49,3182.8C155.95,3182.8 156.323,3183.18 156.323,3183.64C156.323,3184.1 155.95,3184.47 155.49,3184.47L149.869,3184.47C149.409,3184.47 149.035,3184.1 149.035,3183.64C149.035,3183.18 149.409,3182.8 149.869,3182.8L151.846,3182.8ZM181.563,3177.47C181.575,3177.45 181.587,3177.44 181.6,3177.43L182.443,3176.58C182.507,3176.52 182.58,3176.47 182.66,3176.43L183.222,3176.15C183.338,3176.09 183.465,3176.06 183.595,3176.06L184.157,3176.06C184.286,3176.06 184.414,3176.09 184.529,3176.15L185.092,3176.43C185.144,3176.45 185.194,3176.49 185.239,3176.52L186.645,3177.65C186.77,3177.75 186.864,3177.88 186.915,3178.03L187.196,3178.88C187.224,3178.96 187.239,3179.05 187.239,3179.14L187.239,3179.42C187.239,3179.51 187.224,3179.6 187.196,3179.68L186.915,3180.53C186.874,3180.65 186.805,3180.76 186.713,3180.85L186.038,3181.53L186.994,3182.49C187.32,3182.81 187.32,3183.34 186.994,3183.66C186.669,3183.99 186.141,3183.99 185.816,3183.66L184.371,3182.22C184.048,3182.19 183.756,3181.98 183.647,3181.65C183.626,3181.59 183.612,3181.52 183.607,3181.45L181.332,3179.18C181.323,3179.17 181.315,3179.16 181.307,3179.15L181.038,3178.89C180.713,3178.56 180.713,3178.03 181.038,3177.71C181.184,3177.56 181.372,3177.48 181.563,3177.47ZM179.471,3182.09L179.47,3182.08L179.379,3182.04L179.257,3182.1L178.526,3182.65L178.526,3182.79C178.526,3182.9 178.507,3182.99 178.474,3183.08C178.485,3183.07 178.497,3183.06 178.509,3183.05L179.471,3182.09ZM184.859,3180.35L185.396,3179.81L185.572,3179.29L185.572,3179.28L185.411,3178.79L184.267,3177.88L183.96,3177.72L183.791,3177.72L183.526,3177.86L182.946,3178.44L184.859,3180.35ZM186.438,3176.24L185.772,3175.47C185.728,3175.41 185.69,3175.36 185.66,3175.3L185.379,3174.73C185.261,3174.5 185.261,3174.22 185.379,3173.99L185.66,3173.43C185.682,3173.38 185.709,3173.34 185.738,3173.3L186.582,3172.18C186.739,3171.97 186.986,3171.84 187.248,3171.84L188.654,3171.84C188.969,3171.84 189.258,3172.02 189.399,3172.3L189.68,3172.87C189.807,3173.12 189.796,3173.42 189.649,3173.67L188.322,3175.88L188.615,3176.22L188.717,3176.27L189.047,3176.16L189.611,3175.6L189.83,3174.94C189.976,3174.51 190.448,3174.27 190.884,3174.41C191.321,3174.56 191.557,3175.03 191.411,3175.47L191.13,3176.31C191.09,3176.43 191.021,3176.55 190.929,3176.64L190.086,3177.48C189.994,3177.57 189.883,3177.64 189.76,3177.68L188.917,3177.96C188.707,3178.03 188.479,3178.02 188.281,3177.92L187.719,3177.64C187.619,3177.59 187.531,3177.52 187.459,3177.43L186.932,3176.82C186.894,3176.8 186.856,3176.78 186.82,3176.76C186.62,3176.64 186.489,3176.45 186.438,3176.24ZM187.665,3173.51L187.117,3174.24L187.056,3174.36L187.105,3174.46L187.178,3174.55L187.8,3173.51L187.665,3173.51ZM138.356,3141.21L138.356,3135.3C138.356,3134.84 138.729,3134.46 139.189,3134.46C139.649,3134.46 140.022,3134.84 140.022,3135.3L140.022,3141.21L144.248,3141.21L144.282,3141.21L144.314,3141.21L144.345,3141.21L144.376,3141.22L144.407,3141.22L144.443,3141.23L144.478,3141.24L144.51,3141.25L144.544,3141.26L144.572,3141.27L144.6,3141.29L144.627,3141.3L144.654,3141.31L144.68,3141.33L144.705,3141.35L144.73,3141.36L144.758,3141.38L144.785,3141.41L144.812,3141.43L144.838,3141.45L144.862,3141.48L144.885,3141.51L144.904,3141.53L144.922,3141.55L144.939,3141.58L144.956,3141.6L144.971,3141.63L144.986,3141.65L144.999,3141.68L145.012,3141.71L145.024,3141.74L145.035,3141.77L145.046,3141.8L145.055,3141.84L145.063,3141.87L145.07,3141.9L145.074,3141.93L145.078,3141.97L145.08,3142L145.081,3142.03L145.081,3142.04L145.081,3145.41L145.08,3145.45L145.079,3145.48L145.076,3145.51L145.072,3145.54L145.072,3145.54C145.01,3145.94 144.665,3146.25 144.248,3146.25L140.022,3146.25L140.022,3169.02C140.022,3169.48 139.649,3169.86 139.189,3169.86C138.729,3169.86 138.356,3169.48 138.356,3169.02L138.356,3146.25L134.13,3146.25L134.096,3146.25L134.064,3146.24L134.033,3146.24L134.002,3146.24L133.971,3146.23L133.941,3146.23L133.911,3146.22L133.887,3146.21L133.873,3146.21C133.54,3146.1 133.299,3145.79 133.297,3145.42L133.297,3145.41L133.297,3142.04L133.297,3142.01L133.299,3141.97L133.302,3141.94L133.307,3141.91L133.313,3141.88L133.318,3141.85L133.323,3141.83C133.415,3141.47 133.742,3141.21 134.13,3141.21L134.13,3141.21L138.356,3141.21ZM151.846,3159.76L151.846,3135.3C151.846,3134.84 152.219,3134.46 152.679,3134.46C153.139,3134.46 153.513,3134.84 153.513,3135.3L153.513,3159.76L157.738,3159.76L157.773,3159.76L157.804,3159.76L157.836,3159.76L157.867,3159.77L157.897,3159.77L157.928,3159.78L157.958,3159.79L157.987,3159.8L158.016,3159.8L158.039,3159.81L158.053,3159.82C158.354,3159.94 158.567,3160.24 158.571,3160.58L158.571,3160.59L158.571,3163.96L158.571,3164L158.569,3164.03L158.566,3164.06L158.561,3164.1L158.556,3164.13L158.55,3164.15L158.547,3164.17C158.456,3164.53 158.128,3164.8 157.738,3164.8L153.513,3164.8L153.513,3169.02C153.513,3169.48 153.139,3169.86 152.679,3169.86C152.219,3169.86 151.846,3169.48 151.846,3169.02L151.846,3164.8L147.62,3164.8L147.586,3164.8L147.554,3164.79L147.523,3164.79L147.492,3164.79L147.461,3164.78L147.425,3164.77L147.39,3164.76L147.356,3164.75L147.322,3164.74L147.289,3164.73L147.257,3164.71L147.226,3164.7L147.196,3164.68L147.17,3164.66L147.146,3164.65L147.122,3164.63L147.11,3164.62C146.928,3164.48 146.806,3164.26 146.789,3164.02L146.788,3163.99L146.787,3163.96L146.787,3160.59L146.788,3160.56L146.79,3160.52L146.793,3160.49L146.798,3160.46L146.803,3160.43L146.81,3160.4L146.816,3160.37C146.912,3160.02 147.236,3159.76 147.62,3159.76L147.62,3159.76L151.846,3159.76ZM165.336,3149.64L165.336,3135.3C165.336,3134.84 165.71,3134.46 166.17,3134.46C166.63,3134.46 167.003,3134.84 167.003,3135.3L167.003,3149.64L171.229,3149.64L171.263,3149.64L171.3,3149.64L171.335,3149.65L171.366,3149.65L171.396,3149.66L171.422,3149.66L171.427,3149.66C171.791,3149.75 172.062,3150.08 172.062,3150.47L172.062,3153.85L172.061,3153.88L172.06,3153.9C172.03,3154.34 171.669,3154.68 171.229,3154.68L167.003,3154.68L167.003,3169.02C167.003,3169.48 166.63,3169.86 166.17,3169.86C165.71,3169.86 165.336,3169.48 165.336,3169.02L165.336,3154.68L161.111,3154.68L161.083,3154.68L161.051,3154.68L161.025,3154.67L160.989,3154.67L160.963,3154.67L160.953,3154.66C160.568,3154.59 160.277,3154.25 160.277,3153.85L160.277,3150.47L160.278,3150.44L160.28,3150.41L160.283,3150.38L160.286,3150.35C160.345,3149.95 160.692,3149.64 161.111,3149.64L165.336,3149.64ZM148.454,3163.13L156.905,3163.13L156.905,3161.42L148.454,3161.42L148.454,3163.13ZM170.395,3151.31L161.944,3151.31L161.944,3153.01L170.395,3153.01L170.395,3151.31ZM143.414,3142.87L134.963,3142.87L134.963,3144.58L143.414,3144.58L143.414,3142.87Z"/>
    </g>
</svg>
