<?xml version="1.0" encoding="UTF-8" standalone="no"?>
<!DOCTYPE svg PUBLIC "-//W3C//DTD SVG 1.1//EN" "http://www.w3.org/Graphics/SVG/1.1/DTD/svg11.dtd">
<svg width="100%" height="100%" viewBox="0 0 70 70" version="1.1" xmlns="http://www.w3.org/2000/svg" xmlns:xlink="http://www.w3.org/1999/xlink" xml:space="preserve" xmlns:serif="http://www.serif.com/" style="fill-rule:evenodd;clip-rule:evenodd;stroke-linejoin:round;stroke-miterlimit:2;">
    <g transform="matrix(1,0,0,1,-198.219,-2582.76)">
        <path d="M204.828,2596.82C211.075,2588.26 221.201,2582.76 232.778,2582.76C252.072,2582.76 267.619,2598.03 267.619,2617.32C267.619,2636.61 252.07,2652.16 232.778,2652.16C213.485,2652.16 198.219,2636.62 198.219,2617.32C198.219,2610.21 200.293,2603.65 203.878,2598.19L199.696,2595.24C199.32,2594.97 199.231,2594.45 199.496,2594.08C199.761,2593.7 200.281,2593.61 200.657,2593.88L204.828,2596.82ZM208.277,2621.92L202.171,2628.03C202.036,2628.16 201.866,2628.24 201.691,2628.27L201.691,2628.27C201.828,2628.67 201.972,2629.06 202.124,2629.46C202.431,2630.26 202.77,2631.04 203.138,2631.82C204.039,2633.7 205.12,2635.51 206.361,2637.19C207.379,2638.57 208.504,2639.87 209.724,2641.08C210.955,2642.29 212.282,2643.41 213.69,2644.42C215.024,2645.37 216.431,2646.22 217.893,2646.97C219.328,2647.69 220.816,2648.32 222.343,2648.82C224.293,2649.47 226.305,2649.93 228.342,2650.2C229.247,2650.32 230.156,2650.41 231.068,2650.45C231.548,2650.48 232.029,2650.49 232.51,2650.49L232.536,2650.49L208.277,2621.92ZM234.704,2650.44C252.171,2649.45 265.952,2635.05 265.952,2617.32C265.952,2598.96 251.145,2584.43 232.778,2584.43C214.413,2584.43 199.886,2598.96 199.886,2617.32C199.886,2620.57 200.339,2623.7 201.186,2626.66L207.732,2620.11C207.741,2620.1 207.751,2620.09 207.761,2620.08L207.764,2620.08C207.825,2620.03 207.892,2619.98 207.963,2619.95L207.967,2619.94C208.09,2619.88 208.224,2619.86 208.357,2619.86L208.365,2619.86C208.498,2619.87 208.629,2619.91 208.747,2619.97L208.751,2619.98C208.819,2620.02 208.882,2620.07 208.938,2620.13L208.941,2620.13C208.95,2620.14 208.959,2620.15 208.968,2620.16L233.587,2649.16L255.693,2620.23C255.718,2620.19 255.746,2620.16 255.778,2620.13C255.794,2620.11 255.811,2620.09 255.828,2620.08C256.154,2619.78 256.634,2619.76 256.919,2620.05L263.773,2626.9C264.067,2627.2 264.041,2627.7 263.716,2628.03C263.391,2628.35 262.888,2628.38 262.594,2628.08L256.47,2621.96L234.704,2650.44ZM247.064,2599.37C249.37,2602.34 250.756,2606.03 250.756,2610.01C250.756,2619.74 242.504,2627.99 232.778,2627.99C223.049,2627.99 215.082,2619.74 215.082,2610.01C215.082,2600.28 223.045,2592.32 232.778,2592.32C238.304,2592.32 243.353,2594.89 246.684,2598.89C246.746,2598.93 246.805,2598.97 246.858,2599.03C246.956,2599.13 247.025,2599.24 247.064,2599.37ZM245.105,2599.6C242.083,2596.17 237.632,2593.99 232.778,2593.99C223.962,2593.99 216.749,2601.2 216.749,2610.01C216.749,2618.84 223.958,2626.33 232.778,2626.33C241.602,2626.33 249.089,2618.84 249.089,2610.01C249.089,2606.64 247.994,2603.51 246.147,2600.92L243.485,2603.58C243.16,2603.9 242.632,2603.9 242.307,2603.58C241.982,2603.25 241.982,2602.72 242.307,2602.4L245.105,2599.6ZM225.884,2612.53L225.137,2614.78C224.992,2615.21 224.52,2615.45 224.083,2615.3C223.647,2615.16 223.411,2614.68 223.556,2614.25L226.929,2604.13C227.042,2603.79 227.361,2603.56 227.719,2603.56C228.078,2603.56 228.397,2603.79 228.51,2604.13L230.837,2611.11C230.988,2611.26 231.082,2611.47 231.082,2611.7C231.082,2611.74 231.079,2611.78 231.074,2611.82L231.883,2614.25C232.028,2614.68 231.792,2615.16 231.356,2615.3C230.919,2615.45 230.447,2615.21 230.301,2614.78L229.555,2612.53L225.884,2612.53ZM240.527,2614.09L240.269,2614.6C240.16,2614.82 239.962,2614.98 239.726,2615.04L238.601,2615.32C238.535,2615.34 238.467,2615.35 238.399,2615.35L234.465,2615.35C234.004,2615.35 233.631,2614.97 233.631,2614.51L233.631,2604.39C233.631,2603.93 234.004,2603.56 234.465,2603.56L237.837,2603.56C237.967,2603.56 238.094,2603.59 238.21,2603.65L239.334,2604.21C239.414,2604.25 239.487,2604.3 239.551,2604.37L240.113,2604.93C240.204,2605.02 240.273,2605.13 240.314,2605.26L240.595,2606.1C240.623,2606.18 240.638,2606.27 240.638,2606.36L240.638,2607.49C240.638,2607.58 240.623,2607.66 240.595,2607.75L240.314,2608.59C240.273,2608.72 240.204,2608.83 240.113,2608.92L239.988,2609.04C240.106,2609.12 240.204,2609.23 240.269,2609.36L240.527,2609.88L241.06,2610.68C241.151,2610.81 241.2,2610.97 241.2,2611.14L241.2,2612.83C241.2,2612.99 241.151,2613.15 241.06,2613.29L240.527,2614.09ZM238.968,2610.49L237.768,2610.29L235.298,2610.29L235.298,2613.68L238.297,2613.68L238.949,2613.52L239.111,2613.21L239.533,2612.57L239.533,2611.39L239.111,2610.76L238.968,2610.49ZM226.44,2610.87L228.999,2610.87L227.719,2607.03L226.44,2610.87ZM235.298,2605.23L235.298,2608.62L237.64,2608.62L238.468,2608.21L238.795,2607.88L238.971,2607.35L238.971,2606.5L238.795,2605.97L238.468,2605.64L237.64,2605.23L235.298,2605.23Z"/>
    </g>
</svg>
