<?xml version="1.0" encoding="UTF-8" standalone="no"?>
<!DOCTYPE svg PUBLIC "-//W3C//DTD SVG 1.1//EN" "http://www.w3.org/Graphics/SVG/1.1/DTD/svg11.dtd">
<svg width="100%" height="100%" viewBox="0 0 72 72" version="1.1" xmlns="http://www.w3.org/2000/svg" xmlns:xlink="http://www.w3.org/1999/xlink" xml:space="preserve" xmlns:serif="http://www.serif.com/" style="fill-rule:evenodd;clip-rule:evenodd;stroke-linejoin:round;stroke-miterlimit:2;">
    <g transform="matrix(1,0,0,1,-199.062,-3118.44)">
        <path d="M257.012,3188.08L257.528,3187.91C257.964,3187.76 258.437,3187.99 258.582,3188.43C258.728,3188.87 258.492,3189.34 258.055,3189.49L257.212,3189.77C257.002,3189.84 256.773,3189.82 256.576,3189.72L256.014,3189.44C255.925,3189.4 255.845,3189.34 255.777,3189.26L251.843,3185.05C251.529,3184.71 251.547,3184.18 251.883,3183.87C252.219,3183.56 252.747,3183.58 253.061,3183.91L256.893,3188.02L257.012,3188.08ZM268.462,3153C268.462,3133.71 252.915,3118.44 233.621,3118.44C214.326,3118.44 199.062,3133.71 199.062,3153C199.062,3172.3 214.328,3187.84 233.621,3187.84C252.913,3187.84 268.462,3172.29 268.462,3153ZM260.597,3186.95L259.741,3187.24C259.657,3187.27 259.568,3187.28 259.478,3187.28L259.197,3187.28C259.107,3187.28 259.018,3187.27 258.933,3187.24L258.09,3186.96C257.968,3186.91 257.856,3186.85 257.765,3186.76L256.359,3185.35C256.203,3185.19 256.115,3184.98 256.115,3184.76L256.115,3183.07C256.115,3182.85 256.203,3182.64 256.359,3182.49L257.202,3181.64C257.359,3181.49 257.571,3181.4 257.792,3181.4L259.478,3181.4C259.699,3181.4 259.911,3181.49 260.067,3181.64L261.472,3183.05C261.564,3183.14 261.633,3183.25 261.674,3183.37L261.955,3184.22C261.983,3184.3 261.998,3184.39 261.998,3184.48L261.998,3184.76C261.998,3184.85 261.983,3184.94 261.955,3185.02L261.674,3185.87C261.633,3185.99 261.564,3186.1 261.472,3186.19L260.872,3186.79L260.745,3186.88L260.597,3186.95ZM266.795,3153C266.795,3171.37 251.99,3186.18 233.621,3186.18C215.255,3186.18 200.729,3171.37 200.729,3153C200.729,3134.64 215.256,3120.11 233.621,3120.11C251.988,3120.11 266.795,3134.64 266.795,3153ZM258.137,3183.06L257.782,3183.42L257.782,3184.41L258.804,3185.44L259.332,3185.61L259.343,3185.61L259.871,3185.44L260.155,3185.15L260.331,3184.63L260.331,3184.62L260.155,3184.09L259.133,3183.06L258.137,3183.06ZM231.586,3173.92L231.4,3174.11L230.222,3172.93L230.503,3172.65C230.566,3172.59 230.639,3172.53 230.719,3172.49L231.843,3171.93C231.959,3171.87 232.087,3171.84 232.216,3171.84L234.465,3171.84C234.594,3171.84 234.722,3171.87 234.837,3171.93L236.524,3172.77C236.741,3172.88 236.9,3173.08 236.959,3173.32L237.24,3174.44C237.257,3174.51 237.265,3174.58 237.265,3174.64L237.265,3175.49C237.265,3175.54 237.26,3175.6 237.249,3175.65L236.968,3177.06C236.936,3177.22 236.856,3177.36 236.74,3177.48L232.261,3181.96L236.432,3181.96C236.892,3181.96 237.265,3182.33 237.265,3182.79C237.265,3183.25 236.892,3183.63 236.432,3183.63L230.249,3183.63C229.912,3183.63 229.608,3183.42 229.479,3183.11C229.35,3182.8 229.421,3182.44 229.66,3182.2L235.383,3176.48L235.599,3175.4L235.599,3174.74L235.435,3174.09L234.268,3173.51L232.413,3173.51L231.586,3173.92ZM264.816,3182.74L263.957,3183.02C263.872,3183.05 263.783,3183.07 263.694,3183.07L263.413,3183.07C263.323,3183.07 263.234,3183.05 263.149,3183.02L262.306,3182.74C262.154,3182.69 262.019,3182.6 261.919,3182.47L260.795,3181.07C260.758,3181.02 260.726,3180.97 260.7,3180.92L260.419,3180.36C260.361,3180.24 260.331,3180.11 260.331,3179.98L260.331,3179.42C260.331,3179.29 260.361,3179.16 260.419,3179.05L260.7,3178.49C260.715,3178.45 260.733,3178.43 260.752,3178.4L261.314,3177.55C261.469,3177.32 261.729,3177.18 262.007,3177.18L263.694,3177.18C263.915,3177.18 264.127,3177.27 264.283,3177.43L265.688,3178.83C265.78,3178.92 265.849,3179.03 265.89,3179.16L266.171,3180C266.199,3180.09 266.213,3180.17 266.213,3180.26L266.213,3180.55C266.213,3180.67 266.183,3180.8 266.125,3180.92L265.844,3181.48C265.829,3181.51 265.811,3181.54 265.792,3181.57L265.179,3182.48L265.087,3182.58L264.954,3182.67L264.841,3182.73L264.816,3182.74ZM262.453,3178.85L262.167,3179.28L261.998,3179.62L261.998,3179.79L262.151,3180.09L263.066,3181.24L263.548,3181.4L263.558,3181.4L264.002,3181.25L264.377,3180.69L264.536,3180.37L264.371,3179.87L263.349,3178.85L262.453,3178.85ZM264.581,3174.41L264.589,3174.38C264.63,3174.26 264.699,3174.14 264.791,3174.05L265.634,3173.21C265.697,3173.15 265.77,3173.09 265.85,3173.05L266.413,3172.77C266.528,3172.72 266.656,3172.68 266.785,3172.68L267.347,3172.68C267.477,3172.68 267.604,3172.72 267.72,3172.77L268.282,3173.05C268.362,3173.09 268.435,3173.15 268.499,3173.21L269.904,3174.62C269.967,3174.68 270.02,3174.75 270.06,3174.83L270.341,3175.39C270.399,3175.51 270.429,3175.64 270.429,3175.77L270.429,3176.33C270.429,3176.46 270.399,3176.59 270.341,3176.7L270.06,3177.26C270.038,3177.31 270.011,3177.35 269.981,3177.39L269.211,3178.42L270.185,3179.39C270.51,3179.72 270.51,3180.25 270.185,3180.57C269.86,3180.9 269.332,3180.9 269.006,3180.57L264.229,3175.79C263.903,3175.47 263.903,3174.94 264.229,3174.62C264.33,3174.51 264.452,3174.44 264.581,3174.41ZM267.974,3177.18L268.055,3177.18L268.603,3176.45L268.762,3176.13L268.762,3175.96L268.63,3175.7L267.416,3174.49L267.151,3174.35L266.982,3174.35L266.717,3174.49L266.108,3175.09L266.052,3175.26L267.974,3177.18ZM246.278,3149.64L246.278,3135.3C246.278,3134.84 246.652,3134.46 247.112,3134.46C247.572,3134.46 247.945,3134.84 247.945,3135.3L247.945,3149.64L252.171,3149.64L252.205,3149.64L252.242,3149.64L252.273,3149.65L252.31,3149.65L252.344,3149.66L252.374,3149.66L252.404,3149.67L252.428,3149.68L252.438,3149.68C252.765,3149.79 253.002,3150.1 253.004,3150.47L253.004,3150.47L253.004,3153.85C253.004,3154.31 252.631,3154.68 252.171,3154.68L247.945,3154.68L247.945,3169.02C247.945,3169.48 247.572,3169.86 247.112,3169.86C246.652,3169.86 246.278,3169.48 246.278,3169.02L246.278,3154.68L242.053,3154.68L242.018,3154.68L241.989,3154.68L241.962,3154.67L241.936,3154.67L241.931,3154.67C241.529,3154.61 241.22,3154.26 241.22,3153.85L241.22,3150.47L241.22,3150.44L241.222,3150.41L241.225,3150.38L241.227,3150.36C241.281,3149.95 241.631,3149.64 242.053,3149.64L246.278,3149.64ZM232.788,3159.76L232.788,3135.3C232.788,3134.84 233.161,3134.46 233.621,3134.46C234.081,3134.46 234.455,3134.84 234.455,3135.3L234.455,3159.76L238.68,3159.76L238.715,3159.76L238.752,3159.76L238.783,3159.76L238.82,3159.77L238.853,3159.78L238.883,3159.78L238.913,3159.79L238.938,3159.8L238.962,3159.81C239.282,3159.92 239.511,3160.23 239.514,3160.58L239.514,3160.59L239.514,3163.96L239.513,3164L239.511,3164.03L239.507,3164.07L239.502,3164.1L239.497,3164.13L239.491,3164.16L239.49,3164.16C239.401,3164.53 239.072,3164.8 238.68,3164.8L234.455,3164.8L234.455,3169.02C234.455,3169.48 234.081,3169.86 233.621,3169.86C233.161,3169.86 232.788,3169.48 232.788,3169.02L232.788,3164.8L228.563,3164.8L228.528,3164.8L228.497,3164.79L228.465,3164.79L228.434,3164.79L228.403,3164.78L228.367,3164.77L228.332,3164.76L228.298,3164.75L228.264,3164.74L228.232,3164.73L228.199,3164.71L228.168,3164.7L228.138,3164.68L228.113,3164.66L228.088,3164.65L228.068,3164.63L228.064,3164.63C227.873,3164.49 227.745,3164.26 227.731,3164.01L227.729,3163.98L227.729,3163.96L227.729,3160.59L227.73,3160.56L227.732,3160.52L227.735,3160.49L227.74,3160.46L227.745,3160.43L227.752,3160.4L227.758,3160.37C227.854,3160.02 228.178,3159.76 228.562,3159.76L228.563,3159.76L232.788,3159.76ZM219.298,3141.21L219.298,3135.3C219.298,3134.84 219.671,3134.46 220.131,3134.46C220.591,3134.46 220.964,3134.84 220.964,3135.3L220.964,3141.21L225.19,3141.21L225.224,3141.21L225.256,3141.21L225.287,3141.21L225.319,3141.22L225.355,3141.22L225.391,3141.23L225.423,3141.24L225.452,3141.25L225.481,3141.26L225.51,3141.27L225.533,3141.28L225.556,3141.29L225.578,3141.3L225.583,3141.31C225.836,3141.44 226.011,3141.7 226.023,3142.01L226.023,3142.04L226.023,3145.41L226.023,3145.45L226.021,3145.48L226.018,3145.51L226.014,3145.54C225.955,3145.94 225.609,3146.25 225.19,3146.25L220.964,3146.25L220.964,3169.02C220.964,3169.48 220.591,3169.86 220.131,3169.86C219.671,3169.86 219.298,3169.48 219.298,3169.02L219.298,3146.25L215.072,3146.25L215.038,3146.25L215.006,3146.24L214.975,3146.24L214.938,3146.24L214.904,3146.23L214.874,3146.22L214.849,3146.22L214.834,3146.21C214.49,3146.11 214.239,3145.79 214.239,3145.41L214.239,3145.41L214.239,3142.04L214.24,3142.01L214.241,3141.97L214.245,3141.94L214.249,3141.91L214.255,3141.88L214.26,3141.85L214.265,3141.83C214.358,3141.47 214.684,3141.21 215.072,3141.21L215.072,3141.21L219.298,3141.21ZM237.847,3163.13L237.847,3161.42L229.396,3161.42L229.396,3163.13L237.847,3163.13ZM251.337,3151.31L242.886,3151.31L242.886,3153.01L251.337,3153.01L251.337,3151.31ZM224.357,3142.87L215.906,3142.87L215.906,3144.58L224.357,3144.58L224.357,3142.87Z"/>
    </g>
</svg>
