<?xml version="1.0" encoding="UTF-8" standalone="no"?>
<!DOCTYPE svg PUBLIC "-//W3C//DTD SVG 1.1//EN" "http://www.w3.org/Graphics/SVG/1.1/DTD/svg11.dtd">
<svg width="100%" height="100%" viewBox="0 0 70 70" version="1.1" xmlns="http://www.w3.org/2000/svg" xmlns:xlink="http://www.w3.org/1999/xlink" xml:space="preserve" xmlns:serif="http://www.serif.com/" style="fill-rule:evenodd;clip-rule:evenodd;stroke-linejoin:round;stroke-miterlimit:2;">
    <g transform="matrix(1,0,0,1,-280.004,-3118.44)">
        <path d="M349.404,3153C349.404,3133.71 333.857,3118.44 314.564,3118.44C295.268,3118.44 280.004,3133.71 280.004,3153C280.004,3172.3 295.27,3187.84 314.564,3187.84C333.855,3187.84 349.404,3172.29 349.404,3153ZM347.737,3153C347.737,3171.37 332.932,3186.18 314.564,3186.18C296.197,3186.18 281.671,3171.37 281.671,3153C281.671,3134.64 296.199,3120.11 314.564,3120.11C332.931,3120.11 347.737,3134.64 347.737,3153ZM329.74,3131.93L329.774,3131.93L329.806,3131.94L329.838,3131.94L329.869,3131.94L329.9,3131.95L329.936,3131.96L329.968,3131.97L329.998,3131.97L330.027,3131.98L330.055,3131.99L330.083,3132.01L330.11,3132.02L330.133,3132.03L330.137,3132.03C330.39,3132.17 330.563,3132.43 330.573,3132.74L330.574,3132.77L330.574,3173.24L330.573,3173.27L330.571,3173.3L330.568,3173.34L330.563,3173.37L330.558,3173.4L330.552,3173.43L330.549,3173.44C330.458,3173.8 330.13,3174.07 329.74,3174.07L299.387,3174.07L299.352,3174.07L299.321,3174.07L299.289,3174.07L299.258,3174.06L299.222,3174.06L299.187,3174.05L299.152,3174.04L299.118,3174.03L299.084,3174.01L299.051,3174L299.019,3173.99L298.988,3173.97L298.958,3173.95L298.933,3173.94L298.908,3173.92L298.892,3173.91C298.699,3173.76 298.57,3173.54 298.555,3173.29L298.554,3173.25L298.554,3173.24L298.554,3144.57L298.554,3144.54L298.556,3144.51L298.559,3144.47L298.564,3144.44L298.569,3144.41L298.575,3144.38L298.579,3144.37C298.588,3144.33 298.601,3144.29 298.616,3144.25L298.617,3144.25C298.658,3144.15 298.718,3144.06 298.798,3143.98L310.602,3132.18C310.681,3132.1 310.773,3132.04 310.871,3132L310.873,3132C310.971,3131.96 311.078,3131.93 311.191,3131.93L329.74,3131.93ZM300.22,3145.4L300.22,3172.4L328.907,3172.4L328.907,3133.6L312.024,3133.6L312.024,3144.57L312.024,3144.61L312.022,3144.64L312.019,3144.67L312.015,3144.7L312.009,3144.73L312.004,3144.75L312.001,3144.77C311.912,3145.13 311.586,3145.4 311.196,3145.4L311.191,3145.4L300.22,3145.4ZM301.399,3143.74L310.358,3143.74L310.358,3134.78L301.399,3143.74Z"/>
    </g>
</svg>
