<?xml version="1.0" encoding="UTF-8" standalone="no"?>
<!DOCTYPE svg PUBLIC "-//W3C//DTD SVG 1.1//EN" "http://www.w3.org/Graphics/SVG/1.1/DTD/svg11.dtd">
<svg width="100%" height="100%" viewBox="0 0 70 70" version="1.1" xmlns="http://www.w3.org/2000/svg" xmlns:xlink="http://www.w3.org/1999/xlink" xml:space="preserve" xmlns:serif="http://www.serif.com/" style="fill-rule:evenodd;clip-rule:evenodd;stroke-linejoin:round;stroke-miterlimit:2;">
    <g transform="matrix(1,0,0,1,-360.946,-3118.44)">
        <path d="M430.346,3153C430.346,3133.71 414.799,3118.44 395.506,3118.44C376.21,3118.44 360.946,3133.71 360.946,3153C360.946,3172.3 376.212,3187.84 395.506,3187.84C414.797,3187.84 430.346,3172.29 430.346,3153ZM428.679,3153C428.679,3171.37 413.875,3186.18 395.506,3186.18C377.139,3186.18 362.613,3171.37 362.613,3153C362.613,3134.64 377.141,3120.11 395.506,3120.11C413.873,3120.11 428.679,3134.64 428.679,3153ZM382.025,3163.12L382.025,3142.88C382.025,3142.42 382.399,3142.05 382.859,3142.05C383.318,3142.05 383.692,3142.42 383.692,3142.88L383.692,3163.12C383.692,3163.58 383.318,3163.95 382.859,3163.95C382.399,3163.95 382.025,3163.58 382.025,3163.12ZM383.955,3152.41L394.073,3142.3C394.398,3141.97 394.927,3141.97 395.252,3142.3C395.577,3142.62 395.577,3143.15 395.252,3143.47L386.557,3152.17L409.839,3152.17C410.299,3152.17 410.673,3152.54 410.673,3153C410.673,3153.46 410.299,3153.84 409.839,3153.84L386.557,3153.84L395.252,3162.53C395.577,3162.86 395.577,3163.38 395.252,3163.71C394.927,3164.03 394.398,3164.03 394.073,3163.71L383.955,3153.59L383.932,3153.57L383.911,3153.54L383.891,3153.52L383.872,3153.49L383.853,3153.47L383.834,3153.44L383.815,3153.41L383.8,3153.38L383.785,3153.34L383.774,3153.32C383.734,3153.22 383.711,3153.12 383.711,3153C383.711,3152.89 383.734,3152.78 383.774,3152.68L383.789,3152.65L383.804,3152.62L383.822,3152.59L383.838,3152.56L383.855,3152.53L383.873,3152.51L383.892,3152.48L383.912,3152.46L383.933,3152.44L383.955,3152.41Z"/>
    </g>
</svg>
