<?xml version="1.0" encoding="UTF-8" standalone="no"?>
<!DOCTYPE svg PUBLIC "-//W3C//DTD SVG 1.1//EN" "http://www.w3.org/Graphics/SVG/1.1/DTD/svg11.dtd">
<svg width="100%" height="100%" viewBox="0 0 70 70" version="1.1" xmlns="http://www.w3.org/2000/svg" xmlns:xlink="http://www.w3.org/1999/xlink" xml:space="preserve" xmlns:serif="http://www.serif.com/" style="fill-rule:evenodd;clip-rule:evenodd;stroke-linejoin:round;stroke-miterlimit:2;">
    <g transform="matrix(1,0,0,1,-441.889,-3118.44)">
        <path d="M511.288,3153C511.288,3133.71 495.741,3118.44 476.448,3118.44C457.152,3118.44 441.889,3133.71 441.889,3153C441.889,3172.3 457.154,3187.84 476.448,3187.84C495.739,3187.84 511.288,3172.29 511.288,3153ZM509.621,3153C509.621,3171.37 494.817,3186.18 476.448,3186.18C458.081,3186.18 443.555,3171.37 443.555,3153C443.555,3134.64 458.083,3120.11 476.448,3120.11C494.815,3120.11 509.621,3134.64 509.621,3153ZM487.419,3163.96L487.419,3143.73C487.419,3143.27 487.792,3142.89 488.252,3142.89C488.712,3142.89 489.085,3143.27 489.085,3143.73L489.085,3163.96C489.085,3164.42 488.712,3164.8 488.252,3164.8C487.792,3164.8 487.419,3164.42 487.419,3163.96ZM484.554,3153.01L475.859,3144.32C475.533,3143.99 475.533,3143.46 475.859,3143.14C476.184,3142.81 476.712,3142.81 477.037,3143.14L487.155,3153.26L487.179,3153.28L487.2,3153.3L487.22,3153.33L487.239,3153.35L487.257,3153.38L487.274,3153.41L487.29,3153.43L487.307,3153.46L487.32,3153.49L487.333,3153.52L487.336,3153.53C487.377,3153.63 487.399,3153.73 487.399,3153.85C487.399,3153.96 487.377,3154.07 487.336,3154.16L487.335,3154.16C487.297,3154.26 487.242,3154.34 487.17,3154.42L487.155,3154.43L477.037,3164.55C476.712,3164.88 476.184,3164.88 475.859,3164.55C475.533,3164.23 475.533,3163.7 475.859,3163.37L484.554,3154.68L461.271,3154.68C460.811,3154.68 460.438,3154.31 460.438,3153.85C460.438,3153.39 460.811,3153.01 461.271,3153.01L484.554,3153.01Z"/>
    </g>
</svg>
