<?xml version="1.0" encoding="UTF-8" standalone="no"?>
<!DOCTYPE svg PUBLIC "-//W3C//DTD SVG 1.1//EN" "http://www.w3.org/Graphics/SVG/1.1/DTD/svg11.dtd">
<svg width="100%" height="100%" viewBox="0 0 70 70" version="1.1" xmlns="http://www.w3.org/2000/svg" xmlns:xlink="http://www.w3.org/1999/xlink" xml:space="preserve" xmlns:serif="http://www.serif.com/" style="fill-rule:evenodd;clip-rule:evenodd;stroke-linejoin:round;stroke-miterlimit:2;">
    <g transform="matrix(1,0,0,1,-522.831,-3118.44)">
        <path d="M592.23,3153C592.23,3133.71 576.684,3118.44 557.39,3118.44C538.094,3118.44 522.831,3133.71 522.831,3153C522.831,3172.3 538.096,3187.84 557.39,3187.84C576.682,3187.84 592.23,3172.29 592.23,3153ZM590.564,3153C590.564,3171.37 575.759,3186.18 557.39,3186.18C539.023,3186.18 524.497,3171.37 524.497,3153C524.497,3134.64 539.025,3120.11 557.39,3120.11C575.757,3120.11 590.564,3134.64 590.564,3153ZM557.39,3151.82L566.918,3142.3C567.244,3141.97 567.772,3141.97 568.097,3142.3C568.422,3142.62 568.422,3143.15 568.097,3143.47L558.568,3153L568.097,3162.53C568.422,3162.86 568.422,3163.38 568.097,3163.71C567.772,3164.03 567.244,3164.03 566.918,3163.71L557.39,3154.18L547.861,3163.71C547.536,3164.03 547.008,3164.03 546.683,3163.71C546.358,3163.38 546.358,3162.86 546.683,3162.53L556.211,3153L546.683,3143.47C546.358,3143.15 546.358,3142.62 546.683,3142.3C547.008,3141.97 547.536,3141.97 547.861,3142.3L557.39,3151.82Z"/>
    </g>
</svg>
