<?xml version="1.0" encoding="UTF-8" standalone="no"?>
<!DOCTYPE svg PUBLIC "-//W3C//DTD SVG 1.1//EN" "http://www.w3.org/Graphics/SVG/1.1/DTD/svg11.dtd">
<svg width="100%" height="100%" viewBox="0 0 70 70" version="1.1" xmlns="http://www.w3.org/2000/svg" xmlns:xlink="http://www.w3.org/1999/xlink" xml:space="preserve" xmlns:serif="http://www.serif.com/" style="fill-rule:evenodd;clip-rule:evenodd;stroke-linejoin:round;stroke-miterlimit:2;">
    <g transform="matrix(1,0,0,1,-603.773,-3118.44)">
        <path d="M638.558,3118.44C657.747,3118.56 673.172,3133.78 673.172,3153C673.172,3172.22 657.745,3187.72 638.558,3187.84L638.332,3187.84C619.038,3187.84 603.773,3172.3 603.773,3153C603.773,3133.71 619.037,3118.44 638.332,3118.44L638.558,3118.44ZM638.332,3120.11C619.967,3120.11 605.44,3134.64 605.44,3153C605.44,3171.37 619.965,3186.18 638.332,3186.18L638.547,3186.18C656.816,3186.06 671.506,3171.3 671.506,3153C671.506,3134.71 656.814,3120.22 638.547,3120.11L638.332,3120.11ZM638.413,3140.37C645.294,3140.41 651.251,3146.11 651.251,3153C651.251,3159.89 645.289,3165.87 638.413,3165.92L638.332,3165.92C631.417,3165.92 625.695,3159.92 625.695,3153C625.695,3146.08 631.412,3140.37 638.332,3140.37L638.413,3140.37ZM638.332,3142.03C632.324,3142.03 627.361,3146.99 627.361,3153C627.361,3159.01 632.319,3164.25 638.332,3164.25L638.403,3164.25C644.391,3164.21 649.584,3159 649.584,3153C649.584,3147.01 644.386,3142.07 638.403,3142.03L638.332,3142.03Z"/>
    </g>
</svg>
