<?xml version="1.0" encoding="UTF-8" standalone="no"?>
<!DOCTYPE svg PUBLIC "-//W3C//DTD SVG 1.1//EN" "http://www.w3.org/Graphics/SVG/1.1/DTD/svg11.dtd">
<svg width="100%" height="100%" viewBox="0 0 70 70" version="1.1" xmlns="http://www.w3.org/2000/svg" xmlns:xlink="http://www.w3.org/1999/xlink" xml:space="preserve" xmlns:serif="http://www.serif.com/" style="fill-rule:evenodd;clip-rule:evenodd;stroke-linejoin:round;stroke-miterlimit:2;">
    <g transform="matrix(1,0,0,1,-684.715,-3118.44)">
        <path d="M719.331,3118.44C738.599,3118.47 754.115,3133.73 754.115,3153C754.115,3172.28 738.597,3187.81 719.331,3187.84L719.274,3187.84C699.981,3187.84 684.715,3172.3 684.715,3153C684.715,3133.71 699.979,3118.44 719.274,3118.44L719.331,3118.44ZM719.274,3120.11C700.909,3120.11 686.382,3134.64 686.382,3153C686.382,3171.37 700.907,3186.18 719.274,3186.18L719.328,3186.18C737.673,3186.15 752.448,3171.35 752.448,3153C752.448,3134.65 737.671,3120.14 719.328,3120.11L719.274,3120.11ZM716.75,3142.05C716.861,3142.05 716.966,3142.07 717.062,3142.11L717.065,3142.12C717.163,3142.16 717.254,3142.22 717.334,3142.3L727.452,3152.41L727.476,3152.44L727.497,3152.46L727.517,3152.49L727.536,3152.51L727.557,3152.54L727.576,3152.57L727.593,3152.6L727.607,3152.63L727.621,3152.66L727.633,3152.68L727.644,3152.71L727.652,3152.74L727.66,3152.76L727.667,3152.78L727.672,3152.8C727.736,3153.07 727.671,3153.35 727.478,3153.56L727.456,3153.59L727.452,3153.59L719.02,3162.02L717.334,3163.71C717.254,3163.79 717.163,3163.85 717.065,3163.89L717.062,3163.89C716.966,3163.93 716.861,3163.95 716.75,3163.95L716.745,3163.95C716.632,3163.95 716.525,3163.93 716.427,3163.89L716.425,3163.89C716.327,3163.85 716.235,3163.79 716.155,3163.71C716.076,3163.63 716.016,3163.54 715.975,3163.44L715.974,3163.44C715.934,3163.34 715.911,3163.23 715.911,3163.12L715.911,3142.88C715.911,3142.77 715.934,3142.66 715.974,3142.57L715.975,3142.56C716.016,3142.47 716.076,3142.38 716.155,3142.3C716.235,3142.22 716.327,3142.16 716.425,3142.12L716.427,3142.11C716.523,3142.07 716.629,3142.05 716.739,3142.05L716.75,3142.05ZM717.578,3144.9L717.578,3161.11L717.842,3160.84L725.684,3153L717.578,3144.9Z"/>
    </g>
</svg>
