<?xml version="1.0" encoding="UTF-8" standalone="no"?>
<!DOCTYPE svg PUBLIC "-//W3C//DTD SVG 1.1//EN" "http://www.w3.org/Graphics/SVG/1.1/DTD/svg11.dtd">
<svg width="100%" height="100%" viewBox="0 0 70 70" version="1.1" xmlns="http://www.w3.org/2000/svg" xmlns:xlink="http://www.w3.org/1999/xlink" xml:space="preserve" xmlns:serif="http://www.serif.com/" style="fill-rule:evenodd;clip-rule:evenodd;stroke-linejoin:round;stroke-miterlimit:2;">
    <g transform="matrix(1,0,0,1,-279.161,-2582.76)">
        <path d="M285.77,2596.82C292.017,2588.26 302.143,2582.76 313.72,2582.76C333.014,2582.76 348.561,2598.03 348.561,2617.32C348.561,2636.61 333.012,2652.16 313.72,2652.16C294.427,2652.16 279.161,2636.62 279.161,2617.32C279.161,2610.21 281.235,2603.65 284.821,2598.19L280.638,2595.24C280.262,2594.97 280.173,2594.45 280.438,2594.08C280.703,2593.7 281.224,2593.61 281.599,2593.88L285.77,2596.82ZM346.894,2617.32C346.894,2635.69 332.089,2650.5 313.72,2650.5C295.353,2650.5 280.828,2635.69 280.828,2617.32C280.828,2598.96 295.355,2584.43 313.72,2584.43C332.087,2584.43 346.894,2598.96 346.894,2617.32ZM323.838,2629.14C324.298,2629.14 324.672,2629.51 324.672,2629.97C324.672,2630.43 324.298,2630.8 323.838,2630.8L303.603,2630.8C303.143,2630.8 302.769,2630.43 302.769,2629.97C302.769,2629.51 303.143,2629.14 303.603,2629.14L323.838,2629.14ZM313.403,2601.38C313.501,2601.34 313.608,2601.31 313.72,2601.31C313.833,2601.31 313.94,2601.34 314.038,2601.38L314.071,2601.39L314.103,2601.41L314.131,2601.42L314.157,2601.44L314.183,2601.45L314.209,2601.47L314.234,2601.49L314.259,2601.51L314.283,2601.53L314.31,2601.56L322.741,2609.99L324.427,2611.67C324.753,2612 324.753,2612.53 324.427,2612.85C324.102,2613.18 323.574,2613.18 323.249,2612.85L321.563,2611.17L314.554,2604.16L314.554,2627.44C314.554,2627.9 314.18,2628.27 313.72,2628.27C313.26,2628.27 312.887,2627.9 312.887,2627.44L312.887,2604.16L304.192,2612.85C303.867,2613.18 303.339,2613.18 303.013,2612.85C302.688,2612.53 302.688,2612 303.013,2611.67L313.131,2601.56L313.156,2601.53L313.18,2601.51L313.204,2601.49L313.229,2601.47L313.255,2601.45L313.286,2601.43L313.317,2601.42L313.346,2601.4L313.374,2601.39L313.403,2601.38Z"/>
    </g>
</svg>
