<?xml version="1.0" encoding="UTF-8" standalone="no"?>
<!DOCTYPE svg PUBLIC "-//W3C//DTD SVG 1.1//EN" "http://www.w3.org/Graphics/SVG/1.1/DTD/svg11.dtd">
<svg width="100%" height="100%" viewBox="0 0 70 70" version="1.1" xmlns="http://www.w3.org/2000/svg" xmlns:xlink="http://www.w3.org/1999/xlink" xml:space="preserve" xmlns:serif="http://www.serif.com/" style="fill-rule:evenodd;clip-rule:evenodd;stroke-linejoin:round;stroke-miterlimit:2;">
    <g transform="matrix(1,0,0,1,-360.103,-2582.76)">
        <path d="M429.503,2617.32C429.503,2598.03 413.956,2582.76 394.663,2582.76C375.367,2582.76 360.103,2598.03 360.103,2617.32C360.103,2636.62 375.369,2652.16 394.663,2652.16C413.954,2652.16 429.503,2636.61 429.503,2617.32ZM427.836,2617.32C427.836,2635.69 413.031,2650.5 394.663,2650.5C376.296,2650.5 361.77,2635.69 361.77,2617.32C361.77,2598.96 376.297,2584.43 394.663,2584.43C413.029,2584.43 427.836,2598.96 427.836,2617.32ZM377.226,2601.54C377.312,2601.46 377.417,2601.39 377.536,2601.36C377.63,2601.32 377.726,2601.31 377.82,2601.31L377.824,2601.31C377.918,2601.32 378.013,2601.33 378.105,2601.37C378.222,2601.42 378.323,2601.49 378.405,2601.57C378.486,2601.66 378.55,2601.76 378.59,2601.88L387.108,2627.44L396.409,2601.86C396.452,2601.74 396.519,2601.64 396.603,2601.56C396.686,2601.47 396.789,2601.41 396.907,2601.36C397.001,2601.33 397.096,2601.31 397.19,2601.31L397.194,2601.31C397.288,2601.31 397.383,2601.33 397.477,2601.36C397.595,2601.41 397.698,2601.47 397.781,2601.56C397.865,2601.64 397.932,2601.74 397.975,2601.86L408.093,2629.68C408.25,2630.12 408.027,2630.6 407.595,2630.75C407.162,2630.91 406.684,2630.69 406.527,2630.26L397.192,2604.58L387.857,2630.26C387.814,2630.37 387.746,2630.48 387.657,2630.57L387.655,2630.57C387.568,2630.65 387.461,2630.72 387.338,2630.76C387.247,2630.79 387.154,2630.8 387.063,2630.8C386.972,2630.8 386.88,2630.79 386.789,2630.75C386.667,2630.71 386.562,2630.64 386.477,2630.55C386.392,2630.46 386.325,2630.36 386.284,2630.23L377.734,2604.59L367.614,2630.28C367.445,2630.7 366.961,2630.91 366.533,2630.74C366.105,2630.58 365.895,2630.09 366.063,2629.66L377.024,2601.84C377.07,2601.72 377.14,2601.62 377.226,2601.54ZM416.267,2601.38C416.364,2601.34 416.472,2601.31 416.584,2601.31C416.697,2601.31 416.804,2601.34 416.902,2601.38L416.935,2601.39L416.967,2601.41L416.994,2601.42L417.021,2601.44L417.047,2601.45L417.073,2601.47L417.098,2601.49L417.123,2601.51L417.146,2601.53L417.174,2601.56L421.389,2605.77C421.715,2606.1 421.715,2606.63 421.389,2606.95C421.064,2607.28 420.536,2607.28 420.211,2606.95L417.418,2604.16L417.418,2627.12L420.211,2624.32C420.536,2624 421.064,2624 421.389,2624.32C421.715,2624.65 421.715,2625.18 421.389,2625.5L417.174,2629.72L417.149,2629.74L417.125,2629.76L417.101,2629.78L417.075,2629.8L417.045,2629.82L417.017,2629.84L416.99,2629.86L416.963,2629.87L416.94,2629.88L416.931,2629.89L416.902,2629.9C416.804,2629.94 416.697,2629.96 416.584,2629.96C416.472,2629.96 416.364,2629.94 416.267,2629.9L416.264,2629.9C416.168,2629.86 416.078,2629.8 415.999,2629.72L415.995,2629.72C415.995,2629.72 411.779,2625.5 411.779,2625.5C411.454,2625.18 411.454,2624.65 411.779,2624.32C412.105,2624 412.633,2624 412.958,2624.32L415.751,2627.12L415.751,2604.16L412.958,2606.95C412.633,2607.28 412.105,2607.28 411.779,2606.95C411.454,2606.63 411.454,2606.1 411.779,2605.77L415.995,2601.56L416.02,2601.53L416.044,2601.51L416.068,2601.49L416.093,2601.47L416.119,2601.45L416.149,2601.43L416.181,2601.42L416.21,2601.4L416.243,2601.39L416.267,2601.38Z"/>
    </g>
</svg>
