<?xml version="1.0" encoding="UTF-8" standalone="no"?>
<!DOCTYPE svg PUBLIC "-//W3C//DTD SVG 1.1//EN" "http://www.w3.org/Graphics/SVG/1.1/DTD/svg11.dtd">
<svg width="100%" height="100%" viewBox="0 0 70 70" version="1.1" xmlns="http://www.w3.org/2000/svg" xmlns:xlink="http://www.w3.org/1999/xlink" xml:space="preserve" xmlns:serif="http://www.serif.com/" style="fill-rule:evenodd;clip-rule:evenodd;stroke-linejoin:round;stroke-miterlimit:2;">
    <g transform="matrix(1,0,0,1,-441.045,-2582.76)">
        <path d="M447.654,2596.82C453.901,2588.26 464.027,2582.76 475.605,2582.76C494.898,2582.76 510.445,2598.03 510.445,2617.32C510.445,2636.61 494.896,2652.16 475.605,2652.16C456.311,2652.16 441.045,2636.62 441.045,2617.32C441.045,2610.21 443.119,2603.65 446.705,2598.19L442.522,2595.24C442.147,2594.97 442.057,2594.45 442.322,2594.08C442.587,2593.7 443.108,2593.61 443.484,2593.88L447.654,2596.82ZM508.778,2617.32C508.778,2635.69 493.974,2650.5 475.605,2650.5C457.238,2650.5 442.712,2635.69 442.712,2617.32C442.712,2598.96 457.24,2584.43 475.605,2584.43C493.972,2584.43 508.778,2598.96 508.778,2617.32ZM453.071,2636.99L453.094,2636.97L457.309,2632.75C457.635,2632.43 458.163,2632.43 458.488,2632.75C458.813,2633.08 458.813,2633.61 458.488,2633.93L455.695,2636.72L494.672,2636.72L491.878,2633.93C491.553,2633.61 491.553,2633.08 491.878,2632.75C492.204,2632.43 492.732,2632.43 493.057,2632.75L497.273,2636.97L497.296,2636.99L497.317,2637.02L497.337,2637.04L497.357,2637.07L497.375,2637.09L497.394,2637.12L497.413,2637.16L497.428,2637.18L497.444,2637.22L497.454,2637.24C497.494,2637.34 497.517,2637.45 497.517,2637.56C497.517,2637.67 497.494,2637.78 497.454,2637.88L497.441,2637.91L497.425,2637.94L497.408,2637.97L497.391,2638L497.374,2638.03L497.356,2638.05L497.336,2638.08L497.316,2638.1L497.295,2638.12L497.273,2638.15L493.057,2642.36C492.732,2642.69 492.204,2642.69 491.878,2642.36C491.553,2642.04 491.553,2641.51 491.878,2641.18L494.672,2638.39L455.695,2638.39L458.488,2641.18C458.813,2641.51 458.813,2642.04 458.488,2642.36C458.163,2642.69 457.635,2642.69 457.309,2642.36L453.094,2638.15L453.07,2638.12L453.049,2638.1L453.029,2638.07L453.01,2638.05L452.992,2638.02L452.972,2637.99L452.954,2637.96L452.938,2637.93L452.923,2637.9L452.912,2637.88C452.872,2637.78 452.85,2637.67 452.85,2637.56C452.85,2637.45 452.872,2637.34 452.912,2637.24L452.926,2637.21L452.941,2637.18L452.959,2637.15L452.976,2637.12L452.993,2637.09L453.011,2637.07L453.03,2637.04L453.05,2637.02L453.071,2636.99ZM461.541,2600.7C461.627,2600.62 461.731,2600.55 461.851,2600.51C461.945,2600.48 462.041,2600.47 462.135,2600.47L462.139,2600.47C462.233,2600.47 462.327,2600.49 462.42,2600.53C462.537,2600.57 462.638,2600.64 462.719,2600.73C462.801,2600.82 462.865,2600.92 462.905,2601.04L471.423,2626.59L480.724,2601.02C480.767,2600.9 480.834,2600.8 480.917,2600.71C481.001,2600.63 481.104,2600.56 481.222,2600.52C481.315,2600.49 481.411,2600.47 481.505,2600.47L481.509,2600.47C481.603,2600.47 481.698,2600.49 481.791,2600.52C481.91,2600.56 482.013,2600.63 482.096,2600.71C482.18,2600.8 482.247,2600.9 482.29,2601.02L491.624,2626.69L500.959,2601.02C501.116,2600.59 501.595,2600.36 502.027,2600.52C502.459,2600.68 502.683,2601.16 502.525,2601.59L492.408,2629.41C492.365,2629.53 492.297,2629.63 492.214,2629.72C492.13,2629.8 492.028,2629.87 491.909,2629.91C491.816,2629.94 491.72,2629.96 491.627,2629.96L491.622,2629.96C491.528,2629.96 491.433,2629.94 491.34,2629.91C491.221,2629.87 491.119,2629.8 491.035,2629.72C490.951,2629.63 490.884,2629.53 490.841,2629.41L481.507,2603.74L472.172,2629.41C472.129,2629.53 472.061,2629.64 471.971,2629.72L471.97,2629.72C471.883,2629.81 471.776,2629.88 471.652,2629.92C471.561,2629.95 471.469,2629.96 471.378,2629.96C471.287,2629.96 471.194,2629.94 471.104,2629.91C470.982,2629.87 470.877,2629.8 470.792,2629.71C470.707,2629.62 470.639,2629.51 470.598,2629.39L462.049,2603.74L451.929,2629.43C451.76,2629.86 451.276,2630.07 450.848,2629.9C450.42,2629.73 450.21,2629.25 450.378,2628.82L461.339,2601C461.385,2600.88 461.455,2600.78 461.541,2600.7Z"/>
    </g>
</svg>
