<?xml version="1.0" encoding="UTF-8" standalone="no"?>
<!DOCTYPE svg PUBLIC "-//W3C//DTD SVG 1.1//EN" "http://www.w3.org/Graphics/SVG/1.1/DTD/svg11.dtd">
<svg width="100%" height="100%" viewBox="0 0 70 70" version="1.1" xmlns="http://www.w3.org/2000/svg" xmlns:xlink="http://www.w3.org/1999/xlink" xml:space="preserve" xmlns:serif="http://www.serif.com/" style="fill-rule:evenodd;clip-rule:evenodd;stroke-linejoin:round;stroke-miterlimit:2;">
    <g transform="matrix(1,0,0,1,-521.988,-2582.76)">
        <path d="M528.596,2596.82C534.844,2588.26 544.969,2582.76 556.547,2582.76C575.84,2582.76 591.387,2598.03 591.387,2617.32C591.387,2636.61 575.839,2652.16 556.547,2652.16C537.253,2652.16 521.988,2636.62 521.988,2617.32C521.988,2610.21 524.061,2603.65 527.647,2598.19L523.465,2595.24C523.089,2594.97 522.999,2594.45 523.264,2594.08C523.53,2593.7 524.05,2593.61 524.426,2593.88L528.596,2596.82ZM589.72,2617.32C589.72,2635.69 574.916,2650.5 556.547,2650.5C538.18,2650.5 523.654,2635.69 523.654,2617.32C523.654,2598.96 538.182,2584.43 556.547,2584.43C574.914,2584.43 589.72,2598.96 589.72,2617.32ZM540.797,2600.7C540.883,2600.62 540.987,2600.55 541.107,2600.51C541.201,2600.48 541.297,2600.47 541.39,2600.47L541.395,2600.47C541.488,2600.47 541.583,2600.49 541.676,2600.53C541.793,2600.57 541.894,2600.64 541.975,2600.73C542.057,2600.82 542.121,2600.92 542.161,2601.04L549.811,2623.99L549.811,2601.3L549.812,2601.27L549.814,2601.23L549.816,2601.21C549.861,2600.8 550.215,2600.47 550.645,2600.47L561.606,2600.47L561.64,2600.47L561.672,2600.47L561.703,2600.47L561.734,2600.48L561.758,2600.48C562.145,2600.55 562.439,2600.89 562.439,2601.3L562.439,2616.42L563.25,2622.1L565.568,2625.96L570.037,2628.2L574.506,2625.96L576.824,2622.1L577.642,2616.37C577.651,2616.31 577.667,2616.24 577.69,2616.18C577.739,2616.05 577.821,2615.94 577.923,2615.85C578.025,2615.76 578.149,2615.7 578.285,2615.67C578.348,2615.65 578.413,2615.64 578.48,2615.65L585.214,2615.65C585.674,2615.65 586.047,2616.02 586.047,2616.48C586.047,2616.94 585.674,2617.31 585.214,2617.31L579.191,2617.31L578.452,2622.49C578.445,2622.55 578.431,2622.6 578.411,2622.66C578.391,2622.72 578.364,2622.77 578.333,2622.82L575.811,2627.03L575.793,2627.05L575.79,2627.06C575.755,2627.11 575.712,2627.16 575.663,2627.21L575.661,2627.21C575.613,2627.26 575.559,2627.29 575.502,2627.33L575.498,2627.33C575.489,2627.33 575.479,2627.34 575.469,2627.34L570.41,2629.87C570.29,2629.93 570.163,2629.96 570.037,2629.96C569.912,2629.96 569.784,2629.93 569.665,2629.87L564.606,2627.34L564.576,2627.33L564.572,2627.33C564.515,2627.29 564.462,2627.26 564.413,2627.21L564.411,2627.21C564.362,2627.16 564.32,2627.11 564.284,2627.06L564.281,2627.05C564.275,2627.05 564.269,2627.03 564.264,2627.03L561.741,2622.82C561.71,2622.77 561.684,2622.72 561.663,2622.66C561.643,2622.6 561.629,2622.55 561.622,2622.49L560.783,2616.61C560.779,2616.59 560.776,2616.56 560.775,2616.54L560.774,2616.54C560.773,2616.51 560.772,2616.49 560.772,2616.47L560.772,2602.14L551.478,2602.14L551.478,2629.11C551.479,2629.15 551.476,2629.2 551.471,2629.24C551.452,2629.38 551.399,2629.51 551.321,2629.61C551.242,2629.72 551.137,2629.81 551.011,2629.88C550.939,2629.91 550.861,2629.94 550.78,2629.95L550.777,2629.95C550.695,2629.96 550.614,2629.96 550.534,2629.95C550.395,2629.93 550.266,2629.88 550.158,2629.8C550.049,2629.72 549.958,2629.62 549.896,2629.49C549.877,2629.45 549.862,2629.41 549.849,2629.38L541.305,2603.74L531.185,2629.43C531.016,2629.86 530.532,2630.07 530.104,2629.9C529.676,2629.73 529.465,2629.25 529.634,2628.82L540.595,2601C540.641,2600.88 540.711,2600.78 540.797,2600.7Z"/>
    </g>
</svg>
